%TF.GenerationSoftware,KiCad,Pcbnew,8.0.6*%
%TF.CreationDate,2024-11-15T04:32:27+07:00*%
%TF.ProjectId,Heart HE 65,48656172-7420-4484-9520-36352e6b6963,rev?*%
%TF.SameCoordinates,Original*%
%TF.FileFunction,Profile,NP*%
%FSLAX46Y46*%
G04 Gerber Fmt 4.6, Leading zero omitted, Abs format (unit mm)*
G04 Created by KiCad (PCBNEW 8.0.6) date 2024-11-15 04:32:27*
%MOMM*%
%LPD*%
G01*
G04 APERTURE LIST*
%TA.AperFunction,Profile*%
%ADD10C,0.200000*%
%TD*%
%TA.AperFunction,Profile*%
%ADD11C,0.100000*%
%TD*%
G04 APERTURE END LIST*
D10*
X247075000Y-86400000D02*
G75*
G02*
X248325000Y-85150000I1250000J0D01*
G01*
X24401894Y-10000000D02*
G75*
G02*
X25731933Y-10806449I6J-1500000D01*
G01*
X159081928Y-103393548D02*
G75*
G02*
X157751894Y-104199994I-1330028J693548D01*
G01*
X145618071Y-10806452D02*
G75*
G02*
X146948105Y-10000005I1330029J-693548D01*
G01*
X195851894Y-10000000D02*
G75*
G02*
X197181933Y-10806449I6J-1500000D01*
G01*
X138962483Y-56000037D02*
X137162486Y-56000037D01*
X202768071Y-10806452D02*
G75*
G02*
X204098105Y-10000005I1330029J-693548D01*
G01*
X299348106Y-104200000D02*
G75*
G02*
X298018067Y-103393551I-6J1500000D01*
G01*
X137162486Y-58200038D02*
G75*
G02*
X137162486Y-55999962I14J1100038D01*
G01*
X247075000Y-86400000D02*
X247075000Y-101950000D01*
X24401894Y-10000000D02*
X12250000Y-10000000D01*
X269012487Y-39100038D02*
G75*
G02*
X269012486Y-36899962I13J1100038D01*
G01*
X138701894Y-10000000D02*
G75*
G02*
X140031933Y-10806449I6J-1500000D01*
G01*
X100601894Y-10000000D02*
G75*
G02*
X101931933Y-10806449I6J-1500000D01*
G01*
X35962483Y-36900037D02*
X34162487Y-36900037D01*
X299348106Y-104200000D02*
X311500000Y-104200000D01*
X227910606Y-104200000D02*
G75*
G02*
X226580567Y-103393551I-6J1500000D01*
G01*
X292431929Y-103393548D02*
G75*
G02*
X298018071Y-103393549I2793071J-1456452D01*
G01*
X201262479Y-94190728D02*
G75*
G02*
X201262479Y-96390672I21J-1099972D01*
G01*
X196393890Y-94190728D02*
X201262479Y-94190728D01*
X34162487Y-39100038D02*
X35962483Y-39100038D01*
X65985606Y-104200000D02*
G75*
G02*
X64655567Y-103393551I-6J1500000D01*
G01*
X31318071Y-10806452D02*
G75*
G02*
X32648105Y-10000005I1330029J-693548D01*
G01*
X10000000Y-101950000D02*
X10000000Y-12250000D01*
X195851894Y-10000000D02*
X146948105Y-10000000D01*
X248325000Y-85150000D02*
X256400000Y-85150000D01*
X270812483Y-36900037D02*
X269012486Y-36900037D01*
X256400000Y-85150000D02*
G75*
G02*
X257650000Y-86400000I0J-1250000D01*
G01*
X270812483Y-36900037D02*
G75*
G02*
X270812483Y-39099963I17J-1099963D01*
G01*
X280298106Y-104200000D02*
G75*
G02*
X278968067Y-103393551I-6J1500000D01*
G01*
X311500000Y-10000000D02*
X299348105Y-10000000D01*
X100601894Y-10000000D02*
X32648105Y-10000000D01*
X291101894Y-104200000D02*
X280298106Y-104200000D01*
X197181929Y-103393548D02*
G75*
G02*
X202768071Y-103393549I2793071J-1456452D01*
G01*
X292431928Y-103393548D02*
G75*
G02*
X291101894Y-104199994I-1330028J693548D01*
G01*
X202768072Y-10806452D02*
G75*
G02*
X197181928Y-10806452I-2793072J1456451D01*
G01*
X244825000Y-104200000D02*
X227910606Y-104200000D01*
X138701894Y-10000000D02*
X108848105Y-10000000D01*
X273381928Y-103393548D02*
G75*
G02*
X272051894Y-104199994I-1330028J693548D01*
G01*
X204098106Y-104200000D02*
G75*
G02*
X202768067Y-103393551I-6J1500000D01*
G01*
X220994429Y-103393548D02*
G75*
G02*
X226580571Y-103393549I2793071J-1456452D01*
G01*
X57739394Y-104200000D02*
X12250000Y-104200000D01*
X137162486Y-58200038D02*
X138962483Y-58200038D01*
X59069429Y-103393548D02*
G75*
G02*
X64655571Y-103393549I2793071J-1456452D01*
G01*
X273381929Y-103393548D02*
G75*
G02*
X278968071Y-103393549I2793071J-1456452D01*
G01*
X219664394Y-104200000D02*
X204098106Y-104200000D01*
X10000000Y-12250000D02*
G75*
G02*
X12250000Y-10000000I2250000J0D01*
G01*
X34162487Y-39100038D02*
G75*
G02*
X34162487Y-36900042I-37J1099998D01*
G01*
X291101894Y-10000000D02*
X204098105Y-10000000D01*
X107518072Y-10806452D02*
G75*
G02*
X101931928Y-10806452I-2793072J1456451D01*
G01*
X311500000Y-10000000D02*
G75*
G02*
X313750000Y-12250000I0J-2250000D01*
G01*
X313750000Y-101950000D02*
X313750000Y-12250000D01*
X196393890Y-96390729D02*
G75*
G02*
X196393890Y-94190671I10J1100029D01*
G01*
X157751894Y-104200000D02*
X65985606Y-104200000D01*
X59069428Y-103393548D02*
G75*
G02*
X57739394Y-104199994I-1330028J693548D01*
G01*
X247075000Y-101950000D02*
G75*
G02*
X244825000Y-104200000I-2250000J0D01*
G01*
X269012487Y-39100038D02*
X270812483Y-39100038D01*
X107518071Y-10806452D02*
G75*
G02*
X108848105Y-10000005I1330029J-693548D01*
G01*
X159081929Y-103393548D02*
G75*
G02*
X164668071Y-103393549I2793071J-1456452D01*
G01*
X165998106Y-104200000D02*
G75*
G02*
X164668067Y-103393551I-6J1500000D01*
G01*
X12250000Y-104200000D02*
G75*
G02*
X10000000Y-101950000I-20J2249980D01*
G01*
X35962483Y-36900037D02*
G75*
G02*
X35962483Y-39100043I-33J-1100003D01*
G01*
X257650000Y-101950000D02*
X257650000Y-86400000D01*
X138962483Y-56000037D02*
G75*
G02*
X138962483Y-58199963I17J-1099963D01*
G01*
X259900000Y-104200000D02*
G75*
G02*
X257650000Y-101950000I0J2250000D01*
G01*
X195851894Y-104200000D02*
X165998106Y-104200000D01*
X145618072Y-10806452D02*
G75*
G02*
X140031928Y-10806452I-2793072J1456451D01*
G01*
X220994428Y-103393548D02*
G75*
G02*
X219664394Y-104199994I-1330028J693548D01*
G01*
X298018071Y-10806452D02*
G75*
G02*
X299348105Y-10000005I1330029J-693548D01*
G01*
X298018072Y-10806452D02*
G75*
G02*
X292431928Y-10806452I-2793072J1456451D01*
G01*
X291101894Y-10000000D02*
G75*
G02*
X292431933Y-10806449I6J-1500000D01*
G01*
X197181928Y-103393548D02*
G75*
G02*
X195851894Y-104199994I-1330028J693548D01*
G01*
X31318072Y-10806452D02*
G75*
G02*
X25731928Y-10806452I-2793072J1456451D01*
G01*
X201262479Y-96390729D02*
X196393890Y-96390729D01*
X313750000Y-101950000D02*
G75*
G02*
X311500000Y-104200000I-2250000J0D01*
G01*
X272051894Y-104200000D02*
X259900000Y-104200000D01*
D11*
%TO.C,RGB1_A45*%
X286746710Y-98711701D02*
G75*
G02*
X286494452Y-98780000I-252258J431701D01*
G01*
X284905548Y-98780000D02*
G75*
G02*
X284653289Y-98711701I0J500000D01*
G01*
X283950516Y-99360281D02*
G75*
G02*
X284653289Y-98711701I450515J216879D01*
G01*
X283950516Y-99360280D02*
G75*
G02*
X284000001Y-99577158I-450515J-216878D01*
G01*
X284000001Y-100982843D02*
G75*
G02*
X283950516Y-101199720I-500000J1D01*
G01*
X284653289Y-101848298D02*
G75*
G02*
X283950516Y-101199720I-252258J431701D01*
G01*
X284653289Y-101848298D02*
G75*
G02*
X284905547Y-101779999I252258J-431701D01*
G01*
X286494453Y-101780000D02*
G75*
G02*
X286746711Y-101848299I-1J-499999D01*
G01*
X287449484Y-101199720D02*
G75*
G02*
X286746711Y-101848299I-450515J-216878D01*
G01*
X287449484Y-101199720D02*
G75*
G02*
X287399999Y-100982842I450515J216878D01*
G01*
X287399999Y-99577157D02*
G75*
G02*
X287449484Y-99360280I500000J-1D01*
G01*
X286746711Y-98711703D02*
G75*
G02*
X287449484Y-99360280I252258J-431700D01*
G01*
X287399999Y-99577158D02*
X287399999Y-100982842D01*
X286494452Y-101779999D02*
X284905547Y-101779999D01*
X284000001Y-100982842D02*
X284000001Y-99577158D01*
X284905548Y-98780000D02*
X286494452Y-98780000D01*
%TO.C,RGB1_A44*%
X267696710Y-98711701D02*
G75*
G02*
X267444452Y-98780000I-252258J431701D01*
G01*
X265855548Y-98780000D02*
G75*
G02*
X265603289Y-98711701I0J500000D01*
G01*
X264900516Y-99360281D02*
G75*
G02*
X265603289Y-98711701I450515J216879D01*
G01*
X264900516Y-99360280D02*
G75*
G02*
X264950001Y-99577158I-450515J-216878D01*
G01*
X264950001Y-100982843D02*
G75*
G02*
X264900516Y-101199720I-500000J1D01*
G01*
X265603289Y-101848298D02*
G75*
G02*
X264900516Y-101199720I-252258J431701D01*
G01*
X265603289Y-101848298D02*
G75*
G02*
X265855547Y-101779999I252258J-431701D01*
G01*
X267444453Y-101780000D02*
G75*
G02*
X267696711Y-101848299I-1J-499999D01*
G01*
X268399484Y-101199720D02*
G75*
G02*
X267696711Y-101848299I-450515J-216878D01*
G01*
X268399484Y-101199720D02*
G75*
G02*
X268349999Y-100982842I450515J216878D01*
G01*
X268349999Y-99577157D02*
G75*
G02*
X268399484Y-99360280I500000J-1D01*
G01*
X267696711Y-98711703D02*
G75*
G02*
X268399484Y-99360280I252258J-431700D01*
G01*
X268349999Y-99577158D02*
X268349999Y-100982842D01*
X267444452Y-101779999D02*
X265855547Y-101779999D01*
X264950001Y-100982842D02*
X264950001Y-99577158D01*
X265855548Y-98780000D02*
X267444452Y-98780000D01*
%TO.C,RGB1_A43*%
X305796710Y-98711701D02*
G75*
G02*
X305544452Y-98780000I-252258J431701D01*
G01*
X303955548Y-98780000D02*
G75*
G02*
X303703289Y-98711701I0J500000D01*
G01*
X303000516Y-99360281D02*
G75*
G02*
X303703289Y-98711701I450515J216879D01*
G01*
X303000516Y-99360280D02*
G75*
G02*
X303050001Y-99577158I-450515J-216878D01*
G01*
X303050001Y-100982843D02*
G75*
G02*
X303000516Y-101199720I-500000J1D01*
G01*
X303703289Y-101848298D02*
G75*
G02*
X303000516Y-101199720I-252258J431701D01*
G01*
X303703289Y-101848298D02*
G75*
G02*
X303955547Y-101779999I252258J-431701D01*
G01*
X305544453Y-101780000D02*
G75*
G02*
X305796711Y-101848299I-1J-499999D01*
G01*
X306499484Y-101199720D02*
G75*
G02*
X305796711Y-101848299I-450515J-216878D01*
G01*
X306499484Y-101199720D02*
G75*
G02*
X306449999Y-100982842I450515J216878D01*
G01*
X306449999Y-99577157D02*
G75*
G02*
X306499484Y-99360280I500000J-1D01*
G01*
X305796711Y-98711703D02*
G75*
G02*
X306499484Y-99360280I252258J-431700D01*
G01*
X306449999Y-99577158D02*
X306449999Y-100982842D01*
X305544452Y-101779999D02*
X303955547Y-101779999D01*
X303050001Y-100982842D02*
X303050001Y-99577158D01*
X303955548Y-98780000D02*
X305544452Y-98780000D01*
%TO.C,RGB1_A42*%
X235549835Y-98711701D02*
G75*
G02*
X235297577Y-98780000I-252258J431701D01*
G01*
X233708673Y-98780000D02*
G75*
G02*
X233456414Y-98711701I0J500000D01*
G01*
X232753641Y-99360281D02*
G75*
G02*
X233456414Y-98711701I450515J216879D01*
G01*
X232753641Y-99360280D02*
G75*
G02*
X232803126Y-99577158I-450515J-216878D01*
G01*
X232803126Y-100982843D02*
G75*
G02*
X232753641Y-101199720I-500000J1D01*
G01*
X233456414Y-101848298D02*
G75*
G02*
X232753641Y-101199720I-252258J431701D01*
G01*
X233456414Y-101848298D02*
G75*
G02*
X233708672Y-101779999I252258J-431701D01*
G01*
X235297578Y-101780000D02*
G75*
G02*
X235549836Y-101848299I-1J-499999D01*
G01*
X236252609Y-101199720D02*
G75*
G02*
X235549836Y-101848299I-450515J-216878D01*
G01*
X236252609Y-101199720D02*
G75*
G02*
X236203124Y-100982842I450515J216878D01*
G01*
X236203124Y-99577157D02*
G75*
G02*
X236252609Y-99360280I500000J-1D01*
G01*
X235549836Y-98711703D02*
G75*
G02*
X236252609Y-99360280I252258J-431700D01*
G01*
X236203124Y-99577158D02*
X236203124Y-100982842D01*
X235297577Y-101779999D02*
X233708672Y-101779999D01*
X232803126Y-100982842D02*
X232803126Y-99577158D01*
X233708673Y-98780000D02*
X235297577Y-98780000D01*
%TO.C,RGB1_A40*%
X211086799Y-97780000D02*
X212675703Y-97780000D01*
X210181251Y-99982842D02*
X210181251Y-98577158D01*
X212675701Y-100780000D02*
X211086797Y-100779999D01*
X213581249Y-98577158D02*
X213581249Y-99982842D01*
X212927960Y-97711704D02*
G75*
G02*
X213630733Y-98360280I252260J-431698D01*
G01*
X213581249Y-98577157D02*
G75*
G02*
X213630734Y-98360280I500000J-1D01*
G01*
X213630734Y-100199720D02*
G75*
G02*
X213581249Y-99982842I450515J216878D01*
G01*
X213630734Y-100199720D02*
G75*
G02*
X212927961Y-100848301I-450515J-216879D01*
G01*
X212675702Y-100780001D02*
G75*
G02*
X212927961Y-100848301I-1J-499998D01*
G01*
X210834539Y-100848298D02*
G75*
G02*
X211086797Y-100780000I252257J-431701D01*
G01*
X210834539Y-100848298D02*
G75*
G02*
X210131766Y-100199719I-252259J431700D01*
G01*
X210181251Y-99982843D02*
G75*
G02*
X210131766Y-100199720I-500000J1D01*
G01*
X210131767Y-98360280D02*
G75*
G02*
X210181252Y-98577158I-450516J-216878D01*
G01*
X210131766Y-98360281D02*
G75*
G02*
X210834539Y-97711701I450515J216879D01*
G01*
X211086799Y-97780000D02*
G75*
G02*
X210834539Y-97711701I-1J500001D01*
G01*
X212927960Y-97711702D02*
G75*
G02*
X212675703Y-97780001I-252258J431703D01*
G01*
%TO.C,RGB1_A38*%
X153396710Y-98711701D02*
G75*
G02*
X153144452Y-98780000I-252258J431701D01*
G01*
X151555548Y-98780000D02*
G75*
G02*
X151303289Y-98711701I0J500000D01*
G01*
X150600516Y-99360281D02*
G75*
G02*
X151303289Y-98711701I450515J216879D01*
G01*
X150600516Y-99360280D02*
G75*
G02*
X150650001Y-99577158I-450515J-216878D01*
G01*
X150650001Y-100982843D02*
G75*
G02*
X150600516Y-101199720I-500000J1D01*
G01*
X151303289Y-101848298D02*
G75*
G02*
X150600516Y-101199720I-252258J431701D01*
G01*
X151303289Y-101848298D02*
G75*
G02*
X151555547Y-101779999I252258J-431701D01*
G01*
X153144453Y-101780000D02*
G75*
G02*
X153396711Y-101848299I-1J-499999D01*
G01*
X154099484Y-101199720D02*
G75*
G02*
X153396711Y-101848299I-450515J-216878D01*
G01*
X154099484Y-101199720D02*
G75*
G02*
X154049999Y-100982842I450515J216878D01*
G01*
X154049999Y-99577157D02*
G75*
G02*
X154099484Y-99360280I500000J-1D01*
G01*
X153396711Y-98711703D02*
G75*
G02*
X154099484Y-99360280I252258J-431700D01*
G01*
X154049999Y-99577158D02*
X154049999Y-100982842D01*
X153144452Y-101779999D02*
X151555547Y-101779999D01*
X150650001Y-100982842D02*
X150650001Y-99577158D01*
X151555548Y-98780000D02*
X153144452Y-98780000D01*
%TO.C,RGB1_A36*%
X141490460Y-98711701D02*
G75*
G02*
X141238202Y-98780000I-252258J431701D01*
G01*
X139649298Y-98780000D02*
G75*
G02*
X139397039Y-98711701I0J500000D01*
G01*
X138694266Y-99360281D02*
G75*
G02*
X139397039Y-98711701I450515J216879D01*
G01*
X138694266Y-99360280D02*
G75*
G02*
X138743751Y-99577158I-450515J-216878D01*
G01*
X138743751Y-100982843D02*
G75*
G02*
X138694266Y-101199720I-500000J1D01*
G01*
X139397039Y-101848298D02*
G75*
G02*
X138694266Y-101199720I-252258J431701D01*
G01*
X139397039Y-101848298D02*
G75*
G02*
X139649297Y-101779999I252258J-431701D01*
G01*
X141238203Y-101780000D02*
G75*
G02*
X141490461Y-101848299I-1J-499999D01*
G01*
X142193234Y-101199720D02*
G75*
G02*
X141490461Y-101848299I-450515J-216878D01*
G01*
X142193234Y-101199720D02*
G75*
G02*
X142143749Y-100982842I450515J216878D01*
G01*
X142143749Y-99577157D02*
G75*
G02*
X142193234Y-99360280I500000J-1D01*
G01*
X141490461Y-98711703D02*
G75*
G02*
X142193234Y-99360280I252258J-431700D01*
G01*
X142143749Y-99577158D02*
X142143749Y-100982842D01*
X141238202Y-101779999D02*
X139649297Y-101779999D01*
X138743751Y-100982842D02*
X138743751Y-99577158D01*
X139649298Y-98780000D02*
X141238202Y-98780000D01*
%TO.C,RGB1_A34*%
X71243585Y-98711701D02*
G75*
G02*
X70991327Y-98780000I-252258J431701D01*
G01*
X69402423Y-98780000D02*
G75*
G02*
X69150164Y-98711701I0J500000D01*
G01*
X68447391Y-99360281D02*
G75*
G02*
X69150164Y-98711701I450515J216879D01*
G01*
X68447391Y-99360280D02*
G75*
G02*
X68496876Y-99577158I-450515J-216878D01*
G01*
X68496876Y-100982843D02*
G75*
G02*
X68447391Y-101199720I-500000J1D01*
G01*
X69150164Y-101848298D02*
G75*
G02*
X68447391Y-101199720I-252258J431701D01*
G01*
X69150164Y-101848298D02*
G75*
G02*
X69402422Y-101779999I252258J-431701D01*
G01*
X70991328Y-101780000D02*
G75*
G02*
X71243586Y-101848299I-1J-499999D01*
G01*
X71946359Y-101199720D02*
G75*
G02*
X71243586Y-101848299I-450515J-216878D01*
G01*
X71946359Y-101199720D02*
G75*
G02*
X71896874Y-100982842I450515J216878D01*
G01*
X71896874Y-99577157D02*
G75*
G02*
X71946359Y-99360280I500000J-1D01*
G01*
X71243586Y-98711703D02*
G75*
G02*
X71946359Y-99360280I252258J-431700D01*
G01*
X71896874Y-99577158D02*
X71896874Y-100982842D01*
X70991327Y-101779999D02*
X69402422Y-101779999D01*
X68496876Y-100982842D02*
X68496876Y-99577158D01*
X69402423Y-98780000D02*
X70991327Y-98780000D01*
%TO.C,RGB1_A21*%
X47431085Y-98711701D02*
G75*
G02*
X47178827Y-98780000I-252258J431701D01*
G01*
X45589923Y-98780000D02*
G75*
G02*
X45337664Y-98711701I0J500000D01*
G01*
X44634891Y-99360281D02*
G75*
G02*
X45337664Y-98711701I450515J216879D01*
G01*
X44634891Y-99360280D02*
G75*
G02*
X44684376Y-99577158I-450515J-216878D01*
G01*
X44684376Y-100982843D02*
G75*
G02*
X44634891Y-101199720I-500000J1D01*
G01*
X45337664Y-101848298D02*
G75*
G02*
X44634891Y-101199720I-252258J431701D01*
G01*
X45337664Y-101848298D02*
G75*
G02*
X45589922Y-101779999I252258J-431701D01*
G01*
X47178828Y-101780000D02*
G75*
G02*
X47431086Y-101848299I-1J-499999D01*
G01*
X48133859Y-101199720D02*
G75*
G02*
X47431086Y-101848299I-450515J-216878D01*
G01*
X48133859Y-101199720D02*
G75*
G02*
X48084374Y-100982842I450515J216878D01*
G01*
X48084374Y-99577157D02*
G75*
G02*
X48133859Y-99360280I500000J-1D01*
G01*
X47431086Y-98711703D02*
G75*
G02*
X48133859Y-99360280I252258J-431700D01*
G01*
X48084374Y-99577158D02*
X48084374Y-100982842D01*
X47178827Y-101779999D02*
X45589922Y-101779999D01*
X44684376Y-100982842D02*
X44684376Y-99577158D01*
X45589923Y-98780000D02*
X47178827Y-98780000D01*
%TO.C,RGB1_A19*%
X21777423Y-98780000D02*
X23366327Y-98780000D01*
X20871876Y-100982842D02*
X20871876Y-99577158D01*
X23366327Y-101779999D02*
X21777422Y-101779999D01*
X24271874Y-99577158D02*
X24271874Y-100982842D01*
X23618586Y-98711703D02*
G75*
G02*
X24321359Y-99360280I252258J-431700D01*
G01*
X24271874Y-99577157D02*
G75*
G02*
X24321359Y-99360280I500000J-1D01*
G01*
X24321359Y-101199720D02*
G75*
G02*
X24271874Y-100982842I450515J216878D01*
G01*
X24321359Y-101199720D02*
G75*
G02*
X23618586Y-101848299I-450515J-216878D01*
G01*
X23366328Y-101780000D02*
G75*
G02*
X23618586Y-101848299I-1J-499999D01*
G01*
X21525164Y-101848298D02*
G75*
G02*
X21777422Y-101779999I252258J-431701D01*
G01*
X21525164Y-101848298D02*
G75*
G02*
X20822391Y-101199720I-252258J431701D01*
G01*
X20871876Y-100982843D02*
G75*
G02*
X20822391Y-101199720I-500000J1D01*
G01*
X20822391Y-99360280D02*
G75*
G02*
X20871876Y-99577158I-450515J-216878D01*
G01*
X20822391Y-99360281D02*
G75*
G02*
X21525164Y-98711701I450515J216879D01*
G01*
X21777423Y-98780000D02*
G75*
G02*
X21525164Y-98711701I0J500000D01*
G01*
X23618585Y-98711701D02*
G75*
G02*
X23366327Y-98780000I-252258J431701D01*
G01*
%TO.C,RGB1_B31*%
X303703290Y-82798298D02*
G75*
G02*
X303955548Y-82729999I252258J-431701D01*
G01*
X305544452Y-82729999D02*
G75*
G02*
X305796711Y-82798298I0J-500000D01*
G01*
X306499484Y-82149718D02*
G75*
G02*
X305796711Y-82798298I-450515J-216879D01*
G01*
X306499484Y-82149719D02*
G75*
G02*
X306449999Y-81932841I450515J216878D01*
G01*
X306449999Y-80527156D02*
G75*
G02*
X306499484Y-80310279I500000J-1D01*
G01*
X305796711Y-79661701D02*
G75*
G02*
X306499484Y-80310279I252258J-431701D01*
G01*
X305796711Y-79661701D02*
G75*
G02*
X305544453Y-79730000I-252258J431701D01*
G01*
X303955547Y-79729999D02*
G75*
G02*
X303703289Y-79661700I1J499999D01*
G01*
X303000516Y-80310279D02*
G75*
G02*
X303703289Y-79661700I450515J216878D01*
G01*
X303000516Y-80310279D02*
G75*
G02*
X303050001Y-80527157I-450515J-216878D01*
G01*
X303050001Y-81932842D02*
G75*
G02*
X303000516Y-82149719I-500000J1D01*
G01*
X303703289Y-82798296D02*
G75*
G02*
X303000516Y-82149719I-252258J431700D01*
G01*
X303050001Y-81932841D02*
X303050001Y-80527157D01*
X303955548Y-79730000D02*
X305544453Y-79730000D01*
X306449999Y-80527157D02*
X306449999Y-81932841D01*
X305544452Y-82729999D02*
X303955548Y-82729999D01*
%TO.C,RGB1_B30*%
X137015790Y-82798298D02*
G75*
G02*
X137268048Y-82729999I252258J-431701D01*
G01*
X138856952Y-82729999D02*
G75*
G02*
X139109211Y-82798298I0J-500000D01*
G01*
X139811984Y-82149718D02*
G75*
G02*
X139109211Y-82798298I-450515J-216879D01*
G01*
X139811984Y-82149719D02*
G75*
G02*
X139762499Y-81932841I450515J216878D01*
G01*
X139762499Y-80527156D02*
G75*
G02*
X139811984Y-80310279I500000J-1D01*
G01*
X139109211Y-79661701D02*
G75*
G02*
X139811984Y-80310279I252258J-431701D01*
G01*
X139109211Y-79661701D02*
G75*
G02*
X138856953Y-79730000I-252258J431701D01*
G01*
X137268047Y-79729999D02*
G75*
G02*
X137015789Y-79661700I1J499999D01*
G01*
X136313016Y-80310279D02*
G75*
G02*
X137015789Y-79661700I450515J216878D01*
G01*
X136313016Y-80310279D02*
G75*
G02*
X136362501Y-80527157I-450515J-216878D01*
G01*
X136362501Y-81932842D02*
G75*
G02*
X136313016Y-82149719I-500000J1D01*
G01*
X137015789Y-82798296D02*
G75*
G02*
X136313016Y-82149719I-252258J431700D01*
G01*
X136362501Y-81932841D02*
X136362501Y-80527157D01*
X137268048Y-79730000D02*
X138856953Y-79730000D01*
X139762499Y-80527157D02*
X139762499Y-81932841D01*
X138856952Y-82729999D02*
X137268048Y-82729999D01*
%TO.C,RGB1_B29*%
X156065790Y-82798298D02*
G75*
G02*
X156318048Y-82729999I252258J-431701D01*
G01*
X157906952Y-82729999D02*
G75*
G02*
X158159211Y-82798298I0J-500000D01*
G01*
X158861984Y-82149718D02*
G75*
G02*
X158159211Y-82798298I-450515J-216879D01*
G01*
X158861984Y-82149719D02*
G75*
G02*
X158812499Y-81932841I450515J216878D01*
G01*
X158812499Y-80527156D02*
G75*
G02*
X158861984Y-80310279I500000J-1D01*
G01*
X158159211Y-79661701D02*
G75*
G02*
X158861984Y-80310279I252258J-431701D01*
G01*
X158159211Y-79661701D02*
G75*
G02*
X157906953Y-79730000I-252258J431701D01*
G01*
X156318047Y-79729999D02*
G75*
G02*
X156065789Y-79661700I1J499999D01*
G01*
X155363016Y-80310279D02*
G75*
G02*
X156065789Y-79661700I450515J216878D01*
G01*
X155363016Y-80310279D02*
G75*
G02*
X155412501Y-80527157I-450515J-216878D01*
G01*
X155412501Y-81932842D02*
G75*
G02*
X155363016Y-82149719I-500000J1D01*
G01*
X156065789Y-82798296D02*
G75*
G02*
X155363016Y-82149719I-252258J431700D01*
G01*
X155412501Y-81932841D02*
X155412501Y-80527157D01*
X156318048Y-79730000D02*
X157906953Y-79730000D01*
X158812499Y-80527157D02*
X158812499Y-81932841D01*
X157906952Y-82729999D02*
X156318048Y-82729999D01*
%TO.C,RGB1_B28*%
X117965790Y-82798298D02*
G75*
G02*
X118218048Y-82729999I252258J-431701D01*
G01*
X119806952Y-82729999D02*
G75*
G02*
X120059211Y-82798298I0J-500000D01*
G01*
X120761984Y-82149718D02*
G75*
G02*
X120059211Y-82798298I-450515J-216879D01*
G01*
X120761984Y-82149719D02*
G75*
G02*
X120712499Y-81932841I450515J216878D01*
G01*
X120712499Y-80527156D02*
G75*
G02*
X120761984Y-80310279I500000J-1D01*
G01*
X120059211Y-79661701D02*
G75*
G02*
X120761984Y-80310279I252258J-431701D01*
G01*
X120059211Y-79661701D02*
G75*
G02*
X119806953Y-79730000I-252258J431701D01*
G01*
X118218047Y-79729999D02*
G75*
G02*
X117965789Y-79661700I1J499999D01*
G01*
X117263016Y-80310279D02*
G75*
G02*
X117965789Y-79661700I450515J216878D01*
G01*
X117263016Y-80310279D02*
G75*
G02*
X117312501Y-80527157I-450515J-216878D01*
G01*
X117312501Y-81932842D02*
G75*
G02*
X117263016Y-82149719I-500000J1D01*
G01*
X117965789Y-82798296D02*
G75*
G02*
X117263016Y-82149719I-252258J431700D01*
G01*
X117312501Y-81932841D02*
X117312501Y-80527157D01*
X118218048Y-79730000D02*
X119806953Y-79730000D01*
X120712499Y-80527157D02*
X120712499Y-81932841D01*
X119806952Y-82729999D02*
X118218048Y-82729999D01*
%TO.C,RGB1_B27*%
X175115790Y-82798298D02*
G75*
G02*
X175368048Y-82729999I252258J-431701D01*
G01*
X176956952Y-82729999D02*
G75*
G02*
X177209211Y-82798298I0J-500000D01*
G01*
X177911984Y-82149718D02*
G75*
G02*
X177209211Y-82798298I-450515J-216879D01*
G01*
X177911984Y-82149719D02*
G75*
G02*
X177862499Y-81932841I450515J216878D01*
G01*
X177862499Y-80527156D02*
G75*
G02*
X177911984Y-80310279I500000J-1D01*
G01*
X177209211Y-79661701D02*
G75*
G02*
X177911984Y-80310279I252258J-431701D01*
G01*
X177209211Y-79661701D02*
G75*
G02*
X176956953Y-79730000I-252258J431701D01*
G01*
X175368047Y-79729999D02*
G75*
G02*
X175115789Y-79661700I1J499999D01*
G01*
X174413016Y-80310279D02*
G75*
G02*
X175115789Y-79661700I450515J216878D01*
G01*
X174413016Y-80310279D02*
G75*
G02*
X174462501Y-80527157I-450515J-216878D01*
G01*
X174462501Y-81932842D02*
G75*
G02*
X174413016Y-82149719I-500000J1D01*
G01*
X175115789Y-82798296D02*
G75*
G02*
X174413016Y-82149719I-252258J431700D01*
G01*
X174462501Y-81932841D02*
X174462501Y-80527157D01*
X175368048Y-79730000D02*
X176956953Y-79730000D01*
X177862499Y-80527157D02*
X177862499Y-81932841D01*
X176956952Y-82729999D02*
X175368048Y-82729999D01*
%TO.C,RGB1_B26*%
X98915790Y-82798298D02*
G75*
G02*
X99168048Y-82729999I252258J-431701D01*
G01*
X100756952Y-82729999D02*
G75*
G02*
X101009211Y-82798298I0J-500000D01*
G01*
X101711984Y-82149718D02*
G75*
G02*
X101009211Y-82798298I-450515J-216879D01*
G01*
X101711984Y-82149719D02*
G75*
G02*
X101662499Y-81932841I450515J216878D01*
G01*
X101662499Y-80527156D02*
G75*
G02*
X101711984Y-80310279I500000J-1D01*
G01*
X101009211Y-79661701D02*
G75*
G02*
X101711984Y-80310279I252258J-431701D01*
G01*
X101009211Y-79661701D02*
G75*
G02*
X100756953Y-79730000I-252258J431701D01*
G01*
X99168047Y-79729999D02*
G75*
G02*
X98915789Y-79661700I1J499999D01*
G01*
X98213016Y-80310279D02*
G75*
G02*
X98915789Y-79661700I450515J216878D01*
G01*
X98213016Y-80310279D02*
G75*
G02*
X98262501Y-80527157I-450515J-216878D01*
G01*
X98262501Y-81932842D02*
G75*
G02*
X98213016Y-82149719I-500000J1D01*
G01*
X98915789Y-82798296D02*
G75*
G02*
X98213016Y-82149719I-252258J431700D01*
G01*
X98262501Y-81932841D02*
X98262501Y-80527157D01*
X99168048Y-79730000D02*
X100756953Y-79730000D01*
X101662499Y-80527157D02*
X101662499Y-81932841D01*
X100756952Y-82729999D02*
X99168048Y-82729999D01*
%TO.C,RGB1_B25*%
X194165790Y-82798298D02*
G75*
G02*
X194418048Y-82729999I252258J-431701D01*
G01*
X196006952Y-82729999D02*
G75*
G02*
X196259211Y-82798298I0J-500000D01*
G01*
X196961984Y-82149718D02*
G75*
G02*
X196259211Y-82798298I-450515J-216879D01*
G01*
X196961984Y-82149719D02*
G75*
G02*
X196912499Y-81932841I450515J216878D01*
G01*
X196912499Y-80527156D02*
G75*
G02*
X196961984Y-80310279I500000J-1D01*
G01*
X196259211Y-79661701D02*
G75*
G02*
X196961984Y-80310279I252258J-431701D01*
G01*
X196259211Y-79661701D02*
G75*
G02*
X196006953Y-79730000I-252258J431701D01*
G01*
X194418047Y-79729999D02*
G75*
G02*
X194165789Y-79661700I1J499999D01*
G01*
X193463016Y-80310279D02*
G75*
G02*
X194165789Y-79661700I450515J216878D01*
G01*
X193463016Y-80310279D02*
G75*
G02*
X193512501Y-80527157I-450515J-216878D01*
G01*
X193512501Y-81932842D02*
G75*
G02*
X193463016Y-82149719I-500000J1D01*
G01*
X194165789Y-82798296D02*
G75*
G02*
X193463016Y-82149719I-252258J431700D01*
G01*
X193512501Y-81932841D02*
X193512501Y-80527157D01*
X194418048Y-79730000D02*
X196006953Y-79730000D01*
X196912499Y-80527157D02*
X196912499Y-81932841D01*
X196006952Y-82729999D02*
X194418048Y-82729999D01*
%TO.C,RGB1_B24*%
X79865790Y-82798298D02*
G75*
G02*
X80118048Y-82729999I252258J-431701D01*
G01*
X81706952Y-82729999D02*
G75*
G02*
X81959211Y-82798298I0J-500000D01*
G01*
X82661984Y-82149718D02*
G75*
G02*
X81959211Y-82798298I-450515J-216879D01*
G01*
X82661984Y-82149719D02*
G75*
G02*
X82612499Y-81932841I450515J216878D01*
G01*
X82612499Y-80527156D02*
G75*
G02*
X82661984Y-80310279I500000J-1D01*
G01*
X81959211Y-79661701D02*
G75*
G02*
X82661984Y-80310279I252258J-431701D01*
G01*
X81959211Y-79661701D02*
G75*
G02*
X81706953Y-79730000I-252258J431701D01*
G01*
X80118047Y-79729999D02*
G75*
G02*
X79865789Y-79661700I1J499999D01*
G01*
X79163016Y-80310279D02*
G75*
G02*
X79865789Y-79661700I450515J216878D01*
G01*
X79163016Y-80310279D02*
G75*
G02*
X79212501Y-80527157I-450515J-216878D01*
G01*
X79212501Y-81932842D02*
G75*
G02*
X79163016Y-82149719I-500000J1D01*
G01*
X79865789Y-82798296D02*
G75*
G02*
X79163016Y-82149719I-252258J431700D01*
G01*
X79212501Y-81932841D02*
X79212501Y-80527157D01*
X80118048Y-79730000D02*
X81706953Y-79730000D01*
X82612499Y-80527157D02*
X82612499Y-81932841D01*
X81706952Y-82729999D02*
X80118048Y-82729999D01*
%TO.C,RGB1_B23*%
X213215790Y-82798298D02*
G75*
G02*
X213468048Y-82729999I252258J-431701D01*
G01*
X215056952Y-82729999D02*
G75*
G02*
X215309211Y-82798298I0J-500000D01*
G01*
X216011984Y-82149718D02*
G75*
G02*
X215309211Y-82798298I-450515J-216879D01*
G01*
X216011984Y-82149719D02*
G75*
G02*
X215962499Y-81932841I450515J216878D01*
G01*
X215962499Y-80527156D02*
G75*
G02*
X216011984Y-80310279I500000J-1D01*
G01*
X215309211Y-79661701D02*
G75*
G02*
X216011984Y-80310279I252258J-431701D01*
G01*
X215309211Y-79661701D02*
G75*
G02*
X215056953Y-79730000I-252258J431701D01*
G01*
X213468047Y-79729999D02*
G75*
G02*
X213215789Y-79661700I1J499999D01*
G01*
X212513016Y-80310279D02*
G75*
G02*
X213215789Y-79661700I450515J216878D01*
G01*
X212513016Y-80310279D02*
G75*
G02*
X212562501Y-80527157I-450515J-216878D01*
G01*
X212562501Y-81932842D02*
G75*
G02*
X212513016Y-82149719I-500000J1D01*
G01*
X213215789Y-82798296D02*
G75*
G02*
X212513016Y-82149719I-252258J431700D01*
G01*
X212562501Y-81932841D02*
X212562501Y-80527157D01*
X213468048Y-79730000D02*
X215056953Y-79730000D01*
X215962499Y-80527157D02*
X215962499Y-81932841D01*
X215056952Y-82729999D02*
X213468048Y-82729999D01*
%TO.C,RGB1_B22*%
X60815790Y-82798298D02*
G75*
G02*
X61068048Y-82729999I252258J-431701D01*
G01*
X62656952Y-82729999D02*
G75*
G02*
X62909211Y-82798298I0J-500000D01*
G01*
X63611984Y-82149718D02*
G75*
G02*
X62909211Y-82798298I-450515J-216879D01*
G01*
X63611984Y-82149719D02*
G75*
G02*
X63562499Y-81932841I450515J216878D01*
G01*
X63562499Y-80527156D02*
G75*
G02*
X63611984Y-80310279I500000J-1D01*
G01*
X62909211Y-79661701D02*
G75*
G02*
X63611984Y-80310279I252258J-431701D01*
G01*
X62909211Y-79661701D02*
G75*
G02*
X62656953Y-79730000I-252258J431701D01*
G01*
X61068047Y-79729999D02*
G75*
G02*
X60815789Y-79661700I1J499999D01*
G01*
X60113016Y-80310279D02*
G75*
G02*
X60815789Y-79661700I450515J216878D01*
G01*
X60113016Y-80310279D02*
G75*
G02*
X60162501Y-80527157I-450515J-216878D01*
G01*
X60162501Y-81932842D02*
G75*
G02*
X60113016Y-82149719I-500000J1D01*
G01*
X60815789Y-82798296D02*
G75*
G02*
X60113016Y-82149719I-252258J431700D01*
G01*
X60162501Y-81932841D02*
X60162501Y-80527157D01*
X61068048Y-79730000D02*
X62656953Y-79730000D01*
X63562499Y-80527157D02*
X63562499Y-81932841D01*
X62656952Y-82729999D02*
X61068048Y-82729999D01*
%TO.C,RGB1_B21*%
X232265790Y-82798298D02*
G75*
G02*
X232518048Y-82729999I252258J-431701D01*
G01*
X234106952Y-82729999D02*
G75*
G02*
X234359211Y-82798298I0J-500000D01*
G01*
X235061984Y-82149718D02*
G75*
G02*
X234359211Y-82798298I-450515J-216879D01*
G01*
X235061984Y-82149719D02*
G75*
G02*
X235012499Y-81932841I450515J216878D01*
G01*
X235012499Y-80527156D02*
G75*
G02*
X235061984Y-80310279I500000J-1D01*
G01*
X234359211Y-79661701D02*
G75*
G02*
X235061984Y-80310279I252258J-431701D01*
G01*
X234359211Y-79661701D02*
G75*
G02*
X234106953Y-79730000I-252258J431701D01*
G01*
X232518047Y-79729999D02*
G75*
G02*
X232265789Y-79661700I1J499999D01*
G01*
X231563016Y-80310279D02*
G75*
G02*
X232265789Y-79661700I450515J216878D01*
G01*
X231563016Y-80310279D02*
G75*
G02*
X231612501Y-80527157I-450515J-216878D01*
G01*
X231612501Y-81932842D02*
G75*
G02*
X231563016Y-82149719I-500000J1D01*
G01*
X232265789Y-82798296D02*
G75*
G02*
X231563016Y-82149719I-252258J431700D01*
G01*
X231612501Y-81932841D02*
X231612501Y-80527157D01*
X232518048Y-79730000D02*
X234106953Y-79730000D01*
X235012499Y-80527157D02*
X235012499Y-81932841D01*
X234106952Y-82729999D02*
X232518048Y-82729999D01*
%TO.C,RGB1_B20*%
X41765790Y-82798298D02*
G75*
G02*
X42018048Y-82729999I252258J-431701D01*
G01*
X43606952Y-82729999D02*
G75*
G02*
X43859211Y-82798298I0J-500000D01*
G01*
X44561984Y-82149718D02*
G75*
G02*
X43859211Y-82798298I-450515J-216879D01*
G01*
X44561984Y-82149719D02*
G75*
G02*
X44512499Y-81932841I450515J216878D01*
G01*
X44512499Y-80527156D02*
G75*
G02*
X44561984Y-80310279I500000J-1D01*
G01*
X43859211Y-79661701D02*
G75*
G02*
X44561984Y-80310279I252258J-431701D01*
G01*
X43859211Y-79661701D02*
G75*
G02*
X43606953Y-79730000I-252258J431701D01*
G01*
X42018047Y-79729999D02*
G75*
G02*
X41765789Y-79661700I1J499999D01*
G01*
X41063016Y-80310279D02*
G75*
G02*
X41765789Y-79661700I450515J216878D01*
G01*
X41063016Y-80310279D02*
G75*
G02*
X41112501Y-80527157I-450515J-216878D01*
G01*
X41112501Y-81932842D02*
G75*
G02*
X41063016Y-82149719I-500000J1D01*
G01*
X41765789Y-82798296D02*
G75*
G02*
X41063016Y-82149719I-252258J431700D01*
G01*
X41112501Y-81932841D02*
X41112501Y-80527157D01*
X42018048Y-79730000D02*
X43606953Y-79730000D01*
X44512499Y-80527157D02*
X44512499Y-81932841D01*
X43606952Y-82729999D02*
X42018048Y-82729999D01*
%TO.C,RGB1_B19*%
X258459540Y-82798298D02*
G75*
G02*
X258711798Y-82729999I252258J-431701D01*
G01*
X260300702Y-82729999D02*
G75*
G02*
X260552961Y-82798298I0J-500000D01*
G01*
X261255734Y-82149718D02*
G75*
G02*
X260552961Y-82798298I-450515J-216879D01*
G01*
X261255734Y-82149719D02*
G75*
G02*
X261206249Y-81932841I450515J216878D01*
G01*
X261206249Y-80527156D02*
G75*
G02*
X261255734Y-80310279I500000J-1D01*
G01*
X260552961Y-79661701D02*
G75*
G02*
X261255734Y-80310279I252258J-431701D01*
G01*
X260552961Y-79661701D02*
G75*
G02*
X260300703Y-79730000I-252258J431701D01*
G01*
X258711797Y-79729999D02*
G75*
G02*
X258459539Y-79661700I1J499999D01*
G01*
X257756766Y-80310279D02*
G75*
G02*
X258459539Y-79661700I450515J216878D01*
G01*
X257756766Y-80310279D02*
G75*
G02*
X257806251Y-80527157I-450515J-216878D01*
G01*
X257806251Y-81932842D02*
G75*
G02*
X257756766Y-82149719I-500000J1D01*
G01*
X258459539Y-82798296D02*
G75*
G02*
X257756766Y-82149719I-252258J431700D01*
G01*
X257806251Y-81932841D02*
X257806251Y-80527157D01*
X258711798Y-79730000D02*
X260300703Y-79730000D01*
X261206249Y-80527157D02*
X261206249Y-81932841D01*
X260300702Y-82729999D02*
X258711798Y-82729999D01*
%TO.C,RGB1_B18*%
X29859540Y-82798298D02*
G75*
G02*
X30111798Y-82729999I252258J-431701D01*
G01*
X31700702Y-82729999D02*
G75*
G02*
X31952961Y-82798298I0J-500000D01*
G01*
X32655734Y-82149718D02*
G75*
G02*
X31952961Y-82798298I-450515J-216879D01*
G01*
X32655734Y-82149719D02*
G75*
G02*
X32606249Y-81932841I450515J216878D01*
G01*
X32606249Y-80527156D02*
G75*
G02*
X32655734Y-80310279I500000J-1D01*
G01*
X31952961Y-79661701D02*
G75*
G02*
X32655734Y-80310279I252258J-431701D01*
G01*
X31952961Y-79661701D02*
G75*
G02*
X31700703Y-79730000I-252258J431701D01*
G01*
X30111797Y-79729999D02*
G75*
G02*
X29859539Y-79661700I1J499999D01*
G01*
X29156766Y-80310279D02*
G75*
G02*
X29859539Y-79661700I450515J216878D01*
G01*
X29156766Y-80310279D02*
G75*
G02*
X29206251Y-80527157I-450515J-216878D01*
G01*
X29206251Y-81932842D02*
G75*
G02*
X29156766Y-82149719I-500000J1D01*
G01*
X29859539Y-82798296D02*
G75*
G02*
X29156766Y-82149719I-252258J431700D01*
G01*
X29206251Y-81932841D02*
X29206251Y-80527157D01*
X30111798Y-79730000D02*
X31700703Y-79730000D01*
X32606249Y-80527157D02*
X32606249Y-81932841D01*
X31700702Y-82729999D02*
X30111798Y-82729999D01*
%TO.C,RGB1_B17*%
X284653290Y-82798298D02*
G75*
G02*
X284905548Y-82729999I252258J-431701D01*
G01*
X286494452Y-82729999D02*
G75*
G02*
X286746711Y-82798298I0J-500000D01*
G01*
X287449484Y-82149718D02*
G75*
G02*
X286746711Y-82798298I-450515J-216879D01*
G01*
X287449484Y-82149719D02*
G75*
G02*
X287399999Y-81932841I450515J216878D01*
G01*
X287399999Y-80527156D02*
G75*
G02*
X287449484Y-80310279I500000J-1D01*
G01*
X286746711Y-79661701D02*
G75*
G02*
X287449484Y-80310279I252258J-431701D01*
G01*
X286746711Y-79661701D02*
G75*
G02*
X286494453Y-79730000I-252258J431701D01*
G01*
X284905547Y-79729999D02*
G75*
G02*
X284653289Y-79661700I1J499999D01*
G01*
X283950516Y-80310279D02*
G75*
G02*
X284653289Y-79661700I450515J216878D01*
G01*
X283950516Y-80310279D02*
G75*
G02*
X284000001Y-80527157I-450515J-216878D01*
G01*
X284000001Y-81932842D02*
G75*
G02*
X283950516Y-82149719I-500000J1D01*
G01*
X284653289Y-82798296D02*
G75*
G02*
X283950516Y-82149719I-252258J431700D01*
G01*
X284000001Y-81932841D02*
X284000001Y-80527157D01*
X284905548Y-79730000D02*
X286494453Y-79730000D01*
X287399999Y-80527157D02*
X287399999Y-81932841D01*
X286494452Y-82729999D02*
X284905548Y-82729999D01*
%TO.C,RGB1_B16*%
X20334540Y-82798298D02*
G75*
G02*
X20586798Y-82729999I252258J-431701D01*
G01*
X22175702Y-82729999D02*
G75*
G02*
X22427961Y-82798298I0J-500000D01*
G01*
X23130734Y-82149718D02*
G75*
G02*
X22427961Y-82798298I-450515J-216879D01*
G01*
X23130734Y-82149719D02*
G75*
G02*
X23081249Y-81932841I450515J216878D01*
G01*
X23081249Y-80527156D02*
G75*
G02*
X23130734Y-80310279I500000J-1D01*
G01*
X22427961Y-79661701D02*
G75*
G02*
X23130734Y-80310279I252258J-431701D01*
G01*
X22427961Y-79661701D02*
G75*
G02*
X22175703Y-79730000I-252258J431701D01*
G01*
X20586797Y-79729999D02*
G75*
G02*
X20334539Y-79661700I1J499999D01*
G01*
X19631766Y-80310279D02*
G75*
G02*
X20334539Y-79661700I450515J216878D01*
G01*
X19631766Y-80310279D02*
G75*
G02*
X19681251Y-80527157I-450515J-216878D01*
G01*
X19681251Y-81932842D02*
G75*
G02*
X19631766Y-82149719I-500000J1D01*
G01*
X20334539Y-82798296D02*
G75*
G02*
X19631766Y-82149719I-252258J431700D01*
G01*
X19681251Y-81932841D02*
X19681251Y-80527157D01*
X20586798Y-79730000D02*
X22175703Y-79730000D01*
X23081249Y-80527157D02*
X23081249Y-81932841D01*
X22175702Y-82729999D02*
X20586798Y-82729999D01*
%TO.C,RGB1_A33*%
X186734210Y-60611701D02*
G75*
G02*
X186481952Y-60680000I-252258J431701D01*
G01*
X184893048Y-60680000D02*
G75*
G02*
X184640789Y-60611701I0J500000D01*
G01*
X183938016Y-61260281D02*
G75*
G02*
X184640789Y-60611701I450515J216879D01*
G01*
X183938016Y-61260280D02*
G75*
G02*
X183987501Y-61477158I-450515J-216878D01*
G01*
X183987501Y-62882843D02*
G75*
G02*
X183938016Y-63099720I-500000J1D01*
G01*
X184640789Y-63748298D02*
G75*
G02*
X183938016Y-63099720I-252258J431701D01*
G01*
X184640789Y-63748298D02*
G75*
G02*
X184893047Y-63679999I252258J-431701D01*
G01*
X186481953Y-63680000D02*
G75*
G02*
X186734211Y-63748299I-1J-499999D01*
G01*
X187436984Y-63099720D02*
G75*
G02*
X186734211Y-63748299I-450515J-216878D01*
G01*
X187436984Y-63099720D02*
G75*
G02*
X187387499Y-62882842I450515J216878D01*
G01*
X187387499Y-61477157D02*
G75*
G02*
X187436984Y-61260280I500000J-1D01*
G01*
X186734211Y-60611703D02*
G75*
G02*
X187436984Y-61260280I252258J-431700D01*
G01*
X187387499Y-61477158D02*
X187387499Y-62882842D01*
X186481952Y-63679999D02*
X184893047Y-63679999D01*
X183987501Y-62882842D02*
X183987501Y-61477158D01*
X184893048Y-60680000D02*
X186481952Y-60680000D01*
%TO.C,RGB1_A32*%
X167684210Y-60611701D02*
G75*
G02*
X167431952Y-60680000I-252258J431701D01*
G01*
X165843048Y-60680000D02*
G75*
G02*
X165590789Y-60611701I0J500000D01*
G01*
X164888016Y-61260281D02*
G75*
G02*
X165590789Y-60611701I450515J216879D01*
G01*
X164888016Y-61260280D02*
G75*
G02*
X164937501Y-61477158I-450515J-216878D01*
G01*
X164937501Y-62882843D02*
G75*
G02*
X164888016Y-63099720I-500000J1D01*
G01*
X165590789Y-63748298D02*
G75*
G02*
X164888016Y-63099720I-252258J431701D01*
G01*
X165590789Y-63748298D02*
G75*
G02*
X165843047Y-63679999I252258J-431701D01*
G01*
X167431953Y-63680000D02*
G75*
G02*
X167684211Y-63748299I-1J-499999D01*
G01*
X168386984Y-63099720D02*
G75*
G02*
X167684211Y-63748299I-450515J-216878D01*
G01*
X168386984Y-63099720D02*
G75*
G02*
X168337499Y-62882842I450515J216878D01*
G01*
X168337499Y-61477157D02*
G75*
G02*
X168386984Y-61260280I500000J-1D01*
G01*
X167684211Y-60611703D02*
G75*
G02*
X168386984Y-61260280I252258J-431700D01*
G01*
X168337499Y-61477158D02*
X168337499Y-62882842D01*
X167431952Y-63679999D02*
X165843047Y-63679999D01*
X164937501Y-62882842D02*
X164937501Y-61477158D01*
X165843048Y-60680000D02*
X167431952Y-60680000D01*
%TO.C,RGB1_A31*%
X205784210Y-60611701D02*
G75*
G02*
X205531952Y-60680000I-252258J431701D01*
G01*
X203943048Y-60680000D02*
G75*
G02*
X203690789Y-60611701I0J500000D01*
G01*
X202988016Y-61260281D02*
G75*
G02*
X203690789Y-60611701I450515J216879D01*
G01*
X202988016Y-61260280D02*
G75*
G02*
X203037501Y-61477158I-450515J-216878D01*
G01*
X203037501Y-62882843D02*
G75*
G02*
X202988016Y-63099720I-500000J1D01*
G01*
X203690789Y-63748298D02*
G75*
G02*
X202988016Y-63099720I-252258J431701D01*
G01*
X203690789Y-63748298D02*
G75*
G02*
X203943047Y-63679999I252258J-431701D01*
G01*
X205531953Y-63680000D02*
G75*
G02*
X205784211Y-63748299I-1J-499999D01*
G01*
X206486984Y-63099720D02*
G75*
G02*
X205784211Y-63748299I-450515J-216878D01*
G01*
X206486984Y-63099720D02*
G75*
G02*
X206437499Y-62882842I450515J216878D01*
G01*
X206437499Y-61477157D02*
G75*
G02*
X206486984Y-61260280I500000J-1D01*
G01*
X205784211Y-60611703D02*
G75*
G02*
X206486984Y-61260280I252258J-431700D01*
G01*
X206437499Y-61477158D02*
X206437499Y-62882842D01*
X205531952Y-63679999D02*
X203943047Y-63679999D01*
X203037501Y-62882842D02*
X203037501Y-61477158D01*
X203943048Y-60680000D02*
X205531952Y-60680000D01*
%TO.C,RGB1_A30*%
X148634210Y-60611701D02*
G75*
G02*
X148381952Y-60680000I-252258J431701D01*
G01*
X146793048Y-60680000D02*
G75*
G02*
X146540789Y-60611701I0J500000D01*
G01*
X145838016Y-61260281D02*
G75*
G02*
X146540789Y-60611701I450515J216879D01*
G01*
X145838016Y-61260280D02*
G75*
G02*
X145887501Y-61477158I-450515J-216878D01*
G01*
X145887501Y-62882843D02*
G75*
G02*
X145838016Y-63099720I-500000J1D01*
G01*
X146540789Y-63748298D02*
G75*
G02*
X145838016Y-63099720I-252258J431701D01*
G01*
X146540789Y-63748298D02*
G75*
G02*
X146793047Y-63679999I252258J-431701D01*
G01*
X148381953Y-63680000D02*
G75*
G02*
X148634211Y-63748299I-1J-499999D01*
G01*
X149336984Y-63099720D02*
G75*
G02*
X148634211Y-63748299I-450515J-216878D01*
G01*
X149336984Y-63099720D02*
G75*
G02*
X149287499Y-62882842I450515J216878D01*
G01*
X149287499Y-61477157D02*
G75*
G02*
X149336984Y-61260280I500000J-1D01*
G01*
X148634211Y-60611703D02*
G75*
G02*
X149336984Y-61260280I252258J-431700D01*
G01*
X149287499Y-61477158D02*
X149287499Y-62882842D01*
X148381952Y-63679999D02*
X146793047Y-63679999D01*
X145887501Y-62882842D02*
X145887501Y-61477158D01*
X146793048Y-60680000D02*
X148381952Y-60680000D01*
%TO.C,RGB1_A29*%
X224834210Y-60611701D02*
G75*
G02*
X224581952Y-60680000I-252258J431701D01*
G01*
X222993048Y-60680000D02*
G75*
G02*
X222740789Y-60611701I0J500000D01*
G01*
X222038016Y-61260281D02*
G75*
G02*
X222740789Y-60611701I450515J216879D01*
G01*
X222038016Y-61260280D02*
G75*
G02*
X222087501Y-61477158I-450515J-216878D01*
G01*
X222087501Y-62882843D02*
G75*
G02*
X222038016Y-63099720I-500000J1D01*
G01*
X222740789Y-63748298D02*
G75*
G02*
X222038016Y-63099720I-252258J431701D01*
G01*
X222740789Y-63748298D02*
G75*
G02*
X222993047Y-63679999I252258J-431701D01*
G01*
X224581953Y-63680000D02*
G75*
G02*
X224834211Y-63748299I-1J-499999D01*
G01*
X225536984Y-63099720D02*
G75*
G02*
X224834211Y-63748299I-450515J-216878D01*
G01*
X225536984Y-63099720D02*
G75*
G02*
X225487499Y-62882842I450515J216878D01*
G01*
X225487499Y-61477157D02*
G75*
G02*
X225536984Y-61260280I500000J-1D01*
G01*
X224834211Y-60611703D02*
G75*
G02*
X225536984Y-61260280I252258J-431700D01*
G01*
X225487499Y-61477158D02*
X225487499Y-62882842D01*
X224581952Y-63679999D02*
X222993047Y-63679999D01*
X222087501Y-62882842D02*
X222087501Y-61477158D01*
X222993048Y-60680000D02*
X224581952Y-60680000D01*
%TO.C,RGB1_A28*%
X129584210Y-60611701D02*
G75*
G02*
X129331952Y-60680000I-252258J431701D01*
G01*
X127743048Y-60680000D02*
G75*
G02*
X127490789Y-60611701I0J500000D01*
G01*
X126788016Y-61260281D02*
G75*
G02*
X127490789Y-60611701I450515J216879D01*
G01*
X126788016Y-61260280D02*
G75*
G02*
X126837501Y-61477158I-450515J-216878D01*
G01*
X126837501Y-62882843D02*
G75*
G02*
X126788016Y-63099720I-500000J1D01*
G01*
X127490789Y-63748298D02*
G75*
G02*
X126788016Y-63099720I-252258J431701D01*
G01*
X127490789Y-63748298D02*
G75*
G02*
X127743047Y-63679999I252258J-431701D01*
G01*
X129331953Y-63680000D02*
G75*
G02*
X129584211Y-63748299I-1J-499999D01*
G01*
X130286984Y-63099720D02*
G75*
G02*
X129584211Y-63748299I-450515J-216878D01*
G01*
X130286984Y-63099720D02*
G75*
G02*
X130237499Y-62882842I450515J216878D01*
G01*
X130237499Y-61477157D02*
G75*
G02*
X130286984Y-61260280I500000J-1D01*
G01*
X129584211Y-60611703D02*
G75*
G02*
X130286984Y-61260280I252258J-431700D01*
G01*
X130237499Y-61477158D02*
X130237499Y-62882842D01*
X129331952Y-63679999D02*
X127743047Y-63679999D01*
X126837501Y-62882842D02*
X126837501Y-61477158D01*
X127743048Y-60680000D02*
X129331952Y-60680000D01*
%TO.C,RGB1_A27*%
X243884210Y-60611701D02*
G75*
G02*
X243631952Y-60680000I-252258J431701D01*
G01*
X242043048Y-60680000D02*
G75*
G02*
X241790789Y-60611701I0J500000D01*
G01*
X241088016Y-61260281D02*
G75*
G02*
X241790789Y-60611701I450515J216879D01*
G01*
X241088016Y-61260280D02*
G75*
G02*
X241137501Y-61477158I-450515J-216878D01*
G01*
X241137501Y-62882843D02*
G75*
G02*
X241088016Y-63099720I-500000J1D01*
G01*
X241790789Y-63748298D02*
G75*
G02*
X241088016Y-63099720I-252258J431701D01*
G01*
X241790789Y-63748298D02*
G75*
G02*
X242043047Y-63679999I252258J-431701D01*
G01*
X243631953Y-63680000D02*
G75*
G02*
X243884211Y-63748299I-1J-499999D01*
G01*
X244586984Y-63099720D02*
G75*
G02*
X243884211Y-63748299I-450515J-216878D01*
G01*
X244586984Y-63099720D02*
G75*
G02*
X244537499Y-62882842I450515J216878D01*
G01*
X244537499Y-61477157D02*
G75*
G02*
X244586984Y-61260280I500000J-1D01*
G01*
X243884211Y-60611703D02*
G75*
G02*
X244586984Y-61260280I252258J-431700D01*
G01*
X244537499Y-61477158D02*
X244537499Y-62882842D01*
X243631952Y-63679999D02*
X242043047Y-63679999D01*
X241137501Y-62882842D02*
X241137501Y-61477158D01*
X242043048Y-60680000D02*
X243631952Y-60680000D01*
%TO.C,RGB1_A26*%
X110534210Y-60611701D02*
G75*
G02*
X110281952Y-60680000I-252258J431701D01*
G01*
X108693048Y-60680000D02*
G75*
G02*
X108440789Y-60611701I0J500000D01*
G01*
X107738016Y-61260281D02*
G75*
G02*
X108440789Y-60611701I450515J216879D01*
G01*
X107738016Y-61260280D02*
G75*
G02*
X107787501Y-61477158I-450515J-216878D01*
G01*
X107787501Y-62882843D02*
G75*
G02*
X107738016Y-63099720I-500000J1D01*
G01*
X108440789Y-63748298D02*
G75*
G02*
X107738016Y-63099720I-252258J431701D01*
G01*
X108440789Y-63748298D02*
G75*
G02*
X108693047Y-63679999I252258J-431701D01*
G01*
X110281953Y-63680000D02*
G75*
G02*
X110534211Y-63748299I-1J-499999D01*
G01*
X111236984Y-63099720D02*
G75*
G02*
X110534211Y-63748299I-450515J-216878D01*
G01*
X111236984Y-63099720D02*
G75*
G02*
X111187499Y-62882842I450515J216878D01*
G01*
X111187499Y-61477157D02*
G75*
G02*
X111236984Y-61260280I500000J-1D01*
G01*
X110534211Y-60611703D02*
G75*
G02*
X111236984Y-61260280I252258J-431700D01*
G01*
X111187499Y-61477158D02*
X111187499Y-62882842D01*
X110281952Y-63679999D02*
X108693047Y-63679999D01*
X107787501Y-62882842D02*
X107787501Y-61477158D01*
X108693048Y-60680000D02*
X110281952Y-60680000D01*
%TO.C,RGB1_A25*%
X274840460Y-60611701D02*
G75*
G02*
X274588202Y-60680000I-252258J431701D01*
G01*
X272999298Y-60680000D02*
G75*
G02*
X272747039Y-60611701I0J500000D01*
G01*
X272044266Y-61260281D02*
G75*
G02*
X272747039Y-60611701I450515J216879D01*
G01*
X272044266Y-61260280D02*
G75*
G02*
X272093751Y-61477158I-450515J-216878D01*
G01*
X272093751Y-62882843D02*
G75*
G02*
X272044266Y-63099720I-500000J1D01*
G01*
X272747039Y-63748298D02*
G75*
G02*
X272044266Y-63099720I-252258J431701D01*
G01*
X272747039Y-63748298D02*
G75*
G02*
X272999297Y-63679999I252258J-431701D01*
G01*
X274588203Y-63680000D02*
G75*
G02*
X274840461Y-63748299I-1J-499999D01*
G01*
X275543234Y-63099720D02*
G75*
G02*
X274840461Y-63748299I-450515J-216878D01*
G01*
X275543234Y-63099720D02*
G75*
G02*
X275493749Y-62882842I450515J216878D01*
G01*
X275493749Y-61477157D02*
G75*
G02*
X275543234Y-61260280I500000J-1D01*
G01*
X274840461Y-60611703D02*
G75*
G02*
X275543234Y-61260280I252258J-431700D01*
G01*
X275493749Y-61477158D02*
X275493749Y-62882842D01*
X274588202Y-63679999D02*
X272999297Y-63679999D01*
X272093751Y-62882842D02*
X272093751Y-61477158D01*
X272999298Y-60680000D02*
X274588202Y-60680000D01*
%TO.C,RGB1_A24*%
X91484210Y-60611701D02*
G75*
G02*
X91231952Y-60680000I-252258J431701D01*
G01*
X89643048Y-60680000D02*
G75*
G02*
X89390789Y-60611701I0J500000D01*
G01*
X88688016Y-61260281D02*
G75*
G02*
X89390789Y-60611701I450515J216879D01*
G01*
X88688016Y-61260280D02*
G75*
G02*
X88737501Y-61477158I-450515J-216878D01*
G01*
X88737501Y-62882843D02*
G75*
G02*
X88688016Y-63099720I-500000J1D01*
G01*
X89390789Y-63748298D02*
G75*
G02*
X88688016Y-63099720I-252258J431701D01*
G01*
X89390789Y-63748298D02*
G75*
G02*
X89643047Y-63679999I252258J-431701D01*
G01*
X91231953Y-63680000D02*
G75*
G02*
X91484211Y-63748299I-1J-499999D01*
G01*
X92186984Y-63099720D02*
G75*
G02*
X91484211Y-63748299I-450515J-216878D01*
G01*
X92186984Y-63099720D02*
G75*
G02*
X92137499Y-62882842I450515J216878D01*
G01*
X92137499Y-61477157D02*
G75*
G02*
X92186984Y-61260280I500000J-1D01*
G01*
X91484211Y-60611703D02*
G75*
G02*
X92186984Y-61260280I252258J-431700D01*
G01*
X92137499Y-61477158D02*
X92137499Y-62882842D01*
X91231952Y-63679999D02*
X89643047Y-63679999D01*
X88737501Y-62882842D02*
X88737501Y-61477158D01*
X89643048Y-60680000D02*
X91231952Y-60680000D01*
%TO.C,RGB1_A23*%
X305796710Y-60611701D02*
G75*
G02*
X305544452Y-60680000I-252258J431701D01*
G01*
X303955548Y-60680000D02*
G75*
G02*
X303703289Y-60611701I0J500000D01*
G01*
X303000516Y-61260281D02*
G75*
G02*
X303703289Y-60611701I450515J216879D01*
G01*
X303000516Y-61260280D02*
G75*
G02*
X303050001Y-61477158I-450515J-216878D01*
G01*
X303050001Y-62882843D02*
G75*
G02*
X303000516Y-63099720I-500000J1D01*
G01*
X303703289Y-63748298D02*
G75*
G02*
X303000516Y-63099720I-252258J431701D01*
G01*
X303703289Y-63748298D02*
G75*
G02*
X303955547Y-63679999I252258J-431701D01*
G01*
X305544453Y-63680000D02*
G75*
G02*
X305796711Y-63748299I-1J-499999D01*
G01*
X306499484Y-63099720D02*
G75*
G02*
X305796711Y-63748299I-450515J-216878D01*
G01*
X306499484Y-63099720D02*
G75*
G02*
X306449999Y-62882842I450515J216878D01*
G01*
X306449999Y-61477157D02*
G75*
G02*
X306499484Y-61260280I500000J-1D01*
G01*
X305796711Y-60611703D02*
G75*
G02*
X306499484Y-61260280I252258J-431700D01*
G01*
X306449999Y-61477158D02*
X306449999Y-62882842D01*
X305544452Y-63679999D02*
X303955547Y-63679999D01*
X303050001Y-62882842D02*
X303050001Y-61477158D01*
X303955548Y-60680000D02*
X305544452Y-60680000D01*
%TO.C,RGB1_A22*%
X72434210Y-60611701D02*
G75*
G02*
X72181952Y-60680000I-252258J431701D01*
G01*
X70593048Y-60680000D02*
G75*
G02*
X70340789Y-60611701I0J500000D01*
G01*
X69638016Y-61260281D02*
G75*
G02*
X70340789Y-60611701I450515J216879D01*
G01*
X69638016Y-61260280D02*
G75*
G02*
X69687501Y-61477158I-450515J-216878D01*
G01*
X69687501Y-62882843D02*
G75*
G02*
X69638016Y-63099720I-500000J1D01*
G01*
X70340789Y-63748298D02*
G75*
G02*
X69638016Y-63099720I-252258J431701D01*
G01*
X70340789Y-63748298D02*
G75*
G02*
X70593047Y-63679999I252258J-431701D01*
G01*
X72181953Y-63680000D02*
G75*
G02*
X72434211Y-63748299I-1J-499999D01*
G01*
X73136984Y-63099720D02*
G75*
G02*
X72434211Y-63748299I-450515J-216878D01*
G01*
X73136984Y-63099720D02*
G75*
G02*
X73087499Y-62882842I450515J216878D01*
G01*
X73087499Y-61477157D02*
G75*
G02*
X73136984Y-61260280I500000J-1D01*
G01*
X72434211Y-60611703D02*
G75*
G02*
X73136984Y-61260280I252258J-431700D01*
G01*
X73087499Y-61477158D02*
X73087499Y-62882842D01*
X72181952Y-63679999D02*
X70593047Y-63679999D01*
X69687501Y-62882842D02*
X69687501Y-61477158D01*
X70593048Y-60680000D02*
X72181952Y-60680000D01*
%TO.C,RGB1_A20*%
X53384210Y-60611701D02*
G75*
G02*
X53131952Y-60680000I-252258J431701D01*
G01*
X51543048Y-60680000D02*
G75*
G02*
X51290789Y-60611701I0J500000D01*
G01*
X50588016Y-61260281D02*
G75*
G02*
X51290789Y-60611701I450515J216879D01*
G01*
X50588016Y-61260280D02*
G75*
G02*
X50637501Y-61477158I-450515J-216878D01*
G01*
X50637501Y-62882843D02*
G75*
G02*
X50588016Y-63099720I-500000J1D01*
G01*
X51290789Y-63748298D02*
G75*
G02*
X50588016Y-63099720I-252258J431701D01*
G01*
X51290789Y-63748298D02*
G75*
G02*
X51543047Y-63679999I252258J-431701D01*
G01*
X53131953Y-63680000D02*
G75*
G02*
X53384211Y-63748299I-1J-499999D01*
G01*
X54086984Y-63099720D02*
G75*
G02*
X53384211Y-63748299I-450515J-216878D01*
G01*
X54086984Y-63099720D02*
G75*
G02*
X54037499Y-62882842I450515J216878D01*
G01*
X54037499Y-61477157D02*
G75*
G02*
X54086984Y-61260280I500000J-1D01*
G01*
X53384211Y-60611703D02*
G75*
G02*
X54086984Y-61260280I252258J-431700D01*
G01*
X54037499Y-61477158D02*
X54037499Y-62882842D01*
X53131952Y-63679999D02*
X51543047Y-63679999D01*
X50637501Y-62882842D02*
X50637501Y-61477158D01*
X51543048Y-60680000D02*
X53131952Y-60680000D01*
%TO.C,RGB1_A18*%
X27190460Y-60611701D02*
G75*
G02*
X26938202Y-60680000I-252258J431701D01*
G01*
X25349298Y-60680000D02*
G75*
G02*
X25097039Y-60611701I0J500000D01*
G01*
X24394266Y-61260281D02*
G75*
G02*
X25097039Y-60611701I450515J216879D01*
G01*
X24394266Y-61260280D02*
G75*
G02*
X24443751Y-61477158I-450515J-216878D01*
G01*
X24443751Y-62882843D02*
G75*
G02*
X24394266Y-63099720I-500000J1D01*
G01*
X25097039Y-63748298D02*
G75*
G02*
X24394266Y-63099720I-252258J431701D01*
G01*
X25097039Y-63748298D02*
G75*
G02*
X25349297Y-63679999I252258J-431701D01*
G01*
X26938203Y-63680000D02*
G75*
G02*
X27190461Y-63748299I-1J-499999D01*
G01*
X27893234Y-63099720D02*
G75*
G02*
X27190461Y-63748299I-450515J-216878D01*
G01*
X27893234Y-63099720D02*
G75*
G02*
X27843749Y-62882842I450515J216878D01*
G01*
X27843749Y-61477157D02*
G75*
G02*
X27893234Y-61260280I500000J-1D01*
G01*
X27190461Y-60611703D02*
G75*
G02*
X27893234Y-61260280I252258J-431700D01*
G01*
X27843749Y-61477158D02*
X27843749Y-62882842D01*
X26938202Y-63679999D02*
X25349297Y-63679999D01*
X24443751Y-62882842D02*
X24443751Y-61477158D01*
X25349298Y-60680000D02*
X26938202Y-60680000D01*
%TO.C,RGB1_A16*%
X20046710Y-22511701D02*
G75*
G02*
X19794452Y-22580000I-252258J431701D01*
G01*
X18205548Y-22580000D02*
G75*
G02*
X17953289Y-22511701I0J500000D01*
G01*
X17250516Y-23160281D02*
G75*
G02*
X17953289Y-22511701I450515J216879D01*
G01*
X17250516Y-23160280D02*
G75*
G02*
X17300001Y-23377158I-450515J-216878D01*
G01*
X17300001Y-24782843D02*
G75*
G02*
X17250516Y-24999720I-500000J1D01*
G01*
X17953289Y-25648298D02*
G75*
G02*
X17250516Y-24999720I-252258J431701D01*
G01*
X17953289Y-25648298D02*
G75*
G02*
X18205547Y-25579999I252258J-431701D01*
G01*
X19794453Y-25580000D02*
G75*
G02*
X20046711Y-25648299I-1J-499999D01*
G01*
X20749484Y-24999720D02*
G75*
G02*
X20046711Y-25648299I-450515J-216878D01*
G01*
X20749484Y-24999720D02*
G75*
G02*
X20699999Y-24782842I450515J216878D01*
G01*
X20699999Y-23377157D02*
G75*
G02*
X20749484Y-23160280I500000J-1D01*
G01*
X20046711Y-22511703D02*
G75*
G02*
X20749484Y-23160280I252258J-431700D01*
G01*
X20699999Y-23377158D02*
X20699999Y-24782842D01*
X19794452Y-25579999D02*
X18205547Y-25579999D01*
X17300001Y-24782842D02*
X17300001Y-23377158D01*
X18205548Y-22580000D02*
X19794452Y-22580000D01*
%TO.C,RGB1_A15*%
X286746710Y-22511701D02*
G75*
G02*
X286494452Y-22580000I-252258J431701D01*
G01*
X284905548Y-22580000D02*
G75*
G02*
X284653289Y-22511701I0J500000D01*
G01*
X283950516Y-23160281D02*
G75*
G02*
X284653289Y-22511701I450515J216879D01*
G01*
X283950516Y-23160280D02*
G75*
G02*
X284000001Y-23377158I-450515J-216878D01*
G01*
X284000001Y-24782843D02*
G75*
G02*
X283950516Y-24999720I-500000J1D01*
G01*
X284653289Y-25648298D02*
G75*
G02*
X283950516Y-24999720I-252258J431701D01*
G01*
X284653289Y-25648298D02*
G75*
G02*
X284905547Y-25579999I252258J-431701D01*
G01*
X286494453Y-25580000D02*
G75*
G02*
X286746711Y-25648299I-1J-499999D01*
G01*
X287449484Y-24999720D02*
G75*
G02*
X286746711Y-25648299I-450515J-216878D01*
G01*
X287449484Y-24999720D02*
G75*
G02*
X287399999Y-24782842I450515J216878D01*
G01*
X287399999Y-23377157D02*
G75*
G02*
X287449484Y-23160280I500000J-1D01*
G01*
X286746711Y-22511703D02*
G75*
G02*
X287449484Y-23160280I252258J-431700D01*
G01*
X287399999Y-23377158D02*
X287399999Y-24782842D01*
X286494452Y-25579999D02*
X284905547Y-25579999D01*
X284000001Y-24782842D02*
X284000001Y-23377158D01*
X284905548Y-22580000D02*
X286494452Y-22580000D01*
%TO.C,RGB1_A14*%
X277221710Y-22511701D02*
G75*
G02*
X276969452Y-22580000I-252258J431701D01*
G01*
X275380548Y-22580000D02*
G75*
G02*
X275128289Y-22511701I0J500000D01*
G01*
X274425516Y-23160281D02*
G75*
G02*
X275128289Y-22511701I450515J216879D01*
G01*
X274425516Y-23160280D02*
G75*
G02*
X274475001Y-23377158I-450515J-216878D01*
G01*
X274475001Y-24782843D02*
G75*
G02*
X274425516Y-24999720I-500000J1D01*
G01*
X275128289Y-25648298D02*
G75*
G02*
X274425516Y-24999720I-252258J431701D01*
G01*
X275128289Y-25648298D02*
G75*
G02*
X275380547Y-25579999I252258J-431701D01*
G01*
X276969453Y-25580000D02*
G75*
G02*
X277221711Y-25648299I-1J-499999D01*
G01*
X277924484Y-24999720D02*
G75*
G02*
X277221711Y-25648299I-450515J-216878D01*
G01*
X277924484Y-24999720D02*
G75*
G02*
X277874999Y-24782842I450515J216878D01*
G01*
X277874999Y-23377157D02*
G75*
G02*
X277924484Y-23160280I500000J-1D01*
G01*
X277221711Y-22511703D02*
G75*
G02*
X277924484Y-23160280I252258J-431700D01*
G01*
X277874999Y-23377158D02*
X277874999Y-24782842D01*
X276969452Y-25579999D02*
X275380547Y-25579999D01*
X274475001Y-24782842D02*
X274475001Y-23377158D01*
X275380548Y-22580000D02*
X276969452Y-22580000D01*
%TO.C,RGB1_A13*%
X267696710Y-22511701D02*
G75*
G02*
X267444452Y-22580000I-252258J431701D01*
G01*
X265855548Y-22580000D02*
G75*
G02*
X265603289Y-22511701I0J500000D01*
G01*
X264900516Y-23160281D02*
G75*
G02*
X265603289Y-22511701I450515J216879D01*
G01*
X264900516Y-23160280D02*
G75*
G02*
X264950001Y-23377158I-450515J-216878D01*
G01*
X264950001Y-24782843D02*
G75*
G02*
X264900516Y-24999720I-500000J1D01*
G01*
X265603289Y-25648298D02*
G75*
G02*
X264900516Y-24999720I-252258J431701D01*
G01*
X265603289Y-25648298D02*
G75*
G02*
X265855547Y-25579999I252258J-431701D01*
G01*
X267444453Y-25580000D02*
G75*
G02*
X267696711Y-25648299I-1J-499999D01*
G01*
X268399484Y-24999720D02*
G75*
G02*
X267696711Y-25648299I-450515J-216878D01*
G01*
X268399484Y-24999720D02*
G75*
G02*
X268349999Y-24782842I450515J216878D01*
G01*
X268349999Y-23377157D02*
G75*
G02*
X268399484Y-23160280I500000J-1D01*
G01*
X267696711Y-22511703D02*
G75*
G02*
X268399484Y-23160280I252258J-431700D01*
G01*
X268349999Y-23377158D02*
X268349999Y-24782842D01*
X267444452Y-25579999D02*
X265855547Y-25579999D01*
X264950001Y-24782842D02*
X264950001Y-23377158D01*
X265855548Y-22580000D02*
X267444452Y-22580000D01*
%TO.C,RGB1_A12*%
X248646710Y-22511701D02*
G75*
G02*
X248394452Y-22580000I-252258J431701D01*
G01*
X246805548Y-22580000D02*
G75*
G02*
X246553289Y-22511701I0J500000D01*
G01*
X245850516Y-23160281D02*
G75*
G02*
X246553289Y-22511701I450515J216879D01*
G01*
X245850516Y-23160280D02*
G75*
G02*
X245900001Y-23377158I-450515J-216878D01*
G01*
X245900001Y-24782843D02*
G75*
G02*
X245850516Y-24999720I-500000J1D01*
G01*
X246553289Y-25648298D02*
G75*
G02*
X245850516Y-24999720I-252258J431701D01*
G01*
X246553289Y-25648298D02*
G75*
G02*
X246805547Y-25579999I252258J-431701D01*
G01*
X248394453Y-25580000D02*
G75*
G02*
X248646711Y-25648299I-1J-499999D01*
G01*
X249349484Y-24999720D02*
G75*
G02*
X248646711Y-25648299I-450515J-216878D01*
G01*
X249349484Y-24999720D02*
G75*
G02*
X249299999Y-24782842I450515J216878D01*
G01*
X249299999Y-23377157D02*
G75*
G02*
X249349484Y-23160280I500000J-1D01*
G01*
X248646711Y-22511703D02*
G75*
G02*
X249349484Y-23160280I252258J-431700D01*
G01*
X249299999Y-23377158D02*
X249299999Y-24782842D01*
X248394452Y-25579999D02*
X246805547Y-25579999D01*
X245900001Y-24782842D02*
X245900001Y-23377158D01*
X246805548Y-22580000D02*
X248394452Y-22580000D01*
%TO.C,RGB1_A11*%
X229596710Y-22511701D02*
G75*
G02*
X229344452Y-22580000I-252258J431701D01*
G01*
X227755548Y-22580000D02*
G75*
G02*
X227503289Y-22511701I0J500000D01*
G01*
X226800516Y-23160281D02*
G75*
G02*
X227503289Y-22511701I450515J216879D01*
G01*
X226800516Y-23160280D02*
G75*
G02*
X226850001Y-23377158I-450515J-216878D01*
G01*
X226850001Y-24782843D02*
G75*
G02*
X226800516Y-24999720I-500000J1D01*
G01*
X227503289Y-25648298D02*
G75*
G02*
X226800516Y-24999720I-252258J431701D01*
G01*
X227503289Y-25648298D02*
G75*
G02*
X227755547Y-25579999I252258J-431701D01*
G01*
X229344453Y-25580000D02*
G75*
G02*
X229596711Y-25648299I-1J-499999D01*
G01*
X230299484Y-24999720D02*
G75*
G02*
X229596711Y-25648299I-450515J-216878D01*
G01*
X230299484Y-24999720D02*
G75*
G02*
X230249999Y-24782842I450515J216878D01*
G01*
X230249999Y-23377157D02*
G75*
G02*
X230299484Y-23160280I500000J-1D01*
G01*
X229596711Y-22511703D02*
G75*
G02*
X230299484Y-23160280I252258J-431700D01*
G01*
X230249999Y-23377158D02*
X230249999Y-24782842D01*
X229344452Y-25579999D02*
X227755547Y-25579999D01*
X226850001Y-24782842D02*
X226850001Y-23377158D01*
X227755548Y-22580000D02*
X229344452Y-22580000D01*
%TO.C,RGB1_A10*%
X210546710Y-22511701D02*
G75*
G02*
X210294452Y-22580000I-252258J431701D01*
G01*
X208705548Y-22580000D02*
G75*
G02*
X208453289Y-22511701I0J500000D01*
G01*
X207750516Y-23160281D02*
G75*
G02*
X208453289Y-22511701I450515J216879D01*
G01*
X207750516Y-23160280D02*
G75*
G02*
X207800001Y-23377158I-450515J-216878D01*
G01*
X207800001Y-24782843D02*
G75*
G02*
X207750516Y-24999720I-500000J1D01*
G01*
X208453289Y-25648298D02*
G75*
G02*
X207750516Y-24999720I-252258J431701D01*
G01*
X208453289Y-25648298D02*
G75*
G02*
X208705547Y-25579999I252258J-431701D01*
G01*
X210294453Y-25580000D02*
G75*
G02*
X210546711Y-25648299I-1J-499999D01*
G01*
X211249484Y-24999720D02*
G75*
G02*
X210546711Y-25648299I-450515J-216878D01*
G01*
X211249484Y-24999720D02*
G75*
G02*
X211199999Y-24782842I450515J216878D01*
G01*
X211199999Y-23377157D02*
G75*
G02*
X211249484Y-23160280I500000J-1D01*
G01*
X210546711Y-22511703D02*
G75*
G02*
X211249484Y-23160280I252258J-431700D01*
G01*
X211199999Y-23377158D02*
X211199999Y-24782842D01*
X210294452Y-25579999D02*
X208705547Y-25579999D01*
X207800001Y-24782842D02*
X207800001Y-23377158D01*
X208705548Y-22580000D02*
X210294452Y-22580000D01*
%TO.C,RGB1_A9*%
X191496710Y-22511701D02*
G75*
G02*
X191244452Y-22580000I-252258J431701D01*
G01*
X189655548Y-22580000D02*
G75*
G02*
X189403289Y-22511701I0J500000D01*
G01*
X188700516Y-23160281D02*
G75*
G02*
X189403289Y-22511701I450515J216879D01*
G01*
X188700516Y-23160280D02*
G75*
G02*
X188750001Y-23377158I-450515J-216878D01*
G01*
X188750001Y-24782843D02*
G75*
G02*
X188700516Y-24999720I-500000J1D01*
G01*
X189403289Y-25648298D02*
G75*
G02*
X188700516Y-24999720I-252258J431701D01*
G01*
X189403289Y-25648298D02*
G75*
G02*
X189655547Y-25579999I252258J-431701D01*
G01*
X191244453Y-25580000D02*
G75*
G02*
X191496711Y-25648299I-1J-499999D01*
G01*
X192199484Y-24999720D02*
G75*
G02*
X191496711Y-25648299I-450515J-216878D01*
G01*
X192199484Y-24999720D02*
G75*
G02*
X192149999Y-24782842I450515J216878D01*
G01*
X192149999Y-23377157D02*
G75*
G02*
X192199484Y-23160280I500000J-1D01*
G01*
X191496711Y-22511703D02*
G75*
G02*
X192199484Y-23160280I252258J-431700D01*
G01*
X192149999Y-23377158D02*
X192149999Y-24782842D01*
X191244452Y-25579999D02*
X189655547Y-25579999D01*
X188750001Y-24782842D02*
X188750001Y-23377158D01*
X189655548Y-22580000D02*
X191244452Y-22580000D01*
%TO.C,RGB1_A8*%
X172446710Y-22511701D02*
G75*
G02*
X172194452Y-22580000I-252258J431701D01*
G01*
X170605548Y-22580000D02*
G75*
G02*
X170353289Y-22511701I0J500000D01*
G01*
X169650516Y-23160281D02*
G75*
G02*
X170353289Y-22511701I450515J216879D01*
G01*
X169650516Y-23160280D02*
G75*
G02*
X169700001Y-23377158I-450515J-216878D01*
G01*
X169700001Y-24782843D02*
G75*
G02*
X169650516Y-24999720I-500000J1D01*
G01*
X170353289Y-25648298D02*
G75*
G02*
X169650516Y-24999720I-252258J431701D01*
G01*
X170353289Y-25648298D02*
G75*
G02*
X170605547Y-25579999I252258J-431701D01*
G01*
X172194453Y-25580000D02*
G75*
G02*
X172446711Y-25648299I-1J-499999D01*
G01*
X173149484Y-24999720D02*
G75*
G02*
X172446711Y-25648299I-450515J-216878D01*
G01*
X173149484Y-24999720D02*
G75*
G02*
X173099999Y-24782842I450515J216878D01*
G01*
X173099999Y-23377157D02*
G75*
G02*
X173149484Y-23160280I500000J-1D01*
G01*
X172446711Y-22511703D02*
G75*
G02*
X173149484Y-23160280I252258J-431700D01*
G01*
X173099999Y-23377158D02*
X173099999Y-24782842D01*
X172194452Y-25579999D02*
X170605547Y-25579999D01*
X169700001Y-24782842D02*
X169700001Y-23377158D01*
X170605548Y-22580000D02*
X172194452Y-22580000D01*
%TO.C,RGB1_A7*%
X153396710Y-22511701D02*
G75*
G02*
X153144452Y-22580000I-252258J431701D01*
G01*
X151555548Y-22580000D02*
G75*
G02*
X151303289Y-22511701I0J500000D01*
G01*
X150600516Y-23160281D02*
G75*
G02*
X151303289Y-22511701I450515J216879D01*
G01*
X150600516Y-23160280D02*
G75*
G02*
X150650001Y-23377158I-450515J-216878D01*
G01*
X150650001Y-24782843D02*
G75*
G02*
X150600516Y-24999720I-500000J1D01*
G01*
X151303289Y-25648298D02*
G75*
G02*
X150600516Y-24999720I-252258J431701D01*
G01*
X151303289Y-25648298D02*
G75*
G02*
X151555547Y-25579999I252258J-431701D01*
G01*
X153144453Y-25580000D02*
G75*
G02*
X153396711Y-25648299I-1J-499999D01*
G01*
X154099484Y-24999720D02*
G75*
G02*
X153396711Y-25648299I-450515J-216878D01*
G01*
X154099484Y-24999720D02*
G75*
G02*
X154049999Y-24782842I450515J216878D01*
G01*
X154049999Y-23377157D02*
G75*
G02*
X154099484Y-23160280I500000J-1D01*
G01*
X153396711Y-22511703D02*
G75*
G02*
X154099484Y-23160280I252258J-431700D01*
G01*
X154049999Y-23377158D02*
X154049999Y-24782842D01*
X153144452Y-25579999D02*
X151555547Y-25579999D01*
X150650001Y-24782842D02*
X150650001Y-23377158D01*
X151555548Y-22580000D02*
X153144452Y-22580000D01*
%TO.C,RGB1_A6*%
X134346710Y-22511701D02*
G75*
G02*
X134094452Y-22580000I-252258J431701D01*
G01*
X132505548Y-22580000D02*
G75*
G02*
X132253289Y-22511701I0J500000D01*
G01*
X131550516Y-23160281D02*
G75*
G02*
X132253289Y-22511701I450515J216879D01*
G01*
X131550516Y-23160280D02*
G75*
G02*
X131600001Y-23377158I-450515J-216878D01*
G01*
X131600001Y-24782843D02*
G75*
G02*
X131550516Y-24999720I-500000J1D01*
G01*
X132253289Y-25648298D02*
G75*
G02*
X131550516Y-24999720I-252258J431701D01*
G01*
X132253289Y-25648298D02*
G75*
G02*
X132505547Y-25579999I252258J-431701D01*
G01*
X134094453Y-25580000D02*
G75*
G02*
X134346711Y-25648299I-1J-499999D01*
G01*
X135049484Y-24999720D02*
G75*
G02*
X134346711Y-25648299I-450515J-216878D01*
G01*
X135049484Y-24999720D02*
G75*
G02*
X134999999Y-24782842I450515J216878D01*
G01*
X134999999Y-23377157D02*
G75*
G02*
X135049484Y-23160280I500000J-1D01*
G01*
X134346711Y-22511703D02*
G75*
G02*
X135049484Y-23160280I252258J-431700D01*
G01*
X134999999Y-23377158D02*
X134999999Y-24782842D01*
X134094452Y-25579999D02*
X132505547Y-25579999D01*
X131600001Y-24782842D02*
X131600001Y-23377158D01*
X132505548Y-22580000D02*
X134094452Y-22580000D01*
%TO.C,RGB1_A5*%
X115296710Y-22511701D02*
G75*
G02*
X115044452Y-22580000I-252258J431701D01*
G01*
X113455548Y-22580000D02*
G75*
G02*
X113203289Y-22511701I0J500000D01*
G01*
X112500516Y-23160281D02*
G75*
G02*
X113203289Y-22511701I450515J216879D01*
G01*
X112500516Y-23160280D02*
G75*
G02*
X112550001Y-23377158I-450515J-216878D01*
G01*
X112550001Y-24782843D02*
G75*
G02*
X112500516Y-24999720I-500000J1D01*
G01*
X113203289Y-25648298D02*
G75*
G02*
X112500516Y-24999720I-252258J431701D01*
G01*
X113203289Y-25648298D02*
G75*
G02*
X113455547Y-25579999I252258J-431701D01*
G01*
X115044453Y-25580000D02*
G75*
G02*
X115296711Y-25648299I-1J-499999D01*
G01*
X115999484Y-24999720D02*
G75*
G02*
X115296711Y-25648299I-450515J-216878D01*
G01*
X115999484Y-24999720D02*
G75*
G02*
X115949999Y-24782842I450515J216878D01*
G01*
X115949999Y-23377157D02*
G75*
G02*
X115999484Y-23160280I500000J-1D01*
G01*
X115296711Y-22511703D02*
G75*
G02*
X115999484Y-23160280I252258J-431700D01*
G01*
X115949999Y-23377158D02*
X115949999Y-24782842D01*
X115044452Y-25579999D02*
X113455547Y-25579999D01*
X112550001Y-24782842D02*
X112550001Y-23377158D01*
X113455548Y-22580000D02*
X115044452Y-22580000D01*
%TO.C,RGB1_A4*%
X96246710Y-22511701D02*
G75*
G02*
X95994452Y-22580000I-252258J431701D01*
G01*
X94405548Y-22580000D02*
G75*
G02*
X94153289Y-22511701I0J500000D01*
G01*
X93450516Y-23160281D02*
G75*
G02*
X94153289Y-22511701I450515J216879D01*
G01*
X93450516Y-23160280D02*
G75*
G02*
X93500001Y-23377158I-450515J-216878D01*
G01*
X93500001Y-24782843D02*
G75*
G02*
X93450516Y-24999720I-500000J1D01*
G01*
X94153289Y-25648298D02*
G75*
G02*
X93450516Y-24999720I-252258J431701D01*
G01*
X94153289Y-25648298D02*
G75*
G02*
X94405547Y-25579999I252258J-431701D01*
G01*
X95994453Y-25580000D02*
G75*
G02*
X96246711Y-25648299I-1J-499999D01*
G01*
X96949484Y-24999720D02*
G75*
G02*
X96246711Y-25648299I-450515J-216878D01*
G01*
X96949484Y-24999720D02*
G75*
G02*
X96899999Y-24782842I450515J216878D01*
G01*
X96899999Y-23377157D02*
G75*
G02*
X96949484Y-23160280I500000J-1D01*
G01*
X96246711Y-22511703D02*
G75*
G02*
X96949484Y-23160280I252258J-431700D01*
G01*
X96899999Y-23377158D02*
X96899999Y-24782842D01*
X95994452Y-25579999D02*
X94405547Y-25579999D01*
X93500001Y-24782842D02*
X93500001Y-23377158D01*
X94405548Y-22580000D02*
X95994452Y-22580000D01*
%TO.C,RGB1_A3*%
X77196710Y-22511701D02*
G75*
G02*
X76944452Y-22580000I-252258J431701D01*
G01*
X75355548Y-22580000D02*
G75*
G02*
X75103289Y-22511701I0J500000D01*
G01*
X74400516Y-23160281D02*
G75*
G02*
X75103289Y-22511701I450515J216879D01*
G01*
X74400516Y-23160280D02*
G75*
G02*
X74450001Y-23377158I-450515J-216878D01*
G01*
X74450001Y-24782843D02*
G75*
G02*
X74400516Y-24999720I-500000J1D01*
G01*
X75103289Y-25648298D02*
G75*
G02*
X74400516Y-24999720I-252258J431701D01*
G01*
X75103289Y-25648298D02*
G75*
G02*
X75355547Y-25579999I252258J-431701D01*
G01*
X76944453Y-25580000D02*
G75*
G02*
X77196711Y-25648299I-1J-499999D01*
G01*
X77899484Y-24999720D02*
G75*
G02*
X77196711Y-25648299I-450515J-216878D01*
G01*
X77899484Y-24999720D02*
G75*
G02*
X77849999Y-24782842I450515J216878D01*
G01*
X77849999Y-23377157D02*
G75*
G02*
X77899484Y-23160280I500000J-1D01*
G01*
X77196711Y-22511703D02*
G75*
G02*
X77899484Y-23160280I252258J-431700D01*
G01*
X77849999Y-23377158D02*
X77849999Y-24782842D01*
X76944452Y-25579999D02*
X75355547Y-25579999D01*
X74450001Y-24782842D02*
X74450001Y-23377158D01*
X75355548Y-22580000D02*
X76944452Y-22580000D01*
%TO.C,RGB1_A2*%
X58146710Y-22511701D02*
G75*
G02*
X57894452Y-22580000I-252258J431701D01*
G01*
X56305548Y-22580000D02*
G75*
G02*
X56053289Y-22511701I0J500000D01*
G01*
X55350516Y-23160281D02*
G75*
G02*
X56053289Y-22511701I450515J216879D01*
G01*
X55350516Y-23160280D02*
G75*
G02*
X55400001Y-23377158I-450515J-216878D01*
G01*
X55400001Y-24782843D02*
G75*
G02*
X55350516Y-24999720I-500000J1D01*
G01*
X56053289Y-25648298D02*
G75*
G02*
X55350516Y-24999720I-252258J431701D01*
G01*
X56053289Y-25648298D02*
G75*
G02*
X56305547Y-25579999I252258J-431701D01*
G01*
X57894453Y-25580000D02*
G75*
G02*
X58146711Y-25648299I-1J-499999D01*
G01*
X58849484Y-24999720D02*
G75*
G02*
X58146711Y-25648299I-450515J-216878D01*
G01*
X58849484Y-24999720D02*
G75*
G02*
X58799999Y-24782842I450515J216878D01*
G01*
X58799999Y-23377157D02*
G75*
G02*
X58849484Y-23160280I500000J-1D01*
G01*
X58146711Y-22511703D02*
G75*
G02*
X58849484Y-23160280I252258J-431700D01*
G01*
X58799999Y-23377158D02*
X58799999Y-24782842D01*
X57894452Y-25579999D02*
X56305547Y-25579999D01*
X55400001Y-24782842D02*
X55400001Y-23377158D01*
X56305548Y-22580000D02*
X57894452Y-22580000D01*
%TO.C,RGB1_A1*%
X39096710Y-22511701D02*
G75*
G02*
X38844452Y-22580000I-252258J431701D01*
G01*
X37255548Y-22580000D02*
G75*
G02*
X37003289Y-22511701I0J500000D01*
G01*
X36300516Y-23160281D02*
G75*
G02*
X37003289Y-22511701I450515J216879D01*
G01*
X36300516Y-23160280D02*
G75*
G02*
X36350001Y-23377158I-450515J-216878D01*
G01*
X36350001Y-24782843D02*
G75*
G02*
X36300516Y-24999720I-500000J1D01*
G01*
X37003289Y-25648298D02*
G75*
G02*
X36300516Y-24999720I-252258J431701D01*
G01*
X37003289Y-25648298D02*
G75*
G02*
X37255547Y-25579999I252258J-431701D01*
G01*
X38844453Y-25580000D02*
G75*
G02*
X39096711Y-25648299I-1J-499999D01*
G01*
X39799484Y-24999720D02*
G75*
G02*
X39096711Y-25648299I-450515J-216878D01*
G01*
X39799484Y-24999720D02*
G75*
G02*
X39749999Y-24782842I450515J216878D01*
G01*
X39749999Y-23377157D02*
G75*
G02*
X39799484Y-23160280I500000J-1D01*
G01*
X39096711Y-22511703D02*
G75*
G02*
X39799484Y-23160280I252258J-431700D01*
G01*
X39749999Y-23377158D02*
X39749999Y-24782842D01*
X38844452Y-25579999D02*
X37255547Y-25579999D01*
X36350001Y-24782842D02*
X36350001Y-23377158D01*
X37255548Y-22580000D02*
X38844452Y-22580000D01*
%TO.C,RGB1_B15*%
X24556952Y-44629999D02*
X22968048Y-44629999D01*
X25462499Y-42427157D02*
X25462499Y-43832841D01*
X22968048Y-41630000D02*
X24556953Y-41630000D01*
X22062501Y-43832841D02*
X22062501Y-42427157D01*
X22715789Y-44698296D02*
G75*
G02*
X22013016Y-44049719I-252258J431700D01*
G01*
X22062501Y-43832842D02*
G75*
G02*
X22013016Y-44049719I-500000J1D01*
G01*
X22013016Y-42210279D02*
G75*
G02*
X22062501Y-42427157I-450515J-216878D01*
G01*
X22013016Y-42210279D02*
G75*
G02*
X22715789Y-41561700I450515J216878D01*
G01*
X22968047Y-41629999D02*
G75*
G02*
X22715789Y-41561700I1J499999D01*
G01*
X24809211Y-41561701D02*
G75*
G02*
X24556953Y-41630000I-252258J431701D01*
G01*
X24809211Y-41561701D02*
G75*
G02*
X25511984Y-42210279I252258J-431701D01*
G01*
X25462499Y-42427156D02*
G75*
G02*
X25511984Y-42210279I500000J-1D01*
G01*
X25511984Y-44049719D02*
G75*
G02*
X25462499Y-43832841I450515J216878D01*
G01*
X25511984Y-44049718D02*
G75*
G02*
X24809211Y-44698298I-450515J-216879D01*
G01*
X24556952Y-44629999D02*
G75*
G02*
X24809211Y-44698298I0J-500000D01*
G01*
X22715790Y-44698298D02*
G75*
G02*
X22968048Y-44629999I252258J-431701D01*
G01*
%TO.C,RGB1_B14*%
X48369452Y-44629999D02*
X46780548Y-44629999D01*
X49274999Y-42427157D02*
X49274999Y-43832841D01*
X46780548Y-41630000D02*
X48369453Y-41630000D01*
X45875001Y-43832841D02*
X45875001Y-42427157D01*
X46528289Y-44698296D02*
G75*
G02*
X45825516Y-44049719I-252258J431700D01*
G01*
X45875001Y-43832842D02*
G75*
G02*
X45825516Y-44049719I-500000J1D01*
G01*
X45825516Y-42210279D02*
G75*
G02*
X45875001Y-42427157I-450515J-216878D01*
G01*
X45825516Y-42210279D02*
G75*
G02*
X46528289Y-41561700I450515J216878D01*
G01*
X46780547Y-41629999D02*
G75*
G02*
X46528289Y-41561700I1J499999D01*
G01*
X48621711Y-41561701D02*
G75*
G02*
X48369453Y-41630000I-252258J431701D01*
G01*
X48621711Y-41561701D02*
G75*
G02*
X49324484Y-42210279I252258J-431701D01*
G01*
X49274999Y-42427156D02*
G75*
G02*
X49324484Y-42210279I500000J-1D01*
G01*
X49324484Y-44049719D02*
G75*
G02*
X49274999Y-43832841I450515J216878D01*
G01*
X49324484Y-44049718D02*
G75*
G02*
X48621711Y-44698298I-450515J-216879D01*
G01*
X48369452Y-44629999D02*
G75*
G02*
X48621711Y-44698298I0J-500000D01*
G01*
X46528290Y-44698298D02*
G75*
G02*
X46780548Y-44629999I252258J-431701D01*
G01*
%TO.C,RGB1_B13*%
X67419452Y-44629999D02*
X65830548Y-44629999D01*
X68324999Y-42427157D02*
X68324999Y-43832841D01*
X65830548Y-41630000D02*
X67419453Y-41630000D01*
X64925001Y-43832841D02*
X64925001Y-42427157D01*
X65578289Y-44698296D02*
G75*
G02*
X64875516Y-44049719I-252258J431700D01*
G01*
X64925001Y-43832842D02*
G75*
G02*
X64875516Y-44049719I-500000J1D01*
G01*
X64875516Y-42210279D02*
G75*
G02*
X64925001Y-42427157I-450515J-216878D01*
G01*
X64875516Y-42210279D02*
G75*
G02*
X65578289Y-41561700I450515J216878D01*
G01*
X65830547Y-41629999D02*
G75*
G02*
X65578289Y-41561700I1J499999D01*
G01*
X67671711Y-41561701D02*
G75*
G02*
X67419453Y-41630000I-252258J431701D01*
G01*
X67671711Y-41561701D02*
G75*
G02*
X68374484Y-42210279I252258J-431701D01*
G01*
X68324999Y-42427156D02*
G75*
G02*
X68374484Y-42210279I500000J-1D01*
G01*
X68374484Y-44049719D02*
G75*
G02*
X68324999Y-43832841I450515J216878D01*
G01*
X68374484Y-44049718D02*
G75*
G02*
X67671711Y-44698298I-450515J-216879D01*
G01*
X67419452Y-44629999D02*
G75*
G02*
X67671711Y-44698298I0J-500000D01*
G01*
X65578290Y-44698298D02*
G75*
G02*
X65830548Y-44629999I252258J-431701D01*
G01*
%TO.C,RGB1_B12*%
X86469452Y-44629999D02*
X84880548Y-44629999D01*
X87374999Y-42427157D02*
X87374999Y-43832841D01*
X84880548Y-41630000D02*
X86469453Y-41630000D01*
X83975001Y-43832841D02*
X83975001Y-42427157D01*
X84628289Y-44698296D02*
G75*
G02*
X83925516Y-44049719I-252258J431700D01*
G01*
X83975001Y-43832842D02*
G75*
G02*
X83925516Y-44049719I-500000J1D01*
G01*
X83925516Y-42210279D02*
G75*
G02*
X83975001Y-42427157I-450515J-216878D01*
G01*
X83925516Y-42210279D02*
G75*
G02*
X84628289Y-41561700I450515J216878D01*
G01*
X84880547Y-41629999D02*
G75*
G02*
X84628289Y-41561700I1J499999D01*
G01*
X86721711Y-41561701D02*
G75*
G02*
X86469453Y-41630000I-252258J431701D01*
G01*
X86721711Y-41561701D02*
G75*
G02*
X87424484Y-42210279I252258J-431701D01*
G01*
X87374999Y-42427156D02*
G75*
G02*
X87424484Y-42210279I500000J-1D01*
G01*
X87424484Y-44049719D02*
G75*
G02*
X87374999Y-43832841I450515J216878D01*
G01*
X87424484Y-44049718D02*
G75*
G02*
X86721711Y-44698298I-450515J-216879D01*
G01*
X86469452Y-44629999D02*
G75*
G02*
X86721711Y-44698298I0J-500000D01*
G01*
X84628290Y-44698298D02*
G75*
G02*
X84880548Y-44629999I252258J-431701D01*
G01*
%TO.C,RGB1_B11*%
X105519452Y-44629999D02*
X103930548Y-44629999D01*
X106424999Y-42427157D02*
X106424999Y-43832841D01*
X103930548Y-41630000D02*
X105519453Y-41630000D01*
X103025001Y-43832841D02*
X103025001Y-42427157D01*
X103678289Y-44698296D02*
G75*
G02*
X102975516Y-44049719I-252258J431700D01*
G01*
X103025001Y-43832842D02*
G75*
G02*
X102975516Y-44049719I-500000J1D01*
G01*
X102975516Y-42210279D02*
G75*
G02*
X103025001Y-42427157I-450515J-216878D01*
G01*
X102975516Y-42210279D02*
G75*
G02*
X103678289Y-41561700I450515J216878D01*
G01*
X103930547Y-41629999D02*
G75*
G02*
X103678289Y-41561700I1J499999D01*
G01*
X105771711Y-41561701D02*
G75*
G02*
X105519453Y-41630000I-252258J431701D01*
G01*
X105771711Y-41561701D02*
G75*
G02*
X106474484Y-42210279I252258J-431701D01*
G01*
X106424999Y-42427156D02*
G75*
G02*
X106474484Y-42210279I500000J-1D01*
G01*
X106474484Y-44049719D02*
G75*
G02*
X106424999Y-43832841I450515J216878D01*
G01*
X106474484Y-44049718D02*
G75*
G02*
X105771711Y-44698298I-450515J-216879D01*
G01*
X105519452Y-44629999D02*
G75*
G02*
X105771711Y-44698298I0J-500000D01*
G01*
X103678290Y-44698298D02*
G75*
G02*
X103930548Y-44629999I252258J-431701D01*
G01*
%TO.C,RGB1_B10*%
X124569452Y-44629999D02*
X122980548Y-44629999D01*
X125474999Y-42427157D02*
X125474999Y-43832841D01*
X122980548Y-41630000D02*
X124569453Y-41630000D01*
X122075001Y-43832841D02*
X122075001Y-42427157D01*
X122728289Y-44698296D02*
G75*
G02*
X122025516Y-44049719I-252258J431700D01*
G01*
X122075001Y-43832842D02*
G75*
G02*
X122025516Y-44049719I-500000J1D01*
G01*
X122025516Y-42210279D02*
G75*
G02*
X122075001Y-42427157I-450515J-216878D01*
G01*
X122025516Y-42210279D02*
G75*
G02*
X122728289Y-41561700I450515J216878D01*
G01*
X122980547Y-41629999D02*
G75*
G02*
X122728289Y-41561700I1J499999D01*
G01*
X124821711Y-41561701D02*
G75*
G02*
X124569453Y-41630000I-252258J431701D01*
G01*
X124821711Y-41561701D02*
G75*
G02*
X125524484Y-42210279I252258J-431701D01*
G01*
X125474999Y-42427156D02*
G75*
G02*
X125524484Y-42210279I500000J-1D01*
G01*
X125524484Y-44049719D02*
G75*
G02*
X125474999Y-43832841I450515J216878D01*
G01*
X125524484Y-44049718D02*
G75*
G02*
X124821711Y-44698298I-450515J-216879D01*
G01*
X124569452Y-44629999D02*
G75*
G02*
X124821711Y-44698298I0J-500000D01*
G01*
X122728290Y-44698298D02*
G75*
G02*
X122980548Y-44629999I252258J-431701D01*
G01*
%TO.C,RGB1_B9*%
X143619452Y-44629999D02*
X142030548Y-44629999D01*
X144524999Y-42427157D02*
X144524999Y-43832841D01*
X142030548Y-41630000D02*
X143619453Y-41630000D01*
X141125001Y-43832841D02*
X141125001Y-42427157D01*
X141778289Y-44698296D02*
G75*
G02*
X141075516Y-44049719I-252258J431700D01*
G01*
X141125001Y-43832842D02*
G75*
G02*
X141075516Y-44049719I-500000J1D01*
G01*
X141075516Y-42210279D02*
G75*
G02*
X141125001Y-42427157I-450515J-216878D01*
G01*
X141075516Y-42210279D02*
G75*
G02*
X141778289Y-41561700I450515J216878D01*
G01*
X142030547Y-41629999D02*
G75*
G02*
X141778289Y-41561700I1J499999D01*
G01*
X143871711Y-41561701D02*
G75*
G02*
X143619453Y-41630000I-252258J431701D01*
G01*
X143871711Y-41561701D02*
G75*
G02*
X144574484Y-42210279I252258J-431701D01*
G01*
X144524999Y-42427156D02*
G75*
G02*
X144574484Y-42210279I500000J-1D01*
G01*
X144574484Y-44049719D02*
G75*
G02*
X144524999Y-43832841I450515J216878D01*
G01*
X144574484Y-44049718D02*
G75*
G02*
X143871711Y-44698298I-450515J-216879D01*
G01*
X143619452Y-44629999D02*
G75*
G02*
X143871711Y-44698298I0J-500000D01*
G01*
X141778290Y-44698298D02*
G75*
G02*
X142030548Y-44629999I252258J-431701D01*
G01*
%TO.C,RGB1_B8*%
X162669452Y-44629999D02*
X161080548Y-44629999D01*
X163574999Y-42427157D02*
X163574999Y-43832841D01*
X161080548Y-41630000D02*
X162669453Y-41630000D01*
X160175001Y-43832841D02*
X160175001Y-42427157D01*
X160828289Y-44698296D02*
G75*
G02*
X160125516Y-44049719I-252258J431700D01*
G01*
X160175001Y-43832842D02*
G75*
G02*
X160125516Y-44049719I-500000J1D01*
G01*
X160125516Y-42210279D02*
G75*
G02*
X160175001Y-42427157I-450515J-216878D01*
G01*
X160125516Y-42210279D02*
G75*
G02*
X160828289Y-41561700I450515J216878D01*
G01*
X161080547Y-41629999D02*
G75*
G02*
X160828289Y-41561700I1J499999D01*
G01*
X162921711Y-41561701D02*
G75*
G02*
X162669453Y-41630000I-252258J431701D01*
G01*
X162921711Y-41561701D02*
G75*
G02*
X163624484Y-42210279I252258J-431701D01*
G01*
X163574999Y-42427156D02*
G75*
G02*
X163624484Y-42210279I500000J-1D01*
G01*
X163624484Y-44049719D02*
G75*
G02*
X163574999Y-43832841I450515J216878D01*
G01*
X163624484Y-44049718D02*
G75*
G02*
X162921711Y-44698298I-450515J-216879D01*
G01*
X162669452Y-44629999D02*
G75*
G02*
X162921711Y-44698298I0J-500000D01*
G01*
X160828290Y-44698298D02*
G75*
G02*
X161080548Y-44629999I252258J-431701D01*
G01*
%TO.C,RGB1_B7*%
X181719452Y-44629999D02*
X180130548Y-44629999D01*
X182624999Y-42427157D02*
X182624999Y-43832841D01*
X180130548Y-41630000D02*
X181719453Y-41630000D01*
X179225001Y-43832841D02*
X179225001Y-42427157D01*
X179878289Y-44698296D02*
G75*
G02*
X179175516Y-44049719I-252258J431700D01*
G01*
X179225001Y-43832842D02*
G75*
G02*
X179175516Y-44049719I-500000J1D01*
G01*
X179175516Y-42210279D02*
G75*
G02*
X179225001Y-42427157I-450515J-216878D01*
G01*
X179175516Y-42210279D02*
G75*
G02*
X179878289Y-41561700I450515J216878D01*
G01*
X180130547Y-41629999D02*
G75*
G02*
X179878289Y-41561700I1J499999D01*
G01*
X181971711Y-41561701D02*
G75*
G02*
X181719453Y-41630000I-252258J431701D01*
G01*
X181971711Y-41561701D02*
G75*
G02*
X182674484Y-42210279I252258J-431701D01*
G01*
X182624999Y-42427156D02*
G75*
G02*
X182674484Y-42210279I500000J-1D01*
G01*
X182674484Y-44049719D02*
G75*
G02*
X182624999Y-43832841I450515J216878D01*
G01*
X182674484Y-44049718D02*
G75*
G02*
X181971711Y-44698298I-450515J-216879D01*
G01*
X181719452Y-44629999D02*
G75*
G02*
X181971711Y-44698298I0J-500000D01*
G01*
X179878290Y-44698298D02*
G75*
G02*
X180130548Y-44629999I252258J-431701D01*
G01*
%TO.C,RGB1_B6*%
X200769452Y-44629999D02*
X199180548Y-44629999D01*
X201674999Y-42427157D02*
X201674999Y-43832841D01*
X199180548Y-41630000D02*
X200769453Y-41630000D01*
X198275001Y-43832841D02*
X198275001Y-42427157D01*
X198928289Y-44698296D02*
G75*
G02*
X198225516Y-44049719I-252258J431700D01*
G01*
X198275001Y-43832842D02*
G75*
G02*
X198225516Y-44049719I-500000J1D01*
G01*
X198225516Y-42210279D02*
G75*
G02*
X198275001Y-42427157I-450515J-216878D01*
G01*
X198225516Y-42210279D02*
G75*
G02*
X198928289Y-41561700I450515J216878D01*
G01*
X199180547Y-41629999D02*
G75*
G02*
X198928289Y-41561700I1J499999D01*
G01*
X201021711Y-41561701D02*
G75*
G02*
X200769453Y-41630000I-252258J431701D01*
G01*
X201021711Y-41561701D02*
G75*
G02*
X201724484Y-42210279I252258J-431701D01*
G01*
X201674999Y-42427156D02*
G75*
G02*
X201724484Y-42210279I500000J-1D01*
G01*
X201724484Y-44049719D02*
G75*
G02*
X201674999Y-43832841I450515J216878D01*
G01*
X201724484Y-44049718D02*
G75*
G02*
X201021711Y-44698298I-450515J-216879D01*
G01*
X200769452Y-44629999D02*
G75*
G02*
X201021711Y-44698298I0J-500000D01*
G01*
X198928290Y-44698298D02*
G75*
G02*
X199180548Y-44629999I252258J-431701D01*
G01*
%TO.C,RGB1_B5*%
X219819452Y-44629999D02*
X218230548Y-44629999D01*
X220724999Y-42427157D02*
X220724999Y-43832841D01*
X218230548Y-41630000D02*
X219819453Y-41630000D01*
X217325001Y-43832841D02*
X217325001Y-42427157D01*
X217978289Y-44698296D02*
G75*
G02*
X217275516Y-44049719I-252258J431700D01*
G01*
X217325001Y-43832842D02*
G75*
G02*
X217275516Y-44049719I-500000J1D01*
G01*
X217275516Y-42210279D02*
G75*
G02*
X217325001Y-42427157I-450515J-216878D01*
G01*
X217275516Y-42210279D02*
G75*
G02*
X217978289Y-41561700I450515J216878D01*
G01*
X218230547Y-41629999D02*
G75*
G02*
X217978289Y-41561700I1J499999D01*
G01*
X220071711Y-41561701D02*
G75*
G02*
X219819453Y-41630000I-252258J431701D01*
G01*
X220071711Y-41561701D02*
G75*
G02*
X220774484Y-42210279I252258J-431701D01*
G01*
X220724999Y-42427156D02*
G75*
G02*
X220774484Y-42210279I500000J-1D01*
G01*
X220774484Y-44049719D02*
G75*
G02*
X220724999Y-43832841I450515J216878D01*
G01*
X220774484Y-44049718D02*
G75*
G02*
X220071711Y-44698298I-450515J-216879D01*
G01*
X219819452Y-44629999D02*
G75*
G02*
X220071711Y-44698298I0J-500000D01*
G01*
X217978290Y-44698298D02*
G75*
G02*
X218230548Y-44629999I252258J-431701D01*
G01*
%TO.C,RGB1_B4*%
X238869452Y-44629999D02*
X237280548Y-44629999D01*
X239774999Y-42427157D02*
X239774999Y-43832841D01*
X237280548Y-41630000D02*
X238869453Y-41630000D01*
X236375001Y-43832841D02*
X236375001Y-42427157D01*
X237028289Y-44698296D02*
G75*
G02*
X236325516Y-44049719I-252258J431700D01*
G01*
X236375001Y-43832842D02*
G75*
G02*
X236325516Y-44049719I-500000J1D01*
G01*
X236325516Y-42210279D02*
G75*
G02*
X236375001Y-42427157I-450515J-216878D01*
G01*
X236325516Y-42210279D02*
G75*
G02*
X237028289Y-41561700I450515J216878D01*
G01*
X237280547Y-41629999D02*
G75*
G02*
X237028289Y-41561700I1J499999D01*
G01*
X239121711Y-41561701D02*
G75*
G02*
X238869453Y-41630000I-252258J431701D01*
G01*
X239121711Y-41561701D02*
G75*
G02*
X239824484Y-42210279I252258J-431701D01*
G01*
X239774999Y-42427156D02*
G75*
G02*
X239824484Y-42210279I500000J-1D01*
G01*
X239824484Y-44049719D02*
G75*
G02*
X239774999Y-43832841I450515J216878D01*
G01*
X239824484Y-44049718D02*
G75*
G02*
X239121711Y-44698298I-450515J-216879D01*
G01*
X238869452Y-44629999D02*
G75*
G02*
X239121711Y-44698298I0J-500000D01*
G01*
X237028290Y-44698298D02*
G75*
G02*
X237280548Y-44629999I252258J-431701D01*
G01*
%TO.C,RGB1_B3*%
X257919452Y-44629999D02*
X256330548Y-44629999D01*
X258824999Y-42427157D02*
X258824999Y-43832841D01*
X256330548Y-41630000D02*
X257919453Y-41630000D01*
X255425001Y-43832841D02*
X255425001Y-42427157D01*
X256078289Y-44698296D02*
G75*
G02*
X255375516Y-44049719I-252258J431700D01*
G01*
X255425001Y-43832842D02*
G75*
G02*
X255375516Y-44049719I-500000J1D01*
G01*
X255375516Y-42210279D02*
G75*
G02*
X255425001Y-42427157I-450515J-216878D01*
G01*
X255375516Y-42210279D02*
G75*
G02*
X256078289Y-41561700I450515J216878D01*
G01*
X256330547Y-41629999D02*
G75*
G02*
X256078289Y-41561700I1J499999D01*
G01*
X258171711Y-41561701D02*
G75*
G02*
X257919453Y-41630000I-252258J431701D01*
G01*
X258171711Y-41561701D02*
G75*
G02*
X258874484Y-42210279I252258J-431701D01*
G01*
X258824999Y-42427156D02*
G75*
G02*
X258874484Y-42210279I500000J-1D01*
G01*
X258874484Y-44049719D02*
G75*
G02*
X258824999Y-43832841I450515J216878D01*
G01*
X258874484Y-44049718D02*
G75*
G02*
X258171711Y-44698298I-450515J-216879D01*
G01*
X257919452Y-44629999D02*
G75*
G02*
X258171711Y-44698298I0J-500000D01*
G01*
X256078290Y-44698298D02*
G75*
G02*
X256330548Y-44629999I252258J-431701D01*
G01*
%TO.C,RGB1_B2*%
X281731952Y-44629999D02*
X280143048Y-44629999D01*
X282637499Y-42427157D02*
X282637499Y-43832841D01*
X280143048Y-41630000D02*
X281731953Y-41630000D01*
X279237501Y-43832841D02*
X279237501Y-42427157D01*
X279890789Y-44698296D02*
G75*
G02*
X279188016Y-44049719I-252258J431700D01*
G01*
X279237501Y-43832842D02*
G75*
G02*
X279188016Y-44049719I-500000J1D01*
G01*
X279188016Y-42210279D02*
G75*
G02*
X279237501Y-42427157I-450515J-216878D01*
G01*
X279188016Y-42210279D02*
G75*
G02*
X279890789Y-41561700I450515J216878D01*
G01*
X280143047Y-41629999D02*
G75*
G02*
X279890789Y-41561700I1J499999D01*
G01*
X281984211Y-41561701D02*
G75*
G02*
X281731953Y-41630000I-252258J431701D01*
G01*
X281984211Y-41561701D02*
G75*
G02*
X282686984Y-42210279I252258J-431701D01*
G01*
X282637499Y-42427156D02*
G75*
G02*
X282686984Y-42210279I500000J-1D01*
G01*
X282686984Y-44049719D02*
G75*
G02*
X282637499Y-43832841I450515J216878D01*
G01*
X282686984Y-44049718D02*
G75*
G02*
X281984211Y-44698298I-450515J-216879D01*
G01*
X281731952Y-44629999D02*
G75*
G02*
X281984211Y-44698298I0J-500000D01*
G01*
X279890790Y-44698298D02*
G75*
G02*
X280143048Y-44629999I252258J-431701D01*
G01*
%TO.C,RGB1_B1*%
X305544452Y-44629999D02*
X303955548Y-44629999D01*
X306449999Y-42427157D02*
X306449999Y-43832841D01*
X303955548Y-41630000D02*
X305544453Y-41630000D01*
X303050001Y-43832841D02*
X303050001Y-42427157D01*
X303703289Y-44698296D02*
G75*
G02*
X303000516Y-44049719I-252258J431700D01*
G01*
X303050001Y-43832842D02*
G75*
G02*
X303000516Y-44049719I-500000J1D01*
G01*
X303000516Y-42210279D02*
G75*
G02*
X303050001Y-42427157I-450515J-216878D01*
G01*
X303000516Y-42210279D02*
G75*
G02*
X303703289Y-41561700I450515J216878D01*
G01*
X303955547Y-41629999D02*
G75*
G02*
X303703289Y-41561700I1J499999D01*
G01*
X305796711Y-41561701D02*
G75*
G02*
X305544453Y-41630000I-252258J431701D01*
G01*
X305796711Y-41561701D02*
G75*
G02*
X306499484Y-42210279I252258J-431701D01*
G01*
X306449999Y-42427156D02*
G75*
G02*
X306499484Y-42210279I500000J-1D01*
G01*
X306499484Y-44049719D02*
G75*
G02*
X306449999Y-43832841I450515J216878D01*
G01*
X306499484Y-44049718D02*
G75*
G02*
X305796711Y-44698298I-450515J-216879D01*
G01*
X305544452Y-44629999D02*
G75*
G02*
X305796711Y-44698298I0J-500000D01*
G01*
X303703290Y-44698298D02*
G75*
G02*
X303955548Y-44629999I252258J-431701D01*
G01*
%TO.C,RGB1_A17*%
X305796710Y-22511701D02*
G75*
G02*
X305544452Y-22580000I-252258J431701D01*
G01*
X303955548Y-22580000D02*
G75*
G02*
X303703289Y-22511701I0J500000D01*
G01*
X303000516Y-23160281D02*
G75*
G02*
X303703289Y-22511701I450515J216879D01*
G01*
X303000516Y-23160280D02*
G75*
G02*
X303050001Y-23377158I-450515J-216878D01*
G01*
X303050001Y-24782843D02*
G75*
G02*
X303000516Y-24999720I-500000J1D01*
G01*
X303703289Y-25648298D02*
G75*
G02*
X303000516Y-24999720I-252258J431701D01*
G01*
X303703289Y-25648298D02*
G75*
G02*
X303955547Y-25579999I252258J-431701D01*
G01*
X305544453Y-25580000D02*
G75*
G02*
X305796711Y-25648299I-1J-499999D01*
G01*
X306499484Y-24999720D02*
G75*
G02*
X305796711Y-25648299I-450515J-216878D01*
G01*
X306499484Y-24999720D02*
G75*
G02*
X306449999Y-24782842I450515J216878D01*
G01*
X306449999Y-23377157D02*
G75*
G02*
X306499484Y-23160280I500000J-1D01*
G01*
X305796711Y-22511703D02*
G75*
G02*
X306499484Y-23160280I252258J-431700D01*
G01*
X306449999Y-23377158D02*
X306449999Y-24782842D01*
X305544452Y-25579999D02*
X303955547Y-25579999D01*
X303050001Y-24782842D02*
X303050001Y-23377158D01*
X303955548Y-22580000D02*
X305544452Y-22580000D01*
%TD*%
M02*
