%TF.GenerationSoftware,KiCad,Pcbnew,8.0.6*%
%TF.CreationDate,2024-11-15T04:32:27+07:00*%
%TF.ProjectId,Heart HE 65,48656172-7420-4484-9520-36352e6b6963,rev?*%
%TF.SameCoordinates,Original*%
%TF.FileFunction,Soldermask,Bot*%
%TF.FilePolarity,Negative*%
%FSLAX46Y46*%
G04 Gerber Fmt 4.6, Leading zero omitted, Abs format (unit mm)*
G04 Created by KiCad (PCBNEW 8.0.6) date 2024-11-15 04:32:27*
%MOMM*%
%LPD*%
G01*
G04 APERTURE LIST*
G04 Aperture macros list*
%AMRoundRect*
0 Rectangle with rounded corners*
0 $1 Rounding radius*
0 $2 $3 $4 $5 $6 $7 $8 $9 X,Y pos of 4 corners*
0 Add a 4 corners polygon primitive as box body*
4,1,4,$2,$3,$4,$5,$6,$7,$8,$9,$2,$3,0*
0 Add four circle primitives for the rounded corners*
1,1,$1+$1,$2,$3*
1,1,$1+$1,$4,$5*
1,1,$1+$1,$6,$7*
1,1,$1+$1,$8,$9*
0 Add four rect primitives between the rounded corners*
20,1,$1+$1,$2,$3,$4,$5,0*
20,1,$1+$1,$4,$5,$6,$7,0*
20,1,$1+$1,$6,$7,$8,$9,0*
20,1,$1+$1,$8,$9,$2,$3,0*%
%AMRotRect*
0 Rectangle, with rotation*
0 The origin of the aperture is its center*
0 $1 length*
0 $2 width*
0 $3 Rotation angle, in degrees counterclockwise*
0 Add horizontal line*
21,1,$1,$2,0,0,$3*%
%AMFreePoly0*
4,1,21,-0.125000,1.200000,0.125000,1.200000,0.125000,1.700000,0.375000,1.700000,0.375000,1.200000,0.825000,1.200000,0.825000,-1.200000,0.375000,-1.200000,0.375000,-1.700000,0.125000,-1.700000,0.125000,-1.200000,-0.125000,-1.200000,-0.125000,-1.700000,-0.375000,-1.700000,-0.375000,-1.200000,-0.825000,-1.200000,-0.825000,1.200000,-0.375000,1.200000,-0.375000,1.700000,-0.125000,1.700000,
-0.125000,1.200000,-0.125000,1.200000,$1*%
%AMFreePoly1*
4,1,19,0.000000,0.744911,0.071157,0.744911,0.207708,0.704816,0.327430,0.627875,0.420627,0.520320,0.479746,0.390866,0.500000,0.250000,0.500000,-0.250000,0.479746,-0.390866,0.420627,-0.520320,0.327430,-0.627875,0.207708,-0.704816,0.071157,-0.744911,0.000000,-0.744911,0.000000,-0.750000,-0.500000,-0.750000,-0.500000,0.750000,0.000000,0.750000,0.000000,0.744911,0.000000,0.744911,
$1*%
%AMFreePoly2*
4,1,19,0.500000,-0.750000,0.000000,-0.750000,0.000000,-0.744911,-0.071157,-0.744911,-0.207708,-0.704816,-0.327430,-0.627875,-0.420627,-0.520320,-0.479746,-0.390866,-0.500000,-0.250000,-0.500000,0.250000,-0.479746,0.390866,-0.420627,0.520320,-0.327430,0.627875,-0.207708,0.704816,-0.071157,0.744911,0.000000,0.744911,0.000000,0.750000,0.500000,0.750000,0.500000,-0.750000,0.500000,-0.750000,
$1*%
G04 Aperture macros list end*
%ADD10R,0.750000X0.800000*%
%ADD11R,0.620000X0.560000*%
%ADD12RoundRect,0.082000X0.718000X-0.328000X0.718000X0.328000X-0.718000X0.328000X-0.718000X-0.328000X0*%
%ADD13RoundRect,0.082000X-0.718000X0.328000X-0.718000X-0.328000X0.718000X-0.328000X0.718000X0.328000X0*%
%ADD14C,3.800000*%
%ADD15RoundRect,0.200000X-0.800000X0.200000X-0.800000X-0.200000X0.800000X-0.200000X0.800000X0.200000X0*%
%ADD16RotRect,0.560000X0.620000X225.000000*%
%ADD17RoundRect,0.150000X-0.150000X0.350000X-0.150000X-0.350000X0.150000X-0.350000X0.150000X0.350000X0*%
%ADD18C,1.750000*%
%ADD19R,1.000000X0.400000*%
%ADD20RoundRect,0.375000X-0.625000X-0.375000X0.625000X-0.375000X0.625000X0.375000X-0.625000X0.375000X0*%
%ADD21RoundRect,0.500000X-0.500000X-1.400000X0.500000X-1.400000X0.500000X1.400000X-0.500000X1.400000X0*%
%ADD22C,1.000000*%
%ADD23R,0.560000X0.620000*%
%ADD24RotRect,0.400000X1.900000X225.000000*%
%ADD25RoundRect,0.150000X0.350000X0.150000X-0.350000X0.150000X-0.350000X-0.150000X0.350000X-0.150000X0*%
%ADD26C,3.048000*%
%ADD27C,3.987800*%
%ADD28RotRect,2.900000X2.900000X135.000000*%
%ADD29RoundRect,0.050000X0.247487X0.176777X0.176777X0.247487X-0.247487X-0.176777X-0.176777X-0.247487X0*%
%ADD30RoundRect,0.050000X0.247487X-0.176777X-0.176777X0.247487X-0.247487X0.176777X0.176777X-0.247487X0*%
%ADD31RotRect,0.560000X0.620000X315.000000*%
%ADD32FreePoly0,270.000000*%
%ADD33RoundRect,0.060000X-0.060000X0.240000X-0.060000X-0.240000X0.060000X-0.240000X0.060000X0.240000X0*%
%ADD34R,1.550000X0.600000*%
%ADD35R,1.800000X1.200000*%
%ADD36RotRect,0.560000X0.620000X135.000000*%
%ADD37R,1.000000X1.500000*%
%ADD38O,1.000000X2.100000*%
%ADD39O,1.000000X1.600000*%
%ADD40R,0.600000X1.450000*%
%ADD41R,0.300000X1.450000*%
%ADD42C,0.650000*%
%ADD43RoundRect,0.150000X-0.150000X0.512500X-0.150000X-0.512500X0.150000X-0.512500X0.150000X0.512500X0*%
%ADD44RoundRect,0.135000X-0.185000X0.135000X-0.185000X-0.135000X0.185000X-0.135000X0.185000X0.135000X0*%
%ADD45RoundRect,0.140000X0.170000X-0.140000X0.170000X0.140000X-0.170000X0.140000X-0.170000X-0.140000X0*%
%ADD46FreePoly1,270.000000*%
%ADD47FreePoly2,270.000000*%
%ADD48FreePoly1,0.000000*%
%ADD49FreePoly2,0.000000*%
%ADD50R,1.140000X2.030000*%
G04 APERTURE END LIST*
D10*
%TO.C,C242*%
X309449999Y-99530000D03*
X309449999Y-101030000D03*
%TD*%
%TO.C,C241*%
X290399999Y-99530000D03*
X290399999Y-101030000D03*
%TD*%
%TO.C,C240*%
X271349999Y-99530000D03*
X271349999Y-101030000D03*
%TD*%
%TO.C,C239*%
X239203124Y-99530000D03*
X239203124Y-101030000D03*
%TD*%
%TO.C,C238*%
X216581249Y-98530000D03*
X216581249Y-100030000D03*
%TD*%
%TO.C,C237*%
X157049999Y-99530000D03*
X157049999Y-101030000D03*
%TD*%
%TO.C,C236*%
X145143749Y-99530000D03*
X145143749Y-101030000D03*
%TD*%
%TO.C,C235*%
X74896874Y-99530000D03*
X74896874Y-101030000D03*
%TD*%
%TO.C,C234*%
X51084374Y-99530000D03*
X51084374Y-101030000D03*
%TD*%
%TO.C,C233*%
X27271874Y-99530000D03*
X27271874Y-101030000D03*
%TD*%
%TO.C,C231*%
X300050001Y-81979999D03*
X300050001Y-80479999D03*
%TD*%
%TO.C,C232*%
X281000001Y-81979999D03*
X281000001Y-80479999D03*
%TD*%
%TO.C,C230*%
X254806251Y-81979999D03*
X254806251Y-80479999D03*
%TD*%
%TO.C,C229*%
X309449999Y-61430000D03*
X309449999Y-62930000D03*
%TD*%
%TO.C,C228*%
X228612501Y-81979999D03*
X228612501Y-80479999D03*
%TD*%
%TO.C,C227*%
X278493749Y-61430000D03*
X278493749Y-62930000D03*
%TD*%
%TO.C,C226*%
X209562501Y-81979999D03*
X209562501Y-80479999D03*
%TD*%
%TO.C,C225*%
X247537499Y-61430000D03*
X247537499Y-62930000D03*
%TD*%
%TO.C,C224*%
X190512501Y-81979999D03*
X190512501Y-80479999D03*
%TD*%
%TO.C,C223*%
X228487499Y-61430000D03*
X228487499Y-62930000D03*
%TD*%
%TO.C,C222*%
X171462501Y-81979999D03*
X171462501Y-80479999D03*
%TD*%
%TO.C,C221*%
X209437499Y-61430000D03*
X209437499Y-62930000D03*
%TD*%
%TO.C,C220*%
X152412501Y-81979999D03*
X152412501Y-80479999D03*
%TD*%
%TO.C,C219*%
X190387499Y-61430000D03*
X190387499Y-62930000D03*
%TD*%
%TO.C,C218*%
X133362501Y-81979999D03*
X133362501Y-80479999D03*
%TD*%
%TO.C,C217*%
X171337499Y-61430000D03*
X171337499Y-62930000D03*
%TD*%
%TO.C,C216*%
X114312501Y-81979999D03*
X114312501Y-80479999D03*
%TD*%
%TO.C,C215*%
X152287499Y-61430000D03*
X152287499Y-62930000D03*
%TD*%
%TO.C,C214*%
X95262501Y-81979999D03*
X95262501Y-80479999D03*
%TD*%
%TO.C,C213*%
X133237499Y-61430000D03*
X133237499Y-62930000D03*
%TD*%
%TO.C,C212*%
X76212501Y-81979999D03*
X76212501Y-80479999D03*
%TD*%
%TO.C,C211*%
X114187499Y-61430000D03*
X114187499Y-62930000D03*
%TD*%
%TO.C,C210*%
X57162501Y-81979999D03*
X57162501Y-80479999D03*
%TD*%
%TO.C,C209*%
X95137499Y-61430000D03*
X95137499Y-62930000D03*
%TD*%
%TO.C,C208*%
X38112501Y-81979999D03*
X38112501Y-80479999D03*
%TD*%
%TO.C,C207*%
X76087499Y-61430000D03*
X76087499Y-62930000D03*
%TD*%
%TO.C,C206*%
X26206251Y-81979999D03*
X26206251Y-80479999D03*
%TD*%
%TO.C,C205*%
X57037499Y-61430000D03*
X57037499Y-62930000D03*
%TD*%
%TO.C,C204*%
X16681251Y-81979999D03*
X16681251Y-80479999D03*
%TD*%
%TO.C,C203*%
X30843749Y-61430000D03*
X30843749Y-62930000D03*
%TD*%
%TO.C,C202*%
X300050001Y-43879999D03*
X300050001Y-42379999D03*
%TD*%
%TO.C,C201*%
X276237501Y-43879999D03*
X276237501Y-42379999D03*
%TD*%
%TO.C,C200*%
X252425001Y-43879999D03*
X252425001Y-42379999D03*
%TD*%
%TO.C,C199*%
X233375001Y-43879999D03*
X233375001Y-42379999D03*
%TD*%
%TO.C,C198*%
X214325001Y-43879999D03*
X214325001Y-42379999D03*
%TD*%
%TO.C,C197*%
X195275001Y-43879999D03*
X195275001Y-42379999D03*
%TD*%
%TO.C,C196*%
X176225001Y-43879999D03*
X176225001Y-42379999D03*
%TD*%
%TO.C,C195*%
X157175001Y-43879999D03*
X157175001Y-42379999D03*
%TD*%
%TO.C,C194*%
X138125001Y-43879999D03*
X138125001Y-42379999D03*
%TD*%
%TO.C,C193*%
X119075001Y-43879999D03*
X119075001Y-42379999D03*
%TD*%
%TO.C,C192*%
X100025001Y-43879999D03*
X100025001Y-42379999D03*
%TD*%
%TO.C,C191*%
X80975001Y-43879999D03*
X80975001Y-42379999D03*
%TD*%
%TO.C,C190*%
X61925001Y-43879999D03*
X61925001Y-42379999D03*
%TD*%
%TO.C,C189*%
X42875001Y-43879999D03*
X42875001Y-42379999D03*
%TD*%
%TO.C,C188*%
X19062501Y-43879999D03*
X19062501Y-42379999D03*
%TD*%
%TO.C,C187*%
X309449999Y-23330000D03*
X309449999Y-24830000D03*
%TD*%
%TO.C,C186*%
X290399999Y-24830000D03*
X290399999Y-23330000D03*
%TD*%
%TO.C,C183*%
X280874999Y-23330000D03*
X280874999Y-24830000D03*
%TD*%
%TO.C,C182*%
X271349999Y-23330000D03*
X271349999Y-24830000D03*
%TD*%
%TO.C,C181*%
X252299999Y-23330000D03*
X252299999Y-24830000D03*
%TD*%
%TO.C,C180*%
X233249999Y-23330000D03*
X233249999Y-24830000D03*
%TD*%
%TO.C,C179*%
X214199999Y-23330000D03*
X214199999Y-24830000D03*
%TD*%
%TO.C,C167*%
X195149999Y-23330000D03*
X195149999Y-24830000D03*
%TD*%
%TO.C,C166*%
X176099999Y-23330000D03*
X176099999Y-24830000D03*
%TD*%
%TO.C,C162*%
X157049999Y-23330000D03*
X157049999Y-24830000D03*
%TD*%
%TO.C,C150*%
X137999999Y-23330000D03*
X137999999Y-24830000D03*
%TD*%
%TO.C,C110*%
X118949999Y-23330000D03*
X118949999Y-24830000D03*
%TD*%
%TO.C,C103*%
X99899999Y-23330000D03*
X99899999Y-24830000D03*
%TD*%
D11*
%TO.C,R4*%
X16762500Y-26690000D03*
X16762500Y-27650000D03*
%TD*%
D10*
%TO.C,C104*%
X23699999Y-24830000D03*
X23699999Y-23330000D03*
%TD*%
%TO.C,C98*%
X80849999Y-23330000D03*
X80849999Y-24830000D03*
%TD*%
%TO.C,C62*%
X61799999Y-23330000D03*
X61799999Y-24830000D03*
%TD*%
%TO.C,C50*%
X42749999Y-24830000D03*
X42749999Y-23330000D03*
%TD*%
D12*
%TO.C,RGB1_A45*%
X283100000Y-99530000D03*
X283100000Y-101030000D03*
X288300000Y-99530000D03*
X288300000Y-101030000D03*
%TD*%
%TO.C,RGB1_A44*%
X264050000Y-99530000D03*
X264050000Y-101030000D03*
X269250000Y-99530000D03*
X269250000Y-101030000D03*
%TD*%
%TO.C,RGB1_A43*%
X302150000Y-99530000D03*
X302150000Y-101030000D03*
X307350000Y-99530000D03*
X307350000Y-101030000D03*
%TD*%
%TO.C,RGB1_A42*%
X231903125Y-99530000D03*
X231903125Y-101030000D03*
X237103125Y-99530000D03*
X237103125Y-101030000D03*
%TD*%
%TO.C,RGB1_A40*%
X214481251Y-100029999D03*
X214481249Y-98529999D03*
X209281250Y-100030000D03*
X209281250Y-98530000D03*
%TD*%
%TO.C,RGB1_A38*%
X149750000Y-99530000D03*
X149750000Y-101030000D03*
X154950000Y-99530000D03*
X154950000Y-101030000D03*
%TD*%
%TO.C,RGB1_A36*%
X137843750Y-99530000D03*
X137843750Y-101030000D03*
X143043750Y-99530000D03*
X143043750Y-101030000D03*
%TD*%
%TO.C,RGB1_A34*%
X67596875Y-99530000D03*
X67596875Y-101030000D03*
X72796875Y-99530000D03*
X72796875Y-101030000D03*
%TD*%
%TO.C,RGB1_A21*%
X43784375Y-99530000D03*
X43784375Y-101030000D03*
X48984375Y-99530000D03*
X48984375Y-101030000D03*
%TD*%
%TO.C,RGB1_A19*%
X25171875Y-101030000D03*
X25171875Y-99530000D03*
X19971875Y-101030000D03*
X19971875Y-99530000D03*
%TD*%
D13*
%TO.C,RGB1_B31*%
X307350000Y-81979999D03*
X307350000Y-80479999D03*
X302150000Y-81979999D03*
X302150000Y-80479999D03*
%TD*%
%TO.C,RGB1_B30*%
X140662500Y-81979999D03*
X140662500Y-80479999D03*
X135462500Y-81979999D03*
X135462500Y-80479999D03*
%TD*%
%TO.C,RGB1_B29*%
X159712500Y-81979999D03*
X159712500Y-80479999D03*
X154512500Y-81979999D03*
X154512500Y-80479999D03*
%TD*%
%TO.C,RGB1_B28*%
X121612500Y-81979999D03*
X121612500Y-80479999D03*
X116412500Y-81979999D03*
X116412500Y-80479999D03*
%TD*%
%TO.C,RGB1_B27*%
X178762500Y-81979999D03*
X178762500Y-80479999D03*
X173562500Y-81979999D03*
X173562500Y-80479999D03*
%TD*%
%TO.C,RGB1_B26*%
X102562500Y-81979999D03*
X102562500Y-80479999D03*
X97362500Y-81979999D03*
X97362500Y-80479999D03*
%TD*%
%TO.C,RGB1_B25*%
X197812500Y-81979999D03*
X197812500Y-80479999D03*
X192612500Y-81979999D03*
X192612500Y-80479999D03*
%TD*%
%TO.C,RGB1_B24*%
X83512500Y-81979999D03*
X83512500Y-80479999D03*
X78312500Y-81979999D03*
X78312500Y-80479999D03*
%TD*%
%TO.C,RGB1_B23*%
X216862500Y-81979999D03*
X216862500Y-80479999D03*
X211662500Y-81979999D03*
X211662500Y-80479999D03*
%TD*%
%TO.C,RGB1_B22*%
X64462500Y-81979999D03*
X64462500Y-80479999D03*
X59262500Y-81979999D03*
X59262500Y-80479999D03*
%TD*%
%TO.C,RGB1_B21*%
X235912500Y-81979999D03*
X235912500Y-80479999D03*
X230712500Y-81979999D03*
X230712500Y-80479999D03*
%TD*%
%TO.C,RGB1_B20*%
X45412500Y-81979999D03*
X45412500Y-80479999D03*
X40212500Y-81979999D03*
X40212500Y-80479999D03*
%TD*%
%TO.C,RGB1_B19*%
X262106250Y-81979999D03*
X262106250Y-80479999D03*
X256906250Y-81979999D03*
X256906250Y-80479999D03*
%TD*%
%TO.C,RGB1_B18*%
X33506250Y-81979999D03*
X33506250Y-80479999D03*
X28306250Y-81979999D03*
X28306250Y-80479999D03*
%TD*%
%TO.C,RGB1_B17*%
X288300000Y-81979999D03*
X288300000Y-80479999D03*
X283100000Y-81979999D03*
X283100000Y-80479999D03*
%TD*%
%TO.C,RGB1_B16*%
X23981250Y-81979999D03*
X23981250Y-80479999D03*
X18781250Y-81979999D03*
X18781250Y-80479999D03*
%TD*%
D12*
%TO.C,RGB1_A33*%
X183087500Y-61430000D03*
X183087500Y-62930000D03*
X188287500Y-61430000D03*
X188287500Y-62930000D03*
%TD*%
%TO.C,RGB1_A32*%
X164037500Y-61430000D03*
X164037500Y-62930000D03*
X169237500Y-61430000D03*
X169237500Y-62930000D03*
%TD*%
%TO.C,RGB1_A31*%
X202137500Y-61430000D03*
X202137500Y-62930000D03*
X207337500Y-61430000D03*
X207337500Y-62930000D03*
%TD*%
%TO.C,RGB1_A30*%
X144987500Y-61430000D03*
X144987500Y-62930000D03*
X150187500Y-61430000D03*
X150187500Y-62930000D03*
%TD*%
%TO.C,RGB1_A29*%
X221187500Y-61430000D03*
X221187500Y-62930000D03*
X226387500Y-61430000D03*
X226387500Y-62930000D03*
%TD*%
%TO.C,RGB1_A28*%
X125937500Y-61430000D03*
X125937500Y-62930000D03*
X131137500Y-61430000D03*
X131137500Y-62930000D03*
%TD*%
%TO.C,RGB1_A27*%
X240237500Y-61430000D03*
X240237500Y-62930000D03*
X245437500Y-61430000D03*
X245437500Y-62930000D03*
%TD*%
%TO.C,RGB1_A26*%
X106887500Y-61430000D03*
X106887500Y-62930000D03*
X112087500Y-61430000D03*
X112087500Y-62930000D03*
%TD*%
%TO.C,RGB1_A25*%
X271193750Y-61430000D03*
X271193750Y-62930000D03*
X276393750Y-61430000D03*
X276393750Y-62930000D03*
%TD*%
%TO.C,RGB1_A24*%
X87837500Y-61430000D03*
X87837500Y-62930000D03*
X93037500Y-61430000D03*
X93037500Y-62930000D03*
%TD*%
%TO.C,RGB1_A23*%
X302150000Y-61430000D03*
X302150000Y-62930000D03*
X307350000Y-61430000D03*
X307350000Y-62930000D03*
%TD*%
%TO.C,RGB1_A22*%
X68787500Y-61430000D03*
X68787500Y-62930000D03*
X73987500Y-61430000D03*
X73987500Y-62930000D03*
%TD*%
%TO.C,RGB1_A20*%
X49737500Y-61430000D03*
X49737500Y-62930000D03*
X54937500Y-61430000D03*
X54937500Y-62930000D03*
%TD*%
%TO.C,RGB1_A18*%
X23543750Y-61430000D03*
X23543750Y-62930000D03*
X28743750Y-61430000D03*
X28743750Y-62930000D03*
%TD*%
%TO.C,RGB1_A16*%
X16400000Y-23330000D03*
X16400000Y-24830000D03*
X21600000Y-23330000D03*
X21600000Y-24830000D03*
%TD*%
%TO.C,RGB1_A15*%
X283100000Y-23330000D03*
X283100000Y-24830000D03*
X288300000Y-23330000D03*
X288300000Y-24830000D03*
%TD*%
%TO.C,RGB1_A14*%
X273575000Y-23330000D03*
X273575000Y-24830000D03*
X278775000Y-23330000D03*
X278775000Y-24830000D03*
%TD*%
%TO.C,RGB1_A13*%
X264050000Y-23330000D03*
X264050000Y-24830000D03*
X269250000Y-23330000D03*
X269250000Y-24830000D03*
%TD*%
%TO.C,RGB1_A12*%
X245000000Y-23330000D03*
X245000000Y-24830000D03*
X250200000Y-23330000D03*
X250200000Y-24830000D03*
%TD*%
%TO.C,RGB1_A11*%
X225950000Y-23330000D03*
X225950000Y-24830000D03*
X231150000Y-23330000D03*
X231150000Y-24830000D03*
%TD*%
%TO.C,RGB1_A10*%
X206900000Y-23330000D03*
X206900000Y-24830000D03*
X212100000Y-23330000D03*
X212100000Y-24830000D03*
%TD*%
%TO.C,RGB1_A9*%
X187850000Y-23330000D03*
X187850000Y-24830000D03*
X193050000Y-23330000D03*
X193050000Y-24830000D03*
%TD*%
%TO.C,RGB1_A8*%
X168800000Y-23330000D03*
X168800000Y-24830000D03*
X174000000Y-23330000D03*
X174000000Y-24830000D03*
%TD*%
%TO.C,RGB1_A7*%
X149750000Y-23330000D03*
X149750000Y-24830000D03*
X154950000Y-23330000D03*
X154950000Y-24830000D03*
%TD*%
%TO.C,RGB1_A6*%
X130700000Y-23330000D03*
X130700000Y-24830000D03*
X135900000Y-23330000D03*
X135900000Y-24830000D03*
%TD*%
%TO.C,RGB1_A5*%
X111650000Y-23330000D03*
X111650000Y-24830000D03*
X116850000Y-23330000D03*
X116850000Y-24830000D03*
%TD*%
%TO.C,RGB1_A4*%
X92600000Y-23330000D03*
X92600000Y-24830000D03*
X97800000Y-23330000D03*
X97800000Y-24830000D03*
%TD*%
%TO.C,RGB1_A3*%
X73550000Y-23330000D03*
X73550000Y-24830000D03*
X78750000Y-23330000D03*
X78750000Y-24830000D03*
%TD*%
%TO.C,RGB1_A2*%
X54500000Y-23330000D03*
X54500000Y-24830000D03*
X59700000Y-23330000D03*
X59700000Y-24830000D03*
%TD*%
%TO.C,RGB1_A1*%
X35450000Y-23330000D03*
X35450000Y-24830000D03*
X40650000Y-23330000D03*
X40650000Y-24830000D03*
%TD*%
D13*
%TO.C,RGB1_B15*%
X21162500Y-42379999D03*
X21162500Y-43879999D03*
X26362500Y-42379999D03*
X26362500Y-43879999D03*
%TD*%
%TO.C,RGB1_B14*%
X44975000Y-42379999D03*
X44975000Y-43879999D03*
X50175000Y-42379999D03*
X50175000Y-43879999D03*
%TD*%
%TO.C,RGB1_B13*%
X64025000Y-42379999D03*
X64025000Y-43879999D03*
X69225000Y-42379999D03*
X69225000Y-43879999D03*
%TD*%
%TO.C,RGB1_B12*%
X83075000Y-42379999D03*
X83075000Y-43879999D03*
X88275000Y-42379999D03*
X88275000Y-43879999D03*
%TD*%
%TO.C,RGB1_B11*%
X102125000Y-42379999D03*
X102125000Y-43879999D03*
X107325000Y-42379999D03*
X107325000Y-43879999D03*
%TD*%
%TO.C,RGB1_B10*%
X121175000Y-42379999D03*
X121175000Y-43879999D03*
X126375000Y-42379999D03*
X126375000Y-43879999D03*
%TD*%
%TO.C,RGB1_B9*%
X140225000Y-42379999D03*
X140225000Y-43879999D03*
X145425000Y-42379999D03*
X145425000Y-43879999D03*
%TD*%
%TO.C,RGB1_B8*%
X159275000Y-42379999D03*
X159275000Y-43879999D03*
X164475000Y-42379999D03*
X164475000Y-43879999D03*
%TD*%
%TO.C,RGB1_B7*%
X178325000Y-42379999D03*
X178325000Y-43879999D03*
X183525000Y-42379999D03*
X183525000Y-43879999D03*
%TD*%
%TO.C,RGB1_B6*%
X197375000Y-42379999D03*
X197375000Y-43879999D03*
X202575000Y-42379999D03*
X202575000Y-43879999D03*
%TD*%
%TO.C,RGB1_B5*%
X216425000Y-42379999D03*
X216425000Y-43879999D03*
X221625000Y-42379999D03*
X221625000Y-43879999D03*
%TD*%
%TO.C,RGB1_B4*%
X235475000Y-42379999D03*
X235475000Y-43879999D03*
X240675000Y-42379999D03*
X240675000Y-43879999D03*
%TD*%
%TO.C,RGB1_B3*%
X254525000Y-42379999D03*
X254525000Y-43879999D03*
X259725000Y-42379999D03*
X259725000Y-43879999D03*
%TD*%
%TO.C,RGB1_B2*%
X278337500Y-42379999D03*
X278337500Y-43879999D03*
X283537500Y-42379999D03*
X283537500Y-43879999D03*
%TD*%
%TO.C,RGB1_B1*%
X302150000Y-42379999D03*
X302150000Y-43879999D03*
X307350000Y-42379999D03*
X307350000Y-43879999D03*
%TD*%
D14*
%TO.C,H11*%
X238075000Y-19000000D03*
%TD*%
%TO.C,H13*%
X233312500Y-57100000D03*
%TD*%
%TO.C,H16*%
X309512500Y-28525000D03*
%TD*%
%TO.C,H14*%
X58290625Y-95200000D03*
%TD*%
%TO.C,H10*%
X180925000Y-19000000D03*
%TD*%
%TO.C,H4*%
X99962500Y-57100000D03*
%TD*%
%TO.C,H18*%
X276175000Y-28525000D03*
%TD*%
%TO.C,H12*%
X14237500Y-28525000D03*
%TD*%
%TO.C,H8*%
X161875000Y-19000000D03*
%TD*%
%TO.C,H17*%
X295225000Y-95200000D03*
%TD*%
%TO.C,H9*%
X123775000Y-19000000D03*
%TD*%
%TO.C,H15*%
X221406250Y-95200000D03*
%TD*%
%TO.C,H5*%
X85675000Y-19000000D03*
%TD*%
%TO.C,H3*%
X66625000Y-19000000D03*
%TD*%
%TO.C,H7*%
X176162500Y-57100000D03*
%TD*%
D11*
%TO.C,C33*%
X54600000Y-17770000D03*
X54600000Y-18730000D03*
%TD*%
%TO.C,C73*%
X178662500Y-74920000D03*
X178662500Y-75880000D03*
%TD*%
%TO.C,C160*%
X283200000Y-93970000D03*
X283200000Y-94930000D03*
%TD*%
D15*
%TO.C,SW1*%
X49300000Y-54200000D03*
X49300000Y-50000000D03*
%TD*%
D11*
%TO.C,C60*%
X169137500Y-55870000D03*
X169137500Y-56830000D03*
%TD*%
D16*
%TO.C,C13*%
X41022535Y-56212445D03*
X41701357Y-55533623D03*
%TD*%
D17*
%TO.C,U25*%
X62812500Y-74995000D03*
X61862500Y-77345000D03*
X60912500Y-74995000D03*
D18*
X56782501Y-76150000D03*
X66942499Y-76150000D03*
%TD*%
D11*
%TO.C,C22*%
X40550000Y-17770000D03*
X40550000Y-18730000D03*
%TD*%
D17*
%TO.C,U23*%
X67575000Y-36895000D03*
X66625000Y-39245000D03*
X65675000Y-36895000D03*
D18*
X61545001Y-38050000D03*
X71704999Y-38050000D03*
%TD*%
D19*
%TO.C,U56*%
X217162500Y-51635938D03*
X217162500Y-50985938D03*
X217162500Y-50335938D03*
X217162500Y-49685938D03*
X217162500Y-49035938D03*
X217162500Y-48385938D03*
X217162500Y-47735938D03*
X217162500Y-47085938D03*
X211362500Y-47085938D03*
X211362500Y-47735938D03*
X211362500Y-48385938D03*
X211362500Y-49035938D03*
X211362500Y-49685938D03*
X211362500Y-50335938D03*
X211362500Y-50985938D03*
X211362500Y-51635938D03*
%TD*%
D11*
%TO.C,C125*%
X145087500Y-55870000D03*
X145087500Y-56830000D03*
%TD*%
%TO.C,C23*%
X50075000Y-36820000D03*
X50075000Y-37780000D03*
%TD*%
D20*
%TO.C,U63*%
X73000000Y-27784344D03*
D21*
X79300000Y-30084344D03*
D20*
X73000000Y-30084344D03*
X73000000Y-32384344D03*
%TD*%
D22*
%TO.C,TP3*%
X32600000Y-48334344D03*
%TD*%
D11*
%TO.C,C18*%
X28643750Y-55870000D03*
X28643750Y-56830000D03*
%TD*%
%TO.C,C123*%
X183187500Y-55870000D03*
X183187500Y-56830000D03*
%TD*%
%TO.C,C17*%
X26262500Y-36820000D03*
X26262500Y-37780000D03*
%TD*%
D17*
%TO.C,U30*%
X91387500Y-55945000D03*
X90437500Y-58295000D03*
X89487500Y-55945000D03*
D18*
X85357501Y-57100000D03*
X95517499Y-57100000D03*
%TD*%
D11*
%TO.C,C105*%
X197475000Y-36820000D03*
X197475000Y-37780000D03*
%TD*%
%TO.C,C99*%
X140325000Y-36820000D03*
X140325000Y-37780000D03*
%TD*%
%TO.C,R3*%
X29550000Y-17924656D03*
X29550000Y-18884656D03*
%TD*%
%TO.C,C122*%
X68887500Y-55870000D03*
X68887500Y-56830000D03*
%TD*%
%TO.C,C71*%
X202475000Y-36820000D03*
X202475000Y-37780000D03*
%TD*%
D23*
%TO.C,C3*%
X302878750Y-70785938D03*
X303838750Y-70785938D03*
%TD*%
D24*
%TO.C,Y1*%
X43200423Y-54600242D03*
X44048951Y-53751714D03*
X44897479Y-52903186D03*
%TD*%
D17*
%TO.C,U66*%
X205687500Y-55945000D03*
X204737500Y-58295000D03*
X203787500Y-55945000D03*
D18*
X199657501Y-57100000D03*
X209817499Y-57100000D03*
%TD*%
D11*
%TO.C,C44*%
X111750000Y-17770000D03*
X111750000Y-18730000D03*
%TD*%
%TO.C,C19*%
X23881250Y-74920000D03*
X23881250Y-75880000D03*
%TD*%
D23*
%TO.C,C5*%
X142382500Y-51635938D03*
X143342500Y-51635938D03*
%TD*%
D17*
%TO.C,U75*%
X22331250Y-74995000D03*
X21381250Y-77345000D03*
X20431250Y-74995000D03*
D18*
X16301250Y-76150000D03*
X26461250Y-76150000D03*
%TD*%
D11*
%TO.C,C24*%
X54837500Y-55870000D03*
X54837500Y-56830000D03*
%TD*%
D17*
%TO.C,U72*%
X224737500Y-55945000D03*
X223787500Y-58295000D03*
X222837500Y-55945000D03*
D18*
X218707501Y-57100000D03*
X228867499Y-57100000D03*
%TD*%
D11*
%TO.C,C117*%
X21262500Y-36820000D03*
X21262500Y-37780000D03*
%TD*%
%TO.C,C30*%
X73887500Y-55870000D03*
X73887500Y-56830000D03*
%TD*%
D17*
%TO.C,U79*%
X234262500Y-74995000D03*
X233312500Y-77345000D03*
X232362500Y-74995000D03*
D18*
X228232501Y-76150000D03*
X238392499Y-76150000D03*
%TD*%
D11*
%TO.C,C128*%
X87937500Y-55870000D03*
X87937500Y-56830000D03*
%TD*%
%TO.C,C56*%
X273675000Y-17770000D03*
X273675000Y-18730000D03*
%TD*%
D19*
%TO.C,U45*%
X140962500Y-51635938D03*
X140962500Y-50985938D03*
X140962500Y-50335938D03*
X140962500Y-49685938D03*
X140962500Y-49035938D03*
X140962500Y-48385938D03*
X140962500Y-47735938D03*
X140962500Y-47085938D03*
X135162500Y-47085938D03*
X135162500Y-47735938D03*
X135162500Y-48385938D03*
X135162500Y-49035938D03*
X135162500Y-49685938D03*
X135162500Y-50335938D03*
X135162500Y-50985938D03*
X135162500Y-51635938D03*
%TD*%
D11*
%TO.C,C35*%
X88175000Y-36820000D03*
X88175000Y-37780000D03*
%TD*%
%TO.C,C36*%
X92937500Y-55870000D03*
X92937500Y-56830000D03*
%TD*%
D17*
%TO.C,U55*%
X158062500Y-74995000D03*
X157112500Y-77345000D03*
X156162500Y-74995000D03*
D18*
X152032501Y-76150000D03*
X162192499Y-76150000D03*
%TD*%
D11*
%TO.C,C58*%
X154850000Y-17770000D03*
X154850000Y-18730000D03*
%TD*%
D17*
%TO.C,U82*%
X248550000Y-17845000D03*
X247600000Y-20195000D03*
X246650000Y-17845000D03*
D18*
X242520001Y-19000000D03*
X252679999Y-19000000D03*
%TD*%
D11*
%TO.C,C173*%
X288200000Y-93970000D03*
X288200000Y-94930000D03*
%TD*%
D17*
%TO.C,U77*%
X239025000Y-36895000D03*
X238075000Y-39245000D03*
X237125000Y-36895000D03*
D18*
X232995001Y-38050000D03*
X243154999Y-38050000D03*
%TD*%
D11*
%TO.C,C75*%
X264150000Y-17770000D03*
X264150000Y-18730000D03*
%TD*%
D23*
%TO.C,C171*%
X78157500Y-96050000D03*
X79117500Y-96050000D03*
%TD*%
D11*
%TO.C,C129*%
X106987500Y-55870000D03*
X106987500Y-56830000D03*
%TD*%
D23*
%TO.C,C176*%
X242463750Y-96050000D03*
X243423750Y-96050000D03*
%TD*%
D11*
%TO.C,C127*%
X49837500Y-55870000D03*
X49837500Y-56830000D03*
%TD*%
D17*
%TO.C,U58*%
X172350000Y-17845000D03*
X171400000Y-20195000D03*
X170450000Y-17845000D03*
D18*
X166320001Y-19000000D03*
X176479999Y-19000000D03*
%TD*%
D17*
%TO.C,U31*%
X81862500Y-74995000D03*
X80912500Y-77345000D03*
X79962500Y-74995000D03*
D18*
X75832501Y-76150000D03*
X85992499Y-76150000D03*
%TD*%
D17*
%TO.C,U89*%
X281887500Y-36895000D03*
X280937500Y-39245000D03*
X279987500Y-36895000D03*
D18*
X275857500Y-38050000D03*
X286017500Y-38050000D03*
%TD*%
D17*
%TO.C,U92*%
X267600000Y-94045000D03*
X266650000Y-96395000D03*
X265700000Y-94045000D03*
D18*
X261570001Y-95200000D03*
X271729999Y-95200000D03*
%TD*%
D17*
%TO.C,U37*%
X100912500Y-74995000D03*
X99962500Y-77345000D03*
X99012500Y-74995000D03*
D18*
X94882501Y-76150000D03*
X105042499Y-76150000D03*
%TD*%
D17*
%TO.C,U18*%
X53287500Y-55945000D03*
X52337500Y-58295000D03*
X51387500Y-55945000D03*
D18*
X47257501Y-57100000D03*
X57417499Y-57100000D03*
%TD*%
D11*
%TO.C,C66*%
X188187500Y-55870000D03*
X188187500Y-56830000D03*
%TD*%
%TO.C,C141*%
X78412500Y-74920000D03*
X78412500Y-75880000D03*
%TD*%
D17*
%TO.C,U65*%
X200925000Y-36895000D03*
X199975000Y-39245000D03*
X199025000Y-36895000D03*
D18*
X194895001Y-38050000D03*
X205054999Y-38050000D03*
%TD*%
D11*
%TO.C,C72*%
X207237500Y-55870000D03*
X207237500Y-56830000D03*
%TD*%
%TO.C,C41*%
X107225000Y-36820000D03*
X107225000Y-37780000D03*
%TD*%
%TO.C,C95*%
X283437500Y-36820000D03*
X283437500Y-37780000D03*
%TD*%
D17*
%TO.C,U10*%
X19950000Y-17845000D03*
X19000000Y-20195000D03*
X18050000Y-17845000D03*
D18*
X13920001Y-19000000D03*
X24079999Y-19000000D03*
%TD*%
D11*
%TO.C,C34*%
X78650000Y-17770000D03*
X78650000Y-18730000D03*
%TD*%
D23*
%TO.C,C155*%
X104282500Y-51635938D03*
X105242500Y-51635938D03*
%TD*%
%TO.C,C151*%
X251920000Y-51635938D03*
X252880000Y-51635938D03*
%TD*%
D25*
%TO.C,U26*%
X70161250Y-96150000D03*
X67811250Y-95200000D03*
X70161250Y-94250000D03*
D18*
X63926250Y-95200000D03*
X74086250Y-95200000D03*
%TD*%
D17*
%TO.C,U12*%
X27093750Y-55945000D03*
X26143750Y-58295000D03*
X25193750Y-55945000D03*
D18*
X21063750Y-57100000D03*
X31223750Y-57100000D03*
%TD*%
D11*
%TO.C,C28*%
X59600000Y-17770000D03*
X59600000Y-18730000D03*
%TD*%
D17*
%TO.C,U83*%
X258075000Y-36895000D03*
X257125000Y-39245000D03*
X256175000Y-36895000D03*
D18*
X252045001Y-38050000D03*
X262204999Y-38050000D03*
%TD*%
D11*
%TO.C,C140*%
X154612500Y-74920000D03*
X154612500Y-75880000D03*
%TD*%
D17*
%TO.C,U101*%
X305700000Y-36895000D03*
X304750000Y-39245000D03*
X303800000Y-36895000D03*
D18*
X299670001Y-38050000D03*
X309829999Y-38050000D03*
%TD*%
D17*
%TO.C,U33*%
X31856250Y-74995000D03*
X30906250Y-77345000D03*
X29956250Y-74995000D03*
D26*
X19000000Y-69165000D03*
D27*
X19000000Y-84405000D03*
D18*
X25826250Y-76150000D03*
X35986250Y-76150000D03*
D26*
X42812500Y-69165000D03*
D27*
X42812500Y-84405000D03*
%TD*%
D11*
%TO.C,C96*%
X121275000Y-36820000D03*
X121275000Y-37780000D03*
%TD*%
D28*
%TO.C,U27*%
X39240625Y-52337500D03*
D29*
X41644788Y-51913236D03*
X41361945Y-51630393D03*
X41079103Y-51347551D03*
X40796260Y-51064708D03*
X40513417Y-50781865D03*
X40230574Y-50499022D03*
X39947732Y-50216180D03*
X39664889Y-49933337D03*
D30*
X38816361Y-49933337D03*
X38533518Y-50216180D03*
X38250676Y-50499022D03*
X37967833Y-50781865D03*
X37684990Y-51064708D03*
X37402147Y-51347551D03*
X37119305Y-51630393D03*
X36836462Y-51913236D03*
D29*
X36836462Y-52761764D03*
X37119305Y-53044607D03*
X37402147Y-53327449D03*
X37684990Y-53610292D03*
X37967833Y-53893135D03*
X38250676Y-54175978D03*
X38533518Y-54458820D03*
X38816361Y-54741663D03*
D30*
X39664889Y-54741663D03*
X39947732Y-54458820D03*
X40230574Y-54175978D03*
X40513417Y-53893135D03*
X40796260Y-53610292D03*
X41079103Y-53327449D03*
X41361945Y-53044607D03*
X41644788Y-52761764D03*
%TD*%
D11*
%TO.C,C43*%
X83412500Y-74920000D03*
X83412500Y-75880000D03*
%TD*%
D23*
%TO.C,C2*%
X28082500Y-51635938D03*
X29042500Y-51635938D03*
%TD*%
D11*
%TO.C,C184*%
X307250000Y-36820000D03*
X307250000Y-37780000D03*
%TD*%
%TO.C,C93*%
X45075000Y-36820000D03*
X45075000Y-37780000D03*
%TD*%
%TO.C,C130*%
X23643750Y-55870000D03*
X23643750Y-56830000D03*
%TD*%
D23*
%TO.C,C14*%
X21242500Y-32496875D03*
X20282500Y-32496875D03*
%TD*%
D11*
%TO.C,C89*%
X259625000Y-36820000D03*
X259625000Y-37780000D03*
%TD*%
D17*
%TO.C,U104*%
X305700000Y-94045000D03*
X304750000Y-96395000D03*
X303800000Y-94045000D03*
D18*
X299670001Y-95200000D03*
X309829999Y-95200000D03*
%TD*%
D11*
%TO.C,C177*%
X154850000Y-93970000D03*
X154850000Y-94930000D03*
%TD*%
%TO.C,C63*%
X168900000Y-17770000D03*
X168900000Y-18730000D03*
%TD*%
%TO.C,C88*%
X250100000Y-17770000D03*
X250100000Y-18730000D03*
%TD*%
D19*
%TO.C,U51*%
X179062500Y-51635938D03*
X179062500Y-50985938D03*
X179062500Y-50335938D03*
X179062500Y-49685938D03*
X179062500Y-49035938D03*
X179062500Y-48385938D03*
X179062500Y-47735938D03*
X179062500Y-47085938D03*
X173262500Y-47085938D03*
X173262500Y-47735938D03*
X173262500Y-48385938D03*
X173262500Y-49035938D03*
X173262500Y-49685938D03*
X173262500Y-50335938D03*
X173262500Y-50985938D03*
X173262500Y-51635938D03*
%TD*%
D17*
%TO.C,U17*%
X48525000Y-36895000D03*
X47575000Y-39245000D03*
X46625000Y-36895000D03*
D18*
X42495001Y-38050000D03*
X52654999Y-38050000D03*
%TD*%
D23*
%TO.C,C4*%
X251920000Y-70785938D03*
X252880000Y-70785938D03*
%TD*%
D11*
%TO.C,C37*%
X64362500Y-74920000D03*
X64362500Y-75880000D03*
%TD*%
D22*
%TO.C,TP4*%
X39240625Y-47537500D03*
%TD*%
D17*
%TO.C,U102*%
X305700000Y-55945000D03*
X304750000Y-58295000D03*
X303800000Y-55945000D03*
D18*
X299670001Y-57100000D03*
X309829999Y-57100000D03*
%TD*%
D11*
%TO.C,C137*%
X211762500Y-74920000D03*
X211762500Y-75880000D03*
%TD*%
%TO.C,C168*%
X33406250Y-74920000D03*
X33406250Y-75880000D03*
%TD*%
D17*
%TO.C,U3*%
X277125000Y-17845000D03*
X276175000Y-20195000D03*
X275225000Y-17845000D03*
D26*
X264268750Y-12015000D03*
D27*
X264268750Y-27255000D03*
D18*
X271095000Y-19000000D03*
X281255000Y-19000000D03*
D26*
X288081250Y-12015000D03*
D27*
X288081250Y-27255000D03*
%TD*%
D11*
%TO.C,C113*%
X271293750Y-55870000D03*
X271293750Y-56830000D03*
%TD*%
D31*
%TO.C,C10*%
X37317295Y-49848484D03*
X36638473Y-49169662D03*
%TD*%
D19*
%TO.C,U62*%
X250500000Y-51635938D03*
X250500000Y-50985938D03*
X250500000Y-50335938D03*
X250500000Y-49685938D03*
X250500000Y-49035938D03*
X250500000Y-48385938D03*
X250500000Y-47735938D03*
X250500000Y-47085938D03*
X244700000Y-47085938D03*
X244700000Y-47735938D03*
X244700000Y-48385938D03*
X244700000Y-49035938D03*
X244700000Y-49685938D03*
X244700000Y-50335938D03*
X244700000Y-50985938D03*
X244700000Y-51635938D03*
%TD*%
D11*
%TO.C,C52*%
X135800000Y-17770000D03*
X135800000Y-18730000D03*
%TD*%
%TO.C,C51*%
X16500000Y-17770000D03*
X16500000Y-18730000D03*
%TD*%
%TO.C,C85*%
X216762500Y-74920000D03*
X216762500Y-75880000D03*
%TD*%
%TO.C,C31*%
X45312500Y-74920000D03*
X45312500Y-75880000D03*
%TD*%
%TO.C,C124*%
X164137500Y-55870000D03*
X164137500Y-56830000D03*
%TD*%
%TO.C,C118*%
X302250000Y-55870000D03*
X302250000Y-56830000D03*
%TD*%
D17*
%TO.C,U34*%
X96150000Y-17845000D03*
X95200000Y-20195000D03*
X94250000Y-17845000D03*
D18*
X90120001Y-19000000D03*
X100279999Y-19000000D03*
%TD*%
D17*
%TO.C,U35*%
X105675000Y-36895000D03*
X104725000Y-39245000D03*
X103775000Y-36895000D03*
D18*
X99645001Y-38050000D03*
X109804999Y-38050000D03*
%TD*%
D11*
%TO.C,C53*%
X145325000Y-36820000D03*
X145325000Y-37780000D03*
%TD*%
%TO.C,C80*%
X245100000Y-17770000D03*
X245100000Y-18730000D03*
%TD*%
%TO.C,C107*%
X262006250Y-74920000D03*
X262006250Y-75880000D03*
%TD*%
%TO.C,C139*%
X173662500Y-74920000D03*
X173662500Y-75880000D03*
%TD*%
D23*
%TO.C,C6*%
X66182500Y-51635938D03*
X67142500Y-51635938D03*
%TD*%
D11*
%TO.C,C7*%
X26362500Y-29576875D03*
X26362500Y-28616875D03*
%TD*%
%TO.C,C143*%
X116512500Y-74920000D03*
X116512500Y-75880000D03*
%TD*%
%TO.C,C111*%
X216525000Y-36820000D03*
X216525000Y-37780000D03*
%TD*%
D25*
%TO.C,U6*%
X72542500Y-96150000D03*
X70192500Y-95200000D03*
X72542500Y-94250000D03*
D18*
X66307500Y-95200000D03*
X76467500Y-95200000D03*
%TD*%
D11*
%TO.C,C76*%
X212000000Y-17770000D03*
X212000000Y-18730000D03*
%TD*%
D32*
%TO.C,U85*%
X23762500Y-32096875D03*
D33*
X22762500Y-33496875D03*
X23262500Y-33496875D03*
X23762500Y-33496875D03*
X24262500Y-33496875D03*
X24762500Y-33496875D03*
X24762500Y-30696875D03*
X24262500Y-30696875D03*
X23762500Y-30696875D03*
X23262500Y-30696875D03*
X22762500Y-30696875D03*
%TD*%
D23*
%TO.C,C169*%
X30532500Y-96050000D03*
X31492500Y-96050000D03*
%TD*%
D11*
%TO.C,C45*%
X130800000Y-17770000D03*
X130800000Y-18730000D03*
%TD*%
%TO.C,C67*%
X159612500Y-74920000D03*
X159612500Y-75880000D03*
%TD*%
%TO.C,C109*%
X307250000Y-74920000D03*
X307250000Y-75880000D03*
%TD*%
%TO.C,C133*%
X59362500Y-74920000D03*
X59362500Y-75880000D03*
%TD*%
D19*
%TO.C,U74*%
X301458750Y-70785938D03*
X301458750Y-70135938D03*
X301458750Y-69485938D03*
X301458750Y-68835938D03*
X301458750Y-68185938D03*
X301458750Y-67535938D03*
X301458750Y-66885938D03*
X301458750Y-66235938D03*
X295658750Y-66235938D03*
X295658750Y-66885938D03*
X295658750Y-67535938D03*
X295658750Y-68185938D03*
X295658750Y-68835938D03*
X295658750Y-69485938D03*
X295658750Y-70135938D03*
X295658750Y-70785938D03*
%TD*%
D11*
%TO.C,C29*%
X69125000Y-36820000D03*
X69125000Y-37780000D03*
%TD*%
D17*
%TO.C,U36*%
X110437500Y-55945000D03*
X109487500Y-58295000D03*
X108537500Y-55945000D03*
D18*
X104407501Y-57100000D03*
X114567499Y-57100000D03*
%TD*%
D17*
%TO.C,U70*%
X210450000Y-17845000D03*
X209500000Y-20195000D03*
X208550000Y-17845000D03*
D18*
X204420001Y-19000000D03*
X214579999Y-19000000D03*
%TD*%
D25*
%TO.C,U8*%
X234467500Y-96150000D03*
X232117500Y-95200000D03*
X234467500Y-94250000D03*
D18*
X228232500Y-95200000D03*
X238392500Y-95200000D03*
%TD*%
D11*
%TO.C,C86*%
X302250000Y-17770000D03*
X302250000Y-18730000D03*
%TD*%
D17*
%TO.C,U43*%
X119962500Y-74995000D03*
X119012500Y-77345000D03*
X118062500Y-74995000D03*
D18*
X113932501Y-76150000D03*
X124092499Y-76150000D03*
%TD*%
D17*
%TO.C,U15*%
X212831250Y-94045000D03*
X211881250Y-96395000D03*
X210931250Y-94045000D03*
D18*
X206801250Y-95200000D03*
X216961250Y-95200000D03*
%TD*%
D11*
%TO.C,R2*%
X26799999Y-17924656D03*
X26799999Y-18884656D03*
%TD*%
%TO.C,C79*%
X197712500Y-74920000D03*
X197712500Y-75880000D03*
%TD*%
D17*
%TO.C,U103*%
X305700000Y-74995000D03*
X304750000Y-77345000D03*
X303800000Y-74995000D03*
D18*
X299670001Y-76150000D03*
X309829999Y-76150000D03*
%TD*%
D17*
%TO.C,U52*%
X153300000Y-17845000D03*
X152350000Y-20195000D03*
X151400000Y-17845000D03*
D18*
X147270001Y-19000000D03*
X157429999Y-19000000D03*
%TD*%
D17*
%TO.C,U97*%
X286650000Y-74995000D03*
X285700000Y-77345000D03*
X284750000Y-74995000D03*
D18*
X280620001Y-76150000D03*
X290779999Y-76150000D03*
%TD*%
D17*
%TO.C,U22*%
X58050000Y-17845000D03*
X57100000Y-20195000D03*
X56150000Y-17845000D03*
D18*
X52020001Y-19000000D03*
X62179999Y-19000000D03*
%TD*%
D11*
%TO.C,C97*%
X235812500Y-74920000D03*
X235812500Y-75880000D03*
%TD*%
D25*
%TO.C,U5*%
X48730000Y-96150000D03*
X46380000Y-95200000D03*
X48730000Y-94250000D03*
D18*
X42495000Y-95200000D03*
X52655000Y-95200000D03*
%TD*%
D17*
%TO.C,U67*%
X196162500Y-74995000D03*
X195212500Y-77345000D03*
X194262500Y-74995000D03*
D18*
X190132501Y-76150000D03*
X200292499Y-76150000D03*
%TD*%
D11*
%TO.C,C126*%
X126037500Y-55870000D03*
X126037500Y-56830000D03*
%TD*%
D17*
%TO.C,U54*%
X167587500Y-55945000D03*
X166637500Y-58295000D03*
X165687500Y-55945000D03*
D18*
X161557501Y-57100000D03*
X171717499Y-57100000D03*
%TD*%
D17*
%TO.C,U53*%
X162825000Y-36895000D03*
X161875000Y-39245000D03*
X160925000Y-36895000D03*
D18*
X156795001Y-38050000D03*
X166954999Y-38050000D03*
%TD*%
D11*
%TO.C,C64*%
X173900000Y-17770000D03*
X173900000Y-18730000D03*
%TD*%
D17*
%TO.C,U29*%
X86625000Y-36895000D03*
X85675000Y-39245000D03*
X84725000Y-36895000D03*
D18*
X80595001Y-38050000D03*
X90754999Y-38050000D03*
%TD*%
D11*
%TO.C,C49*%
X102462500Y-74920000D03*
X102462500Y-75880000D03*
%TD*%
%TO.C,C82*%
X231050000Y-17770000D03*
X231050000Y-18730000D03*
%TD*%
%TO.C,C138*%
X192712500Y-74920000D03*
X192712500Y-75880000D03*
%TD*%
D34*
%TO.C,J2*%
X32638610Y-31584344D03*
X32638611Y-30584344D03*
X32638611Y-29584344D03*
X32638610Y-28584344D03*
D35*
X36513610Y-32884344D03*
X36513610Y-27284344D03*
%TD*%
D25*
%TO.C,U14*%
X22536250Y-96150000D03*
X20186250Y-95200000D03*
X22536250Y-94250000D03*
D18*
X16301250Y-95200000D03*
X26461250Y-95200000D03*
%TD*%
D11*
%TO.C,C55*%
X121512500Y-74920000D03*
X121512500Y-75880000D03*
%TD*%
%TO.C,C116*%
X302250000Y-36820000D03*
X302250000Y-37780000D03*
%TD*%
%TO.C,C38*%
X73650000Y-17770000D03*
X73650000Y-18730000D03*
%TD*%
D17*
%TO.C,U40*%
X115200000Y-17845000D03*
X114250000Y-20195000D03*
X113300000Y-17845000D03*
D18*
X109170001Y-19000000D03*
X119329999Y-19000000D03*
%TD*%
D23*
%TO.C,C158*%
X230792500Y-93450000D03*
X229832500Y-93450000D03*
%TD*%
D36*
%TO.C,R35*%
X34941416Y-50866718D03*
X35620238Y-51545540D03*
%TD*%
D11*
%TO.C,C46*%
X116750000Y-17770000D03*
X116750000Y-18730000D03*
%TD*%
%TO.C,C69*%
X207000000Y-17770000D03*
X207000000Y-18730000D03*
%TD*%
D23*
%TO.C,C149*%
X66486250Y-93450000D03*
X65526250Y-93450000D03*
%TD*%
%TO.C,C1*%
X21270000Y-16500001D03*
X22230000Y-16500001D03*
%TD*%
D11*
%TO.C,C74*%
X226050000Y-17770000D03*
X226050000Y-18730000D03*
%TD*%
D19*
%TO.C,U2*%
X26662500Y-51635938D03*
X26662500Y-50985938D03*
X26662500Y-50335938D03*
X26662500Y-49685938D03*
X26662500Y-49035938D03*
X26662500Y-48385938D03*
X26662500Y-47735938D03*
X26662500Y-47085938D03*
X20862500Y-47085938D03*
X20862500Y-47735938D03*
X20862500Y-48385938D03*
X20862500Y-49035938D03*
X20862500Y-49685938D03*
X20862500Y-50335938D03*
X20862500Y-50985938D03*
X20862500Y-51635938D03*
%TD*%
D11*
%TO.C,C163*%
X149850000Y-93970000D03*
X149850000Y-94930000D03*
%TD*%
%TO.C,C32*%
X54700000Y-31764344D03*
X54700000Y-30804344D03*
%TD*%
D17*
%TO.C,U47*%
X143775000Y-36895000D03*
X142825000Y-39245000D03*
X141875000Y-36895000D03*
D18*
X137745001Y-38050000D03*
X147904999Y-38050000D03*
%TD*%
D11*
%TO.C,C112*%
X235575000Y-36820000D03*
X235575000Y-37780000D03*
%TD*%
%TO.C,C68*%
X187950000Y-17770000D03*
X187950000Y-18730000D03*
%TD*%
%TO.C,C27*%
X35550000Y-17770000D03*
X35550000Y-18730000D03*
%TD*%
D23*
%TO.C,R1*%
X21270000Y-15500001D03*
X22230000Y-15500001D03*
%TD*%
D17*
%TO.C,U71*%
X219975000Y-36895000D03*
X219025000Y-39245000D03*
X218075000Y-36895000D03*
D18*
X213945001Y-38050000D03*
X224104999Y-38050000D03*
%TD*%
D11*
%TO.C,C94*%
X269150000Y-17770000D03*
X269150000Y-18730000D03*
%TD*%
%TO.C,C15*%
X278675000Y-17770000D03*
X278675000Y-18730000D03*
%TD*%
D37*
%TO.C,L1*%
X22512500Y-28696875D03*
X25012500Y-28696875D03*
%TD*%
D11*
%TO.C,C142*%
X97462500Y-74920000D03*
X97462500Y-75880000D03*
%TD*%
D23*
%TO.C,C20*%
X21242500Y-31496875D03*
X20282500Y-31496875D03*
%TD*%
D17*
%TO.C,U80*%
X43762500Y-74995000D03*
X42812500Y-77345000D03*
X41862500Y-74995000D03*
D18*
X37732501Y-76150000D03*
X47892499Y-76150000D03*
%TD*%
D38*
%TO.C,USB1*%
X32370000Y-15599000D03*
D39*
X32370000Y-11419000D03*
D38*
X23730000Y-15599000D03*
D39*
X23730000Y-11419000D03*
D40*
X31275000Y-16514000D03*
X30500000Y-16514000D03*
D41*
X29800000Y-16514000D03*
X29300000Y-16514000D03*
X28800000Y-16514000D03*
X28300000Y-16514000D03*
X27800000Y-16514000D03*
X27300000Y-16514000D03*
X26800000Y-16514000D03*
X26300000Y-16514000D03*
D40*
X25600000Y-16514000D03*
X24825000Y-16514000D03*
D42*
X30940000Y-15069000D03*
X25160000Y-15069000D03*
%TD*%
D11*
%TO.C,C90*%
X276293750Y-55870000D03*
X276293750Y-56830000D03*
%TD*%
%TO.C,C114*%
X254625000Y-36820000D03*
X254625000Y-37780000D03*
%TD*%
D17*
%TO.C,U100*%
X305700000Y-17845000D03*
X304750000Y-20195000D03*
X303800000Y-17845000D03*
D18*
X299670001Y-19000000D03*
X309829999Y-19000000D03*
%TD*%
D43*
%TO.C,U19*%
X56150000Y-31221844D03*
X58050000Y-31221844D03*
X58050000Y-28946844D03*
X57100000Y-28946844D03*
X56150000Y-28946844D03*
%TD*%
D17*
%TO.C,U28*%
X77100000Y-17845000D03*
X76150000Y-20195000D03*
X75200000Y-17845000D03*
D18*
X71070001Y-19000000D03*
X81229999Y-19000000D03*
%TD*%
D11*
%TO.C,C172*%
X269150000Y-93970000D03*
X269150000Y-94930000D03*
%TD*%
%TO.C,C92*%
X102225000Y-36820000D03*
X102225000Y-37780000D03*
%TD*%
%TO.C,C101*%
X159375000Y-36820000D03*
X159375000Y-37780000D03*
%TD*%
D17*
%TO.C,U94*%
X286650000Y-17845000D03*
X285700000Y-20195000D03*
X284750000Y-17845000D03*
D18*
X280620001Y-19000000D03*
X290779999Y-19000000D03*
%TD*%
D17*
%TO.C,U42*%
X129487500Y-55945000D03*
X128537500Y-58295000D03*
X127587500Y-55945000D03*
D18*
X123457501Y-57100000D03*
X133617499Y-57100000D03*
%TD*%
D11*
%TO.C,C59*%
X164375000Y-36820000D03*
X164375000Y-37780000D03*
%TD*%
D19*
%TO.C,U38*%
X102862500Y-51635938D03*
X102862500Y-50985938D03*
X102862500Y-50335938D03*
X102862500Y-49685938D03*
X102862500Y-49035938D03*
X102862500Y-48385938D03*
X102862500Y-47735938D03*
X102862500Y-47085938D03*
X97062500Y-47085938D03*
X97062500Y-47735938D03*
X97062500Y-48385938D03*
X97062500Y-49035938D03*
X97062500Y-49685938D03*
X97062500Y-50335938D03*
X97062500Y-50985938D03*
X97062500Y-51635938D03*
%TD*%
D25*
%TO.C,U4*%
X24917500Y-96150000D03*
X22567500Y-95200000D03*
X24917500Y-94250000D03*
D18*
X18682500Y-95200000D03*
X28842500Y-95200000D03*
%TD*%
D17*
%TO.C,U91*%
X260456250Y-74995000D03*
X259506250Y-77345000D03*
X258556250Y-74995000D03*
D18*
X254426250Y-76150000D03*
X264586250Y-76150000D03*
%TD*%
D17*
%TO.C,U11*%
X24712500Y-36895000D03*
X23762500Y-39245000D03*
X22812500Y-36895000D03*
D18*
X18682500Y-38050000D03*
X28842500Y-38050000D03*
%TD*%
D11*
%TO.C,C40*%
X97700000Y-17770000D03*
X97700000Y-18730000D03*
%TD*%
%TO.C,C132*%
X18881250Y-74920000D03*
X18881250Y-75880000D03*
%TD*%
D22*
%TO.C,TP1*%
X35240625Y-44537500D03*
%TD*%
D11*
%TO.C,C108*%
X288200000Y-74920000D03*
X288200000Y-75880000D03*
%TD*%
%TO.C,C78*%
X226287500Y-55870000D03*
X226287500Y-56830000D03*
%TD*%
%TO.C,C100*%
X288200000Y-17770000D03*
X288200000Y-18730000D03*
%TD*%
%TO.C,C144*%
X135562500Y-74920000D03*
X135562500Y-75880000D03*
%TD*%
D19*
%TO.C,U32*%
X64762500Y-51635938D03*
X64762500Y-50985938D03*
X64762500Y-50335938D03*
X64762500Y-49685938D03*
X64762500Y-49035938D03*
X64762500Y-48385938D03*
X64762500Y-47735938D03*
X64762500Y-47085938D03*
X58962500Y-47085938D03*
X58962500Y-47735938D03*
X58962500Y-48385938D03*
X58962500Y-49035938D03*
X58962500Y-49685938D03*
X58962500Y-50335938D03*
X58962500Y-50985938D03*
X58962500Y-51635938D03*
%TD*%
D17*
%TO.C,U73*%
X215212500Y-74995000D03*
X214262500Y-77345000D03*
X213312500Y-74995000D03*
D18*
X209182501Y-76150000D03*
X219342499Y-76150000D03*
%TD*%
D17*
%TO.C,U84*%
X274743750Y-55945000D03*
X273793750Y-58295000D03*
X272843750Y-55945000D03*
D27*
X261887499Y-48845000D03*
D26*
X261887500Y-64085000D03*
D18*
X268713751Y-57100000D03*
X278873749Y-57100000D03*
D26*
X285700000Y-64085000D03*
D27*
X285700001Y-48845000D03*
%TD*%
D17*
%TO.C,U41*%
X124725000Y-36895000D03*
X123775000Y-39245000D03*
X122825000Y-36895000D03*
D18*
X118695001Y-38050000D03*
X128854999Y-38050000D03*
%TD*%
D17*
%TO.C,U48*%
X148537500Y-55945000D03*
X147587500Y-58295000D03*
X146637500Y-55945000D03*
D18*
X142507501Y-57100000D03*
X152667499Y-57100000D03*
%TD*%
D11*
%TO.C,C57*%
X149850000Y-17770000D03*
X149850000Y-18730000D03*
%TD*%
%TO.C,C65*%
X183425000Y-36820000D03*
X183425000Y-37780000D03*
%TD*%
D17*
%TO.C,U60*%
X186637500Y-55945000D03*
X185687500Y-58295000D03*
X184737500Y-55945000D03*
D18*
X180607501Y-57100000D03*
X190767499Y-57100000D03*
%TD*%
D23*
%TO.C,C147*%
X18861250Y-93450000D03*
X17901250Y-93450000D03*
%TD*%
D11*
%TO.C,C174*%
X307250000Y-93970000D03*
X307250000Y-94930000D03*
%TD*%
D23*
%TO.C,C170*%
X54345000Y-96050000D03*
X55305000Y-96050000D03*
%TD*%
D11*
%TO.C,C25*%
X70950000Y-30004344D03*
X70950000Y-30964344D03*
%TD*%
D17*
%TO.C,U64*%
X191400000Y-17845000D03*
X190450000Y-20195000D03*
X189500000Y-17845000D03*
D18*
X185370001Y-19000000D03*
X195529999Y-19000000D03*
%TD*%
D23*
%TO.C,C154*%
X180482500Y-51635938D03*
X181442500Y-51635938D03*
%TD*%
D17*
%TO.C,U7*%
X153300000Y-94045000D03*
X152350000Y-96395000D03*
X151400000Y-94045000D03*
D27*
X95200000Y-86945000D03*
D26*
X95200000Y-102185000D03*
D18*
X147270000Y-95200000D03*
X157430000Y-95200000D03*
D27*
X209500000Y-86945000D03*
D26*
X209500000Y-102185000D03*
%TD*%
D17*
%TO.C,U59*%
X181875000Y-36895000D03*
X180925000Y-39245000D03*
X179975000Y-36895000D03*
D18*
X175845001Y-38050000D03*
X186004999Y-38050000D03*
%TD*%
D11*
%TO.C,C70*%
X192950000Y-17770000D03*
X192950000Y-18730000D03*
%TD*%
%TO.C,C119*%
X240337500Y-55870000D03*
X240337500Y-56830000D03*
%TD*%
D19*
%TO.C,U69*%
X250500000Y-70785938D03*
X250500000Y-70135938D03*
X250500000Y-69485938D03*
X250500000Y-68835938D03*
X250500000Y-68185938D03*
X250500000Y-67535938D03*
X250500000Y-66885938D03*
X250500000Y-66235938D03*
X244700000Y-66235938D03*
X244700000Y-66885938D03*
X244700000Y-67535938D03*
X244700000Y-68185938D03*
X244700000Y-68835938D03*
X244700000Y-69485938D03*
X244700000Y-70135938D03*
X244700000Y-70785938D03*
%TD*%
D17*
%TO.C,U78*%
X243787500Y-55945000D03*
X242837500Y-58295000D03*
X241887500Y-55945000D03*
D18*
X237757501Y-57100000D03*
X247917499Y-57100000D03*
%TD*%
D11*
%TO.C,C131*%
X28406250Y-74920000D03*
X28406250Y-75880000D03*
%TD*%
D16*
%TO.C,C11*%
X41714613Y-56904524D03*
X42393435Y-56225702D03*
%TD*%
D17*
%TO.C,U16*%
X39000000Y-17845000D03*
X38050000Y-20195000D03*
X37100000Y-17845000D03*
D18*
X32970001Y-19000000D03*
X43129999Y-19000000D03*
%TD*%
D11*
%TO.C,C77*%
X221525000Y-36820000D03*
X221525000Y-37780000D03*
%TD*%
%TO.C,C157*%
X209381250Y-93970000D03*
X209381250Y-94930000D03*
%TD*%
%TO.C,C16*%
X21500000Y-17770000D03*
X21500000Y-18730000D03*
%TD*%
%TO.C,C83*%
X240575000Y-36820000D03*
X240575000Y-37780000D03*
%TD*%
D44*
%TO.C,R113*%
X26362500Y-31606875D03*
X26362500Y-30586875D03*
%TD*%
D11*
%TO.C,C87*%
X64125000Y-36820000D03*
X64125000Y-37780000D03*
%TD*%
%TO.C,C106*%
X307250000Y-17770000D03*
X307250000Y-18730000D03*
%TD*%
%TO.C,C39*%
X92700000Y-17770000D03*
X92700000Y-18730000D03*
%TD*%
%TO.C,C146*%
X40312500Y-74920000D03*
X40312500Y-75880000D03*
%TD*%
%TO.C,C26*%
X54700000Y-28404344D03*
X54700000Y-29364344D03*
%TD*%
%TO.C,C54*%
X150087500Y-55870000D03*
X150087500Y-56830000D03*
%TD*%
%TO.C,C136*%
X230812500Y-74920000D03*
X230812500Y-75880000D03*
%TD*%
%TO.C,C102*%
X178425000Y-36820000D03*
X178425000Y-37780000D03*
%TD*%
%TO.C,C47*%
X126275000Y-36820000D03*
X126275000Y-37780000D03*
%TD*%
%TO.C,C153*%
X137943750Y-93970000D03*
X137943750Y-94930000D03*
%TD*%
%TO.C,C185*%
X307250000Y-55870000D03*
X307250000Y-56830000D03*
%TD*%
D45*
%TO.C,C165*%
X26362500Y-32616875D03*
X26362500Y-33576875D03*
%TD*%
D17*
%TO.C,U88*%
X267600000Y-17845000D03*
X266650000Y-20195000D03*
X265700000Y-17845000D03*
D18*
X261570001Y-19000000D03*
X271729999Y-19000000D03*
%TD*%
D46*
%TO.C,JP1*%
X40425000Y-35050000D03*
D47*
X40425000Y-33750000D03*
%TD*%
D17*
%TO.C,U49*%
X139012500Y-74995000D03*
X138062500Y-77345000D03*
X137112500Y-74995000D03*
D18*
X132982501Y-76150000D03*
X143142499Y-76150000D03*
%TD*%
D25*
%TO.C,U20*%
X46348750Y-96150000D03*
X43998750Y-95200000D03*
X46348750Y-94250000D03*
D18*
X40113750Y-95200000D03*
X50273750Y-95200000D03*
%TD*%
D11*
%TO.C,C134*%
X257006250Y-74920000D03*
X257006250Y-75880000D03*
%TD*%
D23*
%TO.C,C152*%
X218582500Y-51635938D03*
X219542500Y-51635938D03*
%TD*%
D17*
%TO.C,U61*%
X177112500Y-74995000D03*
X176162500Y-77345000D03*
X175212500Y-74995000D03*
D18*
X171082501Y-76150000D03*
X181242499Y-76150000D03*
%TD*%
D17*
%TO.C,U44*%
X141393750Y-94045000D03*
X140443750Y-96395000D03*
X139493750Y-94045000D03*
D27*
X90443850Y-86945000D03*
D26*
X90443850Y-102185000D03*
D18*
X135363750Y-95200000D03*
X145523750Y-95200000D03*
D27*
X190443650Y-86945000D03*
D26*
X190443650Y-102185000D03*
%TD*%
D11*
%TO.C,C81*%
X283200000Y-17770000D03*
X283200000Y-18730000D03*
%TD*%
D17*
%TO.C,U46*%
X134250000Y-17845000D03*
X133300000Y-20195000D03*
X132350000Y-17845000D03*
D18*
X128220001Y-19000000D03*
X138379999Y-19000000D03*
%TD*%
D16*
%TO.C,C9*%
X42719591Y-51404119D03*
X43398413Y-50725297D03*
%TD*%
D17*
%TO.C,U76*%
X229500000Y-17845000D03*
X228550000Y-20195000D03*
X227600000Y-17845000D03*
D18*
X223470001Y-19000000D03*
X233629999Y-19000000D03*
%TD*%
D48*
%TO.C,JP2*%
X21000000Y-35000000D03*
D49*
X19700000Y-35000000D03*
%TD*%
D17*
%TO.C,U98*%
X286650000Y-94045000D03*
X285700000Y-96395000D03*
X284750000Y-94045000D03*
D18*
X280620001Y-95200000D03*
X290779999Y-95200000D03*
%TD*%
D23*
%TO.C,C148*%
X42673750Y-93450000D03*
X41713750Y-93450000D03*
%TD*%
D11*
%TO.C,C91*%
X83175000Y-36820000D03*
X83175000Y-37780000D03*
%TD*%
%TO.C,C159*%
X264150000Y-93970000D03*
X264150000Y-94930000D03*
%TD*%
D25*
%TO.C,U21*%
X236848750Y-96150000D03*
X234498750Y-95200000D03*
X236848750Y-94250000D03*
D18*
X230613750Y-95200000D03*
X240773750Y-95200000D03*
%TD*%
D11*
%TO.C,C178*%
X142943750Y-93970000D03*
X142943750Y-94930000D03*
%TD*%
%TO.C,C175*%
X214381250Y-93970000D03*
X214381250Y-94930000D03*
%TD*%
%TO.C,C121*%
X202237500Y-55870000D03*
X202237500Y-56830000D03*
%TD*%
D22*
%TO.C,TP2*%
X39240625Y-44537500D03*
%TD*%
D11*
%TO.C,C61*%
X140562500Y-74920000D03*
X140562500Y-75880000D03*
%TD*%
D50*
%TO.C,F1*%
X29750000Y-20819000D03*
X27350000Y-20819000D03*
%TD*%
D11*
%TO.C,C84*%
X245337500Y-55870000D03*
X245337500Y-56830000D03*
%TD*%
D36*
%TO.C,R30*%
X34234310Y-51573825D03*
X34913132Y-52252647D03*
%TD*%
D11*
%TO.C,C145*%
X302250000Y-74920000D03*
X302250000Y-75880000D03*
%TD*%
D31*
%TO.C,C8*%
X35939411Y-48439411D03*
X35260589Y-47760589D03*
%TD*%
D11*
%TO.C,C161*%
X302250000Y-93970000D03*
X302250000Y-94930000D03*
%TD*%
D17*
%TO.C,U24*%
X72337500Y-55945000D03*
X71387500Y-58295000D03*
X70437500Y-55945000D03*
D18*
X66307501Y-57100000D03*
X76467499Y-57100000D03*
%TD*%
D11*
%TO.C,C135*%
X283200000Y-74920000D03*
X283200000Y-75880000D03*
%TD*%
%TO.C,C42*%
X111987500Y-55870000D03*
X111987500Y-56830000D03*
%TD*%
%TO.C,C48*%
X131037500Y-55870000D03*
X131037500Y-56830000D03*
%TD*%
%TO.C,C21*%
X70950000Y-27764344D03*
X70950000Y-26804344D03*
%TD*%
%TO.C,C120*%
X221287500Y-55870000D03*
X221287500Y-56830000D03*
%TD*%
%TO.C,C115*%
X278437500Y-36820000D03*
X278437500Y-37780000D03*
%TD*%
D12*
%TO.C,RGB1_A17*%
X302150000Y-23330000D03*
X302150000Y-24830000D03*
X307350000Y-23330000D03*
X307350000Y-24830000D03*
%TD*%
M02*
