%TF.GenerationSoftware,KiCad,Pcbnew,8.0.6*%
%TF.CreationDate,2024-11-15T04:32:27+07:00*%
%TF.ProjectId,Heart HE 65,48656172-7420-4484-9520-36352e6b6963,rev?*%
%TF.SameCoordinates,Original*%
%TF.FileFunction,Soldermask,Top*%
%TF.FilePolarity,Negative*%
%FSLAX46Y46*%
G04 Gerber Fmt 4.6, Leading zero omitted, Abs format (unit mm)*
G04 Created by KiCad (PCBNEW 8.0.6) date 2024-11-15 04:32:27*
%MOMM*%
%LPD*%
G01*
G04 APERTURE LIST*
%ADD10C,3.800000*%
%ADD11C,1.750000*%
%ADD12C,3.048000*%
%ADD13C,3.987800*%
%ADD14O,1.000000X2.100000*%
%ADD15O,1.000000X1.600000*%
%ADD16C,0.650000*%
G04 APERTURE END LIST*
D10*
%TO.C,H11*%
X238075000Y-19000000D03*
%TD*%
%TO.C,H13*%
X233312500Y-57100000D03*
%TD*%
%TO.C,H16*%
X309512500Y-28525000D03*
%TD*%
%TO.C,H14*%
X58290625Y-95200000D03*
%TD*%
%TO.C,H10*%
X180925000Y-19000000D03*
%TD*%
%TO.C,H4*%
X99962500Y-57100000D03*
%TD*%
%TO.C,H18*%
X276175000Y-28525000D03*
%TD*%
%TO.C,H12*%
X14237500Y-28525000D03*
%TD*%
%TO.C,H8*%
X161875000Y-19000000D03*
%TD*%
%TO.C,H17*%
X295225000Y-95200000D03*
%TD*%
%TO.C,H9*%
X123775000Y-19000000D03*
%TD*%
%TO.C,H15*%
X221406250Y-95200000D03*
%TD*%
%TO.C,H5*%
X85675000Y-19000000D03*
%TD*%
%TO.C,H3*%
X66625000Y-19000000D03*
%TD*%
%TO.C,H7*%
X176162500Y-57100000D03*
%TD*%
D11*
%TO.C,U25*%
X56782501Y-76150000D03*
X66942499Y-76150000D03*
%TD*%
%TO.C,U23*%
X61545001Y-38050000D03*
X71704999Y-38050000D03*
%TD*%
%TO.C,U30*%
X85357501Y-57100000D03*
X95517499Y-57100000D03*
%TD*%
%TO.C,U66*%
X199657501Y-57100000D03*
X209817499Y-57100000D03*
%TD*%
%TO.C,U75*%
X16301250Y-76150000D03*
X26461250Y-76150000D03*
%TD*%
%TO.C,U72*%
X218707501Y-57100000D03*
X228867499Y-57100000D03*
%TD*%
%TO.C,U79*%
X228232501Y-76150000D03*
X238392499Y-76150000D03*
%TD*%
%TO.C,U55*%
X152032501Y-76150000D03*
X162192499Y-76150000D03*
%TD*%
%TO.C,U82*%
X242520001Y-19000000D03*
X252679999Y-19000000D03*
%TD*%
%TO.C,U77*%
X232995001Y-38050000D03*
X243154999Y-38050000D03*
%TD*%
%TO.C,U58*%
X166320001Y-19000000D03*
X176479999Y-19000000D03*
%TD*%
%TO.C,U31*%
X75832501Y-76150000D03*
X85992499Y-76150000D03*
%TD*%
%TO.C,U89*%
X275857500Y-38050000D03*
X286017500Y-38050000D03*
%TD*%
%TO.C,U92*%
X261570001Y-95200000D03*
X271729999Y-95200000D03*
%TD*%
%TO.C,U37*%
X94882501Y-76150000D03*
X105042499Y-76150000D03*
%TD*%
%TO.C,U18*%
X47257501Y-57100000D03*
X57417499Y-57100000D03*
%TD*%
%TO.C,U65*%
X194895001Y-38050000D03*
X205054999Y-38050000D03*
%TD*%
%TO.C,U10*%
X13920001Y-19000000D03*
X24079999Y-19000000D03*
%TD*%
%TO.C,U26*%
X63926250Y-95200000D03*
X74086250Y-95200000D03*
%TD*%
%TO.C,U12*%
X21063750Y-57100000D03*
X31223750Y-57100000D03*
%TD*%
%TO.C,U83*%
X252045001Y-38050000D03*
X262204999Y-38050000D03*
%TD*%
%TO.C,U101*%
X299670001Y-38050000D03*
X309829999Y-38050000D03*
%TD*%
D12*
%TO.C,U33*%
X19000000Y-69165000D03*
D13*
X19000000Y-84405000D03*
D11*
X25826250Y-76150000D03*
X35986250Y-76150000D03*
D12*
X42812500Y-69165000D03*
D13*
X42812500Y-84405000D03*
%TD*%
D11*
%TO.C,U104*%
X299670001Y-95200000D03*
X309829999Y-95200000D03*
%TD*%
%TO.C,U17*%
X42495001Y-38050000D03*
X52654999Y-38050000D03*
%TD*%
%TO.C,U102*%
X299670001Y-57100000D03*
X309829999Y-57100000D03*
%TD*%
D12*
%TO.C,U3*%
X264268750Y-12015000D03*
D13*
X264268750Y-27255000D03*
D11*
X271095000Y-19000000D03*
X281255000Y-19000000D03*
D12*
X288081250Y-12015000D03*
D13*
X288081250Y-27255000D03*
%TD*%
D11*
%TO.C,U34*%
X90120001Y-19000000D03*
X100279999Y-19000000D03*
%TD*%
%TO.C,U35*%
X99645001Y-38050000D03*
X109804999Y-38050000D03*
%TD*%
%TO.C,U6*%
X66307500Y-95200000D03*
X76467500Y-95200000D03*
%TD*%
%TO.C,U36*%
X104407501Y-57100000D03*
X114567499Y-57100000D03*
%TD*%
%TO.C,U70*%
X204420001Y-19000000D03*
X214579999Y-19000000D03*
%TD*%
%TO.C,U8*%
X228232500Y-95200000D03*
X238392500Y-95200000D03*
%TD*%
%TO.C,U43*%
X113932501Y-76150000D03*
X124092499Y-76150000D03*
%TD*%
%TO.C,U15*%
X206801250Y-95200000D03*
X216961250Y-95200000D03*
%TD*%
%TO.C,U103*%
X299670001Y-76150000D03*
X309829999Y-76150000D03*
%TD*%
%TO.C,U52*%
X147270001Y-19000000D03*
X157429999Y-19000000D03*
%TD*%
%TO.C,U97*%
X280620001Y-76150000D03*
X290779999Y-76150000D03*
%TD*%
%TO.C,U22*%
X52020001Y-19000000D03*
X62179999Y-19000000D03*
%TD*%
%TO.C,U5*%
X42495000Y-95200000D03*
X52655000Y-95200000D03*
%TD*%
%TO.C,U67*%
X190132501Y-76150000D03*
X200292499Y-76150000D03*
%TD*%
%TO.C,U54*%
X161557501Y-57100000D03*
X171717499Y-57100000D03*
%TD*%
%TO.C,U53*%
X156795001Y-38050000D03*
X166954999Y-38050000D03*
%TD*%
%TO.C,U29*%
X80595001Y-38050000D03*
X90754999Y-38050000D03*
%TD*%
%TO.C,U14*%
X16301250Y-95200000D03*
X26461250Y-95200000D03*
%TD*%
%TO.C,U40*%
X109170001Y-19000000D03*
X119329999Y-19000000D03*
%TD*%
%TO.C,U47*%
X137745001Y-38050000D03*
X147904999Y-38050000D03*
%TD*%
%TO.C,U71*%
X213945001Y-38050000D03*
X224104999Y-38050000D03*
%TD*%
%TO.C,U80*%
X37732501Y-76150000D03*
X47892499Y-76150000D03*
%TD*%
D14*
%TO.C,USB1*%
X32370000Y-15599000D03*
D15*
X32370000Y-11419000D03*
D14*
X23730000Y-15599000D03*
D15*
X23730000Y-11419000D03*
D16*
X30940000Y-15069000D03*
X25160000Y-15069000D03*
%TD*%
D11*
%TO.C,U100*%
X299670001Y-19000000D03*
X309829999Y-19000000D03*
%TD*%
%TO.C,U28*%
X71070001Y-19000000D03*
X81229999Y-19000000D03*
%TD*%
%TO.C,U94*%
X280620001Y-19000000D03*
X290779999Y-19000000D03*
%TD*%
%TO.C,U42*%
X123457501Y-57100000D03*
X133617499Y-57100000D03*
%TD*%
%TO.C,U4*%
X18682500Y-95200000D03*
X28842500Y-95200000D03*
%TD*%
%TO.C,U91*%
X254426250Y-76150000D03*
X264586250Y-76150000D03*
%TD*%
%TO.C,U11*%
X18682500Y-38050000D03*
X28842500Y-38050000D03*
%TD*%
%TO.C,U73*%
X209182501Y-76150000D03*
X219342499Y-76150000D03*
%TD*%
D13*
%TO.C,U84*%
X261887499Y-48845000D03*
D12*
X261887500Y-64085000D03*
D11*
X268713751Y-57100000D03*
X278873749Y-57100000D03*
D12*
X285700000Y-64085000D03*
D13*
X285700001Y-48845000D03*
%TD*%
D11*
%TO.C,U41*%
X118695001Y-38050000D03*
X128854999Y-38050000D03*
%TD*%
%TO.C,U48*%
X142507501Y-57100000D03*
X152667499Y-57100000D03*
%TD*%
%TO.C,U60*%
X180607501Y-57100000D03*
X190767499Y-57100000D03*
%TD*%
%TO.C,U64*%
X185370001Y-19000000D03*
X195529999Y-19000000D03*
%TD*%
D13*
%TO.C,U7*%
X95200000Y-86945000D03*
D12*
X95200000Y-102185000D03*
D11*
X147270000Y-95200000D03*
X157430000Y-95200000D03*
D13*
X209500000Y-86945000D03*
D12*
X209500000Y-102185000D03*
%TD*%
D11*
%TO.C,U59*%
X175845001Y-38050000D03*
X186004999Y-38050000D03*
%TD*%
%TO.C,U78*%
X237757501Y-57100000D03*
X247917499Y-57100000D03*
%TD*%
%TO.C,U16*%
X32970001Y-19000000D03*
X43129999Y-19000000D03*
%TD*%
%TO.C,U88*%
X261570001Y-19000000D03*
X271729999Y-19000000D03*
%TD*%
%TO.C,U49*%
X132982501Y-76150000D03*
X143142499Y-76150000D03*
%TD*%
%TO.C,U20*%
X40113750Y-95200000D03*
X50273750Y-95200000D03*
%TD*%
%TO.C,U61*%
X171082501Y-76150000D03*
X181242499Y-76150000D03*
%TD*%
D13*
%TO.C,U44*%
X90443850Y-86945000D03*
D12*
X90443850Y-102185000D03*
D11*
X135363750Y-95200000D03*
X145523750Y-95200000D03*
D13*
X190443650Y-86945000D03*
D12*
X190443650Y-102185000D03*
%TD*%
D11*
%TO.C,U46*%
X128220001Y-19000000D03*
X138379999Y-19000000D03*
%TD*%
%TO.C,U76*%
X223470001Y-19000000D03*
X233629999Y-19000000D03*
%TD*%
%TO.C,U98*%
X280620001Y-95200000D03*
X290779999Y-95200000D03*
%TD*%
%TO.C,U21*%
X230613750Y-95200000D03*
X240773750Y-95200000D03*
%TD*%
%TO.C,U24*%
X66307501Y-57100000D03*
X76467499Y-57100000D03*
%TD*%
M02*
