0
SECTION
2
HEADER
9
$INSUNITS
70
4
9
$ACADVER
1
AC1014
9
$HANDSEED
5
FFFF
0
ENDSEC
0
SECTION
2
TABLES
0
TABLE
2
VPORT
5
8
100
AcDbSymbolTable
0
ENDTAB
0
TABLE
2
LTYPE
5
5
100
AcDbSymbolTable
0
LTYPE
5
14
100
AcDbSymbolTableRecord
100
AcDbLinetypeTableRecord
2
BYBLOCK
70
0
0
LTYPE
5
15
100
AcDbSymbolTableRecord
100
AcDbLinetypeTableRecord
2
BYLAYER
70
0
0
LTYPE
5
16
100
AcDbSymbolTableRecord
100
AcDbLinetypeTableRecord
2
DASHED
70
0
3
Dashed __ __ __ __ __ __ __ __ __ __ __ __ __ _
72
65
73
2
40
0.75
49
0.5
74
0
49
-0.25
74
0
0
ENDTAB
0
TABLE
2
LAYER
5
2
100
AcDbSymbolTable
70
3
0
LAYER
5
50
100
AcDbSymbolTableRecord
100
AcDbLayerTableRecord
2
1
70
0
62
7
6
DASHED
0
LAYER
5
51
100
AcDbSymbolTableRecord
100
AcDbLayerTableRecord
2
0
70
0
62
7
6
CONTINUOUS
0
ENDTAB
0
TABLE
2
STYLE
5
3
100
AcDbSymbolTable
70
1
0
STYLE
5
11
100
AcDbSymbolTableRecord
100
AcDbTextStyleTableRecord
2
STANDARD
70
0
0
ENDTAB
0
TABLE
2
VIEW
5
6
100
AcDbSymbolTable
70
0
0
ENDTAB
0
TABLE
2
UCS
5
7
100
AcDbSymbolTable
70
0
0
ENDTAB
0
TABLE
2
APPID
5
9
100
AcDbSymbolTable
70
2
0
APPID
5
12
100
AcDbSymbolTableRecord
100
AcDbRegAppTableRecord
2
ACAD
70
0
0
ENDTAB
0
TABLE
2
DIMSTYLE
5
A
100
AcDbSymbolTable
70
1
0
ENDTAB
0
TABLE
2
BLOCK_RECORD
5
1
100
AcDbSymbolTable
70
1
0
BLOCK_RECORD
5
1F
100
AcDbSymbolTableRecord
100
AcDbBlockTableRecord
2
*MODEL_SPACE
0
BLOCK_RECORD
5
1B
100
AcDbSymbolTableRecord
100
AcDbBlockTableRecord
2
*PAPER_SPACE
0
ENDTAB
0
ENDSEC
0
SECTION
2
BLOCKS
0
BLOCK
5
20
100
AcDbEntity
100
AcDbBlockBegin
2
*MODEL_SPACE
0
ENDBLK
5
21
100
AcDbEntity
100
AcDbBlockEnd
0
BLOCK
5
1C
100
AcDbEntity
100
AcDbBlockBegin
2
*PAPER_SPACE
0
ENDBLK
5
1D
100
AcDbEntity
100
AcDbBlockEnd
0
ENDSEC
0
SECTION
2
ENTITIES
0
LWPOLYLINE
5
100
100
AcDbEntity
8
0
100
AcDbPolyline
90
90
70
1
43
0.0
10
-9.0000060000000008
20
-46.200001
10
-6.1070010000007837
20
-46.200000999999567
42
-1.0000068181919877
10
-6.1070010000000003
20
-48.39999800000043
10
-9.0000060000000008
20
-48.399998000000004
10
-9.0000060000000008
20
-83.200001
42
0.41450099999878209
10
-7.0000060000000053
20
-85.200000999991502
10
-0.71412027726960203
20
-85.20000099999919
42
0.28224510969730082
10
0.17724918963047342
20
-84.653278479563809
42
-0.28211803558033122
10
3.0750059999999979
20
-82.874996999994991
10
6.6500029999999999
20
-82.874996999999993
42
0.20236916620853918
10
7.0840009999958795
20
-82.694996999995965
42
-0.59929508505572993
10
13.050996000001142
20
-84.629001999999787
42
0.41506436918936046
10
13.622002999999989
20
-85.200000999992398
10
34.965997000000002
20
-85.200001000000015
42
0.41367573171980832
10
35.52199699999862
20
-84.644001999999801
42
-0.85642295386531408
10
45.439996000001379
20
-84.644001999999787
42
0.41366556145036193
10
45.996004000000006
20
-85.200000999994927
10
82.654000999999994
20
-85.200001000000015
42
0.41506377419004936
10
83.22499999999836
20
-84.629001999999616
42
-0.59674611258060406
10
89.170000000004052
20
-82.67499999999572
42
0.19752712696334429
10
89.655000000000001
20
-82.874996999993087
10
89.925000999999995
20
-82.874996999998217
42
-0.28211972448353773
10
92.822748541308044
20
-84.653275161126501
42
0.28224611455250914
10
93.714119695684857
20
-85.200001000000015
10
172.98588641308248
20
-85.200001000000015
42
0.28224431893913893
10
173.87725455203352
20
-84.653281090962551
42
-0.28211507419327353
10
176.77499900000001
20
-82.874996999990628
10
177.043001
20
-82.874996999999993
42
0.19926293068499693
10
177.53199899999657
20
-82.673000999996702
42
-0.59636207033848365
10
183.47500000000053
20
-84.629001999999915
42
0.41503575313075314
10
184.04599899999999
20
-85.200000999997741
10
220.70399600000002
20
-85.200001000000015
42
0.41369253971161374
10
221.26000399999864
20
-84.644001999999745
42
-0.8564231555188857
10
231.17800300000144
20
-84.644001999999773
42
0.41369371735048799
10
231.734003
20
-85.200000999994671
10
253.07799700000004
20
-85.200001000000015
42
0.41503985093006052
10
253.64900399999567
20
-84.629002000000142
42
-0.58725751197730647
10
259.52199699999886
20
-82.607999000001257
42
0.20006188202516442
10
260.168001
20
-82.874996999998302
10
263.62499400000002
20
-82.874996999998274
42
-0.28212569306981955
10
266.52275590417992
20
-84.653268715093901
42
0.28224806647036499
10
267.41413033642135
20
-85.200001000000199
10
273.70000599999997
20
-85.200001000000015
42
0.41450749999768699
10
275.7000059999915
20
-83.200001
10
275.70000600000003
20
-48.399998000000004
10
272.80700100000092
20
-48.399997999999883
42
-1.0000004545465859
10
272.80700100000001
20
-46.200001000000114
10
275.70000600000003
20
-46.200001
10
275.70000600000003
20
7.0000000000000018
42
0.41400535350158058
10
273.70000599999997
20
8.9999990000003471
10
267.41439222200552
20
8.9999990000000345
42
0.28232498767924835
10
266.52288865540254
20
8.4530126761006166
42
-0.61355483521358534
10
260.72711434459751
20
8.4530126761005455
42
0.28232498767923048
10
259.83561077799453
20
8.9999989999999404
10
242.16999999999999
20
8.9999990000000007
42
0.41329144184491678
10
241.59900099999962
20
8.42899999999897
42
-0.83685714285706692
10
234.59900100000021
20
8.429000000000034
42
0.41329020428122343
10
234.02800100000002
20
8.999998999999395
10
224.604997
20
8.9999990000000007
42
0.41329319316205587
10
224.03399800000017
20
8.4289999999990748
42
-0.85662440578977628
10
214.1159989999997
20
8.4289999999999523
42
0.41329144183984046
10
213.54500000000002
20
8.9999990000001748
10
184.04599899999999
20
8.9999990000000007
42
0.41329319316207408
10
183.47499999999337
20
8.4290000000001477
42
-0.59516223666618873
10
177.54200099999656
20
6.4619999999963351
42
0.19765571826605954
10
177.02900099999999
20
6.6750000000004972
10
176.77499900000001
20
6.6749999999995051
42
-0.28244730208298846
10
173.87703368121268
20
8.4528563467605906
42
0.28237231909793659
10
172.98545069377747
20
8.9999989999989634
10
93.71454823690928
20
8.9999989999999919
42
0.28237200492888681
10
92.822965776544294
20
8.4528573844531909
42
-0.28244648823513585
10
89.925000999999995
20
6.6749999999997129
10
89.698999000000001
20
6.6749999999999998
42
0.1982874004538816
10
89.135000000000005
20
6.4409999999999688
42
-0.59225114142803004
10
83.224999999999767
20
8.4289999999999576
42
0.41331245764011199
10
82.654000999999994
20
8.9999990000003454
10
53.155000000000001
20
8.9999990000000007
42
0.41331245764008095
10
52.58400099999983
20
8.4289999999999754
42
-0.85662460744352675
10
42.666002000000169
20
8.4290000000000269
42
0.41331245764007257
10
42.095003000000005
20
8.9999990000003454
10
32.671999
20
8.9999990000000007
42
0.41331122006292298
10
32.100998999999824
20
8.4290000000000589
42
-0.83685714285719981
10
25.100999000000186
20
8.429000000000034
42
0.4133124576400663
10
24.530000000000001
20
8.9999990000003454
10
4.8643892220055207
20
8.9999990000000114
42
0.28232498767924147
10
3.9728856554025525
20
8.4530126761005882
42
-0.61355483521358412
10
-1.8228886554025292
20
8.4530126761005437
42
0.2823249876792373
10
-2.7143922220054928
20
8.9999989999999492
10
-7.0000060000000008
20
8.9999990000000007
42
0.4140013535003485
10
-9.0000059999998623
20
7.0000000000000009
0
CIRCLE
5
101
100
AcDbEntity
8
0
100
AcDbCircle
10
0
20
0
30
0
40
1.9939
210
0
220
0
230
1
0
ENDSEC
0
SECTION
2
OBJECTS
0
DICTIONARY
5
C
100
AcDbDictionary
3
ACAD_GROUP
350
D
3
ACAD_MLINESTYLE
350
17
0
DICTIONARY
5
D
100
AcDbDictionary
0
DICTIONARY
5
1A
330
C
100
AcDbDictionary
0
DICTIONARY
5
17
100
AcDbDictionary
0
ENDSEC
0
EOF
