0
SECTION
2
HEADER
9
$INSUNITS
70
4
9
$ACADVER
1
AC1014
9
$HANDSEED
5
FFFF
0
ENDSEC
0
SECTION
2
TABLES
0
TABLE
2
VPORT
5
8
100
AcDbSymbolTable
0
ENDTAB
0
TABLE
2
LTYPE
5
5
100
AcDbSymbolTable
0
LTYPE
5
14
100
AcDbSymbolTableRecord
100
AcDbLinetypeTableRecord
2
BYBLOCK
70
0
0
LTYPE
5
15
100
AcDbSymbolTableRecord
100
AcDbLinetypeTableRecord
2
BYLAYER
70
0
0
LTYPE
5
16
100
AcDbSymbolTableRecord
100
AcDbLinetypeTableRecord
2
DASHED
70
0
3
Dashed __ __ __ __ __ __ __ __ __ __ __ __ __ _
72
65
73
2
40
0.75
49
0.5
74
0
49
-0.25
74
0
0
ENDTAB
0
TABLE
2
LAYER
5
2
100
AcDbSymbolTable
70
3
0
LAYER
5
50
100
AcDbSymbolTableRecord
100
AcDbLayerTableRecord
2
1
70
0
62
7
6
DASHED
0
LAYER
5
51
100
AcDbSymbolTableRecord
100
AcDbLayerTableRecord
2
0
70
0
62
7
6
CONTINUOUS
0
ENDTAB
0
TABLE
2
STYLE
5
3
100
AcDbSymbolTable
70
1
0
STYLE
5
11
100
AcDbSymbolTableRecord
100
AcDbTextStyleTableRecord
2
STANDARD
70
0
0
ENDTAB
0
TABLE
2
VIEW
5
6
100
AcDbSymbolTable
70
0
0
ENDTAB
0
TABLE
2
UCS
5
7
100
AcDbSymbolTable
70
0
0
ENDTAB
0
TABLE
2
APPID
5
9
100
AcDbSymbolTable
70
2
0
APPID
5
12
100
AcDbSymbolTableRecord
100
AcDbRegAppTableRecord
2
ACAD
70
0
0
ENDTAB
0
TABLE
2
DIMSTYLE
5
A
100
AcDbSymbolTable
70
1
0
ENDTAB
0
TABLE
2
BLOCK_RECORD
5
1
100
AcDbSymbolTable
70
1
0
BLOCK_RECORD
5
1F
100
AcDbSymbolTableRecord
100
AcDbBlockTableRecord
2
*MODEL_SPACE
0
BLOCK_RECORD
5
1B
100
AcDbSymbolTableRecord
100
AcDbBlockTableRecord
2
*PAPER_SPACE
0
ENDTAB
0
ENDSEC
0
SECTION
2
BLOCKS
0
BLOCK
5
20
100
AcDbEntity
100
AcDbBlockBegin
2
*MODEL_SPACE
0
ENDBLK
5
21
100
AcDbEntity
100
AcDbBlockEnd
0
BLOCK
5
1C
100
AcDbEntity
100
AcDbBlockBegin
2
*PAPER_SPACE
0
ENDBLK
5
1D
100
AcDbEntity
100
AcDbBlockEnd
0
ENDSEC
0
SECTION
2
ENTITIES
0
LWPOLYLINE
5
100
100
AcDbEntity
8
0
100
AcDbPolyline
90
90
70
1
43
0.0
10
0.71117820957863831
20
85.200001000000043
42
0.28216041695152028
10
-0.1800489831749319
20
84.653558152844738
42
-0.28216041695153227
10
-3.0765373596240133
20
82.877618899590033
10
-6.5153841829481598
20
82.877618899590033
42
0.18720177977038813
10
-7.1898488423148059
20
82.615926033014489
42
-0.57486876956728872
10
-12.962961300750388
20
84.422223222222243
42
0.35000111041853077
10
-13.937957343793954
20
85.200001000000029
10
-34.605443957591426
20
85.200001000000029
42
0.35564234279590928
10
-35.584702714659507
20
84.402614638991693
42
-0.81427544584407041
10
-45.377290285340493
20
84.402614638991693
42
0.35564234279591539
10
-46.356549042408595
20
85.200001000000029
10
-82.337113956560032
20
85.200001000000029
42
0.35000111041852899
10
-83.312109999603592
20
84.422223222222243
42
-0.57519807024096592
10
-89.087779236021163
20
82.618264045321467
42
0.1972510441626758
10
-89.800739931278471
20
82.879911543414849
42
-0.29238528822944265
10
-92.819976319763313
20
84.653552078687085
42
0.28216225647700377
10
-93.711206603708945
20
85.200001000000015
10
-172.98879339629104
20
85.200001000000029
42
0.28216225647699689
10
-173.88002368023666
20
84.653552078687085
42
-0.29238528822942866
10
-176.89926006872139
20
82.879911543414849
42
0.19725104416267109
10
-177.61222076397871
20
82.618264045321439
42
-0.57519807024098302
10
-183.38789000039651
20
84.422223222222243
42
0.35000111041851151
10
-184.36288604344008
20
85.200001000000043
10
-220.34345095759141
20
85.200001000000029
42
0.35564234279590851
10
-221.32270971465957
20
84.402614638991707
42
-0.81427544584406808
10
-231.11529728534052
20
84.402614638991693
42
0.35564234279590645
10
-232.09455604240858
20
85.200001000000043
10
-252.76204265620601
20
85.200001000000029
42
0.35000111041851151
10
-253.73703869924955
20
84.422223222222243
42
-0.57486876956730493
10
-259.51015115768536
20
82.615926033014489
42
0.18720177977034749
10
-260.18461581705202
20
82.877618899590018
10
-263.62346264037598
20
82.877618899590004
42
-0.2821604169515366
10
-266.51995101682508
20
84.653558152844738
42
0.28216041695155997
10
-267.41117820957868
20
85.200001000000029
10
-273.70000599999997
20
85.200001000000029
42
0.41421356237311846
10
-275.70000600000003
20
83.200001000000015
10
-275.70000600000003
20
49.39999800000011
42
0.41421356237305862
10
-274.70000600000003
20
48.399998000000117
10
-272.80700049999996
20
48.399998000000117
42
-0.99999999999999989
10
-272.80700050000002
20
46.200000999999901
10
-274.70000600000003
20
46.200000999999908
42
0.41421356237307422
10
-275.70000600000003
20
45.200000999999894
10
-275.70000600000003
20
-6.999998999999999
42
0.41421356237312495
10
-273.70000600000003
20
-8.9999989999999972
10
-267.41376239569269
20
-8.9999989999999936
42
0.28230686646843461
10
-266.52228924376504
20
-8.4530725253710415
42
-0.61350863281334589
10
-260.72771375623518
20
-8.4530725253710415
42
0.28230686646842024
10
-259.83624060430748
20
-8.9999989999999777
10
-242.48648319369602
20
-8.9999989999999244
42
0.35000111041850573
10
-241.5114871506525
20
-8.2222212222221458
42
-0.79772403521746527
10
-234.6865148493475
20
-8.2222212222222026
42
0.35000111041855375
10
-233.71151880630393
20
-8.9999989999999936
10
-224.95387586256498
20
-8.9999989999999936
42
0.35641790824159597
10
-223.97406296880416
20
-8.1999157157093272
42
-0.8165674174991614
10
-214.17593403119579
20
-8.1999157157093254
42
0.35641790824159503
10
-213.19612113743494
20
-8.9999989999999883
10
-184.36265998161201
20
-8.9999989999999919
42
0.35000111041852111
10
-183.38766393856844
20
-8.2222212222222186
42
-0.57486675034033197
10
-177.61456716733139
20
-6.4159097023977774
42
0.19732880057117466
10
-176.90104709028444
20
-6.6768353454446947
42
-0.29296868276573446
10
-173.87634603009988
20
-8.4527886884653967
42
0.28239280287679919
10
-172.98472868054944
20
-8.9999989999999723
10
-93.715271319450466
20
-8.999998999999999
42
0.28239280287681046
10
-92.823653969900008
20
-8.4527886884653913
42
-0.29296868276573279
10
-89.798952909715538
20
-6.6768353454447018
42
0.19732880057116195
10
-89.085432832668587
20
-6.415909702397796
42
-0.57486675034032664
10
-83.312336061431523
20
-8.2222212222222382
42
0.35000111041853899
10
-82.337340018387977
20
-8.9999989999999919
10
-53.50387886256506
20
-8.9999990000000007
42
0.35641790824157848
10
-52.52406596880423
20
-8.1999157157093361
42
-0.8165674174991584
10
-42.725937031195798
20
-8.1999157157093308
42
0.35641790824157882
10
-41.746124137434961
20
-8.9999989999999972
10
-32.988481193696074
20
-8.9999990000000007
42
0.35000111041852905
10
-32.0134851506525
20
-8.2222212222222257
42
-0.79772403521746593
10
-25.188512849347529
20
-8.222221222222224
42
0.35000111041853121
10
-24.213516806303961
20
-8.9999990000000007
10
-4.8637593956925667
20
-8.9999990000000007
42
0.28230686646844438
10
-3.9722862437649047
20
-8.4530725253710592
42
-0.61350863281334256
10
1.8222892437649019
20
-8.4530725253710592
42
0.28230686646844616
10
2.7137623956925641
20
-8.999998999999999
10
7.0000060000000284
20
-8.9999990000000007
42
0.41421356237308904
10
9.0000059999999849
20
-6.999998999999999
10
9.0000059999999849
20
45.200000999999894
42
0.41421356237307422
10
8.0000059999999706
20
46.200000999999908
10
6.107000499999975
20
46.200000999999901
42
-0.99999999999999989
10
6.1070004999999128
20
48.399998000000117
10
8.0000060000000062
20
48.399998000000117
42
0.41421356237305862
10
9.0000059999999849
20
49.39999800000011
10
9.0000060000000008
20
83.200001000000015
42
0.41421356237309198
10
7.0000060000000017
20
85.200001000000029
0
CIRCLE
5
101
100
AcDbEntity
8
0
100
AcDbCircle
10
0
20
0
30
0
40
1.6013495858994542
210
0
220
-0
230
1
0
ENDSEC
0
SECTION
2
OBJECTS
0
DICTIONARY
5
C
100
AcDbDictionary
3
ACAD_GROUP
350
D
3
ACAD_MLINESTYLE
350
17
0
DICTIONARY
5
D
100
AcDbDictionary
0
DICTIONARY
5
1A
330
C
100
AcDbDictionary
0
DICTIONARY
5
17
100
AcDbDictionary
0
ENDSEC
0
EOF
