M48
; DRILL file {KiCad 8.0.6} date 2024-11-15T04:32:29+0700
; FORMAT={-:-/ absolute / inch / decimal}
; #@! TF.CreationDate,2024-11-15T04:32:29+07:00
; #@! TF.GenerationSoftware,Kicad,Pcbnew,8.0.6
; #@! TF.FileFunction,Plated,1,2,PTH
FMAT,2
INCH
; #@! TA.AperFunction,Plated,PTH,ComponentDrill
T1C0.0079
; #@! TA.AperFunction,Plated,PTH,ViaDrill
T2C0.0118
; #@! TA.AperFunction,Plated,PTH,ViaDrill
T3C0.0157
; #@! TA.AperFunction,Plated,PTH,ComponentDrill
T4C0.0236
; #@! TA.AperFunction,Plated,PTH,ComponentDrill
T5C0.0866
%
G90
G05
T1
X0.8981Y-1.2637
X0.9355Y-1.241
X0.9355Y-1.2863
X0.9729Y-1.2637
X1.4781Y-2.0605
X1.5115Y-2.0271
X1.5115Y-2.0939
X1.5449Y-1.9937
X1.5449Y-2.0605
X1.5449Y-2.1273
X1.5783Y-2.0271
X1.5783Y-2.0939
X1.6117Y-2.0605
T2
X0.4638Y-3.2276
X0.4638Y-3.9776
X0.5189Y-3.5736
X0.5332Y-1.7276
X0.5332Y-2.4776
X0.5426Y-3.55
X0.5662Y-3.5264
X0.5898Y-3.5028
X0.6299Y-0.6996
X0.6599Y-1.128
X0.6599Y-1.8142
X0.6828Y-1.9305
X0.7064Y-1.9561
X0.7301Y-2.0073
X0.748Y-0.8344
X0.7537Y-2.0329
X0.7947Y-3.748
X0.7947Y-3.8169
X0.8174Y-1.4496
X0.8418Y-3.0844
X0.876Y-0.6996
X0.8885Y-3.748
X0.8885Y-3.8169
X0.9112Y-2.1996
X0.9355Y-1.5844
X0.9599Y-2.9496
X0.9599Y-3.5028
X0.9764Y-0.6917
X1.0103Y-2.0329
X1.0293Y-2.3344
X1.034Y-1.4299
X1.1083Y-1.2429
X1.1083Y-0.5931
X1.1088Y-1.9305
X1.1324Y-1.9561
X1.1398Y-0.5931
X1.1398Y-1.2429
X1.1713Y-0.8787
X1.1732Y-1.1254
X1.1769Y-2.0073
X1.1769Y-2.1996
X1.2021Y-3.5736
X1.2021Y-3.7618
X1.2168Y-3.0844
X1.2323Y-0.6917
X1.3049Y-1.9817
X1.3349Y-2.9496
X1.3836Y-2.4776
X1.4112Y-2.448
X1.4113Y-1.9937
X1.4336Y-1.9714
X1.498Y-0.8344
X1.6358Y-0.6996
X1.638Y-1.8531
X1.638Y-1.8964
X1.6474Y-2.448
X1.6655Y-1.8315
X1.6655Y-1.8964
X1.675Y-2.4776
X1.683Y-2.2275
X1.6855Y-3.0844
X1.6958Y-2.0377
X1.7322Y-3.748
X1.7322Y-3.8169
X1.8233Y-2.9496
X1.826Y-3.748
X1.826Y-3.8169
X1.873Y-1.5844
X2.0108Y-1.4496
X2.0605Y-2.3344
X2.0605Y-2.8906
X2.0605Y-3.6406
X2.1396Y-3.55
X2.1396Y-3.7618
X2.1486Y-1.9561
X2.1722Y-1.9305
X2.1983Y-2.0073
X2.1983Y-2.1996
X2.248Y-0.8344
X2.282Y-1.8794
X2.3361Y-2.0526
X2.3858Y-0.6996
X2.4355Y-1.9817
X2.4355Y-2.623
X2.4355Y-3.0844
X2.5733Y-2.9496
X2.623Y-1.5844
X2.6697Y-3.748
X2.6697Y-3.8169
X2.7608Y-1.4496
X2.7635Y-3.748
X2.7635Y-3.8169
X2.8105Y-2.3344
X2.8986Y-1.9305
X2.9222Y-1.9561
X2.9483Y-2.0073
X2.9483Y-2.1996
X2.998Y-0.8344
X3.0771Y-3.5264
X3.0771Y-3.7618
X3.0861Y-1.9817
X3.1358Y-0.6996
X3.1855Y-3.0844
X3.3233Y-2.9496
X3.373Y-1.5844
X3.5108Y-1.4496
X3.5605Y-2.3344
X3.6486Y-1.9561
X3.6722Y-1.9305
X3.6983Y-2.0073
X3.6983Y-2.1996
X3.748Y-0.8344
X3.782Y-1.8794
X3.8361Y-2.0526
X3.8858Y-0.6996
X3.9355Y-1.9817
X3.9355Y-2.623
X3.9355Y-3.0844
X4.0733Y-2.9496
X4.123Y-0.6406
X4.123Y-1.5844
X4.2608Y-1.4496
X4.3105Y-2.3344
X4.3986Y-1.9305
X4.4222Y-1.9561
X4.4483Y-2.0073
X4.4483Y-2.1996
X4.498Y-0.8344
X4.498Y-1.3906
X4.5861Y-1.9817
X4.6358Y-0.6996
X4.6855Y-2.1406
X4.6855Y-3.0844
X4.8233Y-2.9496
X4.873Y-1.5844
X4.9668Y-3.1685
X4.9668Y-3.9776
X5.0108Y-1.4496
X5.0605Y-2.3344
X5.0605Y-2.8906
X5.1486Y-1.9561
X5.1722Y-1.9305
X5.1983Y-2.0073
X5.1983Y-2.1996
X5.248Y-0.8344
X5.248Y-1.0285
X5.248Y-1.6685
X5.248Y-3.6406
X5.282Y-1.8794
X5.3361Y-2.0526
X5.3858Y-0.6996
X5.4355Y-1.9817
X5.4355Y-2.623
X5.4355Y-3.0844
X5.5293Y-3.8344
X5.5733Y-2.9496
X5.623Y-1.5844
X5.6474Y-3.6996
X5.7608Y-1.4496
X5.8105Y-2.3344
X5.8986Y-1.9305
X5.9222Y-1.9561
X5.9483Y-2.0073
X5.9483Y-2.1996
X5.998Y-0.8344
X5.998Y-3.8344
X6.0861Y-1.9817
X6.1161Y-3.6996
X6.1358Y-0.6996
X6.1855Y-3.0844
X6.3233Y-2.9496
X6.373Y-1.5844
X6.5108Y-1.4496
X6.5605Y-2.3344
X6.6486Y-1.9561
X6.6722Y-1.9305
X6.6983Y-2.0073
X6.6983Y-2.1996
X6.748Y-0.8344
X6.782Y-1.8794
X6.8361Y-2.0526
X6.8858Y-0.6996
X6.9355Y-1.9817
X6.9355Y-2.623
X6.9355Y-3.0844
X7.0733Y-2.9496
X7.123Y-1.5844
X7.2608Y-1.4496
X7.3105Y-2.3344
X7.3986Y-1.9305
X7.4222Y-1.9561
X7.4483Y-2.0073
X7.4483Y-2.1996
X7.498Y-0.8344
X7.5861Y-1.9817
X7.6358Y-0.6996
X7.6855Y-3.0844
X7.8233Y-2.9496
X7.873Y-1.5844
X8.0108Y-1.4496
X8.0605Y-2.3344
X8.0605Y-2.8906
X8.0605Y-3.6406
X8.1486Y-1.9561
X8.1722Y-1.9305
X8.1983Y-2.0073
X8.1983Y-2.1996
X8.248Y-0.8344
X8.282Y-1.8794
X8.3361Y-2.0526
X8.3418Y-3.8344
X8.3858Y-0.6996
X8.4355Y-1.9817
X8.4355Y-2.623
X8.4355Y-3.0844
X8.4796Y-3.5736
X8.4796Y-3.6996
X8.5733Y-2.9496
X8.623Y-1.5844
X8.7608Y-1.4496
X8.8105Y-2.3344
X8.8105Y-3.1685
X8.8105Y-3.9382
X8.8986Y-1.9305
X8.9222Y-1.9561
X8.9483Y-2.0073
X8.9483Y-2.1996
X8.998Y-0.8344
X9.0861Y-1.9817
X9.1358Y-0.6996
X9.1385Y-3.748
X9.1385Y-3.8169
X9.1855Y-1.9817
X9.1855Y-2.623
X9.1855Y-3.0844
X9.2322Y-3.748
X9.2322Y-3.8169
X9.3233Y-2.7101
X9.3233Y-2.9496
X9.373Y-1.5844
X9.5108Y-1.4496
X9.5108Y-1.9305
X9.5222Y-3.5736
X9.5458Y-3.7618
X9.5605Y-2.3344
X9.5945Y-1.8794
X9.5945Y-2.6333
X9.6722Y-1.9561
X9.6959Y-2.0073
X9.6983Y-2.1996
X9.6983Y-2.6845
X9.7087Y-2.7868
X9.7195Y-2.0329
X9.7323Y-2.7613
X9.748Y-0.8344
X9.7795Y-1.8538
X9.8012Y-1.8794
X9.8228Y-1.905
X9.8228Y-2.7868
X9.8228Y-2.8906
X9.8858Y-0.6996
X9.9016Y-2.6077
X9.9232Y-2.6333
X9.9449Y-2.6589
X10.123Y-1.5844
X10.1699Y-2.0028
X10.2168Y-3.0844
X10.2608Y-1.4496
X10.3546Y-2.7613
X10.3546Y-2.9496
X10.498Y-0.8344
X10.498Y-3.8344
X10.6358Y-0.6996
X10.6358Y-2.7357
X10.6358Y-3.6996
X10.6594Y-2.7101
X10.6594Y-3.5736
X10.7793Y-1.0285
X10.7793Y-1.6685
X10.7793Y-2.3344
X10.7793Y-2.5285
X10.7793Y-3.1685
X10.873Y-0.8344
X10.9171Y-2.0736
X10.9171Y-2.1996
X11.0108Y-0.6996
X11.0605Y-1.5844
X11.1983Y-1.4496
X11.248Y-0.8344
X11.248Y-3.0844
X11.248Y-3.8344
X11.3858Y-0.6996
X11.3858Y-2.6845
X11.3858Y-2.9496
X11.3858Y-3.5736
X11.3858Y-3.6996
X11.5Y-2.0264
X11.5236Y-2.05
X11.5293Y-3.1685
X11.5293Y-3.9776
X11.6007Y-2.6333
X11.623Y-0.9776
X11.623Y-1.6685
X11.623Y-2.4776
X11.623Y-2.8906
X11.623Y-3.6406
X11.7224Y-0.8693
X11.7224Y-1.6193
X11.7224Y-2.3693
X11.7224Y-3.1193
X11.8291Y-2.7868
X11.8291Y-2.8906
X11.998Y-0.8344
X11.998Y-1.5844
X11.998Y-2.3344
X11.998Y-3.0844
X11.998Y-3.8344
X12.1358Y-0.6996
X12.1358Y-1.4496
X12.1358Y-2.1996
X12.1358Y-2.6845
X12.1358Y-2.8124
X12.1358Y-2.9496
X12.1358Y-3.6996
X12.2618Y-2.7101
X12.2618Y-2.7613
X12.2854Y-2.7357
T3
X1.1713Y-0.9776
X1.4341Y-1.8879
X1.5069Y-1.7531
X1.5315Y-1.3287
T5
X0.5605Y-1.123
X2.2949Y-3.748
X2.623Y-0.748
X3.373Y-0.748
X3.9355Y-2.248
X4.873Y-0.748
X6.373Y-0.748
X6.9355Y-2.248
X7.123Y-0.748
X8.7168Y-3.748
X9.1855Y-2.248
X9.373Y-0.748
X10.873Y-1.123
X11.623Y-3.748
X12.1855Y-1.123
T4
G00X0.9343Y-0.4378
M15
G01X0.9343Y-0.4614
M16
G05
G00X0.9343Y-0.5925
M15
G01X0.9343Y-0.6358
M16
G05
G00X1.2744Y-0.4378
M15
G01X1.2744Y-0.4614
M16
G05
G00X1.2744Y-0.5925
M15
G01X1.2744Y-0.6358
M16
G05
M30
