M48
; DRILL file {KiCad 8.0.6} date 2024-11-15T04:32:29+0700
; FORMAT={-:-/ absolute / inch / decimal}
; #@! TF.CreationDate,2024-11-15T04:32:29+07:00
; #@! TF.GenerationSoftware,Kicad,Pcbnew,8.0.6
; #@! TF.FileFunction,NonPlated,1,2,NPTH
FMAT,2
INCH
; #@! TA.AperFunction,NonPlated,NPTH,ComponentDrill
T1C0.0256
; #@! TA.AperFunction,NonPlated,NPTH,ComponentDrill
T2C0.0689
; #@! TA.AperFunction,NonPlated,NPTH,ComponentDrill
T3C0.1200
; #@! TA.AperFunction,NonPlated,NPTH,ComponentDrill
T4C0.1570
%
G90
G05
T1
X0.9906Y-0.5933
X1.2181Y-0.5933
T2
X0.548Y-0.748
X0.6418Y-2.998
X0.6418Y-3.748
X0.7355Y-1.498
X0.7355Y-3.748
X0.8293Y-2.248
X0.948Y-0.748
X1.0168Y-2.998
X1.0418Y-2.998
X1.0418Y-3.748
X1.1355Y-1.498
X1.1355Y-3.748
X1.2293Y-2.248
X1.298Y-0.748
X1.4168Y-2.998
X1.4855Y-2.998
X1.5793Y-3.748
X1.673Y-3.748
X1.673Y-1.498
X1.698Y-0.748
X1.8605Y-2.248
X1.8855Y-2.998
X1.9793Y-3.748
X2.048Y-0.748
X2.073Y-1.498
X2.073Y-3.748
X2.2355Y-2.998
X2.2605Y-2.248
X2.423Y-1.498
X2.448Y-0.748
X2.5168Y-3.748
X2.6105Y-3.748
X2.6105Y-2.248
X2.6355Y-2.998
X2.798Y-0.748
X2.823Y-1.498
X2.9168Y-3.748
X2.9855Y-2.998
X3.0105Y-2.248
X3.0105Y-3.748
X3.173Y-1.498
X3.198Y-0.748
X3.3605Y-2.248
X3.3855Y-2.998
X3.548Y-0.748
X3.573Y-1.498
X3.7355Y-2.998
X3.7605Y-2.248
X3.923Y-1.498
X3.948Y-0.748
X4.1105Y-2.248
X4.1355Y-2.998
X4.298Y-0.748
X4.323Y-1.498
X4.4855Y-2.998
X4.5105Y-2.248
X4.673Y-1.498
X4.698Y-0.748
X4.8605Y-2.248
X4.8855Y-2.998
X5.048Y-0.748
X5.073Y-1.498
X5.2355Y-2.998
X5.2605Y-2.248
X5.3293Y-3.748
X5.423Y-1.498
X5.448Y-0.748
X5.6105Y-2.248
X5.6355Y-2.998
X5.7293Y-3.748
X5.798Y-3.748
X5.798Y-0.748
X5.823Y-1.498
X5.9855Y-2.998
X6.0105Y-2.248
X6.173Y-1.498
X6.198Y-0.748
X6.198Y-3.748
X6.3605Y-2.248
X6.3855Y-2.998
X6.548Y-0.748
X6.573Y-1.498
X6.7355Y-2.998
X6.7605Y-2.248
X6.923Y-1.498
X6.948Y-0.748
X7.1105Y-2.248
X7.1355Y-2.998
X7.298Y-0.748
X7.323Y-1.498
X7.4855Y-2.998
X7.5105Y-2.248
X7.673Y-1.498
X7.698Y-0.748
X7.8605Y-2.248
X7.8855Y-2.998
X8.048Y-0.748
X8.073Y-1.498
X8.1418Y-3.748
X8.2355Y-2.998
X8.2605Y-2.248
X8.423Y-1.498
X8.448Y-0.748
X8.5418Y-3.748
X8.6105Y-2.248
X8.6355Y-2.998
X8.798Y-0.748
X8.823Y-1.498
X8.9855Y-3.748
X8.9855Y-2.998
X9.0105Y-2.248
X9.0793Y-3.748
X9.173Y-1.498
X9.198Y-0.748
X9.3605Y-2.248
X9.3855Y-2.998
X9.3855Y-3.748
X9.4793Y-3.748
X9.548Y-0.748
X9.573Y-1.498
X9.7605Y-2.248
X9.923Y-1.498
X9.948Y-0.748
X10.0168Y-2.998
X10.298Y-0.748
X10.298Y-3.748
X10.323Y-1.498
X10.4168Y-2.998
X10.5793Y-2.248
X10.673Y-0.748
X10.698Y-0.748
X10.698Y-3.748
X10.8605Y-1.498
X10.9793Y-2.248
X11.048Y-0.748
X11.048Y-2.998
X11.048Y-3.748
X11.073Y-0.748
X11.2605Y-1.498
X11.448Y-0.748
X11.448Y-2.998
X11.448Y-3.748
X11.798Y-0.748
X11.798Y-1.498
X11.798Y-2.248
X11.798Y-2.998
X11.798Y-3.748
X12.198Y-0.748
X12.198Y-1.498
X12.198Y-2.248
X12.198Y-2.998
X12.198Y-3.748
T3
X0.748Y-2.723
X1.6855Y-2.723
X3.5608Y-4.023
X3.748Y-4.023
X7.4978Y-4.023
X8.248Y-4.023
X10.3105Y-2.523
X10.4043Y-0.473
X11.248Y-2.523
X11.3418Y-0.473
T4
X0.748Y-3.323
X1.6855Y-3.323
X3.5608Y-3.423
X3.748Y-3.423
X7.4978Y-3.423
X8.248Y-3.423
X10.3105Y-1.923
X10.4043Y-1.073
X11.248Y-1.923
X11.3418Y-1.073
M30
