%TF.GenerationSoftware,KiCad,Pcbnew,8.0.6*%
%TF.CreationDate,2024-11-15T04:32:27+07:00*%
%TF.ProjectId,Heart HE 65,48656172-7420-4484-9520-36352e6b6963,rev?*%
%TF.SameCoordinates,Original*%
%TF.FileFunction,Legend,Bot*%
%TF.FilePolarity,Positive*%
%FSLAX46Y46*%
G04 Gerber Fmt 4.6, Leading zero omitted, Abs format (unit mm)*
G04 Created by KiCad (PCBNEW 8.0.6) date 2024-11-15 04:32:27*
%MOMM*%
%LPD*%
G01*
G04 APERTURE LIST*
%ADD10C,0.300000*%
%ADD11C,0.120000*%
%ADD12C,0.100000*%
%ADD13C,0.153000*%
%ADD14C,0.150000*%
%ADD15C,0.500000*%
G04 APERTURE END LIST*
D10*
X312479417Y-88064484D02*
X312265132Y-88135912D01*
X312265132Y-88135912D02*
X311907989Y-88135912D01*
X311907989Y-88135912D02*
X311765132Y-88064484D01*
X311765132Y-88064484D02*
X311693703Y-87993055D01*
X311693703Y-87993055D02*
X311622274Y-87850198D01*
X311622274Y-87850198D02*
X311622274Y-87707341D01*
X311622274Y-87707341D02*
X311693703Y-87564484D01*
X311693703Y-87564484D02*
X311765132Y-87493055D01*
X311765132Y-87493055D02*
X311907989Y-87421626D01*
X311907989Y-87421626D02*
X312193703Y-87350198D01*
X312193703Y-87350198D02*
X312336560Y-87278769D01*
X312336560Y-87278769D02*
X312407989Y-87207341D01*
X312407989Y-87207341D02*
X312479417Y-87064484D01*
X312479417Y-87064484D02*
X312479417Y-86921626D01*
X312479417Y-86921626D02*
X312407989Y-86778769D01*
X312407989Y-86778769D02*
X312336560Y-86707341D01*
X312336560Y-86707341D02*
X312193703Y-86635912D01*
X312193703Y-86635912D02*
X311836560Y-86635912D01*
X311836560Y-86635912D02*
X311622274Y-86707341D01*
X310336561Y-88135912D02*
X310336561Y-87350198D01*
X310336561Y-87350198D02*
X310407989Y-87207341D01*
X310407989Y-87207341D02*
X310550846Y-87135912D01*
X310550846Y-87135912D02*
X310836561Y-87135912D01*
X310836561Y-87135912D02*
X310979418Y-87207341D01*
X310336561Y-88064484D02*
X310479418Y-88135912D01*
X310479418Y-88135912D02*
X310836561Y-88135912D01*
X310836561Y-88135912D02*
X310979418Y-88064484D01*
X310979418Y-88064484D02*
X311050846Y-87921626D01*
X311050846Y-87921626D02*
X311050846Y-87778769D01*
X311050846Y-87778769D02*
X310979418Y-87635912D01*
X310979418Y-87635912D02*
X310836561Y-87564484D01*
X310836561Y-87564484D02*
X310479418Y-87564484D01*
X310479418Y-87564484D02*
X310336561Y-87493055D01*
X309407989Y-88135912D02*
X309550846Y-88064484D01*
X309550846Y-88064484D02*
X309622275Y-87921626D01*
X309622275Y-87921626D02*
X309622275Y-86635912D01*
X308193704Y-88135912D02*
X308193704Y-87350198D01*
X308193704Y-87350198D02*
X308265132Y-87207341D01*
X308265132Y-87207341D02*
X308407989Y-87135912D01*
X308407989Y-87135912D02*
X308693704Y-87135912D01*
X308693704Y-87135912D02*
X308836561Y-87207341D01*
X308193704Y-88064484D02*
X308336561Y-88135912D01*
X308336561Y-88135912D02*
X308693704Y-88135912D01*
X308693704Y-88135912D02*
X308836561Y-88064484D01*
X308836561Y-88064484D02*
X308907989Y-87921626D01*
X308907989Y-87921626D02*
X308907989Y-87778769D01*
X308907989Y-87778769D02*
X308836561Y-87635912D01*
X308836561Y-87635912D02*
X308693704Y-87564484D01*
X308693704Y-87564484D02*
X308336561Y-87564484D01*
X308336561Y-87564484D02*
X308193704Y-87493055D01*
X307479418Y-87135912D02*
X307479418Y-88135912D01*
X307479418Y-87278769D02*
X307407989Y-87207341D01*
X307407989Y-87207341D02*
X307265132Y-87135912D01*
X307265132Y-87135912D02*
X307050846Y-87135912D01*
X307050846Y-87135912D02*
X306907989Y-87207341D01*
X306907989Y-87207341D02*
X306836561Y-87350198D01*
X306836561Y-87350198D02*
X306836561Y-88135912D01*
X305550846Y-88064484D02*
X305693703Y-88135912D01*
X305693703Y-88135912D02*
X305979418Y-88135912D01*
X305979418Y-88135912D02*
X306122275Y-88064484D01*
X306122275Y-88064484D02*
X306193703Y-87921626D01*
X306193703Y-87921626D02*
X306193703Y-87350198D01*
X306193703Y-87350198D02*
X306122275Y-87207341D01*
X306122275Y-87207341D02*
X305979418Y-87135912D01*
X305979418Y-87135912D02*
X305693703Y-87135912D01*
X305693703Y-87135912D02*
X305550846Y-87207341D01*
X305550846Y-87207341D02*
X305479418Y-87350198D01*
X305479418Y-87350198D02*
X305479418Y-87493055D01*
X305479418Y-87493055D02*
X306193703Y-87635912D01*
X302836561Y-87993055D02*
X302907989Y-88064484D01*
X302907989Y-88064484D02*
X303122275Y-88135912D01*
X303122275Y-88135912D02*
X303265132Y-88135912D01*
X303265132Y-88135912D02*
X303479418Y-88064484D01*
X303479418Y-88064484D02*
X303622275Y-87921626D01*
X303622275Y-87921626D02*
X303693704Y-87778769D01*
X303693704Y-87778769D02*
X303765132Y-87493055D01*
X303765132Y-87493055D02*
X303765132Y-87278769D01*
X303765132Y-87278769D02*
X303693704Y-86993055D01*
X303693704Y-86993055D02*
X303622275Y-86850198D01*
X303622275Y-86850198D02*
X303479418Y-86707341D01*
X303479418Y-86707341D02*
X303265132Y-86635912D01*
X303265132Y-86635912D02*
X303122275Y-86635912D01*
X303122275Y-86635912D02*
X302907989Y-86707341D01*
X302907989Y-86707341D02*
X302836561Y-86778769D01*
X301907989Y-86635912D02*
X301622275Y-86635912D01*
X301622275Y-86635912D02*
X301479418Y-86707341D01*
X301479418Y-86707341D02*
X301336561Y-86850198D01*
X301336561Y-86850198D02*
X301265132Y-87135912D01*
X301265132Y-87135912D02*
X301265132Y-87635912D01*
X301265132Y-87635912D02*
X301336561Y-87921626D01*
X301336561Y-87921626D02*
X301479418Y-88064484D01*
X301479418Y-88064484D02*
X301622275Y-88135912D01*
X301622275Y-88135912D02*
X301907989Y-88135912D01*
X301907989Y-88135912D02*
X302050847Y-88064484D01*
X302050847Y-88064484D02*
X302193704Y-87921626D01*
X302193704Y-87921626D02*
X302265132Y-87635912D01*
X302265132Y-87635912D02*
X302265132Y-87135912D01*
X302265132Y-87135912D02*
X302193704Y-86850198D01*
X302193704Y-86850198D02*
X302050847Y-86707341D01*
X302050847Y-86707341D02*
X301907989Y-86635912D01*
X300622275Y-87993055D02*
X300550846Y-88064484D01*
X300550846Y-88064484D02*
X300622275Y-88135912D01*
X300622275Y-88135912D02*
X300693703Y-88064484D01*
X300693703Y-88064484D02*
X300622275Y-87993055D01*
X300622275Y-87993055D02*
X300622275Y-88135912D01*
X298050846Y-88135912D02*
X298765132Y-88135912D01*
X298765132Y-88135912D02*
X298765132Y-86635912D01*
X296836560Y-88135912D02*
X297550846Y-88135912D01*
X297550846Y-88135912D02*
X297550846Y-86635912D01*
X295479417Y-87993055D02*
X295550845Y-88064484D01*
X295550845Y-88064484D02*
X295765131Y-88135912D01*
X295765131Y-88135912D02*
X295907988Y-88135912D01*
X295907988Y-88135912D02*
X296122274Y-88064484D01*
X296122274Y-88064484D02*
X296265131Y-87921626D01*
X296265131Y-87921626D02*
X296336560Y-87778769D01*
X296336560Y-87778769D02*
X296407988Y-87493055D01*
X296407988Y-87493055D02*
X296407988Y-87278769D01*
X296407988Y-87278769D02*
X296336560Y-86993055D01*
X296336560Y-86993055D02*
X296265131Y-86850198D01*
X296265131Y-86850198D02*
X296122274Y-86707341D01*
X296122274Y-86707341D02*
X295907988Y-86635912D01*
X295907988Y-86635912D02*
X295765131Y-86635912D01*
X295765131Y-86635912D02*
X295550845Y-86707341D01*
X295550845Y-86707341D02*
X295479417Y-86778769D01*
X312407989Y-90550828D02*
X312407989Y-89050828D01*
X312407989Y-89050828D02*
X312050846Y-89050828D01*
X312050846Y-89050828D02*
X311836560Y-89122257D01*
X311836560Y-89122257D02*
X311693703Y-89265114D01*
X311693703Y-89265114D02*
X311622274Y-89407971D01*
X311622274Y-89407971D02*
X311550846Y-89693685D01*
X311550846Y-89693685D02*
X311550846Y-89907971D01*
X311550846Y-89907971D02*
X311622274Y-90193685D01*
X311622274Y-90193685D02*
X311693703Y-90336542D01*
X311693703Y-90336542D02*
X311836560Y-90479400D01*
X311836560Y-90479400D02*
X312050846Y-90550828D01*
X312050846Y-90550828D02*
X312407989Y-90550828D01*
X310336560Y-90479400D02*
X310479417Y-90550828D01*
X310479417Y-90550828D02*
X310765132Y-90550828D01*
X310765132Y-90550828D02*
X310907989Y-90479400D01*
X310907989Y-90479400D02*
X310979417Y-90336542D01*
X310979417Y-90336542D02*
X310979417Y-89765114D01*
X310979417Y-89765114D02*
X310907989Y-89622257D01*
X310907989Y-89622257D02*
X310765132Y-89550828D01*
X310765132Y-89550828D02*
X310479417Y-89550828D01*
X310479417Y-89550828D02*
X310336560Y-89622257D01*
X310336560Y-89622257D02*
X310265132Y-89765114D01*
X310265132Y-89765114D02*
X310265132Y-89907971D01*
X310265132Y-89907971D02*
X310979417Y-90050828D01*
X309765132Y-89550828D02*
X309407989Y-90550828D01*
X309407989Y-90550828D02*
X309050846Y-89550828D01*
X307336561Y-90550828D02*
X307336561Y-89050828D01*
X306479418Y-90550828D02*
X307122275Y-89693685D01*
X306479418Y-89050828D02*
X307336561Y-89907971D01*
X305836561Y-90550828D02*
X305836561Y-89550828D01*
X305836561Y-89050828D02*
X305907989Y-89122257D01*
X305907989Y-89122257D02*
X305836561Y-89193685D01*
X305836561Y-89193685D02*
X305765132Y-89122257D01*
X305765132Y-89122257D02*
X305836561Y-89050828D01*
X305836561Y-89050828D02*
X305836561Y-89193685D01*
X305336560Y-89550828D02*
X304765132Y-89550828D01*
X305122275Y-89050828D02*
X305122275Y-90336542D01*
X305122275Y-90336542D02*
X305050846Y-90479400D01*
X305050846Y-90479400D02*
X304907989Y-90550828D01*
X304907989Y-90550828D02*
X304765132Y-90550828D01*
X303122275Y-90550828D02*
X303122275Y-89050828D01*
X303122275Y-89050828D02*
X302550846Y-89050828D01*
X302550846Y-89050828D02*
X302407989Y-89122257D01*
X302407989Y-89122257D02*
X302336560Y-89193685D01*
X302336560Y-89193685D02*
X302265132Y-89336542D01*
X302265132Y-89336542D02*
X302265132Y-89550828D01*
X302265132Y-89550828D02*
X302336560Y-89693685D01*
X302336560Y-89693685D02*
X302407989Y-89765114D01*
X302407989Y-89765114D02*
X302550846Y-89836542D01*
X302550846Y-89836542D02*
X303122275Y-89836542D01*
X300765132Y-90407971D02*
X300836560Y-90479400D01*
X300836560Y-90479400D02*
X301050846Y-90550828D01*
X301050846Y-90550828D02*
X301193703Y-90550828D01*
X301193703Y-90550828D02*
X301407989Y-90479400D01*
X301407989Y-90479400D02*
X301550846Y-90336542D01*
X301550846Y-90336542D02*
X301622275Y-90193685D01*
X301622275Y-90193685D02*
X301693703Y-89907971D01*
X301693703Y-89907971D02*
X301693703Y-89693685D01*
X301693703Y-89693685D02*
X301622275Y-89407971D01*
X301622275Y-89407971D02*
X301550846Y-89265114D01*
X301550846Y-89265114D02*
X301407989Y-89122257D01*
X301407989Y-89122257D02*
X301193703Y-89050828D01*
X301193703Y-89050828D02*
X301050846Y-89050828D01*
X301050846Y-89050828D02*
X300836560Y-89122257D01*
X300836560Y-89122257D02*
X300765132Y-89193685D01*
X299622275Y-89765114D02*
X299407989Y-89836542D01*
X299407989Y-89836542D02*
X299336560Y-89907971D01*
X299336560Y-89907971D02*
X299265132Y-90050828D01*
X299265132Y-90050828D02*
X299265132Y-90265114D01*
X299265132Y-90265114D02*
X299336560Y-90407971D01*
X299336560Y-90407971D02*
X299407989Y-90479400D01*
X299407989Y-90479400D02*
X299550846Y-90550828D01*
X299550846Y-90550828D02*
X300122275Y-90550828D01*
X300122275Y-90550828D02*
X300122275Y-89050828D01*
X300122275Y-89050828D02*
X299622275Y-89050828D01*
X299622275Y-89050828D02*
X299479418Y-89122257D01*
X299479418Y-89122257D02*
X299407989Y-89193685D01*
X299407989Y-89193685D02*
X299336560Y-89336542D01*
X299336560Y-89336542D02*
X299336560Y-89479400D01*
X299336560Y-89479400D02*
X299407989Y-89622257D01*
X299407989Y-89622257D02*
X299479418Y-89693685D01*
X299479418Y-89693685D02*
X299622275Y-89765114D01*
X299622275Y-89765114D02*
X300122275Y-89765114D01*
X297479418Y-90550828D02*
X297479418Y-89550828D01*
X297479418Y-89836542D02*
X297407989Y-89693685D01*
X297407989Y-89693685D02*
X297336561Y-89622257D01*
X297336561Y-89622257D02*
X297193703Y-89550828D01*
X297193703Y-89550828D02*
X297050846Y-89550828D01*
X295979418Y-90479400D02*
X296122275Y-90550828D01*
X296122275Y-90550828D02*
X296407990Y-90550828D01*
X296407990Y-90550828D02*
X296550847Y-90479400D01*
X296550847Y-90479400D02*
X296622275Y-90336542D01*
X296622275Y-90336542D02*
X296622275Y-89765114D01*
X296622275Y-89765114D02*
X296550847Y-89622257D01*
X296550847Y-89622257D02*
X296407990Y-89550828D01*
X296407990Y-89550828D02*
X296122275Y-89550828D01*
X296122275Y-89550828D02*
X295979418Y-89622257D01*
X295979418Y-89622257D02*
X295907990Y-89765114D01*
X295907990Y-89765114D02*
X295907990Y-89907971D01*
X295907990Y-89907971D02*
X296622275Y-90050828D01*
X295407990Y-89550828D02*
X295050847Y-90550828D01*
X295050847Y-90550828D02*
X294693704Y-89550828D01*
X293336561Y-90550828D02*
X294193704Y-90550828D01*
X293765133Y-90550828D02*
X293765133Y-89050828D01*
X293765133Y-89050828D02*
X293907990Y-89265114D01*
X293907990Y-89265114D02*
X294050847Y-89407971D01*
X294050847Y-89407971D02*
X294193704Y-89479400D01*
D11*
%TO.C,C242*%
X310049999Y-99930000D02*
X310049999Y-100630000D01*
X308849999Y-100630000D02*
X308849999Y-99930000D01*
%TO.C,C241*%
X290999999Y-99930000D02*
X290999999Y-100630000D01*
X289799999Y-100630000D02*
X289799999Y-99930000D01*
%TO.C,C240*%
X271949999Y-99930000D02*
X271949999Y-100630000D01*
X270749999Y-100630000D02*
X270749999Y-99930000D01*
%TO.C,C239*%
X239803124Y-99930000D02*
X239803124Y-100630000D01*
X238603124Y-100630000D02*
X238603124Y-99930000D01*
%TO.C,C238*%
X217181249Y-98930000D02*
X217181249Y-99630000D01*
X215981249Y-99630000D02*
X215981249Y-98930000D01*
%TO.C,C237*%
X157649999Y-99930000D02*
X157649999Y-100630000D01*
X156449999Y-100630000D02*
X156449999Y-99930000D01*
%TO.C,C236*%
X145743749Y-99930000D02*
X145743749Y-100630000D01*
X144543749Y-100630000D02*
X144543749Y-99930000D01*
%TO.C,C235*%
X75496874Y-99930000D02*
X75496874Y-100630000D01*
X74296874Y-100630000D02*
X74296874Y-99930000D01*
%TO.C,C234*%
X51684374Y-99930000D02*
X51684374Y-100630000D01*
X50484374Y-100630000D02*
X50484374Y-99930000D01*
%TO.C,C233*%
X27871874Y-99930000D02*
X27871874Y-100630000D01*
X26671874Y-100630000D02*
X26671874Y-99930000D01*
%TO.C,C231*%
X299450001Y-81579999D02*
X299450001Y-80879999D01*
X300650001Y-80879999D02*
X300650001Y-81579999D01*
%TO.C,C232*%
X280400001Y-81579999D02*
X280400001Y-80879999D01*
X281600001Y-80879999D02*
X281600001Y-81579999D01*
%TO.C,C230*%
X254206251Y-81579999D02*
X254206251Y-80879999D01*
X255406251Y-80879999D02*
X255406251Y-81579999D01*
%TO.C,C229*%
X310049999Y-61830000D02*
X310049999Y-62530000D01*
X308849999Y-62530000D02*
X308849999Y-61830000D01*
%TO.C,C228*%
X228012501Y-81579999D02*
X228012501Y-80879999D01*
X229212501Y-80879999D02*
X229212501Y-81579999D01*
%TO.C,C227*%
X279093749Y-61830000D02*
X279093749Y-62530000D01*
X277893749Y-62530000D02*
X277893749Y-61830000D01*
%TO.C,C226*%
X208962501Y-81579999D02*
X208962501Y-80879999D01*
X210162501Y-80879999D02*
X210162501Y-81579999D01*
%TO.C,C225*%
X248137499Y-61830000D02*
X248137499Y-62530000D01*
X246937499Y-62530000D02*
X246937499Y-61830000D01*
%TO.C,C224*%
X189912501Y-81579999D02*
X189912501Y-80879999D01*
X191112501Y-80879999D02*
X191112501Y-81579999D01*
%TO.C,C223*%
X229087499Y-61830000D02*
X229087499Y-62530000D01*
X227887499Y-62530000D02*
X227887499Y-61830000D01*
%TO.C,C222*%
X170862501Y-81579999D02*
X170862501Y-80879999D01*
X172062501Y-80879999D02*
X172062501Y-81579999D01*
%TO.C,C221*%
X210037499Y-61830000D02*
X210037499Y-62530000D01*
X208837499Y-62530000D02*
X208837499Y-61830000D01*
%TO.C,C220*%
X151812501Y-81579999D02*
X151812501Y-80879999D01*
X153012501Y-80879999D02*
X153012501Y-81579999D01*
%TO.C,C219*%
X190987499Y-61830000D02*
X190987499Y-62530000D01*
X189787499Y-62530000D02*
X189787499Y-61830000D01*
%TO.C,C218*%
X132762501Y-81579999D02*
X132762501Y-80879999D01*
X133962501Y-80879999D02*
X133962501Y-81579999D01*
%TO.C,C217*%
X171937499Y-61830000D02*
X171937499Y-62530000D01*
X170737499Y-62530000D02*
X170737499Y-61830000D01*
%TO.C,C216*%
X113712501Y-81579999D02*
X113712501Y-80879999D01*
X114912501Y-80879999D02*
X114912501Y-81579999D01*
%TO.C,C215*%
X152887499Y-61830000D02*
X152887499Y-62530000D01*
X151687499Y-62530000D02*
X151687499Y-61830000D01*
%TO.C,C214*%
X94662501Y-81579999D02*
X94662501Y-80879999D01*
X95862501Y-80879999D02*
X95862501Y-81579999D01*
%TO.C,C213*%
X133837499Y-61830000D02*
X133837499Y-62530000D01*
X132637499Y-62530000D02*
X132637499Y-61830000D01*
%TO.C,C212*%
X75612501Y-81579999D02*
X75612501Y-80879999D01*
X76812501Y-80879999D02*
X76812501Y-81579999D01*
%TO.C,C211*%
X114787499Y-61830000D02*
X114787499Y-62530000D01*
X113587499Y-62530000D02*
X113587499Y-61830000D01*
%TO.C,C210*%
X56562501Y-81579999D02*
X56562501Y-80879999D01*
X57762501Y-80879999D02*
X57762501Y-81579999D01*
%TO.C,C209*%
X95737499Y-61830000D02*
X95737499Y-62530000D01*
X94537499Y-62530000D02*
X94537499Y-61830000D01*
%TO.C,C208*%
X37512501Y-81579999D02*
X37512501Y-80879999D01*
X38712501Y-80879999D02*
X38712501Y-81579999D01*
%TO.C,C207*%
X76687499Y-61830000D02*
X76687499Y-62530000D01*
X75487499Y-62530000D02*
X75487499Y-61830000D01*
%TO.C,C206*%
X25606251Y-81579999D02*
X25606251Y-80879999D01*
X26806251Y-80879999D02*
X26806251Y-81579999D01*
%TO.C,C205*%
X57637499Y-61830000D02*
X57637499Y-62530000D01*
X56437499Y-62530000D02*
X56437499Y-61830000D01*
%TO.C,C204*%
X16081251Y-81579999D02*
X16081251Y-80879999D01*
X17281251Y-80879999D02*
X17281251Y-81579999D01*
%TO.C,C203*%
X31443749Y-61830000D02*
X31443749Y-62530000D01*
X30243749Y-62530000D02*
X30243749Y-61830000D01*
%TO.C,C202*%
X299450001Y-43479999D02*
X299450001Y-42779999D01*
X300650001Y-42779999D02*
X300650001Y-43479999D01*
%TO.C,C201*%
X275637501Y-43479999D02*
X275637501Y-42779999D01*
X276837501Y-42779999D02*
X276837501Y-43479999D01*
%TO.C,C200*%
X251825001Y-43479999D02*
X251825001Y-42779999D01*
X253025001Y-42779999D02*
X253025001Y-43479999D01*
%TO.C,C199*%
X232775001Y-43479999D02*
X232775001Y-42779999D01*
X233975001Y-42779999D02*
X233975001Y-43479999D01*
%TO.C,C198*%
X213725001Y-43479999D02*
X213725001Y-42779999D01*
X214925001Y-42779999D02*
X214925001Y-43479999D01*
%TO.C,C197*%
X194675001Y-43479999D02*
X194675001Y-42779999D01*
X195875001Y-42779999D02*
X195875001Y-43479999D01*
%TO.C,C196*%
X175625001Y-43479999D02*
X175625001Y-42779999D01*
X176825001Y-42779999D02*
X176825001Y-43479999D01*
%TO.C,C195*%
X156575001Y-43479999D02*
X156575001Y-42779999D01*
X157775001Y-42779999D02*
X157775001Y-43479999D01*
%TO.C,C194*%
X137525001Y-43479999D02*
X137525001Y-42779999D01*
X138725001Y-42779999D02*
X138725001Y-43479999D01*
%TO.C,C193*%
X118475001Y-43479999D02*
X118475001Y-42779999D01*
X119675001Y-42779999D02*
X119675001Y-43479999D01*
%TO.C,C192*%
X99425001Y-43479999D02*
X99425001Y-42779999D01*
X100625001Y-42779999D02*
X100625001Y-43479999D01*
%TO.C,C191*%
X80375001Y-43479999D02*
X80375001Y-42779999D01*
X81575001Y-42779999D02*
X81575001Y-43479999D01*
%TO.C,C190*%
X61325001Y-43479999D02*
X61325001Y-42779999D01*
X62525001Y-42779999D02*
X62525001Y-43479999D01*
%TO.C,C189*%
X42275001Y-43479999D02*
X42275001Y-42779999D01*
X43475001Y-42779999D02*
X43475001Y-43479999D01*
%TO.C,C188*%
X18462501Y-43479999D02*
X18462501Y-42779999D01*
X19662501Y-42779999D02*
X19662501Y-43479999D01*
%TO.C,C187*%
X310049999Y-23730000D02*
X310049999Y-24430000D01*
X308849999Y-24430000D02*
X308849999Y-23730000D01*
%TO.C,C186*%
X289799999Y-24430000D02*
X289799999Y-23730000D01*
X290999999Y-23730000D02*
X290999999Y-24430000D01*
%TO.C,C183*%
X281474999Y-23730000D02*
X281474999Y-24430000D01*
X280274999Y-24430000D02*
X280274999Y-23730000D01*
%TO.C,C182*%
X271949999Y-23730000D02*
X271949999Y-24430000D01*
X270749999Y-24430000D02*
X270749999Y-23730000D01*
%TO.C,C181*%
X252899999Y-23730000D02*
X252899999Y-24430000D01*
X251699999Y-24430000D02*
X251699999Y-23730000D01*
%TO.C,C180*%
X233849999Y-23730000D02*
X233849999Y-24430000D01*
X232649999Y-24430000D02*
X232649999Y-23730000D01*
%TO.C,C179*%
X214799999Y-23730000D02*
X214799999Y-24430000D01*
X213599999Y-24430000D02*
X213599999Y-23730000D01*
%TO.C,C167*%
X195749999Y-23730000D02*
X195749999Y-24430000D01*
X194549999Y-24430000D02*
X194549999Y-23730000D01*
%TO.C,C166*%
X176699999Y-23730000D02*
X176699999Y-24430000D01*
X175499999Y-24430000D02*
X175499999Y-23730000D01*
%TO.C,C162*%
X157649999Y-23730000D02*
X157649999Y-24430000D01*
X156449999Y-24430000D02*
X156449999Y-23730000D01*
%TO.C,C150*%
X138599999Y-23730000D02*
X138599999Y-24430000D01*
X137399999Y-24430000D02*
X137399999Y-23730000D01*
%TO.C,C110*%
X119549999Y-23730000D02*
X119549999Y-24430000D01*
X118349999Y-24430000D02*
X118349999Y-23730000D01*
%TO.C,C103*%
X100499999Y-23730000D02*
X100499999Y-24430000D01*
X99299999Y-24430000D02*
X99299999Y-23730000D01*
%TO.C,R4*%
X16337500Y-27370000D02*
X16337500Y-26970000D01*
X17187500Y-27370000D02*
X17187500Y-26970000D01*
%TO.C,C104*%
X23099999Y-24430000D02*
X23099999Y-23730000D01*
X24299999Y-23730000D02*
X24299999Y-24430000D01*
%TO.C,C98*%
X81449999Y-23730000D02*
X81449999Y-24430000D01*
X80249999Y-24430000D02*
X80249999Y-23730000D01*
%TO.C,C62*%
X62399999Y-23730000D02*
X62399999Y-24430000D01*
X61199999Y-24430000D02*
X61199999Y-23730000D01*
%TO.C,C50*%
X42149999Y-24430000D02*
X42149999Y-23730000D01*
X43349999Y-23730000D02*
X43349999Y-24430000D01*
D12*
%TO.C,RGB1_A45*%
X281500000Y-99280000D02*
X281500000Y-98380000D01*
X282400000Y-98380000D01*
X281500000Y-99280000D01*
G36*
X281500000Y-99280000D02*
G01*
X281500000Y-98380000D01*
X282400000Y-98380000D01*
X281500000Y-99280000D01*
G37*
%TO.C,RGB1_A44*%
X262450000Y-99280000D02*
X262450000Y-98380000D01*
X263350000Y-98380000D01*
X262450000Y-99280000D01*
G36*
X262450000Y-99280000D02*
G01*
X262450000Y-98380000D01*
X263350000Y-98380000D01*
X262450000Y-99280000D01*
G37*
%TO.C,RGB1_A43*%
X300550000Y-99280000D02*
X300550000Y-98380000D01*
X301450000Y-98380000D01*
X300550000Y-99280000D01*
G36*
X300550000Y-99280000D02*
G01*
X300550000Y-98380000D01*
X301450000Y-98380000D01*
X300550000Y-99280000D01*
G37*
%TO.C,RGB1_A42*%
X230303125Y-99280000D02*
X230303125Y-98380000D01*
X231203125Y-98380000D01*
X230303125Y-99280000D01*
G36*
X230303125Y-99280000D02*
G01*
X230303125Y-98380000D01*
X231203125Y-98380000D01*
X230303125Y-99280000D01*
G37*
%TO.C,RGB1_A40*%
X207681250Y-98280000D02*
X207681250Y-97380000D01*
X208581250Y-97380000D01*
X207681250Y-98280000D01*
G36*
X207681250Y-98280000D02*
G01*
X207681250Y-97380000D01*
X208581250Y-97380000D01*
X207681250Y-98280000D01*
G37*
%TO.C,RGB1_A38*%
X148150000Y-99280000D02*
X148150000Y-98380000D01*
X149050000Y-98380000D01*
X148150000Y-99280000D01*
G36*
X148150000Y-99280000D02*
G01*
X148150000Y-98380000D01*
X149050000Y-98380000D01*
X148150000Y-99280000D01*
G37*
%TO.C,RGB1_A36*%
X136243750Y-99280000D02*
X136243750Y-98380000D01*
X137143750Y-98380000D01*
X136243750Y-99280000D01*
G36*
X136243750Y-99280000D02*
G01*
X136243750Y-98380000D01*
X137143750Y-98380000D01*
X136243750Y-99280000D01*
G37*
%TO.C,RGB1_A34*%
X65996875Y-99280000D02*
X65996875Y-98380000D01*
X66896875Y-98380000D01*
X65996875Y-99280000D01*
G36*
X65996875Y-99280000D02*
G01*
X65996875Y-98380000D01*
X66896875Y-98380000D01*
X65996875Y-99280000D01*
G37*
%TO.C,RGB1_A21*%
X42184375Y-99280000D02*
X42184375Y-98380000D01*
X43084375Y-98380000D01*
X42184375Y-99280000D01*
G36*
X42184375Y-99280000D02*
G01*
X42184375Y-98380000D01*
X43084375Y-98380000D01*
X42184375Y-99280000D01*
G37*
%TO.C,RGB1_A19*%
X18371875Y-99280000D02*
X18371875Y-98380000D01*
X19271875Y-98380000D01*
X18371875Y-99280000D01*
G36*
X18371875Y-99280000D02*
G01*
X18371875Y-98380000D01*
X19271875Y-98380000D01*
X18371875Y-99280000D01*
G37*
%TO.C,RGB1_B31*%
X308950000Y-83129999D02*
X308050000Y-83129999D01*
X308950000Y-82229999D01*
X308950000Y-83129999D01*
G36*
X308950000Y-83129999D02*
G01*
X308050000Y-83129999D01*
X308950000Y-82229999D01*
X308950000Y-83129999D01*
G37*
%TO.C,RGB1_B30*%
X142262500Y-83129999D02*
X141362500Y-83129999D01*
X142262500Y-82229999D01*
X142262500Y-83129999D01*
G36*
X142262500Y-83129999D02*
G01*
X141362500Y-83129999D01*
X142262500Y-82229999D01*
X142262500Y-83129999D01*
G37*
%TO.C,RGB1_B29*%
X161312500Y-83129999D02*
X160412500Y-83129999D01*
X161312500Y-82229999D01*
X161312500Y-83129999D01*
G36*
X161312500Y-83129999D02*
G01*
X160412500Y-83129999D01*
X161312500Y-82229999D01*
X161312500Y-83129999D01*
G37*
%TO.C,RGB1_B28*%
X123212500Y-83129999D02*
X122312500Y-83129999D01*
X123212500Y-82229999D01*
X123212500Y-83129999D01*
G36*
X123212500Y-83129999D02*
G01*
X122312500Y-83129999D01*
X123212500Y-82229999D01*
X123212500Y-83129999D01*
G37*
%TO.C,RGB1_B27*%
X180362500Y-83129999D02*
X179462500Y-83129999D01*
X180362500Y-82229999D01*
X180362500Y-83129999D01*
G36*
X180362500Y-83129999D02*
G01*
X179462500Y-83129999D01*
X180362500Y-82229999D01*
X180362500Y-83129999D01*
G37*
%TO.C,RGB1_B26*%
X104162500Y-83129999D02*
X103262500Y-83129999D01*
X104162500Y-82229999D01*
X104162500Y-83129999D01*
G36*
X104162500Y-83129999D02*
G01*
X103262500Y-83129999D01*
X104162500Y-82229999D01*
X104162500Y-83129999D01*
G37*
%TO.C,RGB1_B25*%
X199412500Y-83129999D02*
X198512500Y-83129999D01*
X199412500Y-82229999D01*
X199412500Y-83129999D01*
G36*
X199412500Y-83129999D02*
G01*
X198512500Y-83129999D01*
X199412500Y-82229999D01*
X199412500Y-83129999D01*
G37*
%TO.C,RGB1_B24*%
X85112500Y-83129999D02*
X84212500Y-83129999D01*
X85112500Y-82229999D01*
X85112500Y-83129999D01*
G36*
X85112500Y-83129999D02*
G01*
X84212500Y-83129999D01*
X85112500Y-82229999D01*
X85112500Y-83129999D01*
G37*
%TO.C,RGB1_B23*%
X218462500Y-83129999D02*
X217562500Y-83129999D01*
X218462500Y-82229999D01*
X218462500Y-83129999D01*
G36*
X218462500Y-83129999D02*
G01*
X217562500Y-83129999D01*
X218462500Y-82229999D01*
X218462500Y-83129999D01*
G37*
%TO.C,RGB1_B22*%
X66062500Y-83129999D02*
X65162500Y-83129999D01*
X66062500Y-82229999D01*
X66062500Y-83129999D01*
G36*
X66062500Y-83129999D02*
G01*
X65162500Y-83129999D01*
X66062500Y-82229999D01*
X66062500Y-83129999D01*
G37*
%TO.C,RGB1_B21*%
X237512500Y-83129999D02*
X236612500Y-83129999D01*
X237512500Y-82229999D01*
X237512500Y-83129999D01*
G36*
X237512500Y-83129999D02*
G01*
X236612500Y-83129999D01*
X237512500Y-82229999D01*
X237512500Y-83129999D01*
G37*
%TO.C,RGB1_B20*%
X47012500Y-83129999D02*
X46112500Y-83129999D01*
X47012500Y-82229999D01*
X47012500Y-83129999D01*
G36*
X47012500Y-83129999D02*
G01*
X46112500Y-83129999D01*
X47012500Y-82229999D01*
X47012500Y-83129999D01*
G37*
%TO.C,RGB1_B19*%
X263706250Y-83129999D02*
X262806250Y-83129999D01*
X263706250Y-82229999D01*
X263706250Y-83129999D01*
G36*
X263706250Y-83129999D02*
G01*
X262806250Y-83129999D01*
X263706250Y-82229999D01*
X263706250Y-83129999D01*
G37*
%TO.C,RGB1_B18*%
X35106250Y-83129999D02*
X34206250Y-83129999D01*
X35106250Y-82229999D01*
X35106250Y-83129999D01*
G36*
X35106250Y-83129999D02*
G01*
X34206250Y-83129999D01*
X35106250Y-82229999D01*
X35106250Y-83129999D01*
G37*
%TO.C,RGB1_B17*%
X289900000Y-83129999D02*
X289000000Y-83129999D01*
X289900000Y-82229999D01*
X289900000Y-83129999D01*
G36*
X289900000Y-83129999D02*
G01*
X289000000Y-83129999D01*
X289900000Y-82229999D01*
X289900000Y-83129999D01*
G37*
%TO.C,RGB1_B16*%
X25581250Y-83129999D02*
X24681250Y-83129999D01*
X25581250Y-82229999D01*
X25581250Y-83129999D01*
G36*
X25581250Y-83129999D02*
G01*
X24681250Y-83129999D01*
X25581250Y-82229999D01*
X25581250Y-83129999D01*
G37*
%TO.C,RGB1_A33*%
X181487500Y-61180000D02*
X181487500Y-60280000D01*
X182387500Y-60280000D01*
X181487500Y-61180000D01*
G36*
X181487500Y-61180000D02*
G01*
X181487500Y-60280000D01*
X182387500Y-60280000D01*
X181487500Y-61180000D01*
G37*
%TO.C,RGB1_A32*%
X162437500Y-61180000D02*
X162437500Y-60280000D01*
X163337500Y-60280000D01*
X162437500Y-61180000D01*
G36*
X162437500Y-61180000D02*
G01*
X162437500Y-60280000D01*
X163337500Y-60280000D01*
X162437500Y-61180000D01*
G37*
%TO.C,RGB1_A31*%
X200537500Y-61180000D02*
X200537500Y-60280000D01*
X201437500Y-60280000D01*
X200537500Y-61180000D01*
G36*
X200537500Y-61180000D02*
G01*
X200537500Y-60280000D01*
X201437500Y-60280000D01*
X200537500Y-61180000D01*
G37*
%TO.C,RGB1_A30*%
X143387500Y-61180000D02*
X143387500Y-60280000D01*
X144287500Y-60280000D01*
X143387500Y-61180000D01*
G36*
X143387500Y-61180000D02*
G01*
X143387500Y-60280000D01*
X144287500Y-60280000D01*
X143387500Y-61180000D01*
G37*
%TO.C,RGB1_A29*%
X219587500Y-61180000D02*
X219587500Y-60280000D01*
X220487500Y-60280000D01*
X219587500Y-61180000D01*
G36*
X219587500Y-61180000D02*
G01*
X219587500Y-60280000D01*
X220487500Y-60280000D01*
X219587500Y-61180000D01*
G37*
%TO.C,RGB1_A28*%
X124337500Y-61180000D02*
X124337500Y-60280000D01*
X125237500Y-60280000D01*
X124337500Y-61180000D01*
G36*
X124337500Y-61180000D02*
G01*
X124337500Y-60280000D01*
X125237500Y-60280000D01*
X124337500Y-61180000D01*
G37*
%TO.C,RGB1_A27*%
X238637500Y-61180000D02*
X238637500Y-60280000D01*
X239537500Y-60280000D01*
X238637500Y-61180000D01*
G36*
X238637500Y-61180000D02*
G01*
X238637500Y-60280000D01*
X239537500Y-60280000D01*
X238637500Y-61180000D01*
G37*
%TO.C,RGB1_A26*%
X105287500Y-61180000D02*
X105287500Y-60280000D01*
X106187500Y-60280000D01*
X105287500Y-61180000D01*
G36*
X105287500Y-61180000D02*
G01*
X105287500Y-60280000D01*
X106187500Y-60280000D01*
X105287500Y-61180000D01*
G37*
%TO.C,RGB1_A25*%
X269593750Y-61180000D02*
X269593750Y-60280000D01*
X270493750Y-60280000D01*
X269593750Y-61180000D01*
G36*
X269593750Y-61180000D02*
G01*
X269593750Y-60280000D01*
X270493750Y-60280000D01*
X269593750Y-61180000D01*
G37*
%TO.C,RGB1_A24*%
X86237500Y-61180000D02*
X86237500Y-60280000D01*
X87137500Y-60280000D01*
X86237500Y-61180000D01*
G36*
X86237500Y-61180000D02*
G01*
X86237500Y-60280000D01*
X87137500Y-60280000D01*
X86237500Y-61180000D01*
G37*
%TO.C,RGB1_A23*%
X300550000Y-61180000D02*
X300550000Y-60280000D01*
X301450000Y-60280000D01*
X300550000Y-61180000D01*
G36*
X300550000Y-61180000D02*
G01*
X300550000Y-60280000D01*
X301450000Y-60280000D01*
X300550000Y-61180000D01*
G37*
%TO.C,RGB1_A22*%
X67187500Y-61180000D02*
X67187500Y-60280000D01*
X68087500Y-60280000D01*
X67187500Y-61180000D01*
G36*
X67187500Y-61180000D02*
G01*
X67187500Y-60280000D01*
X68087500Y-60280000D01*
X67187500Y-61180000D01*
G37*
%TO.C,RGB1_A20*%
X48137500Y-61180000D02*
X48137500Y-60280000D01*
X49037500Y-60280000D01*
X48137500Y-61180000D01*
G36*
X48137500Y-61180000D02*
G01*
X48137500Y-60280000D01*
X49037500Y-60280000D01*
X48137500Y-61180000D01*
G37*
%TO.C,RGB1_A18*%
X21943750Y-61180000D02*
X21943750Y-60280000D01*
X22843750Y-60280000D01*
X21943750Y-61180000D01*
G36*
X21943750Y-61180000D02*
G01*
X21943750Y-60280000D01*
X22843750Y-60280000D01*
X21943750Y-61180000D01*
G37*
%TO.C,RGB1_A16*%
X14800000Y-23080000D02*
X14800000Y-22180000D01*
X15700000Y-22180000D01*
X14800000Y-23080000D01*
G36*
X14800000Y-23080000D02*
G01*
X14800000Y-22180000D01*
X15700000Y-22180000D01*
X14800000Y-23080000D01*
G37*
%TO.C,RGB1_A15*%
X281500000Y-23080000D02*
X281500000Y-22180000D01*
X282400000Y-22180000D01*
X281500000Y-23080000D01*
G36*
X281500000Y-23080000D02*
G01*
X281500000Y-22180000D01*
X282400000Y-22180000D01*
X281500000Y-23080000D01*
G37*
%TO.C,RGB1_A14*%
X271975000Y-23080000D02*
X271975000Y-22180000D01*
X272875000Y-22180000D01*
X271975000Y-23080000D01*
G36*
X271975000Y-23080000D02*
G01*
X271975000Y-22180000D01*
X272875000Y-22180000D01*
X271975000Y-23080000D01*
G37*
%TO.C,RGB1_A13*%
X262450000Y-23080000D02*
X262450000Y-22180000D01*
X263350000Y-22180000D01*
X262450000Y-23080000D01*
G36*
X262450000Y-23080000D02*
G01*
X262450000Y-22180000D01*
X263350000Y-22180000D01*
X262450000Y-23080000D01*
G37*
%TO.C,RGB1_A12*%
X243400000Y-23080000D02*
X243400000Y-22180000D01*
X244300000Y-22180000D01*
X243400000Y-23080000D01*
G36*
X243400000Y-23080000D02*
G01*
X243400000Y-22180000D01*
X244300000Y-22180000D01*
X243400000Y-23080000D01*
G37*
%TO.C,RGB1_A11*%
X224350000Y-23080000D02*
X224350000Y-22180000D01*
X225250000Y-22180000D01*
X224350000Y-23080000D01*
G36*
X224350000Y-23080000D02*
G01*
X224350000Y-22180000D01*
X225250000Y-22180000D01*
X224350000Y-23080000D01*
G37*
%TO.C,RGB1_A10*%
X205300000Y-23080000D02*
X205300000Y-22180000D01*
X206200000Y-22180000D01*
X205300000Y-23080000D01*
G36*
X205300000Y-23080000D02*
G01*
X205300000Y-22180000D01*
X206200000Y-22180000D01*
X205300000Y-23080000D01*
G37*
%TO.C,RGB1_A9*%
X186250000Y-23080000D02*
X186250000Y-22180000D01*
X187150000Y-22180000D01*
X186250000Y-23080000D01*
G36*
X186250000Y-23080000D02*
G01*
X186250000Y-22180000D01*
X187150000Y-22180000D01*
X186250000Y-23080000D01*
G37*
%TO.C,RGB1_A8*%
X167200000Y-23080000D02*
X167200000Y-22180000D01*
X168100000Y-22180000D01*
X167200000Y-23080000D01*
G36*
X167200000Y-23080000D02*
G01*
X167200000Y-22180000D01*
X168100000Y-22180000D01*
X167200000Y-23080000D01*
G37*
%TO.C,RGB1_A7*%
X148150000Y-23080000D02*
X148150000Y-22180000D01*
X149050000Y-22180000D01*
X148150000Y-23080000D01*
G36*
X148150000Y-23080000D02*
G01*
X148150000Y-22180000D01*
X149050000Y-22180000D01*
X148150000Y-23080000D01*
G37*
%TO.C,RGB1_A6*%
X129100000Y-23080000D02*
X129100000Y-22180000D01*
X130000000Y-22180000D01*
X129100000Y-23080000D01*
G36*
X129100000Y-23080000D02*
G01*
X129100000Y-22180000D01*
X130000000Y-22180000D01*
X129100000Y-23080000D01*
G37*
%TO.C,RGB1_A5*%
X110050000Y-23080000D02*
X110050000Y-22180000D01*
X110950000Y-22180000D01*
X110050000Y-23080000D01*
G36*
X110050000Y-23080000D02*
G01*
X110050000Y-22180000D01*
X110950000Y-22180000D01*
X110050000Y-23080000D01*
G37*
%TO.C,RGB1_A4*%
X91000000Y-23080000D02*
X91000000Y-22180000D01*
X91900000Y-22180000D01*
X91000000Y-23080000D01*
G36*
X91000000Y-23080000D02*
G01*
X91000000Y-22180000D01*
X91900000Y-22180000D01*
X91000000Y-23080000D01*
G37*
%TO.C,RGB1_A3*%
X71950000Y-23080000D02*
X71950000Y-22180000D01*
X72850000Y-22180000D01*
X71950000Y-23080000D01*
G36*
X71950000Y-23080000D02*
G01*
X71950000Y-22180000D01*
X72850000Y-22180000D01*
X71950000Y-23080000D01*
G37*
%TO.C,RGB1_A2*%
X52900000Y-23080000D02*
X52900000Y-22180000D01*
X53800000Y-22180000D01*
X52900000Y-23080000D01*
G36*
X52900000Y-23080000D02*
G01*
X52900000Y-22180000D01*
X53800000Y-22180000D01*
X52900000Y-23080000D01*
G37*
%TO.C,RGB1_A1*%
X33850000Y-23080000D02*
X33850000Y-22180000D01*
X34750000Y-22180000D01*
X33850000Y-23080000D01*
G36*
X33850000Y-23080000D02*
G01*
X33850000Y-22180000D01*
X34750000Y-22180000D01*
X33850000Y-23080000D01*
G37*
%TO.C,RGB1_B15*%
X27962500Y-45029999D02*
X27062500Y-45029999D01*
X27962500Y-44129999D01*
X27962500Y-45029999D01*
G36*
X27962500Y-45029999D02*
G01*
X27062500Y-45029999D01*
X27962500Y-44129999D01*
X27962500Y-45029999D01*
G37*
%TO.C,RGB1_B14*%
X51775000Y-45029999D02*
X50875000Y-45029999D01*
X51775000Y-44129999D01*
X51775000Y-45029999D01*
G36*
X51775000Y-45029999D02*
G01*
X50875000Y-45029999D01*
X51775000Y-44129999D01*
X51775000Y-45029999D01*
G37*
%TO.C,RGB1_B13*%
X70825000Y-45029999D02*
X69925000Y-45029999D01*
X70825000Y-44129999D01*
X70825000Y-45029999D01*
G36*
X70825000Y-45029999D02*
G01*
X69925000Y-45029999D01*
X70825000Y-44129999D01*
X70825000Y-45029999D01*
G37*
%TO.C,RGB1_B12*%
X89875000Y-45029999D02*
X88975000Y-45029999D01*
X89875000Y-44129999D01*
X89875000Y-45029999D01*
G36*
X89875000Y-45029999D02*
G01*
X88975000Y-45029999D01*
X89875000Y-44129999D01*
X89875000Y-45029999D01*
G37*
%TO.C,RGB1_B11*%
X108925000Y-45029999D02*
X108025000Y-45029999D01*
X108925000Y-44129999D01*
X108925000Y-45029999D01*
G36*
X108925000Y-45029999D02*
G01*
X108025000Y-45029999D01*
X108925000Y-44129999D01*
X108925000Y-45029999D01*
G37*
%TO.C,RGB1_B10*%
X127975000Y-45029999D02*
X127075000Y-45029999D01*
X127975000Y-44129999D01*
X127975000Y-45029999D01*
G36*
X127975000Y-45029999D02*
G01*
X127075000Y-45029999D01*
X127975000Y-44129999D01*
X127975000Y-45029999D01*
G37*
%TO.C,RGB1_B9*%
X147025000Y-45029999D02*
X146125000Y-45029999D01*
X147025000Y-44129999D01*
X147025000Y-45029999D01*
G36*
X147025000Y-45029999D02*
G01*
X146125000Y-45029999D01*
X147025000Y-44129999D01*
X147025000Y-45029999D01*
G37*
%TO.C,RGB1_B8*%
X166075000Y-45029999D02*
X165175000Y-45029999D01*
X166075000Y-44129999D01*
X166075000Y-45029999D01*
G36*
X166075000Y-45029999D02*
G01*
X165175000Y-45029999D01*
X166075000Y-44129999D01*
X166075000Y-45029999D01*
G37*
%TO.C,RGB1_B7*%
X185125000Y-45029999D02*
X184225000Y-45029999D01*
X185125000Y-44129999D01*
X185125000Y-45029999D01*
G36*
X185125000Y-45029999D02*
G01*
X184225000Y-45029999D01*
X185125000Y-44129999D01*
X185125000Y-45029999D01*
G37*
%TO.C,RGB1_B6*%
X204175000Y-45029999D02*
X203275000Y-45029999D01*
X204175000Y-44129999D01*
X204175000Y-45029999D01*
G36*
X204175000Y-45029999D02*
G01*
X203275000Y-45029999D01*
X204175000Y-44129999D01*
X204175000Y-45029999D01*
G37*
%TO.C,RGB1_B5*%
X223225000Y-45029999D02*
X222325000Y-45029999D01*
X223225000Y-44129999D01*
X223225000Y-45029999D01*
G36*
X223225000Y-45029999D02*
G01*
X222325000Y-45029999D01*
X223225000Y-44129999D01*
X223225000Y-45029999D01*
G37*
%TO.C,RGB1_B4*%
X242275000Y-45029999D02*
X241375000Y-45029999D01*
X242275000Y-44129999D01*
X242275000Y-45029999D01*
G36*
X242275000Y-45029999D02*
G01*
X241375000Y-45029999D01*
X242275000Y-44129999D01*
X242275000Y-45029999D01*
G37*
%TO.C,RGB1_B3*%
X261325000Y-45029999D02*
X260425000Y-45029999D01*
X261325000Y-44129999D01*
X261325000Y-45029999D01*
G36*
X261325000Y-45029999D02*
G01*
X260425000Y-45029999D01*
X261325000Y-44129999D01*
X261325000Y-45029999D01*
G37*
%TO.C,RGB1_B2*%
X285137500Y-45029999D02*
X284237500Y-45029999D01*
X285137500Y-44129999D01*
X285137500Y-45029999D01*
G36*
X285137500Y-45029999D02*
G01*
X284237500Y-45029999D01*
X285137500Y-44129999D01*
X285137500Y-45029999D01*
G37*
%TO.C,RGB1_B1*%
X308950000Y-45029999D02*
X308050000Y-45029999D01*
X308950000Y-44129999D01*
X308950000Y-45029999D01*
G36*
X308950000Y-45029999D02*
G01*
X308050000Y-45029999D01*
X308950000Y-44129999D01*
X308950000Y-45029999D01*
G37*
D11*
%TO.C,C33*%
X55025000Y-18050000D02*
X55025000Y-18450000D01*
X54175000Y-18050000D02*
X54175000Y-18450000D01*
%TO.C,C73*%
X179087500Y-75200000D02*
X179087500Y-75600000D01*
X178237500Y-75200000D02*
X178237500Y-75600000D01*
%TO.C,C160*%
X283625000Y-94250000D02*
X283625000Y-94650000D01*
X282775000Y-94250000D02*
X282775000Y-94650000D01*
%TO.C,SW1*%
X50870000Y-54170000D02*
X50570000Y-54170000D01*
X50870000Y-50030000D02*
X50870000Y-54170000D01*
X50570000Y-50030000D02*
X50870000Y-50030000D01*
X48030000Y-54170000D02*
X47730000Y-54170000D01*
X47730000Y-54170000D02*
X47730000Y-50030000D01*
X47730000Y-50030000D02*
X48030000Y-50030000D01*
%TO.C,C60*%
X169562500Y-56150000D02*
X169562500Y-56550000D01*
X168712500Y-56150000D02*
X168712500Y-56550000D01*
%TO.C,C13*%
X41521045Y-56314976D02*
X41803888Y-56032133D01*
X40920004Y-55713935D02*
X41202847Y-55431092D01*
D13*
%TO.C,U25*%
X63422500Y-76170001D02*
X63422500Y-76820000D01*
X63422500Y-76170001D02*
X63422500Y-75520000D01*
X60302500Y-76170001D02*
X60302500Y-76820000D01*
X60302500Y-76170001D02*
X60302500Y-74495000D01*
D11*
%TO.C,C22*%
X40975000Y-18050000D02*
X40975000Y-18450000D01*
X40125000Y-18050000D02*
X40125000Y-18450000D01*
D13*
%TO.C,U23*%
X68185000Y-38070001D02*
X68185000Y-38720000D01*
X68185000Y-38070001D02*
X68185000Y-37420000D01*
X65065000Y-38070001D02*
X65065000Y-38720000D01*
X65065000Y-38070001D02*
X65065000Y-36395000D01*
D11*
%TO.C,U56*%
X211602500Y-52440938D02*
X211122500Y-52440938D01*
X211362500Y-52110938D01*
X211602500Y-52440938D01*
G36*
X211602500Y-52440938D02*
G01*
X211122500Y-52440938D01*
X211362500Y-52110938D01*
X211602500Y-52440938D01*
G37*
D14*
X216587500Y-52085938D02*
X211937500Y-52085938D01*
X216587500Y-46635938D02*
X211937500Y-46635938D01*
D11*
%TO.C,C125*%
X145512500Y-56150000D02*
X145512500Y-56550000D01*
X144662500Y-56150000D02*
X144662500Y-56550000D01*
%TO.C,C23*%
X50500000Y-37100000D02*
X50500000Y-37500000D01*
X49650000Y-37100000D02*
X49650000Y-37500000D01*
%TO.C,U63*%
X73260000Y-33724344D02*
X72780000Y-33724344D01*
X73020000Y-33394344D01*
X73260000Y-33724344D01*
G36*
X73260000Y-33724344D02*
G01*
X72780000Y-33724344D01*
X73020000Y-33394344D01*
X73260000Y-33724344D01*
G37*
X78060000Y-33494344D02*
X74300000Y-33494344D01*
X78060000Y-32234344D02*
X78060000Y-33494344D01*
X78060000Y-27934344D02*
X78060000Y-26674344D01*
X78060000Y-26674344D02*
X74300000Y-26674344D01*
%TO.C,TP3*%
X33300000Y-48334344D02*
G75*
G02*
X31900000Y-48334344I-700000J0D01*
G01*
X31900000Y-48334344D02*
G75*
G02*
X33300000Y-48334344I700000J0D01*
G01*
%TO.C,C18*%
X29068750Y-56150000D02*
X29068750Y-56550000D01*
X28218750Y-56150000D02*
X28218750Y-56550000D01*
%TO.C,C123*%
X183612500Y-56150000D02*
X183612500Y-56550000D01*
X182762500Y-56150000D02*
X182762500Y-56550000D01*
%TO.C,C17*%
X26687500Y-37100000D02*
X26687500Y-37500000D01*
X25837500Y-37100000D02*
X25837500Y-37500000D01*
D13*
%TO.C,U30*%
X91997500Y-57120001D02*
X91997500Y-57770000D01*
X91997500Y-57120001D02*
X91997500Y-56470000D01*
X88877500Y-57120001D02*
X88877500Y-57770000D01*
X88877500Y-57120001D02*
X88877500Y-55445000D01*
D11*
%TO.C,C105*%
X197900000Y-37100000D02*
X197900000Y-37500000D01*
X197050000Y-37100000D02*
X197050000Y-37500000D01*
%TO.C,C99*%
X140750000Y-37100000D02*
X140750000Y-37500000D01*
X139900000Y-37100000D02*
X139900000Y-37500000D01*
%TO.C,R3*%
X29975000Y-18204656D02*
X29975000Y-18604656D01*
X29125000Y-18204656D02*
X29125000Y-18604656D01*
%TO.C,C122*%
X69312500Y-56150000D02*
X69312500Y-56550000D01*
X68462500Y-56150000D02*
X68462500Y-56550000D01*
%TO.C,C71*%
X202900000Y-37100000D02*
X202900000Y-37500000D01*
X202050000Y-37100000D02*
X202050000Y-37500000D01*
%TO.C,C3*%
X303158750Y-71210938D02*
X303558750Y-71210938D01*
X303158750Y-70360938D02*
X303558750Y-70360938D01*
%TO.C,Y1*%
X46311693Y-53186029D02*
X46028850Y-52903186D01*
X46170271Y-53327450D02*
X45887429Y-53044607D01*
X46170271Y-53327450D02*
X45463165Y-54034557D01*
X46028850Y-52903186D02*
X44614636Y-51488972D01*
X45746007Y-54317399D02*
X45463165Y-54034557D01*
X44473215Y-51630394D02*
X45887429Y-53044607D01*
X44190372Y-55307349D02*
X43624687Y-55873034D01*
X43766108Y-52337500D02*
X44473215Y-51630394D01*
X43624687Y-55873034D02*
X43341844Y-55590192D01*
X43341844Y-55590192D02*
X41927631Y-54175978D01*
X41927631Y-54175978D02*
X42493316Y-53610293D01*
D13*
%TO.C,U66*%
X206297500Y-57120001D02*
X206297500Y-57770000D01*
X206297500Y-57120001D02*
X206297500Y-56470000D01*
X203177500Y-57120001D02*
X203177500Y-57770000D01*
X203177500Y-57120001D02*
X203177500Y-55445000D01*
D11*
%TO.C,C44*%
X112175000Y-18050000D02*
X112175000Y-18450000D01*
X111325000Y-18050000D02*
X111325000Y-18450000D01*
%TO.C,C19*%
X24306250Y-75200000D02*
X24306250Y-75600000D01*
X23456250Y-75200000D02*
X23456250Y-75600000D01*
%TO.C,C5*%
X142662500Y-52060938D02*
X143062500Y-52060938D01*
X142662500Y-51210938D02*
X143062500Y-51210938D01*
D13*
%TO.C,U75*%
X22941250Y-76820000D02*
X22941250Y-76170000D01*
X22941250Y-75520000D02*
X22941250Y-76170000D01*
X19821250Y-76820000D02*
X19821250Y-76170000D01*
X19821250Y-74495000D02*
X19821250Y-76170000D01*
D11*
%TO.C,C24*%
X55262500Y-56150000D02*
X55262500Y-56550000D01*
X54412500Y-56150000D02*
X54412500Y-56550000D01*
D13*
%TO.C,U72*%
X225347500Y-57120001D02*
X225347500Y-57770000D01*
X225347500Y-57120001D02*
X225347500Y-56470000D01*
X222227500Y-57120001D02*
X222227500Y-57770000D01*
X222227500Y-57120001D02*
X222227500Y-55445000D01*
D11*
%TO.C,C117*%
X21687500Y-37100000D02*
X21687500Y-37500000D01*
X20837500Y-37100000D02*
X20837500Y-37500000D01*
%TO.C,C30*%
X74312500Y-56150000D02*
X74312500Y-56550000D01*
X73462500Y-56150000D02*
X73462500Y-56550000D01*
D13*
%TO.C,U79*%
X234872500Y-76170001D02*
X234872500Y-76820000D01*
X234872500Y-76170001D02*
X234872500Y-75520000D01*
X231752500Y-76170001D02*
X231752500Y-76820000D01*
X231752500Y-76170001D02*
X231752500Y-74495000D01*
D11*
%TO.C,C128*%
X88362500Y-56150000D02*
X88362500Y-56550000D01*
X87512500Y-56150000D02*
X87512500Y-56550000D01*
%TO.C,C56*%
X274100000Y-18050000D02*
X274100000Y-18450000D01*
X273250000Y-18050000D02*
X273250000Y-18450000D01*
%TO.C,U45*%
X135402500Y-52440938D02*
X134922500Y-52440938D01*
X135162500Y-52110938D01*
X135402500Y-52440938D01*
G36*
X135402500Y-52440938D02*
G01*
X134922500Y-52440938D01*
X135162500Y-52110938D01*
X135402500Y-52440938D01*
G37*
D14*
X140387500Y-52085938D02*
X135737500Y-52085938D01*
X140387500Y-46635938D02*
X135737500Y-46635938D01*
D11*
%TO.C,C35*%
X88600000Y-37100000D02*
X88600000Y-37500000D01*
X87750000Y-37100000D02*
X87750000Y-37500000D01*
%TO.C,C36*%
X93362500Y-56150000D02*
X93362500Y-56550000D01*
X92512500Y-56150000D02*
X92512500Y-56550000D01*
D13*
%TO.C,U55*%
X158672500Y-76170001D02*
X158672500Y-76820000D01*
X158672500Y-76170001D02*
X158672500Y-75520000D01*
X155552500Y-76170001D02*
X155552500Y-76820000D01*
X155552500Y-76170001D02*
X155552500Y-74495000D01*
D11*
%TO.C,C58*%
X155275000Y-18050000D02*
X155275000Y-18450000D01*
X154425000Y-18050000D02*
X154425000Y-18450000D01*
D13*
%TO.C,U82*%
X249160000Y-19020001D02*
X249160000Y-19670000D01*
X249160000Y-19020001D02*
X249160000Y-18370000D01*
X246040000Y-19020001D02*
X246040000Y-19670000D01*
X246040000Y-19020001D02*
X246040000Y-17345000D01*
D11*
%TO.C,C173*%
X288625000Y-94250000D02*
X288625000Y-94650000D01*
X287775000Y-94250000D02*
X287775000Y-94650000D01*
D13*
%TO.C,U77*%
X239635000Y-38070001D02*
X239635000Y-38720000D01*
X239635000Y-38070001D02*
X239635000Y-37420000D01*
X236515000Y-38070001D02*
X236515000Y-38720000D01*
X236515000Y-38070001D02*
X236515000Y-36395000D01*
D11*
%TO.C,C75*%
X264575000Y-18050000D02*
X264575000Y-18450000D01*
X263725000Y-18050000D02*
X263725000Y-18450000D01*
%TO.C,C171*%
X78437500Y-96475000D02*
X78837500Y-96475000D01*
X78437500Y-95625000D02*
X78837500Y-95625000D01*
%TO.C,C129*%
X107412500Y-56150000D02*
X107412500Y-56550000D01*
X106562500Y-56150000D02*
X106562500Y-56550000D01*
%TO.C,C176*%
X242743750Y-96475000D02*
X243143750Y-96475000D01*
X242743750Y-95625000D02*
X243143750Y-95625000D01*
%TO.C,C127*%
X50262500Y-56150000D02*
X50262500Y-56550000D01*
X49412500Y-56150000D02*
X49412500Y-56550000D01*
D13*
%TO.C,U58*%
X172960000Y-19020001D02*
X172960000Y-19670000D01*
X172960000Y-19020001D02*
X172960000Y-18370000D01*
X169840000Y-19020001D02*
X169840000Y-19670000D01*
X169840000Y-19020001D02*
X169840000Y-17345000D01*
%TO.C,U31*%
X82472500Y-76170001D02*
X82472500Y-76820000D01*
X82472500Y-76170001D02*
X82472500Y-75520000D01*
X79352500Y-76170001D02*
X79352500Y-76820000D01*
X79352500Y-76170001D02*
X79352500Y-74495000D01*
%TO.C,U89*%
X282497500Y-38720000D02*
X282497500Y-38070000D01*
X282497500Y-37420000D02*
X282497500Y-38070000D01*
X279377500Y-38720000D02*
X279377500Y-38070000D01*
X279377500Y-36395000D02*
X279377500Y-38070000D01*
%TO.C,U92*%
X268210000Y-95220001D02*
X268210000Y-95870000D01*
X268210000Y-95220001D02*
X268210000Y-94570000D01*
X265090000Y-95220001D02*
X265090000Y-95870000D01*
X265090000Y-95220001D02*
X265090000Y-93545000D01*
%TO.C,U37*%
X101522500Y-76170001D02*
X101522500Y-76820000D01*
X101522500Y-76170001D02*
X101522500Y-75520000D01*
X98402500Y-76170001D02*
X98402500Y-76820000D01*
X98402500Y-76170001D02*
X98402500Y-74495000D01*
%TO.C,U18*%
X53897500Y-57120001D02*
X53897500Y-57770000D01*
X53897500Y-57120001D02*
X53897500Y-56470000D01*
X50777500Y-57120001D02*
X50777500Y-57770000D01*
X50777500Y-57120001D02*
X50777500Y-55445000D01*
D11*
%TO.C,C66*%
X188612500Y-56150000D02*
X188612500Y-56550000D01*
X187762500Y-56150000D02*
X187762500Y-56550000D01*
%TO.C,C141*%
X78837500Y-75200000D02*
X78837500Y-75600000D01*
X77987500Y-75200000D02*
X77987500Y-75600000D01*
D13*
%TO.C,U65*%
X201535000Y-38070001D02*
X201535000Y-38720000D01*
X201535000Y-38070001D02*
X201535000Y-37420000D01*
X198415000Y-38070001D02*
X198415000Y-38720000D01*
X198415000Y-38070001D02*
X198415000Y-36395000D01*
D11*
%TO.C,C72*%
X207662500Y-56150000D02*
X207662500Y-56550000D01*
X206812500Y-56150000D02*
X206812500Y-56550000D01*
%TO.C,C41*%
X107650000Y-37100000D02*
X107650000Y-37500000D01*
X106800000Y-37100000D02*
X106800000Y-37500000D01*
%TO.C,C95*%
X283862500Y-37100000D02*
X283862500Y-37500000D01*
X283012500Y-37100000D02*
X283012500Y-37500000D01*
D13*
%TO.C,U10*%
X20560000Y-19020001D02*
X20560000Y-19670000D01*
X20560000Y-19020001D02*
X20560000Y-18370000D01*
X17440000Y-19020001D02*
X17440000Y-19670000D01*
X17440000Y-19020001D02*
X17440000Y-17345000D01*
D11*
%TO.C,C34*%
X79075000Y-18050000D02*
X79075000Y-18450000D01*
X78225000Y-18050000D02*
X78225000Y-18450000D01*
%TO.C,C155*%
X104562500Y-52060938D02*
X104962500Y-52060938D01*
X104562500Y-51210938D02*
X104962500Y-51210938D01*
%TO.C,C151*%
X252200000Y-52060938D02*
X252600000Y-52060938D01*
X252200000Y-51210938D02*
X252600000Y-51210938D01*
D13*
%TO.C,U26*%
X70661250Y-93640000D02*
X68986250Y-93640000D01*
X69636250Y-96760000D02*
X68986250Y-96760000D01*
X68336250Y-96760000D02*
X68986250Y-96760000D01*
X68336250Y-93640000D02*
X68986250Y-93640000D01*
%TO.C,U12*%
X27703750Y-57770000D02*
X27703750Y-57120000D01*
X27703750Y-56470000D02*
X27703750Y-57120000D01*
X24583750Y-57770000D02*
X24583750Y-57120000D01*
X24583750Y-55445000D02*
X24583750Y-57120000D01*
D11*
%TO.C,C28*%
X60025000Y-18050000D02*
X60025000Y-18450000D01*
X59175000Y-18050000D02*
X59175000Y-18450000D01*
D13*
%TO.C,U83*%
X258685000Y-38070001D02*
X258685000Y-38720000D01*
X258685000Y-38070001D02*
X258685000Y-37420000D01*
X255565000Y-38070001D02*
X255565000Y-38720000D01*
X255565000Y-38070001D02*
X255565000Y-36395000D01*
D11*
%TO.C,C140*%
X155037500Y-75200000D02*
X155037500Y-75600000D01*
X154187500Y-75200000D02*
X154187500Y-75600000D01*
D13*
%TO.C,U101*%
X306310000Y-38070001D02*
X306310000Y-38720000D01*
X306310000Y-38070001D02*
X306310000Y-37420000D01*
X303190000Y-38070001D02*
X303190000Y-38720000D01*
X303190000Y-38070001D02*
X303190000Y-36395000D01*
D15*
%TO.C,U33*%
X44562500Y-69165000D02*
G75*
G02*
X41062500Y-69165000I-1750000J0D01*
G01*
X41062500Y-69165000D02*
G75*
G02*
X44562500Y-69165000I1750000J0D01*
G01*
X20750000Y-69165000D02*
G75*
G02*
X17250000Y-69165000I-1750000J0D01*
G01*
X17250000Y-69165000D02*
G75*
G02*
X20750000Y-69165000I1750000J0D01*
G01*
X43812500Y-86405000D02*
G75*
G02*
X41813551Y-86405525I-1000000J1999998D01*
G01*
X20000000Y-86405000D02*
G75*
G02*
X18001051Y-86405525I-1000000J2000000D01*
G01*
D13*
X32466250Y-76820000D02*
X32466250Y-76170000D01*
X32466250Y-75520000D02*
X32466250Y-76170000D01*
X29346250Y-76820000D02*
X29346250Y-76170000D01*
X29346250Y-74495000D02*
X29346250Y-76170000D01*
D11*
%TO.C,C96*%
X121700000Y-37100000D02*
X121700000Y-37500000D01*
X120850000Y-37100000D02*
X120850000Y-37500000D01*
%TO.C,U27*%
X42627666Y-52273860D02*
X42224616Y-52337500D01*
X42288255Y-51934449D01*
X42627666Y-52273860D01*
G36*
X42627666Y-52273860D02*
G01*
X42224616Y-52337500D01*
X42288255Y-51934449D01*
X42627666Y-52273860D01*
G37*
X42054910Y-52507206D02*
X41977128Y-52584987D01*
X39488112Y-55074003D02*
X39240625Y-55321491D01*
X39240625Y-55321491D02*
X38993138Y-55074003D01*
X39240625Y-49353509D02*
X39488112Y-49600997D01*
X38993138Y-49600997D02*
X39240625Y-49353509D01*
X36504122Y-52090013D02*
X36256634Y-52337500D01*
X36256634Y-52337500D02*
X36504122Y-52584987D01*
%TO.C,C43*%
X83837500Y-75200000D02*
X83837500Y-75600000D01*
X82987500Y-75200000D02*
X82987500Y-75600000D01*
%TO.C,C2*%
X28362500Y-52060938D02*
X28762500Y-52060938D01*
X28362500Y-51210938D02*
X28762500Y-51210938D01*
%TO.C,C184*%
X307675000Y-37100000D02*
X307675000Y-37500000D01*
X306825000Y-37100000D02*
X306825000Y-37500000D01*
%TO.C,C93*%
X45500000Y-37100000D02*
X45500000Y-37500000D01*
X44650000Y-37100000D02*
X44650000Y-37500000D01*
%TO.C,C130*%
X24068750Y-56150000D02*
X24068750Y-56550000D01*
X23218750Y-56150000D02*
X23218750Y-56550000D01*
%TO.C,C14*%
X20962500Y-32921875D02*
X20562500Y-32921875D01*
X20962500Y-32071875D02*
X20562500Y-32071875D01*
%TO.C,C89*%
X260050000Y-37100000D02*
X260050000Y-37500000D01*
X259200000Y-37100000D02*
X259200000Y-37500000D01*
D13*
%TO.C,U104*%
X306310000Y-95220001D02*
X306310000Y-95870000D01*
X306310000Y-95220001D02*
X306310000Y-94570000D01*
X303190000Y-95220001D02*
X303190000Y-95870000D01*
X303190000Y-95220001D02*
X303190000Y-93545000D01*
D11*
%TO.C,C177*%
X155275000Y-94250000D02*
X155275000Y-94650000D01*
X154425000Y-94250000D02*
X154425000Y-94650000D01*
%TO.C,C63*%
X169325000Y-18050000D02*
X169325000Y-18450000D01*
X168475000Y-18050000D02*
X168475000Y-18450000D01*
%TO.C,C88*%
X250525000Y-18050000D02*
X250525000Y-18450000D01*
X249675000Y-18050000D02*
X249675000Y-18450000D01*
%TO.C,U51*%
X173502500Y-52440938D02*
X173022500Y-52440938D01*
X173262500Y-52110938D01*
X173502500Y-52440938D01*
G36*
X173502500Y-52440938D02*
G01*
X173022500Y-52440938D01*
X173262500Y-52110938D01*
X173502500Y-52440938D01*
G37*
D14*
X178487500Y-52085938D02*
X173837500Y-52085938D01*
X178487500Y-46635938D02*
X173837500Y-46635938D01*
D13*
%TO.C,U17*%
X49135000Y-38070001D02*
X49135000Y-38720000D01*
X49135000Y-38070001D02*
X49135000Y-37420000D01*
X46015000Y-38070001D02*
X46015000Y-38720000D01*
X46015000Y-38070001D02*
X46015000Y-36395000D01*
D11*
%TO.C,C4*%
X252200000Y-71210938D02*
X252600000Y-71210938D01*
X252200000Y-70360938D02*
X252600000Y-70360938D01*
%TO.C,C37*%
X64787500Y-75200000D02*
X64787500Y-75600000D01*
X63937500Y-75200000D02*
X63937500Y-75600000D01*
%TO.C,TP4*%
X39940625Y-47537500D02*
G75*
G02*
X38540625Y-47537500I-700000J0D01*
G01*
X38540625Y-47537500D02*
G75*
G02*
X39940625Y-47537500I700000J0D01*
G01*
D13*
%TO.C,U102*%
X306310000Y-57120001D02*
X306310000Y-57770000D01*
X306310000Y-57120001D02*
X306310000Y-56470000D01*
X303190000Y-57120001D02*
X303190000Y-57770000D01*
X303190000Y-57120001D02*
X303190000Y-55445000D01*
D11*
%TO.C,C137*%
X212187500Y-75200000D02*
X212187500Y-75600000D01*
X211337500Y-75200000D02*
X211337500Y-75600000D01*
%TO.C,C168*%
X33831250Y-75200000D02*
X33831250Y-75600000D01*
X32981250Y-75200000D02*
X32981250Y-75600000D01*
D15*
%TO.C,U3*%
X289831250Y-12015000D02*
G75*
G02*
X286331250Y-12015000I-1750000J0D01*
G01*
X286331250Y-12015000D02*
G75*
G02*
X289831250Y-12015000I1750000J0D01*
G01*
X266018750Y-12015000D02*
G75*
G02*
X262518750Y-12015000I-1750000J0D01*
G01*
X262518750Y-12015000D02*
G75*
G02*
X266018750Y-12015000I1750000J0D01*
G01*
X289081250Y-29255000D02*
G75*
G02*
X287082301Y-29255525I-1000000J1999998D01*
G01*
X265268750Y-29255000D02*
G75*
G02*
X263269801Y-29255525I-1000000J2000000D01*
G01*
D13*
X277735000Y-19670000D02*
X277735000Y-19020000D01*
X277735000Y-18370000D02*
X277735000Y-19020000D01*
X274615000Y-19670000D02*
X274615000Y-19020000D01*
X274615000Y-17345000D02*
X274615000Y-19020000D01*
D11*
%TO.C,C113*%
X271718750Y-56150000D02*
X271718750Y-56550000D01*
X270868750Y-56150000D02*
X270868750Y-56550000D01*
%TO.C,C10*%
X37419826Y-49349974D02*
X37136983Y-49067131D01*
X36818785Y-49951015D02*
X36535942Y-49668172D01*
%TO.C,U62*%
X244940000Y-52440938D02*
X244460000Y-52440938D01*
X244700000Y-52110938D01*
X244940000Y-52440938D01*
G36*
X244940000Y-52440938D02*
G01*
X244460000Y-52440938D01*
X244700000Y-52110938D01*
X244940000Y-52440938D01*
G37*
D14*
X249925000Y-52085938D02*
X245275000Y-52085938D01*
X249925000Y-46635938D02*
X245275000Y-46635938D01*
D11*
%TO.C,C52*%
X136225000Y-18050000D02*
X136225000Y-18450000D01*
X135375000Y-18050000D02*
X135375000Y-18450000D01*
%TO.C,C51*%
X16925000Y-18050000D02*
X16925000Y-18450000D01*
X16075000Y-18050000D02*
X16075000Y-18450000D01*
%TO.C,C85*%
X217187500Y-75200000D02*
X217187500Y-75600000D01*
X216337500Y-75200000D02*
X216337500Y-75600000D01*
%TO.C,C31*%
X45737500Y-75200000D02*
X45737500Y-75600000D01*
X44887500Y-75200000D02*
X44887500Y-75600000D01*
%TO.C,C124*%
X164562500Y-56150000D02*
X164562500Y-56550000D01*
X163712500Y-56150000D02*
X163712500Y-56550000D01*
%TO.C,C118*%
X302675000Y-56150000D02*
X302675000Y-56550000D01*
X301825000Y-56150000D02*
X301825000Y-56550000D01*
D13*
%TO.C,U34*%
X96760000Y-19020001D02*
X96760000Y-19670000D01*
X96760000Y-19020001D02*
X96760000Y-18370000D01*
X93640000Y-19020001D02*
X93640000Y-19670000D01*
X93640000Y-19020001D02*
X93640000Y-17345000D01*
%TO.C,U35*%
X106285000Y-38070001D02*
X106285000Y-38720000D01*
X106285000Y-38070001D02*
X106285000Y-37420000D01*
X103165000Y-38070001D02*
X103165000Y-38720000D01*
X103165000Y-38070001D02*
X103165000Y-36395000D01*
D11*
%TO.C,C53*%
X145750000Y-37100000D02*
X145750000Y-37500000D01*
X144900000Y-37100000D02*
X144900000Y-37500000D01*
%TO.C,C80*%
X245525000Y-18050000D02*
X245525000Y-18450000D01*
X244675000Y-18050000D02*
X244675000Y-18450000D01*
%TO.C,C107*%
X262431250Y-75200000D02*
X262431250Y-75600000D01*
X261581250Y-75200000D02*
X261581250Y-75600000D01*
%TO.C,C139*%
X174087500Y-75200000D02*
X174087500Y-75600000D01*
X173237500Y-75200000D02*
X173237500Y-75600000D01*
%TO.C,C6*%
X66462500Y-52060938D02*
X66862500Y-52060938D01*
X66462500Y-51210938D02*
X66862500Y-51210938D01*
%TO.C,C7*%
X26787500Y-29296875D02*
X26787500Y-28896875D01*
X25937500Y-29296875D02*
X25937500Y-28896875D01*
%TO.C,C143*%
X116937500Y-75200000D02*
X116937500Y-75600000D01*
X116087500Y-75200000D02*
X116087500Y-75600000D01*
%TO.C,C111*%
X216950000Y-37100000D02*
X216950000Y-37500000D01*
X216100000Y-37100000D02*
X216100000Y-37500000D01*
D13*
%TO.C,U6*%
X73042500Y-93640000D02*
X71367500Y-93640000D01*
X72017500Y-96760000D02*
X71367500Y-96760000D01*
X70717500Y-96760000D02*
X71367500Y-96760000D01*
X70717500Y-93640000D02*
X71367500Y-93640000D01*
D11*
%TO.C,C76*%
X212425000Y-18050000D02*
X212425000Y-18450000D01*
X211575000Y-18050000D02*
X211575000Y-18450000D01*
%TO.C,U85*%
X22152500Y-30456875D02*
X21872500Y-30456875D01*
X22152500Y-30176875D01*
X22152500Y-30456875D01*
G36*
X22152500Y-30456875D02*
G01*
X21872500Y-30456875D01*
X22152500Y-30176875D01*
X22152500Y-30456875D01*
G37*
X25372500Y-33706875D02*
X25372500Y-32731875D01*
X25372500Y-33706875D02*
X25142500Y-33706875D01*
X25372500Y-31461875D02*
X25372500Y-30486875D01*
X25372500Y-30486875D02*
X25142500Y-30486875D01*
X22382500Y-33706875D02*
X22152500Y-33706875D01*
X22152500Y-33706875D02*
X22152500Y-32731875D01*
X22152500Y-31461875D02*
X22152500Y-30776875D01*
%TO.C,C169*%
X30812500Y-96475000D02*
X31212500Y-96475000D01*
X30812500Y-95625000D02*
X31212500Y-95625000D01*
%TO.C,C45*%
X131225000Y-18050000D02*
X131225000Y-18450000D01*
X130375000Y-18050000D02*
X130375000Y-18450000D01*
%TO.C,C67*%
X160037500Y-75200000D02*
X160037500Y-75600000D01*
X159187500Y-75200000D02*
X159187500Y-75600000D01*
%TO.C,C109*%
X307675000Y-75200000D02*
X307675000Y-75600000D01*
X306825000Y-75200000D02*
X306825000Y-75600000D01*
%TO.C,C133*%
X59787500Y-75200000D02*
X59787500Y-75600000D01*
X58937500Y-75200000D02*
X58937500Y-75600000D01*
%TO.C,U74*%
X295898750Y-71590938D02*
X295418750Y-71590938D01*
X295658750Y-71260938D01*
X295898750Y-71590938D01*
G36*
X295898750Y-71590938D02*
G01*
X295418750Y-71590938D01*
X295658750Y-71260938D01*
X295898750Y-71590938D01*
G37*
D14*
X300883750Y-71235938D02*
X296233750Y-71235938D01*
X300883750Y-65785938D02*
X296233750Y-65785938D01*
D11*
%TO.C,C29*%
X69550000Y-37100000D02*
X69550000Y-37500000D01*
X68700000Y-37100000D02*
X68700000Y-37500000D01*
D13*
%TO.C,U36*%
X111047500Y-57120001D02*
X111047500Y-57770000D01*
X111047500Y-57120001D02*
X111047500Y-56470000D01*
X107927500Y-57120001D02*
X107927500Y-57770000D01*
X107927500Y-57120001D02*
X107927500Y-55445000D01*
%TO.C,U70*%
X211060000Y-19020001D02*
X211060000Y-19670000D01*
X211060000Y-19020001D02*
X211060000Y-18370000D01*
X207940000Y-19020001D02*
X207940000Y-19670000D01*
X207940000Y-19020001D02*
X207940000Y-17345000D01*
%TO.C,U8*%
X234967500Y-93640000D02*
X233292500Y-93640000D01*
X233942500Y-96760000D02*
X233292500Y-96760000D01*
X232642500Y-96760000D02*
X233292500Y-96760000D01*
X232642500Y-93640000D02*
X233292500Y-93640000D01*
D11*
%TO.C,C86*%
X302675000Y-18050000D02*
X302675000Y-18450000D01*
X301825000Y-18050000D02*
X301825000Y-18450000D01*
D13*
%TO.C,U43*%
X120572500Y-76170001D02*
X120572500Y-76820000D01*
X120572500Y-76170001D02*
X120572500Y-75520000D01*
X117452500Y-76170001D02*
X117452500Y-76820000D01*
X117452500Y-76170001D02*
X117452500Y-74495000D01*
%TO.C,U15*%
X213441250Y-95870000D02*
X213441250Y-95220000D01*
X213441250Y-94570000D02*
X213441250Y-95220000D01*
X210321250Y-95870000D02*
X210321250Y-95220000D01*
X210321250Y-93545000D02*
X210321250Y-95220000D01*
D11*
%TO.C,R2*%
X27224999Y-18204656D02*
X27224999Y-18604656D01*
X26374999Y-18204656D02*
X26374999Y-18604656D01*
%TO.C,C79*%
X198137500Y-75200000D02*
X198137500Y-75600000D01*
X197287500Y-75200000D02*
X197287500Y-75600000D01*
D13*
%TO.C,U103*%
X306310000Y-76170001D02*
X306310000Y-76820000D01*
X306310000Y-76170001D02*
X306310000Y-75520000D01*
X303190000Y-76170001D02*
X303190000Y-76820000D01*
X303190000Y-76170001D02*
X303190000Y-74495000D01*
%TO.C,U52*%
X153910000Y-19020001D02*
X153910000Y-19670000D01*
X153910000Y-19020001D02*
X153910000Y-18370000D01*
X150790000Y-19020001D02*
X150790000Y-19670000D01*
X150790000Y-19020001D02*
X150790000Y-17345000D01*
%TO.C,U97*%
X287260000Y-76170001D02*
X287260000Y-76820000D01*
X287260000Y-76170001D02*
X287260000Y-75520000D01*
X284140000Y-76170001D02*
X284140000Y-76820000D01*
X284140000Y-76170001D02*
X284140000Y-74495000D01*
%TO.C,U22*%
X58660000Y-19020001D02*
X58660000Y-19670000D01*
X58660000Y-19020001D02*
X58660000Y-18370000D01*
X55540000Y-19020001D02*
X55540000Y-19670000D01*
X55540000Y-19020001D02*
X55540000Y-17345000D01*
D11*
%TO.C,C97*%
X236237500Y-75200000D02*
X236237500Y-75600000D01*
X235387500Y-75200000D02*
X235387500Y-75600000D01*
D13*
%TO.C,U5*%
X49230000Y-93640000D02*
X47555000Y-93640000D01*
X48205000Y-96760000D02*
X47555000Y-96760000D01*
X46905000Y-96760000D02*
X47555000Y-96760000D01*
X46905000Y-93640000D02*
X47555000Y-93640000D01*
%TO.C,U67*%
X196772500Y-76170001D02*
X196772500Y-76820000D01*
X196772500Y-76170001D02*
X196772500Y-75520000D01*
X193652500Y-76170001D02*
X193652500Y-76820000D01*
X193652500Y-76170001D02*
X193652500Y-74495000D01*
D11*
%TO.C,C126*%
X126462500Y-56150000D02*
X126462500Y-56550000D01*
X125612500Y-56150000D02*
X125612500Y-56550000D01*
D13*
%TO.C,U54*%
X168197500Y-57120001D02*
X168197500Y-57770000D01*
X168197500Y-57120001D02*
X168197500Y-56470000D01*
X165077500Y-57120001D02*
X165077500Y-57770000D01*
X165077500Y-57120001D02*
X165077500Y-55445000D01*
%TO.C,U53*%
X163435000Y-38070001D02*
X163435000Y-38720000D01*
X163435000Y-38070001D02*
X163435000Y-37420000D01*
X160315000Y-38070001D02*
X160315000Y-38720000D01*
X160315000Y-38070001D02*
X160315000Y-36395000D01*
D11*
%TO.C,C64*%
X174325000Y-18050000D02*
X174325000Y-18450000D01*
X173475000Y-18050000D02*
X173475000Y-18450000D01*
D13*
%TO.C,U29*%
X87235000Y-38070001D02*
X87235000Y-38720000D01*
X87235000Y-38070001D02*
X87235000Y-37420000D01*
X84115000Y-38070001D02*
X84115000Y-38720000D01*
X84115000Y-38070001D02*
X84115000Y-36395000D01*
D11*
%TO.C,C49*%
X102887500Y-75200000D02*
X102887500Y-75600000D01*
X102037500Y-75200000D02*
X102037500Y-75600000D01*
%TO.C,C82*%
X231475000Y-18050000D02*
X231475000Y-18450000D01*
X230625000Y-18050000D02*
X230625000Y-18450000D01*
%TO.C,C138*%
X193137500Y-75200000D02*
X193137500Y-75600000D01*
X192287500Y-75200000D02*
X192287500Y-75600000D01*
D14*
%TO.C,J2*%
X37213610Y-32084344D02*
X37213610Y-28084344D01*
X35413610Y-27084344D02*
X33013610Y-27084344D01*
X33013610Y-33084344D02*
X35413610Y-33084344D01*
X33013610Y-32084344D02*
X33013610Y-33084344D01*
X33013610Y-27084344D02*
X33013610Y-28084344D01*
D13*
%TO.C,U14*%
X23036250Y-93640000D02*
X21361250Y-93640000D01*
X22011250Y-96760000D02*
X21361250Y-96760000D01*
X20711250Y-96760000D02*
X21361250Y-96760000D01*
X20711250Y-93640000D02*
X21361250Y-93640000D01*
D11*
%TO.C,C55*%
X121937500Y-75200000D02*
X121937500Y-75600000D01*
X121087500Y-75200000D02*
X121087500Y-75600000D01*
%TO.C,C116*%
X302675000Y-37100000D02*
X302675000Y-37500000D01*
X301825000Y-37100000D02*
X301825000Y-37500000D01*
%TO.C,C38*%
X74075000Y-18050000D02*
X74075000Y-18450000D01*
X73225000Y-18050000D02*
X73225000Y-18450000D01*
D13*
%TO.C,U40*%
X115810000Y-19020001D02*
X115810000Y-19670000D01*
X115810000Y-19020001D02*
X115810000Y-18370000D01*
X112690000Y-19020001D02*
X112690000Y-19670000D01*
X112690000Y-19020001D02*
X112690000Y-17345000D01*
D11*
%TO.C,C158*%
X230512500Y-93875000D02*
X230112500Y-93875000D01*
X230512500Y-93025000D02*
X230112500Y-93025000D01*
%TO.C,R35*%
X35439926Y-50764187D02*
X35722769Y-51047030D01*
X34838885Y-51365228D02*
X35121728Y-51648071D01*
%TO.C,C46*%
X117175000Y-18050000D02*
X117175000Y-18450000D01*
X116325000Y-18050000D02*
X116325000Y-18450000D01*
%TO.C,C69*%
X207425000Y-18050000D02*
X207425000Y-18450000D01*
X206575000Y-18050000D02*
X206575000Y-18450000D01*
%TO.C,C149*%
X66206250Y-93875000D02*
X65806250Y-93875000D01*
X66206250Y-93025000D02*
X65806250Y-93025000D01*
%TO.C,C1*%
X21550000Y-16925001D02*
X21950000Y-16925001D01*
X21550000Y-16075001D02*
X21950000Y-16075001D01*
%TO.C,C74*%
X226475000Y-18050000D02*
X226475000Y-18450000D01*
X225625000Y-18050000D02*
X225625000Y-18450000D01*
%TO.C,U2*%
X21102500Y-52440938D02*
X20622500Y-52440938D01*
X20862500Y-52110938D01*
X21102500Y-52440938D01*
G36*
X21102500Y-52440938D02*
G01*
X20622500Y-52440938D01*
X20862500Y-52110938D01*
X21102500Y-52440938D01*
G37*
D14*
X26087500Y-52085938D02*
X21437500Y-52085938D01*
X26087500Y-46635938D02*
X21437500Y-46635938D01*
D11*
%TO.C,C163*%
X150275000Y-94250000D02*
X150275000Y-94650000D01*
X149425000Y-94250000D02*
X149425000Y-94650000D01*
%TO.C,C32*%
X55125000Y-31484344D02*
X55125000Y-31084344D01*
X54275000Y-31484344D02*
X54275000Y-31084344D01*
D13*
%TO.C,U47*%
X144385000Y-38070001D02*
X144385000Y-38720000D01*
X144385000Y-38070001D02*
X144385000Y-37420000D01*
X141265000Y-38070001D02*
X141265000Y-38720000D01*
X141265000Y-38070001D02*
X141265000Y-36395000D01*
D11*
%TO.C,C112*%
X236000000Y-37100000D02*
X236000000Y-37500000D01*
X235150000Y-37100000D02*
X235150000Y-37500000D01*
%TO.C,C68*%
X188375000Y-18050000D02*
X188375000Y-18450000D01*
X187525000Y-18050000D02*
X187525000Y-18450000D01*
%TO.C,C27*%
X35975000Y-18050000D02*
X35975000Y-18450000D01*
X35125000Y-18050000D02*
X35125000Y-18450000D01*
%TO.C,R1*%
X21550000Y-15925001D02*
X21950000Y-15925001D01*
X21550000Y-15075001D02*
X21950000Y-15075001D01*
D13*
%TO.C,U71*%
X220585000Y-38070001D02*
X220585000Y-38720000D01*
X220585000Y-38070001D02*
X220585000Y-37420000D01*
X217465000Y-38070001D02*
X217465000Y-38720000D01*
X217465000Y-38070001D02*
X217465000Y-36395000D01*
D11*
%TO.C,C94*%
X269575000Y-18050000D02*
X269575000Y-18450000D01*
X268725000Y-18050000D02*
X268725000Y-18450000D01*
%TO.C,C15*%
X279100000Y-18050000D02*
X279100000Y-18450000D01*
X278250000Y-18050000D02*
X278250000Y-18450000D01*
%TO.C,L1*%
X25012500Y-29806875D02*
X22512500Y-29806875D01*
X22512500Y-27586875D02*
X25012500Y-27586875D01*
%TO.C,C142*%
X97887500Y-75200000D02*
X97887500Y-75600000D01*
X97037500Y-75200000D02*
X97037500Y-75600000D01*
%TO.C,C20*%
X20962500Y-31921875D02*
X20562500Y-31921875D01*
X20962500Y-31071875D02*
X20562500Y-31071875D01*
D13*
%TO.C,U80*%
X44372500Y-76170001D02*
X44372500Y-76820000D01*
X44372500Y-76170001D02*
X44372500Y-75520000D01*
X41252500Y-76170001D02*
X41252500Y-76820000D01*
X41252500Y-76170001D02*
X41252500Y-74495000D01*
D11*
%TO.C,C90*%
X276718750Y-56150000D02*
X276718750Y-56550000D01*
X275868750Y-56150000D02*
X275868750Y-56550000D01*
%TO.C,C114*%
X255050000Y-37100000D02*
X255050000Y-37500000D01*
X254200000Y-37100000D02*
X254200000Y-37500000D01*
D13*
%TO.C,U100*%
X306310000Y-19020001D02*
X306310000Y-19670000D01*
X306310000Y-19020001D02*
X306310000Y-18370000D01*
X303190000Y-19020001D02*
X303190000Y-19670000D01*
X303190000Y-19020001D02*
X303190000Y-17345000D01*
D11*
%TO.C,U19*%
X55590000Y-28784344D02*
X55260000Y-29024344D01*
X55260000Y-28544344D01*
X55590000Y-28784344D01*
G36*
X55590000Y-28784344D02*
G01*
X55260000Y-29024344D01*
X55260000Y-28544344D01*
X55590000Y-28784344D01*
G37*
X58660000Y-30884344D02*
X58660000Y-30084344D01*
X58660000Y-29284344D02*
X58660000Y-30084344D01*
X55540000Y-30884344D02*
X55540000Y-30084344D01*
X55540000Y-29284344D02*
X55540000Y-30084344D01*
D13*
%TO.C,U28*%
X77710000Y-19020001D02*
X77710000Y-19670000D01*
X77710000Y-19020001D02*
X77710000Y-18370000D01*
X74590000Y-19020001D02*
X74590000Y-19670000D01*
X74590000Y-19020001D02*
X74590000Y-17345000D01*
D11*
%TO.C,C172*%
X269575000Y-94250000D02*
X269575000Y-94650000D01*
X268725000Y-94250000D02*
X268725000Y-94650000D01*
%TO.C,C92*%
X102650000Y-37100000D02*
X102650000Y-37500000D01*
X101800000Y-37100000D02*
X101800000Y-37500000D01*
%TO.C,C101*%
X159800000Y-37100000D02*
X159800000Y-37500000D01*
X158950000Y-37100000D02*
X158950000Y-37500000D01*
D13*
%TO.C,U94*%
X287260000Y-19020001D02*
X287260000Y-19670000D01*
X287260000Y-19020001D02*
X287260000Y-18370000D01*
X284140000Y-19020001D02*
X284140000Y-19670000D01*
X284140000Y-19020001D02*
X284140000Y-17345000D01*
%TO.C,U42*%
X130097500Y-57120001D02*
X130097500Y-57770000D01*
X130097500Y-57120001D02*
X130097500Y-56470000D01*
X126977500Y-57120001D02*
X126977500Y-57770000D01*
X126977500Y-57120001D02*
X126977500Y-55445000D01*
D11*
%TO.C,C59*%
X164800000Y-37100000D02*
X164800000Y-37500000D01*
X163950000Y-37100000D02*
X163950000Y-37500000D01*
%TO.C,U38*%
X97302500Y-52440938D02*
X96822500Y-52440938D01*
X97062500Y-52110938D01*
X97302500Y-52440938D01*
G36*
X97302500Y-52440938D02*
G01*
X96822500Y-52440938D01*
X97062500Y-52110938D01*
X97302500Y-52440938D01*
G37*
D14*
X102287500Y-52085938D02*
X97637500Y-52085938D01*
X102287500Y-46635938D02*
X97637500Y-46635938D01*
D13*
%TO.C,U4*%
X25417500Y-93640000D02*
X23742500Y-93640000D01*
X24392500Y-96760000D02*
X23742500Y-96760000D01*
X23092500Y-96760000D02*
X23742500Y-96760000D01*
X23092500Y-93640000D02*
X23742500Y-93640000D01*
%TO.C,U91*%
X261066250Y-76820000D02*
X261066250Y-76170000D01*
X261066250Y-75520000D02*
X261066250Y-76170000D01*
X257946250Y-76820000D02*
X257946250Y-76170000D01*
X257946250Y-74495000D02*
X257946250Y-76170000D01*
%TO.C,U11*%
X25322500Y-38720000D02*
X25322500Y-38070000D01*
X25322500Y-37420000D02*
X25322500Y-38070000D01*
X22202500Y-38720000D02*
X22202500Y-38070000D01*
X22202500Y-36395000D02*
X22202500Y-38070000D01*
D11*
%TO.C,C40*%
X98125000Y-18050000D02*
X98125000Y-18450000D01*
X97275000Y-18050000D02*
X97275000Y-18450000D01*
%TO.C,C132*%
X19306250Y-75200000D02*
X19306250Y-75600000D01*
X18456250Y-75200000D02*
X18456250Y-75600000D01*
%TO.C,TP1*%
X35940625Y-44537500D02*
G75*
G02*
X34540625Y-44537500I-700000J0D01*
G01*
X34540625Y-44537500D02*
G75*
G02*
X35940625Y-44537500I700000J0D01*
G01*
%TO.C,C108*%
X288625000Y-75200000D02*
X288625000Y-75600000D01*
X287775000Y-75200000D02*
X287775000Y-75600000D01*
%TO.C,C78*%
X226712500Y-56150000D02*
X226712500Y-56550000D01*
X225862500Y-56150000D02*
X225862500Y-56550000D01*
%TO.C,C100*%
X288625000Y-18050000D02*
X288625000Y-18450000D01*
X287775000Y-18050000D02*
X287775000Y-18450000D01*
%TO.C,C144*%
X135987500Y-75200000D02*
X135987500Y-75600000D01*
X135137500Y-75200000D02*
X135137500Y-75600000D01*
%TO.C,U32*%
X59202500Y-52440938D02*
X58722500Y-52440938D01*
X58962500Y-52110938D01*
X59202500Y-52440938D01*
G36*
X59202500Y-52440938D02*
G01*
X58722500Y-52440938D01*
X58962500Y-52110938D01*
X59202500Y-52440938D01*
G37*
D14*
X64187500Y-52085938D02*
X59537500Y-52085938D01*
X64187500Y-46635938D02*
X59537500Y-46635938D01*
D13*
%TO.C,U73*%
X215822500Y-76170001D02*
X215822500Y-76820000D01*
X215822500Y-76170001D02*
X215822500Y-75520000D01*
X212702500Y-76170001D02*
X212702500Y-76820000D01*
X212702500Y-76170001D02*
X212702500Y-74495000D01*
D15*
%TO.C,U84*%
X287450000Y-64085000D02*
G75*
G02*
X283950000Y-64085000I-1750000J0D01*
G01*
X283950000Y-64085000D02*
G75*
G02*
X287450000Y-64085000I1750000J0D01*
G01*
X263637500Y-64085000D02*
G75*
G02*
X260137500Y-64085000I-1750000J0D01*
G01*
X260137500Y-64085000D02*
G75*
G02*
X263637500Y-64085000I1750000J0D01*
G01*
X284700000Y-46845000D02*
G75*
G02*
X286698949Y-46844475I1000000J-1999998D01*
G01*
X260887500Y-46845000D02*
G75*
G02*
X262886449Y-46844475I1000000J-2000020D01*
G01*
D13*
X275353750Y-57120001D02*
X275353750Y-57770000D01*
X275353750Y-57120001D02*
X275353750Y-56470000D01*
X272233750Y-57120001D02*
X272233750Y-57770000D01*
X272233750Y-57120001D02*
X272233750Y-55445000D01*
%TO.C,U41*%
X125335000Y-38070001D02*
X125335000Y-38720000D01*
X125335000Y-38070001D02*
X125335000Y-37420000D01*
X122215000Y-38070001D02*
X122215000Y-38720000D01*
X122215000Y-38070001D02*
X122215000Y-36395000D01*
%TO.C,U48*%
X149147500Y-57120001D02*
X149147500Y-57770000D01*
X149147500Y-57120001D02*
X149147500Y-56470000D01*
X146027500Y-57120001D02*
X146027500Y-57770000D01*
X146027500Y-57120001D02*
X146027500Y-55445000D01*
D11*
%TO.C,C57*%
X150275000Y-18050000D02*
X150275000Y-18450000D01*
X149425000Y-18050000D02*
X149425000Y-18450000D01*
%TO.C,C65*%
X183850000Y-37100000D02*
X183850000Y-37500000D01*
X183000000Y-37100000D02*
X183000000Y-37500000D01*
D13*
%TO.C,U60*%
X187247500Y-57120001D02*
X187247500Y-57770000D01*
X187247500Y-57120001D02*
X187247500Y-56470000D01*
X184127500Y-57120001D02*
X184127500Y-57770000D01*
X184127500Y-57120001D02*
X184127500Y-55445000D01*
D11*
%TO.C,C147*%
X18581250Y-93875000D02*
X18181250Y-93875000D01*
X18581250Y-93025000D02*
X18181250Y-93025000D01*
%TO.C,C174*%
X307675000Y-94250000D02*
X307675000Y-94650000D01*
X306825000Y-94250000D02*
X306825000Y-94650000D01*
%TO.C,C170*%
X54625000Y-96475000D02*
X55025000Y-96475000D01*
X54625000Y-95625000D02*
X55025000Y-95625000D01*
%TO.C,C25*%
X71375000Y-30284344D02*
X71375000Y-30684344D01*
X70525000Y-30284344D02*
X70525000Y-30684344D01*
D13*
%TO.C,U64*%
X192010000Y-19020001D02*
X192010000Y-19670000D01*
X192010000Y-19020001D02*
X192010000Y-18370000D01*
X188890000Y-19020001D02*
X188890000Y-19670000D01*
X188890000Y-19020001D02*
X188890000Y-17345000D01*
D11*
%TO.C,C154*%
X180762500Y-52060938D02*
X181162500Y-52060938D01*
X180762500Y-51210938D02*
X181162500Y-51210938D01*
D15*
%TO.C,U7*%
X211250000Y-102185000D02*
G75*
G02*
X207750000Y-102185000I-1750000J0D01*
G01*
X207750000Y-102185000D02*
G75*
G02*
X211250000Y-102185000I1750000J0D01*
G01*
X96950000Y-102185000D02*
G75*
G02*
X93450000Y-102185000I-1750000J0D01*
G01*
X93450000Y-102185000D02*
G75*
G02*
X96950000Y-102185000I1750000J0D01*
G01*
X208500000Y-84945000D02*
G75*
G02*
X210498949Y-84944475I1000000J-1999998D01*
G01*
X94200000Y-84945000D02*
G75*
G02*
X96198949Y-84944475I1000000J-2000000D01*
G01*
D13*
X153910000Y-95870000D02*
X153910000Y-95220000D01*
X153910000Y-94570000D02*
X153910000Y-95220000D01*
X150790000Y-95870000D02*
X150790000Y-95220000D01*
X150790000Y-93545000D02*
X150790000Y-95220000D01*
%TO.C,U59*%
X182485000Y-38070001D02*
X182485000Y-38720000D01*
X182485000Y-38070001D02*
X182485000Y-37420000D01*
X179365000Y-38070001D02*
X179365000Y-38720000D01*
X179365000Y-38070001D02*
X179365000Y-36395000D01*
D11*
%TO.C,C70*%
X193375000Y-18050000D02*
X193375000Y-18450000D01*
X192525000Y-18050000D02*
X192525000Y-18450000D01*
%TO.C,C119*%
X240762500Y-56150000D02*
X240762500Y-56550000D01*
X239912500Y-56150000D02*
X239912500Y-56550000D01*
%TO.C,U69*%
X244940000Y-71590938D02*
X244460000Y-71590938D01*
X244700000Y-71260938D01*
X244940000Y-71590938D01*
G36*
X244940000Y-71590938D02*
G01*
X244460000Y-71590938D01*
X244700000Y-71260938D01*
X244940000Y-71590938D01*
G37*
D14*
X249925000Y-71235938D02*
X245275000Y-71235938D01*
X249925000Y-65785938D02*
X245275000Y-65785938D01*
D13*
%TO.C,U78*%
X244397500Y-57120001D02*
X244397500Y-57770000D01*
X244397500Y-57120001D02*
X244397500Y-56470000D01*
X241277500Y-57120001D02*
X241277500Y-57770000D01*
X241277500Y-57120001D02*
X241277500Y-55445000D01*
D11*
%TO.C,C131*%
X28831250Y-75200000D02*
X28831250Y-75600000D01*
X27981250Y-75200000D02*
X27981250Y-75600000D01*
%TO.C,C11*%
X42213123Y-57007055D02*
X42495966Y-56724212D01*
X41612082Y-56406014D02*
X41894925Y-56123171D01*
D13*
%TO.C,U16*%
X39610000Y-19020001D02*
X39610000Y-19670000D01*
X39610000Y-19020001D02*
X39610000Y-18370000D01*
X36490000Y-19020001D02*
X36490000Y-19670000D01*
X36490000Y-19020001D02*
X36490000Y-17345000D01*
D11*
%TO.C,C77*%
X221950000Y-37100000D02*
X221950000Y-37500000D01*
X221100000Y-37100000D02*
X221100000Y-37500000D01*
%TO.C,C157*%
X209806250Y-94250000D02*
X209806250Y-94650000D01*
X208956250Y-94250000D02*
X208956250Y-94650000D01*
%TO.C,C16*%
X21925000Y-18050000D02*
X21925000Y-18450000D01*
X21075000Y-18050000D02*
X21075000Y-18450000D01*
%TO.C,C83*%
X241000000Y-37100000D02*
X241000000Y-37500000D01*
X240150000Y-37100000D02*
X240150000Y-37500000D01*
%TO.C,R113*%
X26742500Y-31250516D02*
X26742500Y-30943234D01*
X25982500Y-31250516D02*
X25982500Y-30943234D01*
%TO.C,C87*%
X64550000Y-37100000D02*
X64550000Y-37500000D01*
X63700000Y-37100000D02*
X63700000Y-37500000D01*
%TO.C,C106*%
X307675000Y-18050000D02*
X307675000Y-18450000D01*
X306825000Y-18050000D02*
X306825000Y-18450000D01*
%TO.C,C39*%
X93125000Y-18050000D02*
X93125000Y-18450000D01*
X92275000Y-18050000D02*
X92275000Y-18450000D01*
%TO.C,C146*%
X40737500Y-75200000D02*
X40737500Y-75600000D01*
X39887500Y-75200000D02*
X39887500Y-75600000D01*
%TO.C,C26*%
X55125000Y-28684344D02*
X55125000Y-29084344D01*
X54275000Y-28684344D02*
X54275000Y-29084344D01*
%TO.C,C54*%
X150512500Y-56150000D02*
X150512500Y-56550000D01*
X149662500Y-56150000D02*
X149662500Y-56550000D01*
%TO.C,C136*%
X231237500Y-75200000D02*
X231237500Y-75600000D01*
X230387500Y-75200000D02*
X230387500Y-75600000D01*
%TO.C,C102*%
X178850000Y-37100000D02*
X178850000Y-37500000D01*
X178000000Y-37100000D02*
X178000000Y-37500000D01*
%TO.C,C47*%
X126700000Y-37100000D02*
X126700000Y-37500000D01*
X125850000Y-37100000D02*
X125850000Y-37500000D01*
%TO.C,C153*%
X138368750Y-94250000D02*
X138368750Y-94650000D01*
X137518750Y-94250000D02*
X137518750Y-94650000D01*
%TO.C,C185*%
X307675000Y-56150000D02*
X307675000Y-56550000D01*
X306825000Y-56150000D02*
X306825000Y-56550000D01*
%TO.C,C165*%
X26722500Y-32989039D02*
X26722500Y-33204711D01*
X26002500Y-32989039D02*
X26002500Y-33204711D01*
D13*
%TO.C,U88*%
X268210000Y-19020001D02*
X268210000Y-19670000D01*
X268210000Y-19020001D02*
X268210000Y-18370000D01*
X265090000Y-19020001D02*
X265090000Y-19670000D01*
X265090000Y-19020001D02*
X265090000Y-17345000D01*
D11*
%TO.C,JP1*%
X41425000Y-35100000D02*
G75*
G02*
X40725000Y-35800000I-700000J0D01*
G01*
X40725000Y-33000000D02*
G75*
G02*
X41425000Y-33700000I1J-699999D01*
G01*
X40125000Y-35800000D02*
G75*
G02*
X39425000Y-35100000I0J700000D01*
G01*
X39425000Y-33700000D02*
G75*
G02*
X40125000Y-33000000I699999J1D01*
G01*
X41425000Y-33700000D02*
X41425000Y-35100000D01*
X40725000Y-35800000D02*
X40125000Y-35800000D01*
X40125000Y-33000000D02*
X40725000Y-33000000D01*
X39425000Y-35100000D02*
X39425000Y-33700000D01*
D13*
%TO.C,U49*%
X139622500Y-76170001D02*
X139622500Y-76820000D01*
X139622500Y-76170001D02*
X139622500Y-75520000D01*
X136502500Y-76170001D02*
X136502500Y-76820000D01*
X136502500Y-76170001D02*
X136502500Y-74495000D01*
%TO.C,U20*%
X46848750Y-93640000D02*
X45173750Y-93640000D01*
X45823750Y-96760000D02*
X45173750Y-96760000D01*
X44523750Y-96760000D02*
X45173750Y-96760000D01*
X44523750Y-93640000D02*
X45173750Y-93640000D01*
D11*
%TO.C,C134*%
X257431250Y-75200000D02*
X257431250Y-75600000D01*
X256581250Y-75200000D02*
X256581250Y-75600000D01*
%TO.C,C152*%
X218862500Y-52060938D02*
X219262500Y-52060938D01*
X218862500Y-51210938D02*
X219262500Y-51210938D01*
D13*
%TO.C,U61*%
X177722500Y-76170001D02*
X177722500Y-76820000D01*
X177722500Y-76170001D02*
X177722500Y-75520000D01*
X174602500Y-76170001D02*
X174602500Y-76820000D01*
X174602500Y-76170001D02*
X174602500Y-74495000D01*
D15*
%TO.C,U44*%
X192193650Y-102185000D02*
G75*
G02*
X188693650Y-102185000I-1750000J0D01*
G01*
X188693650Y-102185000D02*
G75*
G02*
X192193650Y-102185000I1750000J0D01*
G01*
X92193850Y-102185000D02*
G75*
G02*
X88693850Y-102185000I-1750000J0D01*
G01*
X88693850Y-102185000D02*
G75*
G02*
X92193850Y-102185000I1750000J0D01*
G01*
X189443650Y-84945000D02*
G75*
G02*
X191442599Y-84944475I1000000J-1999998D01*
G01*
X89443850Y-84945000D02*
G75*
G02*
X91442799Y-84944475I1000000J-2000000D01*
G01*
D13*
X142003750Y-95870000D02*
X142003750Y-95220000D01*
X142003750Y-94570000D02*
X142003750Y-95220000D01*
X138883750Y-95870000D02*
X138883750Y-95220000D01*
X138883750Y-93545000D02*
X138883750Y-95220000D01*
D11*
%TO.C,C81*%
X283625000Y-18050000D02*
X283625000Y-18450000D01*
X282775000Y-18050000D02*
X282775000Y-18450000D01*
D13*
%TO.C,U46*%
X134860000Y-19020001D02*
X134860000Y-19670000D01*
X134860000Y-19020001D02*
X134860000Y-18370000D01*
X131740000Y-19020001D02*
X131740000Y-19670000D01*
X131740000Y-19020001D02*
X131740000Y-17345000D01*
D11*
%TO.C,C9*%
X43218101Y-51506650D02*
X43500944Y-51223807D01*
X42617060Y-50905609D02*
X42899903Y-50622766D01*
D13*
%TO.C,U76*%
X230110000Y-19020001D02*
X230110000Y-19670000D01*
X230110000Y-19020001D02*
X230110000Y-18370000D01*
X226990000Y-19020001D02*
X226990000Y-19670000D01*
X226990000Y-19020001D02*
X226990000Y-17345000D01*
D11*
%TO.C,JP2*%
X21750000Y-35300000D02*
G75*
G02*
X21050000Y-36000000I-700000J0D01*
G01*
X21050000Y-34000000D02*
G75*
G02*
X21750000Y-34700000I0J-700000D01*
G01*
X19650000Y-36000000D02*
G75*
G02*
X18950000Y-35300000I-1J699999D01*
G01*
X18950000Y-34700000D02*
G75*
G02*
X19650000Y-34000000I699999J1D01*
G01*
X21750000Y-34700000D02*
X21750000Y-35300000D01*
X21050000Y-36000000D02*
X19650000Y-36000000D01*
X19650000Y-34000000D02*
X21050000Y-34000000D01*
X18950000Y-35300000D02*
X18950000Y-34700000D01*
D13*
%TO.C,U98*%
X287260000Y-95220001D02*
X287260000Y-95870000D01*
X287260000Y-95220001D02*
X287260000Y-94570000D01*
X284140000Y-95220001D02*
X284140000Y-95870000D01*
X284140000Y-95220001D02*
X284140000Y-93545000D01*
D11*
%TO.C,C148*%
X42393750Y-93875000D02*
X41993750Y-93875000D01*
X42393750Y-93025000D02*
X41993750Y-93025000D01*
%TO.C,C91*%
X83600000Y-37100000D02*
X83600000Y-37500000D01*
X82750000Y-37100000D02*
X82750000Y-37500000D01*
%TO.C,C159*%
X264575000Y-94250000D02*
X264575000Y-94650000D01*
X263725000Y-94250000D02*
X263725000Y-94650000D01*
D13*
%TO.C,U21*%
X237348750Y-93640000D02*
X235673750Y-93640000D01*
X236323750Y-96760000D02*
X235673750Y-96760000D01*
X235023750Y-96760000D02*
X235673750Y-96760000D01*
X235023750Y-93640000D02*
X235673750Y-93640000D01*
D11*
%TO.C,C178*%
X143368750Y-94250000D02*
X143368750Y-94650000D01*
X142518750Y-94250000D02*
X142518750Y-94650000D01*
%TO.C,C175*%
X214806250Y-94250000D02*
X214806250Y-94650000D01*
X213956250Y-94250000D02*
X213956250Y-94650000D01*
%TO.C,C121*%
X202662500Y-56150000D02*
X202662500Y-56550000D01*
X201812500Y-56150000D02*
X201812500Y-56550000D01*
%TO.C,TP2*%
X39940625Y-44537500D02*
G75*
G02*
X38540625Y-44537500I-700000J0D01*
G01*
X38540625Y-44537500D02*
G75*
G02*
X39940625Y-44537500I700000J0D01*
G01*
%TO.C,C61*%
X140987500Y-75200000D02*
X140987500Y-75600000D01*
X140137500Y-75200000D02*
X140137500Y-75600000D01*
%TO.C,F1*%
X29550000Y-21889000D02*
X27550000Y-21889000D01*
X27550000Y-19749000D02*
X29550000Y-19749000D01*
%TO.C,C84*%
X245762500Y-56150000D02*
X245762500Y-56550000D01*
X244912500Y-56150000D02*
X244912500Y-56550000D01*
%TO.C,R30*%
X34732820Y-51471294D02*
X35015663Y-51754137D01*
X34131779Y-52072335D02*
X34414622Y-52355178D01*
%TO.C,C145*%
X302675000Y-75200000D02*
X302675000Y-75600000D01*
X301825000Y-75200000D02*
X301825000Y-75600000D01*
%TO.C,C8*%
X36041942Y-47940901D02*
X35759099Y-47658058D01*
X35440901Y-48541942D02*
X35158058Y-48259099D01*
%TO.C,C161*%
X302675000Y-94250000D02*
X302675000Y-94650000D01*
X301825000Y-94250000D02*
X301825000Y-94650000D01*
D13*
%TO.C,U24*%
X72947500Y-57120001D02*
X72947500Y-57770000D01*
X72947500Y-57120001D02*
X72947500Y-56470000D01*
X69827500Y-57120001D02*
X69827500Y-57770000D01*
X69827500Y-57120001D02*
X69827500Y-55445000D01*
D11*
%TO.C,C135*%
X283625000Y-75200000D02*
X283625000Y-75600000D01*
X282775000Y-75200000D02*
X282775000Y-75600000D01*
%TO.C,C42*%
X112412500Y-56150000D02*
X112412500Y-56550000D01*
X111562500Y-56150000D02*
X111562500Y-56550000D01*
%TO.C,C48*%
X131462500Y-56150000D02*
X131462500Y-56550000D01*
X130612500Y-56150000D02*
X130612500Y-56550000D01*
%TO.C,C21*%
X71375000Y-27484344D02*
X71375000Y-27084344D01*
X70525000Y-27484344D02*
X70525000Y-27084344D01*
%TO.C,C120*%
X221712500Y-56150000D02*
X221712500Y-56550000D01*
X220862500Y-56150000D02*
X220862500Y-56550000D01*
%TO.C,C115*%
X278862500Y-37100000D02*
X278862500Y-37500000D01*
X278012500Y-37100000D02*
X278012500Y-37500000D01*
D12*
%TO.C,RGB1_A17*%
X300550000Y-23080000D02*
X300550000Y-22180000D01*
X301450000Y-22180000D01*
X300550000Y-23080000D01*
G36*
X300550000Y-23080000D02*
G01*
X300550000Y-22180000D01*
X301450000Y-22180000D01*
X300550000Y-23080000D01*
G37*
%TD*%
M02*
