M48
; DRILL file {KiCad 8.0.6} date 2024-11-20T11:04:22+0700
; FORMAT={-:-/ absolute / inch / decimal}
; #@! TF.CreationDate,2024-11-20T11:04:22+07:00
; #@! TF.GenerationSoftware,Kicad,Pcbnew,8.0.6
; #@! TF.FileFunction,Plated,1,2,PTH
FMAT,2
INCH
; #@! TA.AperFunction,Plated,PTH,ComponentDrill
T1C0.0079
; #@! TA.AperFunction,Plated,PTH,ViaDrill
T2C0.0118
; #@! TA.AperFunction,Plated,PTH,ViaDrill
T3C0.0157
; #@! TA.AperFunction,Plated,PTH,ComponentDrill
T4C0.0236
; #@! TA.AperFunction,Plated,PTH,ComponentDrill
T5C0.0866
%
G90
G05
T1
X0.1501Y-0.5156
X0.1875Y-0.493
X0.1875Y-0.5383
X0.2249Y-0.5156
X0.7301Y-1.3125
X0.7635Y-1.2791
X0.7635Y-1.3459
X0.7969Y-1.2457
X0.7969Y-1.3125
X0.7969Y-1.3793
X0.8303Y-1.2791
X0.8303Y-1.3459
X0.8637Y-1.3125
T2
X-0.2291Y-2.8256
X-0.2055Y-2.802
X-0.1818Y-2.7783
X-0.1582Y-2.7547
X-0.1181Y0.0484
X-0.0652Y-1.1825
X-0.0416Y-1.2081
X-0.018Y-1.2593
X0.0Y-0.0864
X0.0057Y-1.2849
X0.0467Y-3.0
X0.0467Y-3.0689
X0.0694Y-0.7016
X0.0938Y-2.3364
X0.128Y0.0484
X0.1405Y-3.0
X0.1405Y-3.0689
X0.1631Y-1.4516
X0.1875Y-0.8364
X0.2119Y-2.2016
X0.2119Y-2.7547
X0.2283Y0.0563
X0.2623Y-1.2849
X0.2812Y-1.5864
X0.2859Y-0.6819
X0.3602Y-0.4948
X0.3602Y0.1549
X0.3607Y-1.1825
X0.3844Y-1.2081
X0.3917Y0.1549
X0.3917Y-0.4948
X0.4232Y-0.1307
X0.4252Y-0.3773
X0.4289Y-1.2593
X0.4289Y-1.4516
X0.454Y-2.8256
X0.454Y-3.0138
X0.4688Y-2.3364
X0.4843Y0.0563
X0.5568Y-1.2337
X0.5869Y-2.2016
X0.6632Y-1.2457
X0.6855Y-1.2234
X0.75Y-0.0864
X0.8878Y0.0484
X0.8899Y-1.1051
X0.8899Y-1.1484
X0.9175Y-1.0834
X0.9175Y-1.1484
X0.9349Y-1.4795
X0.9375Y-2.3364
X0.9478Y-1.2897
X0.9842Y-3.0
X0.9842Y-3.0689
X1.0753Y-2.2016
X1.078Y-3.0
X1.078Y-3.0689
X1.125Y-0.8364
X1.2628Y-0.7016
X1.3125Y-1.5864
X1.3125Y-2.1425
X1.3125Y-2.8925
X1.3915Y-2.802
X1.3915Y-3.0138
X1.4006Y-1.2081
X1.4242Y-1.1825
X1.4503Y-1.2593
X1.4503Y-1.4516
X1.5Y-0.0864
X1.534Y-1.1313
X1.5881Y-1.3046
X1.6378Y0.0484
X1.6875Y-1.2337
X1.6875Y-1.875
X1.6875Y-2.3364
X1.8253Y-2.2016
X1.875Y-0.8364
X1.9217Y-3.0
X1.9217Y-3.0689
X2.0128Y-0.7016
X2.0155Y-3.0
X2.0155Y-3.0689
X2.0625Y-1.5864
X2.1506Y-1.1825
X2.1742Y-1.2081
X2.2003Y-1.2593
X2.2003Y-1.4516
X2.25Y-0.0864
X2.329Y-2.7783
X2.329Y-3.0138
X2.3381Y-1.2337
X2.3878Y0.0484
X2.4375Y-2.3364
X2.5753Y-2.2016
X2.625Y-0.8364
X2.7628Y-0.7016
X2.8125Y-1.5864
X2.9006Y-1.2081
X2.9242Y-1.1825
X2.9503Y-1.2593
X2.9503Y-1.4516
X3.0Y-0.0864
X3.034Y-1.1313
X3.0881Y-1.3046
X3.1378Y0.0484
X3.1875Y-1.2337
X3.1875Y-1.875
X3.1875Y-2.3364
X3.3253Y-2.2016
X3.375Y0.1075
X3.375Y-0.8364
X3.5128Y-0.7016
X3.5625Y-1.5864
X3.6506Y-1.1825
X3.6742Y-1.2081
X3.7003Y-1.2593
X3.7003Y-1.4516
X3.75Y-0.0864
X3.75Y-0.6425
X3.8381Y-1.2337
X3.8878Y0.0484
X3.9375Y-1.3925
X3.9375Y-2.3364
X4.0753Y-2.2016
X4.125Y-0.8364
X4.2628Y-0.7016
X4.3125Y-1.5864
X4.3125Y-2.1425
X4.4006Y-1.2081
X4.4242Y-1.1825
X4.4503Y-1.2593
X4.4503Y-1.4516
X4.5Y-0.0864
X4.5Y-2.8925
X4.534Y-1.1313
X4.5881Y-1.3046
X4.6378Y0.0484
X4.6875Y-1.2337
X4.6875Y-1.875
X4.6875Y-2.3364
X4.7812Y-3.0864
X4.8253Y-2.2016
X4.875Y-0.8364
X4.8994Y-2.9516
X5.0128Y-0.7016
X5.0625Y-1.5864
X5.1506Y-1.1825
X5.1742Y-1.2081
X5.2003Y-1.2593
X5.2003Y-1.4516
X5.25Y-0.0864
X5.25Y-3.0864
X5.3381Y-1.2337
X5.3681Y-2.9516
X5.3878Y0.0484
X5.4375Y-2.3364
X5.5753Y-2.2016
X5.625Y-0.8364
X5.7628Y-0.7016
X5.8125Y-1.5864
X5.9006Y-1.2081
X5.9242Y-1.1825
X5.9503Y-1.2593
X5.9503Y-1.4516
X6.0Y-0.0864
X6.034Y-1.1313
X6.0881Y-1.3046
X6.1378Y0.0484
X6.1875Y-1.2337
X6.1875Y-1.875
X6.1875Y-2.3364
X6.3253Y-2.2016
X6.375Y-0.8364
X6.5128Y-0.7016
X6.5625Y-1.5864
X6.6506Y-1.1825
X6.6742Y-1.2081
X6.7003Y-1.2593
X6.7003Y-1.4516
X6.75Y-0.0864
X6.8381Y-1.2337
X6.8878Y0.0484
X6.9375Y-2.3364
X7.0753Y-2.2016
X7.125Y-0.8364
X7.2628Y-0.7016
X7.3125Y-1.5864
X7.3125Y-2.1425
X7.3125Y-2.8925
X7.4006Y-1.2081
X7.4242Y-1.1825
X7.4503Y-1.2593
X7.4503Y-1.4516
X7.5Y-0.0864
X7.534Y-1.1313
X7.5881Y-1.3046
X7.5938Y-3.0864
X7.6378Y0.0484
X7.6875Y-1.2337
X7.6875Y-1.875
X7.6875Y-2.3364
X7.7315Y-2.8256
X7.7315Y-2.9516
X7.8253Y-2.2016
X7.875Y-0.8364
X8.0128Y-0.7016
X8.0625Y-1.5864
X8.1506Y-1.1825
X8.1742Y-1.2081
X8.2003Y-1.2593
X8.2003Y-1.4516
X8.25Y-0.0864
X8.3381Y-1.2337
X8.3878Y0.0484
X8.3905Y-3.0
X8.3905Y-3.0689
X8.4375Y-1.2337
X8.4375Y-1.875
X8.4375Y-2.3364
X8.4842Y-3.0
X8.4842Y-3.0689
X8.5753Y-1.962
X8.5753Y-2.2016
X8.625Y-0.8364
X8.7628Y-0.7016
X8.7628Y-1.1825
X8.7742Y-2.8256
X8.7978Y-3.0138
X8.8125Y-1.5864
X8.8465Y-1.1313
X8.8465Y-1.8853
X8.9242Y-1.2081
X8.9478Y-1.2593
X8.9503Y-1.4516
X8.9503Y-1.9365
X8.9606Y-2.0388
X8.9715Y-1.2849
X8.9843Y-2.0132
X9.0Y-0.0864
X9.0315Y-1.1057
X9.0531Y-1.1313
X9.0748Y-1.1569
X9.0748Y-2.0388
X9.0748Y-2.1425
X9.1378Y0.0484
X9.1535Y-1.8597
X9.1752Y-1.8853
X9.1969Y-1.9109
X9.375Y-0.8364
X9.4219Y-1.2547
X9.4688Y-2.3364
X9.5128Y-0.7016
X9.6065Y-2.0132
X9.6065Y-2.2016
X9.75Y-0.0864
X9.75Y-3.0864
X9.8878Y0.0484
X9.8878Y-1.9876
X9.8878Y-2.9516
X9.9114Y-1.962
X9.9114Y-2.8256
X10.0312Y-1.5864
X10.125Y-0.0864
X10.169Y-1.3256
X10.169Y-1.4516
X10.2628Y0.0484
X10.3125Y-0.8364
X10.4503Y-0.7016
X10.5Y-0.0864
X10.5Y-2.3364
X10.5Y-3.0864
X10.6378Y0.0484
X10.6378Y-1.9365
X10.6378Y-2.2016
X10.6378Y-2.8256
X10.6378Y-2.9516
X10.752Y-1.2783
X10.7756Y-1.302
X10.8527Y-1.8853
X10.875Y-2.1425
X10.875Y-2.8925
X11.0625Y-1.5864
X11.0811Y-2.0388
X11.0811Y-2.1425
X11.25Y-0.0864
X11.25Y-0.8364
X11.25Y-1.5864
X11.25Y-2.3364
X11.25Y-3.0864
X11.3878Y0.0484
X11.3878Y-0.7016
X11.3878Y-1.4516
X11.3878Y-1.9365
X11.3878Y-2.0644
X11.3878Y-2.2016
X11.3878Y-2.9516
X11.5138Y-1.962
X11.5138Y-2.0132
X11.5374Y-1.9876
T3
X0.6861Y-1.1399
X0.7835Y-0.5807
X0.7969Y-0.9582
T5
X-0.1875Y-0.375
X1.5469Y-3.0
X1.875Y0.0
X2.625Y0.0
X3.1875Y-1.5
X4.125Y0.0
X5.625Y0.0
X6.1875Y-1.5
X6.375Y0.0
X7.9688Y-3.0
X8.4375Y-1.5
X8.625Y0.0
X10.125Y-0.375
X10.875Y-3.0
X11.4375Y-0.375
T4
G00X0.1862Y0.3103
M15
G01X0.1862Y0.2867
M16
G05
G00X0.1862Y0.1556
M15
G01X0.1862Y0.1122
M16
G05
G00X0.5264Y0.3103
M15
G01X0.5264Y0.2867
M16
G05
G00X0.5264Y0.1556
M15
G01X0.5264Y0.1122
M16
G05
M30
