%TF.GenerationSoftware,KiCad,Pcbnew,8.0.6*%
%TF.CreationDate,2024-11-18T06:19:36+07:00*%
%TF.ProjectId,Heart HE 65,48656172-7420-4484-9520-36352e6b6963,rev?*%
%TF.SameCoordinates,Original*%
%TF.FileFunction,Profile,NP*%
%FSLAX46Y46*%
G04 Gerber Fmt 4.6, Leading zero omitted, Abs format (unit mm)*
G04 Created by KiCad (PCBNEW 8.0.6) date 2024-11-18 06:19:36*
%MOMM*%
%LPD*%
G01*
G04 APERTURE LIST*
%TA.AperFunction,Profile*%
%ADD10C,0.200000*%
%TD*%
%TA.AperFunction,Profile*%
%ADD11C,0.100000*%
%TD*%
G04 APERTURE END LIST*
D10*
X228075000Y-67400000D02*
G75*
G02*
X229325000Y-66150000I1250000J0D01*
G01*
X5401894Y9000000D02*
G75*
G02*
X6731933Y8193551I6J-1500000D01*
G01*
X140081928Y-84393548D02*
G75*
G02*
X138751894Y-85199994I-1330028J693548D01*
G01*
X126618071Y8193548D02*
G75*
G02*
X127948105Y8999995I1330029J-693548D01*
G01*
X176851894Y9000000D02*
G75*
G02*
X178181933Y8193551I6J-1500000D01*
G01*
X119962483Y-37000037D02*
X118162486Y-37000037D01*
X183768071Y8193548D02*
G75*
G02*
X185098105Y8999995I1330029J-693548D01*
G01*
X280348106Y-85200000D02*
G75*
G02*
X279018067Y-84393551I-6J1500000D01*
G01*
X118162486Y-39200038D02*
G75*
G02*
X118162486Y-36999962I14J1100038D01*
G01*
X228075000Y-67400000D02*
X228075000Y-82950000D01*
X5401894Y9000000D02*
X-6750000Y9000000D01*
X250012487Y-20100038D02*
G75*
G02*
X250012486Y-17899962I13J1100038D01*
G01*
X119701894Y9000000D02*
G75*
G02*
X121031933Y8193551I6J-1500000D01*
G01*
X81601894Y9000000D02*
G75*
G02*
X82931933Y8193551I6J-1500000D01*
G01*
X16962483Y-17900037D02*
X15162487Y-17900037D01*
X280348106Y-85200000D02*
X292500000Y-85200000D01*
X208910606Y-85200000D02*
G75*
G02*
X207580567Y-84393551I-6J1500000D01*
G01*
X273431929Y-84393548D02*
G75*
G02*
X279018071Y-84393549I2793071J-1456452D01*
G01*
X182262479Y-75190728D02*
G75*
G02*
X182262479Y-77390672I21J-1099972D01*
G01*
X177393890Y-75190728D02*
X182262479Y-75190728D01*
X15162487Y-20100038D02*
X16962483Y-20100038D01*
X46985606Y-85200000D02*
G75*
G02*
X45655567Y-84393551I-6J1500000D01*
G01*
X12318071Y8193548D02*
G75*
G02*
X13648105Y8999995I1330029J-693548D01*
G01*
X-9000000Y-82950000D02*
X-9000000Y6750000D01*
X176851894Y9000000D02*
X127948105Y9000000D01*
X229325000Y-66150000D02*
X237400000Y-66150000D01*
X251812483Y-17900037D02*
X250012486Y-17900037D01*
X237400000Y-66150000D02*
G75*
G02*
X238650000Y-67400000I0J-1250000D01*
G01*
X251812483Y-17900037D02*
G75*
G02*
X251812483Y-20099963I17J-1099963D01*
G01*
X261298106Y-85200000D02*
G75*
G02*
X259968067Y-84393551I-6J1500000D01*
G01*
X292500000Y9000000D02*
X280348105Y9000000D01*
X81601894Y9000000D02*
X13648105Y9000000D01*
X272101894Y-85200000D02*
X261298106Y-85200000D01*
X178181929Y-84393548D02*
G75*
G02*
X183768071Y-84393549I2793071J-1456452D01*
G01*
X273431928Y-84393548D02*
G75*
G02*
X272101894Y-85199994I-1330028J693548D01*
G01*
X183768072Y8193548D02*
G75*
G02*
X178181928Y8193548I-2793072J1456451D01*
G01*
X225825000Y-85200000D02*
X208910606Y-85200000D01*
X119701894Y9000000D02*
X89848105Y9000000D01*
X254381928Y-84393548D02*
G75*
G02*
X253051894Y-85199994I-1330028J693548D01*
G01*
X185098106Y-85200000D02*
G75*
G02*
X183768067Y-84393551I-6J1500000D01*
G01*
X201994429Y-84393548D02*
G75*
G02*
X207580571Y-84393549I2793071J-1456452D01*
G01*
X38739394Y-85200000D02*
X-6750000Y-85200000D01*
X118162486Y-39200038D02*
X119962483Y-39200038D01*
X40069429Y-84393548D02*
G75*
G02*
X45655571Y-84393549I2793071J-1456452D01*
G01*
X254381929Y-84393548D02*
G75*
G02*
X259968071Y-84393549I2793071J-1456452D01*
G01*
X200664394Y-85200000D02*
X185098106Y-85200000D01*
X-9000000Y6750000D02*
G75*
G02*
X-6750000Y9000000I2250000J0D01*
G01*
X15162487Y-20100038D02*
G75*
G02*
X15162487Y-17900042I-37J1099998D01*
G01*
X272101894Y9000000D02*
X185098105Y9000000D01*
X88518072Y8193548D02*
G75*
G02*
X82931928Y8193548I-2793072J1456451D01*
G01*
X292500000Y9000000D02*
G75*
G02*
X294750000Y6750000I0J-2250000D01*
G01*
X294750000Y-82950000D02*
X294750000Y6750000D01*
X177393890Y-77390729D02*
G75*
G02*
X177393890Y-75190671I10J1100029D01*
G01*
X138751894Y-85200000D02*
X46985606Y-85200000D01*
X40069428Y-84393548D02*
G75*
G02*
X38739394Y-85199994I-1330028J693548D01*
G01*
X228075000Y-82950000D02*
G75*
G02*
X225825000Y-85200000I-2250000J0D01*
G01*
X250012487Y-20100038D02*
X251812483Y-20100038D01*
X88518071Y8193548D02*
G75*
G02*
X89848105Y8999995I1330029J-693548D01*
G01*
X140081929Y-84393548D02*
G75*
G02*
X145668071Y-84393549I2793071J-1456452D01*
G01*
X146998106Y-85200000D02*
G75*
G02*
X145668067Y-84393551I-6J1500000D01*
G01*
X-6750000Y-85200000D02*
G75*
G02*
X-9000000Y-82950000I-20J2249980D01*
G01*
X16962483Y-17900037D02*
G75*
G02*
X16962483Y-20100043I-33J-1100003D01*
G01*
X238650000Y-82950000D02*
X238650000Y-67400000D01*
X119962483Y-37000037D02*
G75*
G02*
X119962483Y-39199963I17J-1099963D01*
G01*
X240900000Y-85200000D02*
G75*
G02*
X238650000Y-82950000I0J2250000D01*
G01*
X176851894Y-85200000D02*
X146998106Y-85200000D01*
X126618072Y8193548D02*
G75*
G02*
X121031928Y8193548I-2793072J1456451D01*
G01*
X201994428Y-84393548D02*
G75*
G02*
X200664394Y-85199994I-1330028J693548D01*
G01*
X279018071Y8193548D02*
G75*
G02*
X280348105Y8999995I1330029J-693548D01*
G01*
X279018072Y8193548D02*
G75*
G02*
X273431928Y8193548I-2793072J1456451D01*
G01*
X272101894Y9000000D02*
G75*
G02*
X273431933Y8193551I6J-1500000D01*
G01*
X178181928Y-84393548D02*
G75*
G02*
X176851894Y-85199994I-1330028J693548D01*
G01*
X12318072Y8193548D02*
G75*
G02*
X6731928Y8193548I-2793072J1456451D01*
G01*
X182262479Y-77390729D02*
X177393890Y-77390729D01*
X294750000Y-82950000D02*
G75*
G02*
X292500000Y-85200000I-2250000J0D01*
G01*
X253051894Y-85200000D02*
X240900000Y-85200000D01*
D11*
%TO.C,RGB1_A23*%
X284050001Y-43882842D02*
X284050001Y-42477158D01*
X284955548Y-41680000D02*
X286544452Y-41680000D01*
X286544452Y-44679999D02*
X284955547Y-44679999D01*
X287449999Y-42477158D02*
X287449999Y-43882842D01*
X284000516Y-42260280D02*
G75*
G02*
X284050001Y-42477158I-450505J-216876D01*
G01*
X284000516Y-42260281D02*
G75*
G02*
X284703289Y-41611701I450514J216880D01*
G01*
X284050001Y-43882843D02*
G75*
G02*
X284000516Y-44099720I-499990J-1D01*
G01*
X284703289Y-44748298D02*
G75*
G02*
X284000516Y-44099720I-252258J431701D01*
G01*
X284703289Y-44748298D02*
G75*
G02*
X284955547Y-44679999I252261J-431710D01*
G01*
X284955548Y-41680000D02*
G75*
G02*
X284703289Y-41611701I2J500009D01*
G01*
X286544453Y-44680000D02*
G75*
G02*
X286796711Y-44748299I-3J-500010D01*
G01*
X286796710Y-41611701D02*
G75*
G02*
X286544452Y-41679999I-252260J431711D01*
G01*
X286796711Y-41611703D02*
G75*
G02*
X287499481Y-42260279I252259J-431697D01*
G01*
X287449999Y-42477157D02*
G75*
G02*
X287499482Y-42260279I500031J-3D01*
G01*
X287499484Y-44099720D02*
G75*
G02*
X286796710Y-44748300I-450514J-216880D01*
G01*
X287499484Y-44099720D02*
G75*
G02*
X287449995Y-43882842I450216J216820D01*
G01*
%TO.C,RGB1_B24*%
X60212501Y-62932841D02*
X60212501Y-61527157D01*
X61118048Y-60730000D02*
X62706953Y-60730000D01*
X62706952Y-63729999D02*
X61118048Y-63729999D01*
X63612499Y-61527157D02*
X63612499Y-62932841D01*
X60163016Y-61310279D02*
G75*
G02*
X60212501Y-61527157I-450505J-216876D01*
G01*
X60163016Y-61310279D02*
G75*
G02*
X60865789Y-60661700I450515J216878D01*
G01*
X60212501Y-62932842D02*
G75*
G02*
X60163016Y-63149719I-499990J-1D01*
G01*
X60865789Y-63798296D02*
G75*
G02*
X60163016Y-63149719I-252258J431700D01*
G01*
X60865790Y-63798298D02*
G75*
G02*
X61118048Y-63729999I252261J-431710D01*
G01*
X61118047Y-60729999D02*
G75*
G02*
X60865789Y-60661700I3J500009D01*
G01*
X62706952Y-63729999D02*
G75*
G02*
X62959211Y-63798298I-2J-500011D01*
G01*
X62959211Y-60661701D02*
G75*
G02*
X62706953Y-60730000I-252261J431711D01*
G01*
X62959211Y-60661701D02*
G75*
G02*
X63661983Y-61310279I252259J-431699D01*
G01*
X63612499Y-61527156D02*
G75*
G02*
X63661982Y-61310278I500031J-4D01*
G01*
X63661984Y-63149718D02*
G75*
G02*
X62959211Y-63798298I-450514J-216880D01*
G01*
X63661984Y-63149719D02*
G75*
G02*
X63612495Y-62932841I450216J216819D01*
G01*
%TO.C,RGB1_B31*%
X284050001Y-62932841D02*
X284050001Y-61527157D01*
X284955548Y-60730000D02*
X286544453Y-60730000D01*
X286544452Y-63729999D02*
X284955548Y-63729999D01*
X287449999Y-61527157D02*
X287449999Y-62932841D01*
X284000516Y-61310279D02*
G75*
G02*
X284050001Y-61527157I-450505J-216876D01*
G01*
X284000516Y-61310279D02*
G75*
G02*
X284703289Y-60661700I450515J216878D01*
G01*
X284050001Y-62932842D02*
G75*
G02*
X284000516Y-63149719I-499990J-1D01*
G01*
X284703289Y-63798296D02*
G75*
G02*
X284000516Y-63149719I-252258J431700D01*
G01*
X284703290Y-63798298D02*
G75*
G02*
X284955548Y-63729999I252261J-431710D01*
G01*
X284955547Y-60729999D02*
G75*
G02*
X284703289Y-60661700I3J500009D01*
G01*
X286544452Y-63729999D02*
G75*
G02*
X286796711Y-63798298I-2J-500011D01*
G01*
X286796711Y-60661701D02*
G75*
G02*
X286544453Y-60730000I-252261J431711D01*
G01*
X286796711Y-60661701D02*
G75*
G02*
X287499483Y-61310279I252259J-431699D01*
G01*
X287449999Y-61527156D02*
G75*
G02*
X287499482Y-61310278I500031J-4D01*
G01*
X287499484Y-63149718D02*
G75*
G02*
X286796711Y-63798298I-450514J-216880D01*
G01*
X287499484Y-63149719D02*
G75*
G02*
X287449995Y-62932841I450216J216819D01*
G01*
%TO.C,RGB1_B29*%
X136412501Y-62932841D02*
X136412501Y-61527157D01*
X137318048Y-60730000D02*
X138906953Y-60730000D01*
X138906952Y-63729999D02*
X137318048Y-63729999D01*
X139812499Y-61527157D02*
X139812499Y-62932841D01*
X136363016Y-61310279D02*
G75*
G02*
X136412501Y-61527157I-450505J-216876D01*
G01*
X136363016Y-61310279D02*
G75*
G02*
X137065789Y-60661700I450515J216878D01*
G01*
X136412501Y-62932842D02*
G75*
G02*
X136363016Y-63149719I-499990J-1D01*
G01*
X137065789Y-63798296D02*
G75*
G02*
X136363016Y-63149719I-252258J431700D01*
G01*
X137065790Y-63798298D02*
G75*
G02*
X137318048Y-63729999I252261J-431710D01*
G01*
X137318047Y-60729999D02*
G75*
G02*
X137065789Y-60661700I3J500009D01*
G01*
X138906952Y-63729999D02*
G75*
G02*
X139159211Y-63798298I-2J-500011D01*
G01*
X139159211Y-60661701D02*
G75*
G02*
X138906953Y-60730000I-252261J431711D01*
G01*
X139159211Y-60661701D02*
G75*
G02*
X139861983Y-61310279I252259J-431699D01*
G01*
X139812499Y-61527156D02*
G75*
G02*
X139861982Y-61310278I500031J-4D01*
G01*
X139861984Y-63149718D02*
G75*
G02*
X139159211Y-63798298I-450514J-216880D01*
G01*
X139861984Y-63149719D02*
G75*
G02*
X139812495Y-62932841I450216J216819D01*
G01*
%TO.C,RGB1_A15*%
X265000001Y-5782842D02*
X265000001Y-4377158D01*
X265905548Y-3580000D02*
X267494452Y-3580000D01*
X267494452Y-6579999D02*
X265905547Y-6579999D01*
X268399999Y-4377158D02*
X268399999Y-5782842D01*
X264950516Y-4160280D02*
G75*
G02*
X265000001Y-4377158I-450505J-216876D01*
G01*
X264950516Y-4160281D02*
G75*
G02*
X265653289Y-3511701I450514J216880D01*
G01*
X265000001Y-5782843D02*
G75*
G02*
X264950516Y-5999720I-499990J-1D01*
G01*
X265653289Y-6648298D02*
G75*
G02*
X264950516Y-5999720I-252258J431701D01*
G01*
X265653289Y-6648298D02*
G75*
G02*
X265905547Y-6579999I252261J-431710D01*
G01*
X265905548Y-3580000D02*
G75*
G02*
X265653289Y-3511701I2J500009D01*
G01*
X267494453Y-6580000D02*
G75*
G02*
X267746711Y-6648299I-3J-500010D01*
G01*
X267746710Y-3511701D02*
G75*
G02*
X267494452Y-3579999I-252260J431711D01*
G01*
X267746711Y-3511703D02*
G75*
G02*
X268449481Y-4160279I252259J-431697D01*
G01*
X268399999Y-4377157D02*
G75*
G02*
X268449482Y-4160279I500031J-3D01*
G01*
X268449484Y-5999720D02*
G75*
G02*
X267746710Y-6648300I-450514J-216880D01*
G01*
X268449484Y-5999720D02*
G75*
G02*
X268399995Y-5782842I450216J216820D01*
G01*
%TO.C,RGB1_A14*%
X255475001Y-5782842D02*
X255475001Y-4377158D01*
X256380548Y-3580000D02*
X257969452Y-3580000D01*
X257969452Y-6579999D02*
X256380547Y-6579999D01*
X258874999Y-4377158D02*
X258874999Y-5782842D01*
X255425516Y-4160280D02*
G75*
G02*
X255475001Y-4377158I-450505J-216876D01*
G01*
X255425516Y-4160281D02*
G75*
G02*
X256128289Y-3511701I450514J216880D01*
G01*
X255475001Y-5782843D02*
G75*
G02*
X255425516Y-5999720I-499990J-1D01*
G01*
X256128289Y-6648298D02*
G75*
G02*
X255425516Y-5999720I-252258J431701D01*
G01*
X256128289Y-6648298D02*
G75*
G02*
X256380547Y-6579999I252261J-431710D01*
G01*
X256380548Y-3580000D02*
G75*
G02*
X256128289Y-3511701I2J500009D01*
G01*
X257969453Y-6580000D02*
G75*
G02*
X258221711Y-6648299I-3J-500010D01*
G01*
X258221710Y-3511701D02*
G75*
G02*
X257969452Y-3579999I-252260J431711D01*
G01*
X258221711Y-3511703D02*
G75*
G02*
X258924481Y-4160279I252259J-431697D01*
G01*
X258874999Y-4377157D02*
G75*
G02*
X258924482Y-4160279I500031J-3D01*
G01*
X258924484Y-5999720D02*
G75*
G02*
X258221710Y-6648300I-450514J-216880D01*
G01*
X258924484Y-5999720D02*
G75*
G02*
X258874995Y-5782842I450216J216820D01*
G01*
%TO.C,RGB1_A31*%
X184037501Y-43882842D02*
X184037501Y-42477158D01*
X184943048Y-41680000D02*
X186531952Y-41680000D01*
X186531952Y-44679999D02*
X184943047Y-44679999D01*
X187437499Y-42477158D02*
X187437499Y-43882842D01*
X183988016Y-42260280D02*
G75*
G02*
X184037501Y-42477158I-450505J-216876D01*
G01*
X183988016Y-42260281D02*
G75*
G02*
X184690789Y-41611701I450514J216880D01*
G01*
X184037501Y-43882843D02*
G75*
G02*
X183988016Y-44099720I-499990J-1D01*
G01*
X184690789Y-44748298D02*
G75*
G02*
X183988016Y-44099720I-252258J431701D01*
G01*
X184690789Y-44748298D02*
G75*
G02*
X184943047Y-44679999I252261J-431710D01*
G01*
X184943048Y-41680000D02*
G75*
G02*
X184690789Y-41611701I2J500009D01*
G01*
X186531953Y-44680000D02*
G75*
G02*
X186784211Y-44748299I-3J-500010D01*
G01*
X186784210Y-41611701D02*
G75*
G02*
X186531952Y-41679999I-252260J431711D01*
G01*
X186784211Y-41611703D02*
G75*
G02*
X187486981Y-42260279I252259J-431697D01*
G01*
X187437499Y-42477157D02*
G75*
G02*
X187486982Y-42260279I500031J-3D01*
G01*
X187486984Y-44099720D02*
G75*
G02*
X186784210Y-44748300I-450514J-216880D01*
G01*
X187486984Y-44099720D02*
G75*
G02*
X187437495Y-43882842I450216J216820D01*
G01*
%TO.C,RGB1_B17*%
X265000001Y-62932841D02*
X265000001Y-61527157D01*
X265905548Y-60730000D02*
X267494453Y-60730000D01*
X267494452Y-63729999D02*
X265905548Y-63729999D01*
X268399999Y-61527157D02*
X268399999Y-62932841D01*
X264950516Y-61310279D02*
G75*
G02*
X265000001Y-61527157I-450505J-216876D01*
G01*
X264950516Y-61310279D02*
G75*
G02*
X265653289Y-60661700I450515J216878D01*
G01*
X265000001Y-62932842D02*
G75*
G02*
X264950516Y-63149719I-499990J-1D01*
G01*
X265653289Y-63798296D02*
G75*
G02*
X264950516Y-63149719I-252258J431700D01*
G01*
X265653290Y-63798298D02*
G75*
G02*
X265905548Y-63729999I252261J-431710D01*
G01*
X265905547Y-60729999D02*
G75*
G02*
X265653289Y-60661700I3J500009D01*
G01*
X267494452Y-63729999D02*
G75*
G02*
X267746711Y-63798298I-2J-500011D01*
G01*
X267746711Y-60661701D02*
G75*
G02*
X267494453Y-60730000I-252261J431711D01*
G01*
X267746711Y-60661701D02*
G75*
G02*
X268449483Y-61310279I252259J-431699D01*
G01*
X268399999Y-61527156D02*
G75*
G02*
X268449482Y-61310278I500031J-4D01*
G01*
X268449484Y-63149718D02*
G75*
G02*
X267746711Y-63798298I-450514J-216880D01*
G01*
X268449484Y-63149719D02*
G75*
G02*
X268399995Y-62932841I450216J216819D01*
G01*
%TO.C,RGB1_B22*%
X41162501Y-62932841D02*
X41162501Y-61527157D01*
X42068048Y-60730000D02*
X43656953Y-60730000D01*
X43656952Y-63729999D02*
X42068048Y-63729999D01*
X44562499Y-61527157D02*
X44562499Y-62932841D01*
X41113016Y-61310279D02*
G75*
G02*
X41162501Y-61527157I-450505J-216876D01*
G01*
X41113016Y-61310279D02*
G75*
G02*
X41815789Y-60661700I450515J216878D01*
G01*
X41162501Y-62932842D02*
G75*
G02*
X41113016Y-63149719I-499990J-1D01*
G01*
X41815789Y-63798296D02*
G75*
G02*
X41113016Y-63149719I-252258J431700D01*
G01*
X41815790Y-63798298D02*
G75*
G02*
X42068048Y-63729999I252261J-431710D01*
G01*
X42068047Y-60729999D02*
G75*
G02*
X41815789Y-60661700I3J500009D01*
G01*
X43656952Y-63729999D02*
G75*
G02*
X43909211Y-63798298I-2J-500011D01*
G01*
X43909211Y-60661701D02*
G75*
G02*
X43656953Y-60730000I-252261J431711D01*
G01*
X43909211Y-60661701D02*
G75*
G02*
X44611983Y-61310279I252259J-431699D01*
G01*
X44562499Y-61527156D02*
G75*
G02*
X44611982Y-61310278I500031J-4D01*
G01*
X44611984Y-63149718D02*
G75*
G02*
X43909211Y-63798298I-450514J-216880D01*
G01*
X44611984Y-63149719D02*
G75*
G02*
X44562495Y-62932841I450216J216819D01*
G01*
%TO.C,RGB1_B2*%
X260237501Y-24832841D02*
X260237501Y-23427157D01*
X261143048Y-22630000D02*
X262731953Y-22630000D01*
X262731952Y-25629999D02*
X261143048Y-25629999D01*
X263637499Y-23427157D02*
X263637499Y-24832841D01*
X260188016Y-23210279D02*
G75*
G02*
X260237501Y-23427157I-450505J-216876D01*
G01*
X260188016Y-23210279D02*
G75*
G02*
X260890789Y-22561700I450515J216878D01*
G01*
X260237501Y-24832842D02*
G75*
G02*
X260188016Y-25049719I-499990J-1D01*
G01*
X260890789Y-25698296D02*
G75*
G02*
X260188016Y-25049719I-252258J431700D01*
G01*
X260890790Y-25698298D02*
G75*
G02*
X261143048Y-25629999I252261J-431710D01*
G01*
X261143047Y-22629999D02*
G75*
G02*
X260890789Y-22561700I3J500009D01*
G01*
X262731952Y-25629999D02*
G75*
G02*
X262984211Y-25698298I-2J-500011D01*
G01*
X262984211Y-22561701D02*
G75*
G02*
X262731953Y-22630000I-252261J431711D01*
G01*
X262984211Y-22561701D02*
G75*
G02*
X263686983Y-23210279I252259J-431699D01*
G01*
X263637499Y-23427156D02*
G75*
G02*
X263686982Y-23210278I500031J-4D01*
G01*
X263686984Y-25049718D02*
G75*
G02*
X262984211Y-25698298I-450514J-216880D01*
G01*
X263686984Y-25049719D02*
G75*
G02*
X263637495Y-24832841I450216J216819D01*
G01*
%TO.C,RGB1_A19*%
X1871876Y-81982842D02*
X1871876Y-80577158D01*
X2777423Y-79780000D02*
X4366327Y-79780000D01*
X4366327Y-82779999D02*
X2777422Y-82779999D01*
X5271874Y-80577158D02*
X5271874Y-81982842D01*
X1822391Y-80360280D02*
G75*
G02*
X1871876Y-80577158I-450505J-216876D01*
G01*
X1822391Y-80360281D02*
G75*
G02*
X2525164Y-79711701I450514J216880D01*
G01*
X1871876Y-81982843D02*
G75*
G02*
X1822391Y-82199720I-499990J-1D01*
G01*
X2525164Y-82848298D02*
G75*
G02*
X1822391Y-82199720I-252258J431701D01*
G01*
X2525164Y-82848298D02*
G75*
G02*
X2777422Y-82779999I252261J-431710D01*
G01*
X2777423Y-79780000D02*
G75*
G02*
X2525164Y-79711701I2J500009D01*
G01*
X4366328Y-82780000D02*
G75*
G02*
X4618586Y-82848299I-3J-500010D01*
G01*
X4618585Y-79711701D02*
G75*
G02*
X4366327Y-79779999I-252260J431711D01*
G01*
X4618586Y-79711703D02*
G75*
G02*
X5321356Y-80360279I252259J-431697D01*
G01*
X5271874Y-80577157D02*
G75*
G02*
X5321357Y-80360279I500031J-3D01*
G01*
X5321359Y-82199720D02*
G75*
G02*
X4618585Y-82848300I-450514J-216880D01*
G01*
X5321359Y-82199720D02*
G75*
G02*
X5271870Y-81982842I450216J216820D01*
G01*
%TO.C,RGB1_A22*%
X50687501Y-43882842D02*
X50687501Y-42477158D01*
X51593048Y-41680000D02*
X53181952Y-41680000D01*
X53181952Y-44679999D02*
X51593047Y-44679999D01*
X54087499Y-42477158D02*
X54087499Y-43882842D01*
X50638016Y-42260280D02*
G75*
G02*
X50687501Y-42477158I-450505J-216876D01*
G01*
X50638016Y-42260281D02*
G75*
G02*
X51340789Y-41611701I450514J216880D01*
G01*
X50687501Y-43882843D02*
G75*
G02*
X50638016Y-44099720I-499990J-1D01*
G01*
X51340789Y-44748298D02*
G75*
G02*
X50638016Y-44099720I-252258J431701D01*
G01*
X51340789Y-44748298D02*
G75*
G02*
X51593047Y-44679999I252261J-431710D01*
G01*
X51593048Y-41680000D02*
G75*
G02*
X51340789Y-41611701I2J500009D01*
G01*
X53181953Y-44680000D02*
G75*
G02*
X53434211Y-44748299I-3J-500010D01*
G01*
X53434210Y-41611701D02*
G75*
G02*
X53181952Y-41679999I-252260J431711D01*
G01*
X53434211Y-41611703D02*
G75*
G02*
X54136981Y-42260279I252259J-431697D01*
G01*
X54087499Y-42477157D02*
G75*
G02*
X54136982Y-42260279I500031J-3D01*
G01*
X54136984Y-44099720D02*
G75*
G02*
X53434210Y-44748300I-450514J-216880D01*
G01*
X54136984Y-44099720D02*
G75*
G02*
X54087495Y-43882842I450216J216820D01*
G01*
%TO.C,RGB1_A10*%
X188800001Y-5782842D02*
X188800001Y-4377158D01*
X189705548Y-3580000D02*
X191294452Y-3580000D01*
X191294452Y-6579999D02*
X189705547Y-6579999D01*
X192199999Y-4377158D02*
X192199999Y-5782842D01*
X188750516Y-4160280D02*
G75*
G02*
X188800001Y-4377158I-450505J-216876D01*
G01*
X188750516Y-4160281D02*
G75*
G02*
X189453289Y-3511701I450514J216880D01*
G01*
X188800001Y-5782843D02*
G75*
G02*
X188750516Y-5999720I-499990J-1D01*
G01*
X189453289Y-6648298D02*
G75*
G02*
X188750516Y-5999720I-252258J431701D01*
G01*
X189453289Y-6648298D02*
G75*
G02*
X189705547Y-6579999I252261J-431710D01*
G01*
X189705548Y-3580000D02*
G75*
G02*
X189453289Y-3511701I2J500009D01*
G01*
X191294453Y-6580000D02*
G75*
G02*
X191546711Y-6648299I-3J-500010D01*
G01*
X191546710Y-3511701D02*
G75*
G02*
X191294452Y-3579999I-252260J431711D01*
G01*
X191546711Y-3511703D02*
G75*
G02*
X192249481Y-4160279I252259J-431697D01*
G01*
X192199999Y-4377157D02*
G75*
G02*
X192249482Y-4160279I500031J-3D01*
G01*
X192249484Y-5999720D02*
G75*
G02*
X191546710Y-6648300I-450514J-216880D01*
G01*
X192249484Y-5999720D02*
G75*
G02*
X192199995Y-5782842I450216J216820D01*
G01*
%TO.C,RGB1_A7*%
X131650001Y-5782842D02*
X131650001Y-4377158D01*
X132555548Y-3580000D02*
X134144452Y-3580000D01*
X134144452Y-6579999D02*
X132555547Y-6579999D01*
X135049999Y-4377158D02*
X135049999Y-5782842D01*
X131600516Y-4160280D02*
G75*
G02*
X131650001Y-4377158I-450505J-216876D01*
G01*
X131600516Y-4160281D02*
G75*
G02*
X132303289Y-3511701I450514J216880D01*
G01*
X131650001Y-5782843D02*
G75*
G02*
X131600516Y-5999720I-499990J-1D01*
G01*
X132303289Y-6648298D02*
G75*
G02*
X131600516Y-5999720I-252258J431701D01*
G01*
X132303289Y-6648298D02*
G75*
G02*
X132555547Y-6579999I252261J-431710D01*
G01*
X132555548Y-3580000D02*
G75*
G02*
X132303289Y-3511701I2J500009D01*
G01*
X134144453Y-6580000D02*
G75*
G02*
X134396711Y-6648299I-3J-500010D01*
G01*
X134396710Y-3511701D02*
G75*
G02*
X134144452Y-3579999I-252260J431711D01*
G01*
X134396711Y-3511703D02*
G75*
G02*
X135099481Y-4160279I252259J-431697D01*
G01*
X135049999Y-4377157D02*
G75*
G02*
X135099482Y-4160279I500031J-3D01*
G01*
X135099484Y-5999720D02*
G75*
G02*
X134396710Y-6648300I-450514J-216880D01*
G01*
X135099484Y-5999720D02*
G75*
G02*
X135049995Y-5782842I450216J216820D01*
G01*
%TO.C,RGB1_B16*%
X681251Y-62932841D02*
X681251Y-61527157D01*
X1586798Y-60730000D02*
X3175703Y-60730000D01*
X3175702Y-63729999D02*
X1586798Y-63729999D01*
X4081249Y-61527157D02*
X4081249Y-62932841D01*
X631766Y-61310279D02*
G75*
G02*
X681251Y-61527157I-450505J-216876D01*
G01*
X631766Y-61310279D02*
G75*
G02*
X1334539Y-60661700I450515J216878D01*
G01*
X681251Y-62932842D02*
G75*
G02*
X631766Y-63149719I-499990J-1D01*
G01*
X1334539Y-63798296D02*
G75*
G02*
X631766Y-63149719I-252258J431700D01*
G01*
X1334540Y-63798298D02*
G75*
G02*
X1586798Y-63729999I252261J-431710D01*
G01*
X1586797Y-60729999D02*
G75*
G02*
X1334539Y-60661700I3J500009D01*
G01*
X3175702Y-63729999D02*
G75*
G02*
X3427961Y-63798298I-2J-500011D01*
G01*
X3427961Y-60661701D02*
G75*
G02*
X3175703Y-60730000I-252261J431711D01*
G01*
X3427961Y-60661701D02*
G75*
G02*
X4130733Y-61310279I252259J-431699D01*
G01*
X4081249Y-61527156D02*
G75*
G02*
X4130732Y-61310278I500031J-4D01*
G01*
X4130734Y-63149718D02*
G75*
G02*
X3427961Y-63798298I-450514J-216880D01*
G01*
X4130734Y-63149719D02*
G75*
G02*
X4081245Y-62932841I450216J216819D01*
G01*
%TO.C,RGB1_A18*%
X5443751Y-43882842D02*
X5443751Y-42477158D01*
X6349298Y-41680000D02*
X7938202Y-41680000D01*
X7938202Y-44679999D02*
X6349297Y-44679999D01*
X8843749Y-42477158D02*
X8843749Y-43882842D01*
X5394266Y-42260280D02*
G75*
G02*
X5443751Y-42477158I-450505J-216876D01*
G01*
X5394266Y-42260281D02*
G75*
G02*
X6097039Y-41611701I450514J216880D01*
G01*
X5443751Y-43882843D02*
G75*
G02*
X5394266Y-44099720I-499990J-1D01*
G01*
X6097039Y-44748298D02*
G75*
G02*
X5394266Y-44099720I-252258J431701D01*
G01*
X6097039Y-44748298D02*
G75*
G02*
X6349297Y-44679999I252261J-431710D01*
G01*
X6349298Y-41680000D02*
G75*
G02*
X6097039Y-41611701I2J500009D01*
G01*
X7938203Y-44680000D02*
G75*
G02*
X8190461Y-44748299I-3J-500010D01*
G01*
X8190460Y-41611701D02*
G75*
G02*
X7938202Y-41679999I-252260J431711D01*
G01*
X8190461Y-41611703D02*
G75*
G02*
X8893231Y-42260279I252259J-431697D01*
G01*
X8843749Y-42477157D02*
G75*
G02*
X8893232Y-42260279I500031J-3D01*
G01*
X8893234Y-44099720D02*
G75*
G02*
X8190460Y-44748300I-450514J-216880D01*
G01*
X8893234Y-44099720D02*
G75*
G02*
X8843745Y-43882842I450216J216820D01*
G01*
%TO.C,RGB1_B26*%
X79262501Y-62932841D02*
X79262501Y-61527157D01*
X80168048Y-60730000D02*
X81756953Y-60730000D01*
X81756952Y-63729999D02*
X80168048Y-63729999D01*
X82662499Y-61527157D02*
X82662499Y-62932841D01*
X79213016Y-61310279D02*
G75*
G02*
X79262501Y-61527157I-450505J-216876D01*
G01*
X79213016Y-61310279D02*
G75*
G02*
X79915789Y-60661700I450515J216878D01*
G01*
X79262501Y-62932842D02*
G75*
G02*
X79213016Y-63149719I-499990J-1D01*
G01*
X79915789Y-63798296D02*
G75*
G02*
X79213016Y-63149719I-252258J431700D01*
G01*
X79915790Y-63798298D02*
G75*
G02*
X80168048Y-63729999I252261J-431710D01*
G01*
X80168047Y-60729999D02*
G75*
G02*
X79915789Y-60661700I3J500009D01*
G01*
X81756952Y-63729999D02*
G75*
G02*
X82009211Y-63798298I-2J-500011D01*
G01*
X82009211Y-60661701D02*
G75*
G02*
X81756953Y-60730000I-252261J431711D01*
G01*
X82009211Y-60661701D02*
G75*
G02*
X82711983Y-61310279I252259J-431699D01*
G01*
X82662499Y-61527156D02*
G75*
G02*
X82711982Y-61310278I500031J-4D01*
G01*
X82711984Y-63149718D02*
G75*
G02*
X82009211Y-63798298I-450514J-216880D01*
G01*
X82711984Y-63149719D02*
G75*
G02*
X82662495Y-62932841I450216J216819D01*
G01*
%TO.C,RGB1_A13*%
X245950001Y-5782842D02*
X245950001Y-4377158D01*
X246855548Y-3580000D02*
X248444452Y-3580000D01*
X248444452Y-6579999D02*
X246855547Y-6579999D01*
X249349999Y-4377158D02*
X249349999Y-5782842D01*
X245900516Y-4160280D02*
G75*
G02*
X245950001Y-4377158I-450505J-216876D01*
G01*
X245900516Y-4160281D02*
G75*
G02*
X246603289Y-3511701I450514J216880D01*
G01*
X245950001Y-5782843D02*
G75*
G02*
X245900516Y-5999720I-499990J-1D01*
G01*
X246603289Y-6648298D02*
G75*
G02*
X245900516Y-5999720I-252258J431701D01*
G01*
X246603289Y-6648298D02*
G75*
G02*
X246855547Y-6579999I252261J-431710D01*
G01*
X246855548Y-3580000D02*
G75*
G02*
X246603289Y-3511701I2J500009D01*
G01*
X248444453Y-6580000D02*
G75*
G02*
X248696711Y-6648299I-3J-500010D01*
G01*
X248696710Y-3511701D02*
G75*
G02*
X248444452Y-3579999I-252260J431711D01*
G01*
X248696711Y-3511703D02*
G75*
G02*
X249399481Y-4160279I252259J-431697D01*
G01*
X249349999Y-4377157D02*
G75*
G02*
X249399482Y-4160279I500031J-3D01*
G01*
X249399484Y-5999720D02*
G75*
G02*
X248696710Y-6648300I-450514J-216880D01*
G01*
X249399484Y-5999720D02*
G75*
G02*
X249349995Y-5782842I450216J216820D01*
G01*
%TO.C,RGB1_A25*%
X253093751Y-43882842D02*
X253093751Y-42477158D01*
X253999298Y-41680000D02*
X255588202Y-41680000D01*
X255588202Y-44679999D02*
X253999297Y-44679999D01*
X256493749Y-42477158D02*
X256493749Y-43882842D01*
X253044266Y-42260280D02*
G75*
G02*
X253093751Y-42477158I-450505J-216876D01*
G01*
X253044266Y-42260281D02*
G75*
G02*
X253747039Y-41611701I450514J216880D01*
G01*
X253093751Y-43882843D02*
G75*
G02*
X253044266Y-44099720I-499990J-1D01*
G01*
X253747039Y-44748298D02*
G75*
G02*
X253044266Y-44099720I-252258J431701D01*
G01*
X253747039Y-44748298D02*
G75*
G02*
X253999297Y-44679999I252261J-431710D01*
G01*
X253999298Y-41680000D02*
G75*
G02*
X253747039Y-41611701I2J500009D01*
G01*
X255588203Y-44680000D02*
G75*
G02*
X255840461Y-44748299I-3J-500010D01*
G01*
X255840460Y-41611701D02*
G75*
G02*
X255588202Y-41679999I-252260J431711D01*
G01*
X255840461Y-41611703D02*
G75*
G02*
X256543231Y-42260279I252259J-431697D01*
G01*
X256493749Y-42477157D02*
G75*
G02*
X256543232Y-42260279I500031J-3D01*
G01*
X256543234Y-44099720D02*
G75*
G02*
X255840460Y-44748300I-450514J-216880D01*
G01*
X256543234Y-44099720D02*
G75*
G02*
X256493745Y-43882842I450216J216820D01*
G01*
%TO.C,RGB1_A6*%
X112600001Y-5782842D02*
X112600001Y-4377158D01*
X113505548Y-3580000D02*
X115094452Y-3580000D01*
X115094452Y-6579999D02*
X113505547Y-6579999D01*
X115999999Y-4377158D02*
X115999999Y-5782842D01*
X112550516Y-4160280D02*
G75*
G02*
X112600001Y-4377158I-450505J-216876D01*
G01*
X112550516Y-4160281D02*
G75*
G02*
X113253289Y-3511701I450514J216880D01*
G01*
X112600001Y-5782843D02*
G75*
G02*
X112550516Y-5999720I-499990J-1D01*
G01*
X113253289Y-6648298D02*
G75*
G02*
X112550516Y-5999720I-252258J431701D01*
G01*
X113253289Y-6648298D02*
G75*
G02*
X113505547Y-6579999I252261J-431710D01*
G01*
X113505548Y-3580000D02*
G75*
G02*
X113253289Y-3511701I2J500009D01*
G01*
X115094453Y-6580000D02*
G75*
G02*
X115346711Y-6648299I-3J-500010D01*
G01*
X115346710Y-3511701D02*
G75*
G02*
X115094452Y-3579999I-252260J431711D01*
G01*
X115346711Y-3511703D02*
G75*
G02*
X116049481Y-4160279I252259J-431697D01*
G01*
X115999999Y-4377157D02*
G75*
G02*
X116049482Y-4160279I500031J-3D01*
G01*
X116049484Y-5999720D02*
G75*
G02*
X115346710Y-6648300I-450514J-216880D01*
G01*
X116049484Y-5999720D02*
G75*
G02*
X115999995Y-5782842I450216J216820D01*
G01*
%TO.C,RGB1_A21*%
X25684376Y-81982842D02*
X25684376Y-80577158D01*
X26589923Y-79780000D02*
X28178827Y-79780000D01*
X28178827Y-82779999D02*
X26589922Y-82779999D01*
X29084374Y-80577158D02*
X29084374Y-81982842D01*
X25634891Y-80360280D02*
G75*
G02*
X25684376Y-80577158I-450505J-216876D01*
G01*
X25634891Y-80360281D02*
G75*
G02*
X26337664Y-79711701I450514J216880D01*
G01*
X25684376Y-81982843D02*
G75*
G02*
X25634891Y-82199720I-499990J-1D01*
G01*
X26337664Y-82848298D02*
G75*
G02*
X25634891Y-82199720I-252258J431701D01*
G01*
X26337664Y-82848298D02*
G75*
G02*
X26589922Y-82779999I252261J-431710D01*
G01*
X26589923Y-79780000D02*
G75*
G02*
X26337664Y-79711701I2J500009D01*
G01*
X28178828Y-82780000D02*
G75*
G02*
X28431086Y-82848299I-3J-500010D01*
G01*
X28431085Y-79711701D02*
G75*
G02*
X28178827Y-79779999I-252260J431711D01*
G01*
X28431086Y-79711703D02*
G75*
G02*
X29133856Y-80360279I252259J-431697D01*
G01*
X29084374Y-80577157D02*
G75*
G02*
X29133857Y-80360279I500031J-3D01*
G01*
X29133859Y-82199720D02*
G75*
G02*
X28431085Y-82848300I-450514J-216880D01*
G01*
X29133859Y-82199720D02*
G75*
G02*
X29084370Y-81982842I450216J216820D01*
G01*
%TO.C,RGB1_A9*%
X169750001Y-5782842D02*
X169750001Y-4377158D01*
X170655548Y-3580000D02*
X172244452Y-3580000D01*
X172244452Y-6579999D02*
X170655547Y-6579999D01*
X173149999Y-4377158D02*
X173149999Y-5782842D01*
X169700516Y-4160280D02*
G75*
G02*
X169750001Y-4377158I-450505J-216876D01*
G01*
X169700516Y-4160281D02*
G75*
G02*
X170403289Y-3511701I450514J216880D01*
G01*
X169750001Y-5782843D02*
G75*
G02*
X169700516Y-5999720I-499990J-1D01*
G01*
X170403289Y-6648298D02*
G75*
G02*
X169700516Y-5999720I-252258J431701D01*
G01*
X170403289Y-6648298D02*
G75*
G02*
X170655547Y-6579999I252261J-431710D01*
G01*
X170655548Y-3580000D02*
G75*
G02*
X170403289Y-3511701I2J500009D01*
G01*
X172244453Y-6580000D02*
G75*
G02*
X172496711Y-6648299I-3J-500010D01*
G01*
X172496710Y-3511701D02*
G75*
G02*
X172244452Y-3579999I-252260J431711D01*
G01*
X172496711Y-3511703D02*
G75*
G02*
X173199481Y-4160279I252259J-431697D01*
G01*
X173149999Y-4377157D02*
G75*
G02*
X173199482Y-4160279I500031J-3D01*
G01*
X173199484Y-5999720D02*
G75*
G02*
X172496710Y-6648300I-450514J-216880D01*
G01*
X173199484Y-5999720D02*
G75*
G02*
X173149995Y-5782842I450216J216820D01*
G01*
%TO.C,RGB1_B18*%
X10206251Y-62932841D02*
X10206251Y-61527157D01*
X11111798Y-60730000D02*
X12700703Y-60730000D01*
X12700702Y-63729999D02*
X11111798Y-63729999D01*
X13606249Y-61527157D02*
X13606249Y-62932841D01*
X10156766Y-61310279D02*
G75*
G02*
X10206251Y-61527157I-450505J-216876D01*
G01*
X10156766Y-61310279D02*
G75*
G02*
X10859539Y-60661700I450515J216878D01*
G01*
X10206251Y-62932842D02*
G75*
G02*
X10156766Y-63149719I-499990J-1D01*
G01*
X10859539Y-63798296D02*
G75*
G02*
X10156766Y-63149719I-252258J431700D01*
G01*
X10859540Y-63798298D02*
G75*
G02*
X11111798Y-63729999I252261J-431710D01*
G01*
X11111797Y-60729999D02*
G75*
G02*
X10859539Y-60661700I3J500009D01*
G01*
X12700702Y-63729999D02*
G75*
G02*
X12952961Y-63798298I-2J-500011D01*
G01*
X12952961Y-60661701D02*
G75*
G02*
X12700703Y-60730000I-252261J431711D01*
G01*
X12952961Y-60661701D02*
G75*
G02*
X13655733Y-61310279I252259J-431699D01*
G01*
X13606249Y-61527156D02*
G75*
G02*
X13655732Y-61310278I500031J-4D01*
G01*
X13655734Y-63149718D02*
G75*
G02*
X12952961Y-63798298I-450514J-216880D01*
G01*
X13655734Y-63149719D02*
G75*
G02*
X13606245Y-62932841I450216J216819D01*
G01*
%TO.C,RGB1_A33*%
X164987501Y-43882842D02*
X164987501Y-42477158D01*
X165893048Y-41680000D02*
X167481952Y-41680000D01*
X167481952Y-44679999D02*
X165893047Y-44679999D01*
X168387499Y-42477158D02*
X168387499Y-43882842D01*
X164938016Y-42260280D02*
G75*
G02*
X164987501Y-42477158I-450505J-216876D01*
G01*
X164938016Y-42260281D02*
G75*
G02*
X165640789Y-41611701I450514J216880D01*
G01*
X164987501Y-43882843D02*
G75*
G02*
X164938016Y-44099720I-499990J-1D01*
G01*
X165640789Y-44748298D02*
G75*
G02*
X164938016Y-44099720I-252258J431701D01*
G01*
X165640789Y-44748298D02*
G75*
G02*
X165893047Y-44679999I252261J-431710D01*
G01*
X165893048Y-41680000D02*
G75*
G02*
X165640789Y-41611701I2J500009D01*
G01*
X167481953Y-44680000D02*
G75*
G02*
X167734211Y-44748299I-3J-500010D01*
G01*
X167734210Y-41611701D02*
G75*
G02*
X167481952Y-41679999I-252260J431711D01*
G01*
X167734211Y-41611703D02*
G75*
G02*
X168436981Y-42260279I252259J-431697D01*
G01*
X168387499Y-42477157D02*
G75*
G02*
X168436982Y-42260279I500031J-3D01*
G01*
X168436984Y-44099720D02*
G75*
G02*
X167734210Y-44748300I-450514J-216880D01*
G01*
X168436984Y-44099720D02*
G75*
G02*
X168387495Y-43882842I450216J216820D01*
G01*
%TO.C,RGB1_B1*%
X284050001Y-24832841D02*
X284050001Y-23427157D01*
X284955548Y-22630000D02*
X286544453Y-22630000D01*
X286544452Y-25629999D02*
X284955548Y-25629999D01*
X287449999Y-23427157D02*
X287449999Y-24832841D01*
X284000516Y-23210279D02*
G75*
G02*
X284050001Y-23427157I-450505J-216876D01*
G01*
X284000516Y-23210279D02*
G75*
G02*
X284703289Y-22561700I450515J216878D01*
G01*
X284050001Y-24832842D02*
G75*
G02*
X284000516Y-25049719I-499990J-1D01*
G01*
X284703289Y-25698296D02*
G75*
G02*
X284000516Y-25049719I-252258J431700D01*
G01*
X284703290Y-25698298D02*
G75*
G02*
X284955548Y-25629999I252261J-431710D01*
G01*
X284955547Y-22629999D02*
G75*
G02*
X284703289Y-22561700I3J500009D01*
G01*
X286544452Y-25629999D02*
G75*
G02*
X286796711Y-25698298I-2J-500011D01*
G01*
X286796711Y-22561701D02*
G75*
G02*
X286544453Y-22630000I-252261J431711D01*
G01*
X286796711Y-22561701D02*
G75*
G02*
X287499483Y-23210279I252259J-431699D01*
G01*
X287449999Y-23427156D02*
G75*
G02*
X287499482Y-23210278I500031J-4D01*
G01*
X287499484Y-25049718D02*
G75*
G02*
X286796711Y-25698298I-450514J-216880D01*
G01*
X287499484Y-25049719D02*
G75*
G02*
X287449995Y-24832841I450216J216819D01*
G01*
%TO.C,RGB1_B11*%
X84025001Y-24832841D02*
X84025001Y-23427157D01*
X84930548Y-22630000D02*
X86519453Y-22630000D01*
X86519452Y-25629999D02*
X84930548Y-25629999D01*
X87424999Y-23427157D02*
X87424999Y-24832841D01*
X83975516Y-23210279D02*
G75*
G02*
X84025001Y-23427157I-450505J-216876D01*
G01*
X83975516Y-23210279D02*
G75*
G02*
X84678289Y-22561700I450515J216878D01*
G01*
X84025001Y-24832842D02*
G75*
G02*
X83975516Y-25049719I-499990J-1D01*
G01*
X84678289Y-25698296D02*
G75*
G02*
X83975516Y-25049719I-252258J431700D01*
G01*
X84678290Y-25698298D02*
G75*
G02*
X84930548Y-25629999I252261J-431710D01*
G01*
X84930547Y-22629999D02*
G75*
G02*
X84678289Y-22561700I3J500009D01*
G01*
X86519452Y-25629999D02*
G75*
G02*
X86771711Y-25698298I-2J-500011D01*
G01*
X86771711Y-22561701D02*
G75*
G02*
X86519453Y-22630000I-252261J431711D01*
G01*
X86771711Y-22561701D02*
G75*
G02*
X87474483Y-23210279I252259J-431699D01*
G01*
X87424999Y-23427156D02*
G75*
G02*
X87474482Y-23210278I500031J-4D01*
G01*
X87474484Y-25049718D02*
G75*
G02*
X86771711Y-25698298I-450514J-216880D01*
G01*
X87474484Y-25049719D02*
G75*
G02*
X87424995Y-24832841I450216J216819D01*
G01*
%TO.C,RGB1_B27*%
X155462501Y-62932841D02*
X155462501Y-61527157D01*
X156368048Y-60730000D02*
X157956953Y-60730000D01*
X157956952Y-63729999D02*
X156368048Y-63729999D01*
X158862499Y-61527157D02*
X158862499Y-62932841D01*
X155413016Y-61310279D02*
G75*
G02*
X155462501Y-61527157I-450505J-216876D01*
G01*
X155413016Y-61310279D02*
G75*
G02*
X156115789Y-60661700I450515J216878D01*
G01*
X155462501Y-62932842D02*
G75*
G02*
X155413016Y-63149719I-499990J-1D01*
G01*
X156115789Y-63798296D02*
G75*
G02*
X155413016Y-63149719I-252258J431700D01*
G01*
X156115790Y-63798298D02*
G75*
G02*
X156368048Y-63729999I252261J-431710D01*
G01*
X156368047Y-60729999D02*
G75*
G02*
X156115789Y-60661700I3J500009D01*
G01*
X157956952Y-63729999D02*
G75*
G02*
X158209211Y-63798298I-2J-500011D01*
G01*
X158209211Y-60661701D02*
G75*
G02*
X157956953Y-60730000I-252261J431711D01*
G01*
X158209211Y-60661701D02*
G75*
G02*
X158911983Y-61310279I252259J-431699D01*
G01*
X158862499Y-61527156D02*
G75*
G02*
X158911982Y-61310278I500031J-4D01*
G01*
X158911984Y-63149718D02*
G75*
G02*
X158209211Y-63798298I-450514J-216880D01*
G01*
X158911984Y-63149719D02*
G75*
G02*
X158862495Y-62932841I450216J216819D01*
G01*
%TO.C,RGB1_A5*%
X93550001Y-5782842D02*
X93550001Y-4377158D01*
X94455548Y-3580000D02*
X96044452Y-3580000D01*
X96044452Y-6579999D02*
X94455547Y-6579999D01*
X96949999Y-4377158D02*
X96949999Y-5782842D01*
X93500516Y-4160280D02*
G75*
G02*
X93550001Y-4377158I-450505J-216876D01*
G01*
X93500516Y-4160281D02*
G75*
G02*
X94203289Y-3511701I450514J216880D01*
G01*
X93550001Y-5782843D02*
G75*
G02*
X93500516Y-5999720I-499990J-1D01*
G01*
X94203289Y-6648298D02*
G75*
G02*
X93500516Y-5999720I-252258J431701D01*
G01*
X94203289Y-6648298D02*
G75*
G02*
X94455547Y-6579999I252261J-431710D01*
G01*
X94455548Y-3580000D02*
G75*
G02*
X94203289Y-3511701I2J500009D01*
G01*
X96044453Y-6580000D02*
G75*
G02*
X96296711Y-6648299I-3J-500010D01*
G01*
X96296710Y-3511701D02*
G75*
G02*
X96044452Y-3579999I-252260J431711D01*
G01*
X96296711Y-3511703D02*
G75*
G02*
X96999481Y-4160279I252259J-431697D01*
G01*
X96949999Y-4377157D02*
G75*
G02*
X96999482Y-4160279I500031J-3D01*
G01*
X96999484Y-5999720D02*
G75*
G02*
X96296710Y-6648300I-450514J-216880D01*
G01*
X96999484Y-5999720D02*
G75*
G02*
X96949995Y-5782842I450216J216820D01*
G01*
%TO.C,RGB1_A16*%
X-1699999Y-5782842D02*
X-1699999Y-4377158D01*
X-794452Y-3580000D02*
X794452Y-3580000D01*
X794452Y-6579999D02*
X-794453Y-6579999D01*
X1699999Y-4377158D02*
X1699999Y-5782842D01*
X-1749484Y-4160280D02*
G75*
G02*
X-1699999Y-4377158I-450505J-216876D01*
G01*
X-1749484Y-4160281D02*
G75*
G02*
X-1046711Y-3511701I450514J216880D01*
G01*
X-1699999Y-5782843D02*
G75*
G02*
X-1749484Y-5999720I-499990J-1D01*
G01*
X-1046711Y-6648298D02*
G75*
G02*
X-1749484Y-5999720I-252258J431701D01*
G01*
X-1046711Y-6648298D02*
G75*
G02*
X-794453Y-6579999I252261J-431710D01*
G01*
X-794452Y-3580000D02*
G75*
G02*
X-1046711Y-3511701I2J500009D01*
G01*
X794453Y-6580000D02*
G75*
G02*
X1046711Y-6648299I-3J-500010D01*
G01*
X1046710Y-3511701D02*
G75*
G02*
X794452Y-3579999I-252260J431711D01*
G01*
X1046711Y-3511703D02*
G75*
G02*
X1749481Y-4160279I252259J-431697D01*
G01*
X1699999Y-4377157D02*
G75*
G02*
X1749482Y-4160279I500031J-3D01*
G01*
X1749484Y-5999720D02*
G75*
G02*
X1046710Y-6648300I-450514J-216880D01*
G01*
X1749484Y-5999720D02*
G75*
G02*
X1699995Y-5782842I450216J216820D01*
G01*
%TO.C,RGB1_A32*%
X145937501Y-43882842D02*
X145937501Y-42477158D01*
X146843048Y-41680000D02*
X148431952Y-41680000D01*
X148431952Y-44679999D02*
X146843047Y-44679999D01*
X149337499Y-42477158D02*
X149337499Y-43882842D01*
X145888016Y-42260280D02*
G75*
G02*
X145937501Y-42477158I-450505J-216876D01*
G01*
X145888016Y-42260281D02*
G75*
G02*
X146590789Y-41611701I450514J216880D01*
G01*
X145937501Y-43882843D02*
G75*
G02*
X145888016Y-44099720I-499990J-1D01*
G01*
X146590789Y-44748298D02*
G75*
G02*
X145888016Y-44099720I-252258J431701D01*
G01*
X146590789Y-44748298D02*
G75*
G02*
X146843047Y-44679999I252261J-431710D01*
G01*
X146843048Y-41680000D02*
G75*
G02*
X146590789Y-41611701I2J500009D01*
G01*
X148431953Y-44680000D02*
G75*
G02*
X148684211Y-44748299I-3J-500010D01*
G01*
X148684210Y-41611701D02*
G75*
G02*
X148431952Y-41679999I-252260J431711D01*
G01*
X148684211Y-41611703D02*
G75*
G02*
X149386981Y-42260279I252259J-431697D01*
G01*
X149337499Y-42477157D02*
G75*
G02*
X149386982Y-42260279I500031J-3D01*
G01*
X149386984Y-44099720D02*
G75*
G02*
X148684210Y-44748300I-450514J-216880D01*
G01*
X149386984Y-44099720D02*
G75*
G02*
X149337495Y-43882842I450216J216820D01*
G01*
%TO.C,RGB1_A17*%
X284050001Y-5782842D02*
X284050001Y-4377158D01*
X284955548Y-3580000D02*
X286544452Y-3580000D01*
X286544452Y-6579999D02*
X284955547Y-6579999D01*
X287449999Y-4377158D02*
X287449999Y-5782842D01*
X284000516Y-4160280D02*
G75*
G02*
X284050001Y-4377158I-450505J-216876D01*
G01*
X284000516Y-4160281D02*
G75*
G02*
X284703289Y-3511701I450514J216880D01*
G01*
X284050001Y-5782843D02*
G75*
G02*
X284000516Y-5999720I-499990J-1D01*
G01*
X284703289Y-6648298D02*
G75*
G02*
X284000516Y-5999720I-252258J431701D01*
G01*
X284703289Y-6648298D02*
G75*
G02*
X284955547Y-6579999I252261J-431710D01*
G01*
X284955548Y-3580000D02*
G75*
G02*
X284703289Y-3511701I2J500009D01*
G01*
X286544453Y-6580000D02*
G75*
G02*
X286796711Y-6648299I-3J-500010D01*
G01*
X286796710Y-3511701D02*
G75*
G02*
X286544452Y-3579999I-252260J431711D01*
G01*
X286796711Y-3511703D02*
G75*
G02*
X287499481Y-4160279I252259J-431697D01*
G01*
X287449999Y-4377157D02*
G75*
G02*
X287499482Y-4160279I500031J-3D01*
G01*
X287499484Y-5999720D02*
G75*
G02*
X286796710Y-6648300I-450514J-216880D01*
G01*
X287499484Y-5999720D02*
G75*
G02*
X287449995Y-5782842I450216J216820D01*
G01*
%TO.C,RGB1_A38*%
X131650001Y-81982842D02*
X131650001Y-80577158D01*
X132555548Y-79780000D02*
X134144452Y-79780000D01*
X134144452Y-82779999D02*
X132555547Y-82779999D01*
X135049999Y-80577158D02*
X135049999Y-81982842D01*
X131600516Y-80360280D02*
G75*
G02*
X131650001Y-80577158I-450505J-216876D01*
G01*
X131600516Y-80360281D02*
G75*
G02*
X132303289Y-79711701I450514J216880D01*
G01*
X131650001Y-81982843D02*
G75*
G02*
X131600516Y-82199720I-499990J-1D01*
G01*
X132303289Y-82848298D02*
G75*
G02*
X131600516Y-82199720I-252258J431701D01*
G01*
X132303289Y-82848298D02*
G75*
G02*
X132555547Y-82779999I252261J-431710D01*
G01*
X132555548Y-79780000D02*
G75*
G02*
X132303289Y-79711701I2J500009D01*
G01*
X134144453Y-82780000D02*
G75*
G02*
X134396711Y-82848299I-3J-500010D01*
G01*
X134396710Y-79711701D02*
G75*
G02*
X134144452Y-79779999I-252260J431711D01*
G01*
X134396711Y-79711703D02*
G75*
G02*
X135099481Y-80360279I252259J-431697D01*
G01*
X135049999Y-80577157D02*
G75*
G02*
X135099482Y-80360279I500031J-3D01*
G01*
X135099484Y-82199720D02*
G75*
G02*
X134396710Y-82848300I-450514J-216880D01*
G01*
X135099484Y-82199720D02*
G75*
G02*
X135049995Y-81982842I450216J216820D01*
G01*
%TO.C,RGB1_A24*%
X69737501Y-43882842D02*
X69737501Y-42477158D01*
X70643048Y-41680000D02*
X72231952Y-41680000D01*
X72231952Y-44679999D02*
X70643047Y-44679999D01*
X73137499Y-42477158D02*
X73137499Y-43882842D01*
X69688016Y-42260280D02*
G75*
G02*
X69737501Y-42477158I-450505J-216876D01*
G01*
X69688016Y-42260281D02*
G75*
G02*
X70390789Y-41611701I450514J216880D01*
G01*
X69737501Y-43882843D02*
G75*
G02*
X69688016Y-44099720I-499990J-1D01*
G01*
X70390789Y-44748298D02*
G75*
G02*
X69688016Y-44099720I-252258J431701D01*
G01*
X70390789Y-44748298D02*
G75*
G02*
X70643047Y-44679999I252261J-431710D01*
G01*
X70643048Y-41680000D02*
G75*
G02*
X70390789Y-41611701I2J500009D01*
G01*
X72231953Y-44680000D02*
G75*
G02*
X72484211Y-44748299I-3J-500010D01*
G01*
X72484210Y-41611701D02*
G75*
G02*
X72231952Y-41679999I-252260J431711D01*
G01*
X72484211Y-41611703D02*
G75*
G02*
X73186981Y-42260279I252259J-431697D01*
G01*
X73137499Y-42477157D02*
G75*
G02*
X73186982Y-42260279I500031J-3D01*
G01*
X73186984Y-44099720D02*
G75*
G02*
X72484210Y-44748300I-450514J-216880D01*
G01*
X73186984Y-44099720D02*
G75*
G02*
X73137495Y-43882842I450216J216820D01*
G01*
%TO.C,RGB1_B12*%
X64975001Y-24832841D02*
X64975001Y-23427157D01*
X65880548Y-22630000D02*
X67469453Y-22630000D01*
X67469452Y-25629999D02*
X65880548Y-25629999D01*
X68374999Y-23427157D02*
X68374999Y-24832841D01*
X64925516Y-23210279D02*
G75*
G02*
X64975001Y-23427157I-450505J-216876D01*
G01*
X64925516Y-23210279D02*
G75*
G02*
X65628289Y-22561700I450515J216878D01*
G01*
X64975001Y-24832842D02*
G75*
G02*
X64925516Y-25049719I-499990J-1D01*
G01*
X65628289Y-25698296D02*
G75*
G02*
X64925516Y-25049719I-252258J431700D01*
G01*
X65628290Y-25698298D02*
G75*
G02*
X65880548Y-25629999I252261J-431710D01*
G01*
X65880547Y-22629999D02*
G75*
G02*
X65628289Y-22561700I3J500009D01*
G01*
X67469452Y-25629999D02*
G75*
G02*
X67721711Y-25698298I-2J-500011D01*
G01*
X67721711Y-22561701D02*
G75*
G02*
X67469453Y-22630000I-252261J431711D01*
G01*
X67721711Y-22561701D02*
G75*
G02*
X68424483Y-23210279I252259J-431699D01*
G01*
X68374999Y-23427156D02*
G75*
G02*
X68424482Y-23210278I500031J-4D01*
G01*
X68424484Y-25049718D02*
G75*
G02*
X67721711Y-25698298I-450514J-216880D01*
G01*
X68424484Y-25049719D02*
G75*
G02*
X68374995Y-24832841I450216J216819D01*
G01*
%TO.C,RGB1_A34*%
X49496876Y-81982842D02*
X49496876Y-80577158D01*
X50402423Y-79780000D02*
X51991327Y-79780000D01*
X51991327Y-82779999D02*
X50402422Y-82779999D01*
X52896874Y-80577158D02*
X52896874Y-81982842D01*
X49447391Y-80360280D02*
G75*
G02*
X49496876Y-80577158I-450505J-216876D01*
G01*
X49447391Y-80360281D02*
G75*
G02*
X50150164Y-79711701I450514J216880D01*
G01*
X49496876Y-81982843D02*
G75*
G02*
X49447391Y-82199720I-499990J-1D01*
G01*
X50150164Y-82848298D02*
G75*
G02*
X49447391Y-82199720I-252258J431701D01*
G01*
X50150164Y-82848298D02*
G75*
G02*
X50402422Y-82779999I252261J-431710D01*
G01*
X50402423Y-79780000D02*
G75*
G02*
X50150164Y-79711701I2J500009D01*
G01*
X51991328Y-82780000D02*
G75*
G02*
X52243586Y-82848299I-3J-500010D01*
G01*
X52243585Y-79711701D02*
G75*
G02*
X51991327Y-79779999I-252260J431711D01*
G01*
X52243586Y-79711703D02*
G75*
G02*
X52946356Y-80360279I252259J-431697D01*
G01*
X52896874Y-80577157D02*
G75*
G02*
X52946357Y-80360279I500031J-3D01*
G01*
X52946359Y-82199720D02*
G75*
G02*
X52243585Y-82848300I-450514J-216880D01*
G01*
X52946359Y-82199720D02*
G75*
G02*
X52896870Y-81982842I450216J216820D01*
G01*
%TO.C,RGB1_B14*%
X26875001Y-24832841D02*
X26875001Y-23427157D01*
X27780548Y-22630000D02*
X29369453Y-22630000D01*
X29369452Y-25629999D02*
X27780548Y-25629999D01*
X30274999Y-23427157D02*
X30274999Y-24832841D01*
X26825516Y-23210279D02*
G75*
G02*
X26875001Y-23427157I-450505J-216876D01*
G01*
X26825516Y-23210279D02*
G75*
G02*
X27528289Y-22561700I450515J216878D01*
G01*
X26875001Y-24832842D02*
G75*
G02*
X26825516Y-25049719I-499990J-1D01*
G01*
X27528289Y-25698296D02*
G75*
G02*
X26825516Y-25049719I-252258J431700D01*
G01*
X27528290Y-25698298D02*
G75*
G02*
X27780548Y-25629999I252261J-431710D01*
G01*
X27780547Y-22629999D02*
G75*
G02*
X27528289Y-22561700I3J500009D01*
G01*
X29369452Y-25629999D02*
G75*
G02*
X29621711Y-25698298I-2J-500011D01*
G01*
X29621711Y-22561701D02*
G75*
G02*
X29369453Y-22630000I-252261J431711D01*
G01*
X29621711Y-22561701D02*
G75*
G02*
X30324483Y-23210279I252259J-431699D01*
G01*
X30274999Y-23427156D02*
G75*
G02*
X30324482Y-23210278I500031J-4D01*
G01*
X30324484Y-25049718D02*
G75*
G02*
X29621711Y-25698298I-450514J-216880D01*
G01*
X30324484Y-25049719D02*
G75*
G02*
X30274995Y-24832841I450216J216819D01*
G01*
%TO.C,RGB1_B19*%
X238806251Y-62932841D02*
X238806251Y-61527157D01*
X239711798Y-60730000D02*
X241300703Y-60730000D01*
X241300702Y-63729999D02*
X239711798Y-63729999D01*
X242206249Y-61527157D02*
X242206249Y-62932841D01*
X238756766Y-61310279D02*
G75*
G02*
X238806251Y-61527157I-450505J-216876D01*
G01*
X238756766Y-61310279D02*
G75*
G02*
X239459539Y-60661700I450515J216878D01*
G01*
X238806251Y-62932842D02*
G75*
G02*
X238756766Y-63149719I-499990J-1D01*
G01*
X239459539Y-63798296D02*
G75*
G02*
X238756766Y-63149719I-252258J431700D01*
G01*
X239459540Y-63798298D02*
G75*
G02*
X239711798Y-63729999I252261J-431710D01*
G01*
X239711797Y-60729999D02*
G75*
G02*
X239459539Y-60661700I3J500009D01*
G01*
X241300702Y-63729999D02*
G75*
G02*
X241552961Y-63798298I-2J-500011D01*
G01*
X241552961Y-60661701D02*
G75*
G02*
X241300703Y-60730000I-252261J431711D01*
G01*
X241552961Y-60661701D02*
G75*
G02*
X242255733Y-61310279I252259J-431699D01*
G01*
X242206249Y-61527156D02*
G75*
G02*
X242255732Y-61310278I500031J-4D01*
G01*
X242255734Y-63149718D02*
G75*
G02*
X241552961Y-63798298I-450514J-216880D01*
G01*
X242255734Y-63149719D02*
G75*
G02*
X242206245Y-62932841I450216J216819D01*
G01*
%TO.C,RGB1_A12*%
X226900001Y-5782842D02*
X226900001Y-4377158D01*
X227805548Y-3580000D02*
X229394452Y-3580000D01*
X229394452Y-6579999D02*
X227805547Y-6579999D01*
X230299999Y-4377158D02*
X230299999Y-5782842D01*
X226850516Y-4160280D02*
G75*
G02*
X226900001Y-4377158I-450505J-216876D01*
G01*
X226850516Y-4160281D02*
G75*
G02*
X227553289Y-3511701I450514J216880D01*
G01*
X226900001Y-5782843D02*
G75*
G02*
X226850516Y-5999720I-499990J-1D01*
G01*
X227553289Y-6648298D02*
G75*
G02*
X226850516Y-5999720I-252258J431701D01*
G01*
X227553289Y-6648298D02*
G75*
G02*
X227805547Y-6579999I252261J-431710D01*
G01*
X227805548Y-3580000D02*
G75*
G02*
X227553289Y-3511701I2J500009D01*
G01*
X229394453Y-6580000D02*
G75*
G02*
X229646711Y-6648299I-3J-500010D01*
G01*
X229646710Y-3511701D02*
G75*
G02*
X229394452Y-3579999I-252260J431711D01*
G01*
X229646711Y-3511703D02*
G75*
G02*
X230349481Y-4160279I252259J-431697D01*
G01*
X230299999Y-4377157D02*
G75*
G02*
X230349482Y-4160279I500031J-3D01*
G01*
X230349484Y-5999720D02*
G75*
G02*
X229646710Y-6648300I-450514J-216880D01*
G01*
X230349484Y-5999720D02*
G75*
G02*
X230299995Y-5782842I450216J216820D01*
G01*
%TO.C,RGB1_A20*%
X31637501Y-43882842D02*
X31637501Y-42477158D01*
X32543048Y-41680000D02*
X34131952Y-41680000D01*
X34131952Y-44679999D02*
X32543047Y-44679999D01*
X35037499Y-42477158D02*
X35037499Y-43882842D01*
X31588016Y-42260280D02*
G75*
G02*
X31637501Y-42477158I-450505J-216876D01*
G01*
X31588016Y-42260281D02*
G75*
G02*
X32290789Y-41611701I450514J216880D01*
G01*
X31637501Y-43882843D02*
G75*
G02*
X31588016Y-44099720I-499990J-1D01*
G01*
X32290789Y-44748298D02*
G75*
G02*
X31588016Y-44099720I-252258J431701D01*
G01*
X32290789Y-44748298D02*
G75*
G02*
X32543047Y-44679999I252261J-431710D01*
G01*
X32543048Y-41680000D02*
G75*
G02*
X32290789Y-41611701I2J500009D01*
G01*
X34131953Y-44680000D02*
G75*
G02*
X34384211Y-44748299I-3J-500010D01*
G01*
X34384210Y-41611701D02*
G75*
G02*
X34131952Y-41679999I-252260J431711D01*
G01*
X34384211Y-41611703D02*
G75*
G02*
X35086981Y-42260279I252259J-431697D01*
G01*
X35037499Y-42477157D02*
G75*
G02*
X35086982Y-42260279I500031J-3D01*
G01*
X35086984Y-44099720D02*
G75*
G02*
X34384210Y-44748300I-450514J-216880D01*
G01*
X35086984Y-44099720D02*
G75*
G02*
X35037495Y-43882842I450216J216820D01*
G01*
%TO.C,RGB1_A27*%
X222137501Y-43882842D02*
X222137501Y-42477158D01*
X223043048Y-41680000D02*
X224631952Y-41680000D01*
X224631952Y-44679999D02*
X223043047Y-44679999D01*
X225537499Y-42477158D02*
X225537499Y-43882842D01*
X222088016Y-42260280D02*
G75*
G02*
X222137501Y-42477158I-450505J-216876D01*
G01*
X222088016Y-42260281D02*
G75*
G02*
X222790789Y-41611701I450514J216880D01*
G01*
X222137501Y-43882843D02*
G75*
G02*
X222088016Y-44099720I-499990J-1D01*
G01*
X222790789Y-44748298D02*
G75*
G02*
X222088016Y-44099720I-252258J431701D01*
G01*
X222790789Y-44748298D02*
G75*
G02*
X223043047Y-44679999I252261J-431710D01*
G01*
X223043048Y-41680000D02*
G75*
G02*
X222790789Y-41611701I2J500009D01*
G01*
X224631953Y-44680000D02*
G75*
G02*
X224884211Y-44748299I-3J-500010D01*
G01*
X224884210Y-41611701D02*
G75*
G02*
X224631952Y-41679999I-252260J431711D01*
G01*
X224884211Y-41611703D02*
G75*
G02*
X225586981Y-42260279I252259J-431697D01*
G01*
X225537499Y-42477157D02*
G75*
G02*
X225586982Y-42260279I500031J-3D01*
G01*
X225586984Y-44099720D02*
G75*
G02*
X224884210Y-44748300I-450514J-216880D01*
G01*
X225586984Y-44099720D02*
G75*
G02*
X225537495Y-43882842I450216J216820D01*
G01*
%TO.C,RGB1_B21*%
X212612501Y-62932841D02*
X212612501Y-61527157D01*
X213518048Y-60730000D02*
X215106953Y-60730000D01*
X215106952Y-63729999D02*
X213518048Y-63729999D01*
X216012499Y-61527157D02*
X216012499Y-62932841D01*
X212563016Y-61310279D02*
G75*
G02*
X212612501Y-61527157I-450505J-216876D01*
G01*
X212563016Y-61310279D02*
G75*
G02*
X213265789Y-60661700I450515J216878D01*
G01*
X212612501Y-62932842D02*
G75*
G02*
X212563016Y-63149719I-499990J-1D01*
G01*
X213265789Y-63798296D02*
G75*
G02*
X212563016Y-63149719I-252258J431700D01*
G01*
X213265790Y-63798298D02*
G75*
G02*
X213518048Y-63729999I252261J-431710D01*
G01*
X213518047Y-60729999D02*
G75*
G02*
X213265789Y-60661700I3J500009D01*
G01*
X215106952Y-63729999D02*
G75*
G02*
X215359211Y-63798298I-2J-500011D01*
G01*
X215359211Y-60661701D02*
G75*
G02*
X215106953Y-60730000I-252261J431711D01*
G01*
X215359211Y-60661701D02*
G75*
G02*
X216061983Y-61310279I252259J-431699D01*
G01*
X216012499Y-61527156D02*
G75*
G02*
X216061982Y-61310278I500031J-4D01*
G01*
X216061984Y-63149718D02*
G75*
G02*
X215359211Y-63798298I-450514J-216880D01*
G01*
X216061984Y-63149719D02*
G75*
G02*
X216012495Y-62932841I450216J216819D01*
G01*
%TO.C,RGB1_A4*%
X74500001Y-5782842D02*
X74500001Y-4377158D01*
X75405548Y-3580000D02*
X76994452Y-3580000D01*
X76994452Y-6579999D02*
X75405547Y-6579999D01*
X77899999Y-4377158D02*
X77899999Y-5782842D01*
X74450516Y-4160280D02*
G75*
G02*
X74500001Y-4377158I-450505J-216876D01*
G01*
X74450516Y-4160281D02*
G75*
G02*
X75153289Y-3511701I450514J216880D01*
G01*
X74500001Y-5782843D02*
G75*
G02*
X74450516Y-5999720I-499990J-1D01*
G01*
X75153289Y-6648298D02*
G75*
G02*
X74450516Y-5999720I-252258J431701D01*
G01*
X75153289Y-6648298D02*
G75*
G02*
X75405547Y-6579999I252261J-431710D01*
G01*
X75405548Y-3580000D02*
G75*
G02*
X75153289Y-3511701I2J500009D01*
G01*
X76994453Y-6580000D02*
G75*
G02*
X77246711Y-6648299I-3J-500010D01*
G01*
X77246710Y-3511701D02*
G75*
G02*
X76994452Y-3579999I-252260J431711D01*
G01*
X77246711Y-3511703D02*
G75*
G02*
X77949481Y-4160279I252259J-431697D01*
G01*
X77899999Y-4377157D02*
G75*
G02*
X77949482Y-4160279I500031J-3D01*
G01*
X77949484Y-5999720D02*
G75*
G02*
X77246710Y-6648300I-450514J-216880D01*
G01*
X77949484Y-5999720D02*
G75*
G02*
X77899995Y-5782842I450216J216820D01*
G01*
%TO.C,RGB1_B3*%
X236425001Y-24832841D02*
X236425001Y-23427157D01*
X237330548Y-22630000D02*
X238919453Y-22630000D01*
X238919452Y-25629999D02*
X237330548Y-25629999D01*
X239824999Y-23427157D02*
X239824999Y-24832841D01*
X236375516Y-23210279D02*
G75*
G02*
X236425001Y-23427157I-450505J-216876D01*
G01*
X236375516Y-23210279D02*
G75*
G02*
X237078289Y-22561700I450515J216878D01*
G01*
X236425001Y-24832842D02*
G75*
G02*
X236375516Y-25049719I-499990J-1D01*
G01*
X237078289Y-25698296D02*
G75*
G02*
X236375516Y-25049719I-252258J431700D01*
G01*
X237078290Y-25698298D02*
G75*
G02*
X237330548Y-25629999I252261J-431710D01*
G01*
X237330547Y-22629999D02*
G75*
G02*
X237078289Y-22561700I3J500009D01*
G01*
X238919452Y-25629999D02*
G75*
G02*
X239171711Y-25698298I-2J-500011D01*
G01*
X239171711Y-22561701D02*
G75*
G02*
X238919453Y-22630000I-252261J431711D01*
G01*
X239171711Y-22561701D02*
G75*
G02*
X239874483Y-23210279I252259J-431699D01*
G01*
X239824999Y-23427156D02*
G75*
G02*
X239874482Y-23210278I500031J-4D01*
G01*
X239874484Y-25049718D02*
G75*
G02*
X239171711Y-25698298I-450514J-216880D01*
G01*
X239874484Y-25049719D02*
G75*
G02*
X239824995Y-24832841I450216J216819D01*
G01*
%TO.C,RGB1_B8*%
X141175001Y-24832841D02*
X141175001Y-23427157D01*
X142080548Y-22630000D02*
X143669453Y-22630000D01*
X143669452Y-25629999D02*
X142080548Y-25629999D01*
X144574999Y-23427157D02*
X144574999Y-24832841D01*
X141125516Y-23210279D02*
G75*
G02*
X141175001Y-23427157I-450505J-216876D01*
G01*
X141125516Y-23210279D02*
G75*
G02*
X141828289Y-22561700I450515J216878D01*
G01*
X141175001Y-24832842D02*
G75*
G02*
X141125516Y-25049719I-499990J-1D01*
G01*
X141828289Y-25698296D02*
G75*
G02*
X141125516Y-25049719I-252258J431700D01*
G01*
X141828290Y-25698298D02*
G75*
G02*
X142080548Y-25629999I252261J-431710D01*
G01*
X142080547Y-22629999D02*
G75*
G02*
X141828289Y-22561700I3J500009D01*
G01*
X143669452Y-25629999D02*
G75*
G02*
X143921711Y-25698298I-2J-500011D01*
G01*
X143921711Y-22561701D02*
G75*
G02*
X143669453Y-22630000I-252261J431711D01*
G01*
X143921711Y-22561701D02*
G75*
G02*
X144624483Y-23210279I252259J-431699D01*
G01*
X144574999Y-23427156D02*
G75*
G02*
X144624482Y-23210278I500031J-4D01*
G01*
X144624484Y-25049718D02*
G75*
G02*
X143921711Y-25698298I-450514J-216880D01*
G01*
X144624484Y-25049719D02*
G75*
G02*
X144574995Y-24832841I450216J216819D01*
G01*
%TO.C,RGB1_A11*%
X207850001Y-5782842D02*
X207850001Y-4377158D01*
X208755548Y-3580000D02*
X210344452Y-3580000D01*
X210344452Y-6579999D02*
X208755547Y-6579999D01*
X211249999Y-4377158D02*
X211249999Y-5782842D01*
X207800516Y-4160280D02*
G75*
G02*
X207850001Y-4377158I-450505J-216876D01*
G01*
X207800516Y-4160281D02*
G75*
G02*
X208503289Y-3511701I450514J216880D01*
G01*
X207850001Y-5782843D02*
G75*
G02*
X207800516Y-5999720I-499990J-1D01*
G01*
X208503289Y-6648298D02*
G75*
G02*
X207800516Y-5999720I-252258J431701D01*
G01*
X208503289Y-6648298D02*
G75*
G02*
X208755547Y-6579999I252261J-431710D01*
G01*
X208755548Y-3580000D02*
G75*
G02*
X208503289Y-3511701I2J500009D01*
G01*
X210344453Y-6580000D02*
G75*
G02*
X210596711Y-6648299I-3J-500010D01*
G01*
X210596710Y-3511701D02*
G75*
G02*
X210344452Y-3579999I-252260J431711D01*
G01*
X210596711Y-3511703D02*
G75*
G02*
X211299481Y-4160279I252259J-431697D01*
G01*
X211249999Y-4377157D02*
G75*
G02*
X211299482Y-4160279I500031J-3D01*
G01*
X211299484Y-5999720D02*
G75*
G02*
X210596710Y-6648300I-450514J-216880D01*
G01*
X211299484Y-5999720D02*
G75*
G02*
X211249995Y-5782842I450216J216820D01*
G01*
%TO.C,RGB1_A40*%
X191181251Y-80982842D02*
X191181251Y-79577158D01*
X192086799Y-78780000D02*
X193675703Y-78780000D01*
X193675701Y-81780000D02*
X192086797Y-81779999D01*
X194581249Y-79577158D02*
X194581249Y-80982842D01*
X191131766Y-79360281D02*
G75*
G02*
X191834539Y-78711701I450514J216880D01*
G01*
X191131767Y-79360280D02*
G75*
G02*
X191181251Y-79577158I-450486J-216869D01*
G01*
X191181251Y-80982843D02*
G75*
G02*
X191131767Y-81199720I-500008J1D01*
G01*
X191834539Y-81848298D02*
G75*
G02*
X191131768Y-81199720I-252260J431697D01*
G01*
X191834539Y-81848298D02*
G75*
G02*
X192086797Y-81779999I252261J-431710D01*
G01*
X192086799Y-78780000D02*
G75*
G02*
X191834539Y-78711701I3J500016D01*
G01*
X193675702Y-81780001D02*
G75*
G02*
X193927961Y-81848301I-2J-499999D01*
G01*
X193927960Y-78711702D02*
G75*
G02*
X193675703Y-78780000I-252260J431712D01*
G01*
X193927960Y-78711704D02*
G75*
G02*
X194630731Y-79360279I252260J-431696D01*
G01*
X194581249Y-79577157D02*
G75*
G02*
X194630732Y-79360279I500031J-3D01*
G01*
X194630734Y-81199720D02*
G75*
G02*
X193927961Y-81848300I-450514J-216880D01*
G01*
X194630734Y-81199720D02*
G75*
G02*
X194581245Y-80982842I450216J216820D01*
G01*
%TO.C,RGB1_B23*%
X193562501Y-62932841D02*
X193562501Y-61527157D01*
X194468048Y-60730000D02*
X196056953Y-60730000D01*
X196056952Y-63729999D02*
X194468048Y-63729999D01*
X196962499Y-61527157D02*
X196962499Y-62932841D01*
X193513016Y-61310279D02*
G75*
G02*
X193562501Y-61527157I-450505J-216876D01*
G01*
X193513016Y-61310279D02*
G75*
G02*
X194215789Y-60661700I450515J216878D01*
G01*
X193562501Y-62932842D02*
G75*
G02*
X193513016Y-63149719I-499990J-1D01*
G01*
X194215789Y-63798296D02*
G75*
G02*
X193513016Y-63149719I-252258J431700D01*
G01*
X194215790Y-63798298D02*
G75*
G02*
X194468048Y-63729999I252261J-431710D01*
G01*
X194468047Y-60729999D02*
G75*
G02*
X194215789Y-60661700I3J500009D01*
G01*
X196056952Y-63729999D02*
G75*
G02*
X196309211Y-63798298I-2J-500011D01*
G01*
X196309211Y-60661701D02*
G75*
G02*
X196056953Y-60730000I-252261J431711D01*
G01*
X196309211Y-60661701D02*
G75*
G02*
X197011983Y-61310279I252259J-431699D01*
G01*
X196962499Y-61527156D02*
G75*
G02*
X197011982Y-61310278I500031J-4D01*
G01*
X197011984Y-63149718D02*
G75*
G02*
X196309211Y-63798298I-450514J-216880D01*
G01*
X197011984Y-63149719D02*
G75*
G02*
X196962495Y-62932841I450216J216819D01*
G01*
%TO.C,RGB1_B4*%
X217375001Y-24832841D02*
X217375001Y-23427157D01*
X218280548Y-22630000D02*
X219869453Y-22630000D01*
X219869452Y-25629999D02*
X218280548Y-25629999D01*
X220774999Y-23427157D02*
X220774999Y-24832841D01*
X217325516Y-23210279D02*
G75*
G02*
X217375001Y-23427157I-450505J-216876D01*
G01*
X217325516Y-23210279D02*
G75*
G02*
X218028289Y-22561700I450515J216878D01*
G01*
X217375001Y-24832842D02*
G75*
G02*
X217325516Y-25049719I-499990J-1D01*
G01*
X218028289Y-25698296D02*
G75*
G02*
X217325516Y-25049719I-252258J431700D01*
G01*
X218028290Y-25698298D02*
G75*
G02*
X218280548Y-25629999I252261J-431710D01*
G01*
X218280547Y-22629999D02*
G75*
G02*
X218028289Y-22561700I3J500009D01*
G01*
X219869452Y-25629999D02*
G75*
G02*
X220121711Y-25698298I-2J-500011D01*
G01*
X220121711Y-22561701D02*
G75*
G02*
X219869453Y-22630000I-252261J431711D01*
G01*
X220121711Y-22561701D02*
G75*
G02*
X220824483Y-23210279I252259J-431699D01*
G01*
X220774999Y-23427156D02*
G75*
G02*
X220824482Y-23210278I500031J-4D01*
G01*
X220824484Y-25049718D02*
G75*
G02*
X220121711Y-25698298I-450514J-216880D01*
G01*
X220824484Y-25049719D02*
G75*
G02*
X220774995Y-24832841I450216J216819D01*
G01*
%TO.C,RGB1_B25*%
X174512501Y-62932841D02*
X174512501Y-61527157D01*
X175418048Y-60730000D02*
X177006953Y-60730000D01*
X177006952Y-63729999D02*
X175418048Y-63729999D01*
X177912499Y-61527157D02*
X177912499Y-62932841D01*
X174463016Y-61310279D02*
G75*
G02*
X174512501Y-61527157I-450505J-216876D01*
G01*
X174463016Y-61310279D02*
G75*
G02*
X175165789Y-60661700I450515J216878D01*
G01*
X174512501Y-62932842D02*
G75*
G02*
X174463016Y-63149719I-499990J-1D01*
G01*
X175165789Y-63798296D02*
G75*
G02*
X174463016Y-63149719I-252258J431700D01*
G01*
X175165790Y-63798298D02*
G75*
G02*
X175418048Y-63729999I252261J-431710D01*
G01*
X175418047Y-60729999D02*
G75*
G02*
X175165789Y-60661700I3J500009D01*
G01*
X177006952Y-63729999D02*
G75*
G02*
X177259211Y-63798298I-2J-500011D01*
G01*
X177259211Y-60661701D02*
G75*
G02*
X177006953Y-60730000I-252261J431711D01*
G01*
X177259211Y-60661701D02*
G75*
G02*
X177961983Y-61310279I252259J-431699D01*
G01*
X177912499Y-61527156D02*
G75*
G02*
X177961982Y-61310278I500031J-4D01*
G01*
X177961984Y-63149718D02*
G75*
G02*
X177259211Y-63798298I-450514J-216880D01*
G01*
X177961984Y-63149719D02*
G75*
G02*
X177912495Y-62932841I450216J216819D01*
G01*
%TO.C,RGB1_A43*%
X284050001Y-81982842D02*
X284050001Y-80577158D01*
X284955548Y-79780000D02*
X286544452Y-79780000D01*
X286544452Y-82779999D02*
X284955547Y-82779999D01*
X287449999Y-80577158D02*
X287449999Y-81982842D01*
X284000516Y-80360280D02*
G75*
G02*
X284050001Y-80577158I-450505J-216876D01*
G01*
X284000516Y-80360281D02*
G75*
G02*
X284703289Y-79711701I450514J216880D01*
G01*
X284050001Y-81982843D02*
G75*
G02*
X284000516Y-82199720I-499990J-1D01*
G01*
X284703289Y-82848298D02*
G75*
G02*
X284000516Y-82199720I-252258J431701D01*
G01*
X284703289Y-82848298D02*
G75*
G02*
X284955547Y-82779999I252261J-431710D01*
G01*
X284955548Y-79780000D02*
G75*
G02*
X284703289Y-79711701I2J500009D01*
G01*
X286544453Y-82780000D02*
G75*
G02*
X286796711Y-82848299I-3J-500010D01*
G01*
X286796710Y-79711701D02*
G75*
G02*
X286544452Y-79779999I-252260J431711D01*
G01*
X286796711Y-79711703D02*
G75*
G02*
X287499481Y-80360279I252259J-431697D01*
G01*
X287449999Y-80577157D02*
G75*
G02*
X287499482Y-80360279I500031J-3D01*
G01*
X287499484Y-82199720D02*
G75*
G02*
X286796710Y-82848300I-450514J-216880D01*
G01*
X287499484Y-82199720D02*
G75*
G02*
X287449995Y-81982842I450216J216820D01*
G01*
%TO.C,RGB1_B6*%
X179275001Y-24832841D02*
X179275001Y-23427157D01*
X180180548Y-22630000D02*
X181769453Y-22630000D01*
X181769452Y-25629999D02*
X180180548Y-25629999D01*
X182674999Y-23427157D02*
X182674999Y-24832841D01*
X179225516Y-23210279D02*
G75*
G02*
X179275001Y-23427157I-450505J-216876D01*
G01*
X179225516Y-23210279D02*
G75*
G02*
X179928289Y-22561700I450515J216878D01*
G01*
X179275001Y-24832842D02*
G75*
G02*
X179225516Y-25049719I-499990J-1D01*
G01*
X179928289Y-25698296D02*
G75*
G02*
X179225516Y-25049719I-252258J431700D01*
G01*
X179928290Y-25698298D02*
G75*
G02*
X180180548Y-25629999I252261J-431710D01*
G01*
X180180547Y-22629999D02*
G75*
G02*
X179928289Y-22561700I3J500009D01*
G01*
X181769452Y-25629999D02*
G75*
G02*
X182021711Y-25698298I-2J-500011D01*
G01*
X182021711Y-22561701D02*
G75*
G02*
X181769453Y-22630000I-252261J431711D01*
G01*
X182021711Y-22561701D02*
G75*
G02*
X182724483Y-23210279I252259J-431699D01*
G01*
X182674999Y-23427156D02*
G75*
G02*
X182724482Y-23210278I500031J-4D01*
G01*
X182724484Y-25049718D02*
G75*
G02*
X182021711Y-25698298I-450514J-216880D01*
G01*
X182724484Y-25049719D02*
G75*
G02*
X182674995Y-24832841I450216J216819D01*
G01*
%TO.C,RGB1_A29*%
X203087501Y-43882842D02*
X203087501Y-42477158D01*
X203993048Y-41680000D02*
X205581952Y-41680000D01*
X205581952Y-44679999D02*
X203993047Y-44679999D01*
X206487499Y-42477158D02*
X206487499Y-43882842D01*
X203038016Y-42260280D02*
G75*
G02*
X203087501Y-42477158I-450505J-216876D01*
G01*
X203038016Y-42260281D02*
G75*
G02*
X203740789Y-41611701I450514J216880D01*
G01*
X203087501Y-43882843D02*
G75*
G02*
X203038016Y-44099720I-499990J-1D01*
G01*
X203740789Y-44748298D02*
G75*
G02*
X203038016Y-44099720I-252258J431701D01*
G01*
X203740789Y-44748298D02*
G75*
G02*
X203993047Y-44679999I252261J-431710D01*
G01*
X203993048Y-41680000D02*
G75*
G02*
X203740789Y-41611701I2J500009D01*
G01*
X205581953Y-44680000D02*
G75*
G02*
X205834211Y-44748299I-3J-500010D01*
G01*
X205834210Y-41611701D02*
G75*
G02*
X205581952Y-41679999I-252260J431711D01*
G01*
X205834211Y-41611703D02*
G75*
G02*
X206536981Y-42260279I252259J-431697D01*
G01*
X206487499Y-42477157D02*
G75*
G02*
X206536982Y-42260279I500031J-3D01*
G01*
X206536984Y-44099720D02*
G75*
G02*
X205834210Y-44748300I-450514J-216880D01*
G01*
X206536984Y-44099720D02*
G75*
G02*
X206487495Y-43882842I450216J216820D01*
G01*
%TO.C,RGB1_B30*%
X117362501Y-62932841D02*
X117362501Y-61527157D01*
X118268048Y-60730000D02*
X119856953Y-60730000D01*
X119856952Y-63729999D02*
X118268048Y-63729999D01*
X120762499Y-61527157D02*
X120762499Y-62932841D01*
X117313016Y-61310279D02*
G75*
G02*
X117362501Y-61527157I-450505J-216876D01*
G01*
X117313016Y-61310279D02*
G75*
G02*
X118015789Y-60661700I450515J216878D01*
G01*
X117362501Y-62932842D02*
G75*
G02*
X117313016Y-63149719I-499990J-1D01*
G01*
X118015789Y-63798296D02*
G75*
G02*
X117313016Y-63149719I-252258J431700D01*
G01*
X118015790Y-63798298D02*
G75*
G02*
X118268048Y-63729999I252261J-431710D01*
G01*
X118268047Y-60729999D02*
G75*
G02*
X118015789Y-60661700I3J500009D01*
G01*
X119856952Y-63729999D02*
G75*
G02*
X120109211Y-63798298I-2J-500011D01*
G01*
X120109211Y-60661701D02*
G75*
G02*
X119856953Y-60730000I-252261J431711D01*
G01*
X120109211Y-60661701D02*
G75*
G02*
X120811983Y-61310279I252259J-431699D01*
G01*
X120762499Y-61527156D02*
G75*
G02*
X120811982Y-61310278I500031J-4D01*
G01*
X120811984Y-63149718D02*
G75*
G02*
X120109211Y-63798298I-450514J-216880D01*
G01*
X120811984Y-63149719D02*
G75*
G02*
X120762495Y-62932841I450216J216819D01*
G01*
%TO.C,RGB1_A3*%
X55450001Y-5782842D02*
X55450001Y-4377158D01*
X56355548Y-3580000D02*
X57944452Y-3580000D01*
X57944452Y-6579999D02*
X56355547Y-6579999D01*
X58849999Y-4377158D02*
X58849999Y-5782842D01*
X55400516Y-4160280D02*
G75*
G02*
X55450001Y-4377158I-450505J-216876D01*
G01*
X55400516Y-4160281D02*
G75*
G02*
X56103289Y-3511701I450514J216880D01*
G01*
X55450001Y-5782843D02*
G75*
G02*
X55400516Y-5999720I-499990J-1D01*
G01*
X56103289Y-6648298D02*
G75*
G02*
X55400516Y-5999720I-252258J431701D01*
G01*
X56103289Y-6648298D02*
G75*
G02*
X56355547Y-6579999I252261J-431710D01*
G01*
X56355548Y-3580000D02*
G75*
G02*
X56103289Y-3511701I2J500009D01*
G01*
X57944453Y-6580000D02*
G75*
G02*
X58196711Y-6648299I-3J-500010D01*
G01*
X58196710Y-3511701D02*
G75*
G02*
X57944452Y-3579999I-252260J431711D01*
G01*
X58196711Y-3511703D02*
G75*
G02*
X58899481Y-4160279I252259J-431697D01*
G01*
X58849999Y-4377157D02*
G75*
G02*
X58899482Y-4160279I500031J-3D01*
G01*
X58899484Y-5999720D02*
G75*
G02*
X58196710Y-6648300I-450514J-216880D01*
G01*
X58899484Y-5999720D02*
G75*
G02*
X58849995Y-5782842I450216J216820D01*
G01*
%TO.C,RGB1_B5*%
X198325001Y-24832841D02*
X198325001Y-23427157D01*
X199230548Y-22630000D02*
X200819453Y-22630000D01*
X200819452Y-25629999D02*
X199230548Y-25629999D01*
X201724999Y-23427157D02*
X201724999Y-24832841D01*
X198275516Y-23210279D02*
G75*
G02*
X198325001Y-23427157I-450505J-216876D01*
G01*
X198275516Y-23210279D02*
G75*
G02*
X198978289Y-22561700I450515J216878D01*
G01*
X198325001Y-24832842D02*
G75*
G02*
X198275516Y-25049719I-499990J-1D01*
G01*
X198978289Y-25698296D02*
G75*
G02*
X198275516Y-25049719I-252258J431700D01*
G01*
X198978290Y-25698298D02*
G75*
G02*
X199230548Y-25629999I252261J-431710D01*
G01*
X199230547Y-22629999D02*
G75*
G02*
X198978289Y-22561700I3J500009D01*
G01*
X200819452Y-25629999D02*
G75*
G02*
X201071711Y-25698298I-2J-500011D01*
G01*
X201071711Y-22561701D02*
G75*
G02*
X200819453Y-22630000I-252261J431711D01*
G01*
X201071711Y-22561701D02*
G75*
G02*
X201774483Y-23210279I252259J-431699D01*
G01*
X201724999Y-23427156D02*
G75*
G02*
X201774482Y-23210278I500031J-4D01*
G01*
X201774484Y-25049718D02*
G75*
G02*
X201071711Y-25698298I-450514J-216880D01*
G01*
X201774484Y-25049719D02*
G75*
G02*
X201724995Y-24832841I450216J216819D01*
G01*
%TO.C,RGB1_A28*%
X107837501Y-43882842D02*
X107837501Y-42477158D01*
X108743048Y-41680000D02*
X110331952Y-41680000D01*
X110331952Y-44679999D02*
X108743047Y-44679999D01*
X111237499Y-42477158D02*
X111237499Y-43882842D01*
X107788016Y-42260280D02*
G75*
G02*
X107837501Y-42477158I-450505J-216876D01*
G01*
X107788016Y-42260281D02*
G75*
G02*
X108490789Y-41611701I450514J216880D01*
G01*
X107837501Y-43882843D02*
G75*
G02*
X107788016Y-44099720I-499990J-1D01*
G01*
X108490789Y-44748298D02*
G75*
G02*
X107788016Y-44099720I-252258J431701D01*
G01*
X108490789Y-44748298D02*
G75*
G02*
X108743047Y-44679999I252261J-431710D01*
G01*
X108743048Y-41680000D02*
G75*
G02*
X108490789Y-41611701I2J500009D01*
G01*
X110331953Y-44680000D02*
G75*
G02*
X110584211Y-44748299I-3J-500010D01*
G01*
X110584210Y-41611701D02*
G75*
G02*
X110331952Y-41679999I-252260J431711D01*
G01*
X110584211Y-41611703D02*
G75*
G02*
X111286981Y-42260279I252259J-431697D01*
G01*
X111237499Y-42477157D02*
G75*
G02*
X111286982Y-42260279I500031J-3D01*
G01*
X111286984Y-44099720D02*
G75*
G02*
X110584210Y-44748300I-450514J-216880D01*
G01*
X111286984Y-44099720D02*
G75*
G02*
X111237495Y-43882842I450216J216820D01*
G01*
%TO.C,RGB1_A1*%
X17350001Y-5782842D02*
X17350001Y-4377158D01*
X18255548Y-3580000D02*
X19844452Y-3580000D01*
X19844452Y-6579999D02*
X18255547Y-6579999D01*
X20749999Y-4377158D02*
X20749999Y-5782842D01*
X17300516Y-4160280D02*
G75*
G02*
X17350001Y-4377158I-450505J-216876D01*
G01*
X17300516Y-4160281D02*
G75*
G02*
X18003289Y-3511701I450514J216880D01*
G01*
X17350001Y-5782843D02*
G75*
G02*
X17300516Y-5999720I-499990J-1D01*
G01*
X18003289Y-6648298D02*
G75*
G02*
X17300516Y-5999720I-252258J431701D01*
G01*
X18003289Y-6648298D02*
G75*
G02*
X18255547Y-6579999I252261J-431710D01*
G01*
X18255548Y-3580000D02*
G75*
G02*
X18003289Y-3511701I2J500009D01*
G01*
X19844453Y-6580000D02*
G75*
G02*
X20096711Y-6648299I-3J-500010D01*
G01*
X20096710Y-3511701D02*
G75*
G02*
X19844452Y-3579999I-252260J431711D01*
G01*
X20096711Y-3511703D02*
G75*
G02*
X20799481Y-4160279I252259J-431697D01*
G01*
X20749999Y-4377157D02*
G75*
G02*
X20799482Y-4160279I500031J-3D01*
G01*
X20799484Y-5999720D02*
G75*
G02*
X20096710Y-6648300I-450514J-216880D01*
G01*
X20799484Y-5999720D02*
G75*
G02*
X20749995Y-5782842I450216J216820D01*
G01*
%TO.C,RGB1_B28*%
X98312501Y-62932841D02*
X98312501Y-61527157D01*
X99218048Y-60730000D02*
X100806953Y-60730000D01*
X100806952Y-63729999D02*
X99218048Y-63729999D01*
X101712499Y-61527157D02*
X101712499Y-62932841D01*
X98263016Y-61310279D02*
G75*
G02*
X98312501Y-61527157I-450505J-216876D01*
G01*
X98263016Y-61310279D02*
G75*
G02*
X98965789Y-60661700I450515J216878D01*
G01*
X98312501Y-62932842D02*
G75*
G02*
X98263016Y-63149719I-499990J-1D01*
G01*
X98965789Y-63798296D02*
G75*
G02*
X98263016Y-63149719I-252258J431700D01*
G01*
X98965790Y-63798298D02*
G75*
G02*
X99218048Y-63729999I252261J-431710D01*
G01*
X99218047Y-60729999D02*
G75*
G02*
X98965789Y-60661700I3J500009D01*
G01*
X100806952Y-63729999D02*
G75*
G02*
X101059211Y-63798298I-2J-500011D01*
G01*
X101059211Y-60661701D02*
G75*
G02*
X100806953Y-60730000I-252261J431711D01*
G01*
X101059211Y-60661701D02*
G75*
G02*
X101761983Y-61310279I252259J-431699D01*
G01*
X101712499Y-61527156D02*
G75*
G02*
X101761982Y-61310278I500031J-4D01*
G01*
X101761984Y-63149718D02*
G75*
G02*
X101059211Y-63798298I-450514J-216880D01*
G01*
X101761984Y-63149719D02*
G75*
G02*
X101712495Y-62932841I450216J216819D01*
G01*
%TO.C,RGB1_A2*%
X36400001Y-5782842D02*
X36400001Y-4377158D01*
X37305548Y-3580000D02*
X38894452Y-3580000D01*
X38894452Y-6579999D02*
X37305547Y-6579999D01*
X39799999Y-4377158D02*
X39799999Y-5782842D01*
X36350516Y-4160280D02*
G75*
G02*
X36400001Y-4377158I-450505J-216876D01*
G01*
X36350516Y-4160281D02*
G75*
G02*
X37053289Y-3511701I450514J216880D01*
G01*
X36400001Y-5782843D02*
G75*
G02*
X36350516Y-5999720I-499990J-1D01*
G01*
X37053289Y-6648298D02*
G75*
G02*
X36350516Y-5999720I-252258J431701D01*
G01*
X37053289Y-6648298D02*
G75*
G02*
X37305547Y-6579999I252261J-431710D01*
G01*
X37305548Y-3580000D02*
G75*
G02*
X37053289Y-3511701I2J500009D01*
G01*
X38894453Y-6580000D02*
G75*
G02*
X39146711Y-6648299I-3J-500010D01*
G01*
X39146710Y-3511701D02*
G75*
G02*
X38894452Y-3579999I-252260J431711D01*
G01*
X39146711Y-3511703D02*
G75*
G02*
X39849481Y-4160279I252259J-431697D01*
G01*
X39799999Y-4377157D02*
G75*
G02*
X39849482Y-4160279I500031J-3D01*
G01*
X39849484Y-5999720D02*
G75*
G02*
X39146710Y-6648300I-450514J-216880D01*
G01*
X39849484Y-5999720D02*
G75*
G02*
X39799995Y-5782842I450216J216820D01*
G01*
%TO.C,RGB1_A8*%
X150700001Y-5782842D02*
X150700001Y-4377158D01*
X151605548Y-3580000D02*
X153194452Y-3580000D01*
X153194452Y-6579999D02*
X151605547Y-6579999D01*
X154099999Y-4377158D02*
X154099999Y-5782842D01*
X150650516Y-4160280D02*
G75*
G02*
X150700001Y-4377158I-450505J-216876D01*
G01*
X150650516Y-4160281D02*
G75*
G02*
X151353289Y-3511701I450514J216880D01*
G01*
X150700001Y-5782843D02*
G75*
G02*
X150650516Y-5999720I-499990J-1D01*
G01*
X151353289Y-6648298D02*
G75*
G02*
X150650516Y-5999720I-252258J431701D01*
G01*
X151353289Y-6648298D02*
G75*
G02*
X151605547Y-6579999I252261J-431710D01*
G01*
X151605548Y-3580000D02*
G75*
G02*
X151353289Y-3511701I2J500009D01*
G01*
X153194453Y-6580000D02*
G75*
G02*
X153446711Y-6648299I-3J-500010D01*
G01*
X153446710Y-3511701D02*
G75*
G02*
X153194452Y-3579999I-252260J431711D01*
G01*
X153446711Y-3511703D02*
G75*
G02*
X154149481Y-4160279I252259J-431697D01*
G01*
X154099999Y-4377157D02*
G75*
G02*
X154149482Y-4160279I500031J-3D01*
G01*
X154149484Y-5999720D02*
G75*
G02*
X153446710Y-6648300I-450514J-216880D01*
G01*
X154149484Y-5999720D02*
G75*
G02*
X154099995Y-5782842I450216J216820D01*
G01*
%TO.C,RGB1_A44*%
X245950001Y-81982842D02*
X245950001Y-80577158D01*
X246855548Y-79780000D02*
X248444452Y-79780000D01*
X248444452Y-82779999D02*
X246855547Y-82779999D01*
X249349999Y-80577158D02*
X249349999Y-81982842D01*
X245900516Y-80360280D02*
G75*
G02*
X245950001Y-80577158I-450505J-216876D01*
G01*
X245900516Y-80360281D02*
G75*
G02*
X246603289Y-79711701I450514J216880D01*
G01*
X245950001Y-81982843D02*
G75*
G02*
X245900516Y-82199720I-499990J-1D01*
G01*
X246603289Y-82848298D02*
G75*
G02*
X245900516Y-82199720I-252258J431701D01*
G01*
X246603289Y-82848298D02*
G75*
G02*
X246855547Y-82779999I252261J-431710D01*
G01*
X246855548Y-79780000D02*
G75*
G02*
X246603289Y-79711701I2J500009D01*
G01*
X248444453Y-82780000D02*
G75*
G02*
X248696711Y-82848299I-3J-500010D01*
G01*
X248696710Y-79711701D02*
G75*
G02*
X248444452Y-79779999I-252260J431711D01*
G01*
X248696711Y-79711703D02*
G75*
G02*
X249399481Y-80360279I252259J-431697D01*
G01*
X249349999Y-80577157D02*
G75*
G02*
X249399482Y-80360279I500031J-3D01*
G01*
X249399484Y-82199720D02*
G75*
G02*
X248696710Y-82848300I-450514J-216880D01*
G01*
X249399484Y-82199720D02*
G75*
G02*
X249349995Y-81982842I450216J216820D01*
G01*
%TO.C,RGB1_A42*%
X213803126Y-81982842D02*
X213803126Y-80577158D01*
X214708673Y-79780000D02*
X216297577Y-79780000D01*
X216297577Y-82779999D02*
X214708672Y-82779999D01*
X217203124Y-80577158D02*
X217203124Y-81982842D01*
X213753641Y-80360280D02*
G75*
G02*
X213803126Y-80577158I-450505J-216876D01*
G01*
X213753641Y-80360281D02*
G75*
G02*
X214456414Y-79711701I450514J216880D01*
G01*
X213803126Y-81982843D02*
G75*
G02*
X213753641Y-82199720I-499990J-1D01*
G01*
X214456414Y-82848298D02*
G75*
G02*
X213753641Y-82199720I-252258J431701D01*
G01*
X214456414Y-82848298D02*
G75*
G02*
X214708672Y-82779999I252261J-431710D01*
G01*
X214708673Y-79780000D02*
G75*
G02*
X214456414Y-79711701I2J500009D01*
G01*
X216297578Y-82780000D02*
G75*
G02*
X216549836Y-82848299I-3J-500010D01*
G01*
X216549835Y-79711701D02*
G75*
G02*
X216297577Y-79779999I-252260J431711D01*
G01*
X216549836Y-79711703D02*
G75*
G02*
X217252606Y-80360279I252259J-431697D01*
G01*
X217203124Y-80577157D02*
G75*
G02*
X217252607Y-80360279I500031J-3D01*
G01*
X217252609Y-82199720D02*
G75*
G02*
X216549835Y-82848300I-450514J-216880D01*
G01*
X217252609Y-82199720D02*
G75*
G02*
X217203120Y-81982842I450216J216820D01*
G01*
%TO.C,RGB1_B10*%
X103075001Y-24832841D02*
X103075001Y-23427157D01*
X103980548Y-22630000D02*
X105569453Y-22630000D01*
X105569452Y-25629999D02*
X103980548Y-25629999D01*
X106474999Y-23427157D02*
X106474999Y-24832841D01*
X103025516Y-23210279D02*
G75*
G02*
X103075001Y-23427157I-450505J-216876D01*
G01*
X103025516Y-23210279D02*
G75*
G02*
X103728289Y-22561700I450515J216878D01*
G01*
X103075001Y-24832842D02*
G75*
G02*
X103025516Y-25049719I-499990J-1D01*
G01*
X103728289Y-25698296D02*
G75*
G02*
X103025516Y-25049719I-252258J431700D01*
G01*
X103728290Y-25698298D02*
G75*
G02*
X103980548Y-25629999I252261J-431710D01*
G01*
X103980547Y-22629999D02*
G75*
G02*
X103728289Y-22561700I3J500009D01*
G01*
X105569452Y-25629999D02*
G75*
G02*
X105821711Y-25698298I-2J-500011D01*
G01*
X105821711Y-22561701D02*
G75*
G02*
X105569453Y-22630000I-252261J431711D01*
G01*
X105821711Y-22561701D02*
G75*
G02*
X106524483Y-23210279I252259J-431699D01*
G01*
X106474999Y-23427156D02*
G75*
G02*
X106524482Y-23210278I500031J-4D01*
G01*
X106524484Y-25049718D02*
G75*
G02*
X105821711Y-25698298I-450514J-216880D01*
G01*
X106524484Y-25049719D02*
G75*
G02*
X106474995Y-24832841I450216J216819D01*
G01*
%TO.C,RGB1_B13*%
X45925001Y-24832841D02*
X45925001Y-23427157D01*
X46830548Y-22630000D02*
X48419453Y-22630000D01*
X48419452Y-25629999D02*
X46830548Y-25629999D01*
X49324999Y-23427157D02*
X49324999Y-24832841D01*
X45875516Y-23210279D02*
G75*
G02*
X45925001Y-23427157I-450505J-216876D01*
G01*
X45875516Y-23210279D02*
G75*
G02*
X46578289Y-22561700I450515J216878D01*
G01*
X45925001Y-24832842D02*
G75*
G02*
X45875516Y-25049719I-499990J-1D01*
G01*
X46578289Y-25698296D02*
G75*
G02*
X45875516Y-25049719I-252258J431700D01*
G01*
X46578290Y-25698298D02*
G75*
G02*
X46830548Y-25629999I252261J-431710D01*
G01*
X46830547Y-22629999D02*
G75*
G02*
X46578289Y-22561700I3J500009D01*
G01*
X48419452Y-25629999D02*
G75*
G02*
X48671711Y-25698298I-2J-500011D01*
G01*
X48671711Y-22561701D02*
G75*
G02*
X48419453Y-22630000I-252261J431711D01*
G01*
X48671711Y-22561701D02*
G75*
G02*
X49374483Y-23210279I252259J-431699D01*
G01*
X49324999Y-23427156D02*
G75*
G02*
X49374482Y-23210278I500031J-4D01*
G01*
X49374484Y-25049718D02*
G75*
G02*
X48671711Y-25698298I-450514J-216880D01*
G01*
X49374484Y-25049719D02*
G75*
G02*
X49324995Y-24832841I450216J216819D01*
G01*
%TO.C,RGB1_B9*%
X122125001Y-24832841D02*
X122125001Y-23427157D01*
X123030548Y-22630000D02*
X124619453Y-22630000D01*
X124619452Y-25629999D02*
X123030548Y-25629999D01*
X125524999Y-23427157D02*
X125524999Y-24832841D01*
X122075516Y-23210279D02*
G75*
G02*
X122125001Y-23427157I-450505J-216876D01*
G01*
X122075516Y-23210279D02*
G75*
G02*
X122778289Y-22561700I450515J216878D01*
G01*
X122125001Y-24832842D02*
G75*
G02*
X122075516Y-25049719I-499990J-1D01*
G01*
X122778289Y-25698296D02*
G75*
G02*
X122075516Y-25049719I-252258J431700D01*
G01*
X122778290Y-25698298D02*
G75*
G02*
X123030548Y-25629999I252261J-431710D01*
G01*
X123030547Y-22629999D02*
G75*
G02*
X122778289Y-22561700I3J500009D01*
G01*
X124619452Y-25629999D02*
G75*
G02*
X124871711Y-25698298I-2J-500011D01*
G01*
X124871711Y-22561701D02*
G75*
G02*
X124619453Y-22630000I-252261J431711D01*
G01*
X124871711Y-22561701D02*
G75*
G02*
X125574483Y-23210279I252259J-431699D01*
G01*
X125524999Y-23427156D02*
G75*
G02*
X125574482Y-23210278I500031J-4D01*
G01*
X125574484Y-25049718D02*
G75*
G02*
X124871711Y-25698298I-450514J-216880D01*
G01*
X125574484Y-25049719D02*
G75*
G02*
X125524995Y-24832841I450216J216819D01*
G01*
%TO.C,RGB1_A30*%
X126887501Y-43882842D02*
X126887501Y-42477158D01*
X127793048Y-41680000D02*
X129381952Y-41680000D01*
X129381952Y-44679999D02*
X127793047Y-44679999D01*
X130287499Y-42477158D02*
X130287499Y-43882842D01*
X126838016Y-42260280D02*
G75*
G02*
X126887501Y-42477158I-450505J-216876D01*
G01*
X126838016Y-42260281D02*
G75*
G02*
X127540789Y-41611701I450514J216880D01*
G01*
X126887501Y-43882843D02*
G75*
G02*
X126838016Y-44099720I-499990J-1D01*
G01*
X127540789Y-44748298D02*
G75*
G02*
X126838016Y-44099720I-252258J431701D01*
G01*
X127540789Y-44748298D02*
G75*
G02*
X127793047Y-44679999I252261J-431710D01*
G01*
X127793048Y-41680000D02*
G75*
G02*
X127540789Y-41611701I2J500009D01*
G01*
X129381953Y-44680000D02*
G75*
G02*
X129634211Y-44748299I-3J-500010D01*
G01*
X129634210Y-41611701D02*
G75*
G02*
X129381952Y-41679999I-252260J431711D01*
G01*
X129634211Y-41611703D02*
G75*
G02*
X130336981Y-42260279I252259J-431697D01*
G01*
X130287499Y-42477157D02*
G75*
G02*
X130336982Y-42260279I500031J-3D01*
G01*
X130336984Y-44099720D02*
G75*
G02*
X129634210Y-44748300I-450514J-216880D01*
G01*
X130336984Y-44099720D02*
G75*
G02*
X130287495Y-43882842I450216J216820D01*
G01*
%TO.C,RGB1_B7*%
X160225001Y-24832841D02*
X160225001Y-23427157D01*
X161130548Y-22630000D02*
X162719453Y-22630000D01*
X162719452Y-25629999D02*
X161130548Y-25629999D01*
X163624999Y-23427157D02*
X163624999Y-24832841D01*
X160175516Y-23210279D02*
G75*
G02*
X160225001Y-23427157I-450505J-216876D01*
G01*
X160175516Y-23210279D02*
G75*
G02*
X160878289Y-22561700I450515J216878D01*
G01*
X160225001Y-24832842D02*
G75*
G02*
X160175516Y-25049719I-499990J-1D01*
G01*
X160878289Y-25698296D02*
G75*
G02*
X160175516Y-25049719I-252258J431700D01*
G01*
X160878290Y-25698298D02*
G75*
G02*
X161130548Y-25629999I252261J-431710D01*
G01*
X161130547Y-22629999D02*
G75*
G02*
X160878289Y-22561700I3J500009D01*
G01*
X162719452Y-25629999D02*
G75*
G02*
X162971711Y-25698298I-2J-500011D01*
G01*
X162971711Y-22561701D02*
G75*
G02*
X162719453Y-22630000I-252261J431711D01*
G01*
X162971711Y-22561701D02*
G75*
G02*
X163674483Y-23210279I252259J-431699D01*
G01*
X163624999Y-23427156D02*
G75*
G02*
X163674482Y-23210278I500031J-4D01*
G01*
X163674484Y-25049718D02*
G75*
G02*
X162971711Y-25698298I-450514J-216880D01*
G01*
X163674484Y-25049719D02*
G75*
G02*
X163624995Y-24832841I450216J216819D01*
G01*
%TO.C,RGB1_A45*%
X265000001Y-81982842D02*
X265000001Y-80577158D01*
X265905548Y-79780000D02*
X267494452Y-79780000D01*
X267494452Y-82779999D02*
X265905547Y-82779999D01*
X268399999Y-80577158D02*
X268399999Y-81982842D01*
X264950516Y-80360280D02*
G75*
G02*
X265000001Y-80577158I-450505J-216876D01*
G01*
X264950516Y-80360281D02*
G75*
G02*
X265653289Y-79711701I450514J216880D01*
G01*
X265000001Y-81982843D02*
G75*
G02*
X264950516Y-82199720I-499990J-1D01*
G01*
X265653289Y-82848298D02*
G75*
G02*
X264950516Y-82199720I-252258J431701D01*
G01*
X265653289Y-82848298D02*
G75*
G02*
X265905547Y-82779999I252261J-431710D01*
G01*
X265905548Y-79780000D02*
G75*
G02*
X265653289Y-79711701I2J500009D01*
G01*
X267494453Y-82780000D02*
G75*
G02*
X267746711Y-82848299I-3J-500010D01*
G01*
X267746710Y-79711701D02*
G75*
G02*
X267494452Y-79779999I-252260J431711D01*
G01*
X267746711Y-79711703D02*
G75*
G02*
X268449481Y-80360279I252259J-431697D01*
G01*
X268399999Y-80577157D02*
G75*
G02*
X268449482Y-80360279I500031J-3D01*
G01*
X268449484Y-82199720D02*
G75*
G02*
X267746710Y-82848300I-450514J-216880D01*
G01*
X268449484Y-82199720D02*
G75*
G02*
X268399995Y-81982842I450216J216820D01*
G01*
%TO.C,RGB1_B15*%
X3062501Y-24832841D02*
X3062501Y-23427157D01*
X3968048Y-22630000D02*
X5556953Y-22630000D01*
X5556952Y-25629999D02*
X3968048Y-25629999D01*
X6462499Y-23427157D02*
X6462499Y-24832841D01*
X3013016Y-23210279D02*
G75*
G02*
X3062501Y-23427157I-450505J-216876D01*
G01*
X3013016Y-23210279D02*
G75*
G02*
X3715789Y-22561700I450515J216878D01*
G01*
X3062501Y-24832842D02*
G75*
G02*
X3013016Y-25049719I-499990J-1D01*
G01*
X3715789Y-25698296D02*
G75*
G02*
X3013016Y-25049719I-252258J431700D01*
G01*
X3715790Y-25698298D02*
G75*
G02*
X3968048Y-25629999I252261J-431710D01*
G01*
X3968047Y-22629999D02*
G75*
G02*
X3715789Y-22561700I3J500009D01*
G01*
X5556952Y-25629999D02*
G75*
G02*
X5809211Y-25698298I-2J-500011D01*
G01*
X5809211Y-22561701D02*
G75*
G02*
X5556953Y-22630000I-252261J431711D01*
G01*
X5809211Y-22561701D02*
G75*
G02*
X6511983Y-23210279I252259J-431699D01*
G01*
X6462499Y-23427156D02*
G75*
G02*
X6511982Y-23210278I500031J-4D01*
G01*
X6511984Y-25049718D02*
G75*
G02*
X5809211Y-25698298I-450514J-216880D01*
G01*
X6511984Y-25049719D02*
G75*
G02*
X6462495Y-24832841I450216J216819D01*
G01*
%TO.C,RGB1_A36*%
X119743751Y-81982842D02*
X119743751Y-80577158D01*
X120649298Y-79780000D02*
X122238202Y-79780000D01*
X122238202Y-82779999D02*
X120649297Y-82779999D01*
X123143749Y-80577158D02*
X123143749Y-81982842D01*
X119694266Y-80360280D02*
G75*
G02*
X119743751Y-80577158I-450505J-216876D01*
G01*
X119694266Y-80360281D02*
G75*
G02*
X120397039Y-79711701I450514J216880D01*
G01*
X119743751Y-81982843D02*
G75*
G02*
X119694266Y-82199720I-499990J-1D01*
G01*
X120397039Y-82848298D02*
G75*
G02*
X119694266Y-82199720I-252258J431701D01*
G01*
X120397039Y-82848298D02*
G75*
G02*
X120649297Y-82779999I252261J-431710D01*
G01*
X120649298Y-79780000D02*
G75*
G02*
X120397039Y-79711701I2J500009D01*
G01*
X122238203Y-82780000D02*
G75*
G02*
X122490461Y-82848299I-3J-500010D01*
G01*
X122490460Y-79711701D02*
G75*
G02*
X122238202Y-79779999I-252260J431711D01*
G01*
X122490461Y-79711703D02*
G75*
G02*
X123193231Y-80360279I252259J-431697D01*
G01*
X123143749Y-80577157D02*
G75*
G02*
X123193232Y-80360279I500031J-3D01*
G01*
X123193234Y-82199720D02*
G75*
G02*
X122490460Y-82848300I-450514J-216880D01*
G01*
X123193234Y-82199720D02*
G75*
G02*
X123143745Y-81982842I450216J216820D01*
G01*
%TO.C,RGB1_B20*%
X22112501Y-62932841D02*
X22112501Y-61527157D01*
X23018048Y-60730000D02*
X24606953Y-60730000D01*
X24606952Y-63729999D02*
X23018048Y-63729999D01*
X25512499Y-61527157D02*
X25512499Y-62932841D01*
X22063016Y-61310279D02*
G75*
G02*
X22112501Y-61527157I-450505J-216876D01*
G01*
X22063016Y-61310279D02*
G75*
G02*
X22765789Y-60661700I450515J216878D01*
G01*
X22112501Y-62932842D02*
G75*
G02*
X22063016Y-63149719I-499990J-1D01*
G01*
X22765789Y-63798296D02*
G75*
G02*
X22063016Y-63149719I-252258J431700D01*
G01*
X22765790Y-63798298D02*
G75*
G02*
X23018048Y-63729999I252261J-431710D01*
G01*
X23018047Y-60729999D02*
G75*
G02*
X22765789Y-60661700I3J500009D01*
G01*
X24606952Y-63729999D02*
G75*
G02*
X24859211Y-63798298I-2J-500011D01*
G01*
X24859211Y-60661701D02*
G75*
G02*
X24606953Y-60730000I-252261J431711D01*
G01*
X24859211Y-60661701D02*
G75*
G02*
X25561983Y-61310279I252259J-431699D01*
G01*
X25512499Y-61527156D02*
G75*
G02*
X25561982Y-61310278I500031J-4D01*
G01*
X25561984Y-63149718D02*
G75*
G02*
X24859211Y-63798298I-450514J-216880D01*
G01*
X25561984Y-63149719D02*
G75*
G02*
X25512495Y-62932841I450216J216819D01*
G01*
%TO.C,RGB1_A26*%
X88787501Y-43882842D02*
X88787501Y-42477158D01*
X89693048Y-41680000D02*
X91281952Y-41680000D01*
X91281952Y-44679999D02*
X89693047Y-44679999D01*
X92187499Y-42477158D02*
X92187499Y-43882842D01*
X88738016Y-42260280D02*
G75*
G02*
X88787501Y-42477158I-450505J-216876D01*
G01*
X88738016Y-42260281D02*
G75*
G02*
X89440789Y-41611701I450514J216880D01*
G01*
X88787501Y-43882843D02*
G75*
G02*
X88738016Y-44099720I-499990J-1D01*
G01*
X89440789Y-44748298D02*
G75*
G02*
X88738016Y-44099720I-252258J431701D01*
G01*
X89440789Y-44748298D02*
G75*
G02*
X89693047Y-44679999I252261J-431710D01*
G01*
X89693048Y-41680000D02*
G75*
G02*
X89440789Y-41611701I2J500009D01*
G01*
X91281953Y-44680000D02*
G75*
G02*
X91534211Y-44748299I-3J-500010D01*
G01*
X91534210Y-41611701D02*
G75*
G02*
X91281952Y-41679999I-252260J431711D01*
G01*
X91534211Y-41611703D02*
G75*
G02*
X92236981Y-42260279I252259J-431697D01*
G01*
X92187499Y-42477157D02*
G75*
G02*
X92236982Y-42260279I500031J-3D01*
G01*
X92236984Y-44099720D02*
G75*
G02*
X91534210Y-44748300I-450514J-216880D01*
G01*
X92236984Y-44099720D02*
G75*
G02*
X92187495Y-43882842I450216J216820D01*
G01*
%TD*%
M02*
