%TF.GenerationSoftware,KiCad,Pcbnew,8.0.6*%
%TF.CreationDate,2024-11-18T06:39:38+07:00*%
%TF.ProjectId,Heart HE 65,48656172-7420-4484-9520-36352e6b6963,rev?*%
%TF.SameCoordinates,Original*%
%TF.FileFunction,Legend,Bot*%
%TF.FilePolarity,Positive*%
%FSLAX46Y46*%
G04 Gerber Fmt 4.6, Leading zero omitted, Abs format (unit mm)*
G04 Created by KiCad (PCBNEW 8.0.6) date 2024-11-18 06:39:38*
%MOMM*%
%LPD*%
G01*
G04 APERTURE LIST*
G04 Aperture macros list*
%AMRoundRect*
0 Rectangle with rounded corners*
0 $1 Rounding radius*
0 $2 $3 $4 $5 $6 $7 $8 $9 X,Y pos of 4 corners*
0 Add a 4 corners polygon primitive as box body*
4,1,4,$2,$3,$4,$5,$6,$7,$8,$9,$2,$3,0*
0 Add four circle primitives for the rounded corners*
1,1,$1+$1,$2,$3*
1,1,$1+$1,$4,$5*
1,1,$1+$1,$6,$7*
1,1,$1+$1,$8,$9*
0 Add four rect primitives between the rounded corners*
20,1,$1+$1,$2,$3,$4,$5,0*
20,1,$1+$1,$4,$5,$6,$7,0*
20,1,$1+$1,$6,$7,$8,$9,0*
20,1,$1+$1,$8,$9,$2,$3,0*%
%AMRotRect*
0 Rectangle, with rotation*
0 The origin of the aperture is its center*
0 $1 length*
0 $2 width*
0 $3 Rotation angle, in degrees counterclockwise*
0 Add horizontal line*
21,1,$1,$2,0,0,$3*%
%AMFreePoly0*
4,1,21,-0.125000,1.200000,0.125000,1.200000,0.125000,1.700000,0.375000,1.700000,0.375000,1.200000,0.825000,1.200000,0.825000,-1.200000,0.375000,-1.200000,0.375000,-1.700000,0.125000,-1.700000,0.125000,-1.200000,-0.125000,-1.200000,-0.125000,-1.700000,-0.375000,-1.700000,-0.375000,-1.200000,-0.825000,-1.200000,-0.825000,1.200000,-0.375000,1.200000,-0.375000,1.700000,-0.125000,1.700000,
-0.125000,1.200000,-0.125000,1.200000,$1*%
%AMFreePoly1*
4,1,19,0.500000,-0.750000,0.000000,-0.750000,0.000000,-0.744911,-0.071157,-0.744911,-0.207708,-0.704816,-0.327430,-0.627875,-0.420627,-0.520320,-0.479746,-0.390866,-0.500000,-0.250000,-0.500000,0.250000,-0.479746,0.390866,-0.420627,0.520320,-0.327430,0.627875,-0.207708,0.704816,-0.071157,0.744911,0.000000,0.744911,0.000000,0.750000,0.500000,0.750000,0.500000,-0.750000,0.500000,-0.750000,
$1*%
%AMFreePoly2*
4,1,19,0.000000,0.744911,0.071157,0.744911,0.207708,0.704816,0.327430,0.627875,0.420627,0.520320,0.479746,0.390866,0.500000,0.250000,0.500000,-0.250000,0.479746,-0.390866,0.420627,-0.520320,0.327430,-0.627875,0.207708,-0.704816,0.071157,-0.744911,0.000000,-0.744911,0.000000,-0.750000,-0.500000,-0.750000,-0.500000,0.750000,0.000000,0.750000,0.000000,0.744911,0.000000,0.744911,
$1*%
G04 Aperture macros list end*
%ADD10C,0.300000*%
%ADD11C,0.100000*%
%ADD12C,0.120000*%
%ADD13C,0.153000*%
%ADD14C,0.150000*%
%ADD15C,0.500000*%
%ADD16RoundRect,0.082000X0.718000X-0.328000X0.718000X0.328000X-0.718000X0.328000X-0.718000X-0.328000X0*%
%ADD17RoundRect,0.082000X-0.718000X0.328000X-0.718000X-0.328000X0.718000X-0.328000X0.718000X0.328000X0*%
%ADD18C,3.800000*%
%ADD19R,0.620000X0.560000*%
%ADD20R,0.750000X0.800000*%
%ADD21RoundRect,0.200000X-0.800000X0.200000X-0.800000X-0.200000X0.800000X-0.200000X0.800000X0.200000X0*%
%ADD22RotRect,0.560000X0.620000X225.000000*%
%ADD23C,1.750000*%
%ADD24RoundRect,0.150000X-0.150000X0.350000X-0.150000X-0.350000X0.150000X-0.350000X0.150000X0.350000X0*%
%ADD25R,1.000000X0.400000*%
%ADD26RoundRect,0.375000X-0.625000X-0.375000X0.625000X-0.375000X0.625000X0.375000X-0.625000X0.375000X0*%
%ADD27RoundRect,0.500000X-0.500000X-1.400000X0.500000X-1.400000X0.500000X1.400000X-0.500000X1.400000X0*%
%ADD28C,1.000000*%
%ADD29R,0.560000X0.620000*%
%ADD30RotRect,0.400000X1.900000X225.000000*%
%ADD31RoundRect,0.150000X0.350000X0.150000X-0.350000X0.150000X-0.350000X-0.150000X0.350000X-0.150000X0*%
%ADD32C,3.987800*%
%ADD33C,3.048000*%
%ADD34RoundRect,0.050000X0.247487X-0.176777X-0.176777X0.247487X-0.247487X0.176777X0.176777X-0.247487X0*%
%ADD35RoundRect,0.050000X0.247487X0.176777X0.176777X0.247487X-0.247487X-0.176777X-0.176777X-0.247487X0*%
%ADD36RotRect,2.900000X2.900000X135.000000*%
%ADD37RotRect,0.560000X0.620000X315.000000*%
%ADD38RoundRect,0.060000X-0.060000X0.240000X-0.060000X-0.240000X0.060000X-0.240000X0.060000X0.240000X0*%
%ADD39FreePoly0,270.000000*%
%ADD40R,1.800000X1.200000*%
%ADD41R,1.550000X0.600000*%
%ADD42RotRect,0.560000X0.620000X135.000000*%
%ADD43R,1.000000X1.500000*%
%ADD44C,0.650000*%
%ADD45R,0.600000X1.450000*%
%ADD46R,0.300000X1.450000*%
%ADD47O,1.000000X1.600000*%
%ADD48O,1.000000X2.100000*%
%ADD49RoundRect,0.150000X-0.150000X0.512500X-0.150000X-0.512500X0.150000X-0.512500X0.150000X0.512500X0*%
%ADD50RoundRect,0.135000X-0.185000X0.135000X-0.185000X-0.135000X0.185000X-0.135000X0.185000X0.135000X0*%
%ADD51RoundRect,0.140000X0.170000X-0.140000X0.170000X0.140000X-0.170000X0.140000X-0.170000X-0.140000X0*%
%ADD52FreePoly1,270.000000*%
%ADD53FreePoly2,270.000000*%
%ADD54FreePoly1,0.000000*%
%ADD55FreePoly2,0.000000*%
%ADD56R,1.140000X2.030000*%
G04 APERTURE END LIST*
D10*
X293479417Y-69064484D02*
X293265132Y-69135912D01*
X293265132Y-69135912D02*
X292907989Y-69135912D01*
X292907989Y-69135912D02*
X292765132Y-69064484D01*
X292765132Y-69064484D02*
X292693703Y-68993055D01*
X292693703Y-68993055D02*
X292622274Y-68850198D01*
X292622274Y-68850198D02*
X292622274Y-68707341D01*
X292622274Y-68707341D02*
X292693703Y-68564484D01*
X292693703Y-68564484D02*
X292765132Y-68493055D01*
X292765132Y-68493055D02*
X292907989Y-68421626D01*
X292907989Y-68421626D02*
X293193703Y-68350198D01*
X293193703Y-68350198D02*
X293336560Y-68278769D01*
X293336560Y-68278769D02*
X293407989Y-68207341D01*
X293407989Y-68207341D02*
X293479417Y-68064484D01*
X293479417Y-68064484D02*
X293479417Y-67921626D01*
X293479417Y-67921626D02*
X293407989Y-67778769D01*
X293407989Y-67778769D02*
X293336560Y-67707341D01*
X293336560Y-67707341D02*
X293193703Y-67635912D01*
X293193703Y-67635912D02*
X292836560Y-67635912D01*
X292836560Y-67635912D02*
X292622274Y-67707341D01*
X291336561Y-69135912D02*
X291336561Y-68350198D01*
X291336561Y-68350198D02*
X291407989Y-68207341D01*
X291407989Y-68207341D02*
X291550846Y-68135912D01*
X291550846Y-68135912D02*
X291836561Y-68135912D01*
X291836561Y-68135912D02*
X291979418Y-68207341D01*
X291336561Y-69064484D02*
X291479418Y-69135912D01*
X291479418Y-69135912D02*
X291836561Y-69135912D01*
X291836561Y-69135912D02*
X291979418Y-69064484D01*
X291979418Y-69064484D02*
X292050846Y-68921626D01*
X292050846Y-68921626D02*
X292050846Y-68778769D01*
X292050846Y-68778769D02*
X291979418Y-68635912D01*
X291979418Y-68635912D02*
X291836561Y-68564484D01*
X291836561Y-68564484D02*
X291479418Y-68564484D01*
X291479418Y-68564484D02*
X291336561Y-68493055D01*
X290407989Y-69135912D02*
X290550846Y-69064484D01*
X290550846Y-69064484D02*
X290622275Y-68921626D01*
X290622275Y-68921626D02*
X290622275Y-67635912D01*
X289193704Y-69135912D02*
X289193704Y-68350198D01*
X289193704Y-68350198D02*
X289265132Y-68207341D01*
X289265132Y-68207341D02*
X289407989Y-68135912D01*
X289407989Y-68135912D02*
X289693704Y-68135912D01*
X289693704Y-68135912D02*
X289836561Y-68207341D01*
X289193704Y-69064484D02*
X289336561Y-69135912D01*
X289336561Y-69135912D02*
X289693704Y-69135912D01*
X289693704Y-69135912D02*
X289836561Y-69064484D01*
X289836561Y-69064484D02*
X289907989Y-68921626D01*
X289907989Y-68921626D02*
X289907989Y-68778769D01*
X289907989Y-68778769D02*
X289836561Y-68635912D01*
X289836561Y-68635912D02*
X289693704Y-68564484D01*
X289693704Y-68564484D02*
X289336561Y-68564484D01*
X289336561Y-68564484D02*
X289193704Y-68493055D01*
X288479418Y-68135912D02*
X288479418Y-69135912D01*
X288479418Y-68278769D02*
X288407989Y-68207341D01*
X288407989Y-68207341D02*
X288265132Y-68135912D01*
X288265132Y-68135912D02*
X288050846Y-68135912D01*
X288050846Y-68135912D02*
X287907989Y-68207341D01*
X287907989Y-68207341D02*
X287836561Y-68350198D01*
X287836561Y-68350198D02*
X287836561Y-69135912D01*
X286550846Y-69064484D02*
X286693703Y-69135912D01*
X286693703Y-69135912D02*
X286979418Y-69135912D01*
X286979418Y-69135912D02*
X287122275Y-69064484D01*
X287122275Y-69064484D02*
X287193703Y-68921626D01*
X287193703Y-68921626D02*
X287193703Y-68350198D01*
X287193703Y-68350198D02*
X287122275Y-68207341D01*
X287122275Y-68207341D02*
X286979418Y-68135912D01*
X286979418Y-68135912D02*
X286693703Y-68135912D01*
X286693703Y-68135912D02*
X286550846Y-68207341D01*
X286550846Y-68207341D02*
X286479418Y-68350198D01*
X286479418Y-68350198D02*
X286479418Y-68493055D01*
X286479418Y-68493055D02*
X287193703Y-68635912D01*
X283836561Y-68993055D02*
X283907989Y-69064484D01*
X283907989Y-69064484D02*
X284122275Y-69135912D01*
X284122275Y-69135912D02*
X284265132Y-69135912D01*
X284265132Y-69135912D02*
X284479418Y-69064484D01*
X284479418Y-69064484D02*
X284622275Y-68921626D01*
X284622275Y-68921626D02*
X284693704Y-68778769D01*
X284693704Y-68778769D02*
X284765132Y-68493055D01*
X284765132Y-68493055D02*
X284765132Y-68278769D01*
X284765132Y-68278769D02*
X284693704Y-67993055D01*
X284693704Y-67993055D02*
X284622275Y-67850198D01*
X284622275Y-67850198D02*
X284479418Y-67707341D01*
X284479418Y-67707341D02*
X284265132Y-67635912D01*
X284265132Y-67635912D02*
X284122275Y-67635912D01*
X284122275Y-67635912D02*
X283907989Y-67707341D01*
X283907989Y-67707341D02*
X283836561Y-67778769D01*
X282907989Y-67635912D02*
X282622275Y-67635912D01*
X282622275Y-67635912D02*
X282479418Y-67707341D01*
X282479418Y-67707341D02*
X282336561Y-67850198D01*
X282336561Y-67850198D02*
X282265132Y-68135912D01*
X282265132Y-68135912D02*
X282265132Y-68635912D01*
X282265132Y-68635912D02*
X282336561Y-68921626D01*
X282336561Y-68921626D02*
X282479418Y-69064484D01*
X282479418Y-69064484D02*
X282622275Y-69135912D01*
X282622275Y-69135912D02*
X282907989Y-69135912D01*
X282907989Y-69135912D02*
X283050847Y-69064484D01*
X283050847Y-69064484D02*
X283193704Y-68921626D01*
X283193704Y-68921626D02*
X283265132Y-68635912D01*
X283265132Y-68635912D02*
X283265132Y-68135912D01*
X283265132Y-68135912D02*
X283193704Y-67850198D01*
X283193704Y-67850198D02*
X283050847Y-67707341D01*
X283050847Y-67707341D02*
X282907989Y-67635912D01*
X281622275Y-68993055D02*
X281550846Y-69064484D01*
X281550846Y-69064484D02*
X281622275Y-69135912D01*
X281622275Y-69135912D02*
X281693703Y-69064484D01*
X281693703Y-69064484D02*
X281622275Y-68993055D01*
X281622275Y-68993055D02*
X281622275Y-69135912D01*
X279050846Y-69135912D02*
X279765132Y-69135912D01*
X279765132Y-69135912D02*
X279765132Y-67635912D01*
X277836560Y-69135912D02*
X278550846Y-69135912D01*
X278550846Y-69135912D02*
X278550846Y-67635912D01*
X276479417Y-68993055D02*
X276550845Y-69064484D01*
X276550845Y-69064484D02*
X276765131Y-69135912D01*
X276765131Y-69135912D02*
X276907988Y-69135912D01*
X276907988Y-69135912D02*
X277122274Y-69064484D01*
X277122274Y-69064484D02*
X277265131Y-68921626D01*
X277265131Y-68921626D02*
X277336560Y-68778769D01*
X277336560Y-68778769D02*
X277407988Y-68493055D01*
X277407988Y-68493055D02*
X277407988Y-68278769D01*
X277407988Y-68278769D02*
X277336560Y-67993055D01*
X277336560Y-67993055D02*
X277265131Y-67850198D01*
X277265131Y-67850198D02*
X277122274Y-67707341D01*
X277122274Y-67707341D02*
X276907988Y-67635912D01*
X276907988Y-67635912D02*
X276765131Y-67635912D01*
X276765131Y-67635912D02*
X276550845Y-67707341D01*
X276550845Y-67707341D02*
X276479417Y-67778769D01*
X293407989Y-71550828D02*
X293407989Y-70050828D01*
X293407989Y-70050828D02*
X293050846Y-70050828D01*
X293050846Y-70050828D02*
X292836560Y-70122257D01*
X292836560Y-70122257D02*
X292693703Y-70265114D01*
X292693703Y-70265114D02*
X292622274Y-70407971D01*
X292622274Y-70407971D02*
X292550846Y-70693685D01*
X292550846Y-70693685D02*
X292550846Y-70907971D01*
X292550846Y-70907971D02*
X292622274Y-71193685D01*
X292622274Y-71193685D02*
X292693703Y-71336542D01*
X292693703Y-71336542D02*
X292836560Y-71479400D01*
X292836560Y-71479400D02*
X293050846Y-71550828D01*
X293050846Y-71550828D02*
X293407989Y-71550828D01*
X291336560Y-71479400D02*
X291479417Y-71550828D01*
X291479417Y-71550828D02*
X291765132Y-71550828D01*
X291765132Y-71550828D02*
X291907989Y-71479400D01*
X291907989Y-71479400D02*
X291979417Y-71336542D01*
X291979417Y-71336542D02*
X291979417Y-70765114D01*
X291979417Y-70765114D02*
X291907989Y-70622257D01*
X291907989Y-70622257D02*
X291765132Y-70550828D01*
X291765132Y-70550828D02*
X291479417Y-70550828D01*
X291479417Y-70550828D02*
X291336560Y-70622257D01*
X291336560Y-70622257D02*
X291265132Y-70765114D01*
X291265132Y-70765114D02*
X291265132Y-70907971D01*
X291265132Y-70907971D02*
X291979417Y-71050828D01*
X290765132Y-70550828D02*
X290407989Y-71550828D01*
X290407989Y-71550828D02*
X290050846Y-70550828D01*
X288336561Y-71550828D02*
X288336561Y-70050828D01*
X287479418Y-71550828D02*
X288122275Y-70693685D01*
X287479418Y-70050828D02*
X288336561Y-70907971D01*
X286836561Y-71550828D02*
X286836561Y-70550828D01*
X286836561Y-70050828D02*
X286907989Y-70122257D01*
X286907989Y-70122257D02*
X286836561Y-70193685D01*
X286836561Y-70193685D02*
X286765132Y-70122257D01*
X286765132Y-70122257D02*
X286836561Y-70050828D01*
X286836561Y-70050828D02*
X286836561Y-70193685D01*
X286336560Y-70550828D02*
X285765132Y-70550828D01*
X286122275Y-70050828D02*
X286122275Y-71336542D01*
X286122275Y-71336542D02*
X286050846Y-71479400D01*
X286050846Y-71479400D02*
X285907989Y-71550828D01*
X285907989Y-71550828D02*
X285765132Y-71550828D01*
X284122275Y-71550828D02*
X284122275Y-70050828D01*
X284122275Y-70050828D02*
X283550846Y-70050828D01*
X283550846Y-70050828D02*
X283407989Y-70122257D01*
X283407989Y-70122257D02*
X283336560Y-70193685D01*
X283336560Y-70193685D02*
X283265132Y-70336542D01*
X283265132Y-70336542D02*
X283265132Y-70550828D01*
X283265132Y-70550828D02*
X283336560Y-70693685D01*
X283336560Y-70693685D02*
X283407989Y-70765114D01*
X283407989Y-70765114D02*
X283550846Y-70836542D01*
X283550846Y-70836542D02*
X284122275Y-70836542D01*
X281765132Y-71407971D02*
X281836560Y-71479400D01*
X281836560Y-71479400D02*
X282050846Y-71550828D01*
X282050846Y-71550828D02*
X282193703Y-71550828D01*
X282193703Y-71550828D02*
X282407989Y-71479400D01*
X282407989Y-71479400D02*
X282550846Y-71336542D01*
X282550846Y-71336542D02*
X282622275Y-71193685D01*
X282622275Y-71193685D02*
X282693703Y-70907971D01*
X282693703Y-70907971D02*
X282693703Y-70693685D01*
X282693703Y-70693685D02*
X282622275Y-70407971D01*
X282622275Y-70407971D02*
X282550846Y-70265114D01*
X282550846Y-70265114D02*
X282407989Y-70122257D01*
X282407989Y-70122257D02*
X282193703Y-70050828D01*
X282193703Y-70050828D02*
X282050846Y-70050828D01*
X282050846Y-70050828D02*
X281836560Y-70122257D01*
X281836560Y-70122257D02*
X281765132Y-70193685D01*
X280622275Y-70765114D02*
X280407989Y-70836542D01*
X280407989Y-70836542D02*
X280336560Y-70907971D01*
X280336560Y-70907971D02*
X280265132Y-71050828D01*
X280265132Y-71050828D02*
X280265132Y-71265114D01*
X280265132Y-71265114D02*
X280336560Y-71407971D01*
X280336560Y-71407971D02*
X280407989Y-71479400D01*
X280407989Y-71479400D02*
X280550846Y-71550828D01*
X280550846Y-71550828D02*
X281122275Y-71550828D01*
X281122275Y-71550828D02*
X281122275Y-70050828D01*
X281122275Y-70050828D02*
X280622275Y-70050828D01*
X280622275Y-70050828D02*
X280479418Y-70122257D01*
X280479418Y-70122257D02*
X280407989Y-70193685D01*
X280407989Y-70193685D02*
X280336560Y-70336542D01*
X280336560Y-70336542D02*
X280336560Y-70479400D01*
X280336560Y-70479400D02*
X280407989Y-70622257D01*
X280407989Y-70622257D02*
X280479418Y-70693685D01*
X280479418Y-70693685D02*
X280622275Y-70765114D01*
X280622275Y-70765114D02*
X281122275Y-70765114D01*
X278479418Y-71550828D02*
X278479418Y-70550828D01*
X278479418Y-70836542D02*
X278407989Y-70693685D01*
X278407989Y-70693685D02*
X278336561Y-70622257D01*
X278336561Y-70622257D02*
X278193703Y-70550828D01*
X278193703Y-70550828D02*
X278050846Y-70550828D01*
X276979418Y-71479400D02*
X277122275Y-71550828D01*
X277122275Y-71550828D02*
X277407990Y-71550828D01*
X277407990Y-71550828D02*
X277550847Y-71479400D01*
X277550847Y-71479400D02*
X277622275Y-71336542D01*
X277622275Y-71336542D02*
X277622275Y-70765114D01*
X277622275Y-70765114D02*
X277550847Y-70622257D01*
X277550847Y-70622257D02*
X277407990Y-70550828D01*
X277407990Y-70550828D02*
X277122275Y-70550828D01*
X277122275Y-70550828D02*
X276979418Y-70622257D01*
X276979418Y-70622257D02*
X276907990Y-70765114D01*
X276907990Y-70765114D02*
X276907990Y-70907971D01*
X276907990Y-70907971D02*
X277622275Y-71050828D01*
X276407990Y-70550828D02*
X276050847Y-71550828D01*
X276050847Y-71550828D02*
X275693704Y-70550828D01*
X274336561Y-71550828D02*
X275193704Y-71550828D01*
X274765133Y-71550828D02*
X274765133Y-70050828D01*
X274765133Y-70050828D02*
X274907990Y-70265114D01*
X274907990Y-70265114D02*
X275050847Y-70407971D01*
X275050847Y-70407971D02*
X275193704Y-70479400D01*
D11*
%TO.C,RGB1_A23*%
X281550000Y-42180000D02*
X281550000Y-41280000D01*
X282450000Y-41280000D01*
X281550000Y-42180000D01*
G36*
X281550000Y-42180000D02*
G01*
X281550000Y-41280000D01*
X282450000Y-41280000D01*
X281550000Y-42180000D01*
G37*
%TO.C,RGB1_B24*%
X66112500Y-64129999D02*
X65212500Y-64129999D01*
X66112500Y-63229999D01*
X66112500Y-64129999D01*
G36*
X66112500Y-64129999D02*
G01*
X65212500Y-64129999D01*
X66112500Y-63229999D01*
X66112500Y-64129999D01*
G37*
%TO.C,RGB1_B31*%
X289950000Y-64129999D02*
X289050000Y-64129999D01*
X289950000Y-63229999D01*
X289950000Y-64129999D01*
G36*
X289950000Y-64129999D02*
G01*
X289050000Y-64129999D01*
X289950000Y-63229999D01*
X289950000Y-64129999D01*
G37*
%TO.C,RGB1_B29*%
X142312500Y-64129999D02*
X141412500Y-64129999D01*
X142312500Y-63229999D01*
X142312500Y-64129999D01*
G36*
X142312500Y-64129999D02*
G01*
X141412500Y-64129999D01*
X142312500Y-63229999D01*
X142312500Y-64129999D01*
G37*
%TO.C,RGB1_A15*%
X262500000Y-4080000D02*
X262500000Y-3180000D01*
X263400000Y-3180000D01*
X262500000Y-4080000D01*
G36*
X262500000Y-4080000D02*
G01*
X262500000Y-3180000D01*
X263400000Y-3180000D01*
X262500000Y-4080000D01*
G37*
%TO.C,RGB1_A14*%
X252975000Y-4080000D02*
X252975000Y-3180000D01*
X253875000Y-3180000D01*
X252975000Y-4080000D01*
G36*
X252975000Y-4080000D02*
G01*
X252975000Y-3180000D01*
X253875000Y-3180000D01*
X252975000Y-4080000D01*
G37*
%TO.C,RGB1_A31*%
X181537500Y-42180000D02*
X181537500Y-41280000D01*
X182437500Y-41280000D01*
X181537500Y-42180000D01*
G36*
X181537500Y-42180000D02*
G01*
X181537500Y-41280000D01*
X182437500Y-41280000D01*
X181537500Y-42180000D01*
G37*
%TO.C,RGB1_B17*%
X270900000Y-64129999D02*
X270000000Y-64129999D01*
X270900000Y-63229999D01*
X270900000Y-64129999D01*
G36*
X270900000Y-64129999D02*
G01*
X270000000Y-64129999D01*
X270900000Y-63229999D01*
X270900000Y-64129999D01*
G37*
%TO.C,RGB1_B22*%
X47062500Y-64129999D02*
X46162500Y-64129999D01*
X47062500Y-63229999D01*
X47062500Y-64129999D01*
G36*
X47062500Y-64129999D02*
G01*
X46162500Y-64129999D01*
X47062500Y-63229999D01*
X47062500Y-64129999D01*
G37*
%TO.C,RGB1_B2*%
X266137500Y-26029999D02*
X265237500Y-26029999D01*
X266137500Y-25129999D01*
X266137500Y-26029999D01*
G36*
X266137500Y-26029999D02*
G01*
X265237500Y-26029999D01*
X266137500Y-25129999D01*
X266137500Y-26029999D01*
G37*
%TO.C,RGB1_A19*%
X-628125Y-80280000D02*
X-628125Y-79380000D01*
X271875Y-79380000D01*
X-628125Y-80280000D01*
G36*
X-628125Y-80280000D02*
G01*
X-628125Y-79380000D01*
X271875Y-79380000D01*
X-628125Y-80280000D01*
G37*
%TO.C,RGB1_A22*%
X48187500Y-42180000D02*
X48187500Y-41280000D01*
X49087500Y-41280000D01*
X48187500Y-42180000D01*
G36*
X48187500Y-42180000D02*
G01*
X48187500Y-41280000D01*
X49087500Y-41280000D01*
X48187500Y-42180000D01*
G37*
%TO.C,RGB1_A10*%
X186300000Y-4080000D02*
X186300000Y-3180000D01*
X187200000Y-3180000D01*
X186300000Y-4080000D01*
G36*
X186300000Y-4080000D02*
G01*
X186300000Y-3180000D01*
X187200000Y-3180000D01*
X186300000Y-4080000D01*
G37*
%TO.C,RGB1_A7*%
X129150000Y-4080000D02*
X129150000Y-3180000D01*
X130050000Y-3180000D01*
X129150000Y-4080000D01*
G36*
X129150000Y-4080000D02*
G01*
X129150000Y-3180000D01*
X130050000Y-3180000D01*
X129150000Y-4080000D01*
G37*
%TO.C,RGB1_B16*%
X6581250Y-64129999D02*
X5681250Y-64129999D01*
X6581250Y-63229999D01*
X6581250Y-64129999D01*
G36*
X6581250Y-64129999D02*
G01*
X5681250Y-64129999D01*
X6581250Y-63229999D01*
X6581250Y-64129999D01*
G37*
%TO.C,RGB1_A18*%
X2943750Y-42180000D02*
X2943750Y-41280000D01*
X3843750Y-41280000D01*
X2943750Y-42180000D01*
G36*
X2943750Y-42180000D02*
G01*
X2943750Y-41280000D01*
X3843750Y-41280000D01*
X2943750Y-42180000D01*
G37*
%TO.C,RGB1_B26*%
X85162500Y-64129999D02*
X84262500Y-64129999D01*
X85162500Y-63229999D01*
X85162500Y-64129999D01*
G36*
X85162500Y-64129999D02*
G01*
X84262500Y-64129999D01*
X85162500Y-63229999D01*
X85162500Y-64129999D01*
G37*
%TO.C,RGB1_A13*%
X243450000Y-4080000D02*
X243450000Y-3180000D01*
X244350000Y-3180000D01*
X243450000Y-4080000D01*
G36*
X243450000Y-4080000D02*
G01*
X243450000Y-3180000D01*
X244350000Y-3180000D01*
X243450000Y-4080000D01*
G37*
%TO.C,RGB1_A25*%
X250593750Y-42180000D02*
X250593750Y-41280000D01*
X251493750Y-41280000D01*
X250593750Y-42180000D01*
G36*
X250593750Y-42180000D02*
G01*
X250593750Y-41280000D01*
X251493750Y-41280000D01*
X250593750Y-42180000D01*
G37*
%TO.C,RGB1_A6*%
X110100000Y-4080000D02*
X110100000Y-3180000D01*
X111000000Y-3180000D01*
X110100000Y-4080000D01*
G36*
X110100000Y-4080000D02*
G01*
X110100000Y-3180000D01*
X111000000Y-3180000D01*
X110100000Y-4080000D01*
G37*
%TO.C,RGB1_A21*%
X23184375Y-80280000D02*
X23184375Y-79380000D01*
X24084375Y-79380000D01*
X23184375Y-80280000D01*
G36*
X23184375Y-80280000D02*
G01*
X23184375Y-79380000D01*
X24084375Y-79380000D01*
X23184375Y-80280000D01*
G37*
%TO.C,RGB1_A9*%
X167250000Y-4080000D02*
X167250000Y-3180000D01*
X168150000Y-3180000D01*
X167250000Y-4080000D01*
G36*
X167250000Y-4080000D02*
G01*
X167250000Y-3180000D01*
X168150000Y-3180000D01*
X167250000Y-4080000D01*
G37*
%TO.C,RGB1_B18*%
X16106250Y-64129999D02*
X15206250Y-64129999D01*
X16106250Y-63229999D01*
X16106250Y-64129999D01*
G36*
X16106250Y-64129999D02*
G01*
X15206250Y-64129999D01*
X16106250Y-63229999D01*
X16106250Y-64129999D01*
G37*
%TO.C,RGB1_A33*%
X162487500Y-42180000D02*
X162487500Y-41280000D01*
X163387500Y-41280000D01*
X162487500Y-42180000D01*
G36*
X162487500Y-42180000D02*
G01*
X162487500Y-41280000D01*
X163387500Y-41280000D01*
X162487500Y-42180000D01*
G37*
%TO.C,RGB1_B1*%
X289950000Y-26029999D02*
X289050000Y-26029999D01*
X289950000Y-25129999D01*
X289950000Y-26029999D01*
G36*
X289950000Y-26029999D02*
G01*
X289050000Y-26029999D01*
X289950000Y-25129999D01*
X289950000Y-26029999D01*
G37*
%TO.C,RGB1_B11*%
X89925000Y-26029999D02*
X89025000Y-26029999D01*
X89925000Y-25129999D01*
X89925000Y-26029999D01*
G36*
X89925000Y-26029999D02*
G01*
X89025000Y-26029999D01*
X89925000Y-25129999D01*
X89925000Y-26029999D01*
G37*
%TO.C,RGB1_B27*%
X161362500Y-64129999D02*
X160462500Y-64129999D01*
X161362500Y-63229999D01*
X161362500Y-64129999D01*
G36*
X161362500Y-64129999D02*
G01*
X160462500Y-64129999D01*
X161362500Y-63229999D01*
X161362500Y-64129999D01*
G37*
%TO.C,RGB1_A5*%
X91050000Y-4080000D02*
X91050000Y-3180000D01*
X91950000Y-3180000D01*
X91050000Y-4080000D01*
G36*
X91050000Y-4080000D02*
G01*
X91050000Y-3180000D01*
X91950000Y-3180000D01*
X91050000Y-4080000D01*
G37*
%TO.C,RGB1_A16*%
X-4200000Y-4080000D02*
X-4200000Y-3180000D01*
X-3300000Y-3180000D01*
X-4200000Y-4080000D01*
G36*
X-4200000Y-4080000D02*
G01*
X-4200000Y-3180000D01*
X-3300000Y-3180000D01*
X-4200000Y-4080000D01*
G37*
%TO.C,RGB1_A32*%
X143437500Y-42180000D02*
X143437500Y-41280000D01*
X144337500Y-41280000D01*
X143437500Y-42180000D01*
G36*
X143437500Y-42180000D02*
G01*
X143437500Y-41280000D01*
X144337500Y-41280000D01*
X143437500Y-42180000D01*
G37*
%TO.C,RGB1_A17*%
X281550000Y-4080000D02*
X281550000Y-3180000D01*
X282450000Y-3180000D01*
X281550000Y-4080000D01*
G36*
X281550000Y-4080000D02*
G01*
X281550000Y-3180000D01*
X282450000Y-3180000D01*
X281550000Y-4080000D01*
G37*
%TO.C,RGB1_A38*%
X129150000Y-80280000D02*
X129150000Y-79380000D01*
X130050000Y-79380000D01*
X129150000Y-80280000D01*
G36*
X129150000Y-80280000D02*
G01*
X129150000Y-79380000D01*
X130050000Y-79380000D01*
X129150000Y-80280000D01*
G37*
%TO.C,RGB1_A24*%
X67237500Y-42180000D02*
X67237500Y-41280000D01*
X68137500Y-41280000D01*
X67237500Y-42180000D01*
G36*
X67237500Y-42180000D02*
G01*
X67237500Y-41280000D01*
X68137500Y-41280000D01*
X67237500Y-42180000D01*
G37*
%TO.C,RGB1_B12*%
X70875000Y-26029999D02*
X69975000Y-26029999D01*
X70875000Y-25129999D01*
X70875000Y-26029999D01*
G36*
X70875000Y-26029999D02*
G01*
X69975000Y-26029999D01*
X70875000Y-25129999D01*
X70875000Y-26029999D01*
G37*
%TO.C,RGB1_A34*%
X46996875Y-80280000D02*
X46996875Y-79380000D01*
X47896875Y-79380000D01*
X46996875Y-80280000D01*
G36*
X46996875Y-80280000D02*
G01*
X46996875Y-79380000D01*
X47896875Y-79380000D01*
X46996875Y-80280000D01*
G37*
%TO.C,RGB1_B14*%
X32775000Y-26029999D02*
X31875000Y-26029999D01*
X32775000Y-25129999D01*
X32775000Y-26029999D01*
G36*
X32775000Y-26029999D02*
G01*
X31875000Y-26029999D01*
X32775000Y-25129999D01*
X32775000Y-26029999D01*
G37*
%TO.C,RGB1_B19*%
X244706250Y-64129999D02*
X243806250Y-64129999D01*
X244706250Y-63229999D01*
X244706250Y-64129999D01*
G36*
X244706250Y-64129999D02*
G01*
X243806250Y-64129999D01*
X244706250Y-63229999D01*
X244706250Y-64129999D01*
G37*
%TO.C,RGB1_A12*%
X224400000Y-4080000D02*
X224400000Y-3180000D01*
X225300000Y-3180000D01*
X224400000Y-4080000D01*
G36*
X224400000Y-4080000D02*
G01*
X224400000Y-3180000D01*
X225300000Y-3180000D01*
X224400000Y-4080000D01*
G37*
%TO.C,RGB1_A20*%
X29137500Y-42180000D02*
X29137500Y-41280000D01*
X30037500Y-41280000D01*
X29137500Y-42180000D01*
G36*
X29137500Y-42180000D02*
G01*
X29137500Y-41280000D01*
X30037500Y-41280000D01*
X29137500Y-42180000D01*
G37*
%TO.C,RGB1_A27*%
X219637500Y-42180000D02*
X219637500Y-41280000D01*
X220537500Y-41280000D01*
X219637500Y-42180000D01*
G36*
X219637500Y-42180000D02*
G01*
X219637500Y-41280000D01*
X220537500Y-41280000D01*
X219637500Y-42180000D01*
G37*
%TO.C,RGB1_B21*%
X218512500Y-64129999D02*
X217612500Y-64129999D01*
X218512500Y-63229999D01*
X218512500Y-64129999D01*
G36*
X218512500Y-64129999D02*
G01*
X217612500Y-64129999D01*
X218512500Y-63229999D01*
X218512500Y-64129999D01*
G37*
%TO.C,RGB1_A4*%
X72000000Y-4080000D02*
X72000000Y-3180000D01*
X72900000Y-3180000D01*
X72000000Y-4080000D01*
G36*
X72000000Y-4080000D02*
G01*
X72000000Y-3180000D01*
X72900000Y-3180000D01*
X72000000Y-4080000D01*
G37*
%TO.C,RGB1_B3*%
X242325000Y-26029999D02*
X241425000Y-26029999D01*
X242325000Y-25129999D01*
X242325000Y-26029999D01*
G36*
X242325000Y-26029999D02*
G01*
X241425000Y-26029999D01*
X242325000Y-25129999D01*
X242325000Y-26029999D01*
G37*
%TO.C,RGB1_B8*%
X147075000Y-26029999D02*
X146175000Y-26029999D01*
X147075000Y-25129999D01*
X147075000Y-26029999D01*
G36*
X147075000Y-26029999D02*
G01*
X146175000Y-26029999D01*
X147075000Y-25129999D01*
X147075000Y-26029999D01*
G37*
%TO.C,RGB1_A11*%
X205350000Y-4080000D02*
X205350000Y-3180000D01*
X206250000Y-3180000D01*
X205350000Y-4080000D01*
G36*
X205350000Y-4080000D02*
G01*
X205350000Y-3180000D01*
X206250000Y-3180000D01*
X205350000Y-4080000D01*
G37*
%TO.C,RGB1_A40*%
X188681250Y-79280000D02*
X188681250Y-78380000D01*
X189581250Y-78380000D01*
X188681250Y-79280000D01*
G36*
X188681250Y-79280000D02*
G01*
X188681250Y-78380000D01*
X189581250Y-78380000D01*
X188681250Y-79280000D01*
G37*
%TO.C,RGB1_B23*%
X199462500Y-64129999D02*
X198562500Y-64129999D01*
X199462500Y-63229999D01*
X199462500Y-64129999D01*
G36*
X199462500Y-64129999D02*
G01*
X198562500Y-64129999D01*
X199462500Y-63229999D01*
X199462500Y-64129999D01*
G37*
%TO.C,RGB1_B4*%
X223275000Y-26029999D02*
X222375000Y-26029999D01*
X223275000Y-25129999D01*
X223275000Y-26029999D01*
G36*
X223275000Y-26029999D02*
G01*
X222375000Y-26029999D01*
X223275000Y-25129999D01*
X223275000Y-26029999D01*
G37*
%TO.C,RGB1_B25*%
X180412500Y-64129999D02*
X179512500Y-64129999D01*
X180412500Y-63229999D01*
X180412500Y-64129999D01*
G36*
X180412500Y-64129999D02*
G01*
X179512500Y-64129999D01*
X180412500Y-63229999D01*
X180412500Y-64129999D01*
G37*
%TO.C,RGB1_A43*%
X281550000Y-80280000D02*
X281550000Y-79380000D01*
X282450000Y-79380000D01*
X281550000Y-80280000D01*
G36*
X281550000Y-80280000D02*
G01*
X281550000Y-79380000D01*
X282450000Y-79380000D01*
X281550000Y-80280000D01*
G37*
%TO.C,RGB1_B6*%
X185175000Y-26029999D02*
X184275000Y-26029999D01*
X185175000Y-25129999D01*
X185175000Y-26029999D01*
G36*
X185175000Y-26029999D02*
G01*
X184275000Y-26029999D01*
X185175000Y-25129999D01*
X185175000Y-26029999D01*
G37*
%TO.C,RGB1_A29*%
X200587500Y-42180000D02*
X200587500Y-41280000D01*
X201487500Y-41280000D01*
X200587500Y-42180000D01*
G36*
X200587500Y-42180000D02*
G01*
X200587500Y-41280000D01*
X201487500Y-41280000D01*
X200587500Y-42180000D01*
G37*
%TO.C,RGB1_B30*%
X123262500Y-64129999D02*
X122362500Y-64129999D01*
X123262500Y-63229999D01*
X123262500Y-64129999D01*
G36*
X123262500Y-64129999D02*
G01*
X122362500Y-64129999D01*
X123262500Y-63229999D01*
X123262500Y-64129999D01*
G37*
%TO.C,RGB1_A3*%
X52950000Y-4080000D02*
X52950000Y-3180000D01*
X53850000Y-3180000D01*
X52950000Y-4080000D01*
G36*
X52950000Y-4080000D02*
G01*
X52950000Y-3180000D01*
X53850000Y-3180000D01*
X52950000Y-4080000D01*
G37*
%TO.C,RGB1_B5*%
X204225000Y-26029999D02*
X203325000Y-26029999D01*
X204225000Y-25129999D01*
X204225000Y-26029999D01*
G36*
X204225000Y-26029999D02*
G01*
X203325000Y-26029999D01*
X204225000Y-25129999D01*
X204225000Y-26029999D01*
G37*
%TO.C,RGB1_A28*%
X105337500Y-42180000D02*
X105337500Y-41280000D01*
X106237500Y-41280000D01*
X105337500Y-42180000D01*
G36*
X105337500Y-42180000D02*
G01*
X105337500Y-41280000D01*
X106237500Y-41280000D01*
X105337500Y-42180000D01*
G37*
%TO.C,RGB1_A1*%
X14850000Y-4080000D02*
X14850000Y-3180000D01*
X15750000Y-3180000D01*
X14850000Y-4080000D01*
G36*
X14850000Y-4080000D02*
G01*
X14850000Y-3180000D01*
X15750000Y-3180000D01*
X14850000Y-4080000D01*
G37*
%TO.C,RGB1_B28*%
X104212500Y-64129999D02*
X103312500Y-64129999D01*
X104212500Y-63229999D01*
X104212500Y-64129999D01*
G36*
X104212500Y-64129999D02*
G01*
X103312500Y-64129999D01*
X104212500Y-63229999D01*
X104212500Y-64129999D01*
G37*
%TO.C,RGB1_A2*%
X33900000Y-4080000D02*
X33900000Y-3180000D01*
X34800000Y-3180000D01*
X33900000Y-4080000D01*
G36*
X33900000Y-4080000D02*
G01*
X33900000Y-3180000D01*
X34800000Y-3180000D01*
X33900000Y-4080000D01*
G37*
%TO.C,RGB1_A8*%
X148200000Y-4080000D02*
X148200000Y-3180000D01*
X149100000Y-3180000D01*
X148200000Y-4080000D01*
G36*
X148200000Y-4080000D02*
G01*
X148200000Y-3180000D01*
X149100000Y-3180000D01*
X148200000Y-4080000D01*
G37*
%TO.C,RGB1_A44*%
X243450000Y-80280000D02*
X243450000Y-79380000D01*
X244350000Y-79380000D01*
X243450000Y-80280000D01*
G36*
X243450000Y-80280000D02*
G01*
X243450000Y-79380000D01*
X244350000Y-79380000D01*
X243450000Y-80280000D01*
G37*
%TO.C,RGB1_A42*%
X211303125Y-80280000D02*
X211303125Y-79380000D01*
X212203125Y-79380000D01*
X211303125Y-80280000D01*
G36*
X211303125Y-80280000D02*
G01*
X211303125Y-79380000D01*
X212203125Y-79380000D01*
X211303125Y-80280000D01*
G37*
%TO.C,RGB1_B10*%
X108975000Y-26029999D02*
X108075000Y-26029999D01*
X108975000Y-25129999D01*
X108975000Y-26029999D01*
G36*
X108975000Y-26029999D02*
G01*
X108075000Y-26029999D01*
X108975000Y-25129999D01*
X108975000Y-26029999D01*
G37*
%TO.C,RGB1_B13*%
X51825000Y-26029999D02*
X50925000Y-26029999D01*
X51825000Y-25129999D01*
X51825000Y-26029999D01*
G36*
X51825000Y-26029999D02*
G01*
X50925000Y-26029999D01*
X51825000Y-25129999D01*
X51825000Y-26029999D01*
G37*
%TO.C,RGB1_B9*%
X128025000Y-26029999D02*
X127125000Y-26029999D01*
X128025000Y-25129999D01*
X128025000Y-26029999D01*
G36*
X128025000Y-26029999D02*
G01*
X127125000Y-26029999D01*
X128025000Y-25129999D01*
X128025000Y-26029999D01*
G37*
%TO.C,RGB1_A30*%
X124387500Y-42180000D02*
X124387500Y-41280000D01*
X125287500Y-41280000D01*
X124387500Y-42180000D01*
G36*
X124387500Y-42180000D02*
G01*
X124387500Y-41280000D01*
X125287500Y-41280000D01*
X124387500Y-42180000D01*
G37*
%TO.C,RGB1_B7*%
X166125000Y-26029999D02*
X165225000Y-26029999D01*
X166125000Y-25129999D01*
X166125000Y-26029999D01*
G36*
X166125000Y-26029999D02*
G01*
X165225000Y-26029999D01*
X166125000Y-25129999D01*
X166125000Y-26029999D01*
G37*
%TO.C,RGB1_A45*%
X262500000Y-80280000D02*
X262500000Y-79380000D01*
X263400000Y-79380000D01*
X262500000Y-80280000D01*
G36*
X262500000Y-80280000D02*
G01*
X262500000Y-79380000D01*
X263400000Y-79380000D01*
X262500000Y-80280000D01*
G37*
%TO.C,RGB1_B15*%
X8962500Y-26029999D02*
X8062500Y-26029999D01*
X8962500Y-25129999D01*
X8962500Y-26029999D01*
G36*
X8962500Y-26029999D02*
G01*
X8062500Y-26029999D01*
X8962500Y-25129999D01*
X8962500Y-26029999D01*
G37*
%TO.C,RGB1_A36*%
X117243750Y-80280000D02*
X117243750Y-79380000D01*
X118143750Y-79380000D01*
X117243750Y-80280000D01*
G36*
X117243750Y-80280000D02*
G01*
X117243750Y-79380000D01*
X118143750Y-79380000D01*
X117243750Y-80280000D01*
G37*
%TO.C,RGB1_B20*%
X28012500Y-64129999D02*
X27112500Y-64129999D01*
X28012500Y-63229999D01*
X28012500Y-64129999D01*
G36*
X28012500Y-64129999D02*
G01*
X27112500Y-64129999D01*
X28012500Y-63229999D01*
X28012500Y-64129999D01*
G37*
%TO.C,RGB1_A26*%
X86287500Y-42180000D02*
X86287500Y-41280000D01*
X87187500Y-41280000D01*
X86287500Y-42180000D01*
G36*
X86287500Y-42180000D02*
G01*
X86287500Y-41280000D01*
X87187500Y-41280000D01*
X86287500Y-42180000D01*
G37*
D12*
%TO.C,C33*%
X35175000Y950000D02*
X35175000Y550000D01*
X36025000Y950000D02*
X36025000Y550000D01*
%TO.C,C73*%
X159237500Y-56200000D02*
X159237500Y-56600000D01*
X160087500Y-56200000D02*
X160087500Y-56600000D01*
%TO.C,C180*%
X213649999Y-5430000D02*
X213649999Y-4730000D01*
X214849999Y-4730000D02*
X214849999Y-5430000D01*
%TO.C,C160*%
X263775000Y-75250000D02*
X263775000Y-75650000D01*
X264625000Y-75250000D02*
X264625000Y-75650000D01*
%TO.C,SW1*%
X28730000Y-31030000D02*
X29030000Y-31030000D01*
X28730000Y-35170000D02*
X28730000Y-31030000D01*
X29030000Y-35170000D02*
X28730000Y-35170000D01*
X31570000Y-31030000D02*
X31870000Y-31030000D01*
X31870000Y-31030000D02*
X31870000Y-35170000D01*
X31870000Y-35170000D02*
X31570000Y-35170000D01*
%TO.C,C60*%
X149712500Y-37150000D02*
X149712500Y-37550000D01*
X150562500Y-37150000D02*
X150562500Y-37550000D01*
%TO.C,C13*%
X21920004Y-36713935D02*
X22202847Y-36431092D01*
X22521045Y-37314976D02*
X22803888Y-37032133D01*
D13*
%TO.C,U25*%
X41302500Y-57170001D02*
X41302500Y-55495000D01*
X41302500Y-57170001D02*
X41302500Y-57820000D01*
X44422500Y-57170001D02*
X44422500Y-56520000D01*
X44422500Y-57170001D02*
X44422500Y-57820000D01*
D12*
%TO.C,C22*%
X21125000Y950000D02*
X21125000Y550000D01*
X21975000Y950000D02*
X21975000Y550000D01*
D13*
%TO.C,U23*%
X46065000Y-19070001D02*
X46065000Y-17395000D01*
X46065000Y-19070001D02*
X46065000Y-19720000D01*
X49185000Y-19070001D02*
X49185000Y-18420000D01*
X49185000Y-19070001D02*
X49185000Y-19720000D01*
D14*
%TO.C,U56*%
X197587500Y-27635938D02*
X192937500Y-27635938D01*
X197587500Y-33085938D02*
X192937500Y-33085938D01*
D12*
X192602500Y-33440938D02*
X192122500Y-33440938D01*
X192362500Y-33110938D01*
X192602500Y-33440938D01*
G36*
X192602500Y-33440938D02*
G01*
X192122500Y-33440938D01*
X192362500Y-33110938D01*
X192602500Y-33440938D01*
G37*
%TO.C,C125*%
X125662500Y-37150000D02*
X125662500Y-37550000D01*
X126512500Y-37150000D02*
X126512500Y-37550000D01*
%TO.C,C23*%
X30650000Y-18100000D02*
X30650000Y-18500000D01*
X31500000Y-18100000D02*
X31500000Y-18500000D01*
%TO.C,U63*%
X59060000Y-7674344D02*
X55300000Y-7674344D01*
X59060000Y-8934344D02*
X59060000Y-7674344D01*
X59060000Y-13234344D02*
X59060000Y-14494344D01*
X59060000Y-14494344D02*
X55300000Y-14494344D01*
X54260000Y-14724344D02*
X53780000Y-14724344D01*
X54020000Y-14394344D01*
X54260000Y-14724344D01*
G36*
X54260000Y-14724344D02*
G01*
X53780000Y-14724344D01*
X54020000Y-14394344D01*
X54260000Y-14724344D01*
G37*
%TO.C,C203*%
X11243749Y-43530000D02*
X11243749Y-42830000D01*
X12443749Y-42830000D02*
X12443749Y-43530000D01*
%TO.C,TP3*%
X14300000Y-29334344D02*
G75*
G02*
X12900000Y-29334344I-700000J0D01*
G01*
X12900000Y-29334344D02*
G75*
G02*
X14300000Y-29334344I700000J0D01*
G01*
%TO.C,C18*%
X9218750Y-37150000D02*
X9218750Y-37550000D01*
X10068750Y-37150000D02*
X10068750Y-37550000D01*
%TO.C,C123*%
X163762500Y-37150000D02*
X163762500Y-37550000D01*
X164612500Y-37150000D02*
X164612500Y-37550000D01*
%TO.C,C17*%
X6837500Y-18100000D02*
X6837500Y-18500000D01*
X7687500Y-18100000D02*
X7687500Y-18500000D01*
D13*
%TO.C,U30*%
X69877500Y-38120001D02*
X69877500Y-36445000D01*
X69877500Y-38120001D02*
X69877500Y-38770000D01*
X72997500Y-38120001D02*
X72997500Y-37470000D01*
X72997500Y-38120001D02*
X72997500Y-38770000D01*
D12*
%TO.C,C105*%
X178050000Y-18100000D02*
X178050000Y-18500000D01*
X178900000Y-18100000D02*
X178900000Y-18500000D01*
%TO.C,C234*%
X31484374Y-81630000D02*
X31484374Y-80930000D01*
X32684374Y-80930000D02*
X32684374Y-81630000D01*
%TO.C,C99*%
X120900000Y-18100000D02*
X120900000Y-18500000D01*
X121750000Y-18100000D02*
X121750000Y-18500000D01*
%TO.C,R3*%
X10125000Y795344D02*
X10125000Y395344D01*
X10975000Y795344D02*
X10975000Y395344D01*
%TO.C,C193*%
X99475001Y-24479999D02*
X99475001Y-23779999D01*
X100675001Y-23779999D02*
X100675001Y-24479999D01*
%TO.C,C122*%
X49462500Y-37150000D02*
X49462500Y-37550000D01*
X50312500Y-37150000D02*
X50312500Y-37550000D01*
%TO.C,C71*%
X183050000Y-18100000D02*
X183050000Y-18500000D01*
X183900000Y-18100000D02*
X183900000Y-18500000D01*
%TO.C,C3*%
X284158750Y-51360938D02*
X284558750Y-51360938D01*
X284158750Y-52210938D02*
X284558750Y-52210938D01*
%TO.C,C231*%
X280450001Y-62579999D02*
X280450001Y-61879999D01*
X281650001Y-61879999D02*
X281650001Y-62579999D01*
%TO.C,Y1*%
X22927631Y-35175978D02*
X23493316Y-34610293D01*
X24341844Y-36590192D02*
X22927631Y-35175978D01*
X24624687Y-36873034D02*
X24341844Y-36590192D01*
X24766108Y-33337500D02*
X25473215Y-32630394D01*
X25190372Y-36307349D02*
X24624687Y-36873034D01*
X25473215Y-32630394D02*
X26887429Y-34044607D01*
X26746007Y-35317399D02*
X26463165Y-35034557D01*
X27028850Y-33903186D02*
X25614636Y-32488972D01*
X27170271Y-34327450D02*
X26463165Y-35034557D01*
X27170271Y-34327450D02*
X26887429Y-34044607D01*
X27311693Y-34186029D02*
X27028850Y-33903186D01*
D13*
%TO.C,U66*%
X184177500Y-38120001D02*
X184177500Y-36445000D01*
X184177500Y-38120001D02*
X184177500Y-38770000D01*
X187297500Y-38120001D02*
X187297500Y-37470000D01*
X187297500Y-38120001D02*
X187297500Y-38770000D01*
D12*
%TO.C,C44*%
X92325000Y950000D02*
X92325000Y550000D01*
X93175000Y950000D02*
X93175000Y550000D01*
%TO.C,C19*%
X4456250Y-56200000D02*
X4456250Y-56600000D01*
X5306250Y-56200000D02*
X5306250Y-56600000D01*
%TO.C,C5*%
X123662500Y-32210938D02*
X124062500Y-32210938D01*
X123662500Y-33060938D02*
X124062500Y-33060938D01*
D13*
%TO.C,U75*%
X821250Y-55495000D02*
X821250Y-57170000D01*
X821250Y-57820000D02*
X821250Y-57170000D01*
X3941250Y-56520000D02*
X3941250Y-57170000D01*
X3941250Y-57820000D02*
X3941250Y-57170000D01*
D12*
%TO.C,C24*%
X35412500Y-37150000D02*
X35412500Y-37550000D01*
X36262500Y-37150000D02*
X36262500Y-37550000D01*
D13*
%TO.C,U72*%
X203227500Y-38120001D02*
X203227500Y-36445000D01*
X203227500Y-38120001D02*
X203227500Y-38770000D01*
X206347500Y-38120001D02*
X206347500Y-37470000D01*
X206347500Y-38120001D02*
X206347500Y-38770000D01*
D12*
%TO.C,C117*%
X1837500Y-18100000D02*
X1837500Y-18500000D01*
X2687500Y-18100000D02*
X2687500Y-18500000D01*
%TO.C,C197*%
X175675001Y-24479999D02*
X175675001Y-23779999D01*
X176875001Y-23779999D02*
X176875001Y-24479999D01*
%TO.C,C30*%
X54462500Y-37150000D02*
X54462500Y-37550000D01*
X55312500Y-37150000D02*
X55312500Y-37550000D01*
D13*
%TO.C,U79*%
X212752500Y-57170001D02*
X212752500Y-55495000D01*
X212752500Y-57170001D02*
X212752500Y-57820000D01*
X215872500Y-57170001D02*
X215872500Y-56520000D01*
X215872500Y-57170001D02*
X215872500Y-57820000D01*
D12*
%TO.C,C128*%
X68512500Y-37150000D02*
X68512500Y-37550000D01*
X69362500Y-37150000D02*
X69362500Y-37550000D01*
%TO.C,C56*%
X254250000Y950000D02*
X254250000Y550000D01*
X255100000Y950000D02*
X255100000Y550000D01*
%TO.C,C216*%
X94712501Y-62579999D02*
X94712501Y-61879999D01*
X95912501Y-61879999D02*
X95912501Y-62579999D01*
D14*
%TO.C,U45*%
X121387500Y-27635938D02*
X116737500Y-27635938D01*
X121387500Y-33085938D02*
X116737500Y-33085938D01*
D12*
X116402500Y-33440938D02*
X115922500Y-33440938D01*
X116162500Y-33110938D01*
X116402500Y-33440938D01*
G36*
X116402500Y-33440938D02*
G01*
X115922500Y-33440938D01*
X116162500Y-33110938D01*
X116402500Y-33440938D01*
G37*
%TO.C,C35*%
X68750000Y-18100000D02*
X68750000Y-18500000D01*
X69600000Y-18100000D02*
X69600000Y-18500000D01*
%TO.C,C36*%
X73512500Y-37150000D02*
X73512500Y-37550000D01*
X74362500Y-37150000D02*
X74362500Y-37550000D01*
D13*
%TO.C,U55*%
X136552500Y-57170001D02*
X136552500Y-55495000D01*
X136552500Y-57170001D02*
X136552500Y-57820000D01*
X139672500Y-57170001D02*
X139672500Y-56520000D01*
X139672500Y-57170001D02*
X139672500Y-57820000D01*
D12*
%TO.C,C192*%
X80425001Y-24479999D02*
X80425001Y-23779999D01*
X81625001Y-23779999D02*
X81625001Y-24479999D01*
%TO.C,C58*%
X135425000Y950000D02*
X135425000Y550000D01*
X136275000Y950000D02*
X136275000Y550000D01*
%TO.C,C220*%
X132812501Y-62579999D02*
X132812501Y-61879999D01*
X134012501Y-61879999D02*
X134012501Y-62579999D01*
D13*
%TO.C,U82*%
X227040000Y-20001D02*
X227040000Y1655000D01*
X227040000Y-20001D02*
X227040000Y-670000D01*
X230160000Y-20001D02*
X230160000Y630000D01*
X230160000Y-20001D02*
X230160000Y-670000D01*
D12*
%TO.C,C227*%
X258893749Y-43530000D02*
X258893749Y-42830000D01*
X260093749Y-42830000D02*
X260093749Y-43530000D01*
%TO.C,C232*%
X261400001Y-62579999D02*
X261400001Y-61879999D01*
X262600001Y-61879999D02*
X262600001Y-62579999D01*
%TO.C,C173*%
X268775000Y-75250000D02*
X268775000Y-75650000D01*
X269625000Y-75250000D02*
X269625000Y-75650000D01*
D13*
%TO.C,U77*%
X217515000Y-19070001D02*
X217515000Y-17395000D01*
X217515000Y-19070001D02*
X217515000Y-19720000D01*
X220635000Y-19070001D02*
X220635000Y-18420000D01*
X220635000Y-19070001D02*
X220635000Y-19720000D01*
D12*
%TO.C,C75*%
X244725000Y950000D02*
X244725000Y550000D01*
X245575000Y950000D02*
X245575000Y550000D01*
%TO.C,C202*%
X280450001Y-24479999D02*
X280450001Y-23779999D01*
X281650001Y-23779999D02*
X281650001Y-24479999D01*
%TO.C,C171*%
X59437500Y-76625000D02*
X59837500Y-76625000D01*
X59437500Y-77475000D02*
X59837500Y-77475000D01*
%TO.C,C129*%
X87562500Y-37150000D02*
X87562500Y-37550000D01*
X88412500Y-37150000D02*
X88412500Y-37550000D01*
%TO.C,C181*%
X232699999Y-5430000D02*
X232699999Y-4730000D01*
X233899999Y-4730000D02*
X233899999Y-5430000D01*
%TO.C,C176*%
X223743750Y-76625000D02*
X224143750Y-76625000D01*
X223743750Y-77475000D02*
X224143750Y-77475000D01*
%TO.C,C127*%
X30412500Y-37150000D02*
X30412500Y-37550000D01*
X31262500Y-37150000D02*
X31262500Y-37550000D01*
D13*
%TO.C,U58*%
X150840000Y-20001D02*
X150840000Y1655000D01*
X150840000Y-20001D02*
X150840000Y-670000D01*
X153960000Y-20001D02*
X153960000Y630000D01*
X153960000Y-20001D02*
X153960000Y-670000D01*
%TO.C,U31*%
X60352500Y-57170001D02*
X60352500Y-55495000D01*
X60352500Y-57170001D02*
X60352500Y-57820000D01*
X63472500Y-57170001D02*
X63472500Y-56520000D01*
X63472500Y-57170001D02*
X63472500Y-57820000D01*
D12*
%TO.C,C223*%
X208887499Y-43530000D02*
X208887499Y-42830000D01*
X210087499Y-42830000D02*
X210087499Y-43530000D01*
D13*
%TO.C,U89*%
X260377500Y-17395000D02*
X260377500Y-19070000D01*
X260377500Y-19720000D02*
X260377500Y-19070000D01*
X263497500Y-18420000D02*
X263497500Y-19070000D01*
X263497500Y-19720000D02*
X263497500Y-19070000D01*
D12*
%TO.C,C104*%
X4099999Y-5430000D02*
X4099999Y-4730000D01*
X5299999Y-4730000D02*
X5299999Y-5430000D01*
D13*
%TO.C,U92*%
X246090000Y-76220001D02*
X246090000Y-74545000D01*
X246090000Y-76220001D02*
X246090000Y-76870000D01*
X249210000Y-76220001D02*
X249210000Y-75570000D01*
X249210000Y-76220001D02*
X249210000Y-76870000D01*
%TO.C,U37*%
X79402500Y-57170001D02*
X79402500Y-55495000D01*
X79402500Y-57170001D02*
X79402500Y-57820000D01*
X82522500Y-57170001D02*
X82522500Y-56520000D01*
X82522500Y-57170001D02*
X82522500Y-57820000D01*
%TO.C,U18*%
X31777500Y-38120001D02*
X31777500Y-36445000D01*
X31777500Y-38120001D02*
X31777500Y-38770000D01*
X34897500Y-38120001D02*
X34897500Y-37470000D01*
X34897500Y-38120001D02*
X34897500Y-38770000D01*
D12*
%TO.C,C66*%
X168762500Y-37150000D02*
X168762500Y-37550000D01*
X169612500Y-37150000D02*
X169612500Y-37550000D01*
%TO.C,C141*%
X58987500Y-56200000D02*
X58987500Y-56600000D01*
X59837500Y-56200000D02*
X59837500Y-56600000D01*
%TO.C,C221*%
X189837499Y-43530000D02*
X189837499Y-42830000D01*
X191037499Y-42830000D02*
X191037499Y-43530000D01*
D13*
%TO.C,U65*%
X179415000Y-19070001D02*
X179415000Y-17395000D01*
X179415000Y-19070001D02*
X179415000Y-19720000D01*
X182535000Y-19070001D02*
X182535000Y-18420000D01*
X182535000Y-19070001D02*
X182535000Y-19720000D01*
D12*
%TO.C,C72*%
X187812500Y-37150000D02*
X187812500Y-37550000D01*
X188662500Y-37150000D02*
X188662500Y-37550000D01*
%TO.C,C41*%
X87800000Y-18100000D02*
X87800000Y-18500000D01*
X88650000Y-18100000D02*
X88650000Y-18500000D01*
%TO.C,C95*%
X264012500Y-18100000D02*
X264012500Y-18500000D01*
X264862500Y-18100000D02*
X264862500Y-18500000D01*
D13*
%TO.C,U10*%
X-1560000Y-20001D02*
X-1560000Y1655000D01*
X-1560000Y-20001D02*
X-1560000Y-670000D01*
X1560000Y-20001D02*
X1560000Y630000D01*
X1560000Y-20001D02*
X1560000Y-670000D01*
D12*
%TO.C,C228*%
X209012501Y-62579999D02*
X209012501Y-61879999D01*
X210212501Y-61879999D02*
X210212501Y-62579999D01*
%TO.C,C34*%
X59225000Y950000D02*
X59225000Y550000D01*
X60075000Y950000D02*
X60075000Y550000D01*
%TO.C,C155*%
X85562500Y-32210938D02*
X85962500Y-32210938D01*
X85562500Y-33060938D02*
X85962500Y-33060938D01*
%TO.C,C224*%
X170912501Y-62579999D02*
X170912501Y-61879999D01*
X172112501Y-61879999D02*
X172112501Y-62579999D01*
%TO.C,C151*%
X233200000Y-32210938D02*
X233600000Y-32210938D01*
X233200000Y-33060938D02*
X233600000Y-33060938D01*
%TO.C,C235*%
X55296874Y-81630000D02*
X55296874Y-80930000D01*
X56496874Y-80930000D02*
X56496874Y-81630000D01*
D13*
%TO.C,U26*%
X49336250Y-74640000D02*
X49986250Y-74640000D01*
X49336250Y-77760000D02*
X49986250Y-77760000D01*
X50636250Y-77760000D02*
X49986250Y-77760000D01*
X51661250Y-74640000D02*
X49986250Y-74640000D01*
%TO.C,U12*%
X5583750Y-36445000D02*
X5583750Y-38120000D01*
X5583750Y-38770000D02*
X5583750Y-38120000D01*
X8703750Y-37470000D02*
X8703750Y-38120000D01*
X8703750Y-38770000D02*
X8703750Y-38120000D01*
D12*
%TO.C,C236*%
X125543749Y-81630000D02*
X125543749Y-80930000D01*
X126743749Y-80930000D02*
X126743749Y-81630000D01*
%TO.C,C28*%
X40175000Y950000D02*
X40175000Y550000D01*
X41025000Y950000D02*
X41025000Y550000D01*
D13*
%TO.C,U83*%
X236565000Y-19070001D02*
X236565000Y-17395000D01*
X236565000Y-19070001D02*
X236565000Y-19720000D01*
X239685000Y-19070001D02*
X239685000Y-18420000D01*
X239685000Y-19070001D02*
X239685000Y-19720000D01*
D12*
%TO.C,C140*%
X135187500Y-56200000D02*
X135187500Y-56600000D01*
X136037500Y-56200000D02*
X136037500Y-56600000D01*
D13*
%TO.C,U101*%
X284190000Y-19070001D02*
X284190000Y-17395000D01*
X284190000Y-19070001D02*
X284190000Y-19720000D01*
X287310000Y-19070001D02*
X287310000Y-18420000D01*
X287310000Y-19070001D02*
X287310000Y-19720000D01*
%TO.C,U33*%
X10346250Y-55495000D02*
X10346250Y-57170000D01*
X10346250Y-57820000D02*
X10346250Y-57170000D01*
X13466250Y-56520000D02*
X13466250Y-57170000D01*
X13466250Y-57820000D02*
X13466250Y-57170000D01*
D15*
X1000000Y-67405000D02*
G75*
G02*
X-998949Y-67405525I-1000000J2000000D01*
G01*
X24812500Y-67405000D02*
G75*
G02*
X22813551Y-67405525I-1000000J1999998D01*
G01*
X1750000Y-50165000D02*
G75*
G02*
X-1750000Y-50165000I-1750000J0D01*
G01*
X-1750000Y-50165000D02*
G75*
G02*
X1750000Y-50165000I1750000J0D01*
G01*
X25562500Y-50165000D02*
G75*
G02*
X22062500Y-50165000I-1750000J0D01*
G01*
X22062500Y-50165000D02*
G75*
G02*
X25562500Y-50165000I1750000J0D01*
G01*
D12*
%TO.C,C233*%
X7671874Y-81630000D02*
X7671874Y-80930000D01*
X8871874Y-80930000D02*
X8871874Y-81630000D01*
%TO.C,C96*%
X101850000Y-18100000D02*
X101850000Y-18500000D01*
X102700000Y-18100000D02*
X102700000Y-18500000D01*
%TO.C,U27*%
X17256634Y-33337500D02*
X17504122Y-33584987D01*
X17504122Y-33090013D02*
X17256634Y-33337500D01*
X19993138Y-30600997D02*
X20240625Y-30353509D01*
X20240625Y-30353509D02*
X20488112Y-30600997D01*
X20240625Y-36321491D02*
X19993138Y-36074003D01*
X20488112Y-36074003D02*
X20240625Y-36321491D01*
X23054910Y-33507206D02*
X22977128Y-33584987D01*
X23627666Y-33273860D02*
X23224616Y-33337500D01*
X23288255Y-32934449D01*
X23627666Y-33273860D01*
G36*
X23627666Y-33273860D02*
G01*
X23224616Y-33337500D01*
X23288255Y-32934449D01*
X23627666Y-33273860D01*
G37*
%TO.C,C43*%
X63987500Y-56200000D02*
X63987500Y-56600000D01*
X64837500Y-56200000D02*
X64837500Y-56600000D01*
%TO.C,C103*%
X80299999Y-5430000D02*
X80299999Y-4730000D01*
X81499999Y-4730000D02*
X81499999Y-5430000D01*
%TO.C,C183*%
X261274999Y-5430000D02*
X261274999Y-4730000D01*
X262474999Y-4730000D02*
X262474999Y-5430000D01*
%TO.C,C2*%
X9362500Y-32210938D02*
X9762500Y-32210938D01*
X9362500Y-33060938D02*
X9762500Y-33060938D01*
%TO.C,C184*%
X287825000Y-18100000D02*
X287825000Y-18500000D01*
X288675000Y-18100000D02*
X288675000Y-18500000D01*
%TO.C,C93*%
X25650000Y-18100000D02*
X25650000Y-18500000D01*
X26500000Y-18100000D02*
X26500000Y-18500000D01*
%TO.C,C130*%
X4218750Y-37150000D02*
X4218750Y-37550000D01*
X5068750Y-37150000D02*
X5068750Y-37550000D01*
%TO.C,C14*%
X1962500Y-13071875D02*
X1562500Y-13071875D01*
X1962500Y-13921875D02*
X1562500Y-13921875D01*
%TO.C,R4*%
X-2662500Y-8370000D02*
X-2662500Y-7970000D01*
X-1812500Y-8370000D02*
X-1812500Y-7970000D01*
%TO.C,C89*%
X240200000Y-18100000D02*
X240200000Y-18500000D01*
X241050000Y-18100000D02*
X241050000Y-18500000D01*
D13*
%TO.C,U104*%
X284190000Y-76220001D02*
X284190000Y-74545000D01*
X284190000Y-76220001D02*
X284190000Y-76870000D01*
X287310000Y-76220001D02*
X287310000Y-75570000D01*
X287310000Y-76220001D02*
X287310000Y-76870000D01*
D12*
%TO.C,C177*%
X135425000Y-75250000D02*
X135425000Y-75650000D01*
X136275000Y-75250000D02*
X136275000Y-75650000D01*
%TO.C,C63*%
X149475000Y950000D02*
X149475000Y550000D01*
X150325000Y950000D02*
X150325000Y550000D01*
%TO.C,C194*%
X118525001Y-24479999D02*
X118525001Y-23779999D01*
X119725001Y-23779999D02*
X119725001Y-24479999D01*
%TO.C,C88*%
X230675000Y950000D02*
X230675000Y550000D01*
X231525000Y950000D02*
X231525000Y550000D01*
%TO.C,C240*%
X251749999Y-81630000D02*
X251749999Y-80930000D01*
X252949999Y-80930000D02*
X252949999Y-81630000D01*
D14*
%TO.C,U51*%
X159487500Y-27635938D02*
X154837500Y-27635938D01*
X159487500Y-33085938D02*
X154837500Y-33085938D01*
D12*
X154502500Y-33440938D02*
X154022500Y-33440938D01*
X154262500Y-33110938D01*
X154502500Y-33440938D01*
G36*
X154502500Y-33440938D02*
G01*
X154022500Y-33440938D01*
X154262500Y-33110938D01*
X154502500Y-33440938D01*
G37*
D13*
%TO.C,U17*%
X27015000Y-19070001D02*
X27015000Y-17395000D01*
X27015000Y-19070001D02*
X27015000Y-19720000D01*
X30135000Y-19070001D02*
X30135000Y-18420000D01*
X30135000Y-19070001D02*
X30135000Y-19720000D01*
D12*
%TO.C,C4*%
X233200000Y-51360938D02*
X233600000Y-51360938D01*
X233200000Y-52210938D02*
X233600000Y-52210938D01*
%TO.C,C195*%
X137575001Y-24479999D02*
X137575001Y-23779999D01*
X138775001Y-23779999D02*
X138775001Y-24479999D01*
%TO.C,C37*%
X44937500Y-56200000D02*
X44937500Y-56600000D01*
X45787500Y-56200000D02*
X45787500Y-56600000D01*
%TO.C,TP4*%
X20940625Y-28537500D02*
G75*
G02*
X19540625Y-28537500I-700000J0D01*
G01*
X19540625Y-28537500D02*
G75*
G02*
X20940625Y-28537500I700000J0D01*
G01*
%TO.C,C179*%
X194599999Y-5430000D02*
X194599999Y-4730000D01*
X195799999Y-4730000D02*
X195799999Y-5430000D01*
D13*
%TO.C,U102*%
X284190000Y-38120001D02*
X284190000Y-36445000D01*
X284190000Y-38120001D02*
X284190000Y-38770000D01*
X287310000Y-38120001D02*
X287310000Y-37470000D01*
X287310000Y-38120001D02*
X287310000Y-38770000D01*
D12*
%TO.C,C206*%
X6606251Y-62579999D02*
X6606251Y-61879999D01*
X7806251Y-61879999D02*
X7806251Y-62579999D01*
%TO.C,C137*%
X192337500Y-56200000D02*
X192337500Y-56600000D01*
X193187500Y-56200000D02*
X193187500Y-56600000D01*
%TO.C,C168*%
X13981250Y-56200000D02*
X13981250Y-56600000D01*
X14831250Y-56200000D02*
X14831250Y-56600000D01*
D13*
%TO.C,U3*%
X255615000Y1655000D02*
X255615000Y-20000D01*
X255615000Y-670000D02*
X255615000Y-20000D01*
X258735000Y630000D02*
X258735000Y-20000D01*
X258735000Y-670000D02*
X258735000Y-20000D01*
D15*
X246268750Y-10255000D02*
G75*
G02*
X244269801Y-10255525I-1000000J2000000D01*
G01*
X270081250Y-10255000D02*
G75*
G02*
X268082301Y-10255525I-1000000J1999998D01*
G01*
X247018750Y6985000D02*
G75*
G02*
X243518750Y6985000I-1750000J0D01*
G01*
X243518750Y6985000D02*
G75*
G02*
X247018750Y6985000I1750000J0D01*
G01*
X270831250Y6985000D02*
G75*
G02*
X267331250Y6985000I-1750000J0D01*
G01*
X267331250Y6985000D02*
G75*
G02*
X270831250Y6985000I1750000J0D01*
G01*
D12*
%TO.C,C113*%
X251868750Y-37150000D02*
X251868750Y-37550000D01*
X252718750Y-37150000D02*
X252718750Y-37550000D01*
%TO.C,C10*%
X17818785Y-30951015D02*
X17535942Y-30668172D01*
X18419826Y-30349974D02*
X18136983Y-30067131D01*
D14*
%TO.C,U62*%
X230925000Y-27635938D02*
X226275000Y-27635938D01*
X230925000Y-33085938D02*
X226275000Y-33085938D01*
D12*
X225940000Y-33440938D02*
X225460000Y-33440938D01*
X225700000Y-33110938D01*
X225940000Y-33440938D01*
G36*
X225940000Y-33440938D02*
G01*
X225460000Y-33440938D01*
X225700000Y-33110938D01*
X225940000Y-33440938D01*
G37*
%TO.C,C52*%
X116375000Y950000D02*
X116375000Y550000D01*
X117225000Y950000D02*
X117225000Y550000D01*
%TO.C,C51*%
X-2925000Y950000D02*
X-2925000Y550000D01*
X-2075000Y950000D02*
X-2075000Y550000D01*
%TO.C,C85*%
X197337500Y-56200000D02*
X197337500Y-56600000D01*
X198187500Y-56200000D02*
X198187500Y-56600000D01*
%TO.C,C31*%
X25887500Y-56200000D02*
X25887500Y-56600000D01*
X26737500Y-56200000D02*
X26737500Y-56600000D01*
%TO.C,C124*%
X144712500Y-37150000D02*
X144712500Y-37550000D01*
X145562500Y-37150000D02*
X145562500Y-37550000D01*
%TO.C,C118*%
X282825000Y-37150000D02*
X282825000Y-37550000D01*
X283675000Y-37150000D02*
X283675000Y-37550000D01*
D13*
%TO.C,U34*%
X74640000Y-20001D02*
X74640000Y1655000D01*
X74640000Y-20001D02*
X74640000Y-670000D01*
X77760000Y-20001D02*
X77760000Y630000D01*
X77760000Y-20001D02*
X77760000Y-670000D01*
%TO.C,U35*%
X84165000Y-19070001D02*
X84165000Y-17395000D01*
X84165000Y-19070001D02*
X84165000Y-19720000D01*
X87285000Y-19070001D02*
X87285000Y-18420000D01*
X87285000Y-19070001D02*
X87285000Y-19720000D01*
D12*
%TO.C,C53*%
X125900000Y-18100000D02*
X125900000Y-18500000D01*
X126750000Y-18100000D02*
X126750000Y-18500000D01*
%TO.C,C199*%
X213775001Y-24479999D02*
X213775001Y-23779999D01*
X214975001Y-23779999D02*
X214975001Y-24479999D01*
%TO.C,C80*%
X225675000Y950000D02*
X225675000Y550000D01*
X226525000Y950000D02*
X226525000Y550000D01*
%TO.C,C107*%
X242581250Y-56200000D02*
X242581250Y-56600000D01*
X243431250Y-56200000D02*
X243431250Y-56600000D01*
%TO.C,C110*%
X99349999Y-5430000D02*
X99349999Y-4730000D01*
X100549999Y-4730000D02*
X100549999Y-5430000D01*
%TO.C,C139*%
X154237500Y-56200000D02*
X154237500Y-56600000D01*
X155087500Y-56200000D02*
X155087500Y-56600000D01*
%TO.C,C6*%
X47462500Y-32210938D02*
X47862500Y-32210938D01*
X47462500Y-33060938D02*
X47862500Y-33060938D01*
%TO.C,C150*%
X118399999Y-5430000D02*
X118399999Y-4730000D01*
X119599999Y-4730000D02*
X119599999Y-5430000D01*
%TO.C,C7*%
X6937500Y-10296875D02*
X6937500Y-9896875D01*
X7787500Y-10296875D02*
X7787500Y-9896875D01*
%TO.C,C143*%
X97087500Y-56200000D02*
X97087500Y-56600000D01*
X97937500Y-56200000D02*
X97937500Y-56600000D01*
%TO.C,C111*%
X197100000Y-18100000D02*
X197100000Y-18500000D01*
X197950000Y-18100000D02*
X197950000Y-18500000D01*
D13*
%TO.C,U6*%
X51717500Y-74640000D02*
X52367500Y-74640000D01*
X51717500Y-77760000D02*
X52367500Y-77760000D01*
X53017500Y-77760000D02*
X52367500Y-77760000D01*
X54042500Y-74640000D02*
X52367500Y-74640000D01*
D12*
%TO.C,C76*%
X192575000Y950000D02*
X192575000Y550000D01*
X193425000Y950000D02*
X193425000Y550000D01*
%TO.C,U85*%
X3152500Y-12461875D02*
X3152500Y-11776875D01*
X3152500Y-14706875D02*
X3152500Y-13731875D01*
X3382500Y-14706875D02*
X3152500Y-14706875D01*
X6372500Y-11486875D02*
X6142500Y-11486875D01*
X6372500Y-12461875D02*
X6372500Y-11486875D01*
X6372500Y-14706875D02*
X6142500Y-14706875D01*
X6372500Y-14706875D02*
X6372500Y-13731875D01*
X3152500Y-11456875D02*
X2872500Y-11456875D01*
X3152500Y-11176875D01*
X3152500Y-11456875D01*
G36*
X3152500Y-11456875D02*
G01*
X2872500Y-11456875D01*
X3152500Y-11176875D01*
X3152500Y-11456875D01*
G37*
%TO.C,C169*%
X11812500Y-76625000D02*
X12212500Y-76625000D01*
X11812500Y-77475000D02*
X12212500Y-77475000D01*
%TO.C,C45*%
X111375000Y950000D02*
X111375000Y550000D01*
X112225000Y950000D02*
X112225000Y550000D01*
%TO.C,C67*%
X140187500Y-56200000D02*
X140187500Y-56600000D01*
X141037500Y-56200000D02*
X141037500Y-56600000D01*
%TO.C,C109*%
X287825000Y-56200000D02*
X287825000Y-56600000D01*
X288675000Y-56200000D02*
X288675000Y-56600000D01*
%TO.C,C133*%
X39937500Y-56200000D02*
X39937500Y-56600000D01*
X40787500Y-56200000D02*
X40787500Y-56600000D01*
%TO.C,C239*%
X219603124Y-81630000D02*
X219603124Y-80930000D01*
X220803124Y-80930000D02*
X220803124Y-81630000D01*
D14*
%TO.C,U74*%
X281883750Y-46785938D02*
X277233750Y-46785938D01*
X281883750Y-52235938D02*
X277233750Y-52235938D01*
D12*
X276898750Y-52590938D02*
X276418750Y-52590938D01*
X276658750Y-52260938D01*
X276898750Y-52590938D01*
G36*
X276898750Y-52590938D02*
G01*
X276418750Y-52590938D01*
X276658750Y-52260938D01*
X276898750Y-52590938D01*
G37*
%TO.C,C29*%
X49700000Y-18100000D02*
X49700000Y-18500000D01*
X50550000Y-18100000D02*
X50550000Y-18500000D01*
%TO.C,C196*%
X156625001Y-24479999D02*
X156625001Y-23779999D01*
X157825001Y-23779999D02*
X157825001Y-24479999D01*
%TO.C,C215*%
X132687499Y-43530000D02*
X132687499Y-42830000D01*
X133887499Y-42830000D02*
X133887499Y-43530000D01*
D13*
%TO.C,U36*%
X88927500Y-38120001D02*
X88927500Y-36445000D01*
X88927500Y-38120001D02*
X88927500Y-38770000D01*
X92047500Y-38120001D02*
X92047500Y-37470000D01*
X92047500Y-38120001D02*
X92047500Y-38770000D01*
D12*
%TO.C,C222*%
X151862501Y-62579999D02*
X151862501Y-61879999D01*
X153062501Y-61879999D02*
X153062501Y-62579999D01*
D13*
%TO.C,U70*%
X188940000Y-20001D02*
X188940000Y1655000D01*
X188940000Y-20001D02*
X188940000Y-670000D01*
X192060000Y-20001D02*
X192060000Y630000D01*
X192060000Y-20001D02*
X192060000Y-670000D01*
%TO.C,U8*%
X213642500Y-74640000D02*
X214292500Y-74640000D01*
X213642500Y-77760000D02*
X214292500Y-77760000D01*
X214942500Y-77760000D02*
X214292500Y-77760000D01*
X215967500Y-74640000D02*
X214292500Y-74640000D01*
D12*
%TO.C,C86*%
X282825000Y950000D02*
X282825000Y550000D01*
X283675000Y950000D02*
X283675000Y550000D01*
D13*
%TO.C,U43*%
X98452500Y-57170001D02*
X98452500Y-55495000D01*
X98452500Y-57170001D02*
X98452500Y-57820000D01*
X101572500Y-57170001D02*
X101572500Y-56520000D01*
X101572500Y-57170001D02*
X101572500Y-57820000D01*
%TO.C,U15*%
X191321250Y-74545000D02*
X191321250Y-76220000D01*
X191321250Y-76870000D02*
X191321250Y-76220000D01*
X194441250Y-75570000D02*
X194441250Y-76220000D01*
X194441250Y-76870000D02*
X194441250Y-76220000D01*
D12*
%TO.C,R2*%
X7374999Y795344D02*
X7374999Y395344D01*
X8224999Y795344D02*
X8224999Y395344D01*
%TO.C,C79*%
X178287500Y-56200000D02*
X178287500Y-56600000D01*
X179137500Y-56200000D02*
X179137500Y-56600000D01*
%TO.C,C62*%
X42199999Y-5430000D02*
X42199999Y-4730000D01*
X43399999Y-4730000D02*
X43399999Y-5430000D01*
D13*
%TO.C,U103*%
X284190000Y-57170001D02*
X284190000Y-55495000D01*
X284190000Y-57170001D02*
X284190000Y-57820000D01*
X287310000Y-57170001D02*
X287310000Y-56520000D01*
X287310000Y-57170001D02*
X287310000Y-57820000D01*
%TO.C,U52*%
X131790000Y-20001D02*
X131790000Y1655000D01*
X131790000Y-20001D02*
X131790000Y-670000D01*
X134910000Y-20001D02*
X134910000Y630000D01*
X134910000Y-20001D02*
X134910000Y-670000D01*
%TO.C,U97*%
X265140000Y-57170001D02*
X265140000Y-55495000D01*
X265140000Y-57170001D02*
X265140000Y-57820000D01*
X268260000Y-57170001D02*
X268260000Y-56520000D01*
X268260000Y-57170001D02*
X268260000Y-57820000D01*
%TO.C,U22*%
X36540000Y-20001D02*
X36540000Y1655000D01*
X36540000Y-20001D02*
X36540000Y-670000D01*
X39660000Y-20001D02*
X39660000Y630000D01*
X39660000Y-20001D02*
X39660000Y-670000D01*
D12*
%TO.C,C50*%
X23149999Y-5430000D02*
X23149999Y-4730000D01*
X24349999Y-4730000D02*
X24349999Y-5430000D01*
%TO.C,C97*%
X216387500Y-56200000D02*
X216387500Y-56600000D01*
X217237500Y-56200000D02*
X217237500Y-56600000D01*
%TO.C,C229*%
X289849999Y-43530000D02*
X289849999Y-42830000D01*
X291049999Y-42830000D02*
X291049999Y-43530000D01*
D13*
%TO.C,U5*%
X27905000Y-74640000D02*
X28555000Y-74640000D01*
X27905000Y-77760000D02*
X28555000Y-77760000D01*
X29205000Y-77760000D02*
X28555000Y-77760000D01*
X30230000Y-74640000D02*
X28555000Y-74640000D01*
%TO.C,U67*%
X174652500Y-57170001D02*
X174652500Y-55495000D01*
X174652500Y-57170001D02*
X174652500Y-57820000D01*
X177772500Y-57170001D02*
X177772500Y-56520000D01*
X177772500Y-57170001D02*
X177772500Y-57820000D01*
D12*
%TO.C,C126*%
X106612500Y-37150000D02*
X106612500Y-37550000D01*
X107462500Y-37150000D02*
X107462500Y-37550000D01*
%TO.C,C237*%
X137449999Y-81630000D02*
X137449999Y-80930000D01*
X138649999Y-80930000D02*
X138649999Y-81630000D01*
%TO.C,C166*%
X156499999Y-5430000D02*
X156499999Y-4730000D01*
X157699999Y-4730000D02*
X157699999Y-5430000D01*
D13*
%TO.C,U54*%
X146077500Y-38120001D02*
X146077500Y-36445000D01*
X146077500Y-38120001D02*
X146077500Y-38770000D01*
X149197500Y-38120001D02*
X149197500Y-37470000D01*
X149197500Y-38120001D02*
X149197500Y-38770000D01*
%TO.C,U53*%
X141315000Y-19070001D02*
X141315000Y-17395000D01*
X141315000Y-19070001D02*
X141315000Y-19720000D01*
X144435000Y-19070001D02*
X144435000Y-18420000D01*
X144435000Y-19070001D02*
X144435000Y-19720000D01*
D12*
%TO.C,C64*%
X154475000Y950000D02*
X154475000Y550000D01*
X155325000Y950000D02*
X155325000Y550000D01*
D13*
%TO.C,U29*%
X65115000Y-19070001D02*
X65115000Y-17395000D01*
X65115000Y-19070001D02*
X65115000Y-19720000D01*
X68235000Y-19070001D02*
X68235000Y-18420000D01*
X68235000Y-19070001D02*
X68235000Y-19720000D01*
D12*
%TO.C,C49*%
X83037500Y-56200000D02*
X83037500Y-56600000D01*
X83887500Y-56200000D02*
X83887500Y-56600000D01*
%TO.C,C82*%
X211625000Y950000D02*
X211625000Y550000D01*
X212475000Y950000D02*
X212475000Y550000D01*
%TO.C,C138*%
X173287500Y-56200000D02*
X173287500Y-56600000D01*
X174137500Y-56200000D02*
X174137500Y-56600000D01*
%TO.C,C218*%
X113762501Y-62579999D02*
X113762501Y-61879999D01*
X114962501Y-61879999D02*
X114962501Y-62579999D01*
D14*
%TO.C,J2*%
X14013610Y-8084344D02*
X14013610Y-9084344D01*
X14013610Y-13084344D02*
X14013610Y-14084344D01*
X14013610Y-14084344D02*
X16413610Y-14084344D01*
X16413610Y-8084344D02*
X14013610Y-8084344D01*
X18213610Y-13084344D02*
X18213610Y-9084344D01*
D13*
%TO.C,U14*%
X1711250Y-74640000D02*
X2361250Y-74640000D01*
X1711250Y-77760000D02*
X2361250Y-77760000D01*
X3011250Y-77760000D02*
X2361250Y-77760000D01*
X4036250Y-74640000D02*
X2361250Y-74640000D01*
D12*
%TO.C,C55*%
X102087500Y-56200000D02*
X102087500Y-56600000D01*
X102937500Y-56200000D02*
X102937500Y-56600000D01*
%TO.C,C116*%
X282825000Y-18100000D02*
X282825000Y-18500000D01*
X283675000Y-18100000D02*
X283675000Y-18500000D01*
%TO.C,C38*%
X54225000Y950000D02*
X54225000Y550000D01*
X55075000Y950000D02*
X55075000Y550000D01*
D13*
%TO.C,U40*%
X93690000Y-20001D02*
X93690000Y1655000D01*
X93690000Y-20001D02*
X93690000Y-670000D01*
X96810000Y-20001D02*
X96810000Y630000D01*
X96810000Y-20001D02*
X96810000Y-670000D01*
D12*
%TO.C,C158*%
X211512500Y-74025000D02*
X211112500Y-74025000D01*
X211512500Y-74875000D02*
X211112500Y-74875000D01*
%TO.C,C238*%
X196981249Y-80630000D02*
X196981249Y-79930000D01*
X198181249Y-79930000D02*
X198181249Y-80630000D01*
%TO.C,C167*%
X175549999Y-5430000D02*
X175549999Y-4730000D01*
X176749999Y-4730000D02*
X176749999Y-5430000D01*
%TO.C,R35*%
X15838885Y-32365228D02*
X16121728Y-32648071D01*
X16439926Y-31764187D02*
X16722769Y-32047030D01*
%TO.C,C205*%
X37437499Y-43530000D02*
X37437499Y-42830000D01*
X38637499Y-42830000D02*
X38637499Y-43530000D01*
%TO.C,C46*%
X97325000Y950000D02*
X97325000Y550000D01*
X98175000Y950000D02*
X98175000Y550000D01*
%TO.C,C69*%
X187575000Y950000D02*
X187575000Y550000D01*
X188425000Y950000D02*
X188425000Y550000D01*
%TO.C,C149*%
X47206250Y-74025000D02*
X46806250Y-74025000D01*
X47206250Y-74875000D02*
X46806250Y-74875000D01*
%TO.C,C1*%
X2550000Y2924999D02*
X2950000Y2924999D01*
X2550000Y2074999D02*
X2950000Y2074999D01*
%TO.C,C189*%
X23275001Y-24479999D02*
X23275001Y-23779999D01*
X24475001Y-23779999D02*
X24475001Y-24479999D01*
%TO.C,C74*%
X206625000Y950000D02*
X206625000Y550000D01*
X207475000Y950000D02*
X207475000Y550000D01*
%TO.C,C212*%
X56612501Y-62579999D02*
X56612501Y-61879999D01*
X57812501Y-61879999D02*
X57812501Y-62579999D01*
D14*
%TO.C,U2*%
X7087500Y-27635938D02*
X2437500Y-27635938D01*
X7087500Y-33085938D02*
X2437500Y-33085938D01*
D12*
X2102500Y-33440938D02*
X1622500Y-33440938D01*
X1862500Y-33110938D01*
X2102500Y-33440938D01*
G36*
X2102500Y-33440938D02*
G01*
X1622500Y-33440938D01*
X1862500Y-33110938D01*
X2102500Y-33440938D01*
G37*
%TO.C,C163*%
X130425000Y-75250000D02*
X130425000Y-75650000D01*
X131275000Y-75250000D02*
X131275000Y-75650000D01*
%TO.C,C188*%
X-537499Y-24479999D02*
X-537499Y-23779999D01*
X662501Y-23779999D02*
X662501Y-24479999D01*
%TO.C,C32*%
X35275000Y-12484344D02*
X35275000Y-12084344D01*
X36125000Y-12484344D02*
X36125000Y-12084344D01*
D13*
%TO.C,U47*%
X122265000Y-19070001D02*
X122265000Y-17395000D01*
X122265000Y-19070001D02*
X122265000Y-19720000D01*
X125385000Y-19070001D02*
X125385000Y-18420000D01*
X125385000Y-19070001D02*
X125385000Y-19720000D01*
D12*
%TO.C,C211*%
X94587499Y-43530000D02*
X94587499Y-42830000D01*
X95787499Y-42830000D02*
X95787499Y-43530000D01*
%TO.C,C230*%
X235206251Y-62579999D02*
X235206251Y-61879999D01*
X236406251Y-61879999D02*
X236406251Y-62579999D01*
%TO.C,C112*%
X216150000Y-18100000D02*
X216150000Y-18500000D01*
X217000000Y-18100000D02*
X217000000Y-18500000D01*
%TO.C,C207*%
X56487499Y-43530000D02*
X56487499Y-42830000D01*
X57687499Y-42830000D02*
X57687499Y-43530000D01*
%TO.C,C68*%
X168525000Y950000D02*
X168525000Y550000D01*
X169375000Y950000D02*
X169375000Y550000D01*
%TO.C,C27*%
X16125000Y950000D02*
X16125000Y550000D01*
X16975000Y950000D02*
X16975000Y550000D01*
%TO.C,R1*%
X2550000Y3924999D02*
X2950000Y3924999D01*
X2550000Y3074999D02*
X2950000Y3074999D01*
D13*
%TO.C,U71*%
X198465000Y-19070001D02*
X198465000Y-17395000D01*
X198465000Y-19070001D02*
X198465000Y-19720000D01*
X201585000Y-19070001D02*
X201585000Y-18420000D01*
X201585000Y-19070001D02*
X201585000Y-19720000D01*
D12*
%TO.C,C94*%
X249725000Y950000D02*
X249725000Y550000D01*
X250575000Y950000D02*
X250575000Y550000D01*
%TO.C,C15*%
X259250000Y950000D02*
X259250000Y550000D01*
X260100000Y950000D02*
X260100000Y550000D01*
%TO.C,L1*%
X3512500Y-8586875D02*
X6012500Y-8586875D01*
X6012500Y-10806875D02*
X3512500Y-10806875D01*
%TO.C,C142*%
X78037500Y-56200000D02*
X78037500Y-56600000D01*
X78887500Y-56200000D02*
X78887500Y-56600000D01*
%TO.C,C162*%
X137449999Y-5430000D02*
X137449999Y-4730000D01*
X138649999Y-4730000D02*
X138649999Y-5430000D01*
%TO.C,C20*%
X1962500Y-12071875D02*
X1562500Y-12071875D01*
X1962500Y-12921875D02*
X1562500Y-12921875D01*
D13*
%TO.C,U80*%
X22252500Y-57170001D02*
X22252500Y-55495000D01*
X22252500Y-57170001D02*
X22252500Y-57820000D01*
X25372500Y-57170001D02*
X25372500Y-56520000D01*
X25372500Y-57170001D02*
X25372500Y-57820000D01*
D12*
%TO.C,C90*%
X256868750Y-37150000D02*
X256868750Y-37550000D01*
X257718750Y-37150000D02*
X257718750Y-37550000D01*
%TO.C,C114*%
X235200000Y-18100000D02*
X235200000Y-18500000D01*
X236050000Y-18100000D02*
X236050000Y-18500000D01*
D13*
%TO.C,U100*%
X284190000Y-20001D02*
X284190000Y1655000D01*
X284190000Y-20001D02*
X284190000Y-670000D01*
X287310000Y-20001D02*
X287310000Y630000D01*
X287310000Y-20001D02*
X287310000Y-670000D01*
D12*
%TO.C,C208*%
X18512501Y-62579999D02*
X18512501Y-61879999D01*
X19712501Y-61879999D02*
X19712501Y-62579999D01*
%TO.C,U19*%
X36540000Y-10284344D02*
X36540000Y-11084344D01*
X36540000Y-11884344D02*
X36540000Y-11084344D01*
X39660000Y-10284344D02*
X39660000Y-11084344D01*
X39660000Y-11884344D02*
X39660000Y-11084344D01*
X36590000Y-9784344D02*
X36260000Y-10024344D01*
X36260000Y-9544344D01*
X36590000Y-9784344D01*
G36*
X36590000Y-9784344D02*
G01*
X36260000Y-10024344D01*
X36260000Y-9544344D01*
X36590000Y-9784344D01*
G37*
D13*
%TO.C,U28*%
X55590000Y-20001D02*
X55590000Y1655000D01*
X55590000Y-20001D02*
X55590000Y-670000D01*
X58710000Y-20001D02*
X58710000Y630000D01*
X58710000Y-20001D02*
X58710000Y-670000D01*
D12*
%TO.C,C172*%
X249725000Y-75250000D02*
X249725000Y-75650000D01*
X250575000Y-75250000D02*
X250575000Y-75650000D01*
%TO.C,C92*%
X82800000Y-18100000D02*
X82800000Y-18500000D01*
X83650000Y-18100000D02*
X83650000Y-18500000D01*
%TO.C,C101*%
X139950000Y-18100000D02*
X139950000Y-18500000D01*
X140800000Y-18100000D02*
X140800000Y-18500000D01*
D13*
%TO.C,U94*%
X265140000Y-20001D02*
X265140000Y1655000D01*
X265140000Y-20001D02*
X265140000Y-670000D01*
X268260000Y-20001D02*
X268260000Y630000D01*
X268260000Y-20001D02*
X268260000Y-670000D01*
%TO.C,U42*%
X107977500Y-38120001D02*
X107977500Y-36445000D01*
X107977500Y-38120001D02*
X107977500Y-38770000D01*
X111097500Y-38120001D02*
X111097500Y-37470000D01*
X111097500Y-38120001D02*
X111097500Y-38770000D01*
D12*
%TO.C,C214*%
X75662501Y-62579999D02*
X75662501Y-61879999D01*
X76862501Y-61879999D02*
X76862501Y-62579999D01*
%TO.C,C98*%
X61249999Y-5430000D02*
X61249999Y-4730000D01*
X62449999Y-4730000D02*
X62449999Y-5430000D01*
%TO.C,C59*%
X144950000Y-18100000D02*
X144950000Y-18500000D01*
X145800000Y-18100000D02*
X145800000Y-18500000D01*
%TO.C,C204*%
X-2918749Y-62579999D02*
X-2918749Y-61879999D01*
X-1718749Y-61879999D02*
X-1718749Y-62579999D01*
%TO.C,C191*%
X61375001Y-24479999D02*
X61375001Y-23779999D01*
X62575001Y-23779999D02*
X62575001Y-24479999D01*
D14*
%TO.C,U38*%
X83287500Y-27635938D02*
X78637500Y-27635938D01*
X83287500Y-33085938D02*
X78637500Y-33085938D01*
D12*
X78302500Y-33440938D02*
X77822500Y-33440938D01*
X78062500Y-33110938D01*
X78302500Y-33440938D01*
G36*
X78302500Y-33440938D02*
G01*
X77822500Y-33440938D01*
X78062500Y-33110938D01*
X78302500Y-33440938D01*
G37*
D13*
%TO.C,U4*%
X4092500Y-74640000D02*
X4742500Y-74640000D01*
X4092500Y-77760000D02*
X4742500Y-77760000D01*
X5392500Y-77760000D02*
X4742500Y-77760000D01*
X6417500Y-74640000D02*
X4742500Y-74640000D01*
%TO.C,U91*%
X238946250Y-55495000D02*
X238946250Y-57170000D01*
X238946250Y-57820000D02*
X238946250Y-57170000D01*
X242066250Y-56520000D02*
X242066250Y-57170000D01*
X242066250Y-57820000D02*
X242066250Y-57170000D01*
%TO.C,U11*%
X3202500Y-17395000D02*
X3202500Y-19070000D01*
X3202500Y-19720000D02*
X3202500Y-19070000D01*
X6322500Y-18420000D02*
X6322500Y-19070000D01*
X6322500Y-19720000D02*
X6322500Y-19070000D01*
D12*
%TO.C,C40*%
X78275000Y950000D02*
X78275000Y550000D01*
X79125000Y950000D02*
X79125000Y550000D01*
%TO.C,C132*%
X-543750Y-56200000D02*
X-543750Y-56600000D01*
X306250Y-56200000D02*
X306250Y-56600000D01*
%TO.C,TP1*%
X16940625Y-25537500D02*
G75*
G02*
X15540625Y-25537500I-700000J0D01*
G01*
X15540625Y-25537500D02*
G75*
G02*
X16940625Y-25537500I700000J0D01*
G01*
%TO.C,C108*%
X268775000Y-56200000D02*
X268775000Y-56600000D01*
X269625000Y-56200000D02*
X269625000Y-56600000D01*
%TO.C,C78*%
X206862500Y-37150000D02*
X206862500Y-37550000D01*
X207712500Y-37150000D02*
X207712500Y-37550000D01*
%TO.C,C187*%
X289849999Y-5430000D02*
X289849999Y-4730000D01*
X291049999Y-4730000D02*
X291049999Y-5430000D01*
%TO.C,C100*%
X268775000Y950000D02*
X268775000Y550000D01*
X269625000Y950000D02*
X269625000Y550000D01*
%TO.C,C144*%
X116137500Y-56200000D02*
X116137500Y-56600000D01*
X116987500Y-56200000D02*
X116987500Y-56600000D01*
%TO.C,C182*%
X251749999Y-5430000D02*
X251749999Y-4730000D01*
X252949999Y-4730000D02*
X252949999Y-5430000D01*
D14*
%TO.C,U32*%
X45187500Y-27635938D02*
X40537500Y-27635938D01*
X45187500Y-33085938D02*
X40537500Y-33085938D01*
D12*
X40202500Y-33440938D02*
X39722500Y-33440938D01*
X39962500Y-33110938D01*
X40202500Y-33440938D01*
G36*
X40202500Y-33440938D02*
G01*
X39722500Y-33440938D01*
X39962500Y-33110938D01*
X40202500Y-33440938D01*
G37*
D13*
%TO.C,U73*%
X193702500Y-57170001D02*
X193702500Y-55495000D01*
X193702500Y-57170001D02*
X193702500Y-57820000D01*
X196822500Y-57170001D02*
X196822500Y-56520000D01*
X196822500Y-57170001D02*
X196822500Y-57820000D01*
D12*
%TO.C,C190*%
X42325001Y-24479999D02*
X42325001Y-23779999D01*
X43525001Y-23779999D02*
X43525001Y-24479999D01*
D13*
%TO.C,U84*%
X253233750Y-38120001D02*
X253233750Y-36445000D01*
X253233750Y-38120001D02*
X253233750Y-38770000D01*
X256353750Y-38120001D02*
X256353750Y-37470000D01*
X256353750Y-38120001D02*
X256353750Y-38770000D01*
D15*
X241887500Y-27845000D02*
G75*
G02*
X243886449Y-27844475I1000000J-2000020D01*
G01*
X265700000Y-27845000D02*
G75*
G02*
X267698949Y-27844475I1000000J-1999998D01*
G01*
X244637500Y-45085000D02*
G75*
G02*
X241137500Y-45085000I-1750000J0D01*
G01*
X241137500Y-45085000D02*
G75*
G02*
X244637500Y-45085000I1750000J0D01*
G01*
X268450000Y-45085000D02*
G75*
G02*
X264950000Y-45085000I-1750000J0D01*
G01*
X264950000Y-45085000D02*
G75*
G02*
X268450000Y-45085000I1750000J0D01*
G01*
D13*
%TO.C,U41*%
X103215000Y-19070001D02*
X103215000Y-17395000D01*
X103215000Y-19070001D02*
X103215000Y-19720000D01*
X106335000Y-19070001D02*
X106335000Y-18420000D01*
X106335000Y-19070001D02*
X106335000Y-19720000D01*
%TO.C,U48*%
X127027500Y-38120001D02*
X127027500Y-36445000D01*
X127027500Y-38120001D02*
X127027500Y-38770000D01*
X130147500Y-38120001D02*
X130147500Y-37470000D01*
X130147500Y-38120001D02*
X130147500Y-38770000D01*
D12*
%TO.C,C201*%
X256637501Y-24479999D02*
X256637501Y-23779999D01*
X257837501Y-23779999D02*
X257837501Y-24479999D01*
%TO.C,C57*%
X130425000Y950000D02*
X130425000Y550000D01*
X131275000Y950000D02*
X131275000Y550000D01*
%TO.C,C65*%
X164000000Y-18100000D02*
X164000000Y-18500000D01*
X164850000Y-18100000D02*
X164850000Y-18500000D01*
D13*
%TO.C,U60*%
X165127500Y-38120001D02*
X165127500Y-36445000D01*
X165127500Y-38120001D02*
X165127500Y-38770000D01*
X168247500Y-38120001D02*
X168247500Y-37470000D01*
X168247500Y-38120001D02*
X168247500Y-38770000D01*
D12*
%TO.C,C147*%
X-418750Y-74025000D02*
X-818750Y-74025000D01*
X-418750Y-74875000D02*
X-818750Y-74875000D01*
%TO.C,C174*%
X287825000Y-75250000D02*
X287825000Y-75650000D01*
X288675000Y-75250000D02*
X288675000Y-75650000D01*
%TO.C,C170*%
X35625000Y-76625000D02*
X36025000Y-76625000D01*
X35625000Y-77475000D02*
X36025000Y-77475000D01*
%TO.C,C25*%
X51525000Y-11284344D02*
X51525000Y-11684344D01*
X52375000Y-11284344D02*
X52375000Y-11684344D01*
D13*
%TO.C,U64*%
X169890000Y-20001D02*
X169890000Y1655000D01*
X169890000Y-20001D02*
X169890000Y-670000D01*
X173010000Y-20001D02*
X173010000Y630000D01*
X173010000Y-20001D02*
X173010000Y-670000D01*
D12*
%TO.C,C154*%
X161762500Y-32210938D02*
X162162500Y-32210938D01*
X161762500Y-33060938D02*
X162162500Y-33060938D01*
D13*
%TO.C,U7*%
X131790000Y-74545000D02*
X131790000Y-76220000D01*
X131790000Y-76870000D02*
X131790000Y-76220000D01*
X134910000Y-75570000D02*
X134910000Y-76220000D01*
X134910000Y-76870000D02*
X134910000Y-76220000D01*
D15*
X75200000Y-65945000D02*
G75*
G02*
X77198949Y-65944475I1000000J-2000000D01*
G01*
X189500000Y-65945000D02*
G75*
G02*
X191498949Y-65944475I1000000J-1999998D01*
G01*
X77950000Y-83185000D02*
G75*
G02*
X74450000Y-83185000I-1750000J0D01*
G01*
X74450000Y-83185000D02*
G75*
G02*
X77950000Y-83185000I1750000J0D01*
G01*
X192250000Y-83185000D02*
G75*
G02*
X188750000Y-83185000I-1750000J0D01*
G01*
X188750000Y-83185000D02*
G75*
G02*
X192250000Y-83185000I1750000J0D01*
G01*
D13*
%TO.C,U59*%
X160365000Y-19070001D02*
X160365000Y-17395000D01*
X160365000Y-19070001D02*
X160365000Y-19720000D01*
X163485000Y-19070001D02*
X163485000Y-18420000D01*
X163485000Y-19070001D02*
X163485000Y-19720000D01*
D12*
%TO.C,C70*%
X173525000Y950000D02*
X173525000Y550000D01*
X174375000Y950000D02*
X174375000Y550000D01*
%TO.C,C225*%
X227937499Y-43530000D02*
X227937499Y-42830000D01*
X229137499Y-42830000D02*
X229137499Y-43530000D01*
%TO.C,C119*%
X220912500Y-37150000D02*
X220912500Y-37550000D01*
X221762500Y-37150000D02*
X221762500Y-37550000D01*
D14*
%TO.C,U69*%
X230925000Y-46785938D02*
X226275000Y-46785938D01*
X230925000Y-52235938D02*
X226275000Y-52235938D01*
D12*
X225940000Y-52590938D02*
X225460000Y-52590938D01*
X225700000Y-52260938D01*
X225940000Y-52590938D01*
G36*
X225940000Y-52590938D02*
G01*
X225460000Y-52590938D01*
X225700000Y-52260938D01*
X225940000Y-52590938D01*
G37*
D13*
%TO.C,U78*%
X222277500Y-38120001D02*
X222277500Y-36445000D01*
X222277500Y-38120001D02*
X222277500Y-38770000D01*
X225397500Y-38120001D02*
X225397500Y-37470000D01*
X225397500Y-38120001D02*
X225397500Y-38770000D01*
D12*
%TO.C,C131*%
X8981250Y-56200000D02*
X8981250Y-56600000D01*
X9831250Y-56200000D02*
X9831250Y-56600000D01*
%TO.C,C11*%
X22612082Y-37406014D02*
X22894925Y-37123171D01*
X23213123Y-38007055D02*
X23495966Y-37724212D01*
D13*
%TO.C,U16*%
X17490000Y-20001D02*
X17490000Y1655000D01*
X17490000Y-20001D02*
X17490000Y-670000D01*
X20610000Y-20001D02*
X20610000Y630000D01*
X20610000Y-20001D02*
X20610000Y-670000D01*
D12*
%TO.C,C77*%
X202100000Y-18100000D02*
X202100000Y-18500000D01*
X202950000Y-18100000D02*
X202950000Y-18500000D01*
%TO.C,C217*%
X151737499Y-43530000D02*
X151737499Y-42830000D01*
X152937499Y-42830000D02*
X152937499Y-43530000D01*
%TO.C,C157*%
X189956250Y-75250000D02*
X189956250Y-75650000D01*
X190806250Y-75250000D02*
X190806250Y-75650000D01*
%TO.C,C200*%
X232825001Y-24479999D02*
X232825001Y-23779999D01*
X234025001Y-23779999D02*
X234025001Y-24479999D01*
%TO.C,C16*%
X2075000Y950000D02*
X2075000Y550000D01*
X2925000Y950000D02*
X2925000Y550000D01*
%TO.C,C83*%
X221150000Y-18100000D02*
X221150000Y-18500000D01*
X222000000Y-18100000D02*
X222000000Y-18500000D01*
%TO.C,R113*%
X6982500Y-12250516D02*
X6982500Y-11943234D01*
X7742500Y-12250516D02*
X7742500Y-11943234D01*
%TO.C,C87*%
X44700000Y-18100000D02*
X44700000Y-18500000D01*
X45550000Y-18100000D02*
X45550000Y-18500000D01*
%TO.C,C106*%
X287825000Y950000D02*
X287825000Y550000D01*
X288675000Y950000D02*
X288675000Y550000D01*
%TO.C,C39*%
X73275000Y950000D02*
X73275000Y550000D01*
X74125000Y950000D02*
X74125000Y550000D01*
%TO.C,C146*%
X20887500Y-56200000D02*
X20887500Y-56600000D01*
X21737500Y-56200000D02*
X21737500Y-56600000D01*
%TO.C,C26*%
X35275000Y-9684344D02*
X35275000Y-10084344D01*
X36125000Y-9684344D02*
X36125000Y-10084344D01*
%TO.C,C213*%
X113637499Y-43530000D02*
X113637499Y-42830000D01*
X114837499Y-42830000D02*
X114837499Y-43530000D01*
%TO.C,C242*%
X289849999Y-81630000D02*
X289849999Y-80930000D01*
X291049999Y-80930000D02*
X291049999Y-81630000D01*
%TO.C,C54*%
X130662500Y-37150000D02*
X130662500Y-37550000D01*
X131512500Y-37150000D02*
X131512500Y-37550000D01*
%TO.C,C136*%
X211387500Y-56200000D02*
X211387500Y-56600000D01*
X212237500Y-56200000D02*
X212237500Y-56600000D01*
%TO.C,C102*%
X159000000Y-18100000D02*
X159000000Y-18500000D01*
X159850000Y-18100000D02*
X159850000Y-18500000D01*
%TO.C,C47*%
X106850000Y-18100000D02*
X106850000Y-18500000D01*
X107700000Y-18100000D02*
X107700000Y-18500000D01*
%TO.C,C153*%
X118518750Y-75250000D02*
X118518750Y-75650000D01*
X119368750Y-75250000D02*
X119368750Y-75650000D01*
%TO.C,C219*%
X170787499Y-43530000D02*
X170787499Y-42830000D01*
X171987499Y-42830000D02*
X171987499Y-43530000D01*
%TO.C,C185*%
X287825000Y-37150000D02*
X287825000Y-37550000D01*
X288675000Y-37150000D02*
X288675000Y-37550000D01*
%TO.C,C165*%
X7002500Y-13989039D02*
X7002500Y-14204711D01*
X7722500Y-13989039D02*
X7722500Y-14204711D01*
D13*
%TO.C,U88*%
X246090000Y-20001D02*
X246090000Y1655000D01*
X246090000Y-20001D02*
X246090000Y-670000D01*
X249210000Y-20001D02*
X249210000Y630000D01*
X249210000Y-20001D02*
X249210000Y-670000D01*
D12*
%TO.C,C241*%
X270799999Y-81630000D02*
X270799999Y-80930000D01*
X271999999Y-80930000D02*
X271999999Y-81630000D01*
%TO.C,JP1*%
X20425000Y-16100000D02*
X20425000Y-14700000D01*
X21125000Y-14000000D02*
X21725000Y-14000000D01*
X21725000Y-16800000D02*
X21125000Y-16800000D01*
X22425000Y-14700000D02*
X22425000Y-16100000D01*
X20425000Y-14700000D02*
G75*
G02*
X21125000Y-14000000I699999J1D01*
G01*
X21125000Y-16800000D02*
G75*
G02*
X20425000Y-16100000I0J700000D01*
G01*
X21725000Y-14000000D02*
G75*
G02*
X22425000Y-14700000I1J-699999D01*
G01*
X22425000Y-16100000D02*
G75*
G02*
X21725000Y-16800000I-700000J0D01*
G01*
D13*
%TO.C,U49*%
X117502500Y-57170001D02*
X117502500Y-55495000D01*
X117502500Y-57170001D02*
X117502500Y-57820000D01*
X120622500Y-57170001D02*
X120622500Y-56520000D01*
X120622500Y-57170001D02*
X120622500Y-57820000D01*
%TO.C,U20*%
X25523750Y-74640000D02*
X26173750Y-74640000D01*
X25523750Y-77760000D02*
X26173750Y-77760000D01*
X26823750Y-77760000D02*
X26173750Y-77760000D01*
X27848750Y-74640000D02*
X26173750Y-74640000D01*
D12*
%TO.C,C134*%
X237581250Y-56200000D02*
X237581250Y-56600000D01*
X238431250Y-56200000D02*
X238431250Y-56600000D01*
%TO.C,C152*%
X199862500Y-32210938D02*
X200262500Y-32210938D01*
X199862500Y-33060938D02*
X200262500Y-33060938D01*
D13*
%TO.C,U61*%
X155602500Y-57170001D02*
X155602500Y-55495000D01*
X155602500Y-57170001D02*
X155602500Y-57820000D01*
X158722500Y-57170001D02*
X158722500Y-56520000D01*
X158722500Y-57170001D02*
X158722500Y-57820000D01*
%TO.C,U44*%
X119883750Y-74545000D02*
X119883750Y-76220000D01*
X119883750Y-76870000D02*
X119883750Y-76220000D01*
X123003750Y-75570000D02*
X123003750Y-76220000D01*
X123003750Y-76870000D02*
X123003750Y-76220000D01*
D15*
X70443850Y-65945000D02*
G75*
G02*
X72442799Y-65944475I1000000J-2000000D01*
G01*
X170443650Y-65945000D02*
G75*
G02*
X172442599Y-65944475I1000000J-1999998D01*
G01*
X73193850Y-83185000D02*
G75*
G02*
X69693850Y-83185000I-1750000J0D01*
G01*
X69693850Y-83185000D02*
G75*
G02*
X73193850Y-83185000I1750000J0D01*
G01*
X173193650Y-83185000D02*
G75*
G02*
X169693650Y-83185000I-1750000J0D01*
G01*
X169693650Y-83185000D02*
G75*
G02*
X173193650Y-83185000I1750000J0D01*
G01*
D12*
%TO.C,C81*%
X263775000Y950000D02*
X263775000Y550000D01*
X264625000Y950000D02*
X264625000Y550000D01*
D13*
%TO.C,U46*%
X112740000Y-20001D02*
X112740000Y1655000D01*
X112740000Y-20001D02*
X112740000Y-670000D01*
X115860000Y-20001D02*
X115860000Y630000D01*
X115860000Y-20001D02*
X115860000Y-670000D01*
D12*
%TO.C,C9*%
X23617060Y-31905609D02*
X23899903Y-31622766D01*
X24218101Y-32506650D02*
X24500944Y-32223807D01*
D13*
%TO.C,U76*%
X207990000Y-20001D02*
X207990000Y1655000D01*
X207990000Y-20001D02*
X207990000Y-670000D01*
X211110000Y-20001D02*
X211110000Y630000D01*
X211110000Y-20001D02*
X211110000Y-670000D01*
D12*
%TO.C,C209*%
X75537499Y-43530000D02*
X75537499Y-42830000D01*
X76737499Y-42830000D02*
X76737499Y-43530000D01*
%TO.C,JP2*%
X-50000Y-16300000D02*
X-50000Y-15700000D01*
X650000Y-15000000D02*
X2050000Y-15000000D01*
X2050000Y-17000000D02*
X650000Y-17000000D01*
X2750000Y-15700000D02*
X2750000Y-16300000D01*
X-50000Y-15700000D02*
G75*
G02*
X650000Y-15000000I699999J1D01*
G01*
X650000Y-17000000D02*
G75*
G02*
X-50000Y-16300000I-1J699999D01*
G01*
X2050000Y-15000000D02*
G75*
G02*
X2750000Y-15700000I0J-700000D01*
G01*
X2750000Y-16300000D02*
G75*
G02*
X2050000Y-17000000I-700000J0D01*
G01*
%TO.C,C210*%
X37562501Y-62579999D02*
X37562501Y-61879999D01*
X38762501Y-61879999D02*
X38762501Y-62579999D01*
%TO.C,C186*%
X270799999Y-5430000D02*
X270799999Y-4730000D01*
X271999999Y-4730000D02*
X271999999Y-5430000D01*
D13*
%TO.C,U98*%
X265140000Y-76220001D02*
X265140000Y-74545000D01*
X265140000Y-76220001D02*
X265140000Y-76870000D01*
X268260000Y-76220001D02*
X268260000Y-75570000D01*
X268260000Y-76220001D02*
X268260000Y-76870000D01*
D12*
%TO.C,C148*%
X23393750Y-74025000D02*
X22993750Y-74025000D01*
X23393750Y-74875000D02*
X22993750Y-74875000D01*
%TO.C,C91*%
X63750000Y-18100000D02*
X63750000Y-18500000D01*
X64600000Y-18100000D02*
X64600000Y-18500000D01*
%TO.C,C159*%
X244725000Y-75250000D02*
X244725000Y-75650000D01*
X245575000Y-75250000D02*
X245575000Y-75650000D01*
D13*
%TO.C,U21*%
X216023750Y-74640000D02*
X216673750Y-74640000D01*
X216023750Y-77760000D02*
X216673750Y-77760000D01*
X217323750Y-77760000D02*
X216673750Y-77760000D01*
X218348750Y-74640000D02*
X216673750Y-74640000D01*
D12*
%TO.C,C178*%
X123518750Y-75250000D02*
X123518750Y-75650000D01*
X124368750Y-75250000D02*
X124368750Y-75650000D01*
%TO.C,C175*%
X194956250Y-75250000D02*
X194956250Y-75650000D01*
X195806250Y-75250000D02*
X195806250Y-75650000D01*
%TO.C,C121*%
X182812500Y-37150000D02*
X182812500Y-37550000D01*
X183662500Y-37150000D02*
X183662500Y-37550000D01*
%TO.C,TP2*%
X20940625Y-25537500D02*
G75*
G02*
X19540625Y-25537500I-700000J0D01*
G01*
X19540625Y-25537500D02*
G75*
G02*
X20940625Y-25537500I700000J0D01*
G01*
%TO.C,C226*%
X189962501Y-62579999D02*
X189962501Y-61879999D01*
X191162501Y-61879999D02*
X191162501Y-62579999D01*
%TO.C,C61*%
X121137500Y-56200000D02*
X121137500Y-56600000D01*
X121987500Y-56200000D02*
X121987500Y-56600000D01*
%TO.C,C198*%
X194725001Y-24479999D02*
X194725001Y-23779999D01*
X195925001Y-23779999D02*
X195925001Y-24479999D01*
%TO.C,F1*%
X8550000Y-749000D02*
X10550000Y-749000D01*
X10550000Y-2889000D02*
X8550000Y-2889000D01*
%TO.C,C84*%
X225912500Y-37150000D02*
X225912500Y-37550000D01*
X226762500Y-37150000D02*
X226762500Y-37550000D01*
%TO.C,R30*%
X15131779Y-33072335D02*
X15414622Y-33355178D01*
X15732820Y-32471294D02*
X16015663Y-32754137D01*
%TO.C,C145*%
X282825000Y-56200000D02*
X282825000Y-56600000D01*
X283675000Y-56200000D02*
X283675000Y-56600000D01*
%TO.C,C8*%
X16440901Y-29541942D02*
X16158058Y-29259099D01*
X17041942Y-28940901D02*
X16759099Y-28658058D01*
%TO.C,C161*%
X282825000Y-75250000D02*
X282825000Y-75650000D01*
X283675000Y-75250000D02*
X283675000Y-75650000D01*
D13*
%TO.C,U24*%
X50827500Y-38120001D02*
X50827500Y-36445000D01*
X50827500Y-38120001D02*
X50827500Y-38770000D01*
X53947500Y-38120001D02*
X53947500Y-37470000D01*
X53947500Y-38120001D02*
X53947500Y-38770000D01*
D12*
%TO.C,C135*%
X263775000Y-56200000D02*
X263775000Y-56600000D01*
X264625000Y-56200000D02*
X264625000Y-56600000D01*
%TO.C,C42*%
X92562500Y-37150000D02*
X92562500Y-37550000D01*
X93412500Y-37150000D02*
X93412500Y-37550000D01*
%TO.C,C48*%
X111612500Y-37150000D02*
X111612500Y-37550000D01*
X112462500Y-37150000D02*
X112462500Y-37550000D01*
%TO.C,C21*%
X51525000Y-8484344D02*
X51525000Y-8084344D01*
X52375000Y-8484344D02*
X52375000Y-8084344D01*
%TO.C,C120*%
X201862500Y-37150000D02*
X201862500Y-37550000D01*
X202712500Y-37150000D02*
X202712500Y-37550000D01*
%TO.C,C115*%
X259012500Y-18100000D02*
X259012500Y-18500000D01*
X259862500Y-18100000D02*
X259862500Y-18500000D01*
%TD*%
%LPC*%
D16*
%TO.C,RGB1_A23*%
X288350000Y-43930000D03*
X288350000Y-42430000D03*
X283150000Y-42430000D03*
X283150000Y-43930000D03*
%TD*%
D17*
%TO.C,RGB1_B24*%
X59312500Y-61479999D03*
X59312500Y-62979999D03*
X64512500Y-62979999D03*
X64512500Y-61479999D03*
%TD*%
%TO.C,RGB1_B31*%
X283150000Y-61479999D03*
X283150000Y-62979999D03*
X288350000Y-62979999D03*
X288350000Y-61479999D03*
%TD*%
%TO.C,RGB1_B29*%
X135512500Y-61479999D03*
X135512500Y-62979999D03*
X140712500Y-62979999D03*
X140712500Y-61479999D03*
%TD*%
D18*
%TO.C,H11*%
X219075000Y0D03*
%TD*%
D16*
%TO.C,RGB1_A15*%
X269300000Y-5830000D03*
X269300000Y-4330000D03*
X264100000Y-4330000D03*
X264100000Y-5830000D03*
%TD*%
%TO.C,RGB1_A14*%
X259775000Y-5830000D03*
X259775000Y-4330000D03*
X254575000Y-4330000D03*
X254575000Y-5830000D03*
%TD*%
%TO.C,RGB1_A31*%
X188337500Y-43930000D03*
X188337500Y-42430000D03*
X183137500Y-42430000D03*
X183137500Y-43930000D03*
%TD*%
D17*
%TO.C,RGB1_B17*%
X264100000Y-61479999D03*
X264100000Y-62979999D03*
X269300000Y-62979999D03*
X269300000Y-61479999D03*
%TD*%
%TO.C,RGB1_B22*%
X40262500Y-61479999D03*
X40262500Y-62979999D03*
X45462500Y-62979999D03*
X45462500Y-61479999D03*
%TD*%
D18*
%TO.C,H13*%
X214312500Y-38100000D03*
%TD*%
D17*
%TO.C,RGB1_B2*%
X259337500Y-23379999D03*
X259337500Y-24879999D03*
X264537500Y-24879999D03*
X264537500Y-23379999D03*
%TD*%
D18*
%TO.C,H16*%
X290512500Y-9525000D03*
%TD*%
D16*
%TO.C,RGB1_A19*%
X6171875Y-82030000D03*
X6171875Y-80530000D03*
X971875Y-80530000D03*
X971875Y-82030000D03*
%TD*%
D18*
%TO.C,H14*%
X39290625Y-76200000D03*
%TD*%
D16*
%TO.C,RGB1_A22*%
X54987500Y-43930000D03*
X54987500Y-42430000D03*
X49787500Y-42430000D03*
X49787500Y-43930000D03*
%TD*%
D18*
%TO.C,H10*%
X161925000Y0D03*
%TD*%
D16*
%TO.C,RGB1_A10*%
X193100000Y-5830000D03*
X193100000Y-4330000D03*
X187900000Y-4330000D03*
X187900000Y-5830000D03*
%TD*%
%TO.C,RGB1_A7*%
X135950000Y-5830000D03*
X135950000Y-4330000D03*
X130750000Y-4330000D03*
X130750000Y-5830000D03*
%TD*%
D17*
%TO.C,RGB1_B16*%
X-218750Y-61479999D03*
X-218750Y-62979999D03*
X4981250Y-62979999D03*
X4981250Y-61479999D03*
%TD*%
D16*
%TO.C,RGB1_A18*%
X9743750Y-43930000D03*
X9743750Y-42430000D03*
X4543750Y-42430000D03*
X4543750Y-43930000D03*
%TD*%
D17*
%TO.C,RGB1_B26*%
X78362500Y-61479999D03*
X78362500Y-62979999D03*
X83562500Y-62979999D03*
X83562500Y-61479999D03*
%TD*%
D16*
%TO.C,RGB1_A13*%
X250250000Y-5830000D03*
X250250000Y-4330000D03*
X245050000Y-4330000D03*
X245050000Y-5830000D03*
%TD*%
%TO.C,RGB1_A25*%
X257393750Y-43930000D03*
X257393750Y-42430000D03*
X252193750Y-42430000D03*
X252193750Y-43930000D03*
%TD*%
%TO.C,RGB1_A6*%
X116900000Y-5830000D03*
X116900000Y-4330000D03*
X111700000Y-4330000D03*
X111700000Y-5830000D03*
%TD*%
%TO.C,RGB1_A21*%
X29984375Y-82030000D03*
X29984375Y-80530000D03*
X24784375Y-80530000D03*
X24784375Y-82030000D03*
%TD*%
%TO.C,RGB1_A9*%
X174050000Y-5830000D03*
X174050000Y-4330000D03*
X168850000Y-4330000D03*
X168850000Y-5830000D03*
%TD*%
D17*
%TO.C,RGB1_B18*%
X9306250Y-61479999D03*
X9306250Y-62979999D03*
X14506250Y-62979999D03*
X14506250Y-61479999D03*
%TD*%
D16*
%TO.C,RGB1_A33*%
X169287500Y-43930000D03*
X169287500Y-42430000D03*
X164087500Y-42430000D03*
X164087500Y-43930000D03*
%TD*%
D17*
%TO.C,RGB1_B1*%
X283150000Y-23379999D03*
X283150000Y-24879999D03*
X288350000Y-24879999D03*
X288350000Y-23379999D03*
%TD*%
%TO.C,RGB1_B11*%
X83125000Y-23379999D03*
X83125000Y-24879999D03*
X88325000Y-24879999D03*
X88325000Y-23379999D03*
%TD*%
%TO.C,RGB1_B27*%
X154562500Y-61479999D03*
X154562500Y-62979999D03*
X159762500Y-62979999D03*
X159762500Y-61479999D03*
%TD*%
D16*
%TO.C,RGB1_A5*%
X97850000Y-5830000D03*
X97850000Y-4330000D03*
X92650000Y-4330000D03*
X92650000Y-5830000D03*
%TD*%
%TO.C,RGB1_A16*%
X2600000Y-5830000D03*
X2600000Y-4330000D03*
X-2600000Y-4330000D03*
X-2600000Y-5830000D03*
%TD*%
%TO.C,RGB1_A32*%
X150237500Y-43930000D03*
X150237500Y-42430000D03*
X145037500Y-42430000D03*
X145037500Y-43930000D03*
%TD*%
D18*
%TO.C,H4*%
X80962500Y-38100000D03*
%TD*%
D16*
%TO.C,RGB1_A17*%
X288350000Y-5830000D03*
X288350000Y-4330000D03*
X283150000Y-4330000D03*
X283150000Y-5830000D03*
%TD*%
%TO.C,RGB1_A38*%
X135950000Y-82030000D03*
X135950000Y-80530000D03*
X130750000Y-80530000D03*
X130750000Y-82030000D03*
%TD*%
%TO.C,RGB1_A24*%
X74037500Y-43930000D03*
X74037500Y-42430000D03*
X68837500Y-42430000D03*
X68837500Y-43930000D03*
%TD*%
D17*
%TO.C,RGB1_B12*%
X64075000Y-23379999D03*
X64075000Y-24879999D03*
X69275000Y-24879999D03*
X69275000Y-23379999D03*
%TD*%
D16*
%TO.C,RGB1_A34*%
X53796875Y-82030000D03*
X53796875Y-80530000D03*
X48596875Y-80530000D03*
X48596875Y-82030000D03*
%TD*%
D17*
%TO.C,RGB1_B14*%
X25975000Y-23379999D03*
X25975000Y-24879999D03*
X31175000Y-24879999D03*
X31175000Y-23379999D03*
%TD*%
%TO.C,RGB1_B19*%
X237906250Y-61479999D03*
X237906250Y-62979999D03*
X243106250Y-62979999D03*
X243106250Y-61479999D03*
%TD*%
D16*
%TO.C,RGB1_A12*%
X231200000Y-5830000D03*
X231200000Y-4330000D03*
X226000000Y-4330000D03*
X226000000Y-5830000D03*
%TD*%
%TO.C,RGB1_A20*%
X35937500Y-43930000D03*
X35937500Y-42430000D03*
X30737500Y-42430000D03*
X30737500Y-43930000D03*
%TD*%
%TO.C,RGB1_A27*%
X226437500Y-43930000D03*
X226437500Y-42430000D03*
X221237500Y-42430000D03*
X221237500Y-43930000D03*
%TD*%
D17*
%TO.C,RGB1_B21*%
X211712500Y-61479999D03*
X211712500Y-62979999D03*
X216912500Y-62979999D03*
X216912500Y-61479999D03*
%TD*%
D16*
%TO.C,RGB1_A4*%
X78800000Y-5830000D03*
X78800000Y-4330000D03*
X73600000Y-4330000D03*
X73600000Y-5830000D03*
%TD*%
D18*
%TO.C,H18*%
X257175000Y-9525000D03*
%TD*%
D17*
%TO.C,RGB1_B3*%
X235525000Y-23379999D03*
X235525000Y-24879999D03*
X240725000Y-24879999D03*
X240725000Y-23379999D03*
%TD*%
%TO.C,RGB1_B8*%
X140275000Y-23379999D03*
X140275000Y-24879999D03*
X145475000Y-24879999D03*
X145475000Y-23379999D03*
%TD*%
D16*
%TO.C,RGB1_A11*%
X212150000Y-5830000D03*
X212150000Y-4330000D03*
X206950000Y-4330000D03*
X206950000Y-5830000D03*
%TD*%
%TO.C,RGB1_A40*%
X195481251Y-81029999D03*
X195481249Y-79529999D03*
X190281250Y-79530000D03*
X190281250Y-81030000D03*
%TD*%
D17*
%TO.C,RGB1_B23*%
X192662500Y-61479999D03*
X192662500Y-62979999D03*
X197862500Y-62979999D03*
X197862500Y-61479999D03*
%TD*%
%TO.C,RGB1_B4*%
X216475000Y-23379999D03*
X216475000Y-24879999D03*
X221675000Y-24879999D03*
X221675000Y-23379999D03*
%TD*%
%TO.C,RGB1_B25*%
X173612500Y-61479999D03*
X173612500Y-62979999D03*
X178812500Y-62979999D03*
X178812500Y-61479999D03*
%TD*%
D16*
%TO.C,RGB1_A43*%
X288350000Y-82030000D03*
X288350000Y-80530000D03*
X283150000Y-80530000D03*
X283150000Y-82030000D03*
%TD*%
D17*
%TO.C,RGB1_B6*%
X178375000Y-23379999D03*
X178375000Y-24879999D03*
X183575000Y-24879999D03*
X183575000Y-23379999D03*
%TD*%
D16*
%TO.C,RGB1_A29*%
X207387500Y-43930000D03*
X207387500Y-42430000D03*
X202187500Y-42430000D03*
X202187500Y-43930000D03*
%TD*%
D17*
%TO.C,RGB1_B30*%
X116462500Y-61479999D03*
X116462500Y-62979999D03*
X121662500Y-62979999D03*
X121662500Y-61479999D03*
%TD*%
D16*
%TO.C,RGB1_A3*%
X59750000Y-5830000D03*
X59750000Y-4330000D03*
X54550000Y-4330000D03*
X54550000Y-5830000D03*
%TD*%
D17*
%TO.C,RGB1_B5*%
X197425000Y-23379999D03*
X197425000Y-24879999D03*
X202625000Y-24879999D03*
X202625000Y-23379999D03*
%TD*%
D18*
%TO.C,H12*%
X-4762500Y-9525000D03*
%TD*%
D16*
%TO.C,RGB1_A28*%
X112137500Y-43930000D03*
X112137500Y-42430000D03*
X106937500Y-42430000D03*
X106937500Y-43930000D03*
%TD*%
D18*
%TO.C,H8*%
X142875000Y0D03*
%TD*%
%TO.C,H17*%
X276225000Y-76200000D03*
%TD*%
D16*
%TO.C,RGB1_A1*%
X21650000Y-5830000D03*
X21650000Y-4330000D03*
X16450000Y-4330000D03*
X16450000Y-5830000D03*
%TD*%
D17*
%TO.C,RGB1_B28*%
X97412500Y-61479999D03*
X97412500Y-62979999D03*
X102612500Y-62979999D03*
X102612500Y-61479999D03*
%TD*%
D18*
%TO.C,H9*%
X104775000Y0D03*
%TD*%
D16*
%TO.C,RGB1_A2*%
X40700000Y-5830000D03*
X40700000Y-4330000D03*
X35500000Y-4330000D03*
X35500000Y-5830000D03*
%TD*%
%TO.C,RGB1_A8*%
X155000000Y-5830000D03*
X155000000Y-4330000D03*
X149800000Y-4330000D03*
X149800000Y-5830000D03*
%TD*%
%TO.C,RGB1_A44*%
X250250000Y-82030000D03*
X250250000Y-80530000D03*
X245050000Y-80530000D03*
X245050000Y-82030000D03*
%TD*%
D18*
%TO.C,H15*%
X202406250Y-76200000D03*
%TD*%
D16*
%TO.C,RGB1_A42*%
X218103125Y-82030000D03*
X218103125Y-80530000D03*
X212903125Y-80530000D03*
X212903125Y-82030000D03*
%TD*%
D17*
%TO.C,RGB1_B10*%
X102175000Y-23379999D03*
X102175000Y-24879999D03*
X107375000Y-24879999D03*
X107375000Y-23379999D03*
%TD*%
%TO.C,RGB1_B13*%
X45025000Y-23379999D03*
X45025000Y-24879999D03*
X50225000Y-24879999D03*
X50225000Y-23379999D03*
%TD*%
%TO.C,RGB1_B9*%
X121225000Y-23379999D03*
X121225000Y-24879999D03*
X126425000Y-24879999D03*
X126425000Y-23379999D03*
%TD*%
D16*
%TO.C,RGB1_A30*%
X131187500Y-43930000D03*
X131187500Y-42430000D03*
X125987500Y-42430000D03*
X125987500Y-43930000D03*
%TD*%
D18*
%TO.C,H5*%
X66675000Y0D03*
%TD*%
%TO.C,H3*%
X47625000Y0D03*
%TD*%
D17*
%TO.C,RGB1_B7*%
X159325000Y-23379999D03*
X159325000Y-24879999D03*
X164525000Y-24879999D03*
X164525000Y-23379999D03*
%TD*%
D16*
%TO.C,RGB1_A45*%
X269300000Y-82030000D03*
X269300000Y-80530000D03*
X264100000Y-80530000D03*
X264100000Y-82030000D03*
%TD*%
D18*
%TO.C,H7*%
X157162500Y-38100000D03*
%TD*%
D17*
%TO.C,RGB1_B15*%
X2162500Y-23379999D03*
X2162500Y-24879999D03*
X7362500Y-24879999D03*
X7362500Y-23379999D03*
%TD*%
D16*
%TO.C,RGB1_A36*%
X124043750Y-82030000D03*
X124043750Y-80530000D03*
X118843750Y-80530000D03*
X118843750Y-82030000D03*
%TD*%
D17*
%TO.C,RGB1_B20*%
X21212500Y-61479999D03*
X21212500Y-62979999D03*
X26412500Y-62979999D03*
X26412500Y-61479999D03*
%TD*%
D16*
%TO.C,RGB1_A26*%
X93087500Y-43930000D03*
X93087500Y-42430000D03*
X87887500Y-42430000D03*
X87887500Y-43930000D03*
%TD*%
D19*
%TO.C,C33*%
X35600000Y270000D03*
X35600000Y1230000D03*
%TD*%
%TO.C,C73*%
X159662500Y-56880000D03*
X159662500Y-55920000D03*
%TD*%
D20*
%TO.C,C180*%
X214249999Y-4330000D03*
X214249999Y-5830000D03*
%TD*%
D19*
%TO.C,C160*%
X264200000Y-75930000D03*
X264200000Y-74970000D03*
%TD*%
D21*
%TO.C,SW1*%
X30300000Y-31000000D03*
X30300000Y-35200000D03*
%TD*%
D19*
%TO.C,C60*%
X150137500Y-37830000D03*
X150137500Y-36870000D03*
%TD*%
D22*
%TO.C,C13*%
X22701357Y-36533623D03*
X22022535Y-37212445D03*
%TD*%
D23*
%TO.C,U25*%
X47942499Y-57150000D03*
X37782501Y-57150000D03*
D24*
X41912500Y-55995000D03*
X42862500Y-58345000D03*
X43812500Y-55995000D03*
%TD*%
D19*
%TO.C,C22*%
X21550000Y270000D03*
X21550000Y1230000D03*
%TD*%
D23*
%TO.C,U23*%
X52704999Y-19050000D03*
X42545001Y-19050000D03*
D24*
X46675000Y-17895000D03*
X47625000Y-20245000D03*
X48575000Y-17895000D03*
%TD*%
D25*
%TO.C,U56*%
X192362500Y-32635938D03*
X192362500Y-31985938D03*
X192362500Y-31335938D03*
X192362500Y-30685938D03*
X192362500Y-30035938D03*
X192362500Y-29385938D03*
X192362500Y-28735938D03*
X192362500Y-28085938D03*
X198162500Y-28085938D03*
X198162500Y-28735938D03*
X198162500Y-29385938D03*
X198162500Y-30035938D03*
X198162500Y-30685938D03*
X198162500Y-31335938D03*
X198162500Y-31985938D03*
X198162500Y-32635938D03*
%TD*%
D19*
%TO.C,C125*%
X126087500Y-37830000D03*
X126087500Y-36870000D03*
%TD*%
%TO.C,C23*%
X31075000Y-18780000D03*
X31075000Y-17820000D03*
%TD*%
D26*
%TO.C,U63*%
X54000000Y-13384344D03*
X54000000Y-11084344D03*
D27*
X60300000Y-11084344D03*
D26*
X54000000Y-8784344D03*
%TD*%
D20*
%TO.C,C203*%
X11843749Y-42430000D03*
X11843749Y-43930000D03*
%TD*%
D28*
%TO.C,TP3*%
X13600000Y-29334344D03*
%TD*%
D19*
%TO.C,C18*%
X9643750Y-37830000D03*
X9643750Y-36870000D03*
%TD*%
%TO.C,C123*%
X164187500Y-37830000D03*
X164187500Y-36870000D03*
%TD*%
%TO.C,C17*%
X7262500Y-18780000D03*
X7262500Y-17820000D03*
%TD*%
D23*
%TO.C,U30*%
X76517499Y-38100000D03*
X66357501Y-38100000D03*
D24*
X70487500Y-36945000D03*
X71437500Y-39295000D03*
X72387500Y-36945000D03*
%TD*%
D19*
%TO.C,C105*%
X178475000Y-18780000D03*
X178475000Y-17820000D03*
%TD*%
D20*
%TO.C,C234*%
X32084374Y-80530000D03*
X32084374Y-82030000D03*
%TD*%
D19*
%TO.C,C99*%
X121325000Y-18780000D03*
X121325000Y-17820000D03*
%TD*%
%TO.C,R3*%
X10550000Y115344D03*
X10550000Y1075344D03*
%TD*%
D20*
%TO.C,C193*%
X100075001Y-24879999D03*
X100075001Y-23379999D03*
%TD*%
D19*
%TO.C,C122*%
X49887500Y-37830000D03*
X49887500Y-36870000D03*
%TD*%
%TO.C,C71*%
X183475000Y-18780000D03*
X183475000Y-17820000D03*
%TD*%
D29*
%TO.C,C3*%
X284838750Y-51785938D03*
X283878750Y-51785938D03*
%TD*%
D20*
%TO.C,C231*%
X281050001Y-62979999D03*
X281050001Y-61479999D03*
%TD*%
D30*
%TO.C,Y1*%
X25897479Y-33903186D03*
X25048951Y-34751714D03*
X24200423Y-35600242D03*
%TD*%
D23*
%TO.C,U66*%
X190817499Y-38100000D03*
X180657501Y-38100000D03*
D24*
X184787500Y-36945000D03*
X185737500Y-39295000D03*
X186687500Y-36945000D03*
%TD*%
D19*
%TO.C,C44*%
X92750000Y270000D03*
X92750000Y1230000D03*
%TD*%
%TO.C,C19*%
X4881250Y-56880000D03*
X4881250Y-55920000D03*
%TD*%
D29*
%TO.C,C5*%
X124342500Y-32635938D03*
X123382500Y-32635938D03*
%TD*%
D23*
%TO.C,U75*%
X7461250Y-57150000D03*
X-2698750Y-57150000D03*
D24*
X1431250Y-55995000D03*
X2381250Y-58345000D03*
X3331250Y-55995000D03*
%TD*%
D19*
%TO.C,C24*%
X35837500Y-37830000D03*
X35837500Y-36870000D03*
%TD*%
D23*
%TO.C,U72*%
X209867499Y-38100000D03*
X199707501Y-38100000D03*
D24*
X203837500Y-36945000D03*
X204787500Y-39295000D03*
X205737500Y-36945000D03*
%TD*%
D19*
%TO.C,C117*%
X2262500Y-18780000D03*
X2262500Y-17820000D03*
%TD*%
D20*
%TO.C,C197*%
X176275001Y-24879999D03*
X176275001Y-23379999D03*
%TD*%
D19*
%TO.C,C30*%
X54887500Y-37830000D03*
X54887500Y-36870000D03*
%TD*%
D23*
%TO.C,U79*%
X219392499Y-57150000D03*
X209232501Y-57150000D03*
D24*
X213362500Y-55995000D03*
X214312500Y-58345000D03*
X215262500Y-55995000D03*
%TD*%
D19*
%TO.C,C128*%
X68937500Y-37830000D03*
X68937500Y-36870000D03*
%TD*%
%TO.C,C56*%
X254675000Y270000D03*
X254675000Y1230000D03*
%TD*%
D20*
%TO.C,C216*%
X95312501Y-62979999D03*
X95312501Y-61479999D03*
%TD*%
D25*
%TO.C,U45*%
X116162500Y-32635938D03*
X116162500Y-31985938D03*
X116162500Y-31335938D03*
X116162500Y-30685938D03*
X116162500Y-30035938D03*
X116162500Y-29385938D03*
X116162500Y-28735938D03*
X116162500Y-28085938D03*
X121962500Y-28085938D03*
X121962500Y-28735938D03*
X121962500Y-29385938D03*
X121962500Y-30035938D03*
X121962500Y-30685938D03*
X121962500Y-31335938D03*
X121962500Y-31985938D03*
X121962500Y-32635938D03*
%TD*%
D19*
%TO.C,C35*%
X69175000Y-18780000D03*
X69175000Y-17820000D03*
%TD*%
%TO.C,C36*%
X73937500Y-37830000D03*
X73937500Y-36870000D03*
%TD*%
D23*
%TO.C,U55*%
X143192499Y-57150000D03*
X133032501Y-57150000D03*
D24*
X137162500Y-55995000D03*
X138112500Y-58345000D03*
X139062500Y-55995000D03*
%TD*%
D20*
%TO.C,C192*%
X81025001Y-24879999D03*
X81025001Y-23379999D03*
%TD*%
D19*
%TO.C,C58*%
X135850000Y270000D03*
X135850000Y1230000D03*
%TD*%
D20*
%TO.C,C220*%
X133412501Y-62979999D03*
X133412501Y-61479999D03*
%TD*%
D23*
%TO.C,U82*%
X233679999Y0D03*
X223520001Y0D03*
D24*
X227650000Y1155000D03*
X228600000Y-1195000D03*
X229550000Y1155000D03*
%TD*%
D20*
%TO.C,C227*%
X259493749Y-42430000D03*
X259493749Y-43930000D03*
%TD*%
%TO.C,C232*%
X262000001Y-62979999D03*
X262000001Y-61479999D03*
%TD*%
D19*
%TO.C,C173*%
X269200000Y-75930000D03*
X269200000Y-74970000D03*
%TD*%
D23*
%TO.C,U77*%
X224154999Y-19050000D03*
X213995001Y-19050000D03*
D24*
X218125000Y-17895000D03*
X219075000Y-20245000D03*
X220025000Y-17895000D03*
%TD*%
D19*
%TO.C,C75*%
X245150000Y270000D03*
X245150000Y1230000D03*
%TD*%
D20*
%TO.C,C202*%
X281050001Y-24879999D03*
X281050001Y-23379999D03*
%TD*%
D29*
%TO.C,C171*%
X60117500Y-77050000D03*
X59157500Y-77050000D03*
%TD*%
D19*
%TO.C,C129*%
X87987500Y-37830000D03*
X87987500Y-36870000D03*
%TD*%
D20*
%TO.C,C181*%
X233299999Y-4330000D03*
X233299999Y-5830000D03*
%TD*%
D29*
%TO.C,C176*%
X224423750Y-77050000D03*
X223463750Y-77050000D03*
%TD*%
D19*
%TO.C,C127*%
X30837500Y-37830000D03*
X30837500Y-36870000D03*
%TD*%
D23*
%TO.C,U58*%
X157479999Y0D03*
X147320001Y0D03*
D24*
X151450000Y1155000D03*
X152400000Y-1195000D03*
X153350000Y1155000D03*
%TD*%
D23*
%TO.C,U31*%
X66992499Y-57150000D03*
X56832501Y-57150000D03*
D24*
X60962500Y-55995000D03*
X61912500Y-58345000D03*
X62862500Y-55995000D03*
%TD*%
D20*
%TO.C,C223*%
X209487499Y-42430000D03*
X209487499Y-43930000D03*
%TD*%
D23*
%TO.C,U89*%
X267017500Y-19050000D03*
X256857500Y-19050000D03*
D24*
X260987500Y-17895000D03*
X261937500Y-20245000D03*
X262887500Y-17895000D03*
%TD*%
D20*
%TO.C,C104*%
X4699999Y-4330000D03*
X4699999Y-5830000D03*
%TD*%
D23*
%TO.C,U92*%
X252729999Y-76200000D03*
X242570001Y-76200000D03*
D24*
X246700000Y-75045000D03*
X247650000Y-77395000D03*
X248600000Y-75045000D03*
%TD*%
D23*
%TO.C,U37*%
X86042499Y-57150000D03*
X75882501Y-57150000D03*
D24*
X80012500Y-55995000D03*
X80962500Y-58345000D03*
X81912500Y-55995000D03*
%TD*%
D23*
%TO.C,U18*%
X38417499Y-38100000D03*
X28257501Y-38100000D03*
D24*
X32387500Y-36945000D03*
X33337500Y-39295000D03*
X34287500Y-36945000D03*
%TD*%
D19*
%TO.C,C66*%
X169187500Y-37830000D03*
X169187500Y-36870000D03*
%TD*%
%TO.C,C141*%
X59412500Y-56880000D03*
X59412500Y-55920000D03*
%TD*%
D20*
%TO.C,C221*%
X190437499Y-42430000D03*
X190437499Y-43930000D03*
%TD*%
D23*
%TO.C,U65*%
X186054999Y-19050000D03*
X175895001Y-19050000D03*
D24*
X180025000Y-17895000D03*
X180975000Y-20245000D03*
X181925000Y-17895000D03*
%TD*%
D19*
%TO.C,C72*%
X188237500Y-37830000D03*
X188237500Y-36870000D03*
%TD*%
%TO.C,C41*%
X88225000Y-18780000D03*
X88225000Y-17820000D03*
%TD*%
%TO.C,C95*%
X264437500Y-18780000D03*
X264437500Y-17820000D03*
%TD*%
D23*
%TO.C,U10*%
X5079999Y0D03*
X-5079999Y0D03*
D24*
X-950000Y1155000D03*
X0Y-1195000D03*
X950000Y1155000D03*
%TD*%
D20*
%TO.C,C228*%
X209612501Y-62979999D03*
X209612501Y-61479999D03*
%TD*%
D19*
%TO.C,C34*%
X59650000Y270000D03*
X59650000Y1230000D03*
%TD*%
D29*
%TO.C,C155*%
X86242500Y-32635938D03*
X85282500Y-32635938D03*
%TD*%
D20*
%TO.C,C224*%
X171512501Y-62979999D03*
X171512501Y-61479999D03*
%TD*%
D29*
%TO.C,C151*%
X233880000Y-32635938D03*
X232920000Y-32635938D03*
%TD*%
D20*
%TO.C,C235*%
X55896874Y-80530000D03*
X55896874Y-82030000D03*
%TD*%
D23*
%TO.C,U26*%
X55086250Y-76200000D03*
X44926250Y-76200000D03*
D31*
X51161250Y-75250000D03*
X48811250Y-76200000D03*
X51161250Y-77150000D03*
%TD*%
D23*
%TO.C,U12*%
X12223750Y-38100000D03*
X2063750Y-38100000D03*
D24*
X6193750Y-36945000D03*
X7143750Y-39295000D03*
X8093750Y-36945000D03*
%TD*%
D20*
%TO.C,C236*%
X126143749Y-80530000D03*
X126143749Y-82030000D03*
%TD*%
D19*
%TO.C,C28*%
X40600000Y270000D03*
X40600000Y1230000D03*
%TD*%
D23*
%TO.C,U83*%
X243204999Y-19050000D03*
X233045001Y-19050000D03*
D24*
X237175000Y-17895000D03*
X238125000Y-20245000D03*
X239075000Y-17895000D03*
%TD*%
D19*
%TO.C,C140*%
X135612500Y-56880000D03*
X135612500Y-55920000D03*
%TD*%
D23*
%TO.C,U101*%
X290829999Y-19050000D03*
X280670001Y-19050000D03*
D24*
X284800000Y-17895000D03*
X285750000Y-20245000D03*
X286700000Y-17895000D03*
%TD*%
D32*
%TO.C,U33*%
X23812500Y-65405000D03*
D33*
X23812500Y-50165000D03*
D23*
X16986250Y-57150000D03*
X6826250Y-57150000D03*
D32*
X0Y-65405000D03*
D33*
X0Y-50165000D03*
D24*
X10956250Y-55995000D03*
X11906250Y-58345000D03*
X12856250Y-55995000D03*
%TD*%
D20*
%TO.C,C233*%
X8271874Y-80530000D03*
X8271874Y-82030000D03*
%TD*%
D19*
%TO.C,C96*%
X102275000Y-18780000D03*
X102275000Y-17820000D03*
%TD*%
D34*
%TO.C,U27*%
X22644788Y-33761764D03*
X22361945Y-34044607D03*
X22079103Y-34327449D03*
X21796260Y-34610292D03*
X21513417Y-34893135D03*
X21230574Y-35175978D03*
X20947732Y-35458820D03*
X20664889Y-35741663D03*
D35*
X19816361Y-35741663D03*
X19533518Y-35458820D03*
X19250676Y-35175978D03*
X18967833Y-34893135D03*
X18684990Y-34610292D03*
X18402147Y-34327449D03*
X18119305Y-34044607D03*
X17836462Y-33761764D03*
D34*
X17836462Y-32913236D03*
X18119305Y-32630393D03*
X18402147Y-32347551D03*
X18684990Y-32064708D03*
X18967833Y-31781865D03*
X19250676Y-31499022D03*
X19533518Y-31216180D03*
X19816361Y-30933337D03*
D35*
X20664889Y-30933337D03*
X20947732Y-31216180D03*
X21230574Y-31499022D03*
X21513417Y-31781865D03*
X21796260Y-32064708D03*
X22079103Y-32347551D03*
X22361945Y-32630393D03*
X22644788Y-32913236D03*
D36*
X20240625Y-33337500D03*
%TD*%
D19*
%TO.C,C43*%
X64412500Y-56880000D03*
X64412500Y-55920000D03*
%TD*%
D20*
%TO.C,C103*%
X80899999Y-4330000D03*
X80899999Y-5830000D03*
%TD*%
%TO.C,C183*%
X261874999Y-4330000D03*
X261874999Y-5830000D03*
%TD*%
D29*
%TO.C,C2*%
X10042500Y-32635938D03*
X9082500Y-32635938D03*
%TD*%
D19*
%TO.C,C184*%
X288250000Y-18780000D03*
X288250000Y-17820000D03*
%TD*%
%TO.C,C93*%
X26075000Y-18780000D03*
X26075000Y-17820000D03*
%TD*%
%TO.C,C130*%
X4643750Y-37830000D03*
X4643750Y-36870000D03*
%TD*%
D29*
%TO.C,C14*%
X1282500Y-13496875D03*
X2242500Y-13496875D03*
%TD*%
D19*
%TO.C,R4*%
X-2237500Y-7690000D03*
X-2237500Y-8650000D03*
%TD*%
%TO.C,C89*%
X240625000Y-18780000D03*
X240625000Y-17820000D03*
%TD*%
D23*
%TO.C,U104*%
X290829999Y-76200000D03*
X280670001Y-76200000D03*
D24*
X284800000Y-75045000D03*
X285750000Y-77395000D03*
X286700000Y-75045000D03*
%TD*%
D19*
%TO.C,C177*%
X135850000Y-75930000D03*
X135850000Y-74970000D03*
%TD*%
%TO.C,C63*%
X149900000Y270000D03*
X149900000Y1230000D03*
%TD*%
D20*
%TO.C,C194*%
X119125001Y-24879999D03*
X119125001Y-23379999D03*
%TD*%
D19*
%TO.C,C88*%
X231100000Y270000D03*
X231100000Y1230000D03*
%TD*%
D20*
%TO.C,C240*%
X252349999Y-80530000D03*
X252349999Y-82030000D03*
%TD*%
D25*
%TO.C,U51*%
X154262500Y-32635938D03*
X154262500Y-31985938D03*
X154262500Y-31335938D03*
X154262500Y-30685938D03*
X154262500Y-30035938D03*
X154262500Y-29385938D03*
X154262500Y-28735938D03*
X154262500Y-28085938D03*
X160062500Y-28085938D03*
X160062500Y-28735938D03*
X160062500Y-29385938D03*
X160062500Y-30035938D03*
X160062500Y-30685938D03*
X160062500Y-31335938D03*
X160062500Y-31985938D03*
X160062500Y-32635938D03*
%TD*%
D23*
%TO.C,U17*%
X33654999Y-19050000D03*
X23495001Y-19050000D03*
D24*
X27625000Y-17895000D03*
X28575000Y-20245000D03*
X29525000Y-17895000D03*
%TD*%
D29*
%TO.C,C4*%
X233880000Y-51785938D03*
X232920000Y-51785938D03*
%TD*%
D20*
%TO.C,C195*%
X138175001Y-24879999D03*
X138175001Y-23379999D03*
%TD*%
D19*
%TO.C,C37*%
X45362500Y-56880000D03*
X45362500Y-55920000D03*
%TD*%
D28*
%TO.C,TP4*%
X20240625Y-28537500D03*
%TD*%
D20*
%TO.C,C179*%
X195199999Y-4330000D03*
X195199999Y-5830000D03*
%TD*%
D23*
%TO.C,U102*%
X290829999Y-38100000D03*
X280670001Y-38100000D03*
D24*
X284800000Y-36945000D03*
X285750000Y-39295000D03*
X286700000Y-36945000D03*
%TD*%
D20*
%TO.C,C206*%
X7206251Y-62979999D03*
X7206251Y-61479999D03*
%TD*%
D19*
%TO.C,C137*%
X192762500Y-56880000D03*
X192762500Y-55920000D03*
%TD*%
%TO.C,C168*%
X14406250Y-56880000D03*
X14406250Y-55920000D03*
%TD*%
D32*
%TO.C,U3*%
X269081250Y-8255000D03*
D33*
X269081250Y6985000D03*
D23*
X262255000Y0D03*
X252095000Y0D03*
D32*
X245268750Y-8255000D03*
D33*
X245268750Y6985000D03*
D24*
X256225000Y1155000D03*
X257175000Y-1195000D03*
X258125000Y1155000D03*
%TD*%
D19*
%TO.C,C113*%
X252293750Y-37830000D03*
X252293750Y-36870000D03*
%TD*%
D37*
%TO.C,C10*%
X17638473Y-30169662D03*
X18317295Y-30848484D03*
%TD*%
D25*
%TO.C,U62*%
X225700000Y-32635938D03*
X225700000Y-31985938D03*
X225700000Y-31335938D03*
X225700000Y-30685938D03*
X225700000Y-30035938D03*
X225700000Y-29385938D03*
X225700000Y-28735938D03*
X225700000Y-28085938D03*
X231500000Y-28085938D03*
X231500000Y-28735938D03*
X231500000Y-29385938D03*
X231500000Y-30035938D03*
X231500000Y-30685938D03*
X231500000Y-31335938D03*
X231500000Y-31985938D03*
X231500000Y-32635938D03*
%TD*%
D19*
%TO.C,C52*%
X116800000Y270000D03*
X116800000Y1230000D03*
%TD*%
%TO.C,C51*%
X-2500000Y270000D03*
X-2500000Y1230000D03*
%TD*%
%TO.C,C85*%
X197762500Y-56880000D03*
X197762500Y-55920000D03*
%TD*%
%TO.C,C31*%
X26312500Y-56880000D03*
X26312500Y-55920000D03*
%TD*%
%TO.C,C124*%
X145137500Y-37830000D03*
X145137500Y-36870000D03*
%TD*%
%TO.C,C118*%
X283250000Y-37830000D03*
X283250000Y-36870000D03*
%TD*%
D23*
%TO.C,U34*%
X81279999Y0D03*
X71120001Y0D03*
D24*
X75250000Y1155000D03*
X76200000Y-1195000D03*
X77150000Y1155000D03*
%TD*%
D23*
%TO.C,U35*%
X90804999Y-19050000D03*
X80645001Y-19050000D03*
D24*
X84775000Y-17895000D03*
X85725000Y-20245000D03*
X86675000Y-17895000D03*
%TD*%
D19*
%TO.C,C53*%
X126325000Y-18780000D03*
X126325000Y-17820000D03*
%TD*%
D20*
%TO.C,C199*%
X214375001Y-24879999D03*
X214375001Y-23379999D03*
%TD*%
D19*
%TO.C,C80*%
X226100000Y270000D03*
X226100000Y1230000D03*
%TD*%
%TO.C,C107*%
X243006250Y-56880000D03*
X243006250Y-55920000D03*
%TD*%
D20*
%TO.C,C110*%
X99949999Y-4330000D03*
X99949999Y-5830000D03*
%TD*%
D19*
%TO.C,C139*%
X154662500Y-56880000D03*
X154662500Y-55920000D03*
%TD*%
D29*
%TO.C,C6*%
X48142500Y-32635938D03*
X47182500Y-32635938D03*
%TD*%
D20*
%TO.C,C150*%
X118999999Y-4330000D03*
X118999999Y-5830000D03*
%TD*%
D19*
%TO.C,C7*%
X7362500Y-9616875D03*
X7362500Y-10576875D03*
%TD*%
%TO.C,C143*%
X97512500Y-56880000D03*
X97512500Y-55920000D03*
%TD*%
%TO.C,C111*%
X197525000Y-18780000D03*
X197525000Y-17820000D03*
%TD*%
D23*
%TO.C,U6*%
X57467500Y-76200000D03*
X47307500Y-76200000D03*
D31*
X53542500Y-75250000D03*
X51192500Y-76200000D03*
X53542500Y-77150000D03*
%TD*%
D19*
%TO.C,C76*%
X193000000Y270000D03*
X193000000Y1230000D03*
%TD*%
D38*
%TO.C,U85*%
X3762500Y-11696875D03*
X4262500Y-11696875D03*
X4762500Y-11696875D03*
X5262500Y-11696875D03*
X5762500Y-11696875D03*
X5762500Y-14496875D03*
X5262500Y-14496875D03*
X4762500Y-14496875D03*
X4262500Y-14496875D03*
X3762500Y-14496875D03*
D39*
X4762500Y-13096875D03*
%TD*%
D29*
%TO.C,C169*%
X12492500Y-77050000D03*
X11532500Y-77050000D03*
%TD*%
D19*
%TO.C,C45*%
X111800000Y270000D03*
X111800000Y1230000D03*
%TD*%
%TO.C,C67*%
X140612500Y-56880000D03*
X140612500Y-55920000D03*
%TD*%
%TO.C,C109*%
X288250000Y-56880000D03*
X288250000Y-55920000D03*
%TD*%
%TO.C,C133*%
X40362500Y-56880000D03*
X40362500Y-55920000D03*
%TD*%
D20*
%TO.C,C239*%
X220203124Y-80530000D03*
X220203124Y-82030000D03*
%TD*%
D25*
%TO.C,U74*%
X276658750Y-51785938D03*
X276658750Y-51135938D03*
X276658750Y-50485938D03*
X276658750Y-49835938D03*
X276658750Y-49185938D03*
X276658750Y-48535938D03*
X276658750Y-47885938D03*
X276658750Y-47235938D03*
X282458750Y-47235938D03*
X282458750Y-47885938D03*
X282458750Y-48535938D03*
X282458750Y-49185938D03*
X282458750Y-49835938D03*
X282458750Y-50485938D03*
X282458750Y-51135938D03*
X282458750Y-51785938D03*
%TD*%
D19*
%TO.C,C29*%
X50125000Y-18780000D03*
X50125000Y-17820000D03*
%TD*%
D20*
%TO.C,C196*%
X157225001Y-24879999D03*
X157225001Y-23379999D03*
%TD*%
%TO.C,C215*%
X133287499Y-42430000D03*
X133287499Y-43930000D03*
%TD*%
D23*
%TO.C,U36*%
X95567499Y-38100000D03*
X85407501Y-38100000D03*
D24*
X89537500Y-36945000D03*
X90487500Y-39295000D03*
X91437500Y-36945000D03*
%TD*%
D20*
%TO.C,C222*%
X152462501Y-62979999D03*
X152462501Y-61479999D03*
%TD*%
D23*
%TO.C,U70*%
X195579999Y0D03*
X185420001Y0D03*
D24*
X189550000Y1155000D03*
X190500000Y-1195000D03*
X191450000Y1155000D03*
%TD*%
D23*
%TO.C,U8*%
X219392500Y-76200000D03*
X209232500Y-76200000D03*
D31*
X215467500Y-75250000D03*
X213117500Y-76200000D03*
X215467500Y-77150000D03*
%TD*%
D19*
%TO.C,C86*%
X283250000Y270000D03*
X283250000Y1230000D03*
%TD*%
D23*
%TO.C,U43*%
X105092499Y-57150000D03*
X94932501Y-57150000D03*
D24*
X99062500Y-55995000D03*
X100012500Y-58345000D03*
X100962500Y-55995000D03*
%TD*%
D23*
%TO.C,U15*%
X197961250Y-76200000D03*
X187801250Y-76200000D03*
D24*
X191931250Y-75045000D03*
X192881250Y-77395000D03*
X193831250Y-75045000D03*
%TD*%
D19*
%TO.C,R2*%
X7799999Y115344D03*
X7799999Y1075344D03*
%TD*%
%TO.C,C79*%
X178712500Y-56880000D03*
X178712500Y-55920000D03*
%TD*%
D20*
%TO.C,C62*%
X42799999Y-4330000D03*
X42799999Y-5830000D03*
%TD*%
D23*
%TO.C,U103*%
X290829999Y-57150000D03*
X280670001Y-57150000D03*
D24*
X284800000Y-55995000D03*
X285750000Y-58345000D03*
X286700000Y-55995000D03*
%TD*%
D23*
%TO.C,U52*%
X138429999Y0D03*
X128270001Y0D03*
D24*
X132400000Y1155000D03*
X133350000Y-1195000D03*
X134300000Y1155000D03*
%TD*%
D23*
%TO.C,U97*%
X271779999Y-57150000D03*
X261620001Y-57150000D03*
D24*
X265750000Y-55995000D03*
X266700000Y-58345000D03*
X267650000Y-55995000D03*
%TD*%
D23*
%TO.C,U22*%
X43179999Y0D03*
X33020001Y0D03*
D24*
X37150000Y1155000D03*
X38100000Y-1195000D03*
X39050000Y1155000D03*
%TD*%
D20*
%TO.C,C50*%
X23749999Y-4330000D03*
X23749999Y-5830000D03*
%TD*%
D19*
%TO.C,C97*%
X216812500Y-56880000D03*
X216812500Y-55920000D03*
%TD*%
D20*
%TO.C,C229*%
X290449999Y-42430000D03*
X290449999Y-43930000D03*
%TD*%
D23*
%TO.C,U5*%
X33655000Y-76200000D03*
X23495000Y-76200000D03*
D31*
X29730000Y-75250000D03*
X27380000Y-76200000D03*
X29730000Y-77150000D03*
%TD*%
D23*
%TO.C,U67*%
X181292499Y-57150000D03*
X171132501Y-57150000D03*
D24*
X175262500Y-55995000D03*
X176212500Y-58345000D03*
X177162500Y-55995000D03*
%TD*%
D19*
%TO.C,C126*%
X107037500Y-37830000D03*
X107037500Y-36870000D03*
%TD*%
D20*
%TO.C,C237*%
X138049999Y-80530000D03*
X138049999Y-82030000D03*
%TD*%
%TO.C,C166*%
X157099999Y-4330000D03*
X157099999Y-5830000D03*
%TD*%
D23*
%TO.C,U54*%
X152717499Y-38100000D03*
X142557501Y-38100000D03*
D24*
X146687500Y-36945000D03*
X147637500Y-39295000D03*
X148587500Y-36945000D03*
%TD*%
D23*
%TO.C,U53*%
X147954999Y-19050000D03*
X137795001Y-19050000D03*
D24*
X141925000Y-17895000D03*
X142875000Y-20245000D03*
X143825000Y-17895000D03*
%TD*%
D19*
%TO.C,C64*%
X154900000Y270000D03*
X154900000Y1230000D03*
%TD*%
D23*
%TO.C,U29*%
X71754999Y-19050000D03*
X61595001Y-19050000D03*
D24*
X65725000Y-17895000D03*
X66675000Y-20245000D03*
X67625000Y-17895000D03*
%TD*%
D19*
%TO.C,C49*%
X83462500Y-56880000D03*
X83462500Y-55920000D03*
%TD*%
%TO.C,C82*%
X212050000Y270000D03*
X212050000Y1230000D03*
%TD*%
%TO.C,C138*%
X173712500Y-56880000D03*
X173712500Y-55920000D03*
%TD*%
D20*
%TO.C,C218*%
X114362501Y-62979999D03*
X114362501Y-61479999D03*
%TD*%
D40*
%TO.C,J2*%
X17513610Y-8284344D03*
X17513610Y-13884344D03*
D41*
X13638610Y-9584344D03*
X13638611Y-10584344D03*
X13638611Y-11584344D03*
X13638610Y-12584344D03*
%TD*%
D23*
%TO.C,U14*%
X7461250Y-76200000D03*
X-2698750Y-76200000D03*
D31*
X3536250Y-75250000D03*
X1186250Y-76200000D03*
X3536250Y-77150000D03*
%TD*%
D19*
%TO.C,C55*%
X102512500Y-56880000D03*
X102512500Y-55920000D03*
%TD*%
%TO.C,C116*%
X283250000Y-18780000D03*
X283250000Y-17820000D03*
%TD*%
%TO.C,C38*%
X54650000Y270000D03*
X54650000Y1230000D03*
%TD*%
D23*
%TO.C,U40*%
X100329999Y0D03*
X90170001Y0D03*
D24*
X94300000Y1155000D03*
X95250000Y-1195000D03*
X96200000Y1155000D03*
%TD*%
D29*
%TO.C,C158*%
X210832500Y-74450000D03*
X211792500Y-74450000D03*
%TD*%
D20*
%TO.C,C238*%
X197581249Y-79530000D03*
X197581249Y-81030000D03*
%TD*%
%TO.C,C167*%
X176149999Y-4330000D03*
X176149999Y-5830000D03*
%TD*%
D42*
%TO.C,R35*%
X16620238Y-32545540D03*
X15941416Y-31866718D03*
%TD*%
D20*
%TO.C,C205*%
X38037499Y-42430000D03*
X38037499Y-43930000D03*
%TD*%
D19*
%TO.C,C46*%
X97750000Y270000D03*
X97750000Y1230000D03*
%TD*%
%TO.C,C69*%
X188000000Y270000D03*
X188000000Y1230000D03*
%TD*%
D29*
%TO.C,C149*%
X46526250Y-74450000D03*
X47486250Y-74450000D03*
%TD*%
%TO.C,C1*%
X3230000Y2499999D03*
X2270000Y2499999D03*
%TD*%
D20*
%TO.C,C189*%
X23875001Y-24879999D03*
X23875001Y-23379999D03*
%TD*%
D19*
%TO.C,C74*%
X207050000Y270000D03*
X207050000Y1230000D03*
%TD*%
D20*
%TO.C,C212*%
X57212501Y-62979999D03*
X57212501Y-61479999D03*
%TD*%
D25*
%TO.C,U2*%
X1862500Y-32635938D03*
X1862500Y-31985938D03*
X1862500Y-31335938D03*
X1862500Y-30685938D03*
X1862500Y-30035938D03*
X1862500Y-29385938D03*
X1862500Y-28735938D03*
X1862500Y-28085938D03*
X7662500Y-28085938D03*
X7662500Y-28735938D03*
X7662500Y-29385938D03*
X7662500Y-30035938D03*
X7662500Y-30685938D03*
X7662500Y-31335938D03*
X7662500Y-31985938D03*
X7662500Y-32635938D03*
%TD*%
D19*
%TO.C,C163*%
X130850000Y-75930000D03*
X130850000Y-74970000D03*
%TD*%
D20*
%TO.C,C188*%
X62501Y-24879999D03*
X62501Y-23379999D03*
%TD*%
D19*
%TO.C,C32*%
X35700000Y-11804344D03*
X35700000Y-12764344D03*
%TD*%
D23*
%TO.C,U47*%
X128904999Y-19050000D03*
X118745001Y-19050000D03*
D24*
X122875000Y-17895000D03*
X123825000Y-20245000D03*
X124775000Y-17895000D03*
%TD*%
D20*
%TO.C,C211*%
X95187499Y-42430000D03*
X95187499Y-43930000D03*
%TD*%
%TO.C,C230*%
X235806251Y-62979999D03*
X235806251Y-61479999D03*
%TD*%
D19*
%TO.C,C112*%
X216575000Y-18780000D03*
X216575000Y-17820000D03*
%TD*%
D20*
%TO.C,C207*%
X57087499Y-42430000D03*
X57087499Y-43930000D03*
%TD*%
D19*
%TO.C,C68*%
X168950000Y270000D03*
X168950000Y1230000D03*
%TD*%
%TO.C,C27*%
X16550000Y270000D03*
X16550000Y1230000D03*
%TD*%
D29*
%TO.C,R1*%
X3230000Y3499999D03*
X2270000Y3499999D03*
%TD*%
D23*
%TO.C,U71*%
X205104999Y-19050000D03*
X194945001Y-19050000D03*
D24*
X199075000Y-17895000D03*
X200025000Y-20245000D03*
X200975000Y-17895000D03*
%TD*%
D19*
%TO.C,C94*%
X250150000Y270000D03*
X250150000Y1230000D03*
%TD*%
%TO.C,C15*%
X259675000Y270000D03*
X259675000Y1230000D03*
%TD*%
D43*
%TO.C,L1*%
X6012500Y-9696875D03*
X3512500Y-9696875D03*
%TD*%
D19*
%TO.C,C142*%
X78462500Y-56880000D03*
X78462500Y-55920000D03*
%TD*%
D20*
%TO.C,C162*%
X138049999Y-4330000D03*
X138049999Y-5830000D03*
%TD*%
D29*
%TO.C,C20*%
X1282500Y-12496875D03*
X2242500Y-12496875D03*
%TD*%
D23*
%TO.C,U80*%
X28892499Y-57150000D03*
X18732501Y-57150000D03*
D24*
X22862500Y-55995000D03*
X23812500Y-58345000D03*
X24762500Y-55995000D03*
%TD*%
D44*
%TO.C,USB1*%
X6160000Y3931000D03*
X11940000Y3931000D03*
D45*
X5825000Y2486000D03*
X6600000Y2486000D03*
D46*
X7300000Y2486000D03*
X7800000Y2486000D03*
X8300000Y2486000D03*
X8800000Y2486000D03*
X9300000Y2486000D03*
X9800000Y2486000D03*
X10300000Y2486000D03*
X10800000Y2486000D03*
D45*
X11500000Y2486000D03*
X12275000Y2486000D03*
D47*
X4730000Y7581000D03*
D48*
X4730000Y3401000D03*
D47*
X13370000Y7581000D03*
D48*
X13370000Y3401000D03*
%TD*%
D19*
%TO.C,C90*%
X257293750Y-37830000D03*
X257293750Y-36870000D03*
%TD*%
%TO.C,C114*%
X235625000Y-18780000D03*
X235625000Y-17820000D03*
%TD*%
D23*
%TO.C,U100*%
X290829999Y0D03*
X280670001Y0D03*
D24*
X284800000Y1155000D03*
X285750000Y-1195000D03*
X286700000Y1155000D03*
%TD*%
D20*
%TO.C,C208*%
X19112501Y-62979999D03*
X19112501Y-61479999D03*
%TD*%
D49*
%TO.C,U19*%
X37150000Y-9946844D03*
X38100000Y-9946844D03*
X39050000Y-9946844D03*
X39050000Y-12221844D03*
X37150000Y-12221844D03*
%TD*%
D23*
%TO.C,U28*%
X62229999Y0D03*
X52070001Y0D03*
D24*
X56200000Y1155000D03*
X57150000Y-1195000D03*
X58100000Y1155000D03*
%TD*%
D19*
%TO.C,C172*%
X250150000Y-75930000D03*
X250150000Y-74970000D03*
%TD*%
%TO.C,C92*%
X83225000Y-18780000D03*
X83225000Y-17820000D03*
%TD*%
%TO.C,C101*%
X140375000Y-18780000D03*
X140375000Y-17820000D03*
%TD*%
D23*
%TO.C,U94*%
X271779999Y0D03*
X261620001Y0D03*
D24*
X265750000Y1155000D03*
X266700000Y-1195000D03*
X267650000Y1155000D03*
%TD*%
D23*
%TO.C,U42*%
X114617499Y-38100000D03*
X104457501Y-38100000D03*
D24*
X108587500Y-36945000D03*
X109537500Y-39295000D03*
X110487500Y-36945000D03*
%TD*%
D20*
%TO.C,C214*%
X76262501Y-62979999D03*
X76262501Y-61479999D03*
%TD*%
%TO.C,C98*%
X61849999Y-4330000D03*
X61849999Y-5830000D03*
%TD*%
D19*
%TO.C,C59*%
X145375000Y-18780000D03*
X145375000Y-17820000D03*
%TD*%
D20*
%TO.C,C204*%
X-2318749Y-62979999D03*
X-2318749Y-61479999D03*
%TD*%
%TO.C,C191*%
X61975001Y-24879999D03*
X61975001Y-23379999D03*
%TD*%
D25*
%TO.C,U38*%
X78062500Y-32635938D03*
X78062500Y-31985938D03*
X78062500Y-31335938D03*
X78062500Y-30685938D03*
X78062500Y-30035938D03*
X78062500Y-29385938D03*
X78062500Y-28735938D03*
X78062500Y-28085938D03*
X83862500Y-28085938D03*
X83862500Y-28735938D03*
X83862500Y-29385938D03*
X83862500Y-30035938D03*
X83862500Y-30685938D03*
X83862500Y-31335938D03*
X83862500Y-31985938D03*
X83862500Y-32635938D03*
%TD*%
D23*
%TO.C,U4*%
X9842500Y-76200000D03*
X-317500Y-76200000D03*
D31*
X5917500Y-75250000D03*
X3567500Y-76200000D03*
X5917500Y-77150000D03*
%TD*%
D23*
%TO.C,U91*%
X245586250Y-57150000D03*
X235426250Y-57150000D03*
D24*
X239556250Y-55995000D03*
X240506250Y-58345000D03*
X241456250Y-55995000D03*
%TD*%
D23*
%TO.C,U11*%
X9842500Y-19050000D03*
X-317500Y-19050000D03*
D24*
X3812500Y-17895000D03*
X4762500Y-20245000D03*
X5712500Y-17895000D03*
%TD*%
D19*
%TO.C,C40*%
X78700000Y270000D03*
X78700000Y1230000D03*
%TD*%
%TO.C,C132*%
X-118750Y-56880000D03*
X-118750Y-55920000D03*
%TD*%
D28*
%TO.C,TP1*%
X16240625Y-25537500D03*
%TD*%
D19*
%TO.C,C108*%
X269200000Y-56880000D03*
X269200000Y-55920000D03*
%TD*%
%TO.C,C78*%
X207287500Y-37830000D03*
X207287500Y-36870000D03*
%TD*%
D20*
%TO.C,C187*%
X290449999Y-4330000D03*
X290449999Y-5830000D03*
%TD*%
D19*
%TO.C,C100*%
X269200000Y270000D03*
X269200000Y1230000D03*
%TD*%
%TO.C,C144*%
X116562500Y-56880000D03*
X116562500Y-55920000D03*
%TD*%
D20*
%TO.C,C182*%
X252349999Y-4330000D03*
X252349999Y-5830000D03*
%TD*%
D25*
%TO.C,U32*%
X39962500Y-32635938D03*
X39962500Y-31985938D03*
X39962500Y-31335938D03*
X39962500Y-30685938D03*
X39962500Y-30035938D03*
X39962500Y-29385938D03*
X39962500Y-28735938D03*
X39962500Y-28085938D03*
X45762500Y-28085938D03*
X45762500Y-28735938D03*
X45762500Y-29385938D03*
X45762500Y-30035938D03*
X45762500Y-30685938D03*
X45762500Y-31335938D03*
X45762500Y-31985938D03*
X45762500Y-32635938D03*
%TD*%
D23*
%TO.C,U73*%
X200342499Y-57150000D03*
X190182501Y-57150000D03*
D24*
X194312500Y-55995000D03*
X195262500Y-58345000D03*
X196212500Y-55995000D03*
%TD*%
D20*
%TO.C,C190*%
X42925001Y-24879999D03*
X42925001Y-23379999D03*
%TD*%
D32*
%TO.C,U84*%
X266700001Y-29845000D03*
D33*
X266700000Y-45085000D03*
D23*
X259873749Y-38100000D03*
X249713751Y-38100000D03*
D33*
X242887500Y-45085000D03*
D32*
X242887499Y-29845000D03*
D24*
X253843750Y-36945000D03*
X254793750Y-39295000D03*
X255743750Y-36945000D03*
%TD*%
D23*
%TO.C,U41*%
X109854999Y-19050000D03*
X99695001Y-19050000D03*
D24*
X103825000Y-17895000D03*
X104775000Y-20245000D03*
X105725000Y-17895000D03*
%TD*%
D23*
%TO.C,U48*%
X133667499Y-38100000D03*
X123507501Y-38100000D03*
D24*
X127637500Y-36945000D03*
X128587500Y-39295000D03*
X129537500Y-36945000D03*
%TD*%
D20*
%TO.C,C201*%
X257237501Y-24879999D03*
X257237501Y-23379999D03*
%TD*%
D19*
%TO.C,C57*%
X130850000Y270000D03*
X130850000Y1230000D03*
%TD*%
%TO.C,C65*%
X164425000Y-18780000D03*
X164425000Y-17820000D03*
%TD*%
D23*
%TO.C,U60*%
X171767499Y-38100000D03*
X161607501Y-38100000D03*
D24*
X165737500Y-36945000D03*
X166687500Y-39295000D03*
X167637500Y-36945000D03*
%TD*%
D29*
%TO.C,C147*%
X-1098750Y-74450000D03*
X-138750Y-74450000D03*
%TD*%
D19*
%TO.C,C174*%
X288250000Y-75930000D03*
X288250000Y-74970000D03*
%TD*%
D29*
%TO.C,C170*%
X36305000Y-77050000D03*
X35345000Y-77050000D03*
%TD*%
D19*
%TO.C,C25*%
X51950000Y-11964344D03*
X51950000Y-11004344D03*
%TD*%
D23*
%TO.C,U64*%
X176529999Y0D03*
X166370001Y0D03*
D24*
X170500000Y1155000D03*
X171450000Y-1195000D03*
X172400000Y1155000D03*
%TD*%
D29*
%TO.C,C154*%
X162442500Y-32635938D03*
X161482500Y-32635938D03*
%TD*%
D33*
%TO.C,U7*%
X190500000Y-83185000D03*
D32*
X190500000Y-67945000D03*
D23*
X138430000Y-76200000D03*
X128270000Y-76200000D03*
D33*
X76200000Y-83185000D03*
D32*
X76200000Y-67945000D03*
D24*
X132400000Y-75045000D03*
X133350000Y-77395000D03*
X134300000Y-75045000D03*
%TD*%
D23*
%TO.C,U59*%
X167004999Y-19050000D03*
X156845001Y-19050000D03*
D24*
X160975000Y-17895000D03*
X161925000Y-20245000D03*
X162875000Y-17895000D03*
%TD*%
D19*
%TO.C,C70*%
X173950000Y270000D03*
X173950000Y1230000D03*
%TD*%
D20*
%TO.C,C225*%
X228537499Y-42430000D03*
X228537499Y-43930000D03*
%TD*%
D19*
%TO.C,C119*%
X221337500Y-37830000D03*
X221337500Y-36870000D03*
%TD*%
D25*
%TO.C,U69*%
X225700000Y-51785938D03*
X225700000Y-51135938D03*
X225700000Y-50485938D03*
X225700000Y-49835938D03*
X225700000Y-49185938D03*
X225700000Y-48535938D03*
X225700000Y-47885938D03*
X225700000Y-47235938D03*
X231500000Y-47235938D03*
X231500000Y-47885938D03*
X231500000Y-48535938D03*
X231500000Y-49185938D03*
X231500000Y-49835938D03*
X231500000Y-50485938D03*
X231500000Y-51135938D03*
X231500000Y-51785938D03*
%TD*%
D23*
%TO.C,U78*%
X228917499Y-38100000D03*
X218757501Y-38100000D03*
D24*
X222887500Y-36945000D03*
X223837500Y-39295000D03*
X224787500Y-36945000D03*
%TD*%
D19*
%TO.C,C131*%
X9406250Y-56880000D03*
X9406250Y-55920000D03*
%TD*%
D22*
%TO.C,C11*%
X23393435Y-37225702D03*
X22714613Y-37904524D03*
%TD*%
D23*
%TO.C,U16*%
X24129999Y0D03*
X13970001Y0D03*
D24*
X18100000Y1155000D03*
X19050000Y-1195000D03*
X20000000Y1155000D03*
%TD*%
D19*
%TO.C,C77*%
X202525000Y-18780000D03*
X202525000Y-17820000D03*
%TD*%
D20*
%TO.C,C217*%
X152337499Y-42430000D03*
X152337499Y-43930000D03*
%TD*%
D19*
%TO.C,C157*%
X190381250Y-75930000D03*
X190381250Y-74970000D03*
%TD*%
D20*
%TO.C,C200*%
X233425001Y-24879999D03*
X233425001Y-23379999D03*
%TD*%
D19*
%TO.C,C16*%
X2500000Y270000D03*
X2500000Y1230000D03*
%TD*%
%TO.C,C83*%
X221575000Y-18780000D03*
X221575000Y-17820000D03*
%TD*%
D50*
%TO.C,R113*%
X7362500Y-11586875D03*
X7362500Y-12606875D03*
%TD*%
D19*
%TO.C,C87*%
X45125000Y-18780000D03*
X45125000Y-17820000D03*
%TD*%
%TO.C,C106*%
X288250000Y270000D03*
X288250000Y1230000D03*
%TD*%
%TO.C,C39*%
X73700000Y270000D03*
X73700000Y1230000D03*
%TD*%
%TO.C,C146*%
X21312500Y-56880000D03*
X21312500Y-55920000D03*
%TD*%
%TO.C,C26*%
X35700000Y-10364344D03*
X35700000Y-9404344D03*
%TD*%
D20*
%TO.C,C213*%
X114237499Y-42430000D03*
X114237499Y-43930000D03*
%TD*%
%TO.C,C242*%
X290449999Y-80530000D03*
X290449999Y-82030000D03*
%TD*%
D19*
%TO.C,C54*%
X131087500Y-37830000D03*
X131087500Y-36870000D03*
%TD*%
%TO.C,C136*%
X211812500Y-56880000D03*
X211812500Y-55920000D03*
%TD*%
%TO.C,C102*%
X159425000Y-18780000D03*
X159425000Y-17820000D03*
%TD*%
%TO.C,C47*%
X107275000Y-18780000D03*
X107275000Y-17820000D03*
%TD*%
%TO.C,C153*%
X118943750Y-75930000D03*
X118943750Y-74970000D03*
%TD*%
D20*
%TO.C,C219*%
X171387499Y-42430000D03*
X171387499Y-43930000D03*
%TD*%
D19*
%TO.C,C185*%
X288250000Y-37830000D03*
X288250000Y-36870000D03*
%TD*%
D51*
%TO.C,C165*%
X7362500Y-14576875D03*
X7362500Y-13616875D03*
%TD*%
D23*
%TO.C,U88*%
X252729999Y0D03*
X242570001Y0D03*
D24*
X246700000Y1155000D03*
X247650000Y-1195000D03*
X248600000Y1155000D03*
%TD*%
D20*
%TO.C,C241*%
X271399999Y-80530000D03*
X271399999Y-82030000D03*
%TD*%
D52*
%TO.C,JP1*%
X21425000Y-14750000D03*
D53*
X21425000Y-16050000D03*
%TD*%
D23*
%TO.C,U49*%
X124142499Y-57150000D03*
X113982501Y-57150000D03*
D24*
X118112500Y-55995000D03*
X119062500Y-58345000D03*
X120012500Y-55995000D03*
%TD*%
D23*
%TO.C,U20*%
X31273750Y-76200000D03*
X21113750Y-76200000D03*
D31*
X27348750Y-75250000D03*
X24998750Y-76200000D03*
X27348750Y-77150000D03*
%TD*%
D19*
%TO.C,C134*%
X238006250Y-56880000D03*
X238006250Y-55920000D03*
%TD*%
D29*
%TO.C,C152*%
X200542500Y-32635938D03*
X199582500Y-32635938D03*
%TD*%
D23*
%TO.C,U61*%
X162242499Y-57150000D03*
X152082501Y-57150000D03*
D24*
X156212500Y-55995000D03*
X157162500Y-58345000D03*
X158112500Y-55995000D03*
%TD*%
D33*
%TO.C,U44*%
X171443650Y-83185000D03*
D32*
X171443650Y-67945000D03*
D23*
X126523750Y-76200000D03*
X116363750Y-76200000D03*
D33*
X71443850Y-83185000D03*
D32*
X71443850Y-67945000D03*
D24*
X120493750Y-75045000D03*
X121443750Y-77395000D03*
X122393750Y-75045000D03*
%TD*%
D19*
%TO.C,C81*%
X264200000Y270000D03*
X264200000Y1230000D03*
%TD*%
D23*
%TO.C,U46*%
X119379999Y0D03*
X109220001Y0D03*
D24*
X113350000Y1155000D03*
X114300000Y-1195000D03*
X115250000Y1155000D03*
%TD*%
D22*
%TO.C,C9*%
X24398413Y-31725297D03*
X23719591Y-32404119D03*
%TD*%
D23*
%TO.C,U76*%
X214629999Y0D03*
X204470001Y0D03*
D24*
X208600000Y1155000D03*
X209550000Y-1195000D03*
X210500000Y1155000D03*
%TD*%
D20*
%TO.C,C209*%
X76137499Y-42430000D03*
X76137499Y-43930000D03*
%TD*%
D54*
%TO.C,JP2*%
X700000Y-16000000D03*
D55*
X2000000Y-16000000D03*
%TD*%
D20*
%TO.C,C210*%
X38162501Y-62979999D03*
X38162501Y-61479999D03*
%TD*%
%TO.C,C186*%
X271399999Y-4330000D03*
X271399999Y-5830000D03*
%TD*%
D23*
%TO.C,U98*%
X271779999Y-76200000D03*
X261620001Y-76200000D03*
D24*
X265750000Y-75045000D03*
X266700000Y-77395000D03*
X267650000Y-75045000D03*
%TD*%
D29*
%TO.C,C148*%
X22713750Y-74450000D03*
X23673750Y-74450000D03*
%TD*%
D19*
%TO.C,C91*%
X64175000Y-18780000D03*
X64175000Y-17820000D03*
%TD*%
%TO.C,C159*%
X245150000Y-75930000D03*
X245150000Y-74970000D03*
%TD*%
D23*
%TO.C,U21*%
X221773750Y-76200000D03*
X211613750Y-76200000D03*
D31*
X217848750Y-75250000D03*
X215498750Y-76200000D03*
X217848750Y-77150000D03*
%TD*%
D19*
%TO.C,C178*%
X123943750Y-75930000D03*
X123943750Y-74970000D03*
%TD*%
%TO.C,C175*%
X195381250Y-75930000D03*
X195381250Y-74970000D03*
%TD*%
%TO.C,C121*%
X183237500Y-37830000D03*
X183237500Y-36870000D03*
%TD*%
D28*
%TO.C,TP2*%
X20240625Y-25537500D03*
%TD*%
D20*
%TO.C,C226*%
X190562501Y-62979999D03*
X190562501Y-61479999D03*
%TD*%
D19*
%TO.C,C61*%
X121562500Y-56880000D03*
X121562500Y-55920000D03*
%TD*%
D20*
%TO.C,C198*%
X195325001Y-24879999D03*
X195325001Y-23379999D03*
%TD*%
D56*
%TO.C,F1*%
X8350000Y-1819000D03*
X10750000Y-1819000D03*
%TD*%
D19*
%TO.C,C84*%
X226337500Y-37830000D03*
X226337500Y-36870000D03*
%TD*%
D42*
%TO.C,R30*%
X15913132Y-33252647D03*
X15234310Y-32573825D03*
%TD*%
D19*
%TO.C,C145*%
X283250000Y-56880000D03*
X283250000Y-55920000D03*
%TD*%
D37*
%TO.C,C8*%
X16260589Y-28760589D03*
X16939411Y-29439411D03*
%TD*%
D19*
%TO.C,C161*%
X283250000Y-75930000D03*
X283250000Y-74970000D03*
%TD*%
D23*
%TO.C,U24*%
X57467499Y-38100000D03*
X47307501Y-38100000D03*
D24*
X51437500Y-36945000D03*
X52387500Y-39295000D03*
X53337500Y-36945000D03*
%TD*%
D19*
%TO.C,C135*%
X264200000Y-56880000D03*
X264200000Y-55920000D03*
%TD*%
%TO.C,C42*%
X92987500Y-37830000D03*
X92987500Y-36870000D03*
%TD*%
%TO.C,C48*%
X112037500Y-37830000D03*
X112037500Y-36870000D03*
%TD*%
%TO.C,C21*%
X51950000Y-7804344D03*
X51950000Y-8764344D03*
%TD*%
%TO.C,C120*%
X202287500Y-37830000D03*
X202287500Y-36870000D03*
%TD*%
%TO.C,C115*%
X259437500Y-18780000D03*
X259437500Y-17820000D03*
%TD*%
%LPD*%
M02*
