%TF.GenerationSoftware,KiCad,Pcbnew,8.0.6*%
%TF.CreationDate,2024-11-20T11:04:22+07:00*%
%TF.ProjectId,Heart HE 65,48656172-7420-4484-9520-36352e6b6963,rev?*%
%TF.SameCoordinates,Original*%
%TF.FileFunction,Profile,NP*%
%FSLAX46Y46*%
G04 Gerber Fmt 4.6, Leading zero omitted, Abs format (unit mm)*
G04 Created by KiCad (PCBNEW 8.0.6) date 2024-11-20 11:04:22*
%MOMM*%
%LPD*%
G01*
G04 APERTURE LIST*
%TA.AperFunction,Profile*%
%ADD10C,0.200000*%
%TD*%
G04 APERTURE END LIST*
D10*
X228075000Y-67400000D02*
G75*
G02*
X229325000Y-66150000I1250000J0D01*
G01*
X5401894Y9000000D02*
G75*
G02*
X6731933Y8193551I6J-1500000D01*
G01*
X140081928Y-84393548D02*
G75*
G02*
X138751894Y-85199994I-1330028J693548D01*
G01*
X126618071Y8193548D02*
G75*
G02*
X127948105Y8999995I1330029J-693548D01*
G01*
X176851894Y9000000D02*
G75*
G02*
X178181933Y8193551I6J-1500000D01*
G01*
X119962483Y-37000037D02*
X118162486Y-37000037D01*
X183768071Y8193548D02*
G75*
G02*
X185098105Y8999995I1330029J-693548D01*
G01*
X280348106Y-85200000D02*
G75*
G02*
X279018067Y-84393551I-6J1500000D01*
G01*
X118162486Y-39200038D02*
G75*
G02*
X118162486Y-36999962I14J1100038D01*
G01*
X228075000Y-67400000D02*
X228075000Y-82950000D01*
X5401894Y9000000D02*
X-6750000Y9000000D01*
X250012487Y-20100038D02*
G75*
G02*
X250012486Y-17899962I13J1100038D01*
G01*
X119701894Y9000000D02*
G75*
G02*
X121031933Y8193551I6J-1500000D01*
G01*
X81601894Y9000000D02*
G75*
G02*
X82931933Y8193551I6J-1500000D01*
G01*
X16962483Y-17900037D02*
X15162487Y-17900037D01*
X280348106Y-85200000D02*
X292500000Y-85200000D01*
X208910606Y-85200000D02*
G75*
G02*
X207580567Y-84393551I-6J1500000D01*
G01*
X273431929Y-84393548D02*
G75*
G02*
X279018071Y-84393549I2793071J-1456452D01*
G01*
X182262479Y-75190728D02*
G75*
G02*
X182262479Y-77390672I21J-1099972D01*
G01*
X177393890Y-75190728D02*
X182262479Y-75190728D01*
X15162487Y-20100038D02*
X16962483Y-20100038D01*
X46985606Y-85200000D02*
G75*
G02*
X45655567Y-84393551I-6J1500000D01*
G01*
X12318071Y8193548D02*
G75*
G02*
X13648105Y8999995I1330029J-693548D01*
G01*
X-9000000Y-82950000D02*
X-9000000Y6750000D01*
X176851894Y9000000D02*
X127948105Y9000000D01*
X229325000Y-66150000D02*
X237400000Y-66150000D01*
X251812483Y-17900037D02*
X250012486Y-17900037D01*
X237400000Y-66150000D02*
G75*
G02*
X238650000Y-67400000I0J-1250000D01*
G01*
X251812483Y-17900037D02*
G75*
G02*
X251812483Y-20099963I17J-1099963D01*
G01*
X261298106Y-85200000D02*
G75*
G02*
X259968067Y-84393551I-6J1500000D01*
G01*
X292500000Y9000000D02*
X280348105Y9000000D01*
X81601894Y9000000D02*
X13648105Y9000000D01*
X272101894Y-85200000D02*
X261298106Y-85200000D01*
X178181929Y-84393548D02*
G75*
G02*
X183768071Y-84393549I2793071J-1456452D01*
G01*
X273431928Y-84393548D02*
G75*
G02*
X272101894Y-85199994I-1330028J693548D01*
G01*
X183768072Y8193548D02*
G75*
G02*
X178181928Y8193548I-2793072J1456451D01*
G01*
X225825001Y-85200000D02*
X208910606Y-85200000D01*
X119701894Y9000000D02*
X89848105Y9000000D01*
X254381928Y-84393548D02*
G75*
G02*
X253051894Y-85199994I-1330028J693548D01*
G01*
X185098106Y-85200000D02*
G75*
G02*
X183768067Y-84393551I-6J1500000D01*
G01*
X201994429Y-84393548D02*
G75*
G02*
X207580571Y-84393549I2793071J-1456452D01*
G01*
X38739394Y-85200000D02*
X-6750000Y-85200000D01*
X118162486Y-39200038D02*
X119962483Y-39200038D01*
X40069429Y-84393548D02*
G75*
G02*
X45655571Y-84393549I2793071J-1456452D01*
G01*
X254381929Y-84393548D02*
G75*
G02*
X259968071Y-84393549I2793071J-1456452D01*
G01*
X200664394Y-85200000D02*
X185098106Y-85200000D01*
X-9000000Y6750000D02*
G75*
G02*
X-6750000Y9000000I2250000J0D01*
G01*
X15162487Y-20100038D02*
G75*
G02*
X15162487Y-17900042I-37J1099998D01*
G01*
X272101894Y9000000D02*
X185098105Y9000000D01*
X88518072Y8193548D02*
G75*
G02*
X82931928Y8193548I-2793072J1456451D01*
G01*
X292500000Y9000000D02*
G75*
G02*
X294750000Y6750000I0J-2250000D01*
G01*
X294750000Y-82950000D02*
X294750000Y6750000D01*
X177393890Y-77390729D02*
G75*
G02*
X177393890Y-75190671I10J1100029D01*
G01*
X138751894Y-85200000D02*
X46985606Y-85200000D01*
X40069428Y-84393548D02*
G75*
G02*
X38739394Y-85199994I-1330028J693548D01*
G01*
X228075000Y-82950000D02*
G75*
G02*
X225825000Y-85200000I-2250000J0D01*
G01*
X250012487Y-20100038D02*
X251812483Y-20100038D01*
X88518071Y8193548D02*
G75*
G02*
X89848105Y8999995I1330029J-693548D01*
G01*
X140081929Y-84393548D02*
G75*
G02*
X145668071Y-84393549I2793071J-1456452D01*
G01*
X146998106Y-85200000D02*
G75*
G02*
X145668067Y-84393551I-6J1500000D01*
G01*
X-6750000Y-85200000D02*
G75*
G02*
X-9000000Y-82950000I-20J2249980D01*
G01*
X16962483Y-17900037D02*
G75*
G02*
X16962483Y-20100043I-33J-1100003D01*
G01*
X238650000Y-82950000D02*
X238650000Y-67400000D01*
X119962483Y-37000037D02*
G75*
G02*
X119962483Y-39199963I17J-1099963D01*
G01*
X240900000Y-85200000D02*
G75*
G02*
X238650000Y-82950000I0J2250000D01*
G01*
X176851894Y-85200000D02*
X146998106Y-85200000D01*
X126618072Y8193548D02*
G75*
G02*
X121031928Y8193548I-2793072J1456451D01*
G01*
X201994428Y-84393548D02*
G75*
G02*
X200664394Y-85199994I-1330028J693548D01*
G01*
X279018071Y8193548D02*
G75*
G02*
X280348105Y8999995I1330029J-693548D01*
G01*
X279018072Y8193548D02*
G75*
G02*
X273431928Y8193548I-2793072J1456451D01*
G01*
X272101894Y9000000D02*
G75*
G02*
X273431933Y8193551I6J-1500000D01*
G01*
X178181928Y-84393548D02*
G75*
G02*
X176851894Y-85199994I-1330028J693548D01*
G01*
X12318072Y8193548D02*
G75*
G02*
X6731928Y8193548I-2793072J1456451D01*
G01*
X182262479Y-77390729D02*
X177393890Y-77390729D01*
X294750000Y-82950000D02*
G75*
G02*
X292500000Y-85200000I-2250000J0D01*
G01*
X253051894Y-85200000D02*
X240900000Y-85200000D01*
M02*
