%TF.GenerationSoftware,KiCad,Pcbnew,8.0.6*%
%TF.CreationDate,2024-11-18T06:39:38+07:00*%
%TF.ProjectId,Heart HE 65,48656172-7420-4484-9520-36352e6b6963,rev?*%
%TF.SameCoordinates,Original*%
%TF.FileFunction,Soldermask,Bot*%
%TF.FilePolarity,Negative*%
%FSLAX46Y46*%
G04 Gerber Fmt 4.6, Leading zero omitted, Abs format (unit mm)*
G04 Created by KiCad (PCBNEW 8.0.6) date 2024-11-18 06:39:38*
%MOMM*%
%LPD*%
G01*
G04 APERTURE LIST*
G04 Aperture macros list*
%AMRoundRect*
0 Rectangle with rounded corners*
0 $1 Rounding radius*
0 $2 $3 $4 $5 $6 $7 $8 $9 X,Y pos of 4 corners*
0 Add a 4 corners polygon primitive as box body*
4,1,4,$2,$3,$4,$5,$6,$7,$8,$9,$2,$3,0*
0 Add four circle primitives for the rounded corners*
1,1,$1+$1,$2,$3*
1,1,$1+$1,$4,$5*
1,1,$1+$1,$6,$7*
1,1,$1+$1,$8,$9*
0 Add four rect primitives between the rounded corners*
20,1,$1+$1,$2,$3,$4,$5,0*
20,1,$1+$1,$4,$5,$6,$7,0*
20,1,$1+$1,$6,$7,$8,$9,0*
20,1,$1+$1,$8,$9,$2,$3,0*%
%AMRotRect*
0 Rectangle, with rotation*
0 The origin of the aperture is its center*
0 $1 length*
0 $2 width*
0 $3 Rotation angle, in degrees counterclockwise*
0 Add horizontal line*
21,1,$1,$2,0,0,$3*%
%AMFreePoly0*
4,1,21,-0.125000,1.200000,0.125000,1.200000,0.125000,1.700000,0.375000,1.700000,0.375000,1.200000,0.825000,1.200000,0.825000,-1.200000,0.375000,-1.200000,0.375000,-1.700000,0.125000,-1.700000,0.125000,-1.200000,-0.125000,-1.200000,-0.125000,-1.700000,-0.375000,-1.700000,-0.375000,-1.200000,-0.825000,-1.200000,-0.825000,1.200000,-0.375000,1.200000,-0.375000,1.700000,-0.125000,1.700000,
-0.125000,1.200000,-0.125000,1.200000,$1*%
%AMFreePoly1*
4,1,19,0.500000,-0.750000,0.000000,-0.750000,0.000000,-0.744911,-0.071157,-0.744911,-0.207708,-0.704816,-0.327430,-0.627875,-0.420627,-0.520320,-0.479746,-0.390866,-0.500000,-0.250000,-0.500000,0.250000,-0.479746,0.390866,-0.420627,0.520320,-0.327430,0.627875,-0.207708,0.704816,-0.071157,0.744911,0.000000,0.744911,0.000000,0.750000,0.500000,0.750000,0.500000,-0.750000,0.500000,-0.750000,
$1*%
%AMFreePoly2*
4,1,19,0.000000,0.744911,0.071157,0.744911,0.207708,0.704816,0.327430,0.627875,0.420627,0.520320,0.479746,0.390866,0.500000,0.250000,0.500000,-0.250000,0.479746,-0.390866,0.420627,-0.520320,0.327430,-0.627875,0.207708,-0.704816,0.071157,-0.744911,0.000000,-0.744911,0.000000,-0.750000,-0.500000,-0.750000,-0.500000,0.750000,0.000000,0.750000,0.000000,0.744911,0.000000,0.744911,
$1*%
G04 Aperture macros list end*
%ADD10RoundRect,0.082000X0.718000X-0.328000X0.718000X0.328000X-0.718000X0.328000X-0.718000X-0.328000X0*%
%ADD11RoundRect,0.082000X-0.718000X0.328000X-0.718000X-0.328000X0.718000X-0.328000X0.718000X0.328000X0*%
%ADD12C,3.800000*%
%ADD13R,0.620000X0.560000*%
%ADD14R,0.750000X0.800000*%
%ADD15RoundRect,0.200000X-0.800000X0.200000X-0.800000X-0.200000X0.800000X-0.200000X0.800000X0.200000X0*%
%ADD16RotRect,0.560000X0.620000X225.000000*%
%ADD17C,1.750000*%
%ADD18RoundRect,0.150000X-0.150000X0.350000X-0.150000X-0.350000X0.150000X-0.350000X0.150000X0.350000X0*%
%ADD19R,1.000000X0.400000*%
%ADD20RoundRect,0.375000X-0.625000X-0.375000X0.625000X-0.375000X0.625000X0.375000X-0.625000X0.375000X0*%
%ADD21RoundRect,0.500000X-0.500000X-1.400000X0.500000X-1.400000X0.500000X1.400000X-0.500000X1.400000X0*%
%ADD22C,1.000000*%
%ADD23R,0.560000X0.620000*%
%ADD24RotRect,0.400000X1.900000X225.000000*%
%ADD25RoundRect,0.150000X0.350000X0.150000X-0.350000X0.150000X-0.350000X-0.150000X0.350000X-0.150000X0*%
%ADD26C,3.987800*%
%ADD27C,3.048000*%
%ADD28RoundRect,0.050000X0.247487X-0.176777X-0.176777X0.247487X-0.247487X0.176777X0.176777X-0.247487X0*%
%ADD29RoundRect,0.050000X0.247487X0.176777X0.176777X0.247487X-0.247487X-0.176777X-0.176777X-0.247487X0*%
%ADD30RotRect,2.900000X2.900000X135.000000*%
%ADD31RotRect,0.560000X0.620000X315.000000*%
%ADD32RoundRect,0.060000X-0.060000X0.240000X-0.060000X-0.240000X0.060000X-0.240000X0.060000X0.240000X0*%
%ADD33FreePoly0,270.000000*%
%ADD34R,1.800000X1.200000*%
%ADD35R,1.550000X0.600000*%
%ADD36RotRect,0.560000X0.620000X135.000000*%
%ADD37R,1.000000X1.500000*%
%ADD38C,0.650000*%
%ADD39R,0.600000X1.450000*%
%ADD40R,0.300000X1.450000*%
%ADD41O,1.000000X1.600000*%
%ADD42O,1.000000X2.100000*%
%ADD43RoundRect,0.150000X-0.150000X0.512500X-0.150000X-0.512500X0.150000X-0.512500X0.150000X0.512500X0*%
%ADD44RoundRect,0.135000X-0.185000X0.135000X-0.185000X-0.135000X0.185000X-0.135000X0.185000X0.135000X0*%
%ADD45RoundRect,0.140000X0.170000X-0.140000X0.170000X0.140000X-0.170000X0.140000X-0.170000X-0.140000X0*%
%ADD46FreePoly1,270.000000*%
%ADD47FreePoly2,270.000000*%
%ADD48FreePoly1,0.000000*%
%ADD49FreePoly2,0.000000*%
%ADD50R,1.140000X2.030000*%
G04 APERTURE END LIST*
D10*
%TO.C,RGB1_A23*%
X288350000Y-43930000D03*
X288350000Y-42430000D03*
X283150000Y-42430000D03*
X283150000Y-43930000D03*
%TD*%
D11*
%TO.C,RGB1_B24*%
X59312500Y-61479999D03*
X59312500Y-62979999D03*
X64512500Y-62979999D03*
X64512500Y-61479999D03*
%TD*%
%TO.C,RGB1_B31*%
X283150000Y-61479999D03*
X283150000Y-62979999D03*
X288350000Y-62979999D03*
X288350000Y-61479999D03*
%TD*%
%TO.C,RGB1_B29*%
X135512500Y-61479999D03*
X135512500Y-62979999D03*
X140712500Y-62979999D03*
X140712500Y-61479999D03*
%TD*%
D12*
%TO.C,H11*%
X219075000Y0D03*
%TD*%
D10*
%TO.C,RGB1_A15*%
X269300000Y-5830000D03*
X269300000Y-4330000D03*
X264100000Y-4330000D03*
X264100000Y-5830000D03*
%TD*%
%TO.C,RGB1_A14*%
X259775000Y-5830000D03*
X259775000Y-4330000D03*
X254575000Y-4330000D03*
X254575000Y-5830000D03*
%TD*%
%TO.C,RGB1_A31*%
X188337500Y-43930000D03*
X188337500Y-42430000D03*
X183137500Y-42430000D03*
X183137500Y-43930000D03*
%TD*%
D11*
%TO.C,RGB1_B17*%
X264100000Y-61479999D03*
X264100000Y-62979999D03*
X269300000Y-62979999D03*
X269300000Y-61479999D03*
%TD*%
%TO.C,RGB1_B22*%
X40262500Y-61479999D03*
X40262500Y-62979999D03*
X45462500Y-62979999D03*
X45462500Y-61479999D03*
%TD*%
D12*
%TO.C,H13*%
X214312500Y-38100000D03*
%TD*%
D11*
%TO.C,RGB1_B2*%
X259337500Y-23379999D03*
X259337500Y-24879999D03*
X264537500Y-24879999D03*
X264537500Y-23379999D03*
%TD*%
D12*
%TO.C,H16*%
X290512500Y-9525000D03*
%TD*%
D10*
%TO.C,RGB1_A19*%
X6171875Y-82030000D03*
X6171875Y-80530000D03*
X971875Y-80530000D03*
X971875Y-82030000D03*
%TD*%
D12*
%TO.C,H14*%
X39290625Y-76200000D03*
%TD*%
D10*
%TO.C,RGB1_A22*%
X54987500Y-43930000D03*
X54987500Y-42430000D03*
X49787500Y-42430000D03*
X49787500Y-43930000D03*
%TD*%
D12*
%TO.C,H10*%
X161925000Y0D03*
%TD*%
D10*
%TO.C,RGB1_A10*%
X193100000Y-5830000D03*
X193100000Y-4330000D03*
X187900000Y-4330000D03*
X187900000Y-5830000D03*
%TD*%
%TO.C,RGB1_A7*%
X135950000Y-5830000D03*
X135950000Y-4330000D03*
X130750000Y-4330000D03*
X130750000Y-5830000D03*
%TD*%
D11*
%TO.C,RGB1_B16*%
X-218750Y-61479999D03*
X-218750Y-62979999D03*
X4981250Y-62979999D03*
X4981250Y-61479999D03*
%TD*%
D10*
%TO.C,RGB1_A18*%
X9743750Y-43930000D03*
X9743750Y-42430000D03*
X4543750Y-42430000D03*
X4543750Y-43930000D03*
%TD*%
D11*
%TO.C,RGB1_B26*%
X78362500Y-61479999D03*
X78362500Y-62979999D03*
X83562500Y-62979999D03*
X83562500Y-61479999D03*
%TD*%
D10*
%TO.C,RGB1_A13*%
X250250000Y-5830000D03*
X250250000Y-4330000D03*
X245050000Y-4330000D03*
X245050000Y-5830000D03*
%TD*%
%TO.C,RGB1_A25*%
X257393750Y-43930000D03*
X257393750Y-42430000D03*
X252193750Y-42430000D03*
X252193750Y-43930000D03*
%TD*%
%TO.C,RGB1_A6*%
X116900000Y-5830000D03*
X116900000Y-4330000D03*
X111700000Y-4330000D03*
X111700000Y-5830000D03*
%TD*%
%TO.C,RGB1_A21*%
X29984375Y-82030000D03*
X29984375Y-80530000D03*
X24784375Y-80530000D03*
X24784375Y-82030000D03*
%TD*%
%TO.C,RGB1_A9*%
X174050000Y-5830000D03*
X174050000Y-4330000D03*
X168850000Y-4330000D03*
X168850000Y-5830000D03*
%TD*%
D11*
%TO.C,RGB1_B18*%
X9306250Y-61479999D03*
X9306250Y-62979999D03*
X14506250Y-62979999D03*
X14506250Y-61479999D03*
%TD*%
D10*
%TO.C,RGB1_A33*%
X169287500Y-43930000D03*
X169287500Y-42430000D03*
X164087500Y-42430000D03*
X164087500Y-43930000D03*
%TD*%
D11*
%TO.C,RGB1_B1*%
X283150000Y-23379999D03*
X283150000Y-24879999D03*
X288350000Y-24879999D03*
X288350000Y-23379999D03*
%TD*%
%TO.C,RGB1_B11*%
X83125000Y-23379999D03*
X83125000Y-24879999D03*
X88325000Y-24879999D03*
X88325000Y-23379999D03*
%TD*%
%TO.C,RGB1_B27*%
X154562500Y-61479999D03*
X154562500Y-62979999D03*
X159762500Y-62979999D03*
X159762500Y-61479999D03*
%TD*%
D10*
%TO.C,RGB1_A5*%
X97850000Y-5830000D03*
X97850000Y-4330000D03*
X92650000Y-4330000D03*
X92650000Y-5830000D03*
%TD*%
%TO.C,RGB1_A16*%
X2600000Y-5830000D03*
X2600000Y-4330000D03*
X-2600000Y-4330000D03*
X-2600000Y-5830000D03*
%TD*%
%TO.C,RGB1_A32*%
X150237500Y-43930000D03*
X150237500Y-42430000D03*
X145037500Y-42430000D03*
X145037500Y-43930000D03*
%TD*%
D12*
%TO.C,H4*%
X80962500Y-38100000D03*
%TD*%
D10*
%TO.C,RGB1_A17*%
X288350000Y-5830000D03*
X288350000Y-4330000D03*
X283150000Y-4330000D03*
X283150000Y-5830000D03*
%TD*%
%TO.C,RGB1_A38*%
X135950000Y-82030000D03*
X135950000Y-80530000D03*
X130750000Y-80530000D03*
X130750000Y-82030000D03*
%TD*%
%TO.C,RGB1_A24*%
X74037500Y-43930000D03*
X74037500Y-42430000D03*
X68837500Y-42430000D03*
X68837500Y-43930000D03*
%TD*%
D11*
%TO.C,RGB1_B12*%
X64075000Y-23379999D03*
X64075000Y-24879999D03*
X69275000Y-24879999D03*
X69275000Y-23379999D03*
%TD*%
D10*
%TO.C,RGB1_A34*%
X53796875Y-82030000D03*
X53796875Y-80530000D03*
X48596875Y-80530000D03*
X48596875Y-82030000D03*
%TD*%
D11*
%TO.C,RGB1_B14*%
X25975000Y-23379999D03*
X25975000Y-24879999D03*
X31175000Y-24879999D03*
X31175000Y-23379999D03*
%TD*%
%TO.C,RGB1_B19*%
X237906250Y-61479999D03*
X237906250Y-62979999D03*
X243106250Y-62979999D03*
X243106250Y-61479999D03*
%TD*%
D10*
%TO.C,RGB1_A12*%
X231200000Y-5830000D03*
X231200000Y-4330000D03*
X226000000Y-4330000D03*
X226000000Y-5830000D03*
%TD*%
%TO.C,RGB1_A20*%
X35937500Y-43930000D03*
X35937500Y-42430000D03*
X30737500Y-42430000D03*
X30737500Y-43930000D03*
%TD*%
%TO.C,RGB1_A27*%
X226437500Y-43930000D03*
X226437500Y-42430000D03*
X221237500Y-42430000D03*
X221237500Y-43930000D03*
%TD*%
D11*
%TO.C,RGB1_B21*%
X211712500Y-61479999D03*
X211712500Y-62979999D03*
X216912500Y-62979999D03*
X216912500Y-61479999D03*
%TD*%
D10*
%TO.C,RGB1_A4*%
X78800000Y-5830000D03*
X78800000Y-4330000D03*
X73600000Y-4330000D03*
X73600000Y-5830000D03*
%TD*%
D12*
%TO.C,H18*%
X257175000Y-9525000D03*
%TD*%
D11*
%TO.C,RGB1_B3*%
X235525000Y-23379999D03*
X235525000Y-24879999D03*
X240725000Y-24879999D03*
X240725000Y-23379999D03*
%TD*%
%TO.C,RGB1_B8*%
X140275000Y-23379999D03*
X140275000Y-24879999D03*
X145475000Y-24879999D03*
X145475000Y-23379999D03*
%TD*%
D10*
%TO.C,RGB1_A11*%
X212150000Y-5830000D03*
X212150000Y-4330000D03*
X206950000Y-4330000D03*
X206950000Y-5830000D03*
%TD*%
%TO.C,RGB1_A40*%
X195481251Y-81029999D03*
X195481249Y-79529999D03*
X190281250Y-79530000D03*
X190281250Y-81030000D03*
%TD*%
D11*
%TO.C,RGB1_B23*%
X192662500Y-61479999D03*
X192662500Y-62979999D03*
X197862500Y-62979999D03*
X197862500Y-61479999D03*
%TD*%
%TO.C,RGB1_B4*%
X216475000Y-23379999D03*
X216475000Y-24879999D03*
X221675000Y-24879999D03*
X221675000Y-23379999D03*
%TD*%
%TO.C,RGB1_B25*%
X173612500Y-61479999D03*
X173612500Y-62979999D03*
X178812500Y-62979999D03*
X178812500Y-61479999D03*
%TD*%
D10*
%TO.C,RGB1_A43*%
X288350000Y-82030000D03*
X288350000Y-80530000D03*
X283150000Y-80530000D03*
X283150000Y-82030000D03*
%TD*%
D11*
%TO.C,RGB1_B6*%
X178375000Y-23379999D03*
X178375000Y-24879999D03*
X183575000Y-24879999D03*
X183575000Y-23379999D03*
%TD*%
D10*
%TO.C,RGB1_A29*%
X207387500Y-43930000D03*
X207387500Y-42430000D03*
X202187500Y-42430000D03*
X202187500Y-43930000D03*
%TD*%
D11*
%TO.C,RGB1_B30*%
X116462500Y-61479999D03*
X116462500Y-62979999D03*
X121662500Y-62979999D03*
X121662500Y-61479999D03*
%TD*%
D10*
%TO.C,RGB1_A3*%
X59750000Y-5830000D03*
X59750000Y-4330000D03*
X54550000Y-4330000D03*
X54550000Y-5830000D03*
%TD*%
D11*
%TO.C,RGB1_B5*%
X197425000Y-23379999D03*
X197425000Y-24879999D03*
X202625000Y-24879999D03*
X202625000Y-23379999D03*
%TD*%
D12*
%TO.C,H12*%
X-4762500Y-9525000D03*
%TD*%
D10*
%TO.C,RGB1_A28*%
X112137500Y-43930000D03*
X112137500Y-42430000D03*
X106937500Y-42430000D03*
X106937500Y-43930000D03*
%TD*%
D12*
%TO.C,H8*%
X142875000Y0D03*
%TD*%
%TO.C,H17*%
X276225000Y-76200000D03*
%TD*%
D10*
%TO.C,RGB1_A1*%
X21650000Y-5830000D03*
X21650000Y-4330000D03*
X16450000Y-4330000D03*
X16450000Y-5830000D03*
%TD*%
D11*
%TO.C,RGB1_B28*%
X97412500Y-61479999D03*
X97412500Y-62979999D03*
X102612500Y-62979999D03*
X102612500Y-61479999D03*
%TD*%
D12*
%TO.C,H9*%
X104775000Y0D03*
%TD*%
D10*
%TO.C,RGB1_A2*%
X40700000Y-5830000D03*
X40700000Y-4330000D03*
X35500000Y-4330000D03*
X35500000Y-5830000D03*
%TD*%
%TO.C,RGB1_A8*%
X155000000Y-5830000D03*
X155000000Y-4330000D03*
X149800000Y-4330000D03*
X149800000Y-5830000D03*
%TD*%
%TO.C,RGB1_A44*%
X250250000Y-82030000D03*
X250250000Y-80530000D03*
X245050000Y-80530000D03*
X245050000Y-82030000D03*
%TD*%
D12*
%TO.C,H15*%
X202406250Y-76200000D03*
%TD*%
D10*
%TO.C,RGB1_A42*%
X218103125Y-82030000D03*
X218103125Y-80530000D03*
X212903125Y-80530000D03*
X212903125Y-82030000D03*
%TD*%
D11*
%TO.C,RGB1_B10*%
X102175000Y-23379999D03*
X102175000Y-24879999D03*
X107375000Y-24879999D03*
X107375000Y-23379999D03*
%TD*%
%TO.C,RGB1_B13*%
X45025000Y-23379999D03*
X45025000Y-24879999D03*
X50225000Y-24879999D03*
X50225000Y-23379999D03*
%TD*%
%TO.C,RGB1_B9*%
X121225000Y-23379999D03*
X121225000Y-24879999D03*
X126425000Y-24879999D03*
X126425000Y-23379999D03*
%TD*%
D10*
%TO.C,RGB1_A30*%
X131187500Y-43930000D03*
X131187500Y-42430000D03*
X125987500Y-42430000D03*
X125987500Y-43930000D03*
%TD*%
D12*
%TO.C,H5*%
X66675000Y0D03*
%TD*%
%TO.C,H3*%
X47625000Y0D03*
%TD*%
D11*
%TO.C,RGB1_B7*%
X159325000Y-23379999D03*
X159325000Y-24879999D03*
X164525000Y-24879999D03*
X164525000Y-23379999D03*
%TD*%
D10*
%TO.C,RGB1_A45*%
X269300000Y-82030000D03*
X269300000Y-80530000D03*
X264100000Y-80530000D03*
X264100000Y-82030000D03*
%TD*%
D12*
%TO.C,H7*%
X157162500Y-38100000D03*
%TD*%
D11*
%TO.C,RGB1_B15*%
X2162500Y-23379999D03*
X2162500Y-24879999D03*
X7362500Y-24879999D03*
X7362500Y-23379999D03*
%TD*%
D10*
%TO.C,RGB1_A36*%
X124043750Y-82030000D03*
X124043750Y-80530000D03*
X118843750Y-80530000D03*
X118843750Y-82030000D03*
%TD*%
D11*
%TO.C,RGB1_B20*%
X21212500Y-61479999D03*
X21212500Y-62979999D03*
X26412500Y-62979999D03*
X26412500Y-61479999D03*
%TD*%
D10*
%TO.C,RGB1_A26*%
X93087500Y-43930000D03*
X93087500Y-42430000D03*
X87887500Y-42430000D03*
X87887500Y-43930000D03*
%TD*%
D13*
%TO.C,C33*%
X35600000Y270000D03*
X35600000Y1230000D03*
%TD*%
%TO.C,C73*%
X159662500Y-56880000D03*
X159662500Y-55920000D03*
%TD*%
D14*
%TO.C,C180*%
X214249999Y-4330000D03*
X214249999Y-5830000D03*
%TD*%
D13*
%TO.C,C160*%
X264200000Y-75930000D03*
X264200000Y-74970000D03*
%TD*%
D15*
%TO.C,SW1*%
X30300000Y-31000000D03*
X30300000Y-35200000D03*
%TD*%
D13*
%TO.C,C60*%
X150137500Y-37830000D03*
X150137500Y-36870000D03*
%TD*%
D16*
%TO.C,C13*%
X22701357Y-36533623D03*
X22022535Y-37212445D03*
%TD*%
D17*
%TO.C,U25*%
X47942499Y-57150000D03*
X37782501Y-57150000D03*
D18*
X41912500Y-55995000D03*
X42862500Y-58345000D03*
X43812500Y-55995000D03*
%TD*%
D13*
%TO.C,C22*%
X21550000Y270000D03*
X21550000Y1230000D03*
%TD*%
D17*
%TO.C,U23*%
X52704999Y-19050000D03*
X42545001Y-19050000D03*
D18*
X46675000Y-17895000D03*
X47625000Y-20245000D03*
X48575000Y-17895000D03*
%TD*%
D19*
%TO.C,U56*%
X192362500Y-32635938D03*
X192362500Y-31985938D03*
X192362500Y-31335938D03*
X192362500Y-30685938D03*
X192362500Y-30035938D03*
X192362500Y-29385938D03*
X192362500Y-28735938D03*
X192362500Y-28085938D03*
X198162500Y-28085938D03*
X198162500Y-28735938D03*
X198162500Y-29385938D03*
X198162500Y-30035938D03*
X198162500Y-30685938D03*
X198162500Y-31335938D03*
X198162500Y-31985938D03*
X198162500Y-32635938D03*
%TD*%
D13*
%TO.C,C125*%
X126087500Y-37830000D03*
X126087500Y-36870000D03*
%TD*%
%TO.C,C23*%
X31075000Y-18780000D03*
X31075000Y-17820000D03*
%TD*%
D20*
%TO.C,U63*%
X54000000Y-13384344D03*
X54000000Y-11084344D03*
D21*
X60300000Y-11084344D03*
D20*
X54000000Y-8784344D03*
%TD*%
D14*
%TO.C,C203*%
X11843749Y-42430000D03*
X11843749Y-43930000D03*
%TD*%
D22*
%TO.C,TP3*%
X13600000Y-29334344D03*
%TD*%
D13*
%TO.C,C18*%
X9643750Y-37830000D03*
X9643750Y-36870000D03*
%TD*%
%TO.C,C123*%
X164187500Y-37830000D03*
X164187500Y-36870000D03*
%TD*%
%TO.C,C17*%
X7262500Y-18780000D03*
X7262500Y-17820000D03*
%TD*%
D17*
%TO.C,U30*%
X76517499Y-38100000D03*
X66357501Y-38100000D03*
D18*
X70487500Y-36945000D03*
X71437500Y-39295000D03*
X72387500Y-36945000D03*
%TD*%
D13*
%TO.C,C105*%
X178475000Y-18780000D03*
X178475000Y-17820000D03*
%TD*%
D14*
%TO.C,C234*%
X32084374Y-80530000D03*
X32084374Y-82030000D03*
%TD*%
D13*
%TO.C,C99*%
X121325000Y-18780000D03*
X121325000Y-17820000D03*
%TD*%
%TO.C,R3*%
X10550000Y115344D03*
X10550000Y1075344D03*
%TD*%
D14*
%TO.C,C193*%
X100075001Y-24879999D03*
X100075001Y-23379999D03*
%TD*%
D13*
%TO.C,C122*%
X49887500Y-37830000D03*
X49887500Y-36870000D03*
%TD*%
%TO.C,C71*%
X183475000Y-18780000D03*
X183475000Y-17820000D03*
%TD*%
D23*
%TO.C,C3*%
X284838750Y-51785938D03*
X283878750Y-51785938D03*
%TD*%
D14*
%TO.C,C231*%
X281050001Y-62979999D03*
X281050001Y-61479999D03*
%TD*%
D24*
%TO.C,Y1*%
X25897479Y-33903186D03*
X25048951Y-34751714D03*
X24200423Y-35600242D03*
%TD*%
D17*
%TO.C,U66*%
X190817499Y-38100000D03*
X180657501Y-38100000D03*
D18*
X184787500Y-36945000D03*
X185737500Y-39295000D03*
X186687500Y-36945000D03*
%TD*%
D13*
%TO.C,C44*%
X92750000Y270000D03*
X92750000Y1230000D03*
%TD*%
%TO.C,C19*%
X4881250Y-56880000D03*
X4881250Y-55920000D03*
%TD*%
D23*
%TO.C,C5*%
X124342500Y-32635938D03*
X123382500Y-32635938D03*
%TD*%
D17*
%TO.C,U75*%
X7461250Y-57150000D03*
X-2698750Y-57150000D03*
D18*
X1431250Y-55995000D03*
X2381250Y-58345000D03*
X3331250Y-55995000D03*
%TD*%
D13*
%TO.C,C24*%
X35837500Y-37830000D03*
X35837500Y-36870000D03*
%TD*%
D17*
%TO.C,U72*%
X209867499Y-38100000D03*
X199707501Y-38100000D03*
D18*
X203837500Y-36945000D03*
X204787500Y-39295000D03*
X205737500Y-36945000D03*
%TD*%
D13*
%TO.C,C117*%
X2262500Y-18780000D03*
X2262500Y-17820000D03*
%TD*%
D14*
%TO.C,C197*%
X176275001Y-24879999D03*
X176275001Y-23379999D03*
%TD*%
D13*
%TO.C,C30*%
X54887500Y-37830000D03*
X54887500Y-36870000D03*
%TD*%
D17*
%TO.C,U79*%
X219392499Y-57150000D03*
X209232501Y-57150000D03*
D18*
X213362500Y-55995000D03*
X214312500Y-58345000D03*
X215262500Y-55995000D03*
%TD*%
D13*
%TO.C,C128*%
X68937500Y-37830000D03*
X68937500Y-36870000D03*
%TD*%
%TO.C,C56*%
X254675000Y270000D03*
X254675000Y1230000D03*
%TD*%
D14*
%TO.C,C216*%
X95312501Y-62979999D03*
X95312501Y-61479999D03*
%TD*%
D19*
%TO.C,U45*%
X116162500Y-32635938D03*
X116162500Y-31985938D03*
X116162500Y-31335938D03*
X116162500Y-30685938D03*
X116162500Y-30035938D03*
X116162500Y-29385938D03*
X116162500Y-28735938D03*
X116162500Y-28085938D03*
X121962500Y-28085938D03*
X121962500Y-28735938D03*
X121962500Y-29385938D03*
X121962500Y-30035938D03*
X121962500Y-30685938D03*
X121962500Y-31335938D03*
X121962500Y-31985938D03*
X121962500Y-32635938D03*
%TD*%
D13*
%TO.C,C35*%
X69175000Y-18780000D03*
X69175000Y-17820000D03*
%TD*%
%TO.C,C36*%
X73937500Y-37830000D03*
X73937500Y-36870000D03*
%TD*%
D17*
%TO.C,U55*%
X143192499Y-57150000D03*
X133032501Y-57150000D03*
D18*
X137162500Y-55995000D03*
X138112500Y-58345000D03*
X139062500Y-55995000D03*
%TD*%
D14*
%TO.C,C192*%
X81025001Y-24879999D03*
X81025001Y-23379999D03*
%TD*%
D13*
%TO.C,C58*%
X135850000Y270000D03*
X135850000Y1230000D03*
%TD*%
D14*
%TO.C,C220*%
X133412501Y-62979999D03*
X133412501Y-61479999D03*
%TD*%
D17*
%TO.C,U82*%
X233679999Y0D03*
X223520001Y0D03*
D18*
X227650000Y1155000D03*
X228600000Y-1195000D03*
X229550000Y1155000D03*
%TD*%
D14*
%TO.C,C227*%
X259493749Y-42430000D03*
X259493749Y-43930000D03*
%TD*%
%TO.C,C232*%
X262000001Y-62979999D03*
X262000001Y-61479999D03*
%TD*%
D13*
%TO.C,C173*%
X269200000Y-75930000D03*
X269200000Y-74970000D03*
%TD*%
D17*
%TO.C,U77*%
X224154999Y-19050000D03*
X213995001Y-19050000D03*
D18*
X218125000Y-17895000D03*
X219075000Y-20245000D03*
X220025000Y-17895000D03*
%TD*%
D13*
%TO.C,C75*%
X245150000Y270000D03*
X245150000Y1230000D03*
%TD*%
D14*
%TO.C,C202*%
X281050001Y-24879999D03*
X281050001Y-23379999D03*
%TD*%
D23*
%TO.C,C171*%
X60117500Y-77050000D03*
X59157500Y-77050000D03*
%TD*%
D13*
%TO.C,C129*%
X87987500Y-37830000D03*
X87987500Y-36870000D03*
%TD*%
D14*
%TO.C,C181*%
X233299999Y-4330000D03*
X233299999Y-5830000D03*
%TD*%
D23*
%TO.C,C176*%
X224423750Y-77050000D03*
X223463750Y-77050000D03*
%TD*%
D13*
%TO.C,C127*%
X30837500Y-37830000D03*
X30837500Y-36870000D03*
%TD*%
D17*
%TO.C,U58*%
X157479999Y0D03*
X147320001Y0D03*
D18*
X151450000Y1155000D03*
X152400000Y-1195000D03*
X153350000Y1155000D03*
%TD*%
D17*
%TO.C,U31*%
X66992499Y-57150000D03*
X56832501Y-57150000D03*
D18*
X60962500Y-55995000D03*
X61912500Y-58345000D03*
X62862500Y-55995000D03*
%TD*%
D14*
%TO.C,C223*%
X209487499Y-42430000D03*
X209487499Y-43930000D03*
%TD*%
D17*
%TO.C,U89*%
X267017500Y-19050000D03*
X256857500Y-19050000D03*
D18*
X260987500Y-17895000D03*
X261937500Y-20245000D03*
X262887500Y-17895000D03*
%TD*%
D14*
%TO.C,C104*%
X4699999Y-4330000D03*
X4699999Y-5830000D03*
%TD*%
D17*
%TO.C,U92*%
X252729999Y-76200000D03*
X242570001Y-76200000D03*
D18*
X246700000Y-75045000D03*
X247650000Y-77395000D03*
X248600000Y-75045000D03*
%TD*%
D17*
%TO.C,U37*%
X86042499Y-57150000D03*
X75882501Y-57150000D03*
D18*
X80012500Y-55995000D03*
X80962500Y-58345000D03*
X81912500Y-55995000D03*
%TD*%
D17*
%TO.C,U18*%
X38417499Y-38100000D03*
X28257501Y-38100000D03*
D18*
X32387500Y-36945000D03*
X33337500Y-39295000D03*
X34287500Y-36945000D03*
%TD*%
D13*
%TO.C,C66*%
X169187500Y-37830000D03*
X169187500Y-36870000D03*
%TD*%
%TO.C,C141*%
X59412500Y-56880000D03*
X59412500Y-55920000D03*
%TD*%
D14*
%TO.C,C221*%
X190437499Y-42430000D03*
X190437499Y-43930000D03*
%TD*%
D17*
%TO.C,U65*%
X186054999Y-19050000D03*
X175895001Y-19050000D03*
D18*
X180025000Y-17895000D03*
X180975000Y-20245000D03*
X181925000Y-17895000D03*
%TD*%
D13*
%TO.C,C72*%
X188237500Y-37830000D03*
X188237500Y-36870000D03*
%TD*%
%TO.C,C41*%
X88225000Y-18780000D03*
X88225000Y-17820000D03*
%TD*%
%TO.C,C95*%
X264437500Y-18780000D03*
X264437500Y-17820000D03*
%TD*%
D17*
%TO.C,U10*%
X5079999Y0D03*
X-5079999Y0D03*
D18*
X-950000Y1155000D03*
X0Y-1195000D03*
X950000Y1155000D03*
%TD*%
D14*
%TO.C,C228*%
X209612501Y-62979999D03*
X209612501Y-61479999D03*
%TD*%
D13*
%TO.C,C34*%
X59650000Y270000D03*
X59650000Y1230000D03*
%TD*%
D23*
%TO.C,C155*%
X86242500Y-32635938D03*
X85282500Y-32635938D03*
%TD*%
D14*
%TO.C,C224*%
X171512501Y-62979999D03*
X171512501Y-61479999D03*
%TD*%
D23*
%TO.C,C151*%
X233880000Y-32635938D03*
X232920000Y-32635938D03*
%TD*%
D14*
%TO.C,C235*%
X55896874Y-80530000D03*
X55896874Y-82030000D03*
%TD*%
D17*
%TO.C,U26*%
X55086250Y-76200000D03*
X44926250Y-76200000D03*
D25*
X51161250Y-75250000D03*
X48811250Y-76200000D03*
X51161250Y-77150000D03*
%TD*%
D17*
%TO.C,U12*%
X12223750Y-38100000D03*
X2063750Y-38100000D03*
D18*
X6193750Y-36945000D03*
X7143750Y-39295000D03*
X8093750Y-36945000D03*
%TD*%
D14*
%TO.C,C236*%
X126143749Y-80530000D03*
X126143749Y-82030000D03*
%TD*%
D13*
%TO.C,C28*%
X40600000Y270000D03*
X40600000Y1230000D03*
%TD*%
D17*
%TO.C,U83*%
X243204999Y-19050000D03*
X233045001Y-19050000D03*
D18*
X237175000Y-17895000D03*
X238125000Y-20245000D03*
X239075000Y-17895000D03*
%TD*%
D13*
%TO.C,C140*%
X135612500Y-56880000D03*
X135612500Y-55920000D03*
%TD*%
D17*
%TO.C,U101*%
X290829999Y-19050000D03*
X280670001Y-19050000D03*
D18*
X284800000Y-17895000D03*
X285750000Y-20245000D03*
X286700000Y-17895000D03*
%TD*%
D26*
%TO.C,U33*%
X23812500Y-65405000D03*
D27*
X23812500Y-50165000D03*
D17*
X16986250Y-57150000D03*
X6826250Y-57150000D03*
D26*
X0Y-65405000D03*
D27*
X0Y-50165000D03*
D18*
X10956250Y-55995000D03*
X11906250Y-58345000D03*
X12856250Y-55995000D03*
%TD*%
D14*
%TO.C,C233*%
X8271874Y-80530000D03*
X8271874Y-82030000D03*
%TD*%
D13*
%TO.C,C96*%
X102275000Y-18780000D03*
X102275000Y-17820000D03*
%TD*%
D28*
%TO.C,U27*%
X22644788Y-33761764D03*
X22361945Y-34044607D03*
X22079103Y-34327449D03*
X21796260Y-34610292D03*
X21513417Y-34893135D03*
X21230574Y-35175978D03*
X20947732Y-35458820D03*
X20664889Y-35741663D03*
D29*
X19816361Y-35741663D03*
X19533518Y-35458820D03*
X19250676Y-35175978D03*
X18967833Y-34893135D03*
X18684990Y-34610292D03*
X18402147Y-34327449D03*
X18119305Y-34044607D03*
X17836462Y-33761764D03*
D28*
X17836462Y-32913236D03*
X18119305Y-32630393D03*
X18402147Y-32347551D03*
X18684990Y-32064708D03*
X18967833Y-31781865D03*
X19250676Y-31499022D03*
X19533518Y-31216180D03*
X19816361Y-30933337D03*
D29*
X20664889Y-30933337D03*
X20947732Y-31216180D03*
X21230574Y-31499022D03*
X21513417Y-31781865D03*
X21796260Y-32064708D03*
X22079103Y-32347551D03*
X22361945Y-32630393D03*
X22644788Y-32913236D03*
D30*
X20240625Y-33337500D03*
%TD*%
D13*
%TO.C,C43*%
X64412500Y-56880000D03*
X64412500Y-55920000D03*
%TD*%
D14*
%TO.C,C103*%
X80899999Y-4330000D03*
X80899999Y-5830000D03*
%TD*%
%TO.C,C183*%
X261874999Y-4330000D03*
X261874999Y-5830000D03*
%TD*%
D23*
%TO.C,C2*%
X10042500Y-32635938D03*
X9082500Y-32635938D03*
%TD*%
D13*
%TO.C,C184*%
X288250000Y-18780000D03*
X288250000Y-17820000D03*
%TD*%
%TO.C,C93*%
X26075000Y-18780000D03*
X26075000Y-17820000D03*
%TD*%
%TO.C,C130*%
X4643750Y-37830000D03*
X4643750Y-36870000D03*
%TD*%
D23*
%TO.C,C14*%
X1282500Y-13496875D03*
X2242500Y-13496875D03*
%TD*%
D13*
%TO.C,R4*%
X-2237500Y-7690000D03*
X-2237500Y-8650000D03*
%TD*%
%TO.C,C89*%
X240625000Y-18780000D03*
X240625000Y-17820000D03*
%TD*%
D17*
%TO.C,U104*%
X290829999Y-76200000D03*
X280670001Y-76200000D03*
D18*
X284800000Y-75045000D03*
X285750000Y-77395000D03*
X286700000Y-75045000D03*
%TD*%
D13*
%TO.C,C177*%
X135850000Y-75930000D03*
X135850000Y-74970000D03*
%TD*%
%TO.C,C63*%
X149900000Y270000D03*
X149900000Y1230000D03*
%TD*%
D14*
%TO.C,C194*%
X119125001Y-24879999D03*
X119125001Y-23379999D03*
%TD*%
D13*
%TO.C,C88*%
X231100000Y270000D03*
X231100000Y1230000D03*
%TD*%
D14*
%TO.C,C240*%
X252349999Y-80530000D03*
X252349999Y-82030000D03*
%TD*%
D19*
%TO.C,U51*%
X154262500Y-32635938D03*
X154262500Y-31985938D03*
X154262500Y-31335938D03*
X154262500Y-30685938D03*
X154262500Y-30035938D03*
X154262500Y-29385938D03*
X154262500Y-28735938D03*
X154262500Y-28085938D03*
X160062500Y-28085938D03*
X160062500Y-28735938D03*
X160062500Y-29385938D03*
X160062500Y-30035938D03*
X160062500Y-30685938D03*
X160062500Y-31335938D03*
X160062500Y-31985938D03*
X160062500Y-32635938D03*
%TD*%
D17*
%TO.C,U17*%
X33654999Y-19050000D03*
X23495001Y-19050000D03*
D18*
X27625000Y-17895000D03*
X28575000Y-20245000D03*
X29525000Y-17895000D03*
%TD*%
D23*
%TO.C,C4*%
X233880000Y-51785938D03*
X232920000Y-51785938D03*
%TD*%
D14*
%TO.C,C195*%
X138175001Y-24879999D03*
X138175001Y-23379999D03*
%TD*%
D13*
%TO.C,C37*%
X45362500Y-56880000D03*
X45362500Y-55920000D03*
%TD*%
D22*
%TO.C,TP4*%
X20240625Y-28537500D03*
%TD*%
D14*
%TO.C,C179*%
X195199999Y-4330000D03*
X195199999Y-5830000D03*
%TD*%
D17*
%TO.C,U102*%
X290829999Y-38100000D03*
X280670001Y-38100000D03*
D18*
X284800000Y-36945000D03*
X285750000Y-39295000D03*
X286700000Y-36945000D03*
%TD*%
D14*
%TO.C,C206*%
X7206251Y-62979999D03*
X7206251Y-61479999D03*
%TD*%
D13*
%TO.C,C137*%
X192762500Y-56880000D03*
X192762500Y-55920000D03*
%TD*%
%TO.C,C168*%
X14406250Y-56880000D03*
X14406250Y-55920000D03*
%TD*%
D26*
%TO.C,U3*%
X269081250Y-8255000D03*
D27*
X269081250Y6985000D03*
D17*
X262255000Y0D03*
X252095000Y0D03*
D26*
X245268750Y-8255000D03*
D27*
X245268750Y6985000D03*
D18*
X256225000Y1155000D03*
X257175000Y-1195000D03*
X258125000Y1155000D03*
%TD*%
D13*
%TO.C,C113*%
X252293750Y-37830000D03*
X252293750Y-36870000D03*
%TD*%
D31*
%TO.C,C10*%
X17638473Y-30169662D03*
X18317295Y-30848484D03*
%TD*%
D19*
%TO.C,U62*%
X225700000Y-32635938D03*
X225700000Y-31985938D03*
X225700000Y-31335938D03*
X225700000Y-30685938D03*
X225700000Y-30035938D03*
X225700000Y-29385938D03*
X225700000Y-28735938D03*
X225700000Y-28085938D03*
X231500000Y-28085938D03*
X231500000Y-28735938D03*
X231500000Y-29385938D03*
X231500000Y-30035938D03*
X231500000Y-30685938D03*
X231500000Y-31335938D03*
X231500000Y-31985938D03*
X231500000Y-32635938D03*
%TD*%
D13*
%TO.C,C52*%
X116800000Y270000D03*
X116800000Y1230000D03*
%TD*%
%TO.C,C51*%
X-2500000Y270000D03*
X-2500000Y1230000D03*
%TD*%
%TO.C,C85*%
X197762500Y-56880000D03*
X197762500Y-55920000D03*
%TD*%
%TO.C,C31*%
X26312500Y-56880000D03*
X26312500Y-55920000D03*
%TD*%
%TO.C,C124*%
X145137500Y-37830000D03*
X145137500Y-36870000D03*
%TD*%
%TO.C,C118*%
X283250000Y-37830000D03*
X283250000Y-36870000D03*
%TD*%
D17*
%TO.C,U34*%
X81279999Y0D03*
X71120001Y0D03*
D18*
X75250000Y1155000D03*
X76200000Y-1195000D03*
X77150000Y1155000D03*
%TD*%
D17*
%TO.C,U35*%
X90804999Y-19050000D03*
X80645001Y-19050000D03*
D18*
X84775000Y-17895000D03*
X85725000Y-20245000D03*
X86675000Y-17895000D03*
%TD*%
D13*
%TO.C,C53*%
X126325000Y-18780000D03*
X126325000Y-17820000D03*
%TD*%
D14*
%TO.C,C199*%
X214375001Y-24879999D03*
X214375001Y-23379999D03*
%TD*%
D13*
%TO.C,C80*%
X226100000Y270000D03*
X226100000Y1230000D03*
%TD*%
%TO.C,C107*%
X243006250Y-56880000D03*
X243006250Y-55920000D03*
%TD*%
D14*
%TO.C,C110*%
X99949999Y-4330000D03*
X99949999Y-5830000D03*
%TD*%
D13*
%TO.C,C139*%
X154662500Y-56880000D03*
X154662500Y-55920000D03*
%TD*%
D23*
%TO.C,C6*%
X48142500Y-32635938D03*
X47182500Y-32635938D03*
%TD*%
D14*
%TO.C,C150*%
X118999999Y-4330000D03*
X118999999Y-5830000D03*
%TD*%
D13*
%TO.C,C7*%
X7362500Y-9616875D03*
X7362500Y-10576875D03*
%TD*%
%TO.C,C143*%
X97512500Y-56880000D03*
X97512500Y-55920000D03*
%TD*%
%TO.C,C111*%
X197525000Y-18780000D03*
X197525000Y-17820000D03*
%TD*%
D17*
%TO.C,U6*%
X57467500Y-76200000D03*
X47307500Y-76200000D03*
D25*
X53542500Y-75250000D03*
X51192500Y-76200000D03*
X53542500Y-77150000D03*
%TD*%
D13*
%TO.C,C76*%
X193000000Y270000D03*
X193000000Y1230000D03*
%TD*%
D32*
%TO.C,U85*%
X3762500Y-11696875D03*
X4262500Y-11696875D03*
X4762500Y-11696875D03*
X5262500Y-11696875D03*
X5762500Y-11696875D03*
X5762500Y-14496875D03*
X5262500Y-14496875D03*
X4762500Y-14496875D03*
X4262500Y-14496875D03*
X3762500Y-14496875D03*
D33*
X4762500Y-13096875D03*
%TD*%
D23*
%TO.C,C169*%
X12492500Y-77050000D03*
X11532500Y-77050000D03*
%TD*%
D13*
%TO.C,C45*%
X111800000Y270000D03*
X111800000Y1230000D03*
%TD*%
%TO.C,C67*%
X140612500Y-56880000D03*
X140612500Y-55920000D03*
%TD*%
%TO.C,C109*%
X288250000Y-56880000D03*
X288250000Y-55920000D03*
%TD*%
%TO.C,C133*%
X40362500Y-56880000D03*
X40362500Y-55920000D03*
%TD*%
D14*
%TO.C,C239*%
X220203124Y-80530000D03*
X220203124Y-82030000D03*
%TD*%
D19*
%TO.C,U74*%
X276658750Y-51785938D03*
X276658750Y-51135938D03*
X276658750Y-50485938D03*
X276658750Y-49835938D03*
X276658750Y-49185938D03*
X276658750Y-48535938D03*
X276658750Y-47885938D03*
X276658750Y-47235938D03*
X282458750Y-47235938D03*
X282458750Y-47885938D03*
X282458750Y-48535938D03*
X282458750Y-49185938D03*
X282458750Y-49835938D03*
X282458750Y-50485938D03*
X282458750Y-51135938D03*
X282458750Y-51785938D03*
%TD*%
D13*
%TO.C,C29*%
X50125000Y-18780000D03*
X50125000Y-17820000D03*
%TD*%
D14*
%TO.C,C196*%
X157225001Y-24879999D03*
X157225001Y-23379999D03*
%TD*%
%TO.C,C215*%
X133287499Y-42430000D03*
X133287499Y-43930000D03*
%TD*%
D17*
%TO.C,U36*%
X95567499Y-38100000D03*
X85407501Y-38100000D03*
D18*
X89537500Y-36945000D03*
X90487500Y-39295000D03*
X91437500Y-36945000D03*
%TD*%
D14*
%TO.C,C222*%
X152462501Y-62979999D03*
X152462501Y-61479999D03*
%TD*%
D17*
%TO.C,U70*%
X195579999Y0D03*
X185420001Y0D03*
D18*
X189550000Y1155000D03*
X190500000Y-1195000D03*
X191450000Y1155000D03*
%TD*%
D17*
%TO.C,U8*%
X219392500Y-76200000D03*
X209232500Y-76200000D03*
D25*
X215467500Y-75250000D03*
X213117500Y-76200000D03*
X215467500Y-77150000D03*
%TD*%
D13*
%TO.C,C86*%
X283250000Y270000D03*
X283250000Y1230000D03*
%TD*%
D17*
%TO.C,U43*%
X105092499Y-57150000D03*
X94932501Y-57150000D03*
D18*
X99062500Y-55995000D03*
X100012500Y-58345000D03*
X100962500Y-55995000D03*
%TD*%
D17*
%TO.C,U15*%
X197961250Y-76200000D03*
X187801250Y-76200000D03*
D18*
X191931250Y-75045000D03*
X192881250Y-77395000D03*
X193831250Y-75045000D03*
%TD*%
D13*
%TO.C,R2*%
X7799999Y115344D03*
X7799999Y1075344D03*
%TD*%
%TO.C,C79*%
X178712500Y-56880000D03*
X178712500Y-55920000D03*
%TD*%
D14*
%TO.C,C62*%
X42799999Y-4330000D03*
X42799999Y-5830000D03*
%TD*%
D17*
%TO.C,U103*%
X290829999Y-57150000D03*
X280670001Y-57150000D03*
D18*
X284800000Y-55995000D03*
X285750000Y-58345000D03*
X286700000Y-55995000D03*
%TD*%
D17*
%TO.C,U52*%
X138429999Y0D03*
X128270001Y0D03*
D18*
X132400000Y1155000D03*
X133350000Y-1195000D03*
X134300000Y1155000D03*
%TD*%
D17*
%TO.C,U97*%
X271779999Y-57150000D03*
X261620001Y-57150000D03*
D18*
X265750000Y-55995000D03*
X266700000Y-58345000D03*
X267650000Y-55995000D03*
%TD*%
D17*
%TO.C,U22*%
X43179999Y0D03*
X33020001Y0D03*
D18*
X37150000Y1155000D03*
X38100000Y-1195000D03*
X39050000Y1155000D03*
%TD*%
D14*
%TO.C,C50*%
X23749999Y-4330000D03*
X23749999Y-5830000D03*
%TD*%
D13*
%TO.C,C97*%
X216812500Y-56880000D03*
X216812500Y-55920000D03*
%TD*%
D14*
%TO.C,C229*%
X290449999Y-42430000D03*
X290449999Y-43930000D03*
%TD*%
D17*
%TO.C,U5*%
X33655000Y-76200000D03*
X23495000Y-76200000D03*
D25*
X29730000Y-75250000D03*
X27380000Y-76200000D03*
X29730000Y-77150000D03*
%TD*%
D17*
%TO.C,U67*%
X181292499Y-57150000D03*
X171132501Y-57150000D03*
D18*
X175262500Y-55995000D03*
X176212500Y-58345000D03*
X177162500Y-55995000D03*
%TD*%
D13*
%TO.C,C126*%
X107037500Y-37830000D03*
X107037500Y-36870000D03*
%TD*%
D14*
%TO.C,C237*%
X138049999Y-80530000D03*
X138049999Y-82030000D03*
%TD*%
%TO.C,C166*%
X157099999Y-4330000D03*
X157099999Y-5830000D03*
%TD*%
D17*
%TO.C,U54*%
X152717499Y-38100000D03*
X142557501Y-38100000D03*
D18*
X146687500Y-36945000D03*
X147637500Y-39295000D03*
X148587500Y-36945000D03*
%TD*%
D17*
%TO.C,U53*%
X147954999Y-19050000D03*
X137795001Y-19050000D03*
D18*
X141925000Y-17895000D03*
X142875000Y-20245000D03*
X143825000Y-17895000D03*
%TD*%
D13*
%TO.C,C64*%
X154900000Y270000D03*
X154900000Y1230000D03*
%TD*%
D17*
%TO.C,U29*%
X71754999Y-19050000D03*
X61595001Y-19050000D03*
D18*
X65725000Y-17895000D03*
X66675000Y-20245000D03*
X67625000Y-17895000D03*
%TD*%
D13*
%TO.C,C49*%
X83462500Y-56880000D03*
X83462500Y-55920000D03*
%TD*%
%TO.C,C82*%
X212050000Y270000D03*
X212050000Y1230000D03*
%TD*%
%TO.C,C138*%
X173712500Y-56880000D03*
X173712500Y-55920000D03*
%TD*%
D14*
%TO.C,C218*%
X114362501Y-62979999D03*
X114362501Y-61479999D03*
%TD*%
D34*
%TO.C,J2*%
X17513610Y-8284344D03*
X17513610Y-13884344D03*
D35*
X13638610Y-9584344D03*
X13638611Y-10584344D03*
X13638611Y-11584344D03*
X13638610Y-12584344D03*
%TD*%
D17*
%TO.C,U14*%
X7461250Y-76200000D03*
X-2698750Y-76200000D03*
D25*
X3536250Y-75250000D03*
X1186250Y-76200000D03*
X3536250Y-77150000D03*
%TD*%
D13*
%TO.C,C55*%
X102512500Y-56880000D03*
X102512500Y-55920000D03*
%TD*%
%TO.C,C116*%
X283250000Y-18780000D03*
X283250000Y-17820000D03*
%TD*%
%TO.C,C38*%
X54650000Y270000D03*
X54650000Y1230000D03*
%TD*%
D17*
%TO.C,U40*%
X100329999Y0D03*
X90170001Y0D03*
D18*
X94300000Y1155000D03*
X95250000Y-1195000D03*
X96200000Y1155000D03*
%TD*%
D23*
%TO.C,C158*%
X210832500Y-74450000D03*
X211792500Y-74450000D03*
%TD*%
D14*
%TO.C,C238*%
X197581249Y-79530000D03*
X197581249Y-81030000D03*
%TD*%
%TO.C,C167*%
X176149999Y-4330000D03*
X176149999Y-5830000D03*
%TD*%
D36*
%TO.C,R35*%
X16620238Y-32545540D03*
X15941416Y-31866718D03*
%TD*%
D14*
%TO.C,C205*%
X38037499Y-42430000D03*
X38037499Y-43930000D03*
%TD*%
D13*
%TO.C,C46*%
X97750000Y270000D03*
X97750000Y1230000D03*
%TD*%
%TO.C,C69*%
X188000000Y270000D03*
X188000000Y1230000D03*
%TD*%
D23*
%TO.C,C149*%
X46526250Y-74450000D03*
X47486250Y-74450000D03*
%TD*%
%TO.C,C1*%
X3230000Y2499999D03*
X2270000Y2499999D03*
%TD*%
D14*
%TO.C,C189*%
X23875001Y-24879999D03*
X23875001Y-23379999D03*
%TD*%
D13*
%TO.C,C74*%
X207050000Y270000D03*
X207050000Y1230000D03*
%TD*%
D14*
%TO.C,C212*%
X57212501Y-62979999D03*
X57212501Y-61479999D03*
%TD*%
D19*
%TO.C,U2*%
X1862500Y-32635938D03*
X1862500Y-31985938D03*
X1862500Y-31335938D03*
X1862500Y-30685938D03*
X1862500Y-30035938D03*
X1862500Y-29385938D03*
X1862500Y-28735938D03*
X1862500Y-28085938D03*
X7662500Y-28085938D03*
X7662500Y-28735938D03*
X7662500Y-29385938D03*
X7662500Y-30035938D03*
X7662500Y-30685938D03*
X7662500Y-31335938D03*
X7662500Y-31985938D03*
X7662500Y-32635938D03*
%TD*%
D13*
%TO.C,C163*%
X130850000Y-75930000D03*
X130850000Y-74970000D03*
%TD*%
D14*
%TO.C,C188*%
X62501Y-24879999D03*
X62501Y-23379999D03*
%TD*%
D13*
%TO.C,C32*%
X35700000Y-11804344D03*
X35700000Y-12764344D03*
%TD*%
D17*
%TO.C,U47*%
X128904999Y-19050000D03*
X118745001Y-19050000D03*
D18*
X122875000Y-17895000D03*
X123825000Y-20245000D03*
X124775000Y-17895000D03*
%TD*%
D14*
%TO.C,C211*%
X95187499Y-42430000D03*
X95187499Y-43930000D03*
%TD*%
%TO.C,C230*%
X235806251Y-62979999D03*
X235806251Y-61479999D03*
%TD*%
D13*
%TO.C,C112*%
X216575000Y-18780000D03*
X216575000Y-17820000D03*
%TD*%
D14*
%TO.C,C207*%
X57087499Y-42430000D03*
X57087499Y-43930000D03*
%TD*%
D13*
%TO.C,C68*%
X168950000Y270000D03*
X168950000Y1230000D03*
%TD*%
%TO.C,C27*%
X16550000Y270000D03*
X16550000Y1230000D03*
%TD*%
D23*
%TO.C,R1*%
X3230000Y3499999D03*
X2270000Y3499999D03*
%TD*%
D17*
%TO.C,U71*%
X205104999Y-19050000D03*
X194945001Y-19050000D03*
D18*
X199075000Y-17895000D03*
X200025000Y-20245000D03*
X200975000Y-17895000D03*
%TD*%
D13*
%TO.C,C94*%
X250150000Y270000D03*
X250150000Y1230000D03*
%TD*%
%TO.C,C15*%
X259675000Y270000D03*
X259675000Y1230000D03*
%TD*%
D37*
%TO.C,L1*%
X6012500Y-9696875D03*
X3512500Y-9696875D03*
%TD*%
D13*
%TO.C,C142*%
X78462500Y-56880000D03*
X78462500Y-55920000D03*
%TD*%
D14*
%TO.C,C162*%
X138049999Y-4330000D03*
X138049999Y-5830000D03*
%TD*%
D23*
%TO.C,C20*%
X1282500Y-12496875D03*
X2242500Y-12496875D03*
%TD*%
D17*
%TO.C,U80*%
X28892499Y-57150000D03*
X18732501Y-57150000D03*
D18*
X22862500Y-55995000D03*
X23812500Y-58345000D03*
X24762500Y-55995000D03*
%TD*%
D38*
%TO.C,USB1*%
X6160000Y3931000D03*
X11940000Y3931000D03*
D39*
X5825000Y2486000D03*
X6600000Y2486000D03*
D40*
X7300000Y2486000D03*
X7800000Y2486000D03*
X8300000Y2486000D03*
X8800000Y2486000D03*
X9300000Y2486000D03*
X9800000Y2486000D03*
X10300000Y2486000D03*
X10800000Y2486000D03*
D39*
X11500000Y2486000D03*
X12275000Y2486000D03*
D41*
X4730000Y7581000D03*
D42*
X4730000Y3401000D03*
D41*
X13370000Y7581000D03*
D42*
X13370000Y3401000D03*
%TD*%
D13*
%TO.C,C90*%
X257293750Y-37830000D03*
X257293750Y-36870000D03*
%TD*%
%TO.C,C114*%
X235625000Y-18780000D03*
X235625000Y-17820000D03*
%TD*%
D17*
%TO.C,U100*%
X290829999Y0D03*
X280670001Y0D03*
D18*
X284800000Y1155000D03*
X285750000Y-1195000D03*
X286700000Y1155000D03*
%TD*%
D14*
%TO.C,C208*%
X19112501Y-62979999D03*
X19112501Y-61479999D03*
%TD*%
D43*
%TO.C,U19*%
X37150000Y-9946844D03*
X38100000Y-9946844D03*
X39050000Y-9946844D03*
X39050000Y-12221844D03*
X37150000Y-12221844D03*
%TD*%
D17*
%TO.C,U28*%
X62229999Y0D03*
X52070001Y0D03*
D18*
X56200000Y1155000D03*
X57150000Y-1195000D03*
X58100000Y1155000D03*
%TD*%
D13*
%TO.C,C172*%
X250150000Y-75930000D03*
X250150000Y-74970000D03*
%TD*%
%TO.C,C92*%
X83225000Y-18780000D03*
X83225000Y-17820000D03*
%TD*%
%TO.C,C101*%
X140375000Y-18780000D03*
X140375000Y-17820000D03*
%TD*%
D17*
%TO.C,U94*%
X271779999Y0D03*
X261620001Y0D03*
D18*
X265750000Y1155000D03*
X266700000Y-1195000D03*
X267650000Y1155000D03*
%TD*%
D17*
%TO.C,U42*%
X114617499Y-38100000D03*
X104457501Y-38100000D03*
D18*
X108587500Y-36945000D03*
X109537500Y-39295000D03*
X110487500Y-36945000D03*
%TD*%
D14*
%TO.C,C214*%
X76262501Y-62979999D03*
X76262501Y-61479999D03*
%TD*%
%TO.C,C98*%
X61849999Y-4330000D03*
X61849999Y-5830000D03*
%TD*%
D13*
%TO.C,C59*%
X145375000Y-18780000D03*
X145375000Y-17820000D03*
%TD*%
D14*
%TO.C,C204*%
X-2318749Y-62979999D03*
X-2318749Y-61479999D03*
%TD*%
%TO.C,C191*%
X61975001Y-24879999D03*
X61975001Y-23379999D03*
%TD*%
D19*
%TO.C,U38*%
X78062500Y-32635938D03*
X78062500Y-31985938D03*
X78062500Y-31335938D03*
X78062500Y-30685938D03*
X78062500Y-30035938D03*
X78062500Y-29385938D03*
X78062500Y-28735938D03*
X78062500Y-28085938D03*
X83862500Y-28085938D03*
X83862500Y-28735938D03*
X83862500Y-29385938D03*
X83862500Y-30035938D03*
X83862500Y-30685938D03*
X83862500Y-31335938D03*
X83862500Y-31985938D03*
X83862500Y-32635938D03*
%TD*%
D17*
%TO.C,U4*%
X9842500Y-76200000D03*
X-317500Y-76200000D03*
D25*
X5917500Y-75250000D03*
X3567500Y-76200000D03*
X5917500Y-77150000D03*
%TD*%
D17*
%TO.C,U91*%
X245586250Y-57150000D03*
X235426250Y-57150000D03*
D18*
X239556250Y-55995000D03*
X240506250Y-58345000D03*
X241456250Y-55995000D03*
%TD*%
D17*
%TO.C,U11*%
X9842500Y-19050000D03*
X-317500Y-19050000D03*
D18*
X3812500Y-17895000D03*
X4762500Y-20245000D03*
X5712500Y-17895000D03*
%TD*%
D13*
%TO.C,C40*%
X78700000Y270000D03*
X78700000Y1230000D03*
%TD*%
%TO.C,C132*%
X-118750Y-56880000D03*
X-118750Y-55920000D03*
%TD*%
D22*
%TO.C,TP1*%
X16240625Y-25537500D03*
%TD*%
D13*
%TO.C,C108*%
X269200000Y-56880000D03*
X269200000Y-55920000D03*
%TD*%
%TO.C,C78*%
X207287500Y-37830000D03*
X207287500Y-36870000D03*
%TD*%
D14*
%TO.C,C187*%
X290449999Y-4330000D03*
X290449999Y-5830000D03*
%TD*%
D13*
%TO.C,C100*%
X269200000Y270000D03*
X269200000Y1230000D03*
%TD*%
%TO.C,C144*%
X116562500Y-56880000D03*
X116562500Y-55920000D03*
%TD*%
D14*
%TO.C,C182*%
X252349999Y-4330000D03*
X252349999Y-5830000D03*
%TD*%
D19*
%TO.C,U32*%
X39962500Y-32635938D03*
X39962500Y-31985938D03*
X39962500Y-31335938D03*
X39962500Y-30685938D03*
X39962500Y-30035938D03*
X39962500Y-29385938D03*
X39962500Y-28735938D03*
X39962500Y-28085938D03*
X45762500Y-28085938D03*
X45762500Y-28735938D03*
X45762500Y-29385938D03*
X45762500Y-30035938D03*
X45762500Y-30685938D03*
X45762500Y-31335938D03*
X45762500Y-31985938D03*
X45762500Y-32635938D03*
%TD*%
D17*
%TO.C,U73*%
X200342499Y-57150000D03*
X190182501Y-57150000D03*
D18*
X194312500Y-55995000D03*
X195262500Y-58345000D03*
X196212500Y-55995000D03*
%TD*%
D14*
%TO.C,C190*%
X42925001Y-24879999D03*
X42925001Y-23379999D03*
%TD*%
D26*
%TO.C,U84*%
X266700001Y-29845000D03*
D27*
X266700000Y-45085000D03*
D17*
X259873749Y-38100000D03*
X249713751Y-38100000D03*
D27*
X242887500Y-45085000D03*
D26*
X242887499Y-29845000D03*
D18*
X253843750Y-36945000D03*
X254793750Y-39295000D03*
X255743750Y-36945000D03*
%TD*%
D17*
%TO.C,U41*%
X109854999Y-19050000D03*
X99695001Y-19050000D03*
D18*
X103825000Y-17895000D03*
X104775000Y-20245000D03*
X105725000Y-17895000D03*
%TD*%
D17*
%TO.C,U48*%
X133667499Y-38100000D03*
X123507501Y-38100000D03*
D18*
X127637500Y-36945000D03*
X128587500Y-39295000D03*
X129537500Y-36945000D03*
%TD*%
D14*
%TO.C,C201*%
X257237501Y-24879999D03*
X257237501Y-23379999D03*
%TD*%
D13*
%TO.C,C57*%
X130850000Y270000D03*
X130850000Y1230000D03*
%TD*%
%TO.C,C65*%
X164425000Y-18780000D03*
X164425000Y-17820000D03*
%TD*%
D17*
%TO.C,U60*%
X171767499Y-38100000D03*
X161607501Y-38100000D03*
D18*
X165737500Y-36945000D03*
X166687500Y-39295000D03*
X167637500Y-36945000D03*
%TD*%
D23*
%TO.C,C147*%
X-1098750Y-74450000D03*
X-138750Y-74450000D03*
%TD*%
D13*
%TO.C,C174*%
X288250000Y-75930000D03*
X288250000Y-74970000D03*
%TD*%
D23*
%TO.C,C170*%
X36305000Y-77050000D03*
X35345000Y-77050000D03*
%TD*%
D13*
%TO.C,C25*%
X51950000Y-11964344D03*
X51950000Y-11004344D03*
%TD*%
D17*
%TO.C,U64*%
X176529999Y0D03*
X166370001Y0D03*
D18*
X170500000Y1155000D03*
X171450000Y-1195000D03*
X172400000Y1155000D03*
%TD*%
D23*
%TO.C,C154*%
X162442500Y-32635938D03*
X161482500Y-32635938D03*
%TD*%
D27*
%TO.C,U7*%
X190500000Y-83185000D03*
D26*
X190500000Y-67945000D03*
D17*
X138430000Y-76200000D03*
X128270000Y-76200000D03*
D27*
X76200000Y-83185000D03*
D26*
X76200000Y-67945000D03*
D18*
X132400000Y-75045000D03*
X133350000Y-77395000D03*
X134300000Y-75045000D03*
%TD*%
D17*
%TO.C,U59*%
X167004999Y-19050000D03*
X156845001Y-19050000D03*
D18*
X160975000Y-17895000D03*
X161925000Y-20245000D03*
X162875000Y-17895000D03*
%TD*%
D13*
%TO.C,C70*%
X173950000Y270000D03*
X173950000Y1230000D03*
%TD*%
D14*
%TO.C,C225*%
X228537499Y-42430000D03*
X228537499Y-43930000D03*
%TD*%
D13*
%TO.C,C119*%
X221337500Y-37830000D03*
X221337500Y-36870000D03*
%TD*%
D19*
%TO.C,U69*%
X225700000Y-51785938D03*
X225700000Y-51135938D03*
X225700000Y-50485938D03*
X225700000Y-49835938D03*
X225700000Y-49185938D03*
X225700000Y-48535938D03*
X225700000Y-47885938D03*
X225700000Y-47235938D03*
X231500000Y-47235938D03*
X231500000Y-47885938D03*
X231500000Y-48535938D03*
X231500000Y-49185938D03*
X231500000Y-49835938D03*
X231500000Y-50485938D03*
X231500000Y-51135938D03*
X231500000Y-51785938D03*
%TD*%
D17*
%TO.C,U78*%
X228917499Y-38100000D03*
X218757501Y-38100000D03*
D18*
X222887500Y-36945000D03*
X223837500Y-39295000D03*
X224787500Y-36945000D03*
%TD*%
D13*
%TO.C,C131*%
X9406250Y-56880000D03*
X9406250Y-55920000D03*
%TD*%
D16*
%TO.C,C11*%
X23393435Y-37225702D03*
X22714613Y-37904524D03*
%TD*%
D17*
%TO.C,U16*%
X24129999Y0D03*
X13970001Y0D03*
D18*
X18100000Y1155000D03*
X19050000Y-1195000D03*
X20000000Y1155000D03*
%TD*%
D13*
%TO.C,C77*%
X202525000Y-18780000D03*
X202525000Y-17820000D03*
%TD*%
D14*
%TO.C,C217*%
X152337499Y-42430000D03*
X152337499Y-43930000D03*
%TD*%
D13*
%TO.C,C157*%
X190381250Y-75930000D03*
X190381250Y-74970000D03*
%TD*%
D14*
%TO.C,C200*%
X233425001Y-24879999D03*
X233425001Y-23379999D03*
%TD*%
D13*
%TO.C,C16*%
X2500000Y270000D03*
X2500000Y1230000D03*
%TD*%
%TO.C,C83*%
X221575000Y-18780000D03*
X221575000Y-17820000D03*
%TD*%
D44*
%TO.C,R113*%
X7362500Y-11586875D03*
X7362500Y-12606875D03*
%TD*%
D13*
%TO.C,C87*%
X45125000Y-18780000D03*
X45125000Y-17820000D03*
%TD*%
%TO.C,C106*%
X288250000Y270000D03*
X288250000Y1230000D03*
%TD*%
%TO.C,C39*%
X73700000Y270000D03*
X73700000Y1230000D03*
%TD*%
%TO.C,C146*%
X21312500Y-56880000D03*
X21312500Y-55920000D03*
%TD*%
%TO.C,C26*%
X35700000Y-10364344D03*
X35700000Y-9404344D03*
%TD*%
D14*
%TO.C,C213*%
X114237499Y-42430000D03*
X114237499Y-43930000D03*
%TD*%
%TO.C,C242*%
X290449999Y-80530000D03*
X290449999Y-82030000D03*
%TD*%
D13*
%TO.C,C54*%
X131087500Y-37830000D03*
X131087500Y-36870000D03*
%TD*%
%TO.C,C136*%
X211812500Y-56880000D03*
X211812500Y-55920000D03*
%TD*%
%TO.C,C102*%
X159425000Y-18780000D03*
X159425000Y-17820000D03*
%TD*%
%TO.C,C47*%
X107275000Y-18780000D03*
X107275000Y-17820000D03*
%TD*%
%TO.C,C153*%
X118943750Y-75930000D03*
X118943750Y-74970000D03*
%TD*%
D14*
%TO.C,C219*%
X171387499Y-42430000D03*
X171387499Y-43930000D03*
%TD*%
D13*
%TO.C,C185*%
X288250000Y-37830000D03*
X288250000Y-36870000D03*
%TD*%
D45*
%TO.C,C165*%
X7362500Y-14576875D03*
X7362500Y-13616875D03*
%TD*%
D17*
%TO.C,U88*%
X252729999Y0D03*
X242570001Y0D03*
D18*
X246700000Y1155000D03*
X247650000Y-1195000D03*
X248600000Y1155000D03*
%TD*%
D14*
%TO.C,C241*%
X271399999Y-80530000D03*
X271399999Y-82030000D03*
%TD*%
D46*
%TO.C,JP1*%
X21425000Y-14750000D03*
D47*
X21425000Y-16050000D03*
%TD*%
D17*
%TO.C,U49*%
X124142499Y-57150000D03*
X113982501Y-57150000D03*
D18*
X118112500Y-55995000D03*
X119062500Y-58345000D03*
X120012500Y-55995000D03*
%TD*%
D17*
%TO.C,U20*%
X31273750Y-76200000D03*
X21113750Y-76200000D03*
D25*
X27348750Y-75250000D03*
X24998750Y-76200000D03*
X27348750Y-77150000D03*
%TD*%
D13*
%TO.C,C134*%
X238006250Y-56880000D03*
X238006250Y-55920000D03*
%TD*%
D23*
%TO.C,C152*%
X200542500Y-32635938D03*
X199582500Y-32635938D03*
%TD*%
D17*
%TO.C,U61*%
X162242499Y-57150000D03*
X152082501Y-57150000D03*
D18*
X156212500Y-55995000D03*
X157162500Y-58345000D03*
X158112500Y-55995000D03*
%TD*%
D27*
%TO.C,U44*%
X171443650Y-83185000D03*
D26*
X171443650Y-67945000D03*
D17*
X126523750Y-76200000D03*
X116363750Y-76200000D03*
D27*
X71443850Y-83185000D03*
D26*
X71443850Y-67945000D03*
D18*
X120493750Y-75045000D03*
X121443750Y-77395000D03*
X122393750Y-75045000D03*
%TD*%
D13*
%TO.C,C81*%
X264200000Y270000D03*
X264200000Y1230000D03*
%TD*%
D17*
%TO.C,U46*%
X119379999Y0D03*
X109220001Y0D03*
D18*
X113350000Y1155000D03*
X114300000Y-1195000D03*
X115250000Y1155000D03*
%TD*%
D16*
%TO.C,C9*%
X24398413Y-31725297D03*
X23719591Y-32404119D03*
%TD*%
D17*
%TO.C,U76*%
X214629999Y0D03*
X204470001Y0D03*
D18*
X208600000Y1155000D03*
X209550000Y-1195000D03*
X210500000Y1155000D03*
%TD*%
D14*
%TO.C,C209*%
X76137499Y-42430000D03*
X76137499Y-43930000D03*
%TD*%
D48*
%TO.C,JP2*%
X700000Y-16000000D03*
D49*
X2000000Y-16000000D03*
%TD*%
D14*
%TO.C,C210*%
X38162501Y-62979999D03*
X38162501Y-61479999D03*
%TD*%
%TO.C,C186*%
X271399999Y-4330000D03*
X271399999Y-5830000D03*
%TD*%
D17*
%TO.C,U98*%
X271779999Y-76200000D03*
X261620001Y-76200000D03*
D18*
X265750000Y-75045000D03*
X266700000Y-77395000D03*
X267650000Y-75045000D03*
%TD*%
D23*
%TO.C,C148*%
X22713750Y-74450000D03*
X23673750Y-74450000D03*
%TD*%
D13*
%TO.C,C91*%
X64175000Y-18780000D03*
X64175000Y-17820000D03*
%TD*%
%TO.C,C159*%
X245150000Y-75930000D03*
X245150000Y-74970000D03*
%TD*%
D17*
%TO.C,U21*%
X221773750Y-76200000D03*
X211613750Y-76200000D03*
D25*
X217848750Y-75250000D03*
X215498750Y-76200000D03*
X217848750Y-77150000D03*
%TD*%
D13*
%TO.C,C178*%
X123943750Y-75930000D03*
X123943750Y-74970000D03*
%TD*%
%TO.C,C175*%
X195381250Y-75930000D03*
X195381250Y-74970000D03*
%TD*%
%TO.C,C121*%
X183237500Y-37830000D03*
X183237500Y-36870000D03*
%TD*%
D22*
%TO.C,TP2*%
X20240625Y-25537500D03*
%TD*%
D14*
%TO.C,C226*%
X190562501Y-62979999D03*
X190562501Y-61479999D03*
%TD*%
D13*
%TO.C,C61*%
X121562500Y-56880000D03*
X121562500Y-55920000D03*
%TD*%
D14*
%TO.C,C198*%
X195325001Y-24879999D03*
X195325001Y-23379999D03*
%TD*%
D50*
%TO.C,F1*%
X8350000Y-1819000D03*
X10750000Y-1819000D03*
%TD*%
D13*
%TO.C,C84*%
X226337500Y-37830000D03*
X226337500Y-36870000D03*
%TD*%
D36*
%TO.C,R30*%
X15913132Y-33252647D03*
X15234310Y-32573825D03*
%TD*%
D13*
%TO.C,C145*%
X283250000Y-56880000D03*
X283250000Y-55920000D03*
%TD*%
D31*
%TO.C,C8*%
X16260589Y-28760589D03*
X16939411Y-29439411D03*
%TD*%
D13*
%TO.C,C161*%
X283250000Y-75930000D03*
X283250000Y-74970000D03*
%TD*%
D17*
%TO.C,U24*%
X57467499Y-38100000D03*
X47307501Y-38100000D03*
D18*
X51437500Y-36945000D03*
X52387500Y-39295000D03*
X53337500Y-36945000D03*
%TD*%
D13*
%TO.C,C135*%
X264200000Y-56880000D03*
X264200000Y-55920000D03*
%TD*%
%TO.C,C42*%
X92987500Y-37830000D03*
X92987500Y-36870000D03*
%TD*%
%TO.C,C48*%
X112037500Y-37830000D03*
X112037500Y-36870000D03*
%TD*%
%TO.C,C21*%
X51950000Y-7804344D03*
X51950000Y-8764344D03*
%TD*%
%TO.C,C120*%
X202287500Y-37830000D03*
X202287500Y-36870000D03*
%TD*%
%TO.C,C115*%
X259437500Y-18780000D03*
X259437500Y-17820000D03*
%TD*%
M02*
