%TF.GenerationSoftware,KiCad,Pcbnew,8.0.6*%
%TF.CreationDate,2024-11-22T07:15:31+07:00*%
%TF.ProjectId,Heart HE 60,48656172-7420-4484-9520-36302e6b6963,rev?*%
%TF.SameCoordinates,Original*%
%TF.FileFunction,Profile,NP*%
%FSLAX46Y46*%
G04 Gerber Fmt 4.6, Leading zero omitted, Abs format (unit mm)*
G04 Created by KiCad (PCBNEW 8.0.6) date 2024-11-22 07:15:31*
%MOMM*%
%LPD*%
G01*
G04 APERTURE LIST*
%TA.AperFunction,Profile*%
%ADD10C,0.200000*%
%TD*%
G04 APERTURE END LIST*
D10*
X234028001Y8999999D02*
G75*
G02*
X234598999Y8429000I-901J-571899D01*
G01*
X241599001Y8429000D02*
G75*
G02*
X242170000Y8999999I571899J-900D01*
G01*
X253649004Y-84629002D02*
G75*
G02*
X253077997Y-85200004I-570204J-798D01*
G01*
X35521997Y-84644002D02*
G75*
G02*
X34965997Y-85199997I-556497J502D01*
G01*
X-9000006Y-48399998D02*
X-9000006Y-83200001D01*
X275700006Y-46200001D02*
X275700006Y7000000D01*
X266741006Y8999999D02*
G75*
G02*
X260508998Y8999999I-3116004J925562D01*
G01*
X176774999Y6675000D02*
G75*
G02*
X173658965Y8999989I-899J3249400D01*
G01*
X89925001Y-82874997D02*
G75*
G02*
X93041027Y-85199994I-1501J-3252603D01*
G01*
X-41006Y-85200001D02*
G75*
G02*
X3075006Y-82874995I3117546J-927619D01*
G01*
X89655000Y-82874997D02*
X89925001Y-82874997D01*
X213545000Y8999999D02*
G75*
G02*
X214115999Y8429000I-900J-571899D01*
G01*
X177029001Y6675000D02*
G75*
G02*
X177542011Y6462010I-2401J-730100D01*
G01*
X184045999Y-85200001D02*
G75*
G02*
X183474999Y-84629002I-799J570201D01*
G01*
X-9000006Y-46200001D02*
X-6107001Y-46200001D01*
X263624994Y-82874997D02*
G75*
G02*
X266741004Y-85200002I-1594J-3252703D01*
G01*
X260168001Y-82874997D02*
X263624994Y-82874997D01*
X231734003Y-85200001D02*
G75*
G02*
X231177999Y-84644002I497J556501D01*
G01*
X-7000006Y-85200001D02*
X-41006Y-85200001D01*
X260508997Y8999999D02*
X242170000Y8999999D01*
X35521997Y-84644002D02*
G75*
G02*
X45439997Y-84644002I4959000J-771681D01*
G01*
X89655000Y-82874997D02*
G75*
G02*
X89169982Y-82675018I800J690097D01*
G01*
X273700006Y8999999D02*
G75*
G02*
X275699999Y7000000I-706J-2000699D01*
G01*
X45996004Y-85200001D02*
G75*
G02*
X45439999Y-84644002I496J556501D01*
G01*
X-9000006Y7000000D02*
X-9000006Y-46200001D01*
X82654001Y8999999D02*
X53155000Y8999999D01*
X83225000Y-84629002D02*
G75*
G02*
X82654001Y-85200000I-570200J-798D01*
G01*
X82654001Y-85200001D02*
X45996004Y-85200001D01*
X32100999Y8429000D02*
G75*
G02*
X32671999Y9000001I571901J-900D01*
G01*
X4191003Y8999999D02*
G75*
G02*
X-2041007Y8999999I-3116005J925562D01*
G01*
X184045999Y8999999D02*
X213545000Y8999999D01*
X275700006Y-83200001D02*
X275700006Y-48399998D01*
X83225000Y-84629002D02*
G75*
G02*
X89169996Y-82675004I3499600J-626698D01*
G01*
X224033998Y8429000D02*
G75*
G02*
X214115998Y8429000I-4959000J770500D01*
G01*
X275700006Y-83200001D02*
G75*
G02*
X273700006Y-85200006I-1999006J-999D01*
G01*
X-7000006Y-85200001D02*
G75*
G02*
X-9000006Y-83200001I-1010J1998990D01*
G01*
X253649004Y-84629002D02*
G75*
G02*
X259522000Y-82607995I3500096J-627298D01*
G01*
X173658998Y-85200001D02*
X93041002Y-85200001D01*
X34965997Y-85200001D02*
X13622003Y-85200001D01*
X177029001Y6675000D02*
X176774999Y6675000D01*
X231734003Y-85200001D02*
X253077997Y-85200001D01*
X220703996Y-85200001D02*
X184045999Y-85200001D01*
X82654001Y8999999D02*
G75*
G02*
X83224999Y8429000I-901J-571899D01*
G01*
X183475000Y8429000D02*
G75*
G02*
X177541970Y6461967I-3500100J625900D01*
G01*
X42095003Y8999999D02*
G75*
G02*
X42665999Y8429000I-903J-571899D01*
G01*
X273700006Y8999999D02*
X266741006Y8999999D01*
X266741006Y-85200001D02*
X273700006Y-85200001D01*
X177531999Y-82673001D02*
G75*
G02*
X183475024Y-84628998I2443201J-2583199D01*
G01*
X89135000Y6441000D02*
G75*
G02*
X83225001Y8429000I-2410200J2613600D01*
G01*
X7084001Y-82694997D02*
G75*
G02*
X13050991Y-84629003I2466469J-2562183D01*
G01*
X7084001Y-82694997D02*
G75*
G02*
X6650003Y-82874966I-430301J424397D01*
G01*
X-9000006Y7000000D02*
G75*
G02*
X-7000006Y8999999I2000719J-720D01*
G01*
X260168001Y-82874997D02*
G75*
G02*
X259521991Y-82608005I-2701J908497D01*
G01*
X272807001Y-46200001D02*
X275700006Y-46200001D01*
X13622003Y-85200001D02*
G75*
G02*
X13050999Y-84629002I-803J570201D01*
G01*
X234028001Y8999999D02*
X224604997Y8999999D01*
X-6107001Y-48399998D02*
X-9000006Y-48399998D01*
X241599001Y8429000D02*
G75*
G02*
X234599001Y8429000I-3500000J626657D01*
G01*
X3075006Y-82874997D02*
X6650003Y-82874997D01*
X32100999Y8429000D02*
G75*
G02*
X25100999Y8429000I-3500000J626657D01*
G01*
X89925001Y6675000D02*
X89698999Y6675000D01*
X-2041006Y8999999D02*
X-7000006Y8999999D01*
X52584001Y8429000D02*
G75*
G02*
X53155000Y8999999I571899J-900D01*
G01*
X24530000Y8999999D02*
G75*
G02*
X25100999Y8429000I-900J-571899D01*
G01*
X89135000Y6441000D02*
G75*
G02*
X89698999Y6674961I565400J-566200D01*
G01*
X173658998Y8999999D02*
X93041002Y8999999D01*
X224033998Y8429000D02*
G75*
G02*
X224604997Y9000002I571902J-900D01*
G01*
X42095003Y8999999D02*
X32671999Y8999999D01*
X183475000Y8429000D02*
G75*
G02*
X184045999Y9000000I571900J-900D01*
G01*
X93041002Y8999999D02*
G75*
G02*
X89925001Y6674987I-3115002J924201D01*
G01*
X173658998Y-85200001D02*
G75*
G02*
X176774999Y-82875047I3117402J-927499D01*
G01*
X272807001Y-48399998D02*
G75*
G02*
X272807001Y-46200002I-1J1099998D01*
G01*
X221260004Y-84644002D02*
G75*
G02*
X231178004Y-84644002I4959000J-771681D01*
G01*
X-6107001Y-46200001D02*
G75*
G02*
X-6107001Y-48399999I-15J-1099999D01*
G01*
X275700006Y-48399998D02*
X272807001Y-48399998D01*
X24530000Y8999999D02*
X4191003Y8999999D01*
X221260004Y-84644002D02*
G75*
G02*
X220703996Y-85200004I-556504J502D01*
G01*
X176774999Y-82874997D02*
X177043001Y-82874997D01*
X177531999Y-82673001D02*
G75*
G02*
X177043001Y-82874952I-487699J487901D01*
G01*
X52584001Y8429000D02*
G75*
G02*
X42666003Y8429000I-4958999J770499D01*
G01*
X119962483Y-37000037D02*
X118162486Y-37000037D01*
X118162486Y-39200038D02*
G75*
G02*
X118162486Y-36999962I14J1100038D01*
G01*
X250012487Y-20100038D02*
G75*
G02*
X250012486Y-17899962I13J1100038D01*
G01*
X16962483Y-17900037D02*
X15162487Y-17900037D01*
X182262479Y-75190728D02*
G75*
G02*
X182262479Y-77390672I21J-1099972D01*
G01*
X177393890Y-75190728D02*
X182262479Y-75190728D01*
X15162487Y-20100038D02*
X16962483Y-20100038D01*
X251812483Y-17900037D02*
X250012486Y-17900037D01*
X251812483Y-17900037D02*
G75*
G02*
X251812483Y-20099963I17J-1099963D01*
G01*
X118162486Y-39200038D02*
X119962483Y-39200038D01*
X15162487Y-20100038D02*
G75*
G02*
X15162487Y-17900042I-37J1099998D01*
G01*
X177393890Y-77390729D02*
G75*
G02*
X177393890Y-75190671I10J1100029D01*
G01*
X250012487Y-20100038D02*
X251812483Y-20100038D01*
X16962483Y-17900037D02*
G75*
G02*
X16962483Y-20100043I-33J-1100003D01*
G01*
X119962483Y-37000037D02*
G75*
G02*
X119962483Y-39199963I17J-1099963D01*
G01*
X182262479Y-77390729D02*
X177393890Y-77390729D01*
M02*
