%TF.GenerationSoftware,KiCad,Pcbnew,8.0.6*%
%TF.CreationDate,2024-11-20T11:04:22+07:00*%
%TF.ProjectId,Heart HE 65,48656172-7420-4484-9520-36352e6b6963,rev?*%
%TF.SameCoordinates,Original*%
%TF.FileFunction,Legend,Bot*%
%TF.FilePolarity,Positive*%
%FSLAX46Y46*%
G04 Gerber Fmt 4.6, Leading zero omitted, Abs format (unit mm)*
G04 Created by KiCad (PCBNEW 8.0.6) date 2024-11-20 11:04:22*
%MOMM*%
%LPD*%
G01*
G04 APERTURE LIST*
G04 Aperture macros list*
%AMRoundRect*
0 Rectangle with rounded corners*
0 $1 Rounding radius*
0 $2 $3 $4 $5 $6 $7 $8 $9 X,Y pos of 4 corners*
0 Add a 4 corners polygon primitive as box body*
4,1,4,$2,$3,$4,$5,$6,$7,$8,$9,$2,$3,0*
0 Add four circle primitives for the rounded corners*
1,1,$1+$1,$2,$3*
1,1,$1+$1,$4,$5*
1,1,$1+$1,$6,$7*
1,1,$1+$1,$8,$9*
0 Add four rect primitives between the rounded corners*
20,1,$1+$1,$2,$3,$4,$5,0*
20,1,$1+$1,$4,$5,$6,$7,0*
20,1,$1+$1,$6,$7,$8,$9,0*
20,1,$1+$1,$8,$9,$2,$3,0*%
%AMRotRect*
0 Rectangle, with rotation*
0 The origin of the aperture is its center*
0 $1 length*
0 $2 width*
0 $3 Rotation angle, in degrees counterclockwise*
0 Add horizontal line*
21,1,$1,$2,0,0,$3*%
%AMFreePoly0*
4,1,21,-0.125000,1.200000,0.125000,1.200000,0.125000,1.700000,0.375000,1.700000,0.375000,1.200000,0.825000,1.200000,0.825000,-1.200000,0.375000,-1.200000,0.375000,-1.700000,0.125000,-1.700000,0.125000,-1.200000,-0.125000,-1.200000,-0.125000,-1.700000,-0.375000,-1.700000,-0.375000,-1.200000,-0.825000,-1.200000,-0.825000,1.200000,-0.375000,1.200000,-0.375000,1.700000,-0.125000,1.700000,
-0.125000,1.200000,-0.125000,1.200000,$1*%
%AMFreePoly1*
4,1,19,0.500000,-0.750000,0.000000,-0.750000,0.000000,-0.744911,-0.071157,-0.744911,-0.207708,-0.704816,-0.327430,-0.627875,-0.420627,-0.520320,-0.479746,-0.390866,-0.500000,-0.250000,-0.500000,0.250000,-0.479746,0.390866,-0.420627,0.520320,-0.327430,0.627875,-0.207708,0.704816,-0.071157,0.744911,0.000000,0.744911,0.000000,0.750000,0.500000,0.750000,0.500000,-0.750000,0.500000,-0.750000,
$1*%
%AMFreePoly2*
4,1,19,0.000000,0.744911,0.071157,0.744911,0.207708,0.704816,0.327430,0.627875,0.420627,0.520320,0.479746,0.390866,0.500000,0.250000,0.500000,-0.250000,0.479746,-0.390866,0.420627,-0.520320,0.327430,-0.627875,0.207708,-0.704816,0.071157,-0.744911,0.000000,-0.744911,0.000000,-0.750000,-0.500000,-0.750000,-0.500000,0.750000,0.000000,0.750000,0.000000,0.744911,0.000000,0.744911,
$1*%
G04 Aperture macros list end*
%ADD10C,0.300000*%
%ADD11C,0.150000*%
%ADD12C,0.120000*%
%ADD13C,0.153000*%
%ADD14C,0.500000*%
%ADD15C,3.800000*%
%ADD16R,0.620000X0.560000*%
%ADD17RoundRect,0.200000X-0.800000X0.200000X-0.800000X-0.200000X0.800000X-0.200000X0.800000X0.200000X0*%
%ADD18RotRect,0.560000X0.620000X225.000000*%
%ADD19C,1.750000*%
%ADD20RoundRect,0.150000X-0.150000X0.350000X-0.150000X-0.350000X0.150000X-0.350000X0.150000X0.350000X0*%
%ADD21R,1.000000X0.400000*%
%ADD22RoundRect,0.375000X-0.625000X-0.375000X0.625000X-0.375000X0.625000X0.375000X-0.625000X0.375000X0*%
%ADD23RoundRect,0.500000X-0.500000X-1.400000X0.500000X-1.400000X0.500000X1.400000X-0.500000X1.400000X0*%
%ADD24C,1.000000*%
%ADD25R,0.560000X0.620000*%
%ADD26RotRect,0.400000X1.900000X225.000000*%
%ADD27RoundRect,0.150000X0.350000X0.150000X-0.350000X0.150000X-0.350000X-0.150000X0.350000X-0.150000X0*%
%ADD28C,3.987800*%
%ADD29C,3.048000*%
%ADD30RoundRect,0.050000X0.247487X-0.176777X-0.176777X0.247487X-0.247487X0.176777X0.176777X-0.247487X0*%
%ADD31RoundRect,0.050000X0.247487X0.176777X0.176777X0.247487X-0.247487X-0.176777X-0.176777X-0.247487X0*%
%ADD32RotRect,2.900000X2.900000X135.000000*%
%ADD33RotRect,0.560000X0.620000X315.000000*%
%ADD34RoundRect,0.060000X-0.060000X0.240000X-0.060000X-0.240000X0.060000X-0.240000X0.060000X0.240000X0*%
%ADD35FreePoly0,270.000000*%
%ADD36R,1.800000X1.200000*%
%ADD37R,1.550000X0.600000*%
%ADD38RotRect,0.560000X0.620000X135.000000*%
%ADD39R,1.000000X1.500000*%
%ADD40C,0.650000*%
%ADD41R,0.600000X1.450000*%
%ADD42R,0.300000X1.450000*%
%ADD43O,1.000000X1.600000*%
%ADD44O,1.000000X2.100000*%
%ADD45RoundRect,0.150000X-0.150000X0.512500X-0.150000X-0.512500X0.150000X-0.512500X0.150000X0.512500X0*%
%ADD46RoundRect,0.135000X-0.185000X0.135000X-0.185000X-0.135000X0.185000X-0.135000X0.185000X0.135000X0*%
%ADD47RoundRect,0.140000X0.170000X-0.140000X0.170000X0.140000X-0.170000X0.140000X-0.170000X-0.140000X0*%
%ADD48FreePoly1,270.000000*%
%ADD49FreePoly2,270.000000*%
%ADD50FreePoly1,0.000000*%
%ADD51FreePoly2,0.000000*%
%ADD52R,1.140000X2.030000*%
G04 APERTURE END LIST*
D10*
X292410667Y-80658234D02*
X292196382Y-80729662D01*
X292196382Y-80729662D02*
X291839239Y-80729662D01*
X291839239Y-80729662D02*
X291696382Y-80658234D01*
X291696382Y-80658234D02*
X291624953Y-80586805D01*
X291624953Y-80586805D02*
X291553524Y-80443948D01*
X291553524Y-80443948D02*
X291553524Y-80301091D01*
X291553524Y-80301091D02*
X291624953Y-80158234D01*
X291624953Y-80158234D02*
X291696382Y-80086805D01*
X291696382Y-80086805D02*
X291839239Y-80015376D01*
X291839239Y-80015376D02*
X292124953Y-79943948D01*
X292124953Y-79943948D02*
X292267810Y-79872519D01*
X292267810Y-79872519D02*
X292339239Y-79801091D01*
X292339239Y-79801091D02*
X292410667Y-79658234D01*
X292410667Y-79658234D02*
X292410667Y-79515376D01*
X292410667Y-79515376D02*
X292339239Y-79372519D01*
X292339239Y-79372519D02*
X292267810Y-79301091D01*
X292267810Y-79301091D02*
X292124953Y-79229662D01*
X292124953Y-79229662D02*
X291767810Y-79229662D01*
X291767810Y-79229662D02*
X291553524Y-79301091D01*
X290267811Y-80729662D02*
X290267811Y-79943948D01*
X290267811Y-79943948D02*
X290339239Y-79801091D01*
X290339239Y-79801091D02*
X290482096Y-79729662D01*
X290482096Y-79729662D02*
X290767811Y-79729662D01*
X290767811Y-79729662D02*
X290910668Y-79801091D01*
X290267811Y-80658234D02*
X290410668Y-80729662D01*
X290410668Y-80729662D02*
X290767811Y-80729662D01*
X290767811Y-80729662D02*
X290910668Y-80658234D01*
X290910668Y-80658234D02*
X290982096Y-80515376D01*
X290982096Y-80515376D02*
X290982096Y-80372519D01*
X290982096Y-80372519D02*
X290910668Y-80229662D01*
X290910668Y-80229662D02*
X290767811Y-80158234D01*
X290767811Y-80158234D02*
X290410668Y-80158234D01*
X290410668Y-80158234D02*
X290267811Y-80086805D01*
X289339239Y-80729662D02*
X289482096Y-80658234D01*
X289482096Y-80658234D02*
X289553525Y-80515376D01*
X289553525Y-80515376D02*
X289553525Y-79229662D01*
X288124954Y-80729662D02*
X288124954Y-79943948D01*
X288124954Y-79943948D02*
X288196382Y-79801091D01*
X288196382Y-79801091D02*
X288339239Y-79729662D01*
X288339239Y-79729662D02*
X288624954Y-79729662D01*
X288624954Y-79729662D02*
X288767811Y-79801091D01*
X288124954Y-80658234D02*
X288267811Y-80729662D01*
X288267811Y-80729662D02*
X288624954Y-80729662D01*
X288624954Y-80729662D02*
X288767811Y-80658234D01*
X288767811Y-80658234D02*
X288839239Y-80515376D01*
X288839239Y-80515376D02*
X288839239Y-80372519D01*
X288839239Y-80372519D02*
X288767811Y-80229662D01*
X288767811Y-80229662D02*
X288624954Y-80158234D01*
X288624954Y-80158234D02*
X288267811Y-80158234D01*
X288267811Y-80158234D02*
X288124954Y-80086805D01*
X287410668Y-79729662D02*
X287410668Y-80729662D01*
X287410668Y-79872519D02*
X287339239Y-79801091D01*
X287339239Y-79801091D02*
X287196382Y-79729662D01*
X287196382Y-79729662D02*
X286982096Y-79729662D01*
X286982096Y-79729662D02*
X286839239Y-79801091D01*
X286839239Y-79801091D02*
X286767811Y-79943948D01*
X286767811Y-79943948D02*
X286767811Y-80729662D01*
X285482096Y-80658234D02*
X285624953Y-80729662D01*
X285624953Y-80729662D02*
X285910668Y-80729662D01*
X285910668Y-80729662D02*
X286053525Y-80658234D01*
X286053525Y-80658234D02*
X286124953Y-80515376D01*
X286124953Y-80515376D02*
X286124953Y-79943948D01*
X286124953Y-79943948D02*
X286053525Y-79801091D01*
X286053525Y-79801091D02*
X285910668Y-79729662D01*
X285910668Y-79729662D02*
X285624953Y-79729662D01*
X285624953Y-79729662D02*
X285482096Y-79801091D01*
X285482096Y-79801091D02*
X285410668Y-79943948D01*
X285410668Y-79943948D02*
X285410668Y-80086805D01*
X285410668Y-80086805D02*
X286124953Y-80229662D01*
X282767811Y-80586805D02*
X282839239Y-80658234D01*
X282839239Y-80658234D02*
X283053525Y-80729662D01*
X283053525Y-80729662D02*
X283196382Y-80729662D01*
X283196382Y-80729662D02*
X283410668Y-80658234D01*
X283410668Y-80658234D02*
X283553525Y-80515376D01*
X283553525Y-80515376D02*
X283624954Y-80372519D01*
X283624954Y-80372519D02*
X283696382Y-80086805D01*
X283696382Y-80086805D02*
X283696382Y-79872519D01*
X283696382Y-79872519D02*
X283624954Y-79586805D01*
X283624954Y-79586805D02*
X283553525Y-79443948D01*
X283553525Y-79443948D02*
X283410668Y-79301091D01*
X283410668Y-79301091D02*
X283196382Y-79229662D01*
X283196382Y-79229662D02*
X283053525Y-79229662D01*
X283053525Y-79229662D02*
X282839239Y-79301091D01*
X282839239Y-79301091D02*
X282767811Y-79372519D01*
X281839239Y-79229662D02*
X281553525Y-79229662D01*
X281553525Y-79229662D02*
X281410668Y-79301091D01*
X281410668Y-79301091D02*
X281267811Y-79443948D01*
X281267811Y-79443948D02*
X281196382Y-79729662D01*
X281196382Y-79729662D02*
X281196382Y-80229662D01*
X281196382Y-80229662D02*
X281267811Y-80515376D01*
X281267811Y-80515376D02*
X281410668Y-80658234D01*
X281410668Y-80658234D02*
X281553525Y-80729662D01*
X281553525Y-80729662D02*
X281839239Y-80729662D01*
X281839239Y-80729662D02*
X281982097Y-80658234D01*
X281982097Y-80658234D02*
X282124954Y-80515376D01*
X282124954Y-80515376D02*
X282196382Y-80229662D01*
X282196382Y-80229662D02*
X282196382Y-79729662D01*
X282196382Y-79729662D02*
X282124954Y-79443948D01*
X282124954Y-79443948D02*
X281982097Y-79301091D01*
X281982097Y-79301091D02*
X281839239Y-79229662D01*
X280553525Y-80586805D02*
X280482096Y-80658234D01*
X280482096Y-80658234D02*
X280553525Y-80729662D01*
X280553525Y-80729662D02*
X280624953Y-80658234D01*
X280624953Y-80658234D02*
X280553525Y-80586805D01*
X280553525Y-80586805D02*
X280553525Y-80729662D01*
X277982096Y-80729662D02*
X278696382Y-80729662D01*
X278696382Y-80729662D02*
X278696382Y-79229662D01*
X276767810Y-80729662D02*
X277482096Y-80729662D01*
X277482096Y-80729662D02*
X277482096Y-79229662D01*
X275410667Y-80586805D02*
X275482095Y-80658234D01*
X275482095Y-80658234D02*
X275696381Y-80729662D01*
X275696381Y-80729662D02*
X275839238Y-80729662D01*
X275839238Y-80729662D02*
X276053524Y-80658234D01*
X276053524Y-80658234D02*
X276196381Y-80515376D01*
X276196381Y-80515376D02*
X276267810Y-80372519D01*
X276267810Y-80372519D02*
X276339238Y-80086805D01*
X276339238Y-80086805D02*
X276339238Y-79872519D01*
X276339238Y-79872519D02*
X276267810Y-79586805D01*
X276267810Y-79586805D02*
X276196381Y-79443948D01*
X276196381Y-79443948D02*
X276053524Y-79301091D01*
X276053524Y-79301091D02*
X275839238Y-79229662D01*
X275839238Y-79229662D02*
X275696381Y-79229662D01*
X275696381Y-79229662D02*
X275482095Y-79301091D01*
X275482095Y-79301091D02*
X275410667Y-79372519D01*
X292339239Y-83144578D02*
X292339239Y-81644578D01*
X292339239Y-81644578D02*
X291982096Y-81644578D01*
X291982096Y-81644578D02*
X291767810Y-81716007D01*
X291767810Y-81716007D02*
X291624953Y-81858864D01*
X291624953Y-81858864D02*
X291553524Y-82001721D01*
X291553524Y-82001721D02*
X291482096Y-82287435D01*
X291482096Y-82287435D02*
X291482096Y-82501721D01*
X291482096Y-82501721D02*
X291553524Y-82787435D01*
X291553524Y-82787435D02*
X291624953Y-82930292D01*
X291624953Y-82930292D02*
X291767810Y-83073150D01*
X291767810Y-83073150D02*
X291982096Y-83144578D01*
X291982096Y-83144578D02*
X292339239Y-83144578D01*
X290267810Y-83073150D02*
X290410667Y-83144578D01*
X290410667Y-83144578D02*
X290696382Y-83144578D01*
X290696382Y-83144578D02*
X290839239Y-83073150D01*
X290839239Y-83073150D02*
X290910667Y-82930292D01*
X290910667Y-82930292D02*
X290910667Y-82358864D01*
X290910667Y-82358864D02*
X290839239Y-82216007D01*
X290839239Y-82216007D02*
X290696382Y-82144578D01*
X290696382Y-82144578D02*
X290410667Y-82144578D01*
X290410667Y-82144578D02*
X290267810Y-82216007D01*
X290267810Y-82216007D02*
X290196382Y-82358864D01*
X290196382Y-82358864D02*
X290196382Y-82501721D01*
X290196382Y-82501721D02*
X290910667Y-82644578D01*
X289696382Y-82144578D02*
X289339239Y-83144578D01*
X289339239Y-83144578D02*
X288982096Y-82144578D01*
X287267811Y-83144578D02*
X287267811Y-81644578D01*
X286410668Y-83144578D02*
X287053525Y-82287435D01*
X286410668Y-81644578D02*
X287267811Y-82501721D01*
X285767811Y-83144578D02*
X285767811Y-82144578D01*
X285767811Y-81644578D02*
X285839239Y-81716007D01*
X285839239Y-81716007D02*
X285767811Y-81787435D01*
X285767811Y-81787435D02*
X285696382Y-81716007D01*
X285696382Y-81716007D02*
X285767811Y-81644578D01*
X285767811Y-81644578D02*
X285767811Y-81787435D01*
X285267810Y-82144578D02*
X284696382Y-82144578D01*
X285053525Y-81644578D02*
X285053525Y-82930292D01*
X285053525Y-82930292D02*
X284982096Y-83073150D01*
X284982096Y-83073150D02*
X284839239Y-83144578D01*
X284839239Y-83144578D02*
X284696382Y-83144578D01*
X283053525Y-83144578D02*
X283053525Y-81644578D01*
X283053525Y-81644578D02*
X282482096Y-81644578D01*
X282482096Y-81644578D02*
X282339239Y-81716007D01*
X282339239Y-81716007D02*
X282267810Y-81787435D01*
X282267810Y-81787435D02*
X282196382Y-81930292D01*
X282196382Y-81930292D02*
X282196382Y-82144578D01*
X282196382Y-82144578D02*
X282267810Y-82287435D01*
X282267810Y-82287435D02*
X282339239Y-82358864D01*
X282339239Y-82358864D02*
X282482096Y-82430292D01*
X282482096Y-82430292D02*
X283053525Y-82430292D01*
X280696382Y-83001721D02*
X280767810Y-83073150D01*
X280767810Y-83073150D02*
X280982096Y-83144578D01*
X280982096Y-83144578D02*
X281124953Y-83144578D01*
X281124953Y-83144578D02*
X281339239Y-83073150D01*
X281339239Y-83073150D02*
X281482096Y-82930292D01*
X281482096Y-82930292D02*
X281553525Y-82787435D01*
X281553525Y-82787435D02*
X281624953Y-82501721D01*
X281624953Y-82501721D02*
X281624953Y-82287435D01*
X281624953Y-82287435D02*
X281553525Y-82001721D01*
X281553525Y-82001721D02*
X281482096Y-81858864D01*
X281482096Y-81858864D02*
X281339239Y-81716007D01*
X281339239Y-81716007D02*
X281124953Y-81644578D01*
X281124953Y-81644578D02*
X280982096Y-81644578D01*
X280982096Y-81644578D02*
X280767810Y-81716007D01*
X280767810Y-81716007D02*
X280696382Y-81787435D01*
X279553525Y-82358864D02*
X279339239Y-82430292D01*
X279339239Y-82430292D02*
X279267810Y-82501721D01*
X279267810Y-82501721D02*
X279196382Y-82644578D01*
X279196382Y-82644578D02*
X279196382Y-82858864D01*
X279196382Y-82858864D02*
X279267810Y-83001721D01*
X279267810Y-83001721D02*
X279339239Y-83073150D01*
X279339239Y-83073150D02*
X279482096Y-83144578D01*
X279482096Y-83144578D02*
X280053525Y-83144578D01*
X280053525Y-83144578D02*
X280053525Y-81644578D01*
X280053525Y-81644578D02*
X279553525Y-81644578D01*
X279553525Y-81644578D02*
X279410668Y-81716007D01*
X279410668Y-81716007D02*
X279339239Y-81787435D01*
X279339239Y-81787435D02*
X279267810Y-81930292D01*
X279267810Y-81930292D02*
X279267810Y-82073150D01*
X279267810Y-82073150D02*
X279339239Y-82216007D01*
X279339239Y-82216007D02*
X279410668Y-82287435D01*
X279410668Y-82287435D02*
X279553525Y-82358864D01*
X279553525Y-82358864D02*
X280053525Y-82358864D01*
X277410668Y-83144578D02*
X277410668Y-82144578D01*
X277410668Y-82430292D02*
X277339239Y-82287435D01*
X277339239Y-82287435D02*
X277267811Y-82216007D01*
X277267811Y-82216007D02*
X277124953Y-82144578D01*
X277124953Y-82144578D02*
X276982096Y-82144578D01*
X275910668Y-83073150D02*
X276053525Y-83144578D01*
X276053525Y-83144578D02*
X276339240Y-83144578D01*
X276339240Y-83144578D02*
X276482097Y-83073150D01*
X276482097Y-83073150D02*
X276553525Y-82930292D01*
X276553525Y-82930292D02*
X276553525Y-82358864D01*
X276553525Y-82358864D02*
X276482097Y-82216007D01*
X276482097Y-82216007D02*
X276339240Y-82144578D01*
X276339240Y-82144578D02*
X276053525Y-82144578D01*
X276053525Y-82144578D02*
X275910668Y-82216007D01*
X275910668Y-82216007D02*
X275839240Y-82358864D01*
X275839240Y-82358864D02*
X275839240Y-82501721D01*
X275839240Y-82501721D02*
X276553525Y-82644578D01*
X275339240Y-82144578D02*
X274982097Y-83144578D01*
X274982097Y-83144578D02*
X274624954Y-82144578D01*
X273267811Y-83144578D02*
X274124954Y-83144578D01*
X273696383Y-83144578D02*
X273696383Y-81644578D01*
X273696383Y-81644578D02*
X273839240Y-81858864D01*
X273839240Y-81858864D02*
X273982097Y-82001721D01*
X273982097Y-82001721D02*
X274124954Y-82073150D01*
D11*
X28457200Y-31766667D02*
X28504819Y-31909524D01*
X28504819Y-31909524D02*
X28504819Y-32147619D01*
X28504819Y-32147619D02*
X28457200Y-32242857D01*
X28457200Y-32242857D02*
X28409580Y-32290476D01*
X28409580Y-32290476D02*
X28314342Y-32338095D01*
X28314342Y-32338095D02*
X28219104Y-32338095D01*
X28219104Y-32338095D02*
X28123866Y-32290476D01*
X28123866Y-32290476D02*
X28076247Y-32242857D01*
X28076247Y-32242857D02*
X28028628Y-32147619D01*
X28028628Y-32147619D02*
X27981009Y-31957143D01*
X27981009Y-31957143D02*
X27933390Y-31861905D01*
X27933390Y-31861905D02*
X27885771Y-31814286D01*
X27885771Y-31814286D02*
X27790533Y-31766667D01*
X27790533Y-31766667D02*
X27695295Y-31766667D01*
X27695295Y-31766667D02*
X27600057Y-31814286D01*
X27600057Y-31814286D02*
X27552438Y-31861905D01*
X27552438Y-31861905D02*
X27504819Y-31957143D01*
X27504819Y-31957143D02*
X27504819Y-32195238D01*
X27504819Y-32195238D02*
X27552438Y-32338095D01*
X27504819Y-32671429D02*
X28504819Y-32909524D01*
X28504819Y-32909524D02*
X27790533Y-33100000D01*
X27790533Y-33100000D02*
X28504819Y-33290476D01*
X28504819Y-33290476D02*
X27504819Y-33528572D01*
X28504819Y-34433333D02*
X28504819Y-33861905D01*
X28504819Y-34147619D02*
X27504819Y-34147619D01*
X27504819Y-34147619D02*
X27647676Y-34052381D01*
X27647676Y-34052381D02*
X27742914Y-33957143D01*
X27742914Y-33957143D02*
X27790533Y-33861905D01*
X35154819Y-9846249D02*
X35964342Y-9846249D01*
X35964342Y-9846249D02*
X36059580Y-9893868D01*
X36059580Y-9893868D02*
X36107200Y-9941487D01*
X36107200Y-9941487D02*
X36154819Y-10036725D01*
X36154819Y-10036725D02*
X36154819Y-10227201D01*
X36154819Y-10227201D02*
X36107200Y-10322439D01*
X36107200Y-10322439D02*
X36059580Y-10370058D01*
X36059580Y-10370058D02*
X35964342Y-10417677D01*
X35964342Y-10417677D02*
X35154819Y-10417677D01*
X36154819Y-11417677D02*
X36154819Y-10846249D01*
X36154819Y-11131963D02*
X35154819Y-11131963D01*
X35154819Y-11131963D02*
X35297676Y-11036725D01*
X35297676Y-11036725D02*
X35392914Y-10941487D01*
X35392914Y-10941487D02*
X35440533Y-10846249D01*
X36154819Y-11893868D02*
X36154819Y-12084344D01*
X36154819Y-12084344D02*
X36107200Y-12179582D01*
X36107200Y-12179582D02*
X36059580Y-12227201D01*
X36059580Y-12227201D02*
X35916723Y-12322439D01*
X35916723Y-12322439D02*
X35726247Y-12370058D01*
X35726247Y-12370058D02*
X35345295Y-12370058D01*
X35345295Y-12370058D02*
X35250057Y-12322439D01*
X35250057Y-12322439D02*
X35202438Y-12274820D01*
X35202438Y-12274820D02*
X35154819Y-12179582D01*
X35154819Y-12179582D02*
X35154819Y-11989106D01*
X35154819Y-11989106D02*
X35202438Y-11893868D01*
X35202438Y-11893868D02*
X35250057Y-11846249D01*
X35250057Y-11846249D02*
X35345295Y-11798630D01*
X35345295Y-11798630D02*
X35583390Y-11798630D01*
X35583390Y-11798630D02*
X35678628Y-11846249D01*
X35678628Y-11846249D02*
X35726247Y-11893868D01*
X35726247Y-11893868D02*
X35773866Y-11989106D01*
X35773866Y-11989106D02*
X35773866Y-12179582D01*
X35773866Y-12179582D02*
X35726247Y-12274820D01*
X35726247Y-12274820D02*
X35678628Y-12322439D01*
X35678628Y-12322439D02*
X35583390Y-12370058D01*
D12*
%TO.C,C33*%
X35175000Y950000D02*
X35175000Y550000D01*
X36025000Y950000D02*
X36025000Y550000D01*
%TO.C,C73*%
X159237500Y-56200000D02*
X159237500Y-56600000D01*
X160087500Y-56200000D02*
X160087500Y-56600000D01*
%TO.C,C160*%
X263775000Y-75250000D02*
X263775000Y-75650000D01*
X264625000Y-75250000D02*
X264625000Y-75650000D01*
%TO.C,SW1*%
X28730000Y-31030000D02*
X29030000Y-31030000D01*
X28730000Y-35170000D02*
X28730000Y-31030000D01*
X29030000Y-35170000D02*
X28730000Y-35170000D01*
X31570000Y-31030000D02*
X31870000Y-31030000D01*
X31870000Y-31030000D02*
X31870000Y-35170000D01*
X31870000Y-35170000D02*
X31570000Y-35170000D01*
%TO.C,C60*%
X149712500Y-37150000D02*
X149712500Y-37550000D01*
X150562500Y-37150000D02*
X150562500Y-37550000D01*
%TO.C,C13*%
X21920004Y-36713935D02*
X22202847Y-36431092D01*
X22521045Y-37314976D02*
X22803888Y-37032133D01*
D13*
%TO.C,U25*%
X41302500Y-57170001D02*
X41302500Y-55495000D01*
X41302500Y-57170001D02*
X41302500Y-57820000D01*
X44422500Y-57170001D02*
X44422500Y-56520000D01*
X44422500Y-57170001D02*
X44422500Y-57820000D01*
D12*
%TO.C,C22*%
X21125000Y950000D02*
X21125000Y550000D01*
X21975000Y950000D02*
X21975000Y550000D01*
D13*
%TO.C,U23*%
X46065000Y-19070001D02*
X46065000Y-17395000D01*
X46065000Y-19070001D02*
X46065000Y-19720000D01*
X49185000Y-19070001D02*
X49185000Y-18420000D01*
X49185000Y-19070001D02*
X49185000Y-19720000D01*
D11*
%TO.C,U56*%
X197587500Y-27635938D02*
X192937500Y-27635938D01*
X197587500Y-33085938D02*
X192937500Y-33085938D01*
D12*
X192602500Y-33440938D02*
X192122500Y-33440938D01*
X192362500Y-33110938D01*
X192602500Y-33440938D01*
G36*
X192602500Y-33440938D02*
G01*
X192122500Y-33440938D01*
X192362500Y-33110938D01*
X192602500Y-33440938D01*
G37*
%TO.C,C125*%
X125662500Y-37150000D02*
X125662500Y-37550000D01*
X126512500Y-37150000D02*
X126512500Y-37550000D01*
%TO.C,C23*%
X30650000Y-18100000D02*
X30650000Y-18500000D01*
X31500000Y-18100000D02*
X31500000Y-18500000D01*
%TO.C,U63*%
X59060000Y-7674344D02*
X55300000Y-7674344D01*
X59060000Y-8934344D02*
X59060000Y-7674344D01*
X59060000Y-13234344D02*
X59060000Y-14494344D01*
X59060000Y-14494344D02*
X55300000Y-14494344D01*
X54260000Y-14724344D02*
X53780000Y-14724344D01*
X54020000Y-14394344D01*
X54260000Y-14724344D01*
G36*
X54260000Y-14724344D02*
G01*
X53780000Y-14724344D01*
X54020000Y-14394344D01*
X54260000Y-14724344D01*
G37*
%TO.C,TP3*%
X14300000Y-29334344D02*
G75*
G02*
X12900000Y-29334344I-700000J0D01*
G01*
X12900000Y-29334344D02*
G75*
G02*
X14300000Y-29334344I700000J0D01*
G01*
%TO.C,C18*%
X9218750Y-37150000D02*
X9218750Y-37550000D01*
X10068750Y-37150000D02*
X10068750Y-37550000D01*
%TO.C,C123*%
X163762500Y-37150000D02*
X163762500Y-37550000D01*
X164612500Y-37150000D02*
X164612500Y-37550000D01*
%TO.C,C17*%
X6837500Y-18100000D02*
X6837500Y-18500000D01*
X7687500Y-18100000D02*
X7687500Y-18500000D01*
D13*
%TO.C,U30*%
X69877500Y-38120001D02*
X69877500Y-36445000D01*
X69877500Y-38120001D02*
X69877500Y-38770000D01*
X72997500Y-38120001D02*
X72997500Y-37470000D01*
X72997500Y-38120001D02*
X72997500Y-38770000D01*
D12*
%TO.C,C105*%
X178050000Y-18100000D02*
X178050000Y-18500000D01*
X178900000Y-18100000D02*
X178900000Y-18500000D01*
%TO.C,C99*%
X120900000Y-18100000D02*
X120900000Y-18500000D01*
X121750000Y-18100000D02*
X121750000Y-18500000D01*
%TO.C,R3*%
X10125000Y795344D02*
X10125000Y395344D01*
X10975000Y795344D02*
X10975000Y395344D01*
%TO.C,C122*%
X49462500Y-37150000D02*
X49462500Y-37550000D01*
X50312500Y-37150000D02*
X50312500Y-37550000D01*
%TO.C,C71*%
X183050000Y-18100000D02*
X183050000Y-18500000D01*
X183900000Y-18100000D02*
X183900000Y-18500000D01*
%TO.C,C3*%
X284158750Y-51360938D02*
X284558750Y-51360938D01*
X284158750Y-52210938D02*
X284558750Y-52210938D01*
%TO.C,Y1*%
X22927631Y-35175978D02*
X23493316Y-34610293D01*
X24341844Y-36590192D02*
X22927631Y-35175978D01*
X24624687Y-36873034D02*
X24341844Y-36590192D01*
X24766108Y-33337500D02*
X25473215Y-32630394D01*
X25190372Y-36307349D02*
X24624687Y-36873034D01*
X25473215Y-32630394D02*
X26887429Y-34044607D01*
X26746007Y-35317399D02*
X26463165Y-35034557D01*
X27028850Y-33903186D02*
X25614636Y-32488972D01*
X27170271Y-34327450D02*
X26463165Y-35034557D01*
X27170271Y-34327450D02*
X26887429Y-34044607D01*
X27311693Y-34186029D02*
X27028850Y-33903186D01*
D13*
%TO.C,U66*%
X184177500Y-38120001D02*
X184177500Y-36445000D01*
X184177500Y-38120001D02*
X184177500Y-38770000D01*
X187297500Y-38120001D02*
X187297500Y-37470000D01*
X187297500Y-38120001D02*
X187297500Y-38770000D01*
D12*
%TO.C,C44*%
X92325000Y950000D02*
X92325000Y550000D01*
X93175000Y950000D02*
X93175000Y550000D01*
%TO.C,C19*%
X4456250Y-56200000D02*
X4456250Y-56600000D01*
X5306250Y-56200000D02*
X5306250Y-56600000D01*
%TO.C,C5*%
X123662500Y-32210938D02*
X124062500Y-32210938D01*
X123662500Y-33060938D02*
X124062500Y-33060938D01*
D13*
%TO.C,U75*%
X821250Y-55495000D02*
X821250Y-57170000D01*
X821250Y-57820000D02*
X821250Y-57170000D01*
X3941250Y-56520000D02*
X3941250Y-57170000D01*
X3941250Y-57820000D02*
X3941250Y-57170000D01*
D12*
%TO.C,C24*%
X35412500Y-37150000D02*
X35412500Y-37550000D01*
X36262500Y-37150000D02*
X36262500Y-37550000D01*
D13*
%TO.C,U72*%
X203227500Y-38120001D02*
X203227500Y-36445000D01*
X203227500Y-38120001D02*
X203227500Y-38770000D01*
X206347500Y-38120001D02*
X206347500Y-37470000D01*
X206347500Y-38120001D02*
X206347500Y-38770000D01*
D12*
%TO.C,C117*%
X1837500Y-18100000D02*
X1837500Y-18500000D01*
X2687500Y-18100000D02*
X2687500Y-18500000D01*
%TO.C,C30*%
X54462500Y-37150000D02*
X54462500Y-37550000D01*
X55312500Y-37150000D02*
X55312500Y-37550000D01*
D13*
%TO.C,U79*%
X212752500Y-57170001D02*
X212752500Y-55495000D01*
X212752500Y-57170001D02*
X212752500Y-57820000D01*
X215872500Y-57170001D02*
X215872500Y-56520000D01*
X215872500Y-57170001D02*
X215872500Y-57820000D01*
D12*
%TO.C,C128*%
X68512500Y-37150000D02*
X68512500Y-37550000D01*
X69362500Y-37150000D02*
X69362500Y-37550000D01*
%TO.C,C56*%
X254250000Y950000D02*
X254250000Y550000D01*
X255100000Y950000D02*
X255100000Y550000D01*
D11*
%TO.C,U45*%
X121387500Y-27635938D02*
X116737500Y-27635938D01*
X121387500Y-33085938D02*
X116737500Y-33085938D01*
D12*
X116402500Y-33440938D02*
X115922500Y-33440938D01*
X116162500Y-33110938D01*
X116402500Y-33440938D01*
G36*
X116402500Y-33440938D02*
G01*
X115922500Y-33440938D01*
X116162500Y-33110938D01*
X116402500Y-33440938D01*
G37*
%TO.C,C35*%
X68750000Y-18100000D02*
X68750000Y-18500000D01*
X69600000Y-18100000D02*
X69600000Y-18500000D01*
%TO.C,C36*%
X73512500Y-37150000D02*
X73512500Y-37550000D01*
X74362500Y-37150000D02*
X74362500Y-37550000D01*
D13*
%TO.C,U55*%
X136552500Y-57170001D02*
X136552500Y-55495000D01*
X136552500Y-57170001D02*
X136552500Y-57820000D01*
X139672500Y-57170001D02*
X139672500Y-56520000D01*
X139672500Y-57170001D02*
X139672500Y-57820000D01*
D12*
%TO.C,C58*%
X135425000Y950000D02*
X135425000Y550000D01*
X136275000Y950000D02*
X136275000Y550000D01*
D13*
%TO.C,U82*%
X227040000Y-20001D02*
X227040000Y1655000D01*
X227040000Y-20001D02*
X227040000Y-670000D01*
X230160000Y-20001D02*
X230160000Y630000D01*
X230160000Y-20001D02*
X230160000Y-670000D01*
D12*
%TO.C,C173*%
X268775000Y-75250000D02*
X268775000Y-75650000D01*
X269625000Y-75250000D02*
X269625000Y-75650000D01*
D13*
%TO.C,U77*%
X217515000Y-19070001D02*
X217515000Y-17395000D01*
X217515000Y-19070001D02*
X217515000Y-19720000D01*
X220635000Y-19070001D02*
X220635000Y-18420000D01*
X220635000Y-19070001D02*
X220635000Y-19720000D01*
D12*
%TO.C,C75*%
X244725000Y950000D02*
X244725000Y550000D01*
X245575000Y950000D02*
X245575000Y550000D01*
%TO.C,C171*%
X59437500Y-76625000D02*
X59837500Y-76625000D01*
X59437500Y-77475000D02*
X59837500Y-77475000D01*
%TO.C,C129*%
X87562500Y-37150000D02*
X87562500Y-37550000D01*
X88412500Y-37150000D02*
X88412500Y-37550000D01*
%TO.C,C176*%
X223743750Y-76625000D02*
X224143750Y-76625000D01*
X223743750Y-77475000D02*
X224143750Y-77475000D01*
%TO.C,C127*%
X30412500Y-37150000D02*
X30412500Y-37550000D01*
X31262500Y-37150000D02*
X31262500Y-37550000D01*
D13*
%TO.C,U58*%
X150840000Y-20001D02*
X150840000Y1655000D01*
X150840000Y-20001D02*
X150840000Y-670000D01*
X153960000Y-20001D02*
X153960000Y630000D01*
X153960000Y-20001D02*
X153960000Y-670000D01*
%TO.C,U31*%
X60352500Y-57170001D02*
X60352500Y-55495000D01*
X60352500Y-57170001D02*
X60352500Y-57820000D01*
X63472500Y-57170001D02*
X63472500Y-56520000D01*
X63472500Y-57170001D02*
X63472500Y-57820000D01*
%TO.C,U89*%
X260377500Y-17395000D02*
X260377500Y-19070000D01*
X260377500Y-19720000D02*
X260377500Y-19070000D01*
X263497500Y-18420000D02*
X263497500Y-19070000D01*
X263497500Y-19720000D02*
X263497500Y-19070000D01*
%TO.C,U92*%
X246090000Y-76220001D02*
X246090000Y-74545000D01*
X246090000Y-76220001D02*
X246090000Y-76870000D01*
X249210000Y-76220001D02*
X249210000Y-75570000D01*
X249210000Y-76220001D02*
X249210000Y-76870000D01*
%TO.C,U37*%
X79402500Y-57170001D02*
X79402500Y-55495000D01*
X79402500Y-57170001D02*
X79402500Y-57820000D01*
X82522500Y-57170001D02*
X82522500Y-56520000D01*
X82522500Y-57170001D02*
X82522500Y-57820000D01*
%TO.C,U18*%
X31777500Y-38120001D02*
X31777500Y-36445000D01*
X31777500Y-38120001D02*
X31777500Y-38770000D01*
X34897500Y-38120001D02*
X34897500Y-37470000D01*
X34897500Y-38120001D02*
X34897500Y-38770000D01*
D12*
%TO.C,C66*%
X168762500Y-37150000D02*
X168762500Y-37550000D01*
X169612500Y-37150000D02*
X169612500Y-37550000D01*
%TO.C,C141*%
X58987500Y-56200000D02*
X58987500Y-56600000D01*
X59837500Y-56200000D02*
X59837500Y-56600000D01*
D13*
%TO.C,U65*%
X179415000Y-19070001D02*
X179415000Y-17395000D01*
X179415000Y-19070001D02*
X179415000Y-19720000D01*
X182535000Y-19070001D02*
X182535000Y-18420000D01*
X182535000Y-19070001D02*
X182535000Y-19720000D01*
D12*
%TO.C,C72*%
X187812500Y-37150000D02*
X187812500Y-37550000D01*
X188662500Y-37150000D02*
X188662500Y-37550000D01*
%TO.C,C41*%
X87800000Y-18100000D02*
X87800000Y-18500000D01*
X88650000Y-18100000D02*
X88650000Y-18500000D01*
%TO.C,C95*%
X264012500Y-18100000D02*
X264012500Y-18500000D01*
X264862500Y-18100000D02*
X264862500Y-18500000D01*
D13*
%TO.C,U10*%
X-1560000Y-20001D02*
X-1560000Y1655000D01*
X-1560000Y-20001D02*
X-1560000Y-670000D01*
X1560000Y-20001D02*
X1560000Y630000D01*
X1560000Y-20001D02*
X1560000Y-670000D01*
D12*
%TO.C,C34*%
X59225000Y950000D02*
X59225000Y550000D01*
X60075000Y950000D02*
X60075000Y550000D01*
%TO.C,C155*%
X85562500Y-32210938D02*
X85962500Y-32210938D01*
X85562500Y-33060938D02*
X85962500Y-33060938D01*
%TO.C,C151*%
X233200000Y-32210938D02*
X233600000Y-32210938D01*
X233200000Y-33060938D02*
X233600000Y-33060938D01*
D13*
%TO.C,U26*%
X49336250Y-74640000D02*
X49986250Y-74640000D01*
X49336250Y-77760000D02*
X49986250Y-77760000D01*
X50636250Y-77760000D02*
X49986250Y-77760000D01*
X51661250Y-74640000D02*
X49986250Y-74640000D01*
%TO.C,U12*%
X5583750Y-36445000D02*
X5583750Y-38120000D01*
X5583750Y-38770000D02*
X5583750Y-38120000D01*
X8703750Y-37470000D02*
X8703750Y-38120000D01*
X8703750Y-38770000D02*
X8703750Y-38120000D01*
D12*
%TO.C,C28*%
X40175000Y950000D02*
X40175000Y550000D01*
X41025000Y950000D02*
X41025000Y550000D01*
D13*
%TO.C,U83*%
X236565000Y-19070001D02*
X236565000Y-17395000D01*
X236565000Y-19070001D02*
X236565000Y-19720000D01*
X239685000Y-19070001D02*
X239685000Y-18420000D01*
X239685000Y-19070001D02*
X239685000Y-19720000D01*
D12*
%TO.C,C140*%
X135187500Y-56200000D02*
X135187500Y-56600000D01*
X136037500Y-56200000D02*
X136037500Y-56600000D01*
D13*
%TO.C,U101*%
X284190000Y-19070001D02*
X284190000Y-17395000D01*
X284190000Y-19070001D02*
X284190000Y-19720000D01*
X287310000Y-19070001D02*
X287310000Y-18420000D01*
X287310000Y-19070001D02*
X287310000Y-19720000D01*
%TO.C,U33*%
X10346250Y-55495000D02*
X10346250Y-57170000D01*
X10346250Y-57820000D02*
X10346250Y-57170000D01*
X13466250Y-56520000D02*
X13466250Y-57170000D01*
X13466250Y-57820000D02*
X13466250Y-57170000D01*
D14*
X1000000Y-67405000D02*
G75*
G02*
X-998949Y-67405525I-1000000J2000000D01*
G01*
X24812500Y-67405000D02*
G75*
G02*
X22813551Y-67405525I-1000000J1999998D01*
G01*
X1750000Y-50165000D02*
G75*
G02*
X-1750000Y-50165000I-1750000J0D01*
G01*
X-1750000Y-50165000D02*
G75*
G02*
X1750000Y-50165000I1750000J0D01*
G01*
X25562500Y-50165000D02*
G75*
G02*
X22062500Y-50165000I-1750000J0D01*
G01*
X22062500Y-50165000D02*
G75*
G02*
X25562500Y-50165000I1750000J0D01*
G01*
D12*
%TO.C,C96*%
X101850000Y-18100000D02*
X101850000Y-18500000D01*
X102700000Y-18100000D02*
X102700000Y-18500000D01*
%TO.C,U27*%
X17256634Y-33337500D02*
X17504122Y-33584987D01*
X17504122Y-33090013D02*
X17256634Y-33337500D01*
X19993138Y-30600997D02*
X20240625Y-30353509D01*
X20240625Y-30353509D02*
X20488112Y-30600997D01*
X20240625Y-36321491D02*
X19993138Y-36074003D01*
X20488112Y-36074003D02*
X20240625Y-36321491D01*
X23054910Y-33507206D02*
X22977128Y-33584987D01*
X23627666Y-33273860D02*
X23224616Y-33337500D01*
X23288255Y-32934449D01*
X23627666Y-33273860D01*
G36*
X23627666Y-33273860D02*
G01*
X23224616Y-33337500D01*
X23288255Y-32934449D01*
X23627666Y-33273860D01*
G37*
%TO.C,C43*%
X63987500Y-56200000D02*
X63987500Y-56600000D01*
X64837500Y-56200000D02*
X64837500Y-56600000D01*
%TO.C,C2*%
X9362500Y-32210938D02*
X9762500Y-32210938D01*
X9362500Y-33060938D02*
X9762500Y-33060938D01*
%TO.C,C184*%
X287825000Y-18100000D02*
X287825000Y-18500000D01*
X288675000Y-18100000D02*
X288675000Y-18500000D01*
%TO.C,C93*%
X25650000Y-18100000D02*
X25650000Y-18500000D01*
X26500000Y-18100000D02*
X26500000Y-18500000D01*
%TO.C,C130*%
X4218750Y-37150000D02*
X4218750Y-37550000D01*
X5068750Y-37150000D02*
X5068750Y-37550000D01*
%TO.C,C14*%
X1962500Y-13071875D02*
X1562500Y-13071875D01*
X1962500Y-13921875D02*
X1562500Y-13921875D01*
%TO.C,C89*%
X240200000Y-18100000D02*
X240200000Y-18500000D01*
X241050000Y-18100000D02*
X241050000Y-18500000D01*
D13*
%TO.C,U104*%
X284190000Y-76220001D02*
X284190000Y-74545000D01*
X284190000Y-76220001D02*
X284190000Y-76870000D01*
X287310000Y-76220001D02*
X287310000Y-75570000D01*
X287310000Y-76220001D02*
X287310000Y-76870000D01*
D12*
%TO.C,C177*%
X135425000Y-75250000D02*
X135425000Y-75650000D01*
X136275000Y-75250000D02*
X136275000Y-75650000D01*
%TO.C,C63*%
X149475000Y950000D02*
X149475000Y550000D01*
X150325000Y950000D02*
X150325000Y550000D01*
%TO.C,C88*%
X230675000Y950000D02*
X230675000Y550000D01*
X231525000Y950000D02*
X231525000Y550000D01*
D11*
%TO.C,U51*%
X159487500Y-27635938D02*
X154837500Y-27635938D01*
X159487500Y-33085938D02*
X154837500Y-33085938D01*
D12*
X154502500Y-33440938D02*
X154022500Y-33440938D01*
X154262500Y-33110938D01*
X154502500Y-33440938D01*
G36*
X154502500Y-33440938D02*
G01*
X154022500Y-33440938D01*
X154262500Y-33110938D01*
X154502500Y-33440938D01*
G37*
D13*
%TO.C,U17*%
X27015000Y-19070001D02*
X27015000Y-17395000D01*
X27015000Y-19070001D02*
X27015000Y-19720000D01*
X30135000Y-19070001D02*
X30135000Y-18420000D01*
X30135000Y-19070001D02*
X30135000Y-19720000D01*
D12*
%TO.C,C4*%
X233200000Y-51360938D02*
X233600000Y-51360938D01*
X233200000Y-52210938D02*
X233600000Y-52210938D01*
%TO.C,C37*%
X44937500Y-56200000D02*
X44937500Y-56600000D01*
X45787500Y-56200000D02*
X45787500Y-56600000D01*
%TO.C,TP4*%
X20940625Y-28537500D02*
G75*
G02*
X19540625Y-28537500I-700000J0D01*
G01*
X19540625Y-28537500D02*
G75*
G02*
X20940625Y-28537500I700000J0D01*
G01*
D13*
%TO.C,U102*%
X284190000Y-38120001D02*
X284190000Y-36445000D01*
X284190000Y-38120001D02*
X284190000Y-38770000D01*
X287310000Y-38120001D02*
X287310000Y-37470000D01*
X287310000Y-38120001D02*
X287310000Y-38770000D01*
D12*
%TO.C,C137*%
X192337500Y-56200000D02*
X192337500Y-56600000D01*
X193187500Y-56200000D02*
X193187500Y-56600000D01*
%TO.C,C168*%
X13981250Y-56200000D02*
X13981250Y-56600000D01*
X14831250Y-56200000D02*
X14831250Y-56600000D01*
D13*
%TO.C,U3*%
X255615000Y1655000D02*
X255615000Y-20000D01*
X255615000Y-670000D02*
X255615000Y-20000D01*
X258735000Y630000D02*
X258735000Y-20000D01*
X258735000Y-670000D02*
X258735000Y-20000D01*
D14*
X246268750Y-10255000D02*
G75*
G02*
X244269801Y-10255525I-1000000J2000000D01*
G01*
X270081250Y-10255000D02*
G75*
G02*
X268082301Y-10255525I-1000000J1999998D01*
G01*
X247018750Y6985000D02*
G75*
G02*
X243518750Y6985000I-1750000J0D01*
G01*
X243518750Y6985000D02*
G75*
G02*
X247018750Y6985000I1750000J0D01*
G01*
X270831250Y6985000D02*
G75*
G02*
X267331250Y6985000I-1750000J0D01*
G01*
X267331250Y6985000D02*
G75*
G02*
X270831250Y6985000I1750000J0D01*
G01*
D12*
%TO.C,C113*%
X251868750Y-37150000D02*
X251868750Y-37550000D01*
X252718750Y-37150000D02*
X252718750Y-37550000D01*
%TO.C,C10*%
X17818785Y-30951015D02*
X17535942Y-30668172D01*
X18419826Y-30349974D02*
X18136983Y-30067131D01*
D11*
%TO.C,U62*%
X230925000Y-27635938D02*
X226275000Y-27635938D01*
X230925000Y-33085938D02*
X226275000Y-33085938D01*
D12*
X225940000Y-33440938D02*
X225460000Y-33440938D01*
X225700000Y-33110938D01*
X225940000Y-33440938D01*
G36*
X225940000Y-33440938D02*
G01*
X225460000Y-33440938D01*
X225700000Y-33110938D01*
X225940000Y-33440938D01*
G37*
%TO.C,C52*%
X116375000Y950000D02*
X116375000Y550000D01*
X117225000Y950000D02*
X117225000Y550000D01*
%TO.C,C51*%
X-2925000Y950000D02*
X-2925000Y550000D01*
X-2075000Y950000D02*
X-2075000Y550000D01*
%TO.C,C85*%
X197337500Y-56200000D02*
X197337500Y-56600000D01*
X198187500Y-56200000D02*
X198187500Y-56600000D01*
%TO.C,C31*%
X25887500Y-56200000D02*
X25887500Y-56600000D01*
X26737500Y-56200000D02*
X26737500Y-56600000D01*
%TO.C,C124*%
X144712500Y-37150000D02*
X144712500Y-37550000D01*
X145562500Y-37150000D02*
X145562500Y-37550000D01*
%TO.C,C118*%
X282825000Y-37150000D02*
X282825000Y-37550000D01*
X283675000Y-37150000D02*
X283675000Y-37550000D01*
D13*
%TO.C,U34*%
X74640000Y-20001D02*
X74640000Y1655000D01*
X74640000Y-20001D02*
X74640000Y-670000D01*
X77760000Y-20001D02*
X77760000Y630000D01*
X77760000Y-20001D02*
X77760000Y-670000D01*
%TO.C,U35*%
X84165000Y-19070001D02*
X84165000Y-17395000D01*
X84165000Y-19070001D02*
X84165000Y-19720000D01*
X87285000Y-19070001D02*
X87285000Y-18420000D01*
X87285000Y-19070001D02*
X87285000Y-19720000D01*
D12*
%TO.C,C53*%
X125900000Y-18100000D02*
X125900000Y-18500000D01*
X126750000Y-18100000D02*
X126750000Y-18500000D01*
%TO.C,C80*%
X225675000Y950000D02*
X225675000Y550000D01*
X226525000Y950000D02*
X226525000Y550000D01*
%TO.C,C107*%
X242581250Y-56200000D02*
X242581250Y-56600000D01*
X243431250Y-56200000D02*
X243431250Y-56600000D01*
%TO.C,C139*%
X154237500Y-56200000D02*
X154237500Y-56600000D01*
X155087500Y-56200000D02*
X155087500Y-56600000D01*
%TO.C,C6*%
X47462500Y-32210938D02*
X47862500Y-32210938D01*
X47462500Y-33060938D02*
X47862500Y-33060938D01*
%TO.C,C7*%
X6937500Y-10296875D02*
X6937500Y-9896875D01*
X7787500Y-10296875D02*
X7787500Y-9896875D01*
%TO.C,C143*%
X97087500Y-56200000D02*
X97087500Y-56600000D01*
X97937500Y-56200000D02*
X97937500Y-56600000D01*
%TO.C,C111*%
X197100000Y-18100000D02*
X197100000Y-18500000D01*
X197950000Y-18100000D02*
X197950000Y-18500000D01*
D13*
%TO.C,U6*%
X51717500Y-74640000D02*
X52367500Y-74640000D01*
X51717500Y-77760000D02*
X52367500Y-77760000D01*
X53017500Y-77760000D02*
X52367500Y-77760000D01*
X54042500Y-74640000D02*
X52367500Y-74640000D01*
D12*
%TO.C,C76*%
X192575000Y950000D02*
X192575000Y550000D01*
X193425000Y950000D02*
X193425000Y550000D01*
%TO.C,U85*%
X3152500Y-12461875D02*
X3152500Y-11776875D01*
X3152500Y-14706875D02*
X3152500Y-13731875D01*
X3382500Y-14706875D02*
X3152500Y-14706875D01*
X6372500Y-11486875D02*
X6142500Y-11486875D01*
X6372500Y-12461875D02*
X6372500Y-11486875D01*
X6372500Y-14706875D02*
X6142500Y-14706875D01*
X6372500Y-14706875D02*
X6372500Y-13731875D01*
X3152500Y-11456875D02*
X2872500Y-11456875D01*
X3152500Y-11176875D01*
X3152500Y-11456875D01*
G36*
X3152500Y-11456875D02*
G01*
X2872500Y-11456875D01*
X3152500Y-11176875D01*
X3152500Y-11456875D01*
G37*
%TO.C,C169*%
X11812500Y-76625000D02*
X12212500Y-76625000D01*
X11812500Y-77475000D02*
X12212500Y-77475000D01*
%TO.C,C45*%
X111375000Y950000D02*
X111375000Y550000D01*
X112225000Y950000D02*
X112225000Y550000D01*
%TO.C,C67*%
X140187500Y-56200000D02*
X140187500Y-56600000D01*
X141037500Y-56200000D02*
X141037500Y-56600000D01*
%TO.C,C109*%
X287825000Y-56200000D02*
X287825000Y-56600000D01*
X288675000Y-56200000D02*
X288675000Y-56600000D01*
%TO.C,C133*%
X39937500Y-56200000D02*
X39937500Y-56600000D01*
X40787500Y-56200000D02*
X40787500Y-56600000D01*
D11*
%TO.C,U74*%
X281883750Y-46785938D02*
X277233750Y-46785938D01*
X281883750Y-52235938D02*
X277233750Y-52235938D01*
D12*
X276898750Y-52590938D02*
X276418750Y-52590938D01*
X276658750Y-52260938D01*
X276898750Y-52590938D01*
G36*
X276898750Y-52590938D02*
G01*
X276418750Y-52590938D01*
X276658750Y-52260938D01*
X276898750Y-52590938D01*
G37*
%TO.C,C29*%
X49700000Y-18100000D02*
X49700000Y-18500000D01*
X50550000Y-18100000D02*
X50550000Y-18500000D01*
D13*
%TO.C,U36*%
X88927500Y-38120001D02*
X88927500Y-36445000D01*
X88927500Y-38120001D02*
X88927500Y-38770000D01*
X92047500Y-38120001D02*
X92047500Y-37470000D01*
X92047500Y-38120001D02*
X92047500Y-38770000D01*
%TO.C,U70*%
X188940000Y-20001D02*
X188940000Y1655000D01*
X188940000Y-20001D02*
X188940000Y-670000D01*
X192060000Y-20001D02*
X192060000Y630000D01*
X192060000Y-20001D02*
X192060000Y-670000D01*
%TO.C,U8*%
X213642500Y-74640000D02*
X214292500Y-74640000D01*
X213642500Y-77760000D02*
X214292500Y-77760000D01*
X214942500Y-77760000D02*
X214292500Y-77760000D01*
X215967500Y-74640000D02*
X214292500Y-74640000D01*
D12*
%TO.C,C86*%
X282825000Y950000D02*
X282825000Y550000D01*
X283675000Y950000D02*
X283675000Y550000D01*
D13*
%TO.C,U43*%
X98452500Y-57170001D02*
X98452500Y-55495000D01*
X98452500Y-57170001D02*
X98452500Y-57820000D01*
X101572500Y-57170001D02*
X101572500Y-56520000D01*
X101572500Y-57170001D02*
X101572500Y-57820000D01*
%TO.C,U15*%
X191321250Y-74545000D02*
X191321250Y-76220000D01*
X191321250Y-76870000D02*
X191321250Y-76220000D01*
X194441250Y-75570000D02*
X194441250Y-76220000D01*
X194441250Y-76870000D02*
X194441250Y-76220000D01*
D12*
%TO.C,R2*%
X7374999Y795344D02*
X7374999Y395344D01*
X8224999Y795344D02*
X8224999Y395344D01*
%TO.C,C79*%
X178287500Y-56200000D02*
X178287500Y-56600000D01*
X179137500Y-56200000D02*
X179137500Y-56600000D01*
D13*
%TO.C,U103*%
X284190000Y-57170001D02*
X284190000Y-55495000D01*
X284190000Y-57170001D02*
X284190000Y-57820000D01*
X287310000Y-57170001D02*
X287310000Y-56520000D01*
X287310000Y-57170001D02*
X287310000Y-57820000D01*
%TO.C,U52*%
X131790000Y-20001D02*
X131790000Y1655000D01*
X131790000Y-20001D02*
X131790000Y-670000D01*
X134910000Y-20001D02*
X134910000Y630000D01*
X134910000Y-20001D02*
X134910000Y-670000D01*
%TO.C,U97*%
X265140000Y-57170001D02*
X265140000Y-55495000D01*
X265140000Y-57170001D02*
X265140000Y-57820000D01*
X268260000Y-57170001D02*
X268260000Y-56520000D01*
X268260000Y-57170001D02*
X268260000Y-57820000D01*
%TO.C,U22*%
X36540000Y-20001D02*
X36540000Y1655000D01*
X36540000Y-20001D02*
X36540000Y-670000D01*
X39660000Y-20001D02*
X39660000Y630000D01*
X39660000Y-20001D02*
X39660000Y-670000D01*
D12*
%TO.C,C97*%
X216387500Y-56200000D02*
X216387500Y-56600000D01*
X217237500Y-56200000D02*
X217237500Y-56600000D01*
D13*
%TO.C,U5*%
X27905000Y-74640000D02*
X28555000Y-74640000D01*
X27905000Y-77760000D02*
X28555000Y-77760000D01*
X29205000Y-77760000D02*
X28555000Y-77760000D01*
X30230000Y-74640000D02*
X28555000Y-74640000D01*
%TO.C,U67*%
X174652500Y-57170001D02*
X174652500Y-55495000D01*
X174652500Y-57170001D02*
X174652500Y-57820000D01*
X177772500Y-57170001D02*
X177772500Y-56520000D01*
X177772500Y-57170001D02*
X177772500Y-57820000D01*
D12*
%TO.C,C126*%
X106612500Y-37150000D02*
X106612500Y-37550000D01*
X107462500Y-37150000D02*
X107462500Y-37550000D01*
D13*
%TO.C,U54*%
X146077500Y-38120001D02*
X146077500Y-36445000D01*
X146077500Y-38120001D02*
X146077500Y-38770000D01*
X149197500Y-38120001D02*
X149197500Y-37470000D01*
X149197500Y-38120001D02*
X149197500Y-38770000D01*
%TO.C,U53*%
X141315000Y-19070001D02*
X141315000Y-17395000D01*
X141315000Y-19070001D02*
X141315000Y-19720000D01*
X144435000Y-19070001D02*
X144435000Y-18420000D01*
X144435000Y-19070001D02*
X144435000Y-19720000D01*
D12*
%TO.C,C64*%
X154475000Y950000D02*
X154475000Y550000D01*
X155325000Y950000D02*
X155325000Y550000D01*
D13*
%TO.C,U29*%
X65115000Y-19070001D02*
X65115000Y-17395000D01*
X65115000Y-19070001D02*
X65115000Y-19720000D01*
X68235000Y-19070001D02*
X68235000Y-18420000D01*
X68235000Y-19070001D02*
X68235000Y-19720000D01*
D12*
%TO.C,C49*%
X83037500Y-56200000D02*
X83037500Y-56600000D01*
X83887500Y-56200000D02*
X83887500Y-56600000D01*
%TO.C,C82*%
X211625000Y950000D02*
X211625000Y550000D01*
X212475000Y950000D02*
X212475000Y550000D01*
%TO.C,C138*%
X173287500Y-56200000D02*
X173287500Y-56600000D01*
X174137500Y-56200000D02*
X174137500Y-56600000D01*
D11*
%TO.C,J2*%
X14013610Y-8084344D02*
X14013610Y-9084344D01*
X14013610Y-13084344D02*
X14013610Y-14084344D01*
X14013610Y-14084344D02*
X16413610Y-14084344D01*
X16413610Y-8084344D02*
X14013610Y-8084344D01*
X18213610Y-13084344D02*
X18213610Y-9084344D01*
D13*
%TO.C,U14*%
X1711250Y-74640000D02*
X2361250Y-74640000D01*
X1711250Y-77760000D02*
X2361250Y-77760000D01*
X3011250Y-77760000D02*
X2361250Y-77760000D01*
X4036250Y-74640000D02*
X2361250Y-74640000D01*
D12*
%TO.C,C55*%
X102087500Y-56200000D02*
X102087500Y-56600000D01*
X102937500Y-56200000D02*
X102937500Y-56600000D01*
%TO.C,C116*%
X282825000Y-18100000D02*
X282825000Y-18500000D01*
X283675000Y-18100000D02*
X283675000Y-18500000D01*
%TO.C,C38*%
X54225000Y950000D02*
X54225000Y550000D01*
X55075000Y950000D02*
X55075000Y550000D01*
D13*
%TO.C,U40*%
X93690000Y-20001D02*
X93690000Y1655000D01*
X93690000Y-20001D02*
X93690000Y-670000D01*
X96810000Y-20001D02*
X96810000Y630000D01*
X96810000Y-20001D02*
X96810000Y-670000D01*
D12*
%TO.C,C158*%
X211512500Y-74025000D02*
X211112500Y-74025000D01*
X211512500Y-74875000D02*
X211112500Y-74875000D01*
%TO.C,R35*%
X15838885Y-32365228D02*
X16121728Y-32648071D01*
X16439926Y-31764187D02*
X16722769Y-32047030D01*
%TO.C,C46*%
X97325000Y950000D02*
X97325000Y550000D01*
X98175000Y950000D02*
X98175000Y550000D01*
%TO.C,C69*%
X187575000Y950000D02*
X187575000Y550000D01*
X188425000Y950000D02*
X188425000Y550000D01*
%TO.C,C149*%
X47206250Y-74025000D02*
X46806250Y-74025000D01*
X47206250Y-74875000D02*
X46806250Y-74875000D01*
%TO.C,C1*%
X2550000Y2924999D02*
X2950000Y2924999D01*
X2550000Y2074999D02*
X2950000Y2074999D01*
%TO.C,C74*%
X206625000Y950000D02*
X206625000Y550000D01*
X207475000Y950000D02*
X207475000Y550000D01*
D11*
%TO.C,U2*%
X7087500Y-27635938D02*
X2437500Y-27635938D01*
X7087500Y-33085938D02*
X2437500Y-33085938D01*
D12*
X2102500Y-33440938D02*
X1622500Y-33440938D01*
X1862500Y-33110938D01*
X2102500Y-33440938D01*
G36*
X2102500Y-33440938D02*
G01*
X1622500Y-33440938D01*
X1862500Y-33110938D01*
X2102500Y-33440938D01*
G37*
%TO.C,C163*%
X130425000Y-75250000D02*
X130425000Y-75650000D01*
X131275000Y-75250000D02*
X131275000Y-75650000D01*
%TO.C,C32*%
X35275000Y-12484344D02*
X35275000Y-12084344D01*
X36125000Y-12484344D02*
X36125000Y-12084344D01*
D13*
%TO.C,U47*%
X122265000Y-19070001D02*
X122265000Y-17395000D01*
X122265000Y-19070001D02*
X122265000Y-19720000D01*
X125385000Y-19070001D02*
X125385000Y-18420000D01*
X125385000Y-19070001D02*
X125385000Y-19720000D01*
D12*
%TO.C,C112*%
X216150000Y-18100000D02*
X216150000Y-18500000D01*
X217000000Y-18100000D02*
X217000000Y-18500000D01*
%TO.C,C68*%
X168525000Y950000D02*
X168525000Y550000D01*
X169375000Y950000D02*
X169375000Y550000D01*
%TO.C,C27*%
X16125000Y950000D02*
X16125000Y550000D01*
X16975000Y950000D02*
X16975000Y550000D01*
%TO.C,R1*%
X2550000Y3924999D02*
X2950000Y3924999D01*
X2550000Y3074999D02*
X2950000Y3074999D01*
D13*
%TO.C,U71*%
X198465000Y-19070001D02*
X198465000Y-17395000D01*
X198465000Y-19070001D02*
X198465000Y-19720000D01*
X201585000Y-19070001D02*
X201585000Y-18420000D01*
X201585000Y-19070001D02*
X201585000Y-19720000D01*
D12*
%TO.C,C94*%
X249725000Y950000D02*
X249725000Y550000D01*
X250575000Y950000D02*
X250575000Y550000D01*
%TO.C,C15*%
X259250000Y950000D02*
X259250000Y550000D01*
X260100000Y950000D02*
X260100000Y550000D01*
%TO.C,L1*%
X3512500Y-8586875D02*
X6012500Y-8586875D01*
X6012500Y-10806875D02*
X3512500Y-10806875D01*
%TO.C,C142*%
X78037500Y-56200000D02*
X78037500Y-56600000D01*
X78887500Y-56200000D02*
X78887500Y-56600000D01*
%TO.C,C20*%
X1962500Y-12071875D02*
X1562500Y-12071875D01*
X1962500Y-12921875D02*
X1562500Y-12921875D01*
D13*
%TO.C,U80*%
X22252500Y-57170001D02*
X22252500Y-55495000D01*
X22252500Y-57170001D02*
X22252500Y-57820000D01*
X25372500Y-57170001D02*
X25372500Y-56520000D01*
X25372500Y-57170001D02*
X25372500Y-57820000D01*
D12*
%TO.C,C90*%
X256868750Y-37150000D02*
X256868750Y-37550000D01*
X257718750Y-37150000D02*
X257718750Y-37550000D01*
%TO.C,C114*%
X235200000Y-18100000D02*
X235200000Y-18500000D01*
X236050000Y-18100000D02*
X236050000Y-18500000D01*
D13*
%TO.C,U100*%
X284190000Y-20001D02*
X284190000Y1655000D01*
X284190000Y-20001D02*
X284190000Y-670000D01*
X287310000Y-20001D02*
X287310000Y630000D01*
X287310000Y-20001D02*
X287310000Y-670000D01*
D12*
%TO.C,U19*%
X36540000Y-10284344D02*
X36540000Y-11084344D01*
X36540000Y-11884344D02*
X36540000Y-11084344D01*
X39660000Y-10284344D02*
X39660000Y-11084344D01*
X39660000Y-11884344D02*
X39660000Y-11084344D01*
X36590000Y-9784344D02*
X36260000Y-10024344D01*
X36260000Y-9544344D01*
X36590000Y-9784344D01*
G36*
X36590000Y-9784344D02*
G01*
X36260000Y-10024344D01*
X36260000Y-9544344D01*
X36590000Y-9784344D01*
G37*
D13*
%TO.C,U28*%
X55590000Y-20001D02*
X55590000Y1655000D01*
X55590000Y-20001D02*
X55590000Y-670000D01*
X58710000Y-20001D02*
X58710000Y630000D01*
X58710000Y-20001D02*
X58710000Y-670000D01*
D12*
%TO.C,C172*%
X249725000Y-75250000D02*
X249725000Y-75650000D01*
X250575000Y-75250000D02*
X250575000Y-75650000D01*
%TO.C,C92*%
X82800000Y-18100000D02*
X82800000Y-18500000D01*
X83650000Y-18100000D02*
X83650000Y-18500000D01*
%TO.C,C101*%
X139950000Y-18100000D02*
X139950000Y-18500000D01*
X140800000Y-18100000D02*
X140800000Y-18500000D01*
D13*
%TO.C,U94*%
X265140000Y-20001D02*
X265140000Y1655000D01*
X265140000Y-20001D02*
X265140000Y-670000D01*
X268260000Y-20001D02*
X268260000Y630000D01*
X268260000Y-20001D02*
X268260000Y-670000D01*
%TO.C,U42*%
X107977500Y-38120001D02*
X107977500Y-36445000D01*
X107977500Y-38120001D02*
X107977500Y-38770000D01*
X111097500Y-38120001D02*
X111097500Y-37470000D01*
X111097500Y-38120001D02*
X111097500Y-38770000D01*
D12*
%TO.C,C59*%
X144950000Y-18100000D02*
X144950000Y-18500000D01*
X145800000Y-18100000D02*
X145800000Y-18500000D01*
D11*
%TO.C,U38*%
X83287500Y-27635938D02*
X78637500Y-27635938D01*
X83287500Y-33085938D02*
X78637500Y-33085938D01*
D12*
X78302500Y-33440938D02*
X77822500Y-33440938D01*
X78062500Y-33110938D01*
X78302500Y-33440938D01*
G36*
X78302500Y-33440938D02*
G01*
X77822500Y-33440938D01*
X78062500Y-33110938D01*
X78302500Y-33440938D01*
G37*
D13*
%TO.C,U4*%
X4092500Y-74640000D02*
X4742500Y-74640000D01*
X4092500Y-77760000D02*
X4742500Y-77760000D01*
X5392500Y-77760000D02*
X4742500Y-77760000D01*
X6417500Y-74640000D02*
X4742500Y-74640000D01*
%TO.C,U91*%
X238946250Y-55495000D02*
X238946250Y-57170000D01*
X238946250Y-57820000D02*
X238946250Y-57170000D01*
X242066250Y-56520000D02*
X242066250Y-57170000D01*
X242066250Y-57820000D02*
X242066250Y-57170000D01*
%TO.C,U11*%
X3202500Y-17395000D02*
X3202500Y-19070000D01*
X3202500Y-19720000D02*
X3202500Y-19070000D01*
X6322500Y-18420000D02*
X6322500Y-19070000D01*
X6322500Y-19720000D02*
X6322500Y-19070000D01*
D12*
%TO.C,C40*%
X78275000Y950000D02*
X78275000Y550000D01*
X79125000Y950000D02*
X79125000Y550000D01*
%TO.C,C132*%
X-543750Y-56200000D02*
X-543750Y-56600000D01*
X306250Y-56200000D02*
X306250Y-56600000D01*
%TO.C,TP1*%
X16940625Y-25537500D02*
G75*
G02*
X15540625Y-25537500I-700000J0D01*
G01*
X15540625Y-25537500D02*
G75*
G02*
X16940625Y-25537500I700000J0D01*
G01*
%TO.C,C108*%
X268775000Y-56200000D02*
X268775000Y-56600000D01*
X269625000Y-56200000D02*
X269625000Y-56600000D01*
%TO.C,C78*%
X206862500Y-37150000D02*
X206862500Y-37550000D01*
X207712500Y-37150000D02*
X207712500Y-37550000D01*
%TO.C,C100*%
X268775000Y950000D02*
X268775000Y550000D01*
X269625000Y950000D02*
X269625000Y550000D01*
%TO.C,C144*%
X116137500Y-56200000D02*
X116137500Y-56600000D01*
X116987500Y-56200000D02*
X116987500Y-56600000D01*
D11*
%TO.C,U32*%
X45187500Y-27635938D02*
X40537500Y-27635938D01*
X45187500Y-33085938D02*
X40537500Y-33085938D01*
D12*
X40202500Y-33440938D02*
X39722500Y-33440938D01*
X39962500Y-33110938D01*
X40202500Y-33440938D01*
G36*
X40202500Y-33440938D02*
G01*
X39722500Y-33440938D01*
X39962500Y-33110938D01*
X40202500Y-33440938D01*
G37*
D13*
%TO.C,U73*%
X193702500Y-57170001D02*
X193702500Y-55495000D01*
X193702500Y-57170001D02*
X193702500Y-57820000D01*
X196822500Y-57170001D02*
X196822500Y-56520000D01*
X196822500Y-57170001D02*
X196822500Y-57820000D01*
%TO.C,U84*%
X253233750Y-38120001D02*
X253233750Y-36445000D01*
X253233750Y-38120001D02*
X253233750Y-38770000D01*
X256353750Y-38120001D02*
X256353750Y-37470000D01*
X256353750Y-38120001D02*
X256353750Y-38770000D01*
D14*
X241887500Y-27845000D02*
G75*
G02*
X243886449Y-27844475I1000000J-2000020D01*
G01*
X265700000Y-27845000D02*
G75*
G02*
X267698949Y-27844475I1000000J-1999998D01*
G01*
X244637500Y-45085000D02*
G75*
G02*
X241137500Y-45085000I-1750000J0D01*
G01*
X241137500Y-45085000D02*
G75*
G02*
X244637500Y-45085000I1750000J0D01*
G01*
X268450000Y-45085000D02*
G75*
G02*
X264950000Y-45085000I-1750000J0D01*
G01*
X264950000Y-45085000D02*
G75*
G02*
X268450000Y-45085000I1750000J0D01*
G01*
D13*
%TO.C,U41*%
X103215000Y-19070001D02*
X103215000Y-17395000D01*
X103215000Y-19070001D02*
X103215000Y-19720000D01*
X106335000Y-19070001D02*
X106335000Y-18420000D01*
X106335000Y-19070001D02*
X106335000Y-19720000D01*
%TO.C,U48*%
X127027500Y-38120001D02*
X127027500Y-36445000D01*
X127027500Y-38120001D02*
X127027500Y-38770000D01*
X130147500Y-38120001D02*
X130147500Y-37470000D01*
X130147500Y-38120001D02*
X130147500Y-38770000D01*
D12*
%TO.C,C57*%
X130425000Y950000D02*
X130425000Y550000D01*
X131275000Y950000D02*
X131275000Y550000D01*
%TO.C,C65*%
X164000000Y-18100000D02*
X164000000Y-18500000D01*
X164850000Y-18100000D02*
X164850000Y-18500000D01*
D13*
%TO.C,U60*%
X165127500Y-38120001D02*
X165127500Y-36445000D01*
X165127500Y-38120001D02*
X165127500Y-38770000D01*
X168247500Y-38120001D02*
X168247500Y-37470000D01*
X168247500Y-38120001D02*
X168247500Y-38770000D01*
D12*
%TO.C,C147*%
X-418750Y-74025000D02*
X-818750Y-74025000D01*
X-418750Y-74875000D02*
X-818750Y-74875000D01*
%TO.C,C174*%
X287825000Y-75250000D02*
X287825000Y-75650000D01*
X288675000Y-75250000D02*
X288675000Y-75650000D01*
%TO.C,C170*%
X35625000Y-76625000D02*
X36025000Y-76625000D01*
X35625000Y-77475000D02*
X36025000Y-77475000D01*
%TO.C,C25*%
X51525000Y-11284344D02*
X51525000Y-11684344D01*
X52375000Y-11284344D02*
X52375000Y-11684344D01*
D13*
%TO.C,U64*%
X169890000Y-20001D02*
X169890000Y1655000D01*
X169890000Y-20001D02*
X169890000Y-670000D01*
X173010000Y-20001D02*
X173010000Y630000D01*
X173010000Y-20001D02*
X173010000Y-670000D01*
D12*
%TO.C,C154*%
X161762500Y-32210938D02*
X162162500Y-32210938D01*
X161762500Y-33060938D02*
X162162500Y-33060938D01*
D13*
%TO.C,U7*%
X131790000Y-74545000D02*
X131790000Y-76220000D01*
X131790000Y-76870000D02*
X131790000Y-76220000D01*
X134910000Y-75570000D02*
X134910000Y-76220000D01*
X134910000Y-76870000D02*
X134910000Y-76220000D01*
D14*
X75200000Y-65945000D02*
G75*
G02*
X77198949Y-65944475I1000000J-2000000D01*
G01*
X189500000Y-65945000D02*
G75*
G02*
X191498949Y-65944475I1000000J-1999998D01*
G01*
X77950000Y-83185000D02*
G75*
G02*
X74450000Y-83185000I-1750000J0D01*
G01*
X74450000Y-83185000D02*
G75*
G02*
X77950000Y-83185000I1750000J0D01*
G01*
X192250000Y-83185000D02*
G75*
G02*
X188750000Y-83185000I-1750000J0D01*
G01*
X188750000Y-83185000D02*
G75*
G02*
X192250000Y-83185000I1750000J0D01*
G01*
D13*
%TO.C,U59*%
X160365000Y-19070001D02*
X160365000Y-17395000D01*
X160365000Y-19070001D02*
X160365000Y-19720000D01*
X163485000Y-19070001D02*
X163485000Y-18420000D01*
X163485000Y-19070001D02*
X163485000Y-19720000D01*
D12*
%TO.C,C70*%
X173525000Y950000D02*
X173525000Y550000D01*
X174375000Y950000D02*
X174375000Y550000D01*
%TO.C,C119*%
X220912500Y-37150000D02*
X220912500Y-37550000D01*
X221762500Y-37150000D02*
X221762500Y-37550000D01*
D11*
%TO.C,U69*%
X230925000Y-46785938D02*
X226275000Y-46785938D01*
X230925000Y-52235938D02*
X226275000Y-52235938D01*
D12*
X225940000Y-52590938D02*
X225460000Y-52590938D01*
X225700000Y-52260938D01*
X225940000Y-52590938D01*
G36*
X225940000Y-52590938D02*
G01*
X225460000Y-52590938D01*
X225700000Y-52260938D01*
X225940000Y-52590938D01*
G37*
D13*
%TO.C,U78*%
X222277500Y-38120001D02*
X222277500Y-36445000D01*
X222277500Y-38120001D02*
X222277500Y-38770000D01*
X225397500Y-38120001D02*
X225397500Y-37470000D01*
X225397500Y-38120001D02*
X225397500Y-38770000D01*
D12*
%TO.C,C131*%
X8981250Y-56200000D02*
X8981250Y-56600000D01*
X9831250Y-56200000D02*
X9831250Y-56600000D01*
%TO.C,C11*%
X22612082Y-37406014D02*
X22894925Y-37123171D01*
X23213123Y-38007055D02*
X23495966Y-37724212D01*
D13*
%TO.C,U16*%
X17490000Y-20001D02*
X17490000Y1655000D01*
X17490000Y-20001D02*
X17490000Y-670000D01*
X20610000Y-20001D02*
X20610000Y630000D01*
X20610000Y-20001D02*
X20610000Y-670000D01*
D12*
%TO.C,C77*%
X202100000Y-18100000D02*
X202100000Y-18500000D01*
X202950000Y-18100000D02*
X202950000Y-18500000D01*
%TO.C,C157*%
X189956250Y-75250000D02*
X189956250Y-75650000D01*
X190806250Y-75250000D02*
X190806250Y-75650000D01*
%TO.C,C16*%
X2075000Y950000D02*
X2075000Y550000D01*
X2925000Y950000D02*
X2925000Y550000D01*
%TO.C,C83*%
X221150000Y-18100000D02*
X221150000Y-18500000D01*
X222000000Y-18100000D02*
X222000000Y-18500000D01*
%TO.C,R113*%
X6982500Y-12250516D02*
X6982500Y-11943234D01*
X7742500Y-12250516D02*
X7742500Y-11943234D01*
%TO.C,C87*%
X44700000Y-18100000D02*
X44700000Y-18500000D01*
X45550000Y-18100000D02*
X45550000Y-18500000D01*
%TO.C,C106*%
X287825000Y950000D02*
X287825000Y550000D01*
X288675000Y950000D02*
X288675000Y550000D01*
%TO.C,C39*%
X73275000Y950000D02*
X73275000Y550000D01*
X74125000Y950000D02*
X74125000Y550000D01*
%TO.C,C146*%
X20887500Y-56200000D02*
X20887500Y-56600000D01*
X21737500Y-56200000D02*
X21737500Y-56600000D01*
%TO.C,C26*%
X35275000Y-9684344D02*
X35275000Y-10084344D01*
X36125000Y-9684344D02*
X36125000Y-10084344D01*
%TO.C,C54*%
X130662500Y-37150000D02*
X130662500Y-37550000D01*
X131512500Y-37150000D02*
X131512500Y-37550000D01*
%TO.C,C136*%
X211387500Y-56200000D02*
X211387500Y-56600000D01*
X212237500Y-56200000D02*
X212237500Y-56600000D01*
%TO.C,C102*%
X159000000Y-18100000D02*
X159000000Y-18500000D01*
X159850000Y-18100000D02*
X159850000Y-18500000D01*
%TO.C,C47*%
X106850000Y-18100000D02*
X106850000Y-18500000D01*
X107700000Y-18100000D02*
X107700000Y-18500000D01*
%TO.C,C153*%
X118518750Y-75250000D02*
X118518750Y-75650000D01*
X119368750Y-75250000D02*
X119368750Y-75650000D01*
%TO.C,C185*%
X287825000Y-37150000D02*
X287825000Y-37550000D01*
X288675000Y-37150000D02*
X288675000Y-37550000D01*
%TO.C,C165*%
X7002500Y-13989039D02*
X7002500Y-14204711D01*
X7722500Y-13989039D02*
X7722500Y-14204711D01*
D13*
%TO.C,U88*%
X246090000Y-20001D02*
X246090000Y1655000D01*
X246090000Y-20001D02*
X246090000Y-670000D01*
X249210000Y-20001D02*
X249210000Y630000D01*
X249210000Y-20001D02*
X249210000Y-670000D01*
D12*
%TO.C,JP1*%
X20425000Y-16100000D02*
X20425000Y-14700000D01*
X21125000Y-14000000D02*
X21725000Y-14000000D01*
X21725000Y-16800000D02*
X21125000Y-16800000D01*
X22425000Y-14700000D02*
X22425000Y-16100000D01*
X20425000Y-14700000D02*
G75*
G02*
X21125000Y-14000000I699999J1D01*
G01*
X21125000Y-16800000D02*
G75*
G02*
X20425000Y-16100000I0J700000D01*
G01*
X21725000Y-14000000D02*
G75*
G02*
X22425000Y-14700000I1J-699999D01*
G01*
X22425000Y-16100000D02*
G75*
G02*
X21725000Y-16800000I-700000J0D01*
G01*
D13*
%TO.C,U49*%
X117502500Y-57170001D02*
X117502500Y-55495000D01*
X117502500Y-57170001D02*
X117502500Y-57820000D01*
X120622500Y-57170001D02*
X120622500Y-56520000D01*
X120622500Y-57170001D02*
X120622500Y-57820000D01*
%TO.C,U20*%
X25523750Y-74640000D02*
X26173750Y-74640000D01*
X25523750Y-77760000D02*
X26173750Y-77760000D01*
X26823750Y-77760000D02*
X26173750Y-77760000D01*
X27848750Y-74640000D02*
X26173750Y-74640000D01*
D12*
%TO.C,C134*%
X237581250Y-56200000D02*
X237581250Y-56600000D01*
X238431250Y-56200000D02*
X238431250Y-56600000D01*
%TO.C,C152*%
X199862500Y-32210938D02*
X200262500Y-32210938D01*
X199862500Y-33060938D02*
X200262500Y-33060938D01*
D13*
%TO.C,U61*%
X155602500Y-57170001D02*
X155602500Y-55495000D01*
X155602500Y-57170001D02*
X155602500Y-57820000D01*
X158722500Y-57170001D02*
X158722500Y-56520000D01*
X158722500Y-57170001D02*
X158722500Y-57820000D01*
%TO.C,U44*%
X119883750Y-74545000D02*
X119883750Y-76220000D01*
X119883750Y-76870000D02*
X119883750Y-76220000D01*
X123003750Y-75570000D02*
X123003750Y-76220000D01*
X123003750Y-76870000D02*
X123003750Y-76220000D01*
D14*
X70443850Y-65945000D02*
G75*
G02*
X72442799Y-65944475I1000000J-2000000D01*
G01*
X170443650Y-65945000D02*
G75*
G02*
X172442599Y-65944475I1000000J-1999998D01*
G01*
X73193850Y-83185000D02*
G75*
G02*
X69693850Y-83185000I-1750000J0D01*
G01*
X69693850Y-83185000D02*
G75*
G02*
X73193850Y-83185000I1750000J0D01*
G01*
X173193650Y-83185000D02*
G75*
G02*
X169693650Y-83185000I-1750000J0D01*
G01*
X169693650Y-83185000D02*
G75*
G02*
X173193650Y-83185000I1750000J0D01*
G01*
D12*
%TO.C,C81*%
X263775000Y950000D02*
X263775000Y550000D01*
X264625000Y950000D02*
X264625000Y550000D01*
D13*
%TO.C,U46*%
X112740000Y-20001D02*
X112740000Y1655000D01*
X112740000Y-20001D02*
X112740000Y-670000D01*
X115860000Y-20001D02*
X115860000Y630000D01*
X115860000Y-20001D02*
X115860000Y-670000D01*
D12*
%TO.C,C9*%
X23617060Y-31905609D02*
X23899903Y-31622766D01*
X24218101Y-32506650D02*
X24500944Y-32223807D01*
D13*
%TO.C,U76*%
X207990000Y-20001D02*
X207990000Y1655000D01*
X207990000Y-20001D02*
X207990000Y-670000D01*
X211110000Y-20001D02*
X211110000Y630000D01*
X211110000Y-20001D02*
X211110000Y-670000D01*
D12*
%TO.C,JP2*%
X-50000Y-16300000D02*
X-50000Y-15700000D01*
X650000Y-15000000D02*
X2050000Y-15000000D01*
X2050000Y-17000000D02*
X650000Y-17000000D01*
X2750000Y-15700000D02*
X2750000Y-16300000D01*
X-50000Y-15700000D02*
G75*
G02*
X650000Y-15000000I699999J1D01*
G01*
X650000Y-17000000D02*
G75*
G02*
X-50000Y-16300000I-1J699999D01*
G01*
X2050000Y-15000000D02*
G75*
G02*
X2750000Y-15700000I0J-700000D01*
G01*
X2750000Y-16300000D02*
G75*
G02*
X2050000Y-17000000I-700000J0D01*
G01*
D13*
%TO.C,U98*%
X265140000Y-76220001D02*
X265140000Y-74545000D01*
X265140000Y-76220001D02*
X265140000Y-76870000D01*
X268260000Y-76220001D02*
X268260000Y-75570000D01*
X268260000Y-76220001D02*
X268260000Y-76870000D01*
D12*
%TO.C,C148*%
X23393750Y-74025000D02*
X22993750Y-74025000D01*
X23393750Y-74875000D02*
X22993750Y-74875000D01*
%TO.C,C91*%
X63750000Y-18100000D02*
X63750000Y-18500000D01*
X64600000Y-18100000D02*
X64600000Y-18500000D01*
%TO.C,C159*%
X244725000Y-75250000D02*
X244725000Y-75650000D01*
X245575000Y-75250000D02*
X245575000Y-75650000D01*
D13*
%TO.C,U21*%
X216023750Y-74640000D02*
X216673750Y-74640000D01*
X216023750Y-77760000D02*
X216673750Y-77760000D01*
X217323750Y-77760000D02*
X216673750Y-77760000D01*
X218348750Y-74640000D02*
X216673750Y-74640000D01*
D12*
%TO.C,C178*%
X123518750Y-75250000D02*
X123518750Y-75650000D01*
X124368750Y-75250000D02*
X124368750Y-75650000D01*
%TO.C,C175*%
X194956250Y-75250000D02*
X194956250Y-75650000D01*
X195806250Y-75250000D02*
X195806250Y-75650000D01*
%TO.C,C121*%
X182812500Y-37150000D02*
X182812500Y-37550000D01*
X183662500Y-37150000D02*
X183662500Y-37550000D01*
%TO.C,TP2*%
X20940625Y-25537500D02*
G75*
G02*
X19540625Y-25537500I-700000J0D01*
G01*
X19540625Y-25537500D02*
G75*
G02*
X20940625Y-25537500I700000J0D01*
G01*
%TO.C,C61*%
X121137500Y-56200000D02*
X121137500Y-56600000D01*
X121987500Y-56200000D02*
X121987500Y-56600000D01*
%TO.C,F1*%
X8550000Y-749000D02*
X10550000Y-749000D01*
X10550000Y-2889000D02*
X8550000Y-2889000D01*
%TO.C,C84*%
X225912500Y-37150000D02*
X225912500Y-37550000D01*
X226762500Y-37150000D02*
X226762500Y-37550000D01*
%TO.C,R30*%
X15131779Y-33072335D02*
X15414622Y-33355178D01*
X15732820Y-32471294D02*
X16015663Y-32754137D01*
%TO.C,C145*%
X282825000Y-56200000D02*
X282825000Y-56600000D01*
X283675000Y-56200000D02*
X283675000Y-56600000D01*
%TO.C,C8*%
X16440901Y-29541942D02*
X16158058Y-29259099D01*
X17041942Y-28940901D02*
X16759099Y-28658058D01*
%TO.C,C161*%
X282825000Y-75250000D02*
X282825000Y-75650000D01*
X283675000Y-75250000D02*
X283675000Y-75650000D01*
D13*
%TO.C,U24*%
X50827500Y-38120001D02*
X50827500Y-36445000D01*
X50827500Y-38120001D02*
X50827500Y-38770000D01*
X53947500Y-38120001D02*
X53947500Y-37470000D01*
X53947500Y-38120001D02*
X53947500Y-38770000D01*
D12*
%TO.C,C135*%
X263775000Y-56200000D02*
X263775000Y-56600000D01*
X264625000Y-56200000D02*
X264625000Y-56600000D01*
%TO.C,C42*%
X92562500Y-37150000D02*
X92562500Y-37550000D01*
X93412500Y-37150000D02*
X93412500Y-37550000D01*
%TO.C,C48*%
X111612500Y-37150000D02*
X111612500Y-37550000D01*
X112462500Y-37150000D02*
X112462500Y-37550000D01*
%TO.C,C21*%
X51525000Y-8484344D02*
X51525000Y-8084344D01*
X52375000Y-8484344D02*
X52375000Y-8084344D01*
%TO.C,C120*%
X201862500Y-37150000D02*
X201862500Y-37550000D01*
X202712500Y-37150000D02*
X202712500Y-37550000D01*
%TO.C,C115*%
X259012500Y-18100000D02*
X259012500Y-18500000D01*
X259862500Y-18100000D02*
X259862500Y-18500000D01*
%TD*%
%LPC*%
D15*
%TO.C,H11*%
X219075000Y0D03*
%TD*%
%TO.C,H13*%
X214312500Y-38100000D03*
%TD*%
%TO.C,H16*%
X290512500Y-9525000D03*
%TD*%
%TO.C,H14*%
X39290625Y-76200000D03*
%TD*%
%TO.C,H10*%
X161925000Y0D03*
%TD*%
%TO.C,H4*%
X80962500Y-38100000D03*
%TD*%
%TO.C,H18*%
X257175000Y-9525000D03*
%TD*%
%TO.C,H12*%
X-4762500Y-9525000D03*
%TD*%
%TO.C,H8*%
X142875000Y0D03*
%TD*%
%TO.C,H17*%
X276225000Y-76200000D03*
%TD*%
%TO.C,H9*%
X104775000Y0D03*
%TD*%
%TO.C,H15*%
X202406250Y-76200000D03*
%TD*%
%TO.C,H5*%
X66675000Y0D03*
%TD*%
%TO.C,H3*%
X47625000Y0D03*
%TD*%
%TO.C,H7*%
X157162500Y-38100000D03*
%TD*%
D16*
%TO.C,C33*%
X35600000Y270000D03*
X35600000Y1230000D03*
%TD*%
%TO.C,C73*%
X159662500Y-56880000D03*
X159662500Y-55920000D03*
%TD*%
%TO.C,C160*%
X264200000Y-75930000D03*
X264200000Y-74970000D03*
%TD*%
D17*
%TO.C,SW1*%
X30300000Y-31000000D03*
X30300000Y-35200000D03*
%TD*%
D16*
%TO.C,C60*%
X150137500Y-37830000D03*
X150137500Y-36870000D03*
%TD*%
D18*
%TO.C,C13*%
X22701357Y-36533623D03*
X22022535Y-37212445D03*
%TD*%
D19*
%TO.C,U25*%
X47942499Y-57150000D03*
X37782501Y-57150000D03*
D20*
X41912500Y-55995000D03*
X42862500Y-58345000D03*
X43812500Y-55995000D03*
%TD*%
D16*
%TO.C,C22*%
X21550000Y270000D03*
X21550000Y1230000D03*
%TD*%
D19*
%TO.C,U23*%
X52704999Y-19050000D03*
X42545001Y-19050000D03*
D20*
X46675000Y-17895000D03*
X47625000Y-20245000D03*
X48575000Y-17895000D03*
%TD*%
D21*
%TO.C,U56*%
X192362500Y-32635938D03*
X192362500Y-31985938D03*
X192362500Y-31335938D03*
X192362500Y-30685938D03*
X192362500Y-30035938D03*
X192362500Y-29385938D03*
X192362500Y-28735938D03*
X192362500Y-28085938D03*
X198162500Y-28085938D03*
X198162500Y-28735938D03*
X198162500Y-29385938D03*
X198162500Y-30035938D03*
X198162500Y-30685938D03*
X198162500Y-31335938D03*
X198162500Y-31985938D03*
X198162500Y-32635938D03*
%TD*%
D16*
%TO.C,C125*%
X126087500Y-37830000D03*
X126087500Y-36870000D03*
%TD*%
%TO.C,C23*%
X31075000Y-18780000D03*
X31075000Y-17820000D03*
%TD*%
D22*
%TO.C,U63*%
X54000000Y-13384344D03*
X54000000Y-11084344D03*
D23*
X60300000Y-11084344D03*
D22*
X54000000Y-8784344D03*
%TD*%
D24*
%TO.C,TP3*%
X13600000Y-29334344D03*
%TD*%
D16*
%TO.C,C18*%
X9643750Y-37830000D03*
X9643750Y-36870000D03*
%TD*%
%TO.C,C123*%
X164187500Y-37830000D03*
X164187500Y-36870000D03*
%TD*%
%TO.C,C17*%
X7262500Y-18780000D03*
X7262500Y-17820000D03*
%TD*%
D19*
%TO.C,U30*%
X76517499Y-38100000D03*
X66357501Y-38100000D03*
D20*
X70487500Y-36945000D03*
X71437500Y-39295000D03*
X72387500Y-36945000D03*
%TD*%
D16*
%TO.C,C105*%
X178475000Y-18780000D03*
X178475000Y-17820000D03*
%TD*%
%TO.C,C99*%
X121325000Y-18780000D03*
X121325000Y-17820000D03*
%TD*%
%TO.C,R3*%
X10550000Y115344D03*
X10550000Y1075344D03*
%TD*%
%TO.C,C122*%
X49887500Y-37830000D03*
X49887500Y-36870000D03*
%TD*%
%TO.C,C71*%
X183475000Y-18780000D03*
X183475000Y-17820000D03*
%TD*%
D25*
%TO.C,C3*%
X284838750Y-51785938D03*
X283878750Y-51785938D03*
%TD*%
D26*
%TO.C,Y1*%
X25897479Y-33903186D03*
X25048951Y-34751714D03*
X24200423Y-35600242D03*
%TD*%
D19*
%TO.C,U66*%
X190817499Y-38100000D03*
X180657501Y-38100000D03*
D20*
X184787500Y-36945000D03*
X185737500Y-39295000D03*
X186687500Y-36945000D03*
%TD*%
D16*
%TO.C,C44*%
X92750000Y270000D03*
X92750000Y1230000D03*
%TD*%
%TO.C,C19*%
X4881250Y-56880000D03*
X4881250Y-55920000D03*
%TD*%
D25*
%TO.C,C5*%
X124342500Y-32635938D03*
X123382500Y-32635938D03*
%TD*%
D19*
%TO.C,U75*%
X7461250Y-57150000D03*
X-2698750Y-57150000D03*
D20*
X1431250Y-55995000D03*
X2381250Y-58345000D03*
X3331250Y-55995000D03*
%TD*%
D16*
%TO.C,C24*%
X35837500Y-37830000D03*
X35837500Y-36870000D03*
%TD*%
D19*
%TO.C,U72*%
X209867499Y-38100000D03*
X199707501Y-38100000D03*
D20*
X203837500Y-36945000D03*
X204787500Y-39295000D03*
X205737500Y-36945000D03*
%TD*%
D16*
%TO.C,C117*%
X2262500Y-18780000D03*
X2262500Y-17820000D03*
%TD*%
%TO.C,C30*%
X54887500Y-37830000D03*
X54887500Y-36870000D03*
%TD*%
D19*
%TO.C,U79*%
X219392499Y-57150000D03*
X209232501Y-57150000D03*
D20*
X213362500Y-55995000D03*
X214312500Y-58345000D03*
X215262500Y-55995000D03*
%TD*%
D16*
%TO.C,C128*%
X68937500Y-37830000D03*
X68937500Y-36870000D03*
%TD*%
%TO.C,C56*%
X254675000Y270000D03*
X254675000Y1230000D03*
%TD*%
D21*
%TO.C,U45*%
X116162500Y-32635938D03*
X116162500Y-31985938D03*
X116162500Y-31335938D03*
X116162500Y-30685938D03*
X116162500Y-30035938D03*
X116162500Y-29385938D03*
X116162500Y-28735938D03*
X116162500Y-28085938D03*
X121962500Y-28085938D03*
X121962500Y-28735938D03*
X121962500Y-29385938D03*
X121962500Y-30035938D03*
X121962500Y-30685938D03*
X121962500Y-31335938D03*
X121962500Y-31985938D03*
X121962500Y-32635938D03*
%TD*%
D16*
%TO.C,C35*%
X69175000Y-18780000D03*
X69175000Y-17820000D03*
%TD*%
%TO.C,C36*%
X73937500Y-37830000D03*
X73937500Y-36870000D03*
%TD*%
D19*
%TO.C,U55*%
X143192499Y-57150000D03*
X133032501Y-57150000D03*
D20*
X137162500Y-55995000D03*
X138112500Y-58345000D03*
X139062500Y-55995000D03*
%TD*%
D16*
%TO.C,C58*%
X135850000Y270000D03*
X135850000Y1230000D03*
%TD*%
D19*
%TO.C,U82*%
X233679999Y0D03*
X223520001Y0D03*
D20*
X227650000Y1155000D03*
X228600000Y-1195000D03*
X229550000Y1155000D03*
%TD*%
D16*
%TO.C,C173*%
X269200000Y-75930000D03*
X269200000Y-74970000D03*
%TD*%
D19*
%TO.C,U77*%
X224154999Y-19050000D03*
X213995001Y-19050000D03*
D20*
X218125000Y-17895000D03*
X219075000Y-20245000D03*
X220025000Y-17895000D03*
%TD*%
D16*
%TO.C,C75*%
X245150000Y270000D03*
X245150000Y1230000D03*
%TD*%
D25*
%TO.C,C171*%
X60117500Y-77050000D03*
X59157500Y-77050000D03*
%TD*%
D16*
%TO.C,C129*%
X87987500Y-37830000D03*
X87987500Y-36870000D03*
%TD*%
D25*
%TO.C,C176*%
X224423750Y-77050000D03*
X223463750Y-77050000D03*
%TD*%
D16*
%TO.C,C127*%
X30837500Y-37830000D03*
X30837500Y-36870000D03*
%TD*%
D19*
%TO.C,U58*%
X157479999Y0D03*
X147320001Y0D03*
D20*
X151450000Y1155000D03*
X152400000Y-1195000D03*
X153350000Y1155000D03*
%TD*%
D19*
%TO.C,U31*%
X66992499Y-57150000D03*
X56832501Y-57150000D03*
D20*
X60962500Y-55995000D03*
X61912500Y-58345000D03*
X62862500Y-55995000D03*
%TD*%
D19*
%TO.C,U89*%
X267017500Y-19050000D03*
X256857500Y-19050000D03*
D20*
X260987500Y-17895000D03*
X261937500Y-20245000D03*
X262887500Y-17895000D03*
%TD*%
D19*
%TO.C,U92*%
X252729999Y-76200000D03*
X242570001Y-76200000D03*
D20*
X246700000Y-75045000D03*
X247650000Y-77395000D03*
X248600000Y-75045000D03*
%TD*%
D19*
%TO.C,U37*%
X86042499Y-57150000D03*
X75882501Y-57150000D03*
D20*
X80012500Y-55995000D03*
X80962500Y-58345000D03*
X81912500Y-55995000D03*
%TD*%
D19*
%TO.C,U18*%
X38417499Y-38100000D03*
X28257501Y-38100000D03*
D20*
X32387500Y-36945000D03*
X33337500Y-39295000D03*
X34287500Y-36945000D03*
%TD*%
D16*
%TO.C,C66*%
X169187500Y-37830000D03*
X169187500Y-36870000D03*
%TD*%
%TO.C,C141*%
X59412500Y-56880000D03*
X59412500Y-55920000D03*
%TD*%
D19*
%TO.C,U65*%
X186054999Y-19050000D03*
X175895001Y-19050000D03*
D20*
X180025000Y-17895000D03*
X180975000Y-20245000D03*
X181925000Y-17895000D03*
%TD*%
D16*
%TO.C,C72*%
X188237500Y-37830000D03*
X188237500Y-36870000D03*
%TD*%
%TO.C,C41*%
X88225000Y-18780000D03*
X88225000Y-17820000D03*
%TD*%
%TO.C,C95*%
X264437500Y-18780000D03*
X264437500Y-17820000D03*
%TD*%
D19*
%TO.C,U10*%
X5079999Y0D03*
X-5079999Y0D03*
D20*
X-950000Y1155000D03*
X0Y-1195000D03*
X950000Y1155000D03*
%TD*%
D16*
%TO.C,C34*%
X59650000Y270000D03*
X59650000Y1230000D03*
%TD*%
D25*
%TO.C,C155*%
X86242500Y-32635938D03*
X85282500Y-32635938D03*
%TD*%
%TO.C,C151*%
X233880000Y-32635938D03*
X232920000Y-32635938D03*
%TD*%
D19*
%TO.C,U26*%
X55086250Y-76200000D03*
X44926250Y-76200000D03*
D27*
X51161250Y-75250000D03*
X48811250Y-76200000D03*
X51161250Y-77150000D03*
%TD*%
D19*
%TO.C,U12*%
X12223750Y-38100000D03*
X2063750Y-38100000D03*
D20*
X6193750Y-36945000D03*
X7143750Y-39295000D03*
X8093750Y-36945000D03*
%TD*%
D16*
%TO.C,C28*%
X40600000Y270000D03*
X40600000Y1230000D03*
%TD*%
D19*
%TO.C,U83*%
X243204999Y-19050000D03*
X233045001Y-19050000D03*
D20*
X237175000Y-17895000D03*
X238125000Y-20245000D03*
X239075000Y-17895000D03*
%TD*%
D16*
%TO.C,C140*%
X135612500Y-56880000D03*
X135612500Y-55920000D03*
%TD*%
D19*
%TO.C,U101*%
X290829999Y-19050000D03*
X280670001Y-19050000D03*
D20*
X284800000Y-17895000D03*
X285750000Y-20245000D03*
X286700000Y-17895000D03*
%TD*%
D28*
%TO.C,U33*%
X23812500Y-65405000D03*
D29*
X23812500Y-50165000D03*
D19*
X16986250Y-57150000D03*
X6826250Y-57150000D03*
D28*
X0Y-65405000D03*
D29*
X0Y-50165000D03*
D20*
X10956250Y-55995000D03*
X11906250Y-58345000D03*
X12856250Y-55995000D03*
%TD*%
D16*
%TO.C,C96*%
X102275000Y-18780000D03*
X102275000Y-17820000D03*
%TD*%
D30*
%TO.C,U27*%
X22644788Y-33761764D03*
X22361945Y-34044607D03*
X22079103Y-34327449D03*
X21796260Y-34610292D03*
X21513417Y-34893135D03*
X21230574Y-35175978D03*
X20947732Y-35458820D03*
X20664889Y-35741663D03*
D31*
X19816361Y-35741663D03*
X19533518Y-35458820D03*
X19250676Y-35175978D03*
X18967833Y-34893135D03*
X18684990Y-34610292D03*
X18402147Y-34327449D03*
X18119305Y-34044607D03*
X17836462Y-33761764D03*
D30*
X17836462Y-32913236D03*
X18119305Y-32630393D03*
X18402147Y-32347551D03*
X18684990Y-32064708D03*
X18967833Y-31781865D03*
X19250676Y-31499022D03*
X19533518Y-31216180D03*
X19816361Y-30933337D03*
D31*
X20664889Y-30933337D03*
X20947732Y-31216180D03*
X21230574Y-31499022D03*
X21513417Y-31781865D03*
X21796260Y-32064708D03*
X22079103Y-32347551D03*
X22361945Y-32630393D03*
X22644788Y-32913236D03*
D32*
X20240625Y-33337500D03*
%TD*%
D16*
%TO.C,C43*%
X64412500Y-56880000D03*
X64412500Y-55920000D03*
%TD*%
D25*
%TO.C,C2*%
X10042500Y-32635938D03*
X9082500Y-32635938D03*
%TD*%
D16*
%TO.C,C184*%
X288250000Y-18780000D03*
X288250000Y-17820000D03*
%TD*%
%TO.C,C93*%
X26075000Y-18780000D03*
X26075000Y-17820000D03*
%TD*%
%TO.C,C130*%
X4643750Y-37830000D03*
X4643750Y-36870000D03*
%TD*%
D25*
%TO.C,C14*%
X1282500Y-13496875D03*
X2242500Y-13496875D03*
%TD*%
D16*
%TO.C,C89*%
X240625000Y-18780000D03*
X240625000Y-17820000D03*
%TD*%
D19*
%TO.C,U104*%
X290829999Y-76200000D03*
X280670001Y-76200000D03*
D20*
X284800000Y-75045000D03*
X285750000Y-77395000D03*
X286700000Y-75045000D03*
%TD*%
D16*
%TO.C,C177*%
X135850000Y-75930000D03*
X135850000Y-74970000D03*
%TD*%
%TO.C,C63*%
X149900000Y270000D03*
X149900000Y1230000D03*
%TD*%
%TO.C,C88*%
X231100000Y270000D03*
X231100000Y1230000D03*
%TD*%
D21*
%TO.C,U51*%
X154262500Y-32635938D03*
X154262500Y-31985938D03*
X154262500Y-31335938D03*
X154262500Y-30685938D03*
X154262500Y-30035938D03*
X154262500Y-29385938D03*
X154262500Y-28735938D03*
X154262500Y-28085938D03*
X160062500Y-28085938D03*
X160062500Y-28735938D03*
X160062500Y-29385938D03*
X160062500Y-30035938D03*
X160062500Y-30685938D03*
X160062500Y-31335938D03*
X160062500Y-31985938D03*
X160062500Y-32635938D03*
%TD*%
D19*
%TO.C,U17*%
X33654999Y-19050000D03*
X23495001Y-19050000D03*
D20*
X27625000Y-17895000D03*
X28575000Y-20245000D03*
X29525000Y-17895000D03*
%TD*%
D25*
%TO.C,C4*%
X233880000Y-51785938D03*
X232920000Y-51785938D03*
%TD*%
D16*
%TO.C,C37*%
X45362500Y-56880000D03*
X45362500Y-55920000D03*
%TD*%
D24*
%TO.C,TP4*%
X20240625Y-28537500D03*
%TD*%
D19*
%TO.C,U102*%
X290829999Y-38100000D03*
X280670001Y-38100000D03*
D20*
X284800000Y-36945000D03*
X285750000Y-39295000D03*
X286700000Y-36945000D03*
%TD*%
D16*
%TO.C,C137*%
X192762500Y-56880000D03*
X192762500Y-55920000D03*
%TD*%
%TO.C,C168*%
X14406250Y-56880000D03*
X14406250Y-55920000D03*
%TD*%
D28*
%TO.C,U3*%
X269081250Y-8255000D03*
D29*
X269081250Y6985000D03*
D19*
X262255000Y0D03*
X252095000Y0D03*
D28*
X245268750Y-8255000D03*
D29*
X245268750Y6985000D03*
D20*
X256225000Y1155000D03*
X257175000Y-1195000D03*
X258125000Y1155000D03*
%TD*%
D16*
%TO.C,C113*%
X252293750Y-37830000D03*
X252293750Y-36870000D03*
%TD*%
D33*
%TO.C,C10*%
X17638473Y-30169662D03*
X18317295Y-30848484D03*
%TD*%
D21*
%TO.C,U62*%
X225700000Y-32635938D03*
X225700000Y-31985938D03*
X225700000Y-31335938D03*
X225700000Y-30685938D03*
X225700000Y-30035938D03*
X225700000Y-29385938D03*
X225700000Y-28735938D03*
X225700000Y-28085938D03*
X231500000Y-28085938D03*
X231500000Y-28735938D03*
X231500000Y-29385938D03*
X231500000Y-30035938D03*
X231500000Y-30685938D03*
X231500000Y-31335938D03*
X231500000Y-31985938D03*
X231500000Y-32635938D03*
%TD*%
D16*
%TO.C,C52*%
X116800000Y270000D03*
X116800000Y1230000D03*
%TD*%
%TO.C,C51*%
X-2500000Y270000D03*
X-2500000Y1230000D03*
%TD*%
%TO.C,C85*%
X197762500Y-56880000D03*
X197762500Y-55920000D03*
%TD*%
%TO.C,C31*%
X26312500Y-56880000D03*
X26312500Y-55920000D03*
%TD*%
%TO.C,C124*%
X145137500Y-37830000D03*
X145137500Y-36870000D03*
%TD*%
%TO.C,C118*%
X283250000Y-37830000D03*
X283250000Y-36870000D03*
%TD*%
D19*
%TO.C,U34*%
X81279999Y0D03*
X71120001Y0D03*
D20*
X75250000Y1155000D03*
X76200000Y-1195000D03*
X77150000Y1155000D03*
%TD*%
D19*
%TO.C,U35*%
X90804999Y-19050000D03*
X80645001Y-19050000D03*
D20*
X84775000Y-17895000D03*
X85725000Y-20245000D03*
X86675000Y-17895000D03*
%TD*%
D16*
%TO.C,C53*%
X126325000Y-18780000D03*
X126325000Y-17820000D03*
%TD*%
%TO.C,C80*%
X226100000Y270000D03*
X226100000Y1230000D03*
%TD*%
%TO.C,C107*%
X243006250Y-56880000D03*
X243006250Y-55920000D03*
%TD*%
%TO.C,C139*%
X154662500Y-56880000D03*
X154662500Y-55920000D03*
%TD*%
D25*
%TO.C,C6*%
X48142500Y-32635938D03*
X47182500Y-32635938D03*
%TD*%
D16*
%TO.C,C7*%
X7362500Y-9616875D03*
X7362500Y-10576875D03*
%TD*%
%TO.C,C143*%
X97512500Y-56880000D03*
X97512500Y-55920000D03*
%TD*%
%TO.C,C111*%
X197525000Y-18780000D03*
X197525000Y-17820000D03*
%TD*%
D19*
%TO.C,U6*%
X57467500Y-76200000D03*
X47307500Y-76200000D03*
D27*
X53542500Y-75250000D03*
X51192500Y-76200000D03*
X53542500Y-77150000D03*
%TD*%
D16*
%TO.C,C76*%
X193000000Y270000D03*
X193000000Y1230000D03*
%TD*%
D34*
%TO.C,U85*%
X3762500Y-11696875D03*
X4262500Y-11696875D03*
X4762500Y-11696875D03*
X5262500Y-11696875D03*
X5762500Y-11696875D03*
X5762500Y-14496875D03*
X5262500Y-14496875D03*
X4762500Y-14496875D03*
X4262500Y-14496875D03*
X3762500Y-14496875D03*
D35*
X4762500Y-13096875D03*
%TD*%
D25*
%TO.C,C169*%
X12492500Y-77050000D03*
X11532500Y-77050000D03*
%TD*%
D16*
%TO.C,C45*%
X111800000Y270000D03*
X111800000Y1230000D03*
%TD*%
%TO.C,C67*%
X140612500Y-56880000D03*
X140612500Y-55920000D03*
%TD*%
%TO.C,C109*%
X288250000Y-56880000D03*
X288250000Y-55920000D03*
%TD*%
%TO.C,C133*%
X40362500Y-56880000D03*
X40362500Y-55920000D03*
%TD*%
D21*
%TO.C,U74*%
X276658750Y-51785938D03*
X276658750Y-51135938D03*
X276658750Y-50485938D03*
X276658750Y-49835938D03*
X276658750Y-49185938D03*
X276658750Y-48535938D03*
X276658750Y-47885938D03*
X276658750Y-47235938D03*
X282458750Y-47235938D03*
X282458750Y-47885938D03*
X282458750Y-48535938D03*
X282458750Y-49185938D03*
X282458750Y-49835938D03*
X282458750Y-50485938D03*
X282458750Y-51135938D03*
X282458750Y-51785938D03*
%TD*%
D16*
%TO.C,C29*%
X50125000Y-18780000D03*
X50125000Y-17820000D03*
%TD*%
D19*
%TO.C,U36*%
X95567499Y-38100000D03*
X85407501Y-38100000D03*
D20*
X89537500Y-36945000D03*
X90487500Y-39295000D03*
X91437500Y-36945000D03*
%TD*%
D19*
%TO.C,U70*%
X195579999Y0D03*
X185420001Y0D03*
D20*
X189550000Y1155000D03*
X190500000Y-1195000D03*
X191450000Y1155000D03*
%TD*%
D19*
%TO.C,U8*%
X219392500Y-76200000D03*
X209232500Y-76200000D03*
D27*
X215467500Y-75250000D03*
X213117500Y-76200000D03*
X215467500Y-77150000D03*
%TD*%
D16*
%TO.C,C86*%
X283250000Y270000D03*
X283250000Y1230000D03*
%TD*%
D19*
%TO.C,U43*%
X105092499Y-57150000D03*
X94932501Y-57150000D03*
D20*
X99062500Y-55995000D03*
X100012500Y-58345000D03*
X100962500Y-55995000D03*
%TD*%
D19*
%TO.C,U15*%
X197961250Y-76200000D03*
X187801250Y-76200000D03*
D20*
X191931250Y-75045000D03*
X192881250Y-77395000D03*
X193831250Y-75045000D03*
%TD*%
D16*
%TO.C,R2*%
X7799999Y115344D03*
X7799999Y1075344D03*
%TD*%
%TO.C,C79*%
X178712500Y-56880000D03*
X178712500Y-55920000D03*
%TD*%
D19*
%TO.C,U103*%
X290829999Y-57150000D03*
X280670001Y-57150000D03*
D20*
X284800000Y-55995000D03*
X285750000Y-58345000D03*
X286700000Y-55995000D03*
%TD*%
D19*
%TO.C,U52*%
X138429999Y0D03*
X128270001Y0D03*
D20*
X132400000Y1155000D03*
X133350000Y-1195000D03*
X134300000Y1155000D03*
%TD*%
D19*
%TO.C,U97*%
X271779999Y-57150000D03*
X261620001Y-57150000D03*
D20*
X265750000Y-55995000D03*
X266700000Y-58345000D03*
X267650000Y-55995000D03*
%TD*%
D19*
%TO.C,U22*%
X43179999Y0D03*
X33020001Y0D03*
D20*
X37150000Y1155000D03*
X38100000Y-1195000D03*
X39050000Y1155000D03*
%TD*%
D16*
%TO.C,C97*%
X216812500Y-56880000D03*
X216812500Y-55920000D03*
%TD*%
D19*
%TO.C,U5*%
X33655000Y-76200000D03*
X23495000Y-76200000D03*
D27*
X29730000Y-75250000D03*
X27380000Y-76200000D03*
X29730000Y-77150000D03*
%TD*%
D19*
%TO.C,U67*%
X181292499Y-57150000D03*
X171132501Y-57150000D03*
D20*
X175262500Y-55995000D03*
X176212500Y-58345000D03*
X177162500Y-55995000D03*
%TD*%
D16*
%TO.C,C126*%
X107037500Y-37830000D03*
X107037500Y-36870000D03*
%TD*%
D19*
%TO.C,U54*%
X152717499Y-38100000D03*
X142557501Y-38100000D03*
D20*
X146687500Y-36945000D03*
X147637500Y-39295000D03*
X148587500Y-36945000D03*
%TD*%
D19*
%TO.C,U53*%
X147954999Y-19050000D03*
X137795001Y-19050000D03*
D20*
X141925000Y-17895000D03*
X142875000Y-20245000D03*
X143825000Y-17895000D03*
%TD*%
D16*
%TO.C,C64*%
X154900000Y270000D03*
X154900000Y1230000D03*
%TD*%
D19*
%TO.C,U29*%
X71754999Y-19050000D03*
X61595001Y-19050000D03*
D20*
X65725000Y-17895000D03*
X66675000Y-20245000D03*
X67625000Y-17895000D03*
%TD*%
D16*
%TO.C,C49*%
X83462500Y-56880000D03*
X83462500Y-55920000D03*
%TD*%
%TO.C,C82*%
X212050000Y270000D03*
X212050000Y1230000D03*
%TD*%
%TO.C,C138*%
X173712500Y-56880000D03*
X173712500Y-55920000D03*
%TD*%
D36*
%TO.C,J2*%
X17513610Y-8284344D03*
X17513610Y-13884344D03*
D37*
X13638610Y-9584344D03*
X13638611Y-10584344D03*
X13638611Y-11584344D03*
X13638610Y-12584344D03*
%TD*%
D19*
%TO.C,U14*%
X7461250Y-76200000D03*
X-2698750Y-76200000D03*
D27*
X3536250Y-75250000D03*
X1186250Y-76200000D03*
X3536250Y-77150000D03*
%TD*%
D16*
%TO.C,C55*%
X102512500Y-56880000D03*
X102512500Y-55920000D03*
%TD*%
%TO.C,C116*%
X283250000Y-18780000D03*
X283250000Y-17820000D03*
%TD*%
%TO.C,C38*%
X54650000Y270000D03*
X54650000Y1230000D03*
%TD*%
D19*
%TO.C,U40*%
X100329999Y0D03*
X90170001Y0D03*
D20*
X94300000Y1155000D03*
X95250000Y-1195000D03*
X96200000Y1155000D03*
%TD*%
D25*
%TO.C,C158*%
X210832500Y-74450000D03*
X211792500Y-74450000D03*
%TD*%
D38*
%TO.C,R35*%
X16620238Y-32545540D03*
X15941416Y-31866718D03*
%TD*%
D16*
%TO.C,C46*%
X97750000Y270000D03*
X97750000Y1230000D03*
%TD*%
%TO.C,C69*%
X188000000Y270000D03*
X188000000Y1230000D03*
%TD*%
D25*
%TO.C,C149*%
X46526250Y-74450000D03*
X47486250Y-74450000D03*
%TD*%
%TO.C,C1*%
X3230000Y2499999D03*
X2270000Y2499999D03*
%TD*%
D16*
%TO.C,C74*%
X207050000Y270000D03*
X207050000Y1230000D03*
%TD*%
D21*
%TO.C,U2*%
X1862500Y-32635938D03*
X1862500Y-31985938D03*
X1862500Y-31335938D03*
X1862500Y-30685938D03*
X1862500Y-30035938D03*
X1862500Y-29385938D03*
X1862500Y-28735938D03*
X1862500Y-28085938D03*
X7662500Y-28085938D03*
X7662500Y-28735938D03*
X7662500Y-29385938D03*
X7662500Y-30035938D03*
X7662500Y-30685938D03*
X7662500Y-31335938D03*
X7662500Y-31985938D03*
X7662500Y-32635938D03*
%TD*%
D16*
%TO.C,C163*%
X130850000Y-75930000D03*
X130850000Y-74970000D03*
%TD*%
%TO.C,C32*%
X35700000Y-11804344D03*
X35700000Y-12764344D03*
%TD*%
D19*
%TO.C,U47*%
X128904999Y-19050000D03*
X118745001Y-19050000D03*
D20*
X122875000Y-17895000D03*
X123825000Y-20245000D03*
X124775000Y-17895000D03*
%TD*%
D16*
%TO.C,C112*%
X216575000Y-18780000D03*
X216575000Y-17820000D03*
%TD*%
%TO.C,C68*%
X168950000Y270000D03*
X168950000Y1230000D03*
%TD*%
%TO.C,C27*%
X16550000Y270000D03*
X16550000Y1230000D03*
%TD*%
D25*
%TO.C,R1*%
X3230000Y3499999D03*
X2270000Y3499999D03*
%TD*%
D19*
%TO.C,U71*%
X205104999Y-19050000D03*
X194945001Y-19050000D03*
D20*
X199075000Y-17895000D03*
X200025000Y-20245000D03*
X200975000Y-17895000D03*
%TD*%
D16*
%TO.C,C94*%
X250150000Y270000D03*
X250150000Y1230000D03*
%TD*%
%TO.C,C15*%
X259675000Y270000D03*
X259675000Y1230000D03*
%TD*%
D39*
%TO.C,L1*%
X6012500Y-9696875D03*
X3512500Y-9696875D03*
%TD*%
D16*
%TO.C,C142*%
X78462500Y-56880000D03*
X78462500Y-55920000D03*
%TD*%
D25*
%TO.C,C20*%
X1282500Y-12496875D03*
X2242500Y-12496875D03*
%TD*%
D19*
%TO.C,U80*%
X28892499Y-57150000D03*
X18732501Y-57150000D03*
D20*
X22862500Y-55995000D03*
X23812500Y-58345000D03*
X24762500Y-55995000D03*
%TD*%
D40*
%TO.C,USB1*%
X6160000Y3931000D03*
X11940000Y3931000D03*
D41*
X5825000Y2486000D03*
X6600000Y2486000D03*
D42*
X7300000Y2486000D03*
X7800000Y2486000D03*
X8300000Y2486000D03*
X8800000Y2486000D03*
X9300000Y2486000D03*
X9800000Y2486000D03*
X10300000Y2486000D03*
X10800000Y2486000D03*
D41*
X11500000Y2486000D03*
X12275000Y2486000D03*
D43*
X4730000Y7581000D03*
D44*
X4730000Y3401000D03*
D43*
X13370000Y7581000D03*
D44*
X13370000Y3401000D03*
%TD*%
D16*
%TO.C,C90*%
X257293750Y-37830000D03*
X257293750Y-36870000D03*
%TD*%
%TO.C,C114*%
X235625000Y-18780000D03*
X235625000Y-17820000D03*
%TD*%
D19*
%TO.C,U100*%
X290829999Y0D03*
X280670001Y0D03*
D20*
X284800000Y1155000D03*
X285750000Y-1195000D03*
X286700000Y1155000D03*
%TD*%
D45*
%TO.C,U19*%
X37150000Y-9946844D03*
X38100000Y-9946844D03*
X39050000Y-9946844D03*
X39050000Y-12221844D03*
X37150000Y-12221844D03*
%TD*%
D19*
%TO.C,U28*%
X62229999Y0D03*
X52070001Y0D03*
D20*
X56200000Y1155000D03*
X57150000Y-1195000D03*
X58100000Y1155000D03*
%TD*%
D16*
%TO.C,C172*%
X250150000Y-75930000D03*
X250150000Y-74970000D03*
%TD*%
%TO.C,C92*%
X83225000Y-18780000D03*
X83225000Y-17820000D03*
%TD*%
%TO.C,C101*%
X140375000Y-18780000D03*
X140375000Y-17820000D03*
%TD*%
D19*
%TO.C,U94*%
X271779999Y0D03*
X261620001Y0D03*
D20*
X265750000Y1155000D03*
X266700000Y-1195000D03*
X267650000Y1155000D03*
%TD*%
D19*
%TO.C,U42*%
X114617499Y-38100000D03*
X104457501Y-38100000D03*
D20*
X108587500Y-36945000D03*
X109537500Y-39295000D03*
X110487500Y-36945000D03*
%TD*%
D16*
%TO.C,C59*%
X145375000Y-18780000D03*
X145375000Y-17820000D03*
%TD*%
D21*
%TO.C,U38*%
X78062500Y-32635938D03*
X78062500Y-31985938D03*
X78062500Y-31335938D03*
X78062500Y-30685938D03*
X78062500Y-30035938D03*
X78062500Y-29385938D03*
X78062500Y-28735938D03*
X78062500Y-28085938D03*
X83862500Y-28085938D03*
X83862500Y-28735938D03*
X83862500Y-29385938D03*
X83862500Y-30035938D03*
X83862500Y-30685938D03*
X83862500Y-31335938D03*
X83862500Y-31985938D03*
X83862500Y-32635938D03*
%TD*%
D19*
%TO.C,U4*%
X9842500Y-76200000D03*
X-317500Y-76200000D03*
D27*
X5917500Y-75250000D03*
X3567500Y-76200000D03*
X5917500Y-77150000D03*
%TD*%
D19*
%TO.C,U91*%
X245586250Y-57150000D03*
X235426250Y-57150000D03*
D20*
X239556250Y-55995000D03*
X240506250Y-58345000D03*
X241456250Y-55995000D03*
%TD*%
D19*
%TO.C,U11*%
X9842500Y-19050000D03*
X-317500Y-19050000D03*
D20*
X3812500Y-17895000D03*
X4762500Y-20245000D03*
X5712500Y-17895000D03*
%TD*%
D16*
%TO.C,C40*%
X78700000Y270000D03*
X78700000Y1230000D03*
%TD*%
%TO.C,C132*%
X-118750Y-56880000D03*
X-118750Y-55920000D03*
%TD*%
D24*
%TO.C,TP1*%
X16240625Y-25537500D03*
%TD*%
D16*
%TO.C,C108*%
X269200000Y-56880000D03*
X269200000Y-55920000D03*
%TD*%
%TO.C,C78*%
X207287500Y-37830000D03*
X207287500Y-36870000D03*
%TD*%
%TO.C,C100*%
X269200000Y270000D03*
X269200000Y1230000D03*
%TD*%
%TO.C,C144*%
X116562500Y-56880000D03*
X116562500Y-55920000D03*
%TD*%
D21*
%TO.C,U32*%
X39962500Y-32635938D03*
X39962500Y-31985938D03*
X39962500Y-31335938D03*
X39962500Y-30685938D03*
X39962500Y-30035938D03*
X39962500Y-29385938D03*
X39962500Y-28735938D03*
X39962500Y-28085938D03*
X45762500Y-28085938D03*
X45762500Y-28735938D03*
X45762500Y-29385938D03*
X45762500Y-30035938D03*
X45762500Y-30685938D03*
X45762500Y-31335938D03*
X45762500Y-31985938D03*
X45762500Y-32635938D03*
%TD*%
D19*
%TO.C,U73*%
X200342499Y-57150000D03*
X190182501Y-57150000D03*
D20*
X194312500Y-55995000D03*
X195262500Y-58345000D03*
X196212500Y-55995000D03*
%TD*%
D28*
%TO.C,U84*%
X266700001Y-29845000D03*
D29*
X266700000Y-45085000D03*
D19*
X259873749Y-38100000D03*
X249713751Y-38100000D03*
D29*
X242887500Y-45085000D03*
D28*
X242887499Y-29845000D03*
D20*
X253843750Y-36945000D03*
X254793750Y-39295000D03*
X255743750Y-36945000D03*
%TD*%
D19*
%TO.C,U41*%
X109854999Y-19050000D03*
X99695001Y-19050000D03*
D20*
X103825000Y-17895000D03*
X104775000Y-20245000D03*
X105725000Y-17895000D03*
%TD*%
D19*
%TO.C,U48*%
X133667499Y-38100000D03*
X123507501Y-38100000D03*
D20*
X127637500Y-36945000D03*
X128587500Y-39295000D03*
X129537500Y-36945000D03*
%TD*%
D16*
%TO.C,C57*%
X130850000Y270000D03*
X130850000Y1230000D03*
%TD*%
%TO.C,C65*%
X164425000Y-18780000D03*
X164425000Y-17820000D03*
%TD*%
D19*
%TO.C,U60*%
X171767499Y-38100000D03*
X161607501Y-38100000D03*
D20*
X165737500Y-36945000D03*
X166687500Y-39295000D03*
X167637500Y-36945000D03*
%TD*%
D25*
%TO.C,C147*%
X-1098750Y-74450000D03*
X-138750Y-74450000D03*
%TD*%
D16*
%TO.C,C174*%
X288250000Y-75930000D03*
X288250000Y-74970000D03*
%TD*%
D25*
%TO.C,C170*%
X36305000Y-77050000D03*
X35345000Y-77050000D03*
%TD*%
D16*
%TO.C,C25*%
X51950000Y-11964344D03*
X51950000Y-11004344D03*
%TD*%
D19*
%TO.C,U64*%
X176529999Y0D03*
X166370001Y0D03*
D20*
X170500000Y1155000D03*
X171450000Y-1195000D03*
X172400000Y1155000D03*
%TD*%
D25*
%TO.C,C154*%
X162442500Y-32635938D03*
X161482500Y-32635938D03*
%TD*%
D29*
%TO.C,U7*%
X190500000Y-83185000D03*
D28*
X190500000Y-67945000D03*
D19*
X138430000Y-76200000D03*
X128270000Y-76200000D03*
D29*
X76200000Y-83185000D03*
D28*
X76200000Y-67945000D03*
D20*
X132400000Y-75045000D03*
X133350000Y-77395000D03*
X134300000Y-75045000D03*
%TD*%
D19*
%TO.C,U59*%
X167004999Y-19050000D03*
X156845001Y-19050000D03*
D20*
X160975000Y-17895000D03*
X161925000Y-20245000D03*
X162875000Y-17895000D03*
%TD*%
D16*
%TO.C,C70*%
X173950000Y270000D03*
X173950000Y1230000D03*
%TD*%
%TO.C,C119*%
X221337500Y-37830000D03*
X221337500Y-36870000D03*
%TD*%
D21*
%TO.C,U69*%
X225700000Y-51785938D03*
X225700000Y-51135938D03*
X225700000Y-50485938D03*
X225700000Y-49835938D03*
X225700000Y-49185938D03*
X225700000Y-48535938D03*
X225700000Y-47885938D03*
X225700000Y-47235938D03*
X231500000Y-47235938D03*
X231500000Y-47885938D03*
X231500000Y-48535938D03*
X231500000Y-49185938D03*
X231500000Y-49835938D03*
X231500000Y-50485938D03*
X231500000Y-51135938D03*
X231500000Y-51785938D03*
%TD*%
D19*
%TO.C,U78*%
X228917499Y-38100000D03*
X218757501Y-38100000D03*
D20*
X222887500Y-36945000D03*
X223837500Y-39295000D03*
X224787500Y-36945000D03*
%TD*%
D16*
%TO.C,C131*%
X9406250Y-56880000D03*
X9406250Y-55920000D03*
%TD*%
D18*
%TO.C,C11*%
X23393435Y-37225702D03*
X22714613Y-37904524D03*
%TD*%
D19*
%TO.C,U16*%
X24129999Y0D03*
X13970001Y0D03*
D20*
X18100000Y1155000D03*
X19050000Y-1195000D03*
X20000000Y1155000D03*
%TD*%
D16*
%TO.C,C77*%
X202525000Y-18780000D03*
X202525000Y-17820000D03*
%TD*%
%TO.C,C157*%
X190381250Y-75930000D03*
X190381250Y-74970000D03*
%TD*%
%TO.C,C16*%
X2500000Y270000D03*
X2500000Y1230000D03*
%TD*%
%TO.C,C83*%
X221575000Y-18780000D03*
X221575000Y-17820000D03*
%TD*%
D46*
%TO.C,R113*%
X7362500Y-11586875D03*
X7362500Y-12606875D03*
%TD*%
D16*
%TO.C,C87*%
X45125000Y-18780000D03*
X45125000Y-17820000D03*
%TD*%
%TO.C,C106*%
X288250000Y270000D03*
X288250000Y1230000D03*
%TD*%
%TO.C,C39*%
X73700000Y270000D03*
X73700000Y1230000D03*
%TD*%
%TO.C,C146*%
X21312500Y-56880000D03*
X21312500Y-55920000D03*
%TD*%
%TO.C,C26*%
X35700000Y-10364344D03*
X35700000Y-9404344D03*
%TD*%
%TO.C,C54*%
X131087500Y-37830000D03*
X131087500Y-36870000D03*
%TD*%
%TO.C,C136*%
X211812500Y-56880000D03*
X211812500Y-55920000D03*
%TD*%
%TO.C,C102*%
X159425000Y-18780000D03*
X159425000Y-17820000D03*
%TD*%
%TO.C,C47*%
X107275000Y-18780000D03*
X107275000Y-17820000D03*
%TD*%
%TO.C,C153*%
X118943750Y-75930000D03*
X118943750Y-74970000D03*
%TD*%
%TO.C,C185*%
X288250000Y-37830000D03*
X288250000Y-36870000D03*
%TD*%
D47*
%TO.C,C165*%
X7362500Y-14576875D03*
X7362500Y-13616875D03*
%TD*%
D19*
%TO.C,U88*%
X252729999Y0D03*
X242570001Y0D03*
D20*
X246700000Y1155000D03*
X247650000Y-1195000D03*
X248600000Y1155000D03*
%TD*%
D48*
%TO.C,JP1*%
X21425000Y-14750000D03*
D49*
X21425000Y-16050000D03*
%TD*%
D19*
%TO.C,U49*%
X124142499Y-57150000D03*
X113982501Y-57150000D03*
D20*
X118112500Y-55995000D03*
X119062500Y-58345000D03*
X120012500Y-55995000D03*
%TD*%
D19*
%TO.C,U20*%
X31273750Y-76200000D03*
X21113750Y-76200000D03*
D27*
X27348750Y-75250000D03*
X24998750Y-76200000D03*
X27348750Y-77150000D03*
%TD*%
D16*
%TO.C,C134*%
X238006250Y-56880000D03*
X238006250Y-55920000D03*
%TD*%
D25*
%TO.C,C152*%
X200542500Y-32635938D03*
X199582500Y-32635938D03*
%TD*%
D19*
%TO.C,U61*%
X162242499Y-57150000D03*
X152082501Y-57150000D03*
D20*
X156212500Y-55995000D03*
X157162500Y-58345000D03*
X158112500Y-55995000D03*
%TD*%
D29*
%TO.C,U44*%
X171443650Y-83185000D03*
D28*
X171443650Y-67945000D03*
D19*
X126523750Y-76200000D03*
X116363750Y-76200000D03*
D29*
X71443850Y-83185000D03*
D28*
X71443850Y-67945000D03*
D20*
X120493750Y-75045000D03*
X121443750Y-77395000D03*
X122393750Y-75045000D03*
%TD*%
D16*
%TO.C,C81*%
X264200000Y270000D03*
X264200000Y1230000D03*
%TD*%
D19*
%TO.C,U46*%
X119379999Y0D03*
X109220001Y0D03*
D20*
X113350000Y1155000D03*
X114300000Y-1195000D03*
X115250000Y1155000D03*
%TD*%
D18*
%TO.C,C9*%
X24398413Y-31725297D03*
X23719591Y-32404119D03*
%TD*%
D19*
%TO.C,U76*%
X214629999Y0D03*
X204470001Y0D03*
D20*
X208600000Y1155000D03*
X209550000Y-1195000D03*
X210500000Y1155000D03*
%TD*%
D50*
%TO.C,JP2*%
X700000Y-16000000D03*
D51*
X2000000Y-16000000D03*
%TD*%
D19*
%TO.C,U98*%
X271779999Y-76200000D03*
X261620001Y-76200000D03*
D20*
X265750000Y-75045000D03*
X266700000Y-77395000D03*
X267650000Y-75045000D03*
%TD*%
D25*
%TO.C,C148*%
X22713750Y-74450000D03*
X23673750Y-74450000D03*
%TD*%
D16*
%TO.C,C91*%
X64175000Y-18780000D03*
X64175000Y-17820000D03*
%TD*%
%TO.C,C159*%
X245150000Y-75930000D03*
X245150000Y-74970000D03*
%TD*%
D19*
%TO.C,U21*%
X221773750Y-76200000D03*
X211613750Y-76200000D03*
D27*
X217848750Y-75250000D03*
X215498750Y-76200000D03*
X217848750Y-77150000D03*
%TD*%
D16*
%TO.C,C178*%
X123943750Y-75930000D03*
X123943750Y-74970000D03*
%TD*%
%TO.C,C175*%
X195381250Y-75930000D03*
X195381250Y-74970000D03*
%TD*%
%TO.C,C121*%
X183237500Y-37830000D03*
X183237500Y-36870000D03*
%TD*%
D24*
%TO.C,TP2*%
X20240625Y-25537500D03*
%TD*%
D16*
%TO.C,C61*%
X121562500Y-56880000D03*
X121562500Y-55920000D03*
%TD*%
D52*
%TO.C,F1*%
X8350000Y-1819000D03*
X10750000Y-1819000D03*
%TD*%
D16*
%TO.C,C84*%
X226337500Y-37830000D03*
X226337500Y-36870000D03*
%TD*%
D38*
%TO.C,R30*%
X15913132Y-33252647D03*
X15234310Y-32573825D03*
%TD*%
D16*
%TO.C,C145*%
X283250000Y-56880000D03*
X283250000Y-55920000D03*
%TD*%
D33*
%TO.C,C8*%
X16260589Y-28760589D03*
X16939411Y-29439411D03*
%TD*%
D16*
%TO.C,C161*%
X283250000Y-75930000D03*
X283250000Y-74970000D03*
%TD*%
D19*
%TO.C,U24*%
X57467499Y-38100000D03*
X47307501Y-38100000D03*
D20*
X51437500Y-36945000D03*
X52387500Y-39295000D03*
X53337500Y-36945000D03*
%TD*%
D16*
%TO.C,C135*%
X264200000Y-56880000D03*
X264200000Y-55920000D03*
%TD*%
%TO.C,C42*%
X92987500Y-37830000D03*
X92987500Y-36870000D03*
%TD*%
%TO.C,C48*%
X112037500Y-37830000D03*
X112037500Y-36870000D03*
%TD*%
%TO.C,C21*%
X51950000Y-7804344D03*
X51950000Y-8764344D03*
%TD*%
%TO.C,C120*%
X202287500Y-37830000D03*
X202287500Y-36870000D03*
%TD*%
%TO.C,C115*%
X259437500Y-18780000D03*
X259437500Y-17820000D03*
%TD*%
%LPD*%
M02*
